<?xml version="1.0" encoding="utf-8"?>
<!-- Generator: Adobe Illustrator 16.0.0, SVG Export Plug-In . SVG Version: 6.00 Build 0)  -->
<!DOCTYPE svg PUBLIC "-//W3C//DTD SVG 1.1 Basic//EN" "http://www.w3.org/Graphics/SVG/1.1/DTD/svg11-basic.dtd">
<svg version="1.1" baseProfile="basic" id="Layer_1"
	 xmlns="http://www.w3.org/2000/svg" xmlns:xlink="http://www.w3.org/1999/xlink" x="0px" y="0px" width="1536px"
	 height="1536.006px" viewBox="-325 -325.003 1536 1536.006" xml:space="preserve">
<g id="_x23_010101ff">
	<path d="M332.645,59.278c27.55-4.612,55.229-9.346,83.203-10.182c11.551,0.988,23.153,1.359,34.708,2.319
		c59.633,3.919,119.22,15.694,174.221,39.554c25.466,12.021,48.885,27.856,72.471,43.127c4.081,2.604,7.879,5.583,11.514,8.778
		c10.295,8.938,20.682,17.778,30.388,27.362c6.868,6.872,16.475,10.387,22.689,18.002c14.291,16.783,27.945,34.123,40.104,52.505
		c8.146,11.354,13.742,24.226,19.755,36.762c5.269,13.38,11.903,26.238,16.173,40.02c5.783,14.973,11.047,30.224,13.915,46.062
		c5.898,31.63,11.304,63.393,14.195,95.444c0.897,7.578-0.097,15.229,0.872,22.82c-0.579,29.14-4.814,58.052-7.403,87.047
		c-1.62,19.035-6.581,37.52-10.546,56.147c-7.082,27.492-17.963,53.815-29.297,79.789c-8.967,21.088-19.299,41.668-32.27,60.6
		c-9.098,13.306-18.323,26.656-29.822,38.052c-6.667,8.707-15.809,14.914-23.903,22.172c-8.419,7.507-17.356,14.407-26.583,20.885
		c-38.573,29.437-79.168,56.405-122.269,78.778c-1.781,69.267-4.964,138.498-8.939,207.673c-1.258,26.004-3.459,51.979-4.38,78
		H318.832c-0.391-36.851-2.577-73.646-4.125-110.471c-0.928-12.822-0.041-25.685-0.611-38.529
		c-0.703-16.851-0.376-33.727-0.647-50.59c-1.5-26.452,1.768-52.949-0.229-79.389c-0.801-6.985-1.75-13.943-2.436-20.927
		c-2.965-0.549-5.9-1.301-8.542-2.734c-36.291-18.992-72.315-38.501-107.604-59.269c-5.12-3.342-9.373-7.765-13.9-11.789
		c-18.062-16.18-35.015-33.566-51.357-51.458c-18.901-21.808-36.39-44.806-53.513-68.03c-4.109-5.48-6.438-11.975-9.489-18.047
		c-7.1-15.781-15.229-31.271-19.696-48.073c-5.641-15.762-10.182-31.936-13.409-48.362c-5.309-20.956-7.982-42.418-11.297-63.736
		c-1.026-14.319-1.91-28.668-1.91-43.015c-1.718-46.062-1.679-92.448,5.699-138.076c5.03-30.474,10.861-61.153,23.341-89.585
		c8.59-25.312,21.06-48.987,33.686-72.46c4.47-7.331,9.473-14.345,14.663-21.186c11.345-12.786,24.056-24.239,36.351-36.099
		c13.014-10.385,26.015-21.332,41.651-27.596c6.071-2.324,11.573-5.858,17.355-8.807c27.159-12.294,55.497-21.779,83.975-30.525
		C295.157,66.915,313.826,62.647,332.645,59.278z"/>
</g>
<rect x="-325" y="-325.003" fill="none" width="1536" height="1535.997"/>
</svg>
