<?xml version="1.0" encoding="utf-8"?>
<!-- Generator: Adobe Illustrator 15.0.2, SVG Export Plug-In . SVG Version: 6.00 Build 0)  -->
<!DOCTYPE svg PUBLIC "-//W3C//DTD SVG 1.1//EN" "http://www.w3.org/Graphics/SVG/1.1/DTD/svg11.dtd">
<svg version="1.1" id="Livello_1" xmlns="http://www.w3.org/2000/svg" xmlns:xlink="http://www.w3.org/1999/xlink" x="0px" y="0px"
	 width="886px" height="886px" viewBox="0 0 886 886" enable-background="new 0 0 886 886" xml:space="preserve">
<g id="_x23_3754a0ff">
	<path fill="#3754A0" d="M440.327,26.47c15.393-0.24,30.803-0.101,46.173,0.649c18.537,2.29,37.05,4.84,55.567,7.32
		c6.62,0.7,12.603,3.8,18.92,5.66c13.55,4.729,27.353,9.01,40.08,15.76c20.29,9.9,39.392,22.1,57.353,35.74
		c6.027,4.55,12.63,8.58,17.31,14.63c17.71,19.02,34.93,38.49,51.45,58.56c2.81,3.601,5.857,7.05,8.2,11
		c11.8,19.33,23.34,38.82,34.027,58.79c3.593,6.96,7.763,13.69,10.021,21.25c6.7,18.23,12.92,36.63,18.55,55.21
		c2.32,7.08,2.021,14.601,2.42,21.95c0.43,19.66,1.62,39.29,1.51,58.96c-0.01,5.67,0.25,11.391-0.697,17.011
		c-3.473,23.01-6.312,46.119-9.633,69.149c-1.21,11.891-4.697,23.358-7.487,34.931c-4.95,18.77-10.04,37.51-15.75,56.06
		c-7.62,20.32-15.24,40.65-23.263,60.812c-14.52,25.471-29.79,50.568-46.857,74.438c-12.4,17.33-24.84,34.771-39.61,50.19
		c-13.08,14.899-27.71,28.34-41.72,42.35c-4.23,4.512-10.16,6.62-15.43,9.58c-15.2,8.83-31.41,15.82-47.883,21.892
		c-32.157,10.619-65.697,15.92-98.777,22.75c-26.03,1.619-52.36,2.659-78.23-1.439c-19.489-4.83-38.85-10.591-57.107-19.03
		c-31.16-16.438-58.8-38.71-84.57-62.54c-12.68-14.01-25.148-28.22-37.39-42.619c-5.79-6.891-11.853-13.569-17.17-20.829
		c-3.2-4.642-5.683-9.71-8.58-14.521c-11.143-18.25-20.853-37.3-30.7-56.261c-3.41-6.289-5.66-13.109-8.312-19.729
		c-7.551-19.438-15.221-38.89-20.438-59.108c-4.8-18.34-9.271-36.771-13.85-55.17c-2.683-20.91-5.263-41.852-7.62-62.812
		c-0.63-7.41-0.062-14.86,0.47-22.26c1.43-25.25,2.68-50.511,3.63-75.78c0.26-10.49,2.8-20.7,4.16-31.061
		c3.688-21.6,6.81-43.3,10.5-64.899c0.82-8.86,5.47-16.61,8.8-24.67c8.54-19.381,16.87-38.86,25.88-58.03
		c1.8-4.26,4.972-7.67,7.9-11.16c14.2-17.67,29.31-34.62,45.33-50.65c2-2.069,4.277-3.859,6.81-5.25
		C225,81.2,246.06,69.68,267.84,59.67c3.938-1.899,7.87-3.939,12.17-4.93c25.12-5.95,50.01-12.85,75.2-18.521
		c5.988-1.12,11.828-3.011,17.908-3.681c15.909-2.1,31.802-4.56,47.829-5.609C427.4,26.59,433.867,26.75,440.327,26.47
		 M628.367,286.69c-3.59,1.02-6.938,2.689-10.27,4.33c-8.521,3.79-13.97,12.39-16.68,20.99c0.237,8.779,3.737,17.529,9.21,24.39
		c3.04,4,7.51,6.47,11.71,9.07c4.27,3.05,9.76,1.81,14.63,2.729c4.8,0.88,9.6-0.45,14-2.31c4.95-1.93,8.47-6.11,12.29-9.61
		c2.897-3.14,6.688-6.13,7.31-10.649c1.07-6.881-1.16-13.67-2.56-20.33c-3.4-5.48-6.812-11.4-12.473-14.86
		C647.577,285.41,637.39,284.54,628.367,286.69 M234.05,291.77c-3.71,0.46-7.55,0.8-11,2.34c-3.37,1.82-6.521,4.04-9.53,6.39
		c-2.93,2.301-4.12,5.99-5.49,9.301c-3.157,7.85-1.789,16.56-0.117,24.59c0.64,2.59,0.907,5.57,3.078,7.41
		c3.521,3.09,6.779,6.84,11.319,8.41c5.36,1.81,10.79,4.35,16.603,3.319c8-1.05,16.938-1.71,23.13-7.52
		c3.14-2.811,6.91-5.17,8.8-9.09c2.46-4.7,5.34-9.521,5.6-14.94c-0.6-8.48-3.107-17.98-10.64-22.89
		C256.14,293.96,245.05,290.82,234.05,291.77z"/>
</g>
<g id="_x23_e46810ff">
	<path fill="#E46810" d="M628.367,286.69c9.021-2.15,19.21-1.28,27.17,3.75c5.66,3.46,9.07,9.38,12.473,14.86
		c1.397,6.66,3.63,13.449,2.56,20.33c-0.62,4.52-4.41,7.51-7.31,10.649c-3.82,3.5-7.34,7.681-12.29,9.61
		c-4.4,1.859-9.2,3.189-14,2.31c-4.87-0.92-10.36,0.32-14.63-2.729c-4.2-2.601-8.67-5.07-11.71-9.07
		c-5.473-6.86-8.973-15.61-9.21-24.39c2.71-8.601,8.157-17.2,16.68-20.99C621.43,289.38,624.78,287.71,628.367,286.69z"/>
	<path fill="#E46810" d="M234.05,291.77c11-0.95,22.09,2.189,31.75,7.32c7.53,4.909,10.04,14.409,10.64,22.89
		c-0.26,5.42-3.14,10.24-5.6,14.94c-1.89,3.92-5.66,6.279-8.8,9.09c-6.19,5.81-15.13,6.47-23.13,7.52
		c-5.812,1.03-11.24-1.51-16.603-3.319c-4.54-1.57-7.8-5.32-11.32-8.41c-2.17-1.84-2.438-4.82-3.077-7.41
		c-1.673-8.03-3.04-16.74,0.117-24.59c1.37-3.311,2.562-7,5.49-9.301c3.01-2.35,6.16-4.569,9.53-6.39
		C226.5,292.57,230.34,292.23,234.05,291.77z"/>
</g>
</svg>
