<?xml version="1.0" encoding="utf-8"?>
<!-- Generator: Adobe Illustrator 16.0.0, SVG Export Plug-In . SVG Version: 6.00 Build 0)  -->
<!DOCTYPE svg PUBLIC "-//W3C//DTD SVG 1.1//EN" "http://www.w3.org/Graphics/SVG/1.1/DTD/svg11.dtd">
<svg version="1.1" id="Livello_1" xmlns="http://www.w3.org/2000/svg" xmlns:xlink="http://www.w3.org/1999/xlink" x="0px" y="0px"
	 width="768px" height="1024.604px" viewBox="0 0 768 1024.604" enable-background="new 0 0 768 1024.604" xml:space="preserve">
<g>
	<g id="_x23_ed6d8eff">
		<path fill="#EB6E8E" d="M347.569,336.944c19.679-0.868,39.357-1.717,59.071-1.609c29.167-0.505,57.846,6.144,85.619,14.457
			c34.099,12.27,66.699,30.052,93.172,55.062c13.987,14.149,26.491,29.853,36.358,47.165c9.252,17.673,16.896,36.105,24.504,54.52
			c6.74,19.083,11.637,38.761,18.071,57.952c3.307,10.591,11.491,18.396,18.792,26.348c8.06,8.313,15.162,17.674,20.42,28.027
			c6.596,15.018,8.368,31.66,8.259,47.924c0.199,12.342-2.801,24.955-9.542,35.382c-7.264,11.312-14.69,22.571-23.166,33.032
			c-4.481,5.476-8.638,11.368-10.896,18.162c-6.776,18.774-11.927,38.109-19.103,56.759c-5.401,13.697-9.486,28.009-16.805,40.857
			c-12.704,23.04-28.552,44.508-47.726,62.578c-8.148,8.945-18.611,15.162-28.335,22.19
			c-37.207,25.371-81.228,40.931-126.259,43.425c-20.42-0.182-40.876,0.632-61.259-0.94c-31.082-3.252-62-8.528-92.16-16.787
			c-32.455-11.384-58.224-35.273-81.751-59.506c-19.769-19.878-37.045-42.483-49.386-67.729
			c-5.494-12.722-9.632-26.038-16.029-38.363c-5.15-9.775-8.656-20.257-13.21-30.284c-6.505-13.5-20.745-20.24-30.521-30.938
			c-7.734-8.528-16.624-16.174-22.913-25.896c-6.885-13.047-7.03-28.427-5.802-42.772c1.608-16.753,9.759-32.075,19.806-45.267
			c9.703-10.771,20.04-21.125,27.937-33.36c4.842-9.197,5.132-19.877,7.806-29.742c3.777-13.823,5.909-28.083,10.879-41.562
			c4.499-12.434,7.951-25.282,13.788-37.19c5.873-12.036,12.198-23.835,18.721-35.526c12.613-23.654,32.401-42.321,52.062-60.066
			c16.246-12.56,34.732-22.281,54.267-28.642C290.231,346.991,318.332,337.956,347.569,336.944"/>
	</g>
</g>
<g id="_x23_395691ff">
	<path fill="#3B5691" d="M209.673,584.276c13.697,4.68,26.979,10.479,40.677,15.18c17.546,5.185,34.442,12.179,51.591,18.485
		c2.205,0.85,4.427,1.808,6.271,3.308c-7.102,6.921-15.342,12.956-24.594,16.678c-16.48,5.531-36.141,5.403-50.49-5.438
		C218.744,620.707,213.233,601.769,209.673,584.276z"/>
	<path fill="#3B5691" d="M525.131,603.341c10.771-4.428,21.432-9.253,32.672-12.396c0.199,17.402-3.704,36.955-18.413,48.015
		c-9.849,9.162-24.181,10.337-36.848,8.167c-7.969-2.438-15.197-6.777-22.715-10.299c-4.987-2.132-8.799-6.019-12.341-9.976
		C486.568,618.683,506.066,611.545,525.131,603.341z"/>
</g>
<g id="_x23_db011cff">
	<path fill="#DA051E" d="M365.098,782.185c20.348-6.288,42.213-1.823,61.565,5.767c17.259,5.421,32.021,16.57,44.311,29.599
		c3.796,3.614,7.12,7.735,9.542,12.434c-35.51-1.318-71.037-2.674-106.49-5.188c-20.907-0.504-41.6-3.884-62.253-6.829
		c4.337-4.807,9.034-9.325,14.365-13.027C338.335,796.172,350.226,786.016,365.098,782.185z"/>
</g>
</svg>
