<?xml version="1.0" encoding="utf-8"?>
<!-- Generator: Adobe Illustrator 16.0.0, SVG Export Plug-In . SVG Version: 6.00 Build 0)  -->
<!DOCTYPE svg PUBLIC "-//W3C//DTD SVG 1.1 Basic//EN" "http://www.w3.org/Graphics/SVG/1.1/DTD/svg11-basic.dtd">
<svg version="1.1" baseProfile="basic" id="Livello_1"
	 xmlns="http://www.w3.org/2000/svg" xmlns:xlink="http://www.w3.org/1999/xlink" x="0px" y="0px" width="768px" height="1024px"
	 viewBox="0 0 768 1024" xml:space="preserve">
<g>
	<g id="_x23_ed6d8eff">
		<path fill="#EB6E8E" d="M376.374,314.875c22.751-0.524,45.609-1.661,68.197,1.951c34.732,5.454,68.923,15.983,99.588,33.375
			c24.269,13.201,46.73,30.087,64.351,51.488c23.672,25.844,36.862,58.857,49.893,90.878c6.687,19.63,12.56,39.532,18.687,59.344
			c1.969,6.229,5.077,12.119,9.595,16.867c11.547,12.554,23.89,24.797,31.73,40.147c6.687,15.171,9.234,31.877,9.308,48.383
			c0.614,12.569-2.692,25.247-8.655,36.282c-5.403,8.254-10.787,16.562-16.337,24.742c-6.45,9.753-15.54,17.825-19.84,28.914
			c-5.766,15.333-9.632,31.315-15.288,46.703c-5.748,16.217-11.402,32.49-17.908,48.438c-15.38,32.002-37.896,60.303-64.403,83.814
			c-13.751,10.098-27.431,20.5-42.736,28.229c-33.196,18.781-70.855,29.005-108.805,31.857c-9.649,0.396-19.316-0.037-28.966,0.217
			c-25.517,0.813-50.869-2.727-76.023-6.538c-14.456-1.843-28.552-5.67-42.791-8.649c-20.709-4.102-39.25-15.026-56.254-27.146
			c-21.902-17.626-42.665-36.861-60.645-58.533c-13.589-17.119-26.636-35.053-35.075-55.37
			c-4.337-10.639-7.607-21.764-13.246-31.821c-6.325-11.271-10.102-23.712-15.576-35.345c-7.861-15.134-24.919-21.743-35.202-34.819
			c-7.121-8.976-17.275-15.729-21.848-26.546c-6.542-15.679-6.361-33.358-3.289-49.792c2.259-12.88,9.053-24.255,16.083-35.037
			c6.252-9.266,15.143-16.289,21.847-25.176c5.693-7.55,12.668-14.791,14.168-24.508c5.837-29.059,12.324-58.062,22.877-85.82
			c6.994-19.613,17.637-37.601,27.359-55.933c10.336-18.512,24.576-34.477,39.954-48.924c16.48-17.175,37.732-28.77,59.38-38.107
			c7.608-3.431,15.757-5.273,23.799-7.296c19.715-6.068,39.809-11.251,60.302-13.87
			C345.817,315.869,361.086,315.291,376.374,314.875"/>
	</g>
</g>
<g id="_x23_3754a0ff">
	<path fill="#38549E" d="M231.972,576.709c10.463-4.914,22.625-2.33,32.6,2.455c5.168,4.605,9.505,10.404,12.071,16.85
		c2.982,12.318,0.072,26.82-10.679,34.552c-6.994,8.849-19.138,6.986-28.859,5.057c-8.656-1.481-13.842-9.229-19.661-15.008
		c-0.759-5.22-2.024-10.35-2.602-15.587C214.914,593.396,221.998,582.488,231.972,576.709z"/>
	<path fill="#38549E" d="M506.845,577.485c11.816-1.481,26.799-2.781,35.001,7.802c7.338,7.477,8.151,18.818,6.508,28.643
		c-1.41,7.784-7.844,13.148-13.498,18.079c-10.519,6.087-24.071,5.328-34.011-1.644c-16.336-7.494-19.407-32.185-6.648-44.247
		C497.954,582.688,501.893,579.039,506.845,577.485z"/>
</g>
<g id="_x23_db011cff">
	<path fill="#DA051E" d="M377.133,760.035c14.078-2.637,29.582-3.305,42.753,3.197c7.718,3.503,12.471,11.287,15.309,18.943
		c2.873,13.728-0.235,28.084-5.855,40.707c-6.125,12.606-18.612,24.021-33.503,22.864c-9.36,0.867-18.287-3.737-24.684-10.275
		c-12.56-11.794-19.68-29.096-18.993-46.286C353.208,775.224,363.797,763.646,377.133,760.035z"/>
</g>
</svg>
