<?xml version="1.0" encoding="utf-8"?>
<!-- Generator: Adobe Illustrator 15.0.2, SVG Export Plug-In . SVG Version: 6.00 Build 0)  -->
<!DOCTYPE svg PUBLIC "-//W3C//DTD SVG 1.1//EN" "http://www.w3.org/Graphics/SVG/1.1/DTD/svg11.dtd">
<svg version="1.1" id="Layer_1" xmlns="http://www.w3.org/2000/svg" xmlns:xlink="http://www.w3.org/1999/xlink" x="0px" y="0px"
	 width="886px" height="886px" viewBox="0 0 886 886" enable-background="new 0 0 886 886" xml:space="preserve">
<path fill="#009144" d="M403.35,121.36c15.55-11.73,28.34-26.521,41.68-40.58c30.63,22.29,61.83,43.81,93.69,64.3
	c4.35,2.72,8.38,6.04,13.21,7.931c36.37,15.319,73.18,29.84,111.189,40.64c9.931,3.53,20.58,3.58,30.95,4.6
	c23.94,1.391,47.91,2.271,71.891,2.04c16.26,0.25,32.479-0.89,48.72-1.399c-0.75,13.699-1.45,27.399-2.3,41.09
	c-0.12,6.77-1.79,13.37-2.5,20.08c-3.13,25.67-6.79,51.27-10.44,76.87c-1.189,7.729-2.01,15.56-4.479,23.02
	c-7.591,34.99-16.12,69.811-26.98,103.94c-0.8,2.43-0.94,5.02-1.68,7.47c-1.21,1.65-3.03,2.84-3.87,4.76
	c-14.16,37.95-29.141,75.601-44.29,113.17c-1.71,4.351-3.771,8.561-6.36,12.46c-28.29,44.131-57.069,88.15-90.58,128.551
	c-8.109,6.069-14.85,13.729-22.489,20.35c-21.91,19.96-44.78,38.93-69.271,55.65c-13.66,9.529-28.08,18.029-43.25,24.92
	c-3.1,1.41-6.66,1-9.77,2.37c-10.48,4.01-21.221,7.52-32.36,9.14c-18.55,3.06-37.609,4.59-56.27,1.55
	c-21.36-3.31-42.71-9.319-61.08-21c-9.771-6.39-19.49-13.02-27.86-21.189c-26.439-24.88-51.7-51.07-74.939-78.98
	c-3.75-4.96-8.32-9.31-11.19-14.899C191.25,675.75,171.1,642.37,153.7,607.54c-16.431-37.579-33-75.319-44.511-114.779
	C100.24,460.01,91.66,427.15,84.32,394c-2.489-9.489-3.27-19.279-4.649-28.96c-3.3-29.939-5.7-59.97-6.99-90.06
	c-1.04-17.47-1.75-34.99-1.24-52.49c12.851-0.75,25.721-0.979,38.58-1.62c12.971-0.88,26,0.48,38.96-0.859
	c13.57-0.971,27.17-1.681,40.771-2.351c12.39-0.38,24.84-0.41,37.18-1.62c26.73-6.84,52.33-17.35,77.48-28.569
	c4.1-1.83,8.31-3.471,12.119-5.86C346.67,163.35,376.19,143.87,403.35,121.36 M424.22,642.18c-1.97,1.16-3.67,3.96-6.25,3.069
	c-7.87-2.479-15.07-6.699-22.87-9.369c-3.96-1.37-8.31-0.681-12.08,0.949c-3.569,1.5-7.78,2.841-9.6,6.58
	c-4,7.2-7.67,15.13-7.05,23.58c-0.431,7.94,3.359,15.15,6.659,22.101c13.181,18.21,30.051,33.449,47.971,46.88
	c9.619-10.021,18.77-20.49,28.43-30.48c6.939-7.819,14.18-15.62,18.84-25.08c3.51-6.979,4.76-14.779,6.01-22.399
	c1.48-12.49-10.05-23.891-22.29-23.88c-4.939,0.04-9.899-0.03-14.8,0.56C431.949,635.19,428.38,639.461,424.22,642.18z"/>
<g id="_x23_cd031bff">
	<path fill="#CD031B" d="M424.22,642.18c4.16-2.72,7.729-6.99,12.97-7.49c4.9-0.59,9.86-0.52,14.8-0.56
		c12.24-0.011,23.771,11.39,22.29,23.88c-1.25,7.62-2.5,15.42-6.01,22.399c-4.66,9.46-11.9,17.261-18.84,25.08
		c-9.66,9.99-18.811,20.46-28.43,30.48c-17.92-13.431-34.79-28.67-47.971-46.88c-3.3-6.95-7.09-14.16-6.659-22.101
		c-0.62-8.45,3.05-16.38,7.05-23.58c1.819-3.739,6.03-5.08,9.6-6.58c3.771-1.63,8.12-2.319,12.08-0.949
		c7.8,2.67,15,6.89,22.87,9.369C420.55,646.14,422.25,643.341,424.22,642.18z"/>
</g>
</svg>
