<?xml version="1.0" encoding="utf-8"?>
<!-- Generator: Adobe Illustrator 16.0.0, SVG Export Plug-In . SVG Version: 6.00 Build 0)  -->
<!DOCTYPE svg PUBLIC "-//W3C//DTD SVG 1.1//EN" "http://www.w3.org/Graphics/SVG/1.1/DTD/svg11.dtd">
<svg version="1.1" id="Livello_1" xmlns="http://www.w3.org/2000/svg" xmlns:xlink="http://www.w3.org/1999/xlink" x="0px" y="0px"
	 width="768px" height="1024.604px" viewBox="0 0 768 1024.604" enable-background="new 0 0 768 1024.604" xml:space="preserve">
<g>
	<g id="_x23_009144ff">
		<path fill="#019244" d="M306.098,381.796c29.636-19.391,56.831-42.214,82.546-66.5c19.86,20.204,41.634,38.328,62.128,57.88
			c27.791,25.625,61.006,46.117,97.777,55.768c51.305,13.914,104.737,14.763,157.233,20.708
			c-0.379,31.967-8.855,62.903-14.908,94.075c-3.868,18.413-7.986,36.773-10.463,55.424c-4.988,22.315-8.548,45.05-16.155,66.696
			c-8.999,29.147-22.154,56.742-34.714,84.462c-16.154,35.906-37.406,69.157-58.548,102.263
			c-9.127,13.046-20.35,24.412-31.046,36.157c-9.235,10.607-20.455,19.265-29.384,30.161
			c-15.812,14.401-31.116,29.763-49.513,40.932c-12.886,8.366-24.921,18.667-39.864,23.236c-16.01,4.861-32.22,9.831-48.988,11.149
			c-15.541,0.217-30.919-2.674-46.207-5.188c-25.118-4.011-47.165-17.618-68.632-30.482c-9.342-5.368-16.697-13.373-24.956-20.167
			c-17.564-14.603-29.491-34.371-43.351-52.242c-12.144-14.945-21.269-31.968-31.787-48.032
			c-9.036-14.456-17.04-29.51-25.822-44.128c-8.692-15.07-14.113-31.695-21.848-47.235c-7.879-15.831-12.343-33.017-18.179-49.623
			c-6.036-19.443-12.631-38.87-15.866-59.02c-3.072-22.335-7.662-44.561-7.789-67.187c-0.633-17.456-2.458-34.839-3.252-52.295
			c-0.922-24.686-3.903-49.226-5.747-73.855c11.42-3.705,23.492-1.916,35.255-2.512c49.261-0.885,99.967-3.939,145.902-23.329
			C263.741,409.985,285.01,395.746,306.098,381.796"/>
	</g>
</g>
<g id="_x23_b71309ff">
	<path fill="#B6181D" d="M446.019,812.924c5.022-1.754,10.212-2.945,15.379-4.157c-9.704,16.191-20.548,31.77-33.143,45.864
		c-9.938,10.823-21.469,20.906-35.688,25.516c-20.365,6.307-42.34,5.312-62.939,0.724c-8.783-3.198-16.896-8.077-24.612-13.318
		c-15.521-10.878-25.858-27.052-37.714-41.473c-2.909-3.162-5.15-6.829-7.571-10.336c10.842-2.349,20.728,3.704,31.009,5.928
		c26.853,5.746,54.049,12.233,81.715,10.301C397.733,829.006,421.966,820.874,446.019,812.924z"/>
</g>
</svg>
