<?xml version="1.0" encoding="utf-8"?>
<!-- Generator: Adobe Illustrator 15.0.2, SVG Export Plug-In . SVG Version: 6.00 Build 0)  -->
<!DOCTYPE svg PUBLIC "-//W3C//DTD SVG 1.1//EN" "http://www.w3.org/Graphics/SVG/1.1/DTD/svg11.dtd">
<svg version="1.1" id="Layer_3" xmlns="http://www.w3.org/2000/svg" xmlns:xlink="http://www.w3.org/1999/xlink" x="0px" y="0px"
	 width="583px" height="588px" viewBox="0 0 583 588" enable-background="new 0 0 583 588" xml:space="preserve">
<path fill="#FCEE22" d="M76,134.07c3.052,0.52,6,1.567,8.858,2.741c6.695,3.183,67.463,36.139,73.94,39.731
	c4.451,2.479,8.912,4.951,13.367,7.429c4.578,2.847,64.108,33.21,68.707,36.01c-3.297-0.084-10.579-2.579-13.837-3.075
	c-2.525-0.385-5.084-0.644-7.534-1.412c-7.302-1.517-67.478-29.198-73.791-33.159c-5.558-3.9-62.137-38.834-66.37-44.08
	C78.227,136.861,77.01,135.546,76,134.07z"/>
<path fill="#FCEE22" d="M476.929,142.028c6.561-2.696,13.165-5.302,19.741-7.958c-2.815,4.508-15.83,14.817-19.729,18.417
	c-6.314,5.062-66.772,39.362-74.716,41.265c-3.771,1.186-49.597,22.354-53.453,23.192c-2.625,0.223-5.229,0.786-7.859,0.793
	c1.383-2.071,3.519-3.474,5.465-4.971c3.673-2.628,39.026-22.251,43.125-24.185C394.286,186.266,472.194,144.446,476.929,142.028z"
	/>
</svg>
