<?xml version="1.0" encoding="utf-8"?>
<!-- Generator: Adobe Illustrator 16.0.0, SVG Export Plug-In . SVG Version: 6.00 Build 0)  -->
<!DOCTYPE svg PUBLIC "-//W3C//DTD SVG 1.1//EN" "http://www.w3.org/Graphics/SVG/1.1/DTD/svg11.dtd">
<svg version="1.1" id="Layer_2" xmlns="http://www.w3.org/2000/svg" xmlns:xlink="http://www.w3.org/1999/xlink" x="0px" y="0px"
	 width="583px" height="583px" viewBox="0 0 583 583" enable-background="new 0 0 583 583" xml:space="preserve">
<path fill="#FCEE22" d="M76,134.07c5.142,0.876,10.108,2.639,14.923,4.617c11.278,5.362,57.212,31.002,68.124,37.053
	c7.499,4.175,15.013,8.34,22.518,12.515c7.712,4.797,51.562,28.386,59.308,33.104c-5.554-0.141-17.821-4.344-23.309-5.18
	c-4.253-0.649-8.564-1.085-12.691-2.379c-12.301-2.554-57.238-21.626-67.872-28.299c-9.363-6.57-48.241-35.541-55.372-44.378
	C79.752,138.771,77.701,136.556,76,134.07z"/>
<path fill="#FCEE22" d="M463.415,147.477c11.051-4.542,22.177-8.932,33.255-13.407c-4.742,7.595-26.667,24.96-33.234,31.025
	c-10.637,8.528-59.17,35.985-72.55,39.19c-6.353,1.998-30.235,10.703-36.731,12.116c-4.422,0.376-8.81,1.325-13.24,1.337
	c2.329-3.488,5.927-5.852,9.206-8.374c6.188-4.427,12.431-8.847,19.335-12.104C377.511,193.358,455.439,151.55,463.415,147.477z"/>
<rect fill="none" width="583" height="583"/>
</svg>
