<?xml version="1.0" encoding="utf-8"?>
<!-- Generator: Adobe Illustrator 15.0.2, SVG Export Plug-In . SVG Version: 6.00 Build 0)  -->
<!DOCTYPE svg PUBLIC "-//W3C//DTD SVG 1.1//EN" "http://www.w3.org/Graphics/SVG/1.1/DTD/svg11.dtd">
<svg version="1.1" id="Layer_1" xmlns="http://www.w3.org/2000/svg" xmlns:xlink="http://www.w3.org/1999/xlink" x="0px" y="0px"
	 width="583px" height="588px" viewBox="0 0 583 588" enable-background="new 0 0 583 588" xml:space="preserve">
<g>
	<path fill="#FCEE22" d="M75.34,134.07c9.1,1.55,17.89,4.67,26.41,8.17c19.96,9.49,38.71,21.271,58.02,31.98
		c13.271,7.39,26.57,14.76,39.852,22.148c13.648,8.49,27.54,16.642,41.25,24.99c-9.83-0.25-19.63-1.25-29.342-2.73
		c-7.528-1.148-15.158-1.92-22.46-4.21c-21.77-4.52-42.68-13.12-61.5-24.93C111,177.86,97.92,162.19,85.3,146.55
		C81.98,142.39,78.35,138.47,75.34,134.07z"/>
	<path fill="#FCEE22" d="M436.42,157.47c20.021-8.23,40.18-16.182,60.25-24.29c-8.592,13.76-19.54,26.04-31.439,37.028
		c-19.271,15.45-40.94,28.852-65.181,34.66c-11.51,3.62-23.38,5.91-35.149,8.47c-8.011,0.682-15.96,2.4-23.988,2.422
		c4.22-6.32,10.738-10.602,16.68-15.172c11.21-8.02,22.521-16.028,35.03-21.93C407.22,171.59,421.97,164.85,436.42,157.47z"/>
</g>
</svg>
