<?xml version="1.0" encoding="utf-8"?>
<!-- Generator: Adobe Illustrator 16.0.0, SVG Export Plug-In . SVG Version: 6.00 Build 0)  -->
<!DOCTYPE svg PUBLIC "-//W3C//DTD SVG 1.1//EN" "http://www.w3.org/Graphics/SVG/1.1/DTD/svg11.dtd">
<svg version="1.1" id="Layer_1" xmlns="http://www.w3.org/2000/svg" xmlns:xlink="http://www.w3.org/1999/xlink" x="0px" y="0px"
	 width="583px" height="583px" viewBox="0 0 583 583" enable-background="new 0 0 583 583" xml:space="preserve">
<g>
	<path fill="#FCEE22" d="M66.424,102.04c11.72,2.271,23.16,6.09,33.858,11.38c13.98,6.99,28.12,13.69,41.472,21.842
		c12.41,7.43,24.608,15.188,36.6,23.278c5.24,3.7,10.88,6.98,15.28,11.73c6.39,6.608,13.068,12.93,19.8,19.2
		c5.63,5.068,12.02,9.21,17.689,14.229c-25.699,0.12-52.039,3.44-77.149-3.7c-8.87-2.66-17.46-6.18-25.92-9.92
		c-8.71-4.25-15.04-11.83-21.641-18.67c-8.101-10.11-15.601-20.76-21.461-32.34C78.294,126.97,72.584,114.4,66.424,102.04z"/>
	<path fill="#FCEE22" d="M486.873,111.26c6.711-0.712,13.398-1.712,20.159-1.972c-5.67,8.53-10.858,17.5-17.938,24.972
		c-7.55,8.42-15.028,16.93-23.358,24.59c-4.67,4.05-8.83,8.729-14.068,12.06c-6.791,4.57-13.262,9.72-20.762,13.08
		c-20.938,10.53-42.729,20.28-66.029,24.03c-3.931,0.729-7.859,1.92-11.891,1.43c-7.13-0.7-14.229-1.72-21.271-3.02
		c11.568-11.99,22.09-24.94,33.028-37.5c2.979-3.352,5.45-7.29,9.291-9.771c9.25-6.41,17.561-14.13,27.101-20.13
		c7.938-3.63,15.688-7.67,23.62-11.34c13.188-4.57,26.66-8.34,40.141-12C472.202,114.14,479.363,111.67,486.873,111.26z"/>
</g>
<path fill="#E4B25C" d="M301.123,360.802c0.159,0.591,0.489,1.771,0.648,2.351C301.613,362.57,301.282,361.391,301.123,360.802z"/>
<path fill="#E4B25C" d="M401.384,364.641c0.03-0.062,0.09-0.189,0.108-0.25C401.474,364.45,401.414,364.58,401.384,364.641z"/>
<path fill="#E4B25C" d="M394.363,380.62c0.028-0.06,0.08-0.181,0.102-0.238C394.444,380.439,394.394,380.561,394.363,380.62z"/>
<path fill="#CA1516" d="M246.024,384.061c9.87-18.971,19.88-37.881,30.49-56.439c5.24-0.08,10.479,0.109,15.72-0.028
	c0.562,1.601,1.16,3.198,1.688,4.83c2.568,9.408,4.698,18.948,7.198,28.38c0.16,0.592,0.49,1.771,0.65,2.352
	c4.479,18.82,8.891,37.688,11.778,56.83c8.25-20.74,14.432-42.229,20.979-63.551c2.938-8.971,5.59-18.029,8.381-27.062
	c22.971,0.859,45.459,6.898,66.67,15.58c-1.079,2.392-1.869,4.892-2.631,7.392c-1.738,4.052-3.608,8.052-5.46,12.052
	c-0.021,0.06-0.079,0.188-0.108,0.25c-2.229,5.278-4.608,10.488-6.92,15.738c-0.021,0.061-0.07,0.182-0.102,0.238
	c-5.279,12.54-11.091,24.854-16.42,37.37c1.238,0.438,2.698,0.96,3.771-0.212c16.449-11.51,32.83-23.118,49.028-34.979
	c6.028-4.09,11.358-9.23,17.738-12.779c-0.68-0.989-1.397-1.931-2.198-2.779c0.479-0.108,1.448-0.342,1.938-0.45
	c-0.12,1.422,0.55,2.33,1.99,2.729c1.199,1.799,3.079,2.939,4.729,4.311c7.91,6.66,14.74,14.46,21.802,22
	c-0.528,1.062-1.062,2.12-1.608,3.16c-11.59,18.119-24.688,35.21-37.182,52.71c17.979-6.88,36.271-12.988,53.75-21.102
	c4.102-1.84,8.182-3.698,12.29-5.54c12.852,15.74,23.972,32.762,35.092,49.729c7.146,11.12,13.938,22.472,20.146,34.15
	c-21.25-4.07-42.27-9.302-63.26-14.512c-11.83-3.41-23.852-6.08-36.021-7.97c-25.812-4.73-51.892-7.932-78.039-10
	c-22.579-0.472-44.619-6.04-67.062-8c-19.289-2.422-38.68-3.99-58-6.07c-37.14,0.398-74.04,5.09-111,8.29
	c-22.84,2.83-45.41,7.358-67.99,11.71c-9.63,2.08-19.25,4.17-28.74,6.78c-8.42,2.021-16.688,4.92-25.35,5.68
	c11.08-21.37,23.03-42.278,34.73-63.318c6.26-9.062,14.5-16.511,22.16-24.358c16.55,15.34,33.068,30.729,49.238,46.488
	c-5.26-26.438-11.148-52.75-16.52-79.16c6.34-4.938,12.568-10.1,19.58-14.078c0.449,0.01,1.34,0.027,1.79,0.039
	c13.829,12.979,27.8,25.818,41.618,38.818c-3.26-17.688-6.43-35.391-9.898-53.039c18.04-4.2,35.99-8.891,54.31-11.812
	c0.03,2.279,0.4,4.54,0.87,6.771c3.54,24.689,5.73,49.531,8.262,74.33C235.623,405.221,240.492,394.471,246.024,384.061z"/>
<path fill="#F4F4F5" d="M220.984,334.552c18.312-3.722,36.88-6.04,55.53-6.932c-10.61,18.562-20.62,37.472-30.49,56.44
	c-5.53,10.41-10.4,21.16-16.109,31.469c-2.529-24.799-4.721-49.639-8.261-74.329C221.394,338.98,221.184,336.76,220.984,334.552z"/>
<path fill="#F4F4F5" d="M292.964,327.68c16.648,0.068,33.34,0.41,49.95,1.688c-2.791,9.03-5.44,18.092-8.382,27.062
	c-6.55,21.318-12.729,42.812-20.979,63.551c-2.89-19.141-7.3-38.011-11.778-56.83c-0.16-0.58-0.49-1.76-0.65-2.351
	c-2.5-9.432-4.63-18.972-7.198-28.38C293.584,330.842,293.264,329.26,292.964,327.68z"/>
<path fill="#F4F4F5" d="M406.952,352.342c1.12-2.48,2.24-4.96,3.45-7.4c8.812,4.86,17.261,10.33,25.97,15.382
	c3.382,2.181,6.78,4.38,9.91,6.92c0.802,0.853,1.521,1.79,2.2,2.778c-6.382,3.552-11.71,8.69-17.74,12.781
	c-16.199,11.857-32.579,23.469-49.029,34.979c-1.068,1.17-2.529,0.649-3.771,0.21c5.33-12.521,11.141-24.83,16.42-37.37
	c0.028-0.062,0.08-0.181,0.101-0.238c2.312-5.25,4.689-10.46,6.921-15.739c0.029-0.062,0.09-0.189,0.108-0.25
	C403.344,360.391,405.214,356.391,406.952,352.342z"/>
<path fill="#F4F4F5" d="M134.014,359.82c10.47-5.26,21.109-10.57,32.46-13.58c3.47,17.65,6.64,35.352,9.899,53.04
	c-13.819-13-27.789-25.841-41.619-38.818L134.014,359.82z"/>
<path fill="#F4F4F5" d="M80.664,407.172c10.39-11.393,21.398-22.199,32.72-32.672c5.37,26.41,11.26,52.722,16.52,79.16
	C113.734,437.9,97.214,422.51,80.664,407.172z"/>
<path fill="#F4F4F5" d="M475.134,398.99c0.892-1.398,1.79-2.75,2.76-4.12c9.472,9.642,19.352,18.932,27.979,29.352l-1.881,0.84
	c-4.108,1.842-8.188,3.7-12.29,5.54c-17.479,8.11-35.771,14.222-53.75,21.102C450.444,434.2,463.544,417.109,475.134,398.99z"/>
<rect fill="none" width="583" height="583"/>
</svg>
