<?xml version="1.0" encoding="utf-8"?>
<!-- Generator: Adobe Illustrator 16.0.0, SVG Export Plug-In . SVG Version: 6.00 Build 0)  -->
<!DOCTYPE svg PUBLIC "-//W3C//DTD SVG 1.1 Basic//EN" "http://www.w3.org/Graphics/SVG/1.1/DTD/svg11-basic.dtd">
<svg version="1.1" baseProfile="basic" id="Livello_1"
	 xmlns="http://www.w3.org/2000/svg" xmlns:xlink="http://www.w3.org/1999/xlink" x="0px" y="0px" width="886px" height="886px"
	 viewBox="0 0 886 886" xml:space="preserve">
<path fill="#FFE60B" d="M620.06,121.92c9.891-0.58,19.74,2.7,27.96,8.091c7.45,4.81,14.641,10.01,21.971,15.01
	c4.472,2.84,7.229,7.5,10.602,11.45c2.54,3.39,5.851,6.34,7.448,10.35c1.37,3.34,2.762,6.71,3.342,10.29
	c1.92,10.89,3.79,21.84,4.101,32.91c0.06,3.66,0.359,7.479-1.04,10.95c-3.79,9.609-10,17.989-16.311,26.069
	c-3.08,3.9-5.96,8.141-10.131,10.97c-7.989,5.37-15.811,11.07-24.461,15.351c-9.01,4.5-18.35,8.8-28.398,10.229
	c-6.699,1.19-13.54,2.221-20.34,1.421c-5.569-0.721-11.062-1.961-16.602-2.811c-7.17-1.13-13.778-4.27-20.391-7.09
	c-18.739-8.42-37.37-17.22-54.939-27.93c-13.438-6.971-22.818-21.16-24.521-36.15c-0.021-6.29,0.78-13.13,4.188-18.55
	c8.472-7.87,17.432-15.24,26.45-22.49c11.739-9.14,24.3-17.16,36.91-25.04c3.71-2.27,7.09-5.09,11.05-6.939
	C577.32,130.45,598.3,123.85,620.06,121.92"/>
<path fill="#FFE60B" d="M281.13,141.1c4.57-0.471,9.42-1.32,13.74,0.79c11.729,4.85,24.14,7.949,35.528,13.609
	c8.029,3.87,15.812,8.23,23.729,12.32c4.858,2.24,7.84,6.89,11.22,10.81c3.431,4.74,7.17,9.391,9.62,14.73
	c0.761,4.16,0.811,8.42,1.189,12.64c0.539,5.9-1.722,11.59-4.12,16.86c-5.801,10.74-14.119,19.87-22.869,28.27
	c-8.801,7.48-18.261,14.271-28.58,19.49c-4.721,2.3-9.021,5.561-14.25,6.69c-13.95,4.71-28.89,3.26-43.33,2.63
	c-9.26-0.29-18.45-1.96-27.28-4.73c-2.56-0.88-5.33-1.58-7.29-3.569c-4.278-4.061-7.96-8.681-11.75-13.19
	c-3.13-4.26-5.21-9.17-7.29-13.99c-3.12-8.229-6.43-16.609-6.778-25.5c-0.33-7.54,2.59-14.649,4.688-21.75
	c2.37-6.79,4.41-13.779,8.05-20.029c4.062-7.551,9.95-13.91,16.19-19.71c3.9-3.37,8.32-6.261,13.26-7.86
	c6.82-2.33,13.431-5.29,20.3-7.46C270.39,141.26,275.81,141.84,281.13,141.1"/>
<path fill="#CB021A" d="M574.618,167.08c7.42-0.399,14.939-0.95,22.29,0.51c10.852,1.931,22.21,3.721,31.62,9.881
	c4.979,3.069,10.5,6.489,12.409,12.39c2.761,8.26,0.19,16.96-1.88,25.07c-1.43,5.43-2.899,10.859-4.779,16.159
	c-1.681,4.95-6.188,7.971-9.87,11.351c-4.568,3.78-8.971,8.24-14.79,9.99c-8.83,1.33-17.75,2.01-26.619,3.1
	c-4.819,0.57-9.461-1.15-14.149-1.94c-3.199-0.68-6.51-0.989-9.59-2.109c-10.189-4.03-19.91-9.11-29.682-14.03
	c-8.471-4.29-13.699-12.64-18.398-20.51c-0.37-6.03-1.689-12.7,1.529-18.22c1.301-2.851,2.431-6,5.091-7.9
	c7.34-5.78,15.01-11.15,22.979-16c6.471-2.9,12.899-6.54,20.109-7.03C565.448,167.38,570.038,167.35,574.618,167.08"/>
<path fill="#CB021A" d="M298.24,173.29c15.319-3.16,30.182,3.351,44.341,8.32c9.409,3.09,18.771,10.06,20.631,20.35
	c1.42,5.19-1.841,9.84-4.04,14.25c-4.562,8.101-8.58,17.011-16.102,22.87c-5.46,4.51-12.471,6.22-18.989,8.57
	c-13.101,4.18-26.221,9.689-40.199,9.479c-6.82-1.449-13.05-4.75-19.352-7.63c-5.988-2.6-10.479-7.52-15.078-11.979
	c-6.2-5.98-8.642-14.5-12.2-22.09c-2.95-5.57-2.271-12.32-0.36-18.101c2.96-4.58,8.03-7.03,12.45-9.93
	c3.729-2.29,7.08-5.51,11.56-6.271C273.26,178.15,285.69,175.38,298.24,173.29"/>
<path d="M561.93,187.98c3.938-0.86,7.801-2.71,11.898-2.5c6.422,1.78,12.189,5.319,17.87,8.72c2.17,1.44,4.83,2.65,5.932,5.18
	c1.54,3.381,2.64,6.94,3.8,10.471c0.83,2.84,1.82,6.05,0.28,8.84c-2.182,4.55-4.32,9.41-8.271,12.72
	c-4.341,2.84-9.431,4.3-14.4,5.62c-5.061,1.5-10.09-0.69-15.01-1.75c-4.25-0.82-8.398-2.76-11.188-6.17
	c-3.881-4.68-8.262-9.19-10.319-15.04c2.329-5.88,5.56-11.33,8.819-16.72C554.01,193.49,556.97,188.92,561.93,187.98z"/>
<path d="M294.56,189.97c4.28-1.681,9.24-2.021,13.47,0c3.37,1.59,6.779,3.159,9.972,5.119c8.8,7,13.14,19.181,10.311,30.16
	c-0.91,3.04-1.301,7.13-4.75,8.4c-4.461,1.86-8.921,3.87-13.609,5.08c-4.602,0.21-9.239-0.101-13.829-0.38
	c-3.9-1.021-7.722-2.471-11.392-4.141c-4.75-3.729-9.05-8.449-10.62-14.439c-1.59-3.101,0.07-6.431,0.98-9.46
	c1.79-5.7,5.5-10.48,9.11-15.13C286.63,191.89,291.03,191.47,294.56,189.97z"/>
</svg>
