<?xml version="1.0" encoding="utf-8"?>
<!-- Generator: Adobe Illustrator 16.0.0, SVG Export Plug-In . SVG Version: 6.00 Build 0)  -->
<!DOCTYPE svg PUBLIC "-//W3C//DTD SVG 1.1 Basic//EN" "http://www.w3.org/Graphics/SVG/1.1/DTD/svg11-basic.dtd">
<svg version="1.1" baseProfile="basic" id="Livello_1"
	 xmlns="http://www.w3.org/2000/svg" xmlns:xlink="http://www.w3.org/1999/xlink" x="0px" y="0px" width="768px"
	 height="1024.604px" viewBox="0 0 768 1024.604" xml:space="preserve">
<g id="_x23_010101ff">
	<path fill="#010101" d="M0,0h768v1024.604H0V0"/>
</g>
<g id="_x23_e46810ff">
	<path fill="#E56A12" d="M556.212,500.14c7.121-2.205,14.457-0.361,21.343,1.717c2.024,1.753,4.156,3.343,6.434,4.771
		c3.522,5.331,8.836,10.318,8.654,17.203c0.037,5.674,2.098,12.776-2.654,17.187c-6.108,6.469-12.957,14.059-22.518,14.383
		c-5.927,0.29-11.765-1.155-17.638-1.57c-0.47-0.741-1.426-2.241-1.897-2.982c-1.571-0.597-3.161-1.175-4.715-1.754
		c-4.808-5.926-9.775-12.104-11.023-19.878c-2.765-8.709,3.632-16.461,8.873-22.695C546.291,504.783,550.574,500.772,556.212,500.14
		z"/>
	<path fill="#E56A12" d="M181.068,515.029c8.004-11.187,23.528-11.602,35.779-8.98c6.252,2.024,13.589,3.867,17.293,9.831
		c5.458,7.137,6.434,17.781,1.988,25.659c-4.175,10.951-15.884,17.239-27.124,18.107c-11.186,2.15-22.408-3.199-29.889-11.331
		C176.604,537.51,173.333,524.499,181.068,515.029z"/>
</g>
</svg>
