<?xml version="1.0" encoding="utf-8"?>
<!-- Generator: Adobe Illustrator 15.0.2, SVG Export Plug-In . SVG Version: 6.00 Build 0)  -->
<!DOCTYPE svg PUBLIC "-//W3C//DTD SVG 1.1 Basic//EN" "http://www.w3.org/Graphics/SVG/1.1/DTD/svg11-basic.dtd">
<svg version="1.1" baseProfile="basic" id="Livello_1"
	 xmlns="http://www.w3.org/2000/svg" xmlns:xlink="http://www.w3.org/1999/xlink" x="0px" y="0px" width="886px" height="886px"
	 viewBox="0 0 886 886" xml:space="preserve">
<g>
	<path fill="#039030" d="M658.64,302.223c1.25-0.59,2.75-0.026,4.11-0.05c-5.6,8.37-11.07,16.84-16.37,25.41
		c-6.7,12.42-11.37,26.561-9.96,40.83c1.562,9.1,7.61,16.449,13.41,23.289c4.08,4.881,8.81,9.171,12.95,13.99
		c0.938,0.986,0.775,2.448,1.12,3.721c-8.595-5.03-16.94-10.49-25.7-15.229c-10.95-5.938-21.23-13.021-31.95-19.312
		c-7.57-4.341-16.44-1-24.24,0.869c-17.067,3.12-33.91,7.421-51.04,10.311c-25.525,3.882-51.188,6.894-76.938,8.79
		c-6.7-0.066-13.32,1.16-20.021,1.17c-7.67-0.1-15.29,1.144-22.97,0.934c-5.71-0.184-11.38,0.721-17.07,0.606
		c-6.96-0.851-14-0.196-20.93-1.276c-12.48-0.434-24.8-3.271-36.44-7.7c-5.83-1.909-11.479-4.489-17.6-5.359
		c-11.38-2.528-22.58-5.778-33.93-8.438c-8.3-1.54-16.7-2.479-24.99-4.054c-6.3-1.196-12.75-0.617-19.08-1.479
		c-11.73-1.079-23.85-0.279-35.2-3.96c24.71-2.271,49.72-1.92,74.15-6.729c14.48-1.729,28.528-5.896,42.47-10.04
		c21.24-5.71,42.26-12.367,63.98-16.09c10.18-1.721,20.27-4.38,30.647-4.54c20.04-0.431,40.19-0.04,60.03,3.03
		c13.97,1.899,27.93,3.859,41.87,5.949c15.688,1.761,31.37,3.54,47.05,5.351c14.28,1.5,28.32,4.609,42.64,5.83
		c10.32-11.311,21.344-21.99,33.19-31.681C647.95,312.283,652.61,306.435,658.64,302.223"/>
	<path fill="#CC0218" d="M362.9,359.833c5.117-0.479,11.147-0.58,14.63,3.93c3.59,3.189,1.33,8.36-0.53,11.854
		c-1.01,2.471-3.58,3.59-6.02,4.12c-4.12,0.931-8.08-1.63-10.893-4.394C356.75,370.404,358.68,363.633,362.9,359.833z"/>
</g>
<g>
	<path fill="#F28B02" d="M411.25,677.979c13.31-5.479,27.22-10.261,41.72-10.938c8.37-0.12,16.82-0.479,25.09,1.119
		c9.521,1.391,19.11,2.921,28.21,6.147c8.49,3.551,16.265,8.539,24.57,12.421c4.71,0.38,9.45,1.92,14.18,1.068
		c7.145-2.642,13.87-6.25,20.771-9.431c1.4-0.552,2.79-1.104,4.189-1.632c4.301-2.142,8.711-4.067,13.131-5.961
		c1.18-0.71,2.39-1.38,3.6-2.039c0.03,3.183-2.25,5.528-4.06,7.898c-6.462,7.87-12.82,15.87-20.08,23.03
		c0.01,0.698,0.04,2.106,0.05,2.811c3.56,8.21,6.396,16.724,10.146,24.859c1.645,3.608,3.422,7.24,3.961,11.221
		c-8.641-6.068-17.356-12.021-26.188-17.801c-3.4-2.46-7.11-4.42-10.58-6.76c-4.17-0.144-8.07,1.438-12.062,2.38
		c-20.188,4.816-40.353,9.97-60.893,13.09c-15.64,2.397-31.77,1.46-46.97-3.01c-18.8-6.41-35.07-18.062-52.102-27.974
		c7.04-3.221,14.222-6.146,21.092-9.729C396.24,684.788,403.58,680.989,411.25,677.979"/>
	<path fill="#CC0218" d="M416.32,705.239c-2.99-5.447,1.357-13.328,7.662-13.438c2.896,0.221,5.785,1.75,7.51,4.13
		c0.64,2.052,0.5,4.32,0.12,6.432c-1.095,2.409-3.104,4.25-4.73,6.303C423.31,707.909,418.65,708.679,416.32,705.239z"/>
</g>
</svg>
