<?xml version="1.0" encoding="utf-8"?>
<!-- Generator: Adobe Illustrator 15.0.2, SVG Export Plug-In . SVG Version: 6.00 Build 0)  -->
<!DOCTYPE svg PUBLIC "-//W3C//DTD SVG 1.1 Basic//EN" "http://www.w3.org/Graphics/SVG/1.1/DTD/svg11-basic.dtd">
<svg version="1.1" baseProfile="basic" id="Livello_1"
	 xmlns="http://www.w3.org/2000/svg" xmlns:xlink="http://www.w3.org/1999/xlink" x="0px" y="0px" width="886px" height="886px"
	 viewBox="0 0 886 886" xml:space="preserve">
<g id="_x23_ce041aff">
	<path fill="#CE041A" d="M278.84,160.998c1.95,0.12,4.26-0.67,5.86,0.779c3.529,2.779,6.43,6.25,9.92,9.08
		c9.52,7.811,17.369,17.33,25.579,26.439c13.896,15.13,28.08,29.99,41.601,45.46c2.604,3.46,7.359,3.029,11.21,3.184
		c17.66-0.15,35.29,1,52.949,0.85c29.681,0.471,59.37,0.051,89.051,0.28c2.17-0.104,4.604,0.22,6.45-1.184
		c4.521-3.066,8.579-6.76,12.869-10.129c16.46-13.85,33.061-27.529,49.511-41.37c11.489-9.06,23.76-17.05,35.59-25.659
		c1.686,10.221,2.646,20.561,3.646,30.869c0.79,7.61,0.354,15.271,0.63,22.91c0.53,14.66,1.33,29.37,0.04,44.021
		c-0.062,12.061-1.76,24.065-1.51,36.13l0.85,1.71c-0.6-0.34-1.188-0.699-1.76-1.069c0.524,8.109-0.609,16.189-1.109,24.279
		c-1.091,31.771-2.569,63.641-7.33,95.109c-2.989,10.881-5.92,22.039-12.066,31.631c-12.539,21.146-29.238,39.42-46.408,56.87
		c-0.24,1.88,1.84,3.561,2.979,4.984c6.649,6.069,11.939,13.396,17.779,20.2c7.101,7.88,11.931,17.409,17.856,26.149
		c6.812,10.88,14.184,21.431,20.198,32.8c6.936,12.971,13.899,25.971,19.399,39.631c2.37,5.909,5.431,11.569,7.051,17.76
		c4.899,18.476,9.602,37.015,13.359,55.765c2.92,14.311,6.646,28.525,8,43.105c3.3,26.2,5.42,52.529,6.37,78.909
		c0.351,27.011-0.649,54.011-0.689,81.021c0.699,26.352,1.149,52.722,0.812,79.092c0.118,10.641-1.222,21.229-0.972,31.88
		c0.21,8.688-1.101,17.33-1.104,26.021c-0.04,11.646-1.266,23.229-1.57,34.859c-0.79,13.721-1.312,27.471-2.189,41.189
		c-0.09,6.341-0.26,12.688-1.188,18.979H213.87c-0.4-35.671-1.62-71.33-2.21-107c0.46-27.66,1.21-55.32,1.659-82.979
		c0.08-16.369,1.95-32.659,2.311-49.015c1.09-12.21,0.899-24.485,1.77-36.71c-0.09-21.198,3.16-42.21,4.351-63.34
		c1.66-16.36,3-32.78,5.67-49.021c3.229-12.528,4.63-25.448,8.26-37.884c5.81-22.188,12.21-44.22,19.07-66.1
		c2.54-7.682,4.6-15.551,8.1-22.86c14.01-33.84,32.67-65.47,51.53-96.771c5.17-8.42,11.63-16,16.521-24.591
		c-13.394-12.223-26.24-25.539-35.09-41.5c-9.96-19.661-13.25-41.749-16.16-63.354c-3.35-22.438-4.88-45.101-5.819-67.75
		c-1.601-28.34-1.181-56.735-1.19-85.101c1.01-14.359,1.66-28.739,2.811-43.09C276.4,191.307,278.57,176.208,278.84,160.998"/>
</g>
<path fill="#010101" d="M434.94,408.389c21.324-1.646,43.564,1.804,62.1,12.979c5.891,2.971,11.7,6.146,16.58,10.66
	c-6.18,4.46-12.939,8.105-20.069,10.79c-19.221,8.47-40.55,12.079-61.471,10.106c-5.96-0.771-11.43-3.432-17.12-5.188
	c-12.09-3.87-22.949-10.604-33.399-17.66c0.054-0.399,0.15-1.199,0.2-1.603c9.279-4.131,18.699-7.938,27.949-12.117
	C417.869,412.987,426.039,409.197,434.94,408.389z"/>
<g id="_x23_fdc401ff">
	<path fill="#FDC401" d="M512.39,288.038c8.521-2.37,17.54,0.47,24.37,5.75c7.479,4.75,10.09,13.739,12.263,21.789
		c0.312,4.511-0.567,9.062-1.367,13.49c-3.75,8.657-10.686,16.26-19.771,19.396c-6.489,2.689-13.801,1.67-20.239-0.619
		c-4.182-1.856-7.235-5.42-10.381-8.619c-4.896-4.972-7.471-11.828-8.271-18.657c0.061-6,1.59-11.95,3.729-17.529
		C496.69,295.458,504.3,290.358,512.39,288.038z"/>
	<path fill="#FDC401" d="M368.11,288.668c8.396-1.369,16.696,2.471,23.21,7.449c5.42,7.352,10.851,15.891,10.118,25.421
		c-0.238,4.67-0.75,9.489-2.562,13.829c-7.021,10.671-20.2,16.591-32.841,15.471c-10.51-1.146-19.949-8.55-23.659-18.431
		c-1.24-4.54-2.261-9.181-2.721-13.869c0.58-4.61,1.41-9.399,3.931-13.399C349,296.617,357.44,288.867,368.11,288.668z"/>
</g>
<rect fill="none" stroke="#000000" stroke-width="1.1169" stroke-miterlimit="10" width="886" height="1230"/>
</svg>
