<?xml version="1.0" encoding="iso-8859-1"?>
<!-- Generator: Adobe Illustrator 15.0.2, SVG Export Plug-In . SVG Version: 6.00 Build 0)  -->
<!DOCTYPE svg PUBLIC "-//W3C//DTD SVG 1.1 Basic//EN" "http://www.w3.org/Graphics/SVG/1.1/DTD/svg11-basic.dtd">
<svg version="1.1" baseProfile="basic" id="Livello_1"
	 xmlns="http://www.w3.org/2000/svg" xmlns:xlink="http://www.w3.org/1999/xlink" x="0px" y="0px" width="450px" height="450px"
	 viewBox="0 0 450 450" xml:space="preserve">
<path style="fill:#FFF69B;" d="M236.376,74.387c1.479-2.21,2.07-5.37,4.72-6.511c3.621,24.53,9.511,48.66,14.142,73.011
	c2.8,9.35,3.688,19.149,6.46,28.521c1.68,7.46,3.22,15,6.17,22.08c9.681-1.79,19.56-1.672,29.31-2.852
	c19.611-1.609,39.189-3.641,58.82-5.109c10.01-1.25,20.131-1.461,30.199-1.59c-31,26.789-62.601,52.92-93.54,79.789
	c0.63,6.291,3.659,12.189,5.33,18.28c2.26,11.851,5.239,23.489,7.62,35.319c1.41,9.97,4.09,19.74,5.108,29.771
	c0.58,4.988,1.931,9.869,2.302,14.891c0.42,7.06,2.489,13.909,2.629,20.988c-0.729-0.398-2.17-1.22-2.898-1.63
	c-29.48-24.96-58.87-50.04-88.46-74.88c-31.86,23.029-63.63,46.18-95.45,69.25c-3.91,2.771-7.67,5.76-11.74,8.3
	c4.091-11.608,7.841-23.351,12.11-34.891c7.46-17.778,14.03-35.89,21.091-53.819c1.851-7.369,4.209-14.601,6.17-21.931
	c2.379-6.188,3.8-12.681,4.64-19.239c-32.439-25.779-64.989-51.431-97.359-77.301c0.58-0.239,1.73-0.729,2.312-0.97
	c30.229,0.359,60.108,5.68,90.039,9.528c8.971,1.07,17.961,4.33,27.041,2.86c1.608-2.61,2.81-5.421,3.988-8.239
	c4.78-11.121,10.342-21.892,14.932-33.091c5.01-8.931,8.659-18.53,13.35-27.62C222.156,102.876,229.104,88.557,236.376,74.387z"/>
</svg>
