<?xml version="1.0" encoding="utf-8"?>
<!-- Generator: Adobe Illustrator 15.0.2, SVG Export Plug-In . SVG Version: 6.00 Build 0)  -->
<!DOCTYPE svg PUBLIC "-//W3C//DTD SVG 1.1 Basic//EN" "http://www.w3.org/Graphics/SVG/1.1/DTD/svg11-basic.dtd">
<svg version="1.1" baseProfile="basic" id="Livello_1"
	 xmlns="http://www.w3.org/2000/svg" xmlns:xlink="http://www.w3.org/1999/xlink" x="0px" y="0px" width="886px" height="886px"
	 viewBox="0 0 886 886" xml:space="preserve">
<g>
	<g id="_x23_ffffffff">
		<path fill="#FFFFFF" d="M0,885.304c0.417,0.17,1.25,0.518,1.666,0.697H0V885.304z"/>
	</g>
	<g id="_x23_00904bff">
		<path fill="#00904B" d="M377.578,412.704c4.99-0.875,10.082-0.569,15.122-0.638c4.701-0.093,9.41,0.527,13.881,2.006
			c8.959,2.899,17.688,7.089,24.658,13.524c6.987,6.332,14.113,12.554,20.613,19.379c6.086,7.488,12.291,14.866,18.487,22.262
			c5.118,6.451,10.829,12.426,17.025,17.85c8.951,8.848,19.635,15.613,29.801,22.94c5.236,3.749,11.084,6.502,16.621,9.758
			c14.951,8.518,29.928,16.99,44.859,25.543c13.935,8.44,27.948,16.745,41.896,25.16c5.16,2.808,10.063,6.188,14.051,10.533
			c2.983,2.839,6.179,6.053,6.223,10.48c-11.246,3.825-22.86,6.452-34.293,9.631c-13.478,3.491-26.646,8.03-39.861,12.343
			c7.774,0.153,15.521-0.696,23.299-0.941c12.415-1.165,24.913-0.817,37.365-0.408c1.623,0.018,3.238,0.299,4.835,0.638
			c-4.208,7.819-9.469,14.977-14.439,22.312c-5.057,6.605-9.004,14.033-14.619,20.196c-12.572,14.934-24.862,30.099-37.477,44.998
			c-17.266,18.395-34.539,36.797-52.219,54.791c-11.415,11.28-22.236,23.138-33.575,34.485
			c-24.062,24.112-47.489,48.875-72.394,72.122c-9.392,8.229-19.261,15.903-29.359,23.239c-4.088,0.961-8.432,0.255-12.614,0.526
			c-7.429,0.29-14.935-0.705-22.288,0.57H1.666c-0.417-0.18-1.25-0.527-1.666-0.696V687.874c1.564-8.654,3.051-17.315,4.785-25.926
			c2.491-7.904,5.984-15.435,8.908-23.181c5.797-14.68,13.362-28.551,20.179-42.755c5.372-7.311,9.937-15.317,16.473-21.692
			c5.363-5.714,10.863-11.288,16.507-16.711c13.013-11.645,27.31-21.733,41.999-31.146c4.675-3.423,10.115-5.559,15.538-7.471
			c23.919-8.592,48.399-15.468,72.446-23.646c13.064-4.13,25.602-9.689,38.131-15.18c15.334-6.953,30.838-13.583,45.739-21.455
			c14.178-7.275,28.339-14.594,42.253-22.371c9.316-5.898,19.072-11.075,28.778-16.311
			C359.712,415.722,368.755,414.234,377.578,412.704"/>
	</g>
	<g id="_x23_ffd400ff">
		<path fill="#FFD400" d="M379.04,450.699c13.464-0.97,27.926,2.906,37.383,12.996c2.428,2.983,5.542,5.567,6.851,9.299
			c3.111,8.287,6.231,17.356,3.35,26.196c-1.19,2.286-0.697,5.015-1.878,7.293c-1.377,2.677-1.788,5.864-3.919,8.117
			c-4.318,6.003-10.549,10.347-17.187,13.422c-4.166,2.091-8.993,0.815-13.371,2.025c-5.547,1.274-11.296,0.11-16.598-1.635
			c-4.879-2.763-9.665-5.712-14.528-8.518c-2.251-1.998-4.096-4.505-5.67-7.065c-2.278-5.082-5.625-9.741-6.823-15.247
			c-0.204-4.854,0.085-9.774,1.4-14.458c0.909-3.467,0.841-7.303,2.924-10.361c2.209-3.664,3.681-7.965,7.114-10.719
			c2.813-2.285,5.157-5.235,8.517-6.766C370.592,453.367,374.731,451.701,379.04,450.699z"/>
	</g>
</g>
</svg>
