<?xml version="1.0" encoding="utf-8"?>
<!-- Generator: Adobe Illustrator 15.0.2, SVG Export Plug-In . SVG Version: 6.00 Build 0)  -->
<!DOCTYPE svg PUBLIC "-//W3C//DTD SVG 1.1 Basic//EN" "http://www.w3.org/Graphics/SVG/1.1/DTD/svg11-basic.dtd">
<svg version="1.1" baseProfile="basic" id="Livello_1"
	 xmlns="http://www.w3.org/2000/svg" xmlns:xlink="http://www.w3.org/1999/xlink" x="0px" y="0px" width="886px" height="886px"
	 viewBox="0 0 886 886" xml:space="preserve">
<g>
	<path fill="#C8418E" d="M747.04,73.745c4.718-3.091,10.387-4.397,15.942-4.922c3.098-0.397,6.01,0.979,8.979,1.619
		c6.355,1.517,10.738,6.816,14.502,11.808c1.853,2.157,1.945,5.14,2.957,7.693c1.619,4.448,2.176,9.164,2.566,13.85
		c0.076,7.033-1.778,13.869-3.291,20.679c-0.625,1.645-1.338,3.257-1.74,4.974c4.166,2.181,8.538,3.935,12.703,6.119
		c4.36,2.521,8.551,5.433,12.015,9.126c3.032,3.214,6.636,6.31,7.82,10.745c0.891,3.227,2.604,6.349,2.312,9.786
		c-0.227,3.917-0.227,7.974-1.754,11.654c-1.965,4.339-5.331,7.847-8.807,11.015c-1.724,1.613-3.867,2.656-6.049,3.481
		c-8.058,3.073-16.793,3.597-25.331,3.578c1.388,5.6,3.948,10.829,5.376,16.422c0.94,3.455,2.299,7.117,1.338,10.714
		c-0.396,1.895-0.582,3.827-1.103,5.694c-3.187,6.158-7.073,12.205-12.851,16.237c-3.925,2.644-8.954,3.528-13.577,2.605
		c-8.734-1.069-16.285-6.011-23.588-10.567c-4.288-3.775-8.538-7.629-12.577-11.687c-0.422,0-1.271,0-1.695,0
		c-2.599,1.959-3.974,5.03-6.199,7.342c-4.601,4.89-9.511,9.643-15.348,13.028c-7.454,3.674-16.173,3.091-24.031,1.186
		c-3.495-0.673-6.554-2.553-9.65-4.205c-5.869-3.827-9.037-10.815-9.263-17.702c-0.664-5.46,0.865-10.798,1.749-16.135
		c0.998-4.512,2.032-9.081,4.126-13.229c0.857-1.908,2.227-3.84,1.542-6.017c-6.722-1.221-13.722-1.643-20.025-4.466
		c-4.717-3.028-10.387-5.268-13.389-10.292c-1.875-2.898-4.498-5.651-4.748-9.267c-0.359-4.076-0.603-8.312,0.78-12.236
		c1.331-3.705,3.048-7.334,5.566-10.382c4.16-4.345,9.166-7.853,14.663-10.291c6.054-2.847,12.3-5.613,18.996-6.458
		c1.784-0.192,3.568-0.338,5.324-0.755c-1.198-4.57-3.713-8.979-3.305-13.825c-0.197,0.743-0.401,1.479-0.606,2.222
		c-0.02-1.146-0.038-2.292-0.103-3.437c-1.35-8.589-2.26-17.825,1.056-26.145c2.305-6.47,8.521-10.675,14.827-12.684
		c4.328-1.498,9.187-1.479,13.436,0.275c5.075,1.882,9.772,4.646,14.414,7.405c6.064,4.211,11.603,9.12,17.388,13.702
		c3.228-1.153,5.146-4.147,7.438-6.496C739.539,81.572,742.875,77.233,747.04,73.745z"/>
</g>
</svg>
