<?xml version="1.0" encoding="utf-8"?>
<!-- Generator: Adobe Illustrator 15.0.2, SVG Export Plug-In . SVG Version: 6.00 Build 0)  -->
<!DOCTYPE svg PUBLIC "-//W3C//DTD SVG 1.1 Basic//EN" "http://www.w3.org/Graphics/SVG/1.1/DTD/svg11-basic.dtd">
<svg version="1.1" baseProfile="basic" id="Livello_1"
	 xmlns="http://www.w3.org/2000/svg" xmlns:xlink="http://www.w3.org/1999/xlink" x="0px" y="0px" width="886px" height="886px"
	 viewBox="0 0 886 886" xml:space="preserve">
<g>
	<g id="_x23_ba0400ff">
		<path fill="#CD031B" d="M348.35,333.164c-13.525,1.979-27.188,2.629-40.792,3.667c-6.568,0.913-13.196,1.114-19.796,1.793
			c-2.159-5.074-4.865-9.886-7.323-14.811c-9.378-18.271-19.204-36.316-28.306-54.722c-11.351-24.786-21.864-49.955-33.291-74.703
			c-2.63-5.604-5.771-10.978-8.047-16.746c-3.354-8.617-6.771-17.209-10.215-25.795c-2.159-5.007-4.434-9.976-6.113-15.177
			c16.074,11.762,29.824,26.274,44.776,39.365c21.514,20.333,43.024,40.681,63.936,61.649c2.338,2.608,4.805,5.134,7.727,7.099
			c0-5.261,1.323-10.379,1.658-15.618c0.718-8.503,2.093-16.926,3.169-25.384c3.093-20.407,5.858-40.86,8.997-61.261
			c1.868-15.208,4.626-30.279,7.793-45.269c3.625,4.461,6.106,9.692,9.148,14.542c21.943,38.132,44.514,75.921,65.15,114.794
			c1.905-4.334,3.06-8.944,4.599-13.406c5.162-15.43,9.646-31.078,14.93-46.472c5.223-16.306,10.679-32.536,16.118-48.774
			c3.632-10.394,7.04-20.886,11.356-31.019c2.876,10.208,5.567,20.468,8.19,30.743c-0.471,0.993-0.262,1.816,0.635,2.473
			c7.767,30.429,13.175,61.387,20.852,91.838c1.375,6.882,2.859,13.75,4.772,20.505c0.075,1.338,1.898,0.754,1.913-0.314
			c2.093-5.014,5.113-9.587,6.988-14.714c14.908-33.32,30.523-66.312,46.284-99.237c4.842-10.043,9.094-20.348,13.567-30.556
			c4.707,13.324,6.605,27.417,9.478,41.204c1.674,9.648,3.789,19.189,5.812,28.769c0.732,3.714,0.994,7.525,2.212,11.142
			c3.416,15.603,6.33,31.317,9.879,46.891c0.646,3.056,1.077,6.165,2.196,9.101c3.691-7.6,7.039-15.363,10.716-22.963
			c11.396-23.523,22.567-47.137,33.993-70.639c6.919-14.138,13.04-28.672,20.804-42.377c0.619,0.052,1.248,0.112,1.893,0.173
			c3.004,19.242,4.745,38.632,7.531,57.905c2.311,20.221,4.706,40.435,7.695,60.574c0.927,8.443,2.668,16.79,3.25,25.271
			c2.75-0.172,4.143-2.824,5.836-4.611c7.894-9.975,16.518-19.332,24.868-28.904c19.302-22.074,39.146-43.67,58.107-66.036
			c9.125-10.304,19.257-19.608,29.017-29.292c-7.285,25.886-15.348,51.561-22.911,77.38c-1.331,5.222-3.688,10.095-5.521,15.146
			c-2.54,7.159-5.439,14.183-7.897,21.364c-7.84,22.015-16.56,43.701-25.013,65.483c-2.704,7.54-4.581,15.386-7.938,22.687
			c-3.625,8.601-7.104,17.254-10.773,25.833c-6.329-0.178-12.602-1.313-18.938-1.21c-6.255,0.021-12.456-1.113-18.711-0.934
			c-12.155-0.755-24.323-1.733-36.512-1.346c0.144,0.42,0.419,1.264,0.562,1.689c-0.409-0.598-0.812-1.189-1.221-1.771
			c-9.122-0.275-18.284,0.338-27.372-0.68c-10.106-0.187-20.228,0.083-30.339-0.231c-8.997-1.39-18.194,0.111-27.207-1.136
			c-3.123-0.351-6.285-0.083-9.4-0.457c-5.692-0.874-11.474-0.335-17.198-0.508c-16.455,0.03-32.947-0.62-49.352,0.74
			c-24.485,0.403-48.879,2.615-73.237,5.074c-12.684,0.344-25.342,1.122-37.978,2.249l-0.42-0.055L348.35,333.164z"/>
	</g>
	<g id="_x23_000000ff">
		<path d="M461.811,117.679c0.792,0.673,1.001,1.495,0.635,2.474C461.549,119.496,461.34,118.673,461.811,117.679z"/>
		<path d="M566.3,128.88c1.271,6.217,2.959,12.346,3.86,18.629c1.277,5.717,2.023,11.568,3.982,17.112
			c0.008,1.39,0.052,2.779,0.18,4.17c-1.218-3.616-1.479-7.428-2.212-11.142C570.088,148.07,567.973,138.528,566.3,128.88z"/>
		<path d="M488.069,232.496c0.479-0.083,1.438-0.231,1.913-0.314C489.968,233.25,488.145,233.834,488.069,232.496z"/>
	</g>
	<g id="_x23_f0d68bff">
		<path fill="#FFF69B" d="M474.37,325.934c16.401-1.359,32.896-0.709,49.352-0.739c5.728,0.172,11.506-0.366,17.2,0.508
			c3.114,0.374,6.275,0.104,9.398,0.457c9.016,1.248,18.211-0.254,27.208,1.135c10.11,0.314,20.229,0.046,30.338,0.233
			c9.087,1.016,18.249,0.402,27.373,0.68c0.404,0.583,0.811,1.173,1.222,1.771c3.438,5.319,6.692,10.761,9.976,16.186
			c1.936,3.752,3.169,7.815,4.784,11.71c6.021,16.32,11.938,32.678,17.478,49.17c3.908,12.165,8.161,24.233,11.479,36.57
			c2.989,12.82,6.565,25.496,9.962,38.216c1.329,5.933,3.667,11.709,3.705,17.874c2.43,16.955,5.006,33.88,7.495,50.828
			c1.857,12.357,2.914,24.822,4.536,37.222c1.447,12.524,3.019,25.025,4.468,37.55c1.056,4.891,0.312,9.896,0.648,14.841
			c0.518,6.968,1.146,13.938,1.131,20.938c0.104,7.465,1.312,14.886,1.065,22.365c-0.134,4.707,0.665,9.36,0.874,14.062
			c0.479,4.536,0.15,9.108,0.508,13.66c0.347,5.462,1.106,10.91,0.913,16.396c-0.188,5.008,0.591,9.963,0.728,14.962
			c0.817,8.403,0.21,16.87,0.717,25.302c0.68,11.982,0.776,23.982,1.942,35.939c-0.188,6.532,1.308,12.969,1.219,19.497
			c-0.062,7.229,1.412,14.377,1.143,21.604c-0.104,8.998,1.229,17.986,0.337,26.978c-0.531,4.7-0.061,9.478-0.957,14.153H257.988
			c-0.052-7.249,0.732-14.43,1.266-21.642c-0.209-8.271,1.566-16.439,1.202-24.712c0.401-5.218,0.673-10.445,1.091-15.661
			c0.165-4.979-0.165-9.961,0.299-14.926c0.179-4.997,0.957-9.97,0.897-14.976c-0.183-6.994,1.27-13.921,1.148-20.916
			c-0.015-5.274,1.146-10.477,1.136-15.745c-0.135-6.217,0.601-12.404,0.682-18.621c0.934-8.271,0.143-16.604,0.68-24.891
			c0.142-6.928,1.008-13.818,0.927-20.745c0.018-4.491,1.062-8.907,1.15-13.391c-0.254-4.782,1.263-9.408,1.345-14.179
			c0.979-4.943,0.971-9.998,1.876-14.949c0.112-5.284,1.509-10.435,1.473-15.726c1.031-5.478,0.896-11.09,2.062-16.545
			c0.045-5.597,1.308-11.075,1.472-16.663c0.892-4.745,0.904-9.573,1.652-14.326c0.62-4.005,0.306-8.093,1.217-12.053
			c2.997-32.843,7.219-65.587,13.189-98.041c0.729-3.034,1.192-6.128,1.979-9.146c1.173-7.468,4.805-14.191,7.405-21.2
			c10.944-26.176,22.133-52.255,34.186-77.939c1.622-3.288,2.802-6.858,5.188-9.714c5.989-7.472,11.889-15.02,18.027-22.373
			c1.102-1.323,2.305-2.556,3.618-3.669c12.636-1.128,25.295-1.905,37.978-2.249C425.49,328.549,449.885,326.337,474.37,325.934"/>
	</g>
</g>
<path fill="#CD031B" d="M486.396,502.706c4.453-1.412,8.877-3.021,13.455-4.005c9.629,2.742,19.349,5.207,29.061,7.667
	c1.733,0.528,3.499,0.955,5.278,1.33c3.64,1.319,7.48,1.957,11.188,3.056c6.008,1.66,12.346,2.078,18.166,4.409
	c10.081,3.243,20.461,5.643,30.404,9.297c0.522,0.066,1.576,0.209,2.103,0.276c0.063,1.883-0.545,3.613-1.943,4.906
	c-1.022,1.212-2.003,2.476-3.041,3.669c-0.538,0.729-1.047,1.475-1.548,2.224c-1.127,1.108-2.159,2.322-3.025,3.649
	c-4.768,6.094-9.525,12.188-14.242,18.331c-1.219,1.631-2.614,3.124-3.685,4.872c-2.115,2.395-4.133,4.89-5.948,7.524
	c-0.546,0.582-1.091,1.181-1.63,1.785c-2.308,2.915-4.385,6.037-7.062,8.639c0.021,0.188,0.061,0.568,0.073,0.763
	c-3.114,2.768-5.389,6.374-7.839,9.729c-1.017,1.038-2.003,2.122-2.832,3.325c-3.042,4.306-6.719,8.112-9.806,12.389
	c-1.421,1.325-2.688,2.795-3.812,4.38c-1.431,1.838-2.915,3.632-4.429,5.411c-2.758,3.459-6.048,6.455-8.736,9.968
	c-1.413,1.629-3.147,3.021-4.021,5.052c-0.383,0.092-1.145,0.271-1.534,0.365c-1.271,2.895-4.363,4.289-6.377,6.614
	c-1.347,1.703-3.653,0.201-3.971-1.555c-0.329,0.027-0.986,0.089-1.308,0.119c0.045-0.429,0.146-1.277,0.199-1.703
	c-0.327,0.027-0.979,0.082-1.308,0.109c-0.839-1.226-1.825-2.331-2.932-3.303c-1.558-1.607-3.028-3.318-4.918-4.536
	c0.034-0.209,0.116-0.62,0.153-0.83c-1.075-0.646-2.129-1.321-3.184-1.994c0.053-0.357,0.148-1.066,0.203-1.42
	c-0.314,0.045-0.937,0.145-1.241,0.192c-1.322-1.912-2.938-3.604-4.864-4.909c0.029-0.305,0.089-0.934,0.119-1.239
	c-0.344,0.045-1.021,0.137-1.368,0.188c-0.725-1.548-1.59-3.027-2.854-4.178c-1.685-2.743-4.192-4.812-6.054-7.405
	c-7.1-9.296-15.07-17.854-22.528-26.841c-7.103-8.104-14.527-15.929-21.261-24.342c-5.358-6.356-10.344-13.011-15.773-19.303
	c-1.42-1.604-2.812-3.25-3.879-5.118c7.45-2.941,14.818-6.098,22.229-9.132c2.99-1.248,6.113-2.188,9.326-2.63
	c2.114-1.001,4.297-1.885,6.601-2.354C459.479,511.703,472.99,507.376,486.396,502.706z"/>
<path d="M596.198,404.135c4.281-1.732,9.021-1.584,13.525-1.067c5.306,0.783,9.4,4.438,13.547,7.517
	c3.14,2.302,5.935,5.104,8.064,8.377c1.82,2.98,2.839,6.344,3.942,9.639c0.31,7.286,0.919,14.991-2.325,21.77
	c-1.553,1.885-3.062,3.812-4.804,5.53c-0.666,0.92-1.344,1.82-2.062,2.695c-0.956,0.347-1.897,0.777-2.133,1.887
	c-0.273-0.038-0.817-0.12-1.097-0.157l-0.046,0.911l-0.919-0.111l0.156,0.657c-1.105,0.064-1.943,0.703-2.641,1.503
	c-0.681,0.312-1.357,0.627-2.04,0.938l0.149,0.847c-0.396-0.099-1.188-0.291-1.584-0.391l0.157,0.967
	c-6.02,1.39-12.271,0.647-18.375,0.472c-1.249-0.329-2.521-0.501-3.789-0.657c-1.046-0.308-2.102-0.531-3.177-0.658
	c-1.31-0.755-2.613-1.502-3.9-2.276l-0.021-0.74c-0.264,0.029-0.784,0.083-1.048,0.104c-2.779-3.322-6.128-6.146-8.452-9.854
	c-0.8-1.24-1.6-2.479-2.384-3.714c-0.455-1.531-0.875-3.071-1.312-4.599c-0.201-1.271-0.436-2.54-0.694-3.789
	c-0.143-2.771-0.777-5.498-0.845-8.271c0.845-3.631,1.688-7.285,2.742-10.857c1.719-3.37,4.489-6.083,7.155-8.705
	C585.949,408.231,591.146,406.129,596.198,404.135z"/>
<path d="M379.739,405.174c3.812-1.314,7.742,0.089,11.646,0.007c8.43,1.719,14.905,8.16,19.72,14.945
	c2.003,3.677,3.543,7.615,5.164,11.479c0.725,4.977,0.269,10.051,0.052,15.058c-0.538,1.495-1.038,3.012-1.555,4.521
	c-0.836,1.84-1.767,3.647-2.914,5.32c-0.635,0.621-1.255,1.263-1.876,1.914c-1.584,1.912-3.312,3.699-5.062,5.462
	c-1.18,1.255-2.447,2.415-3.785,3.505c-1.011,0.479-2.006,1.011-2.977,1.557c-0.875,0.229-1.756,0.446-2.631,0.637l-0.074,0.381
	c-5.857,1.987-12.062,3.13-18.249,2.316c-3.271-1.247-6.703-1.995-10.036-3.034l-0.108-0.709c-0.36,0.06-1.084,0.179-1.443,0.229
	l0.052-1.104c-0.381,0.12-1.135,0.344-1.517,0.456l0.187-1.001l-0.919,0.108l-0.021-0.609c-0.554-0.485-1.114-0.966-1.666-1.431
	c-0.188-0.254-0.562-0.763-0.741-1.021h-0.411c-0.604-0.994-1.227-1.98-1.822-2.967l-0.719-0.044
	c0.074-0.329,0.218-0.979,0.291-1.312l-0.597-0.097c-0.141-1.479-0.792-2.812-1.539-4.061c-0.188-0.372-0.576-1.118-0.763-1.491
	c-1.255-2.907-2.432-5.867-3.042-8.982c-0.449-5.993-0.875-12.262,1.83-17.837c0.104-0.418,0.327-1.271,0.438-1.688
	c1.292-3.023,2.025-6.5,4.565-8.794c2.45-2.233,4.469-4.946,7.113-6.957C370.555,407.714,375.001,405.891,379.739,405.174z"/>
</svg>
