<?xml version="1.0" encoding="utf-8"?>
<!-- Generator: Adobe Illustrator 15.0.2, SVG Export Plug-In . SVG Version: 6.00 Build 0)  -->
<!DOCTYPE svg PUBLIC "-//W3C//DTD SVG 1.1 Basic//EN" "http://www.w3.org/Graphics/SVG/1.1/DTD/svg11-basic.dtd">
<svg version="1.1" baseProfile="basic" id="Livello_1"
	 xmlns="http://www.w3.org/2000/svg" xmlns:xlink="http://www.w3.org/1999/xlink" x="0px" y="0px" width="886px" height="886px"
	 viewBox="0 0 886 886" xml:space="preserve">
<g>
	<path fill="#F18A01" d="M103.581,3.815c0.07-1.275-0.949-3.355,0.824-3.815c4.094,6.155,7.53,12.72,11.159,19.155
		c5.656,10.1,11.085,20.32,16.74,30.415c7.194-0.84,14.369-1.905,21.579-2.645c1.199-1.905,2.047-3.989,2.967-6.03
		c5.684-12.34,11.074-24.835,17.584-36.765l0.801-0.4c-1.135,12.235-2.969,24.39-4.51,36.58c-0.467,4.015-1.326,8.005-1.24,12.07
		c1.77,0.69,3.111,2.08,4.719,3.05c3.16,1.975,6.221,4.105,9.336,6.15c1.105,0.255,1.85-0.87,2.719-1.355
		c8.449-5.875,16.811-11.88,25.422-17.525c4.17-2.68,8.369-5.31,12.559-7.96c1.486-0.905,2.916-1.99,4.635-2.415
		c-8.822,11.81-18.219,23.18-27.459,34.665c-2.34,3.21-5.006,6.165-7.455,9.295c0.031,1.385,0.455,2.705,0.939,3.99
		c0.615,2.51,1.316,5,1.922,7.52c1.244,4.21,1.863,8.594,3.289,12.755c14.111,4.47,28.561,7.83,42.514,12.805
		c2.736,1.155,5.678,1.864,8.236,3.395c-2.805,0.66-5.699,0.264-8.539,0.48c-5.48,0.664-11.012,0.209-16.506,0.57
		c-4.645,0.534-9.324,0.205-13.98,0.445c-4.705,0.494-9.445,0.369-14.17,0.414c-0.25,0.565-0.5,1.131-0.715,1.711
		c-1.49,4.814-3.875,9.314-5.516,14.05c3.484,3.755,7.371,7.17,11.08,10.716c6.699,6.64,13.57,13.1,20.395,19.605
		c0.98,1.024,2.07,1.984,2.785,3.229l0.195,1.205c-3.119-0.989-6.025-2.52-9.035-3.779c-6.613-2.825-13.209-5.691-19.738-8.711
		c-5.467-2.64-10.816-5.525-16.297-8.13c-2.578,1.636-4.783,3.804-7.385,5.415c-5.094,2.989-10.111,6.146-15.555,8.484
		c-0.83,0.49-2.15,0.656-2.381,1.756l-0.109,0.314c-0.086,0.021-0.262,0.061-0.346,0.075c-0.033,12.415,0.291,24.824,0.822,37.216
		c-0.371,5.064-0.496,10.149-0.416,15.229c-0.189-0.011-0.564-0.03-0.756-0.04c-0.07-0.725-0.164-1.449-0.506-2.094
		c-2.02-4.775-4.039-9.565-5.404-14.58c-1.62-5.4-3.601-10.735-4.79-16.244c-0.096,0.01-0.285,0.033-0.381,0.045
		c-1.21-5.396-3.364-10.551-4.68-15.926c-0.31-0.92-0.085-2.265-1.114-2.761c-3.1-1.864-6.784-2.364-9.954-4.074
		c-4.785-2.5-9.585-4.96-14.48-7.229c-0.92,0.75-1.739,1.614-2.381,2.614c-3.889,4.985-8.155,9.659-12.179,14.53
		c-5.355,6.79-11.98,12.409-17.865,18.719c0.015-1.974,0.95-3.764,1.51-5.613c1.13-2.985,2.025-6.065,3.44-8.936
		c1.335-2.585,2.195-5.395,3.745-7.869c3.42-6.761,6.88-13.511,10.54-20.146c1.619-1.495,0.764-3.699-0.31-5.229
		c-0.68-1.355-2.015-2.551-1.92-4.166c-0.171,0.006-0.511,0.011-0.68,0.011c-0.415-1.935-1.781-3.454-2.615-5.216
		c-0.974-2.914-2.25-5.76-2.81-8.795c-0.105-0.219-0.321-0.659-0.429-0.879c-3.555,0.484-7.115,0.954-10.635,1.645
		c-8.829,1.404-17.679,2.71-26.57,3.609c-2.695,0.466-5.425,0.795-8.16,0.66c6.716-4.215,13.58-8.189,20.546-11.98
		c6.315-4.034,13.32-6.775,19.98-10.155c0.414-3.005,0.375-6.165,1.375-9.034c0.559-2.365,1.195-4.72,1.885-7.051l0.09-0.17
		c0.585-1.38,0.926-2.88,1.051-4.37c0.091-0.979-0.9-1.559-1.435-2.229c-2.67-2.525-5.135-5.265-7.97-7.61
		c-0.119,0.03-0.349,0.09-0.465,0.115l-0.055-0.3c-0.01-0.725-0.639-1.17-1.07-1.665c-3.165-3.16-6.31-6.36-9.07-9.89
		c-3.725-4.275-7.17-8.765-10.489-13.365c0.165-0.185,0.495-0.55,0.659-0.735l0.136-0.145c3.051,1.87,6.395,3.2,9.535,4.91
		c5.085,2.515,10.065,5.22,15.09,7.85c4.44,2.505,8.825,5.135,13.426,7.345c4.045-5.025,8.75-9.495,13.665-13.655
		c2.321-1.17,0.811-3.82,0.46-5.705c-1.399-6.146-2.854-12.285-4.235-18.435C106.911,23.23,105.271,13.51,103.581,3.815z"/>
</g>
</svg>
