<?xml version="1.0" encoding="utf-8"?>
<!-- Generator: Adobe Illustrator 15.0.2, SVG Export Plug-In . SVG Version: 6.00 Build 0)  -->
<!DOCTYPE svg PUBLIC "-//W3C//DTD SVG 1.1 Basic//EN" "http://www.w3.org/Graphics/SVG/1.1/DTD/svg11-basic.dtd">
<svg version="1.1" baseProfile="basic" id="Livello_1"
	 xmlns="http://www.w3.org/2000/svg" xmlns:xlink="http://www.w3.org/1999/xlink" x="0px" y="0px" width="886px" height="886px"
	 viewBox="0 0 886 886" xml:space="preserve">
<g id="_x23_6d5940ff">
	<path fill="#6D5940" d="M534.3,264.327c1.643-1.779,3.5-3.34,5.42-4.812c0.74,7.172,0.04,14.36-0.26,21.53
		c-0.65,11.96-1.32,23.92-1.99,35.88c-0.72,11-0.188,22.04-0.567,33.051c-0.67,14.671,0.688,29.329,0.867,44
		c0.343,8.171-0.96,16.391,0.463,24.511c11.63,3.21,23.25,6.521,35.067,9c2.04,0.681,3.853-0.602,5.34-1.819
		c10.49-8.87,20.96-17.761,31.66-26.37c33.4-26.28,66.08-53.511,100.16-78.931c0.94,5.58-0.85,11.021-1.85,16.45
		c-2.342,11.521-4.562,23.068-6.91,34.59c-2.4,9.851-4.932,19.67-6.66,29.67c-2.49,14.271-5.74,28.4-7.58,42.78
		c-1.42,10.778-3.74,21.408-5.99,32.04c-1.229,5.398,1.021,10.698,3.15,15.561c8.64,16.779,15.81,34.29,25.29,50.64
		c9.33,15.592,17.41,31.881,26.22,47.771c6.32,11.53,13.09,22.818,19.7,34.188c3.59,6.392,8.24,12.149,11.311,18.852
		c13.271,27.221,28.109,53.62,42.521,80.229c10.09,18.399,18.63,37.58,27.89,56.392c8.103,17.79,16.92,35.25,24.91,53.101
		c7.61,15.64,14.58,31.64,23.54,46.59V886H414.33c-4.7-4.75-9.55-9.352-14.45-13.881c-13.979-12.689-27.74-25.63-42.12-37.869
		c-4.68-3.961-8.729-8.643-13.79-12.15c-11.58-8.858-23.68-17.01-35.39-25.688c-6.96-5.521-14.48-10.25-21.97-15.011
		c-15.07-9.989-30.9-18.739-46.48-27.898c-8.53-5.551-18.15-9.021-27.34-13.28c-9.38-4.431-19.35-7.511-28.44-12.58
		c-18.45-7.648-37.26-14.47-56.32-20.46c-33.62-11.46-67.79-21.221-101.55-32.3c0.34-11.301,1.89-22.53,2.65-33.801
		c7.66-0.062,15.32,0.011,22.98-0.13c4.75-12.04,9.42-24.12,13.56-36.381c0.6-0.209,1.8-0.641,2.4-0.859
		c0.6,0.221,1.79,0.65,2.39,0.859c3.84,7.771,8.19,15.291,11.98,23.091c1.73,3.579,3.87,6.931,6.14,10.188
		c7.85,0.109,15.74,0.12,23.56-0.641c1.62,0.011,2.28-1.771,3.11-2.84c5.5-9.649,10.4-19.642,16.14-29.149
		c6.02,10.37,10.96,21.351,15.59,32.41c8.45,0.92,16.95,0.22,25.41-0.13c5.8-10.82,10.55-22.16,16.33-32.98
		c4.21,4.66,6.61,10.521,9.58,15.98c2.25,4.357,4.71,8.619,6.84,13.05c11.36-0.61,22.73-1.261,34.08-2.021
		c5.21-8.329,10.42-16.67,15.78-24.909c5.37,8.301,10.64,16.659,16,24.96c10.67-1.37,21.35-2.71,32.07-3.659
		c15.479-1.761,30.88-4.19,46.29-6.44c0.109-0.55,0.33-1.648,0.43-2.198c-6.54-8.83-13-17.722-19.49-26.591
		c-2.92-4.061-6.88-7.159-10.63-10.391c-10.89-9.54-21.76-19.101-32.64-28.65c-14,1.552-27.97,3.421-41.98,4.91
		c1.85-6.72,3.5-13.5,5.61-20.148c1.2-3.83,3.08-7.472,3.72-11.46c-1.51-2.87-4.83-4.102-7.34-5.921
		c-8.37-5.409-16.66-10.938-25.03-16.351c-10.58,4.54-21.07,9.311-31.64,13.899c1.55-9.609,3.81-19.069,5.68-28.602
		c-6.41-5.238-13.19-10.01-19.99-14.729c-10.68,4.188-21.39,8.329-32.21,12.14c-0.89-0.54-1.78-1.061-2.66-1.58
		c0.25-12.1,2.24-24.1,2.31-36.21c-6.13-4.38-13.04-7.521-19.07-12.05c-2.03-1.431-4-3.08-6.4-3.84
		c-5.11,1.26-9.74,3.897-14.68,5.647c-7.46,2.722-14.34,7.021-22.19,8.61c0.09-14.2,1.51-28.391,0.71-42.601
		c-5.72-4.682-11.36-9.472-17.02-14.211c6.01-14.851,12.1-29.658,18.16-44.479c53.79,7.95,107.6,15.79,161.4,23.689
		c42.22,6.311,84.52,12.131,126.67,18.898c14.32,1.99,28.67,3.82,42.96,6.102c1.8,0.148,4.08,0.841,5.4-0.852
		c7.569-7.79,14.409-16.27,22-24.04c18.329-20.08,35.649-41.05,53.352-61.688C507.86,293.878,521.14,279.157,534.3,264.327"/>
</g>
<g id="_x23_cd031bff">
	<path fill="#CD031B" d="M501.44,482.657c7.17-0.852,14.38,1.229,20.93,3.979c9.28,5.149,16.85,13.979,19.59,24.33
		c0.61,6.71-0.11,13.62-2.4,19.979c-1.607,4.59-2.81,9.641-6.52,13.068c-3.99,3.812-7.47,8.57-12.9,10.41
		c-8.71,3.32-18.817,6.25-27.777,2.229c-5.75-1.62-10.37-5.521-14.812-9.319c-5.47-4.79-8.688-11.721-10.16-18.74
		c-1.237-5.88-1.729-12.159,0.36-17.898c2.49-6.812,5.359-14.04,11.31-18.58c3.183-2.25,6.65-4.05,9.96-6.109
		C492.74,483.657,497.19,483.238,501.44,482.657z"/>
</g>
</svg>
