<?xml version="1.0" encoding="utf-8"?>
<!-- Generator: Adobe Illustrator 15.0.2, SVG Export Plug-In . SVG Version: 6.00 Build 0)  -->
<!DOCTYPE svg PUBLIC "-//W3C//DTD SVG 1.1 Basic//EN" "http://www.w3.org/Graphics/SVG/1.1/DTD/svg11-basic.dtd">
<svg version="1.1" baseProfile="basic" id="Livello_1"
	 xmlns="http://www.w3.org/2000/svg" xmlns:xlink="http://www.w3.org/1999/xlink" x="0px" y="0px" width="886px" height="886px"
	 viewBox="0 0 886 886" xml:space="preserve">
<g id="_x23_6d5940ff">
	<path fill="#6D5940" d="M524.88,266.319c1.34-1.971,3.45-3.091,5.521-4.15c0.397,6.062,0.027,12.142,0.34,18.2
		c1.107,13.319,0.39,26.689,0.71,40.04c-0.99,32.529,0.68,65.062,0.08,97.602c8.067,3.398,16.857,4.38,25.38,6.148
		c6.71,1.062,13.34,2.689,20.12,3.312c3.02,0.5,5.147-2.142,7.26-3.819c16.811-15.53,34.12-30.521,50.96-46.011
		c19.64-17.432,39.26-34.92,60.23-50.739c3.027-2.49,6.09-5.37,10.289-5.36c-0.21,9.812-3.619,19.16-4.852,28.852
		c-1.95,12.09-5.22,23.931-7.71,35.92c-2.92,13.148-5.24,26.42-8.54,39.49c-2.99,11.42-4.979,23.108-8.729,34.329
		c-1.7,5.819-4.603,12.039-2.24,18.101c4.92,14.141,12.979,26.899,19.31,40.41c3.49,8.2,8.062,15.88,12.021,23.858
		c4.14,8.42,8.75,16.602,12.96,24.979c9.85,18.25,20.58,36.021,30.76,54.091c4.76,7.46,8.9,15.289,13.021,23.119
		c10.261,18.229,20.021,36.75,30.891,54.631c8.439,15.938,18.57,30.89,27.58,46.5c4.449,8.729,8.979,17.438,13.72,26.029
		c7.58,14.92,15.01,29.92,22.812,44.729c10.021,19.399,19.358,39.13,29.229,58.602v10.219L684.245,886l-34.264-0.635
		c-31.378,1.106-17.894,0.319-31.094-0.001c-16.021-0.41-32.202,0.08-48.224,0c-13.324,0.001-24.857-0.844-36.168-0.634
		c-47.588,0.635-76.141,0.635-117.385,0c-1.039,0-1.83-4.071-2.2-5.012c-9.4-18.682-18.32-37.62-28.12-56.11
		c-8.06-15.85-16.88-31.3-24.99-47.119c-10.67-17.46-21.81-34.65-33.149-51.681c-10.17-15.96-20.271-32.05-32.45-46.59
		c-7.36-9.58-15-18.939-22.82-28.142c-5.62-7.029-11.99-13.398-17.55-20.471c-25.38-29.239-51.7-57.689-78.95-85.189
		c-5.84-6.14-12.66-11.25-18.4-17.488c-12.08-12.602-24.82-24.529-37.46-36.562c-27.22-25.95-54.64-51.688-82.7-76.729
		c3.67-8.779,6.85-17.79,11.34-26.2c11.66,2.12,22.98,6.181,34.89,6.939c-5.66-10.409-11.2-20.891-16.73-31.359
		c1.27-5.93,6.75-9.159,9.69-14.109c2.69-4.3,5.87-8.271,9.09-12.181c6.66,1.5,13.4,2.551,20.16,3.381
		c19.19,2.859,38.39,5.6,57.6,8.279c11.24,1.221,22.3,3.63,33.49,5.21c17.01,2.49,33.96,5.45,51.04,7.438
		c33.26,7.12,66.68,13.5,100.01,20.271c12.22,2.88,24.72,4.271,37.1,6.301c10.35,1.319,20.47,4.021,30.82,5.369
		c14.56-15.699,29.01-31.5,42.979-47.72C482.59,319.869,503.59,292.959,524.88,266.319"/>
</g>
<g id="_x23_cd031bff">
	<path fill="#CD031B" d="M494.96,492.14c8.18-0.75,17.04-0.95,24.521,2.979c4.55,3.25,8.147,7.689,11.607,12.04
		c3.69,6.771,5.98,14.49,5.73,22.26c0.027,5.512-2.771,10.53-5.99,14.82c-3.12,4.021-6.15,8.489-10.91,10.72
		c-3.97,1.86-7.81,4.182-12.109,5.17c-6.971,0.722-14.381,1.182-20.851-2.02c-10.36-4.78-20.07-13.87-21.36-25.75
		c-0.567-7.881,0.03-16.28,4.19-23.2c2.63-4.78,6.07-9.149,10.521-12.358C485.37,495.739,489.68,492.349,494.96,492.14z"/>
</g>
</svg>
