<?xml version="1.0" encoding="utf-8"?>
<!-- Generator: Adobe Illustrator 15.0.2, SVG Export Plug-In . SVG Version: 6.00 Build 0)  -->
<!DOCTYPE svg PUBLIC "-//W3C//DTD SVG 1.1 Basic//EN" "http://www.w3.org/Graphics/SVG/1.1/DTD/svg11-basic.dtd">
<svg version="1.1" baseProfile="basic" id="Livello_1"
	 xmlns="http://www.w3.org/2000/svg" xmlns:xlink="http://www.w3.org/1999/xlink" x="0px" y="0px" width="886px" height="886px"
	 viewBox="0 0 886 886" xml:space="preserve">
<g>
	<path fill="#CD031B" d="M567.52,9.745c0.986-0.179,1.995-0.246,3.004-0.344c6.322,25.521,12.19,51.147,17.958,76.804
		c4.014,16.771,7.056,33.757,10.784,50.595c3.318,15.29,6.719,30.566,10.029,45.856c3.14-2.235,5.681-5.157,8.303-7.952
		c15.729-16.412,31.643-32.65,47.299-49.13c6.158-7.018,12.982-13.422,19.058-20.521c6.062-6.166,11.854-12.592,17.913-18.765
		c8.643-8.737,16.449-18.452,26.404-25.769c-1.345,11.48-3.715,22.802-5.822,34.161c-8.033,41.836-17.331,83.411-25.873,125.141
		c-0.799,3.924-1.883,7.817-2.018,11.854c9.544-3.125,18.735-7.219,28.093-10.836c13.714-5.613,27.412-11.263,41.231-16.621
		c11.515-4.335,22.95-8.864,34.396-13.363c13.079-5.291,26.075-10.813,39.514-15.156c6.921-2.346,13.894-4.701,21.192-5.516
		c-6.775,8.401-14.475,16.023-21.562,24.162c-5.94,6.256-11.683,12.682-17.486,19.05c-21.352,24.416-43.479,48.136-65.378,72.066
		c-15.156,16.531-30.275,33.107-45.333,49.743c-18.251-6.083-36.53-12.062-54.812-18.078c-11.256-3.385-22.314-7.519-33.766-10.216
		c0.979,1.808,2.195,3.481,3.609,4.985c-1.803-1.839-3.479-4.014-5.994-4.852c-10.809-3.841-22.441-4.155-33.503-6.89
		c-0.179-0.067-0.538-0.209-0.728-0.284l-0.882-0.353c-15.373-2.601-30.888-4.334-46.351-6.375
		c-17.43-1.486-34.939-1.531-52.409-1.403c-4.253,0.104-8.481,0.479-12.729,0.546c-5.5,0.597-11.074,0.396-16.493,1.727
		c-18.983,2.734-37.861,6.15-56.611,10.208c-3.317,0.808-6.973,1.077-9.686,3.378l0.126-1.322
		c-24.604,5.351-48.646,13.107-73.367,17.936c-4.454,0.882-8.781,2.279-13.205,3.288c-0.291,0.254-0.867,0.771-1.159,1.025
		c-4.646-4.052-9.259-8.154-13.688-12.444c-9.104-8.557-18.631-16.666-27.721-25.244c-10.289-9.245-20.654-18.416-31.371-27.174
		c-14.491-12.637-29.206-25.021-43.413-37.987c-12.854-11.599-26.104-22.75-39.769-33.384c-5.656-4.567-11.479-8.96-16.643-14.103
		c1.838-1.084,3.669-2.189,5.456-3.371c11.807,3.624,23.605,7.287,35.279,11.337c33.278,11.389,66.521,22.913,99.688,34.632
		c6.21,2.309,12.361,4.79,18.676,6.838c-1.973-15.447-3.841-30.91-5.565-46.379c-0.765-11.695-2.377-23.339-2.526-35.065
		c-0.649-6.979-0.479-13.997-1.031-20.978c0.494-15.379-1.629-30.678-1.166-46.05c4.163,3.677,8.273,7.405,12.173,11.359
		c8.647,8.288,17.585,16.271,26.156,24.64c11.996,11.658,24.162,23.145,36.142,34.826c11.045,11.15,22.354,22.024,33.477,33.099
		c5.426,5.165,10.544,10.672,16.344,15.425c1.091-3.467,1.622-7.077,2.376-10.627c4.551-24.184,11.532-47.837,16.329-71.961
		c7.489-33.66,14.738-67.372,22.57-100.95c3.032,5.15,5.089,10.777,7.562,16.195c11.771,27.017,23.293,54.16,33.36,81.864
		c3.685,11.315,7.847,22.48,11.813,33.706c4.958,14.894,9.945,29.774,14.999,44.631c2.34-5.015,3.746-10.389,5.548-15.604
		c7.044-21.254,13.438-42.718,20.229-64.062c9.971-32.285,20.164-64.511,29.206-97.079C566.279,12.966,566.653,11.255,567.52,9.745"
		/>
	<path d="M471.674,292.283c4.245-0.067,8.474-0.441,12.727-0.545c17.47-0.127,34.981-0.083,52.41,1.403
		c15.463,2.04,30.977,3.774,46.35,6.375l0.883,0.353c-1.574-0.12-3.151-0.232-4.724-0.366c-1.495-0.366-3.026-0.598-4.536-0.822
		c-1.727-0.306-3.453-0.509-5.179-0.725c-15.626-2.183-31.239-5.262-47.075-5.396c-1.413,0.591-2.99,0.627-4.359-0.09
		c-8.244-0.598-16.529-0.172-24.783-0.739c-7.686,0.074-15.428,0.135-23.04,1.271c-5.067,0.15-10.156,0.083-15.164,1.009
		C460.599,292.68,466.175,292.881,471.674,292.283z"/>
	<path fill="#FFF69B" d="M470.344,293.001c7.611-1.136,15.354-1.195,23.041-1.271c8.253,0.567,16.539,0.142,24.785,0.739
		c1.366,0.718,2.943,0.681,4.356,0.09c15.836,0.135,31.449,3.215,47.075,5.396c1.726,0.217,3.452,0.419,5.179,0.726
		c1.513,0.225,3.041,0.456,4.536,0.821c1.57,0.135,3.146,0.247,4.725,0.366c0.188,0.074,0.548,0.217,0.727,0.284
		c11.061,2.734,22.696,3.049,33.503,6.89c2.519,0.837,4.192,3.012,5.993,4.852c8.654,8.78,14.768,19.579,21.188,29.997
		c3.021,4.507,4.439,9.806,6.547,14.753c10.283,27.838,20.271,55.826,28.646,84.308c2.811,11.702,5.866,23.347,9.088,34.946
		c1.831,7.876,4.812,15.57,5.104,23.731c2.892,19.662,5.874,39.325,8.706,59.003c2.366,23.48,5.725,46.82,8.106,70.293
		c0.71,5.913-0.063,11.898,0.688,17.812c0.445,5.807,0.701,11.637,0.99,17.459c-0.306,4.378-0.18,8.795,0.076,13.175
		c1.158,4.856,0.029,9.894,0.82,14.789c0.584,2.534,0.33,5.146,0.546,7.729c1.405,7.397-0.172,15.054,1.264,22.457
		c0.507,5.418-0.165,10.892,0.354,16.31c0.858,3.729,0.216,7.613,1.104,11.345c0.32,9.446-0.061,18.908,0.3,28.354
		c1.029,4.934,0.517,9.982,0.701,14.984c0.74,6.194,1.45,12.398,1.479,18.652c1.256,6.144,0.471,12.459,0.83,18.676
		c0.604,3.469,0.655,7.004,1.27,10.479c0.066,10.964,0.171,21.936,0.066,32.896c0.128,4.013-1.127,7.921-0.644,11.957H258.285
		c0.355-4.237,0.972-8.46,0.946-12.719c-0.097-6.257,1.221-12.433,1.102-18.688c-0.075-6,0.927-11.926,1.148-17.902
		c0.104-7.25,0.531-14.49,0.892-21.733c0.508-5.425,0.007-10.88,0.471-16.307c0.276-4.062,0.844-8.086,0.897-12.151
		c0.064-2.72-0.075-5.448,0.26-8.146c0.59-5.2,1.055-10.418,0.979-15.654c0.485-5.974,1.222-11.93,1.102-17.931
		c-0.007-12.749,1.495-25.444,1.136-38.194c-0.284-7.759,1.159-15.428,1.264-23.159c0.649-6.733,1.091-13.482,2.04-20.172
		c1.767-15.693,3.478-31.39,5.021-47.111c0.426-2.714,0.889-5.426,0.882-8.178c2.757-25.161,4.917-50.377,8.011-75.503
		c3.177-23.514,6.381-47.074,11.729-70.22c1.947-6.413,4.842-12.487,7.276-18.716c11.591-27.913,23.75-55.603,36.664-82.932
		c1.45-2.234,3.146-4.305,4.836-6.36c9.633-11.808,18.684-24.229,29.979-34.542c4.398-4.318,9.354-8.011,13.968-12.084
		c2.713-2.302,6.367-2.571,9.685-3.378c18.75-4.058,37.628-7.474,56.611-10.208C460.188,293.083,465.277,293.15,470.344,293.001"/>
</g>
<path fill="#CD031B" d="M496.174,385.948c0.829-1.547,1.869-2.959,2.953-4.327c9.511,16.135,18.139,32.763,27.063,49.227
	c9.324,19.016,18.113,38.279,26.645,57.666c3.359,9.438,8.257,18.242,11.856,27.568c-0.284,6.644-3.303,12.825-3.98,19.417
	c-0.62,6.225-2.604,12.188-3.572,18.347c-1.466,6.3-2.268,12.742-3.901,19.003c-1.637,6.278-1.951,12.862-4.215,18.983
	c-2.317,6.104-3.788,12.489-5.575,18.759c-4.268,12.794-7.923,25.791-11.595,38.764c-3.491,9.693-5.293,19.896-8.696,29.609
	c-0.818,2.422-1.237,4.985-2.376,7.287c-2.476,0.365-3.187-2.632-4.319-4.207c-9.132-14.14-19.01-27.787-28.562-41.644
	c-11.845-18.723-22.891-37.937-34.07-57.065c-3.759-7.323-8.251-14.229-12.332-21.374c-3.886-6.929-8.46-13.443-12.765-20.096
	c0.336-3.516,2.205-6.723,3.109-10.126c2.294-5.904,3.569-12.185,6.357-17.898c12.152-26.591,22.958-53.778,35.39-80.242
	c3.296-7.021,6.188-14.236,9.734-21.142C487.156,403.413,491.454,394.557,496.174,385.948z"/>
<path fill="#F44900" d="M487.779,319.764c0.602-1.54,2.326-0.83,2.699,0.471c7.131,12.518,14.385,24.976,21.487,37.508
	c7.9,14.97,15.791,29.938,23.964,44.751c5.192,9.446,10.823,18.653,15.89,28.167c4.663,7.929,7.772,16.621,11.629,24.946
	c7.084,16.655,14.934,32.974,22.293,49.505c2.952,6.561,5.556,13.287,8.735,19.744c1.3,2.771,2.849,5.451,3.812,8.385
	c-0.364,2.593-1.611,4.955-2.493,7.396c-5.019,12.938-9.364,26.118-14.372,39.059c-4.253,12.435-9.307,24.579-13.624,36.983
	c-4.927,12.622-9.396,25.434-14.834,37.839c-8.408,19.641-18.188,38.64-27.396,57.902c-2.348,4.918-5.021,9.664-7.526,14.499
	c-3.307-2.414-4.728-6.441-7.109-9.626c-9.398-15.32-19.507-30.177-29.104-45.371c-7.585-11.42-15.163-22.857-22.312-34.562
	c-18.011-30.491-36.598-60.646-54.578-91.153c-1.293-2.719-2.631-5.433-3.729-8.242c-0.883-2.131,0.283-4.298,0.986-6.286
	c6.12-16.483,11.964-33.066,17.622-49.721c6.576-16.845,12.757-33.839,19.042-50.803c4.245-10.956,7.616-22.262,12.525-32.958
	C462.96,371.8,475.426,345.808,487.779,319.764 M496.174,385.948c-4.721,8.608-9.018,17.465-12.852,26.508
	c-3.55,6.905-6.439,14.117-9.734,21.143c-12.431,26.462-23.235,53.651-35.39,80.242c-2.788,5.718-4.063,11.994-6.357,17.898
	c-0.904,3.405-2.772,6.611-3.109,10.126c4.305,6.649,8.879,13.167,12.765,20.096c4.08,7.146,8.572,14.051,12.332,21.374
	c11.183,19.132,22.228,38.347,34.07,57.067c9.554,13.854,19.432,27.502,28.562,41.642c1.137,1.576,1.847,4.573,4.319,4.207
	c1.139-2.302,1.558-4.864,2.376-7.286c3.403-9.716,5.205-19.917,8.696-29.606c3.672-12.977,7.327-25.974,11.595-38.768
	c1.786-6.27,3.258-12.648,5.575-18.758c2.265-6.121,2.578-12.706,4.215-18.983c1.642-6.262,2.438-12.702,3.901-19.004
	c0.971-6.155,2.952-12.121,3.572-18.347c0.68-6.591,3.696-12.771,3.98-19.416c-3.603-9.326-8.497-18.131-11.856-27.569
	c-8.527-19.387-17.316-38.65-26.645-57.665c-8.928-16.462-17.556-33.092-27.063-49.228
	C498.043,382.988,497.003,384.399,496.174,385.948z"/>
<path d="M598.841,402.075c4.379-1.091,9.07-1.128,13.46-0.038c3.697,0.866,6.591,3.46,9.646,5.567
	c3.812,2.69,7.395,5.821,9.991,9.737c3.812,6.241,5.023,13.759,4.373,20.972c-0.382,1.758-0.582,3.545-0.777,5.338
	c-0.483,1.509-0.947,3.042-1.402,4.571c-2.608,3.916-6.094,7.105-9.229,10.582c-0.261,0-0.791-0.008-1.061-0.008l-0.037,0.517
	c-0.65,0.473-1.293,0.948-1.938,1.438c-2.138,1.457-4.478,2.586-6.656,3.968c-8.169,0.449-16.562,0.546-24.516-1.599
	c-0.844-0.651-1.756-1.204-2.72-1.629c-0.052-0.172-0.157-0.524-0.209-0.695c-1.457-0.889-2.824-1.896-4.201-2.892
	c-0.142-0.396-0.432-1.189-0.583-1.585c-0.582-0.479-1.158-0.949-1.74-1.405v-0.538l-0.591,0.016
	c-1.256-1.794-2.519-3.57-3.752-5.373c-0.471-0.82-0.939-1.637-1.421-2.437c-0.515-1.749-1.029-3.49-1.427-5.263
	c-0.682-4.819-1.766-9.773-0.538-14.597c1.03-3.938,1.495-8.362,4.656-11.276C583.154,408.621,590.871,404.421,598.841,402.075z"/>
<path d="M368.668,407.709c4.825-2.481,10.116-4.169,15.572-4.379c3.003,0.203,6.045,0.216,9.035,0.695
	c7.668,2.271,13.579,8.176,18.197,14.468c1.862,3.258,3.189,6.794,4.693,10.229c1.847,3.938,1.263,8.389,1.119,12.586
	c-0.455,1.729-0.572,3.506-0.729,5.282c-0.539,1.271-1.069,2.541-1.547,3.841c-0.695,1.487-1.292,3.071-2.399,4.327
	c-3.326,3.625-6.382,7.496-10.097,10.747c-1.3,0.709-2.593,1.438-3.896,2.146c-1.11,0.363-2.212,0.762-3.31,1.148
	c-1.891,0.664-3.827,1.21-5.739,1.804c-5.284,0.672-10.763,0.965-15.89-0.747c-0.739-0.239-1.487-0.456-2.233-0.658
	c-0.741-0.263-1.484-0.517-2.232-0.747c-1.204-0.53-2.431-1.002-3.642-1.509c-0.561-0.511-1.128-1.002-1.688-1.487
	c-1.21-1.032-2.339-2.152-3.468-3.266c-0.473-0.859-0.936-1.723-1.385-2.571l-0.611,0.075c-0.01-0.51-0.022-1.524-0.03-2.04
	c-0.426-0.646-0.844-1.286-1.255-1.931c-0.359-0.928-0.728-1.838-1.068-2.759l-0.382-0.146c-0.374-1.106-0.762-2.197-1.113-3.296
	c-0.344-0.756-0.688-1.504-1.039-2.241c-0.298-1.722-0.445-3.461-0.643-5.194c-0.562-3.242-0.354-6.554-0.226-9.819
	c0.707-2.505,1.518-4.97,2.311-7.442c1.241-3.288,2.175-6.927,4.918-9.349C362.772,412.844,364.864,409.138,368.668,407.709z"/>
</svg>
