<?xml version="1.0" encoding="utf-8"?>
<!-- Generator: Adobe Illustrator 15.0.2, SVG Export Plug-In . SVG Version: 6.00 Build 0)  -->
<!DOCTYPE svg PUBLIC "-//W3C//DTD SVG 1.1 Basic//EN" "http://www.w3.org/Graphics/SVG/1.1/DTD/svg11-basic.dtd">
<svg version="1.1" baseProfile="basic" id="Livello_1"
	 xmlns="http://www.w3.org/2000/svg" xmlns:xlink="http://www.w3.org/1999/xlink" x="0px" y="0px" width="886px" height="886px"
	 viewBox="0 0 886 886" xml:space="preserve">
<g id="_x23_ffffffff">
	<path fill="#FFFFFF" d="M430.44,387.61c11.356-0.053,22.72-0.312,34.066-0.021v0.97c2.75-0.1,5.5-0.271,8.25-0.67
		c-1.146,0.021-6.71,1.58-2.856,1.812l0.946,0.021c4.354-0.647,8.62,0.521,12.934,0.96l-0.34,0.67
		c2.696,0.07,5.396,0.189,8.106,0.28l-0.02,0.699c1.62,0.051,3.26,0.16,4.89,0.25c0,1.381,0.01,2.75,0.021,4.148l0.866-0.198
		c0.094,23.811,0.46,47.62,0.29,71.431c0.134,17.739-0.43,35.479,0.19,53.21c0.939,6.58,0.46,13.229,0.67,19.859
		c0.03,9.221,0.3,18.438,0.19,27.67l0.8-0.51c0.33,12.521-0.32,25.1,0.989,37.567c0.131,20.37,0.181,40.74,0.367,61.109l0.74-0.771
		c0.09,9.939-0.47,19.96,0.69,29.859c0.17,10.25,0.37,20.5,0.356,30.761l0.82-0.45c-0.18,12.171,0.609,24.36-0.141,36.521
		c0.369-2.859,0.567-5.76,0.891-8.602c0.25,7.852,0.37,15.699,0.43,23.562l0.803-0.49c-0.039,8.433,0.229,16.853,0.229,25.279
		l0.78-0.119c-0.23,9.5,0.34,18.989,0.06,28.5c0.44-4.08,0.61-8.17,1.03-12.229c-0.13,8.447-0.12,16.909,0.27,25.368
		c1.2,7.069,0.65,14.302,0.94,21.462l0.82-0.36c-0.03,3.21,0.01,6.438,0.329,9.66c0.721,3.67,0.578,7.431,0.711,11.17l-1.2,0.011
		H272.83l-1.42-0.011c0.04-1.97,0.07-3.92,0.1-5.851l0.81,0.5c-0.49-15.949,2.72-31.699,2.32-47.632
		c0.09-104.527-0.02-209.051,0.18-313.577c0.37,0.09,1.11,0.277,1.48,0.368c0.13-1.938,0.26-3.892,0.43-5.818
		c1.19-3.08,1.93-6.312,2.02-9.603l0.64,0.21c0.03-1.828,0.08-3.618,0.12-5.407c0.19,0.146,0.56,0.47,0.74,0.63
		c0.4-3.17,1.12-6.28,1.49-9.432l0.79,0.158c-0.021-0.76-0.07-2.289-0.09-3.05h0.97c0.04-1.41,0.1-2.77,0.16-4.147l1.25,0.328
		c-0.1-0.5-0.29-1.5-0.39-2l1.3-0.25c-0.09-0.351-0.26-1.051-0.34-1.391c0.75-1.35,1.48-2.7,2.23-4.04
		c-0.11-0.37-0.32-1.1-0.43-1.47l0.93-0.09c0.79-2.07,1.66-4.104,2.54-6.11l1.12,0.03c-0.15-0.45-0.47-1.34-0.63-1.78
		c0.37-0.069,1.12-0.21,1.49-0.29l-0.23-1.107c0.56-1.189,1.1-2.383,1.63-3.569c0.25-0.04,0.75-0.13,1-0.17
		c0.52-1.36,1.06-2.7,1.61-4.03l1.18,0.01c-0.16-0.438-0.46-1.316-0.62-1.76l1.44-0.18c0-0.28,0.01-0.841,0.01-1.13
		c1.896-2.354,3.6-4.86,5.24-7.41c1.96-2.801,3.986-5.562,5.93-8.38l0.76-0.12c0.021-0.312,0.07-0.91,0.09-1.221
		c1.12-1.359,2.2-2.739,3.28-4.109c4.66-6.021,10.04-11.46,15.771-16.45c1.803-1.16,3.579-2.35,5.369-3.54
		c0.91-0.56,1.83-1.12,2.74-1.66l0.79,0.132l-0.03-1.318c0.46,0.146,1.4,0.43,1.86,0.58l0.05-1.512
		c0.471,0.068,1.42,0.222,1.894,0.302l0.18-1.38c0.46,0.1,1.357,0.31,1.82,0.42l-0.021-1.33l1.28,0.38l-0.144-1.28
		c0.381,0.03,1.144,0.11,1.521,0.15c3.07-1.69,6.2-3.271,9.479-4.521l0.094-0.856c0.46,0.146,1.367,0.46,1.816,0.606l0.021-1.04
		c1.17-0.3,2.33-0.62,3.5-0.938c1.64-0.69,3.277-1.37,4.92-2.052c1.42-0.562,2.84-1.132,4.27-1.67c1.73-0.448,3.49-0.83,5.24-1.212
		c-1.229,0.014-2.46,0.04-3.68,0.08c1.81-0.356,3.6-0.75,5.396-1.188c1.15-0.19,2.312-0.354,3.474-0.5l-0.19-0.69
		c2.43-0.55,4.851-1.106,7.33-1.438l-0.479-0.58c2.763-0.052,5.521-0.17,8.289-0.24l-0.06-0.68c5.74,0.01,11.47-0.32,17.22-0.28
		l-0.35-0.78c5.72-0.028,11.438-0.33,17.16-0.27L430.44,387.61"/>
</g>
<g id="_x23_fdc401ff">
	<path fill="#FDC401" d="M503.72,395.65c1.24-0.021,2.5-0.04,3.764-0.053l-0.184,1.229l1.36-0.521l-0.11,1.422
		c0.48-0.109,1.42-0.319,1.9-0.432l0.13,1.432c0.479-0.132,1.45-0.392,1.93-0.529l0.011,1.511c0.473-0.07,1.399-0.221,1.869-0.29
		l0.2,1.271c0.46-0.093,1.394-0.28,1.854-0.37l0.09,1.431c0.47-0.101,1.42-0.301,1.89-0.4l0.13,1.4
		c0.48-0.131,1.434-0.41,1.91-0.551l0.11,1.45c0.448-0.062,1.356-0.17,1.816-0.229l0.17,1.34c0.474-0.141,1.41-0.431,1.884-0.567
		l0.188,1.567l1.73-0.471c0.05,0.37,0.17,1.102,0.22,1.471c0.33-0.09,0.99-0.26,1.32-0.351c1.736,1.101,3.646,1.931,5.68,2.391
		l-0.36,0.939l1.37-0.42l-0.21,1.2c0.79-0.013,2.38-0.021,3.17-0.03l0.04,1.33l1.852-0.55c0.021,0.397,0.052,1.18,0.062,1.58
		c0.479-0.143,1.438-0.423,1.92-0.562l0.12,1.461c0.47-0.101,1.42-0.32,1.89-0.421l0.11,1.45c0.47-0.12,1.43-0.37,1.898-0.49
		l0.132,1.37c0.46-0.08,1.38-0.239,1.84-0.319l0.2,1.489l1.67-0.59c0.09,0.37,0.27,1.107,0.356,1.479
		c0.45-0.12,1.343-0.351,1.78-0.46l0.141,0.933c2.312,0.84,4.579,1.83,6.899,2.697l0.11,0.853c0.47-0.12,1.396-0.37,1.869-0.489
		l0.027,1.529c0.5-0.103,1.48-0.29,1.973-0.393l0.157,1.46l1.75-0.697c0.053,0.397,0.171,1.18,0.23,1.567
		c0.45-0.09,1.358-0.29,1.81-0.38l0.19,1.393c0.47-0.133,1.41-0.393,1.88-0.521l0.04,1.109c1.88,0.79,4.51,0.777,5.5,2.88
		c1.479,0.188,2.97,0.391,4.47,0.57c-0.01,0.43-0.02,1.3-0.02,1.729c0.789,0,2.356-0.011,3.14-0.021l-0.01,1.421l1.72-0.603
		c0.08,0.37,0.24,1.12,0.33,1.489c0.439-0.119,1.34-0.359,1.78-0.479l0.229,1.37c0.45-0.09,1.341-0.26,1.79-0.351l0.17,1.49
		l1.854-0.592c-0.03,0.382-0.07,1.132-0.104,1.512l1.33-0.46l-0.18,0.938c1.37,0.393,2.75,0.859,4.13,1.3l-0.16,1.013
		c0.74,0.01,2.23,0.021,2.98,0.027l-0.021,1.15l1.28-0.392l-0.12,1.471l1.74-0.539c0.08,0.38,0.239,1.13,0.319,1.51
		c0.447-0.13,1.357-0.391,1.811-0.529l0.04,1.512c0.489-0.12,1.46-0.353,1.95-0.46l0.17,1.311c0.47-0.09,1.42-0.25,1.89-0.33
		l0.062,1.399c0.447-0.062,1.351-0.199,1.79-0.271l0.277,1.29c0.473-0.13,1.41-0.37,1.88-0.489l0.03,1.479
		c0.47-0.103,1.432-0.29,1.91-0.381l0.109,1.351c0.5-0.13,1.5-0.39,2-0.521l-0.08,1.539c0.488-0.102,1.479-0.289,1.979-0.381
		l0.103,1.342c0.479-0.119,1.438-0.353,1.921-0.461l0.09,1.381c0.46-0.051,1.397-0.149,1.87-0.199l0.01,1.14
		c0.78,0,2.35-0.01,3.13-0.01v1.29c0.45-0.109,1.36-0.319,1.82-0.431l0.146,1.391c0.48-0.12,1.421-0.359,1.9-0.479l0.107,1.432
		c0.473-0.07,1.41-0.2,1.883-0.261l0.079,1.369c0.479-0.119,1.431-0.352,1.897-0.472l0.221,1.479
		c0.461-0.143,1.359-0.399,1.819-0.539l-0.01,1.27c0.739,0.012,2.239,0.03,2.989,0.04c-0.021,0.32-0.062,0.972-0.079,1.29l1.3-0.647
		l-0.17,1.027c1.647,0.49,3.29,1.052,4.96,1.552l0.06,1.068c0.474-0.159,1.434-0.47,1.9-0.62l0.16,1.393
		c0.47-0.062,1.397-0.182,1.869-0.239l0.078,1.39c0.479-0.118,1.45-0.35,1.933-0.47l0.17,1.46c0.479-0.17,1.43-0.489,1.91-0.66
		l-0.08,1.04c1.22,0.41,2.45,0.853,3.68,1.32c0.312-0.021,0.94-0.051,1.261-0.07l-0.08,0.899c1.763,0.729,3.513,1.529,5.263,2.319
		l0.01,0.801c0.75,0.011,2.229,0.04,2.979,0.061l-0.312,1.312l1.391-0.579l-0.141,1.199c0.771,0.051,2.3,0.141,3.07,0.188
		c-0.021,0.42-0.062,1.271-0.07,1.688c1.359,0.068,2.729,0.148,4.109,0.238l-0.239,1.21l1.3-0.51l-0.22,1.21
		c0.8,0.03,2.409,0.091,3.22,0.12c-0.029,0.43-0.08,1.271-0.108,1.7c1.342,0.079,2.688,0.17,4.039,0.278l-0.25,1.21l1.342-0.528
		l-0.302,1.22c0.779,0.021,2.353,0.04,3.13,0.062l-0.107,1.188l1.271-0.409l-0.261,1.079c1.13,0.103,2.28,0.229,3.432,0.381
		c0.948,2.239,4.17,1.271,5.102,3.579c0.64,0.062,1.938,0.171,2.59,0.223l0.062,1.198c0.448-0.101,1.358-0.311,1.812-0.421
		l0.188,1.562l1.771-0.739c0.05,0.391,0.16,1.159,0.21,1.54c0.47-0.12,1.4-0.352,1.87-0.471l0.04,1.061
		c1.37,0.37,2.76,0.819,4.148,1.24l-0.198,1c0.77,0.01,2.31,0.039,3.079,0.061l0.08,1.149c0.461-0.131,1.381-0.37,1.841-0.5
		l0.08,1.521c0.47-0.092,1.39-0.262,1.856-0.352l0.262,1.279c0.461-0.109,1.392-0.33,1.858-0.439l0.03,1.471
		c0.479-0.091,1.438-0.278,1.92-0.369l0.149,1.312c0.479-0.12,1.447-0.341,1.938-0.45l0.03,1.5c0.47-0.108,1.397-0.33,1.87-0.438
		l-0.012,1.2c0.771,0.028,2.302,0.079,3.068,0.108l-0.24,1.25l1.271-0.529l0.02,0.819c1.24,0.391,2.45,0.891,3.62,1.5l1.21-0.271
		c0.04,0.229,0.12,0.682,0.15,0.898c1.22,0.45,2.46,0.96,3.68,1.45c1.42,0.71,2.87,1.369,4.32,2.06l-0.062,0.771
		c0.763,0,2.289-0.012,3.062-0.012c0.021,0.479,0.068,1.432,0.09,1.91c0.352,0.01,1.04,0.038,1.391,0.062
		c0.562,0.397,1.683,1.198,2.229,1.6c0.061,0.392,0.18,1.17,0.229,1.562l1.353-0.05c-0.16,0.448-0.48,1.358-0.644,1.812
		c0.4,0.09,1.212,0.26,1.61,0.35l-0.811,1.69c0.357,0.04,1.068,0.108,1.421,0.147c0.09,2.979,0.119,5.979,0.067,8.979l-1.25-0.24
		l0.562,1.3l-0.971-0.068c-0.359,1.648-0.132,3.842-2.17,4.438c-0.053,0.262-0.149,0.78-0.199,1.04c-0.95,0.71-1.79,1.551-2.5,2.521
		c-0.36-0.038-1.07-0.108-1.434-0.148l0.2,1.32l-1.34-0.49c0.01,0.38,0.04,1.141,0.05,1.521l-1.85-0.521l-0.183,1.58
		c-0.471-0.17-1.408-0.511-1.881-0.682l-0.02,0.979c-1.23,0.46-2.45,0.95-3.65,1.479l-1.22-0.392c0,0.352,0.01,1.052,0.01,1.4
		c-0.8-0.03-2.39-0.08-3.18-0.103l0.09,0.933c-7.569,0.028-15.148-0.062-22.7,0.34c-10.84,1.729-21.979-0.24-32.777,1.46
		c-11.229,0.431-22.479,0.271-33.723,0.37l0.381,0.898c-8.068-0.021-16.147,0.102-24.221,0.119l-0.01,0.771
		c-16.631-0.021-33.25,0.43-49.881,0.318c0,0.21,0.011,0.642,0.011,0.852c-8.09,0.29-16.25-0.29-24.28,0.778
		c-9.01,0.211-18.028,0.302-27.05,0.229l0.391,0.94c-2.421-0.04-4.841-0.07-7.25-0.132c0.103-0.479,0.302-1.448,0.399-1.938
		l-1.141,0.07c-0.103-7.7-0.319-15.394-0.2-23.08l-0.819,0.026C503.67,481.521,503.53,438.59,503.72,395.65z"/>
</g>
<g id="_x23_0491b7ff">
	<path fill="#0491B7" d="M393.05,433.5c3.38-2.721,7.854-2.19,11.91-2.24c3.22-0.04,6.44,0.33,9.54,1.261
		c0.03,0.182,0.09,0.552,0.12,0.729c1.33,0.39,2.66,0.81,3.99,1.239c0.01,0.317,0.026,0.95,0.026,1.271l1.38-0.471
		c2.514,3.5,6.213,6.091,8.021,10.08c0.37,0.061,1.11,0.188,1.479,0.25l-0.146,1.74c0.37,0.04,1.1,0.12,1.46,0.157
		c-0.15,0.49-0.46,1.48-0.61,1.973l1.2-0.062c1.67,4.88,1.51,10.062,1.07,15.143l-0.75-0.062c-0.38,1.66-0.82,3.3-1.24,4.97
		l-0.62,0.08c-0.96,2.12-2.25,4.08-3.64,5.961c-1.15,1.229-2.271,2.5-3.36,3.789c-0.58,0.103-1.729,0.29-2.31,0.393
		c-0.014,0.489-0.03,1.479-0.04,1.971c-0.49-0.091-1.474-0.271-1.96-0.351l-0.17,1.34c-0.46-0.103-1.384-0.3-1.83-0.399
		l-0.184,0.933c-3.76,1.35-7.236,3.92-11.438,3.447c-5.104,0.479-9.9-1.39-14.4-3.539c-0.02-0.398-0.06-1.188-0.08-1.591
		c-0.35,0-1.066,0.013-1.43,0.013c-1.271-1.672-2.71-3.2-4.29-4.57c-0.12-0.569-0.37-1.71-0.5-2.279
		c-0.47-0.068-1.41-0.21-1.88-0.279c0.08-0.471,0.25-1.398,0.34-1.858l-0.979-0.17c-3.33-5.939-2.394-12.83-2.384-19.341
		c-0.05-2.562,0.5-5.052,1.28-7.461l1.104-0.068c-0.021-0.34-0.062-1.01-0.08-1.352c2.72-3.271,5.486-6.471,8.46-9.511
		c0.35,0.021,1.05,0.069,1.408,0.091l0.012-1.369C391.91,433.39,392.67,433.46,393.05,433.5z"/>
</g>
</svg>
