<?xml version="1.0" encoding="utf-8"?>
<!-- Generator: Adobe Illustrator 15.0.2, SVG Export Plug-In . SVG Version: 6.00 Build 0)  -->
<!DOCTYPE svg PUBLIC "-//W3C//DTD SVG 1.1 Basic//EN" "http://www.w3.org/Graphics/SVG/1.1/DTD/svg11-basic.dtd">
<svg version="1.1" baseProfile="basic" id="Livello_1"
	 xmlns="http://www.w3.org/2000/svg" xmlns:xlink="http://www.w3.org/1999/xlink" x="0px" y="0px" width="886px" height="886px"
	 viewBox="0 0 886 886" xml:space="preserve">
<g id="_x23_bcdff3ff">
	<path fill="#BCDFF3" d="M411.93,170.11c11.433-2.819,23.28-3.619,35.03-3.439c13.67,1.189,27.42,1.28,41.1,2.521
		c13.934,2.24,27.384,6.591,40.884,10.601c25.866,7.45,50.92,17.771,74.616,30.562c17.844,9.42,33.91,21.72,50.04,33.76
		c15.28,13.101,31.16,25.521,45.91,39.221c0.63,0.729,1.21,1.5,1.76,2.312c-12.01,1.21-24.06,3.188-36.146,2.59
		c8.17,5.721,17.63,9.25,26.03,14.59c-11.32,5.99-23.17,10.892-34.71,16.44c-6.49,3.06-13.32,5.29-19.95,7.987
		c-17.13,7.013-34.87,12.303-52.224,18.683c-11.316,2.97-22.787,5.29-34.17,7.988c-12.18,2.409-24.56,3.609-36.93,4.529
		c-21,2.012-42.14,1.841-63.18,0.721c-14.15-1.778-28.262-3.852-42.4-5.778c-11.107-1.229-21.76-4.75-32.68-7.03
		c-14.26-2.97-27.74-8.62-41.66-12.778c-14.29-4.33-28.26-9.642-42.39-14.45c-8.48-3.068-17.27-5.198-25.72-8.391
		c-6.72-1.761-13.15-4.641-20.04-5.71c-27.36,10.779-54.22,22.859-81.68,33.409c-6.31,2.229-12.42,5.148-19.02,6.471
		c5.81-12.261,12.56-24.029,18.45-36.239c7.16-14.051,14.84-27.83,22.81-41.431c2.1-2.851,0.83-6.311-0.09-9.319
		c-5.22-15.658-9.24-31.681-14.25-47.398c-2.2-8.67-4.9-17.2-7.4-25.779c1.52,0.409,3.03,0.899,4.39,1.721
		c24.93,13.779,50.02,27.358,76.14,38.79c3.61,1.279,7.14,4.438,11.18,3.159c23.2-11.771,46.69-23.021,70.51-33.479
		C354.03,184.421,382.79,176.36,411.93,170.11"/>
</g>
<g id="_x23_fdc402ff">
	<path fill="#FDC402" d="M542.08,252.812c5.12-8.67,16.95-13.09,26.33-9.021c3.16,0.722,5.02,3.62,7.82,5.029
		c0.14,0.41,0.42,1.229,0.56,1.641c4.62,5.843,4.25,14.689,0.03,20.603c-0.15,0.397-0.45,1.188-0.61,1.59
		c-2.77,2.631-5.33,5.66-8.82,7.37c-2.63,1.311-5.606,1.38-8.43,1.989c-2.63-0.779-5.81-0.222-7.92-2.239
		c-3.521-3.04-8-5.739-9.33-10.489C540.47,263.932,539.4,257.881,542.08,252.812z"/>
</g>
</svg>
