<?xml version="1.0" encoding="iso-8859-1"?>
<!-- Generator: Adobe Illustrator 15.0.2, SVG Export Plug-In . SVG Version: 6.00 Build 0)  -->
<!DOCTYPE svg PUBLIC "-//W3C//DTD SVG 1.1 Basic//EN" "http://www.w3.org/Graphics/SVG/1.1/DTD/svg11-basic.dtd">
<svg version="1.1" baseProfile="basic" id="Layer_1"
	 xmlns="http://www.w3.org/2000/svg" xmlns:xlink="http://www.w3.org/1999/xlink" x="0px" y="0px" width="768px" height="1024px"
	 viewBox="0 0 768 1024" xml:space="preserve">
<g id="lupo">
	<rect style="fill:#FDC500;" width="768.003" height="1023.485"/>
	<g id="_x23_6d5940ff">
		<path style="fill:#6D5940;" d="M458.709,493.258c1.148-1.688,2.955-2.646,4.729-3.555c0.342,5.19,0.024,10.397,0.291,15.588
			c0.949,11.408,0.334,22.859,0.608,34.293c-0.849,27.861,0.582,55.723,0.068,83.593c6.91,2.912,14.438,3.751,21.736,5.268
			c5.747,0.907,11.426,2.303,17.232,2.835c2.586,0.429,4.409-1.833,6.218-3.271c14.397-13.301,29.224-26.14,43.646-39.406
			c16.819-14.93,33.625-29.908,51.586-43.457c2.594-2.134,5.216-4.6,8.812-4.592c-0.18,8.402-3.1,16.41-4.153,24.71
			c-1.67,10.354-4.472,20.496-6.604,30.766c-2.5,11.262-4.487,22.628-7.312,33.821c-2.562,9.781-4.266,19.793-7.478,29.402
			c-1.456,4.985-3.939,10.312-1.918,15.503c4.213,12.111,11.115,23.039,16.538,34.61c2.989,7.022,6.904,13.601,10.296,20.436
			c3.545,7.211,7.494,14.219,11.1,21.395c8.438,15.631,17.628,30.851,26.347,46.328c4.076,6.389,7.622,13.095,11.15,19.801
			c8.788,15.613,17.147,31.476,26.457,46.79c7.229,13.649,15.905,26.456,23.622,39.826c3.812,7.477,7.69,14.936,11.75,22.293
			c6.492,12.778,12.855,25.626,19.537,38.311c8.582,16.615,16.581,33.514,25.034,50.189v8.753L595.202,1024l-29.346-0.544
			c-26.875,0.948-15.325,0.272-26.632-0.001c-13.721-0.352-27.58,0.069-41.302,0c-11.412,0.001-21.29-0.723-30.978-0.542
			c-40.758,0.543-65.213,0.543-100.537,0c-0.89,0-1.567-3.487-1.885-4.293c-8.051-15.999-15.69-32.221-24.084-48.058
			c-6.903-13.574-14.457-26.808-21.403-40.355c-9.139-14.954-18.68-29.678-28.391-44.264c-8.711-13.669-17.362-27.45-27.793-39.903
			c-6.305-8.205-12.848-16.221-19.545-24.103c-4.812-6.021-10.27-11.477-15.031-17.531c-21.737-25.043-44.28-49.41-67.619-72.963
			c-5.002-5.26-10.843-9.637-15.759-14.979c-10.347-10.792-21.258-21.009-32.083-31.312c-23.314-22.227-46.799-44.271-70.832-65.718
			c3.145-7.52,5.867-15.236,9.713-22.439c9.986,1.815,19.682,5.293,29.883,5.943c-4.848-8.915-9.593-17.892-14.329-26.858
			c1.088-5.079,5.781-7.845,8.3-12.084c2.303-3.683,5.027-7.083,7.785-10.432c5.704,1.284,11.477,2.185,17.267,2.896
			c16.436,2.449,32.88,4.796,49.333,7.091c9.627,1.045,19.1,3.109,28.684,4.462c14.568,2.133,29.086,4.668,43.715,6.372
			c28.486,6.099,57.109,11.562,85.656,17.361c10.465,2.466,21.172,3.658,31.774,5.396c8.865,1.131,17.532,3.443,26.397,4.6
			c12.469-13.446,24.846-26.979,36.812-40.871C422.489,539.122,440.475,516.074,458.709,493.258 M433.084,686.668
			c-4.521,0.18-8.214,3.084-12.548,3.991c-3.81,2.749-6.759,6.492-9.011,10.586c-3.562,5.927-4.076,13.12-3.588,19.87
			c1.104,10.175,9.42,17.96,18.295,22.054c5.541,2.74,11.888,2.347,17.856,1.73c3.685-0.849,6.974-2.835,10.371-4.43
			c4.077-1.909,6.673-5.736,9.345-9.181c2.758-3.675,5.155-7.975,5.131-12.693c0.215-6.653-1.746-13.267-4.907-19.064
			c-2.964-3.727-6.047-7.528-9.942-10.312C447.678,685.854,440.09,686.025,433.084,686.668z"/>
	</g>
	<g id="_x23_cd031bff_1_">
		<path style="fill:#CD031B;" d="M433.084,686.668c7.006-0.643,14.594-0.814,21.002,2.552c3.896,2.783,6.979,6.586,9.942,10.312
			c3.161,5.799,5.122,12.411,4.907,19.064c0.024,4.721-2.373,9.02-5.131,12.693c-2.672,3.443-5.268,7.271-9.345,9.181
			c-3.399,1.595-6.688,3.581-10.371,4.43c-5.97,0.617-12.315,1.011-17.856-1.73c-8.875-4.094-17.19-11.879-18.295-22.054
			c-0.487-6.75,0.024-13.943,3.588-19.87c2.252-4.095,5.199-7.838,9.012-10.586C424.87,689.751,428.562,686.847,433.084,686.668z"/>
	</g>
	<g>
		<path style="fill:#FFFFFF;" d="M143.922,41.089c8.224-1.241,16.486-2.191,24.751-3.104c8.312-0.455,16.632,0.319,24.864,1.456
			c6.448,0.616,12.183,3.919,17.889,6.728c7.016,4,13.975,8.104,20.582,12.744c9.256,7.392,17.232,16.496,22.793,26.984
			c2.454,4.703,5.176,9.272,7.416,14.087c1.967,5.287,4.664,10.272,6.752,15.52c2.021,5.792,2.086,11.992,2.959,18
			c0.112,4.52,0.285,9.048,0.191,13.576c-1.545,10.633-3.85,21.177-7.545,31.296c-3.487,11.128-10.455,20.792-18.312,29.256
			c-5.225,4.264-8.889,10.112-14.314,14.159c-5.199,3.937-10.463,7.849-16.223,10.951c-9.287,5.792-20.281,7.591-30.72,10.282
			c-9.544,2.4-19.454,2.583-29.224,1.88c-9.119-1.289-18.254-2.76-27.016-5.672c-5.496-1.105-10.272-4.113-15.297-6.417
			c-4.326-2.094-8.199-4.968-12.351-7.375c-2.409-1.681-4.951-3.208-7.2-5.096c-7.096-8.063-13.15-16.977-18.873-26.04
			c-2.055-3.151-3.367-6.696-4.422-10.281c-3.328-9.918-6.697-20-7.369-30.519c-0.473-2.904-0.576-5.856-0.654-8.784
			c-0.097-4.841-1.184-9.713-0.217-14.52c1.76-9.903,2.217-20.319,7.041-29.359c3.744-6.272,7.264-12.768,12.15-18.256
			c7.8-8.512,15.904-16.808,25.119-23.808c5.408-4,10.881-8.128,17.24-10.512C130.529,45.698,137.098,42.985,143.922,41.089"/>
	</g>
</g>
<g id="oca">
</g>
</svg>
