<?xml version="1.0" encoding="utf-8"?>
<!-- Generator: Adobe Illustrator 15.0.2, SVG Export Plug-In . SVG Version: 6.00 Build 0)  -->
<!DOCTYPE svg PUBLIC "-//W3C//DTD SVG 1.1 Basic//EN" "http://www.w3.org/Graphics/SVG/1.1/DTD/svg11-basic.dtd">
<svg version="1.1" baseProfile="basic" id="Livello_1"
	 xmlns="http://www.w3.org/2000/svg" xmlns:xlink="http://www.w3.org/1999/xlink" x="0px" y="0px" width="886px" height="886px"
	 viewBox="0 0 886 886" xml:space="preserve">
<g>
	<path fill="#CD031B" d="M216.797,621.727c3.399-2.373,6.579-5.284,10.636-6.481c2.176-0.603,5.019-0.025,6.388,1.895
		c0.992,2.413,1.415,5.019,1.778,7.597c1.038,10.841,0.389,21.747,0.281,32.606c0.531,8.097-0.487,16.277,1.113,24.296
		c0.633,1.28,2.259,1.383,3.481,1.745c13.363,2.528,26.931,3.783,40.269,6.472c7.854,1.261,15.384,4.058,22.458,7.646
		c0.76,1.474,1.331,3.035,1.777,4.641c-1.158,2.554-2.527,5.089-4.64,6.989c-3.974,3.539-7.908,7.124-12.09,10.414
		c-2.547,1.53-5.222,2.836-7.91,4.103c-0.043,0.025-0.133,0.069-0.177,0.091c-7.053,3.615-14.387,6.66-21.346,10.464
		c-2.726,1.716-6.266,2.427-8.306,5.05c-0.083,2.041,1.491,3.758,1.933,5.734c1.895,6.958,3.316,14.037,4.902,21.067
		c1.133,6.435,3.277,12.711,3.611,19.272c0.435,3.327-1.241,6.398-2.375,9.425c-1.145,3.008-4.276,5.051-7.495,4.801
		c-3.429-0.371-6.873-1.21-9.901-2.897c-0.057-0.033-0.167-0.097-0.225-0.127c-3.646-1.747-5.708-5.248-8.389-8.066
		c-2.189-2.521-4.366-5.043-6.566-7.539c-5.965-7.207-12.078-14.398-19.579-20.063c-1.939-1.298-4.462-0.974-6.651-0.742
		c-2.764,1.459-5.159,3.52-7.909,5.012c-4.979,2.76-9.017,6.828-13.633,10.113c-4.984,4.043-10.491,7.391-15.513,11.373
		c-4.992,2.649-9.773,5.715-14.925,8.051c-2.88,1.293-6.086,1.375-9.069,0.396c-1.101-5.279-1.235-10.784-0.844-16.159
		c1.197-7.776,3.156-15.534,6.585-22.645c4.946-11.047,11.092-21.566,15.24-32.953c0.293-0.68,0.595-1.351,0.909-2.011
		c-7.681-1.271-15.302-2.88-22.88-4.646c-7.451-1.741-14.599-4.462-21.76-7.099c-2.829-1.215-5.8-2.299-8.2-4.281
		c-1.854-2.283-4.243-4.498-4.767-7.52c0.077-3.022,2.241-5.602,4.814-6.998c6.188-3.384,12.92-5.548,19.506-8.018
		c2.836-0.999,5.592-2.366,8.64-2.604c14.527-1.498,29.076-2.912,43.641-4.02c7.538-12.935,12.626-27.449,22.413-39.015
		c3.104-3.93,6.476-7.623,9.721-11.438C213.131,623.992,215.088,622.994,216.797,621.727z"/>
</g>
</svg>
