<?xml version="1.0" encoding="iso-8859-1"?>
<!-- Generator: Adobe Illustrator 15.0.2, SVG Export Plug-In . SVG Version: 6.00 Build 0)  -->
<!DOCTYPE svg PUBLIC "-//W3C//DTD SVG 1.1 Basic//EN" "http://www.w3.org/Graphics/SVG/1.1/DTD/svg11-basic.dtd">
<svg version="1.1" baseProfile="basic" id="Layer_1"
	 xmlns="http://www.w3.org/2000/svg" xmlns:xlink="http://www.w3.org/1999/xlink" x="0px" y="0px" width="768px" height="1024px"
	 viewBox="0 0 768 1024" xml:space="preserve">
<g id="lupo">
</g>
<g id="oca">
	<rect style="fill:#231F20;" width="768" height="1024"/>
	<g>
		<g id="_x23_ffffffff">
			<path style="fill:#FFFFFF;" d="M302.03,525.611c11.355-0.055,22.72-0.312,34.065-0.021v0.97c2.75-0.1,5.5-0.271,8.25-0.67
				c-1.146,0.021-6.71,1.58-2.855,1.812l0.945,0.021c4.354-0.646,8.62,0.521,12.935,0.96l-0.34,0.671
				c2.695,0.069,5.396,0.188,8.105,0.279l-0.02,0.699c1.62,0.051,3.26,0.16,4.89,0.25c0,1.381,0.01,2.75,0.021,4.146l0.865-0.196
				c0.095,23.811,0.46,47.62,0.29,71.431c0.134,17.739-0.43,35.479,0.19,53.21c0.938,6.58,0.46,13.229,0.67,19.859
				c0.03,9.221,0.3,18.438,0.189,27.67l0.801-0.51c0.33,12.521-0.32,25.1,0.988,37.565c0.132,20.37,0.182,40.74,0.367,61.109
				l0.74-0.771c0.09,9.939-0.47,19.96,0.69,29.859c0.17,10.25,0.369,20.5,0.355,30.761l0.82-0.45
				c-0.181,12.172,0.608,24.36-0.142,36.521c0.369-2.859,0.567-5.76,0.892-8.604c0.25,7.854,0.37,15.699,0.43,23.562l0.803-0.49
				c-0.039,8.435,0.229,16.854,0.229,25.279l0.78-0.119c-0.23,9.5,0.34,18.989,0.06,28.5c0.44-4.08,0.61-8.17,1.03-12.229
				c-0.13,8.447-0.12,16.909,0.27,25.368c1.2,7.069,0.65,14.303,0.94,21.462l0.82-0.358c-0.03,3.21,0.01,6.438,0.328,9.66
				c0.722,3.67,0.578,7.431,0.711,11.17l-1.199,0.011H144.42l-1.42-0.011c0.04-1.972,0.07-3.92,0.1-5.853l0.811,0.5
				c-0.49-15.949,2.72-31.699,2.319-47.632c0.091-104.527-0.02-209.051,0.181-313.577c0.37,0.09,1.109,0.277,1.479,0.368
				c0.13-1.938,0.26-3.893,0.431-5.818c1.189-3.08,1.93-6.312,2.02-9.603l0.64,0.21c0.03-1.828,0.08-3.618,0.12-5.407
				c0.19,0.146,0.561,0.47,0.74,0.63c0.4-3.17,1.12-6.279,1.49-9.432l0.79,0.158c-0.021-0.762-0.07-2.289-0.09-3.052H155
				c0.04-1.408,0.1-2.77,0.16-4.146l1.25,0.328c-0.101-0.5-0.29-1.5-0.391-2l1.3-0.25c-0.09-0.353-0.26-1.051-0.34-1.393
				c0.75-1.35,1.48-2.698,2.23-4.04c-0.11-0.368-0.32-1.1-0.43-1.47l0.93-0.09c0.79-2.07,1.66-4.104,2.54-6.11l1.12,0.03
				c-0.15-0.45-0.471-1.34-0.63-1.78c0.369-0.067,1.119-0.21,1.489-0.29L164,603.168c0.56-1.189,1.1-2.383,1.63-3.569
				c0.25-0.04,0.75-0.13,1-0.17c0.52-1.359,1.06-2.699,1.61-4.029l1.18,0.011c-0.16-0.438-0.46-1.316-0.62-1.761l1.44-0.181
				c0-0.279,0.01-0.841,0.01-1.13c1.896-2.354,3.6-4.859,5.24-7.41c1.96-2.801,3.985-5.562,5.93-8.38l0.76-0.12
				c0.021-0.312,0.07-0.909,0.09-1.221c1.12-1.359,2.2-2.739,3.28-4.109c4.66-6.021,10.04-11.46,15.771-16.449
				c1.804-1.159,3.579-2.351,5.369-3.54c0.91-0.561,1.83-1.119,2.74-1.659l0.79,0.132l-0.03-1.318c0.46,0.146,1.4,0.431,1.86,0.58
				l0.05-1.512c0.471,0.067,1.42,0.222,1.895,0.302l0.18-1.38c0.46,0.101,1.357,0.311,1.82,0.42l-0.021-1.33l1.28,0.38l-0.145-1.279
				c0.382,0.029,1.145,0.109,1.521,0.149c3.069-1.689,6.2-3.271,9.479-4.521l0.095-0.855c0.46,0.146,1.366,0.46,1.815,0.605
				l0.021-1.039c1.17-0.301,2.33-0.62,3.5-0.938c1.64-0.689,3.276-1.369,4.92-2.052c1.42-0.562,2.84-1.132,4.27-1.67
				c1.73-0.448,3.49-0.83,5.24-1.212c-1.229,0.014-2.46,0.04-3.68,0.079c1.81-0.355,3.6-0.75,5.396-1.188
				c1.15-0.189,2.312-0.354,3.475-0.5l-0.19-0.689c2.43-0.55,4.851-1.105,7.33-1.438l-0.479-0.58
				c2.764-0.052,5.521-0.17,8.289-0.239l-0.06-0.681c5.74,0.011,11.47-0.319,17.22-0.279l-0.35-0.779
				c5.72-0.028,11.438-0.33,17.16-0.271L302.03,525.611"/>
		</g>
		<g id="_x23_fdc401ff_1_">
			<path style="fill:#FDC401;" d="M375.31,533.651c1.24-0.021,2.5-0.04,3.765-0.055l-0.185,1.229l1.36-0.521l-0.11,1.422
				c0.48-0.107,1.42-0.317,1.9-0.432l0.13,1.432c0.479-0.132,1.45-0.392,1.93-0.527l0.012,1.511c0.473-0.07,1.398-0.221,1.869-0.29
				l0.199,1.271c0.461-0.095,1.396-0.28,1.854-0.37l0.09,1.431c0.47-0.101,1.42-0.301,1.89-0.4l0.131,1.4
				c0.479-0.131,1.435-0.41,1.91-0.551l0.109,1.45c0.447-0.062,1.355-0.17,1.814-0.229l0.17,1.34
				c0.476-0.141,1.41-0.431,1.886-0.565l0.188,1.565l1.729-0.471c0.05,0.37,0.17,1.102,0.22,1.471c0.33-0.09,0.99-0.26,1.32-0.351
				c1.734,1.101,3.646,1.931,5.68,2.391l-0.359,0.939l1.369-0.42l-0.209,1.198c0.789-0.013,2.379-0.021,3.17-0.028l0.039,1.33
				l1.853-0.552c0.021,0.397,0.053,1.182,0.062,1.58c0.479-0.143,1.438-0.423,1.92-0.562l0.121,1.461
				c0.469-0.102,1.42-0.32,1.89-0.421l0.11,1.45c0.469-0.12,1.43-0.37,1.896-0.49l0.133,1.37c0.46-0.08,1.38-0.239,1.84-0.319
				l0.2,1.489l1.67-0.59c0.091,0.37,0.271,1.105,0.355,1.479c0.45-0.12,1.344-0.351,1.779-0.46l0.142,0.935
				c2.312,0.84,4.579,1.828,6.898,2.695l0.11,0.854c0.47-0.12,1.396-0.37,1.869-0.489l0.025,1.529c0.5-0.104,1.48-0.29,1.975-0.395
				l0.156,1.46l1.75-0.695c0.053,0.396,0.171,1.18,0.229,1.565c0.45-0.09,1.357-0.29,1.811-0.38l0.189,1.394
				c0.47-0.134,1.41-0.394,1.88-0.521l0.04,1.109c1.88,0.79,4.51,0.775,5.5,2.88c1.479,0.188,2.971,0.391,4.471,0.568
				c-0.011,0.432-0.021,1.302-0.021,1.729c0.788,0,2.354-0.011,3.14-0.021l-0.01,1.422l1.72-0.604c0.08,0.37,0.24,1.12,0.33,1.489
				c0.438-0.119,1.341-0.359,1.78-0.479l0.229,1.37c0.45-0.09,1.342-0.26,1.791-0.351l0.17,1.488l1.854-0.592
				c-0.03,0.383-0.07,1.133-0.104,1.514l1.33-0.46l-0.181,0.938c1.37,0.394,2.75,0.859,4.13,1.3l-0.16,1.014
				c0.74,0.011,2.23,0.021,2.98,0.026l-0.021,1.15l1.28-0.394l-0.12,1.473l1.74-0.539c0.08,0.38,0.238,1.13,0.318,1.51
				c0.446-0.13,1.356-0.391,1.812-0.529l0.04,1.514c0.488-0.12,1.46-0.354,1.949-0.46l0.171,1.311c0.47-0.09,1.42-0.25,1.89-0.33
				l0.062,1.399c0.447-0.062,1.352-0.199,1.79-0.271l0.277,1.29c0.473-0.13,1.409-0.37,1.88-0.489l0.029,1.479
				c0.471-0.104,1.433-0.29,1.91-0.381l0.108,1.351c0.5-0.13,1.5-0.39,2-0.521l-0.08,1.539c0.488-0.104,1.479-0.289,1.979-0.383
				l0.104,1.344c0.479-0.119,1.438-0.354,1.921-0.461l0.091,1.381c0.46-0.052,1.396-0.149,1.87-0.199l0.01,1.14
				c0.78,0,2.351-0.01,3.13-0.01v1.29c0.45-0.109,1.36-0.319,1.82-0.431l0.146,1.391c0.479-0.12,1.421-0.359,1.899-0.479
				l0.106,1.432c0.474-0.07,1.41-0.2,1.884-0.261l0.078,1.368c0.479-0.118,1.432-0.353,1.896-0.473l0.222,1.479
				c0.461-0.145,1.358-0.399,1.818-0.539l-0.01,1.27c0.738,0.013,2.238,0.03,2.988,0.04c-0.021,0.32-0.062,0.973-0.079,1.29
				l1.301-0.646l-0.17,1.025c1.646,0.49,3.29,1.053,4.96,1.553l0.06,1.067c0.475-0.159,1.436-0.47,1.9-0.62l0.159,1.395
				c0.471-0.062,1.396-0.184,1.869-0.239l0.078,1.39c0.479-0.117,1.45-0.35,1.934-0.47l0.17,1.46c0.479-0.17,1.431-0.489,1.91-0.66
				l-0.08,1.04c1.22,0.41,2.449,0.854,3.68,1.32c0.312-0.021,0.939-0.051,1.262-0.07l-0.08,0.899
				c1.763,0.729,3.513,1.528,5.263,2.317l0.011,0.803c0.75,0.011,2.229,0.04,2.979,0.061l-0.312,1.312l1.392-0.579l-0.142,1.198
				c0.771,0.052,2.3,0.142,3.069,0.188c-0.021,0.42-0.062,1.271-0.069,1.688c1.358,0.067,2.729,0.147,4.108,0.237l-0.238,1.21
				l1.3-0.51l-0.22,1.21c0.8,0.03,2.408,0.091,3.22,0.12c-0.028,0.43-0.08,1.271-0.107,1.7c1.342,0.079,2.688,0.17,4.039,0.276
				l-0.25,1.211l1.342-0.527l-0.302,1.22c0.778,0.021,2.354,0.04,3.13,0.062l-0.106,1.188l1.271-0.409l-0.262,1.079
				c1.131,0.104,2.28,0.229,3.433,0.381c0.948,2.239,4.17,1.271,5.103,3.579c0.641,0.062,1.938,0.171,2.591,0.224l0.062,1.197
				c0.448-0.101,1.358-0.311,1.812-0.421l0.188,1.562l1.771-0.739c0.051,0.391,0.16,1.159,0.211,1.54
				c0.47-0.12,1.399-0.353,1.869-0.472l0.04,1.062c1.37,0.37,2.761,0.818,4.147,1.24l-0.197,1c0.771,0.01,2.311,0.039,3.078,0.061
				l0.08,1.149c0.461-0.132,1.382-0.37,1.842-0.5l0.08,1.521c0.47-0.092,1.39-0.262,1.855-0.352l0.262,1.278
				c0.461-0.108,1.393-0.33,1.857-0.438l0.03,1.471c0.479-0.091,1.438-0.277,1.92-0.368l0.148,1.312
				c0.479-0.12,1.447-0.341,1.938-0.45l0.03,1.5c0.47-0.107,1.396-0.33,1.869-0.438l-0.012,1.2c0.771,0.027,2.302,0.079,3.067,0.107
				l-0.239,1.25l1.271-0.528l0.021,0.818c1.239,0.392,2.449,0.892,3.619,1.5l1.21-0.271c0.04,0.229,0.12,0.683,0.15,0.897
				c1.22,0.45,2.46,0.96,3.68,1.45c1.42,0.71,2.87,1.368,4.32,2.06l-0.062,0.771c0.763,0,2.289-0.013,3.062-0.013
				c0.021,0.479,0.067,1.433,0.09,1.91c0.353,0.01,1.04,0.037,1.392,0.062c0.562,0.397,1.684,1.198,2.229,1.601
				c0.062,0.393,0.18,1.171,0.229,1.562l1.354-0.05c-0.16,0.447-0.479,1.357-0.645,1.812c0.399,0.09,1.212,0.261,1.609,0.351
				l-0.812,1.689c0.356,0.04,1.067,0.107,1.422,0.146c0.09,2.979,0.118,5.979,0.065,8.979l-1.25-0.24l0.562,1.301l-0.972-0.067
				c-0.358,1.647-0.133,3.842-2.17,4.438c-0.054,0.262-0.148,0.779-0.198,1.039c-0.95,0.711-1.79,1.552-2.5,2.521
				c-0.36-0.038-1.07-0.108-1.436-0.148l0.2,1.32l-1.34-0.49c0.01,0.38,0.04,1.142,0.05,1.521l-1.85-0.521l-0.185,1.58
				c-0.471-0.17-1.407-0.511-1.881-0.683l-0.02,0.979c-1.23,0.46-2.45,0.95-3.65,1.479l-1.22-0.393c0,0.354,0.01,1.053,0.01,1.4
				c-0.8-0.03-2.39-0.08-3.18-0.104l0.09,0.934c-7.569,0.027-15.148-0.062-22.7,0.34c-10.84,1.729-21.979-0.24-32.776,1.46
				c-11.229,0.432-22.479,0.271-33.724,0.37l0.381,0.897c-8.067-0.021-16.146,0.103-24.221,0.118l-0.01,0.771
				c-16.632-0.021-33.25,0.43-49.882,0.317c0,0.21,0.012,0.643,0.012,0.853c-8.091,0.289-16.25-0.29-24.28,0.777
				c-9.01,0.211-18.027,0.303-27.05,0.229l0.391,0.939c-2.421-0.04-4.841-0.069-7.25-0.132c0.104-0.479,0.302-1.448,0.399-1.938
				l-1.142,0.069c-0.103-7.7-0.318-15.395-0.2-23.08l-0.818,0.025C375.26,619.521,375.12,576.591,375.31,533.651z"/>
		</g>
		<g id="_x23_0491b7ff">
			<path style="fill:#0491B7;" d="M264.64,571.501c3.38-2.721,7.854-2.19,11.91-2.24c3.22-0.04,6.44,0.33,9.54,1.263
				c0.03,0.182,0.09,0.552,0.12,0.729c1.33,0.39,2.66,0.811,3.99,1.239c0.01,0.315,0.025,0.95,0.025,1.271l1.38-0.471
				c2.515,3.5,6.213,6.091,8.021,10.08c0.37,0.061,1.109,0.188,1.479,0.25l-0.146,1.74c0.37,0.04,1.1,0.119,1.46,0.155
				c-0.15,0.49-0.46,1.48-0.61,1.975l1.2-0.062c1.67,4.88,1.51,10.062,1.07,15.145l-0.75-0.062c-0.38,1.66-0.82,3.3-1.24,4.97
				l-0.62,0.08c-0.96,2.12-2.25,4.08-3.64,5.961c-1.15,1.229-2.271,2.5-3.36,3.789c-0.58,0.104-1.729,0.29-2.31,0.395
				c-0.015,0.489-0.03,1.479-0.04,1.971c-0.49-0.091-1.475-0.271-1.96-0.351l-0.17,1.34c-0.46-0.104-1.385-0.3-1.83-0.399
				l-0.185,0.935c-3.76,1.35-7.235,3.92-11.438,3.446c-5.104,0.479-9.9-1.391-14.4-3.539c-0.02-0.397-0.06-1.188-0.08-1.592
				c-0.35,0-1.065,0.015-1.43,0.015c-1.271-1.673-2.71-3.2-4.29-4.57c-0.12-0.569-0.37-1.71-0.5-2.279
				c-0.47-0.066-1.41-0.21-1.88-0.278c0.08-0.472,0.25-1.397,0.34-1.857l-0.979-0.17c-3.33-5.939-2.395-12.83-2.385-19.341
				c-0.05-2.562,0.5-5.053,1.28-7.461l1.104-0.068c-0.021-0.34-0.062-1.01-0.08-1.353c2.72-3.271,5.485-6.472,8.46-9.512
				c0.35,0.021,1.05,0.069,1.408,0.092l0.012-1.368C263.5,571.391,264.26,571.461,264.64,571.501z"/>
		</g>
	</g>
	<g>
		<path style="fill:#FFF69B;" d="M627.634,40.15c1.109-1.657,1.553-4.027,3.539-4.883c2.717,18.397,7.135,36.495,10.607,54.758
			c2.1,7.013,2.766,14.362,4.845,21.392c1.26,5.595,2.415,11.25,4.628,16.56c7.26-1.342,14.67-1.254,21.982-2.139
			c14.708-1.207,29.392-2.73,44.114-3.832c7.508-0.938,15.099-1.096,22.648-1.193c-23.25,20.092-46.951,39.691-70.154,59.842
			c0.474,4.718,2.744,9.142,3.997,13.71c1.695,8.889,3.929,17.617,5.716,26.489c1.058,7.478,3.066,14.805,3.83,22.328
			c0.437,3.741,1.449,7.401,1.728,11.168c0.314,5.294,1.866,10.432,1.973,15.741c-0.548-0.298-1.629-0.915-2.174-1.223
			c-22.111-18.72-44.153-37.53-66.346-56.16c-23.896,17.272-47.724,34.635-71.589,51.938c-2.932,2.079-5.752,4.32-8.805,6.225
			c3.068-8.706,5.881-17.513,9.083-26.168c5.595-13.333,10.522-26.917,15.817-40.365c1.389-5.526,3.156-10.95,4.628-16.448
			c1.784-4.641,2.851-9.51,3.479-14.429c-24.329-19.334-48.742-38.573-73.02-57.976c0.435-0.18,1.298-0.547,1.734-0.728
			c22.671,0.269,45.08,4.26,67.528,7.146c6.729,0.803,13.47,3.248,20.28,2.146c1.206-1.958,2.107-4.066,2.991-6.18
			c3.585-8.341,7.756-16.419,11.198-24.818c3.758-6.698,6.493-13.897,10.014-20.715C616.969,61.518,622.179,50.778,627.634,40.15z"
			/>
	</g>
</g>
<g id="pesce">
</g>
</svg>
