<?xml version="1.0" encoding="utf-8"?>
<!-- Generator: Adobe Illustrator 15.0.2, SVG Export Plug-In . SVG Version: 6.00 Build 0)  -->
<!DOCTYPE svg PUBLIC "-//W3C//DTD SVG 1.1 Basic//EN" "http://www.w3.org/Graphics/SVG/1.1/DTD/svg11-basic.dtd">
<svg version="1.1" baseProfile="basic" id="Livello_1"
	 xmlns="http://www.w3.org/2000/svg" xmlns:xlink="http://www.w3.org/1999/xlink" x="0px" y="0px" width="886px" height="886px"
	 viewBox="0 0 886 886" xml:space="preserve">
<g id="_x23_ce041aff">
	<path fill="#CE041A" d="M279.34,247.072c2.2,0.382,4.61,0.632,6.22,2.392c4.5,4.188,9.11,8.26,13.65,12.39
		c8.899,8.11,16.399,17.562,24.63,26.312c12.47,13.56,25.199,26.898,37.279,40.818c1.5,1.72,3.431,3.271,5.83,3.316
		c50,1.979,100.08,0.91,150.104,1.438c4.133,0.12,7.104-3.148,10.133-5.46c18.737-15.618,37.633-31.062,56.212-46.858
		c11.721-8.96,23.729-17.55,36.025-25.7c1.91,15.351,4.33,30.71,4.09,46.221c0.021,14.67,1.423,29.352,0.57,44.021
		c-0.721,8.34-0.5,16.72-1.351,25.05c-0.726,20.688-2.939,41.29-3.271,61.989c-0.931,21.079-2.438,42.142-4.79,63.108
		c-0.87,6.642-1.521,13.392-3.646,19.777c-2.279,6.973-4.146,14.147-7.726,20.619c-7.154,12.988-15.97,24.988-25.694,36.17
		c-7.229,9.05-15.766,16.938-23.46,25.54c2.024,4.87,6.75,7.771,9.93,11.812c7.04,8.63,14.891,16.67,20.604,26.3
		c10.66,17.107,22.37,33.607,31.562,51.602c8.688,15.803,16.039,32.318,22.579,49.108c7.91,27.812,13.851,56.142,19.641,84.45
		c1.92,8.71,2.55,17.63,3.62,26.47c2.979,25.592,4.819,51.312,5.33,77.07c0.04,26.641-1.062,53.275-0.75,79.92
		c0.858,27.34,1.229,54.696,0.569,82.051c-1.08,13.021-0.344,26.109-1.516,39.131c-0.734,24.644-2.39,49.238-3.5,73.858
		c-0.97,9.979-0.34,20.062-1.814,30.011H213.86c-0.279-21.688-0.859-43.381-1.25-65.062c-0.729-22.672-1.33-45.358-0.479-68.041
		c1-27.631,0.54-55.327,2.3-82.932c1.6-24.949,2.62-49.938,3.37-74.932c1.12-16.358,3.07-32.66,4.06-49.021
		c2.181-19.381,3.101-39.021,7.851-58c1.75-7.646,2.649-15.461,4.729-23.026c7.45-28.54,15.62-56.9,24.87-84.9
		c14.38-37.147,34.59-71.641,55.15-105.63c5.17-8.37,11.399-16.028,16.51-24.432c-10.5-9.521-20.391-19.842-28.72-31.329
		c-11.4-15.712-16.32-34.939-19.62-53.771c-3.22-19.851-5.891-39.81-7.34-59.868c-1.32-24.012-2.83-48.021-2.641-72.079
		c0-14.317-0.22-28.643,0.04-42.961c1.3-15.989,1.811-32.04,3.3-48.021C277.06,273.021,278.21,260.042,279.34,247.072"/>
</g>
<g id="_x23_fdc401ff">
	<path fill="#FDC401" d="M512.34,374.492c6.479-1.512,13.569-0.63,19.359,2.7c4.391,2.42,8.84,5.25,11.511,9.63
		c2.47,4.021,3.85,8.602,5.29,13.066c1.46,4.229,0.271,8.724-0.19,13.021c-0.43,4.479-3.26,8.12-5.814,11.63
		c-4.91,6.58-12.529,11-20.63,12.229c-7.67,0.489-16.16-1.188-21.4-7.261c-6.75-5.972-11.489-14.41-11.68-23.54
		c0.54-5.602,1.729-11.21,3.84-16.432C496.61,381.932,504.34,377.04,512.34,374.492z"/>
	<path fill="#FDC401" d="M365.43,375.562c9.014-2,18.17,1.424,25.399,6.69c3.46,3.71,5.82,8.318,8.101,12.828
		c3.63,7.182,2.84,15.58,1.34,23.222c-0.93,5.46-5.576,9.05-9.438,12.55c-8.55,5.79-19.5,8.62-29.64,5.91
		c-8.479-2.438-15.479-8.892-18.884-16.979c-1.156-4.224-2.038-8.521-2.71-12.84c-0.71-10.644,5.91-20.12,13.979-26.4
		C356.909,377.682,361.15,376.232,365.43,375.562z"/>
</g>
<rect fill="none" stroke="#000000" stroke-width="1.1169" stroke-miterlimit="10" width="886" height="1230"/>
</svg>
