<?xml version="1.0" encoding="utf-8"?>
<!-- Generator: Adobe Illustrator 15.0.2, SVG Export Plug-In . SVG Version: 6.00 Build 0)  -->
<!DOCTYPE svg PUBLIC "-//W3C//DTD SVG 1.1 Basic//EN" "http://www.w3.org/Graphics/SVG/1.1/DTD/svg11-basic.dtd">
<svg version="1.1" baseProfile="basic" id="Livello_1"
	 xmlns="http://www.w3.org/2000/svg" xmlns:xlink="http://www.w3.org/1999/xlink" x="0px" y="0px" width="886px" height="886px"
	 viewBox="0 0 886 886" xml:space="preserve">
<g id="_x23_00904bff">
	<path fill="#00904B" d="M385.814,374.487c4.037-1.183,8.007-3.129,12.308-2.908c5.938,0.059,11.875,0.043,17.804,0.306
		c9.546,0.715,18.506,4.336,27.158,8.186c3.282,1.649,6.401,3.596,9.46,5.619c5.551,3.324,9.988,8.143,14.359,12.844
		c7.047,7.215,13.513,14.985,19.848,22.83c7.055,8.491,13.311,17.655,21.338,25.296c4.292,3.902,7.794,8.765,12.895,11.696
		c20.119,12.996,41.069,24.642,61.489,37.162c11.619,6.911,23.433,13.49,35.206,20.131c9.427,5.176,17.919,11.854,25.713,19.225
		c3.943,3.714,8.254,7.038,11.984,10.974c-30.285,9.936-61.111,18.274-91.118,29.095c-15.725,5.829-31.338,12.034-47.199,17.459
		c22.788,5.548,45.942,9.373,68.9,14.093c9.903,1.607,19.628,4.114,29.504,5.857c2.287,0.798,5.193,0.306,7.038,2.082
		c-12.571,11.798-24.624,24.157-37.4,35.743c-10.667,10.013-20.885,20.493-31.024,31.033c-20.757,21.182-41.063,42.8-61.455,64.336
		c-2.644,3.245-5.941,5.916-8.415,9.316c-6.868,9.016-14.22,17.646-21.012,26.722c-17.35,21.753-34.791,43.573-49.096,67.49
		L391.346,886H0V699.658l25.763-66.422c2.117-7.259,4.021-14.586,6.299-21.777c7.267-14.324,13.931-28.953,21.521-43.113
		c9.605-16.429,22.355-30.754,35.998-43.92c4.751-4.809,10.804-7.988,16.414-11.654c12.75-7.684,26.019-14.473,39.542-20.712
		c11.917-5.508,24.157-10.253,36.184-15.513c22.092-8.723,44.115-17.716,65.348-28.417c9.784-4.964,19.788-9.656,28.721-16.091
		c3.876-2.27,8.111-3.868,12.07-6.002c20.445-9.817,40.29-20.807,60.284-31.501C360.782,388.002,372.929,380.53,385.814,374.487"/>
</g>
<g id="_x23_ffd400ff">
	<path fill="#FFD400" d="M408.416,408.946c2.856-0.681,5.729,0.305,8.602,0.416c3.809,1.3,7.293,3.409,10.753,5.448
		c3.995,3.094,9.112,4.931,12.036,9.257c4.697,5.245,7.062,12.045,8.522,18.812c1.012,3.246,1.862,6.638,1.207,10.063
		c-1.195,6.077-2.71,12.095-4.519,18.02c-0.656,2.235-2.517,3.731-4.072,5.347c-5.153,5.294-11.016,10.166-18.046,12.707
		c-7.774,2.107-15.895,2.882-23.944,2.573c-4.479-0.858-9.273-1.477-12.971-4.384c-4.445-3.137-9.359-6.097-12.155-10.924
		c-3.018-6.443-6.052-12.972-7.497-19.976c0.17-5.032-0.17-10.123,0.841-15.096c1.343-5.023,3.458-9.784,5.685-14.468
		c1.011-2.235,3.111-3.672,4.966-5.159c4.384-3.239,8.475-7.302,13.903-8.695c3.028-0.909,5.924-2.227,8.951-3.146
		C403.188,408.955,405.857,409.405,408.416,408.946z"/>
</g>
</svg>
