<?xml version="1.0" encoding="utf-8"?>
<!-- Generator: Adobe Illustrator 15.0.2, SVG Export Plug-In . SVG Version: 6.00 Build 0)  -->
<!DOCTYPE svg PUBLIC "-//W3C//DTD SVG 1.1 Basic//EN" "http://www.w3.org/Graphics/SVG/1.1/DTD/svg11-basic.dtd">
<svg version="1.1" baseProfile="basic" id="Livello_1"
	 xmlns="http://www.w3.org/2000/svg" xmlns:xlink="http://www.w3.org/1999/xlink" x="0px" y="0px" width="886px" height="886px"
	 viewBox="0 0 886 886" xml:space="preserve">
<g id="_x23_fff69bff">
	<path fill="#FFF69B" d="M615.702,160.579c0.14-2.873,0.453-5.724,0.957-8.547c0.053,0.988,0.157,2.977,0.212,3.963
		c0.759-0.135,2.284-0.407,3.041-0.54C618.534,157.176,617.133,158.883,615.702,160.579z"/>
	<path fill="#FFF69B" d="M519.188,187.981c0.491-0.776,0.966-1.573,1.41-2.379c-0.86,3.088-1.78,6.163-2.663,9.249
		c-0.812-2.369-1.648-4.727-2.358-7.126C516.759,187.849,517.972,188.124,519.188,187.981z"/>
	<path fill="#FFF69B" d="M356.816,215.518c1.933,0.282,3.155-1.046,4.056-2.548c0.692,3.322,1.175,6.679,1.676,10.043
		C360.569,220.559,358.616,218.086,356.816,215.518z"/>
	<path fill="#FFF69B" d="M292.942,220.435c2.436,6.42,4.283,13.036,6.178,19.633c-2.794-5.827-5.988-11.449-8.804-17.254
		C291.19,222.018,292.071,221.222,292.942,220.435z"/>
	<path fill="#FFF69B" d="M227.288,278.822c32.111,5.277,64.148,11.192,96.308,16.243c5.041,0.672,10.034,2.087,15.15,1.784
		c32.539-1.867,65.097-3.299,97.662-4.368c18.344-0.211,36.66-1.346,55.017-1.604c14.816-0.83,29.683-0.636,44.456-2.224
		c28.82-1.706,57.493-5.479,86.34-6.736c-0.709,0.683-1.412,1.371-2.112,2.074c3.146,6.285,7.506,11.845,10.67,18.118
		c11.521,16.582,17.17,36.195,24.777,54.663c4.983,13.551,8.812,27.527,11.675,41.695c4.897,19.837,8.841,39.945,11.417,60.231
		c0.854,14.111,1.607,28.211,1.811,42.336c1.849,15.145,0.368,30.4,0.729,45.595c-0.843,6.622-0.711,13.293-0.795,19.952
		c-0.883,12.364-0.901,24.812-2.9,37.086c-1.166,7.523-1.811,15.17-4.057,22.486c-2.154,11.046-4.034,22.172-7,33.049
		c-2.893,10.262-5.278,20.684-8.868,30.729c-3.194,9.001-5.498,18.279-8.672,27.28c-2.765,8.489-6.339,16.695-9.162,25.177
		c-2.482,6.377-4.907,12.889-8.812,18.571c-5.928,9.332-13.452,17.511-19.88,26.505c-11.112,13.757-23.014,26.872-35.283,39.607
		c-4.889,6.49-11.654,11.066-17.729,16.334c-4.699,3.829-9.323,7.769-13.911,11.751c-3.816,3.374-8.643,5.242-12.953,7.856
		c-7.296,4.413-15.179,7.733-23.079,10.903c-10.528,3.771-20.98,7.837-31.925,10.281c-13.468,2.341-27.174,0.947-40.722,0.27
		c-9.288-0.312-18.536-1.304-27.793-1.979c-11.075-0.528-21.85-3.344-32.678-5.458c-11.078-3.57-22.221-7.011-32.956-11.521
		c-6.13-2.245-11.436-6.107-17.093-9.259c-9.562-5.849-19.728-10.905-28.17-18.38c-3.07-2.627-5.382-5.984-8.263-8.784
		c-11.218-11.417-19.936-24.91-29.961-37.322c-4.462-5.603-8.953-11.182-13.369-16.81c-3.478-4.491-7.41-8.698-10.006-13.797
		c-7.38-13.341-16.278-25.791-23.224-39.37c-11.787-19.672-21.471-40.604-28.559-62.407c-7.959-22.638-11.475-46.466-14.27-70.203
		c-1.308-7.115-0.721-14.412-2.104-21.509c-0.379-5.411-0.683-10.84-1.129-16.243c-1.098-4.982-1.346-10.104-1.8-15.157
		c0.389-6.083-0.597-12.111-1.354-18.117c-1.564-15.171-2.511-30.393-4.197-45.524c0.578-12.706,1.346-25.419,2.852-38.052
		c1.071-9.816,4.074-19.3,5.193-29.088c1.659-5.434,2.596-11.039,4.18-16.491c1.459-10.035,6.623-18.926,9.673-28.472
		c0.938-2.457,2.303-4.708,3.25-7.151c3.014-8.007,7.258-15.473,10.5-23.385c3.676-6.803,6.879-13.865,11.019-20.4
		C211.265,298.436,221.395,290.088,227.288,278.822"/>
</g>
<g>
	<g id="_x23_cd031bff">
		<path fill="#CD031B" d="M127.125,0.18c1.042,0.058,2.095,0.113,3.146,0.181c15.491,40.059,34.537,78.617,52.483,117.619
			c13.274,27.848,26.256,55.838,39.332,83.771c1.572,3.763,3.478,7.378,5.012,11.171c2.265,5.459,5.173,10.633,7.287,16.156
			c0.237,0.73,0.977,0.54,1.563,0.484l-1.374-0.941c-1.278-4.558-2.264-9.181-3.572-13.729c-7.694-31.393-16.468-62.51-23.309-94.11
			c-7.419-33.807-15.559-67.521-20.865-101.738c7.068,13.818,13.721,27.839,20.97,41.562c10.262,20.675,20.486,41.358,30.956,61.929
			c9.494,19.468,19.292,38.788,29.287,58.008c7.324,13.597,14.062,27.495,21.689,40.919c0.142,0.335,0.436,1.005,0.588,1.35
			c2.813,5.806,6.007,11.427,8.803,17.255c-1.895-6.594-3.742-13.211-6.178-19.635c-5.382-16.155-9.635-32.65-14.819-48.873
			c-4.471-15.909-9.305-31.714-13.967-47.565c-6.349-22.743-14.071-45.143-18.601-68.347c-0.854-5.734-2.738-11.398-2.152-17.246
			c2.53,6.083,6.055,11.674,9.087,17.511c17.936,33.479,38.034,65.741,58.964,97.417c13.919,21.577,30.273,41.435,45.358,62.185
			c1.8,2.569,3.752,5.042,5.733,7.495c-0.501-3.364-0.984-6.717-1.676-10.044c-9.181-46.071-19.917-91.856-27.734-138.201
			c-1.762-11.644-2.654-23.385-3.705-35.105c-0.796-8.777-2.427-17.493-2.444-26.313c0.844,0.045,2.539,0.132,3.393,0.18
			c4.045,19.037,11.198,37.257,15.292,56.28c1.772,9.239,4.7,18.212,8.233,26.921c5.25,11.872,11.71,23.167,16.933,35.06
			c14.089,28.282,29.552,55.884,43.236,84.387c0.672-10.821,1.26-21.631,1.062-32.477c-0.686-41.383-0.398-82.769-1.167-124.138
			c-0.559-9.532-1.143-19.129-0.093-28.64c6.831,19.376,14.101,38.609,22.058,57.561c13.409,31.401,23.671,64.005,34.084,96.479
			c0.16-1.381,0.406-2.747,0.729-4.1c1.033-35.398-0.291-70.819-2.273-106.162c-0.613-11.371-0.625-22.759-0.492-34.139
			c0.143-3.268-0.171-6.699,1.247-9.741c5.998,19.31,10.981,38.924,16.96,58.235c9.521,32.982,19.734,65.741,29.382,98.674
			c0.711,2.399,1.55,4.759,2.358,7.128c0.885-3.089,1.802-6.161,2.665-9.251c13.539-49.754,28.273-99.223,45.852-147.719
			c1.486-4.84,2.813-9.769,5.326-14.213c-0.409,14.487,0.827,28.976,0.12,43.463c0.505,33.457,0.552,66.923,0.594,100.39
			c0.328-0.144,0.969-0.436,1.295-0.577c6.722-16.96,13.878-33.749,20.777-50.634c8.188-19.794,16.84-39.419,27.042-58.254
			c6.121-10.924,11.939-22.029,18.593-32.652c0.54-1.022,1.601-1.505,2.577-2.027c-0.233,0.455-0.706,1.364-0.944,1.83
			c-2.179,12.459-4.58,24.91-8.488,36.972c-1.951,5.625-3.034,11.495-3.877,17.389c-5.069,24-9.589,48.135-12.797,72.463
			c-0.506,2.826-0.819,5.679-0.958,8.547c1.428-1.695,2.83-3.402,4.217-5.126c8.293-10.196,16.716-20.278,25.243-30.277
			C657.844,111,670.549,96.852,683.626,83.05c22.865-23.49,46.154-46.57,69.521-69.549c1.963-0.816,4.149-0.502,6.229-0.57
			c-10.11,22.938-21.476,45.311-30.951,68.535c-0.799,1.177-1.459,2.447-1.885,3.809c-3.966,8.66-8.105,17.256-12.06,25.923
			c-6.364,15.285-12.693,30.598-18.691,46.032c-7.296,19.244-15.057,38.327-21.272,57.952
			c-5.002,13.692-10.743,27.126-14.896,41.113c-2.055,6.859-4.77,13.519-6.661,20.439c-0.302,1.415-1.122,2.825-2.757,2.818
			c-9.333,0.765-18.67,1.487-27.979,2.357c-28.844,1.258-57.516,5.03-86.341,6.733c-14.775,1.596-29.639,1.394-44.457,2.228
			c-18.357,0.256-36.67,1.394-55.016,1.603c-32.567,1.069-65.123,2.503-97.662,4.366c-5.116,0.303-10.109-1.109-15.152-1.783
			c-32.16-5.051-64.194-10.963-96.306-16.241c-9.078-1.547-18.098-3.439-27.157-5.072c-3.97-0.999-8.119-1.192-11.967-2.626
			c-10.355-38.841-20.637-77.699-30.254-116.726c-4.814-18.545-8.869-37.259-13.009-55.964c-3.714-15.189-6.794-30.537-9.542-45.937
			C131.663,35.22,129.096,17.729,127.125,0.18z"/>
		<path fill="#CD031B" d="M369.162,717.312c29.347-0.552,58.729-0.493,88.083-0.922c10.442-0.15,20.817,1.121,31.241,1.441
			c12.61,0.085,25.241-0.192,37.812,1.213c-2.674,4.399-6.771,7.608-10.062,11.509c-25.632,26.807-51.902,52.986-77.852,79.479
			c-1.714,1.817-3.435,3.729-5.845,4.616c-11.521-12.422-23.188-24.724-34.755-37.105c-13.731-14.438-26.163-30.044-39.467-44.872
			c-4.434-4.951-8.66-10.074-13.038-15.057C353.206,716.461,361.193,717.606,369.162,717.312z"/>
	</g>
	<path fill="#010101" d="M603.423,417.285c-0.588,5.391-4.719,9.457-9.203,12.024c-5.03,2.292-10.11,4.474-15.147,6.729
		c-5.989,1.952-12.82,0.956-18.066-2.541c-4.895-2.426-8.477-6.698-11.845-10.876c-3.941-6.51-4.345-14.479-4.327-21.896
		c3.864-6.285,7.758-12.708,13.302-17.671c3.08-3.25,7.654-4.198,11.854-5.116c6.149-0.628,12.129,1.552,17.491,4.378
		c3.244,2.028,5.901,4.823,9.017,7.026c1.762,1.404,3.856,2.427,5.372,4.123c1.555,3.221,2.786,6.632,3.796,10.053
		c-0.027,4.121-0.569,8.311-1.896,12.234L603.423,417.285z"/>
	<path fill="#010101" d="M265.435,379.556c7.344-1.233,15.9-0.797,21.823,4.312c3.857,3.354,9.21,5.705,10.964,10.869
		c2,5.252,5.135,10.553,4.084,16.4c-0.237,7.612-4.794,14.555-11,18.727c-5.801,5.03-13.276,7.986-20.743,9.438
		c-5.23-0.651-11.303,0.673-15.662-2.994c-4.027-3.393-7.561-7.744-8.956-12.899c-1.374-5.589-2.103-11.329-2.302-17.074
		c-0.2-3.431-0.495-7.137,1.308-10.226C249.593,388.461,257.021,382.566,265.435,379.556z"/>
</g>
</svg>
