<?xml version="1.0" encoding="utf-8"?>
<!-- Generator: Adobe Illustrator 15.0.2, SVG Export Plug-In . SVG Version: 6.00 Build 0)  -->
<!DOCTYPE svg PUBLIC "-//W3C//DTD SVG 1.1 Basic//EN" "http://www.w3.org/Graphics/SVG/1.1/DTD/svg11-basic.dtd">
<svg version="1.1" baseProfile="basic" id="Livello_1"
	 xmlns="http://www.w3.org/2000/svg" xmlns:xlink="http://www.w3.org/1999/xlink" x="0px" y="0px" width="886px" height="886px"
	 viewBox="0 0 886 886" xml:space="preserve">
<g>
	<path fill="#FFF69B" d="M650.634,40.15c1.109-1.657,1.553-4.027,3.539-4.883c2.717,18.397,7.135,36.495,10.607,54.758
		c2.1,7.013,2.766,14.362,4.845,21.392c1.26,5.595,2.415,11.25,4.628,16.56c7.26-1.342,14.67-1.254,21.982-2.139
		c14.708-1.207,29.392-2.73,44.115-3.832c7.507-0.938,15.098-1.096,22.648-1.193c-23.25,20.092-46.951,39.691-70.154,59.842
		c0.473,4.718,2.744,9.142,3.997,13.71c1.695,8.889,3.929,17.617,5.716,26.489c1.057,7.478,3.066,14.805,3.83,22.328
		c0.436,3.741,1.449,7.401,1.727,11.168c0.315,5.294,1.867,10.432,1.973,15.741c-0.548-0.298-1.629-0.915-2.174-1.223
		c-22.111-18.72-44.153-37.53-66.346-56.16c-23.895,17.272-47.723,34.635-71.588,51.938c-2.932,2.079-5.752,4.32-8.805,6.225
		c3.068-8.706,5.881-17.513,9.083-26.168c5.595-13.333,10.522-26.917,15.817-40.365c1.389-5.526,3.157-10.95,4.628-16.448
		c1.784-4.641,2.851-9.51,3.48-14.429c-24.329-19.334-48.742-38.573-73.02-57.976c0.435-0.18,1.298-0.547,1.734-0.728
		c22.671,0.269,45.081,4.26,67.529,7.146c6.728,0.803,13.47,3.248,20.28,2.146c1.206-1.958,2.107-4.066,2.991-6.18
		c3.585-8.341,7.756-16.419,11.199-24.818c3.757-6.698,6.493-13.897,10.013-20.715C639.969,61.518,645.179,50.778,650.634,40.15z"/>
</g>
</svg>
