<?xml version="1.0" encoding="utf-8"?>
<!-- Generator: Adobe Illustrator 15.0.2, SVG Export Plug-In . SVG Version: 6.00 Build 0)  -->
<!DOCTYPE svg PUBLIC "-//W3C//DTD SVG 1.1 Basic//EN" "http://www.w3.org/Graphics/SVG/1.1/DTD/svg11-basic.dtd">
<svg version="1.1" baseProfile="basic" id="Livello_1"
	 xmlns="http://www.w3.org/2000/svg" xmlns:xlink="http://www.w3.org/1999/xlink" x="0px" y="0px" width="886px" height="886px"
	 viewBox="0 0 886 886" xml:space="preserve">
<g id="_x23_bcdff3ff">
	<path fill="#BCDFF3" d="M411.8,160.573c12.66-1.899,25.49-2.149,38.24-2.892c11.74,0.568,23.37,2.3,35.07,3.34
		c16.67,2.96,32.855,8.062,49.13,12.66c10.96,3.93,21.815,8.142,32.7,12.271c17.355,7.567,34.315,16.04,51.025,24.947
		c8.514,5.643,16.935,11.513,24.514,18.37c9.326,8.03,19.156,15.513,27.979,24.12c6.64,7.028,13.021,14.3,19.47,21.5
		c2.514,2.898,5.271,5.63,7.17,9.01c-8.8,7.42-18.01,14.553-28.33,19.74c-15.229,8.21-30.47,16.431-46.05,23.971
		c-19.97,8.722-40.989,14.619-61.64,21.438c-10.771,2.421-21.643,4.369-32.434,6.688c-11.971,3.07-24.406,3.211-36.67,4.263
		c-10.646-0.188-21.316-0.722-31.921-1.882c-12.118-0.601-23.945-3.488-35.88-5.488c-13.028-2.67-26.229-4.479-39.09-7.932
		c-11.66-2.271-22.79-6.471-34.109-9.921c-9.396-2.931-18.381-6.938-27.711-10.021c-22.985-8.012-45.3-17.881-68.22-26.109
		c-5.22-0.721-10,2.37-14.91,3.689c-2.62,1.221-6.01,0.721-8.14,2.856c-27.1,9.48-53.57,20.683-80.72,30.03
		c-2.93,0.949-5.92,1.72-8.93,2.438c0.99-4.619,4.07-8.312,6.02-12.5c5.67-10.448,10.64-21.262,16.26-31.729
		c7.75-12.2,13.09-25.812,21.55-37.57c-0.9-4.84-3.02-9.369-4.18-14.158c-5.18-15.778-9.74-31.75-14.03-47.778
		c-1.76-6.449-4.33-12.689-5.35-19.319c15.01,6.05,29.28,13.79,43.9,20.689c6.56,4.021,13.37,7.688,20.59,10.396
		c9.18,4.62,18.28,9.473,26.79,15.261c3.21-1.857,5.97-4.42,9.32-6.027c9.01-4.17,18.061-8.271,26.89-12.802
		c14.94-7.897,30.57-14.352,46.01-21.188c16.188-5.66,32.59-10.761,49.02-15.689C393.78,162.502,402.86,161.792,411.8,160.573"/>
</g>
<g id="_x23_e0d61aff">
	<path fill="#CD031B" d="M558.65,237.573c8.05-1.592,16.92,0.931,22.35,7.211c3.39,3.407,3.49,8.527,3.62,13.027
		c0.27,6.12-4.22,11.103-8.521,14.893c-4.5,2.938-9.938,5.562-15.46,4.392c-4.905-0.922-9.688-3.212-13.27-6.712
		c-2.94-4.8-6.63-10.56-4.03-16.31C544.61,246.084,550.75,239.364,558.65,237.573z"/>
</g>
</svg>
