<?xml version="1.0" encoding="utf-8"?>
<!-- Generator: Adobe Illustrator 15.0.2, SVG Export Plug-In . SVG Version: 6.00 Build 0)  -->
<!DOCTYPE svg PUBLIC "-//W3C//DTD SVG 1.1 Basic//EN" "http://www.w3.org/Graphics/SVG/1.1/DTD/svg11-basic.dtd">
<svg version="1.1" baseProfile="basic" id="Livello_1"
	 xmlns="http://www.w3.org/2000/svg" xmlns:xlink="http://www.w3.org/1999/xlink" x="0px" y="0px" width="886px" height="886px"
	 viewBox="0 0 886 886" xml:space="preserve">
<g>
	<path fill="#CD031B" d="M466.971,77.9c2.462,6.011,3.346,12.523,5.119,18.76c5.62,21.543,10.16,43.342,14.557,65.156
		c0.76,5.088,2.462,9.987,2.951,15.119c2.812,14.07,6.378,27.991,9.284,42.045c0.427,2.08,1.032,4.127,1.936,6.062
		c2.292-3.016,3.747-6.542,5.64-9.8c10.265-22.106,20.66-44.154,31.326-66.064c6.336-13.365,13.173-26.497,19.223-39.997
		c4.877-9.598,9.26-19.434,13.744-29.22c1.518,2.011,1.778,4.6,2.479,6.956c3.257,13.094,5.133,26.459,7.871,39.659
		c4.742,24.529,9.29,49.104,14.22,73.605c1.193,5.643,1.68,11.488,3.715,16.921c4.689-8.787,8.521-18.009,13.117-26.849
		c10.395-21.438,21.108-42.712,31.728-64.045c7.31-14.857,13.986-30.068,22.333-44.399c0.439,0,1.325-0.008,1.77-0.008
		c0.804,2.476,0.991,5.08,1.202,7.653c1.381,7.834,1.77,15.788,2.895,23.653c1.074,12.517,3.078,24.935,4.067,37.459
		c1.096,4.472,0.75,9.109,1.62,13.604c2.034,20.516,5.126,40.912,7.443,61.396c-0.144,1.178,1.766,0.893,2.251,0.278
		c11.978-14.34,24.688-28.072,37.259-41.91c8.802-9.98,17.853-19.728,26.778-29.587c7.623-8.87,15.722-17.326,23.339-26.21
		c9.243-10.672,19.916-19.968,29.934-29.896c-0.413,2.664-1.275,5.207-2.086,7.767c-5.838,19.135-11.768,38.232-17.604,57.367
		c-2.151,5.905-3.716,12.051-5.784,18c-8.639,20.943-16.017,42.39-24.756,63.289c-1.089,3.743-2.628,7.324-4.074,10.932
		c-2.647,6.093-4.923,12.345-7.524,18.461c-3.295,7.584-5.263,15.667-8.382,23.329c-3.229,7.249-6.363,14.535-9.336,21.89
		c-1.034,2.213-1.756,4.622-3.174,6.633c-4.96,0.45-9.941-0.127-14.853-0.833c-4.777-0.239-9.561-0.338-14.315-0.893
		c-5.937-0.833-11.969-0.218-17.896-1.088c-4.337-0.688-8.741,0.429-13.049-0.502c-5.614-1.186-11.395-0.173-17.021-1.163
		c-2.146-0.285-4.312-0.233-6.469-0.083c-6.085,0.09-12.209,0.12-18.257-0.613c-7.512-0.293-15.038-0.158-22.551-0.33
		c-7.247-0.961-14.578-0.309-21.858-0.759c1.322-0.225,2.657-0.429,3.986-0.639c-5.06,0.203-10.146,0.294-15.188-0.128
		c-4.143-0.953-8.456-0.015-12.576-1.11c-5.94-1.237-12.088-0.089-18.104-0.742c-6.531,0.015-13.021-0.773-19.55-0.549
		c-4.271-0.188-8.528,0.385-12.793,0.241c-4.168,1.021-8.498,0.309-12.729,0.495c-9.553,0.458-19.119,0.743-28.681,0.758
		c-0.675-0.03-1.312,0.113-1.905,0.438c-5.575,0.127-11.12,0.884-16.718,0.796c-11.227,1.274-22.504,1.896-33.771,2.761
		c-3.512,0.136-7.046-0.009-10.534,0.48c-7.234,0.638-14.572-0.121-21.762,1.052c-1.629,0.075-2.655,1.447-3.736,2.476
		c0.826-0.827,1.352-1.876,1.688-2.979c-6.296-0.438-12.484,1.155-18.759,1.207c-1.938,0.833-4.082,0.893-6.152,1.014
		c-6.041,0.061-12,1.411-18.049,1.274c-6.295-0.219-12.508,1.081-18.796,1.021c-4.652,0.555-9.357,0.66-14.039,0.787
		c-6.396-12.657-12.375-25.52-19.002-38.059c-5.507-10.61-10.896-21.29-16.146-32.02c-9.731-22.219-18.901-44.671-28.83-66.799
		c-3.715-8.712-8.365-17.012-11.751-25.874c-2.926-7.879-5.813-15.772-9.021-23.54c-2.438-5.605-4.729-11.278-6.725-17.055
		c4.262,2.543,7.84,6.033,11.638,9.192c23.301,21.498,46.358,43.259,68.854,65.607c4.021,3.443,7.415,7.534,11.276,11.158
		c8.148,7.661,15.521,16.134,23.721,23.735c1.09-8.517,2.521-16.981,3.303-25.527c2.514-17.53,5.438-35,8.098-52.506
		c3.908-23.322,6.46-46.958,12.418-69.866c3.796,4.734,6.168,10.392,9.363,15.524c8.623,15.983,17.972,31.569,26.806,47.448
		c12.449,22.293,24.986,44.557,36.664,67.271c0.165-0.021,0.495-0.075,0.661-0.105c1.537-5.357,3.624-10.542,5.058-15.931
		c9.912-29.565,19.99-59.063,30.083-88.562C458.26,100.847,462.075,89.164,466.971,77.9z"/>
	<g id="_x23_f44900ff">
		<path fill="#F44900" d="M488.822,317.213c4.233-0.187,8.564,0.526,12.73-0.495c4.265,0.146,8.521-0.428,12.792-0.241
			c6.531-0.225,13.02,0.562,19.551,0.549c6.014,0.652,12.159-0.496,18.104,0.743c-15.68,0.601-31.339-1.365-47.027-0.422
			c-4.122,0.271-8.257-0.066-12.38,0.285c-4.017,0.465-8.098-0.082-12.043,0.908c-7.431,0.038-14.89,0.256-22.311-0.135
			c0.592-0.323,1.23-0.467,1.905-0.438C469.699,317.957,479.269,317.672,488.822,317.213z"/>
		<path fill="#F44900" d="M507.002,521.558C507.412,521.911,507.412,521.911,507.002,521.558z"/>
	</g>
	<g id="_x23_f0d68bff">
		<path fill="#FFF69B" d="M504.968,317.349c15.688-0.944,31.352,1.021,47.026,0.421c4.12,1.096,8.438,0.158,12.576,1.109
			c5.043,0.421,10.131,0.331,15.188,0.128c-1.329,0.21-2.664,0.414-3.986,0.639c7.279,0.45,14.611-0.203,21.859,0.759
			c7.513,0.172,15.039,0.037,22.55,0.33c6.048,0.734,12.171,0.704,18.258,0.613c5.064,7.609,9.822,15.42,14.511,23.27
			c4.075,9.807,7.669,19.817,11.267,29.813c5.426,14.827,10.558,29.76,15.365,44.789c2.949,9.463,6.363,18.819,8.276,28.567
			c3.73,14.431,7.721,28.793,11.443,43.223c1.045,3.654,0.484,7.521,1.561,11.175c3.021,23.154,7.271,46.144,9.576,69.373
			c2.31,19.266,4.637,38.509,6.856,57.779c-0.339,11.038,1.327,21.993,1.275,33.024c0.164,5.775,0.674,11.53,1.064,17.286
			c-0.432,8.531,1.125,16.989,1.104,25.516c-0.016,6.514,0.952,12.975,1.18,19.473c-0.271,6.798,0.347,13.574,0.886,20.342
			c0.593,4.938,0.098,9.912,0.346,14.874c-0.211,5.547,0.473,11.062,0.421,16.605c-0.021,3.504,0.795,6.964,0.646,10.479
			c-0.221,6.033,0.833,12.022,1.133,18.04c-0.145,3.992,0.345,7.972,0.771,11.938c0.712,5.493,0.1,11.045,0.851,16.546
			c0.897,7.474,0.531,15.008,0.841,22.521c0.44,10.013,0.097,20.052-0.825,30.018H262.033c1.115-5.44,0.237-11.031,1.133-16.486
			c0.871-7.706,0.435-15.487,1.47-23.181c0.788-5.298,0.083-10.67,0.773-15.978c0.326-5.464,0.95-10.928,0.74-16.401
			c-0.3-8.787,1.309-17.483,1.253-26.255c0.113-6.042,1.291-12.022,1.054-18.07c0.143-5.995,1.396-11.932,1.171-17.94
			c0.026-12.777,1.74-25.514,1.132-38.293c-0.007-8.015,1.125-15.98,1.187-23.997c-0.021-4.54,1.188-8.968,1.155-13.499
			c-0.037-3.304,0.833-6.515,1.005-9.783c0.138-4.549,1.486-8.938,1.373-13.5c1.148-5.217,0.863-10.604,1.988-15.825
			c0.053-5.628,1.367-11.12,1.539-16.741c0.788-3.594,0.969-7.241,1.118-10.896c1.096-5.253,0.789-10.654,1.929-15.899
			c0.127-5.508,1.358-10.926,1.411-16.435c0.157-3.019,1.087-5.941,1.062-8.969c-0.097-4.307,1.335-8.465,1.201-12.764
			c3.399-29.619,7.159-59.189,13.319-88.411c1.229-7.833,5.013-14.895,7.778-22.249c11.158-26.772,22.729-53.383,35.053-79.646
			c1.153-2.343,1.92-4.932,3.651-6.941c8.558-10.76,16.997-21.626,26.184-31.869c1.081-1.026,2.106-2.4,3.733-2.476
			c7.19-1.172,14.528-0.413,21.766-1.051c3.486-0.487,7.021-0.346,10.532-0.48c11.266-0.863,22.542-1.485,33.771-2.761
			c5.598,0.089,11.143-0.669,16.718-0.796c7.421,0.391,14.88,0.172,22.31,0.135c3.945-0.99,8.027-0.443,12.041-0.909
			C496.711,317.281,500.846,317.619,504.968,317.349"/>
	</g>
</g>
<path d="M594.882,405.022c3.835-1.581,7.557-3.705,11.713-4.322c3.737-0.083,7.579-0.367,11.249,0.548
	c4.329,1.552,7.938,4.523,11.593,7.241c4.458,3.265,8.586,7.617,10.085,13.062c0.346,0.232,1.036,0.697,1.381,0.933
	c-0.108,0.226-0.352,0.674-0.465,0.898c0.712,3.559,2.086,7.021,1.582,10.722c0.309-0.052,0.916-0.163,1.225-0.217
	c-0.428,0.188-1.292,0.557-1.719,0.742c0.503,3.909-0.63,7.647-1.146,11.467c-1.722,2.949-3.688,5.932-6.153,8.231
	c-2.058,2.934-5.29,4.727-8.029,6.949c-1.059,0.893-2.305,1.526-3.64,1.876c0.021,0.312,0.06,0.93,0.081,1.243
	c-8.358,0.787-16.729,0.258-25.031-0.713c-1.403-1.209-3.242-1.719-4.675-2.875c-3.872-2.947-7.062-6.708-9.928-10.615
	c-4.082-5.417-4.413-12.456-5.137-18.928c0.113-4.522,1.632-8.94,2.967-13.235C584.385,412.693,589.096,407.913,594.882,405.022z"/>
<path d="M380.069,403.935c2.731-0.493,5.401-1.319,8.164-1.618c3.001,0.147,5.98,0.569,8.982,0.778
	c7.218,2.025,13.161,7.15,17.476,13.14c2.831,2.956,3.668,7.105,5.553,10.634c2.191,3.842,1.313,8.389,1.473,12.613
	c0.127,4.938-1.584,9.665-3.909,13.94c-3.61,4.104-7.114,8.36-11.333,11.871c-2.821,2.177-6.371,2.821-9.658,3.97
	c-5.883,1.759-12.432,2.425-18.257,0.102c-3.278-0.413-6.302-1.803-9.146-3.424c-2.927-1.894-4.869-4.849-6.918-7.578
	c-0.312-3.395-2.8-6.104-3.812-9.308c-2.13-5.644-1.973-11.797-1.646-17.717c1.021-4.312,2.546-8.509,4.195-12.622
	c0.979-2.627,3.386-4.238,5.144-6.302c1.994-1.988,3.631-4.592,6.438-5.516C375.297,406.059,377.448,404.386,380.069,403.935z"/>
<path fill="#CD031B" d="M495.573,480.902c3.416-1.958,6.164-4.945,9.746-6.625c1.501,0.109,2.799,0.975,4.056,1.747
	c11.731,6.671,23.564,13.229,34.995,20.419c7.038,3.562,13.262,8.485,20.227,12.179c4.696,3.1,9.725,5.68,14.337,8.922
	c2.867,2.087,6.68,2.462,9.262,4.979c2.514,2.194,5.096,4.312,7.706,6.405c-2.087,1.938-4.847,2.854-7.151,4.476
	c-3.74,2.853-7.632,5.572-11.86,7.646c-0.188,0.366-0.548,1.109-0.736,1.479c-4.225,1.821-8.224,4.21-11.736,7.182
	c-2.812,3.137-6.812,4.771-10.43,6.761c-2.805,1.981-5.891,3.579-8.433,5.913c-3.206,1.298-5.675,3.771-8.644,5.484
	c-1.334,0.723-2.004,2.372-3.634,2.565c-2.995,0.571-4.519,3.47-7.115,4.715c-3.003,2.762-6.693,4.649-9.907,7.175
	c-2.684,0.886-4.425,3.479-7.225,4c-0.646-0.761-1.284-1.486-1.938-2.214c-2.235,0.071-3.828-1.562-5.292-3.012
	c-1.322-1.479-3.619-1.146-5.031-2.508c-3.948-3.173-8.562-5.298-12.637-8.292c-6.206-3.504-12.149-7.436-18.354-10.932
	c-4.814-3.678-10.69-5.569-15.523-9.231c-3.706-2.078-7.24-4.433-10.902-6.58c-7.196-3.347-13.853-7.76-20.951-11.332
	c12.215-7.576,24.396-15.224,36.325-23.246c5.742-4.338,11.879-8.07,17.814-12.125c4.968-3.844,10.395-7.021,15.511-10.653
	C490.575,484.453,492.936,482.471,495.573,480.902 M507.002,521.558C507.412,521.911,507.412,521.911,507.002,521.558z"/>
<path fill="#F44900" d="M490.531,430.087c4.758-5.906,9.188-12.178,14.761-17.355l0.81,0.098
	c16.458,18.556,30.881,38.802,47.203,57.464c5.927,7.316,12.125,14.423,17.938,21.837c8.927,11.593,18.618,22.571,27.321,34.346
	c0.979,1.244-0.375,2.626-1.005,3.687c-2.611,4.136-6.544,7.145-9.439,11.047c-5.937,6.296-11.354,13.042-17.032,19.562
	c-4.811,7.104-10.737,13.364-15.895,20.207c-5.53,7.196-11.605,13.98-17.005,21.28c-7.312,8.641-14.751,17.2-21.899,25.995
	c-0.988-0.021-1.975-0.031-2.956-0.031c-1.519-1.521-3.057-3.027-4.9-4.146c-0.834-1.703-2.894-2.034-3.854-3.617
	c-1.521-2.379-4.206-3.562-5.767-5.891c-14.417-14.004-28.599-28.271-43.321-41.972c-5.771-4.484-11.293-9.268-17.018-13.807
	c-2.282-1.667-3.993-3.933-6.132-5.757c-6.07-5.143-11.856-10.61-17.517-16.207c-1.973-1.896,0.542-3.798,1.593-5.359
	c17.808-25.137,36.049-49.952,54.396-74.691C477.139,447.698,484.147,439.121,490.531,430.087 M495.573,480.902
	c-2.641,1.566-4.998,3.551-7.524,5.291c-5.116,3.631-10.543,6.812-15.513,10.653c-5.936,4.056-12.07,7.788-17.812,12.126
	c-11.93,8.021-24.11,15.667-36.326,23.245c7.1,3.573,13.755,7.985,20.951,11.332c3.662,2.146,7.196,4.502,10.902,6.58
	c4.833,3.662,10.71,5.554,15.523,9.231c6.206,3.496,12.148,7.428,18.355,10.932c4.072,2.994,8.688,5.118,12.637,8.292
	c1.411,1.359,3.709,1.028,5.031,2.508c1.464,1.448,3.056,3.083,5.292,3.009c0.65,0.729,1.291,1.454,1.938,2.217
	c2.8-0.521,4.542-3.114,7.225-3.999c3.214-2.521,6.903-4.413,9.907-7.179c2.6-1.244,4.121-4.142,7.115-4.712
	c1.629-0.192,2.3-1.846,3.634-2.564c2.968-1.718,5.438-4.188,8.644-5.485c2.543-2.334,5.627-3.932,8.433-5.913
	c3.616-1.987,7.617-3.623,10.431-6.761c3.514-2.972,7.514-5.358,11.735-7.183c0.188-0.366,0.548-1.109,0.736-1.479
	c4.229-2.072,8.119-4.796,11.862-7.646c2.305-1.62,5.063-2.536,7.149-4.476c-2.611-2.093-5.19-4.21-7.706-6.408
	c-2.582-2.514-6.395-2.889-9.262-4.976c-4.613-3.242-9.645-5.822-14.337-8.921c-6.966-3.692-13.188-8.615-20.226-12.181
	c-11.432-7.188-23.266-13.748-34.999-20.419c-1.254-0.771-2.552-1.637-4.054-1.747C501.74,475.957,498.99,478.943,495.573,480.902z"
	/>
</svg>
