<?xml version="1.0" encoding="utf-8"?>
<!-- Generator: Adobe Illustrator 15.0.2, SVG Export Plug-In . SVG Version: 6.00 Build 0)  -->
<!DOCTYPE svg PUBLIC "-//W3C//DTD SVG 1.1//EN" "http://www.w3.org/Graphics/SVG/1.1/DTD/svg11.dtd">
<svg version="1.1" id="Layer_1" xmlns="http://www.w3.org/2000/svg" xmlns:xlink="http://www.w3.org/1999/xlink" x="0px" y="0px"
	 width="886px" height="886px" viewBox="0 0 886 886" enable-background="new 0 0 886 886" xml:space="preserve">
<g id="_x23_cd031bff">
	<path fill="#CD031B" d="M109.64,42.82c8.46-1.42,17.38-1.25,25.33,2.28c10.37,4.43,19.36,11.63,27.19,19.66
		c5.77,5.288,10.93,11.22,15.54,17.538c3.52,4.521,4.89,10.24,6.448,15.65c0.4,5.96,0.42,11.98,0.41,17.97
		c-0.318,3.49,0.45,7.25-1.25,10.48c-3.13,6.58-6.188,13.18-9.28,19.77c-2,4.37-5.75,7.521-8.988,10.932
		c-12.62,13.39-31.102,20.608-49.352,20.71c-11.25-3.69-23.38-6.8-31.988-15.49c-4.642-4.65-7.91-10.48-10.29-16.55
		c-5.98-14.062-9.86-29.65-7.16-44.95c0.96-7.56,4.35-14.47,6.91-21.57c1.5-3.45,2.14-7.38,4.648-10.31
		c6.05-7.852,13.062-14.95,20.71-21.26C101.62,44.9,105.42,43,109.64,42.82z"/>
	<path fill="#CD031B" d="M752.408,42.62c6.432-0.62,13.392-1.25,19.44,1.55c5.07,2.24,10.75,3.32,15.16,6.87
		c10.31,7.75,18.96,17.892,24.688,29.46c4.59,12.23,7.73,25.69,4.48,38.65c-2.25,7.229-6.05,13.82-9.48,20.54
		c-1.738,3.17-3.1,6.71-5.949,9.09c-4.671,3.91-8.479,9.05-14.181,11.56c-3.569,1.771-7.64,1.53-11.49,1.882
		c-7.68,0.188-15.47,0.8-23.04-0.762c-9.858-2.56-18.608-8.01-27-13.6c-9.47-6.41-16.828-15.39-23.318-24.69
		c-4.03-8.12-4.182-17.5-2.63-26.278c0.83-8.69,3.608-17.53,9.76-23.95c6.66-7.04,12.938-14.72,21.32-19.82
		C737.03,48.56,744.71,45.43,752.408,42.62z"/>
	<path fill="#CD031B" d="M458.908,206.76c1.73-1.75,4.42-1.062,6.62-1.36c4.2,4.76,7.102,10.46,9.76,16.17
		c0.682,1.38,0.932,2.92,0.852,4.45c-0.15,6.34,0.188,12.67,0.17,19.01c-0.13,9.99,1.28,19.979,0.5,29.97
		c-0.73,25.66-1.7,51.312-1.62,76.99c1.71,34.021,3.85,68.021,7.18,101.932c1.092,16.5,4.012,32.778,6.562,49.1
		c5.64,38.06,12.99,75.85,18.04,114.01c1.38,8.8,3.26,17.53,5.39,26.182c1.38,9.038,0.76,18.27-0.09,27.34
		c-1.03,7.568-2.34,15.22-5.26,22.33c-3.352,7.18-7.83,14.09-14.33,18.81c-7.16,5.22-14.68,9.92-22.13,14.72
		c-2.53,1.7-5.65,1.98-8.521,2.812c-9.29,2.16-18.21,7.26-28.04,6.028c-15.52-3.17-29.84-12.38-38.688-25.6
		c-1.22-1.74-2.63-3.56-2.72-5.78c-0.57-7-1.57-14.028-0.771-21.06c0.771-8.05,0.59-16.32,3.11-24.1
		c3.06-10.61,6.08-21.271,7.89-32.182c3.68-17.63,6.21-35.47,8.271-53.35c0.948-17.602,5.12-34.812,7.229-52.28
		c5.25-30.61,9.95-61.32,13.61-92.16c2.75-23.81,2.579-47.779,2.858-71.71c0.2-13.05-0.88-26.09-0.22-39.13
		c2.26-22.83,4.1-45.71,7.04-68.46c2.149-12.08,5.55-23.99,10.79-35.11C453.93,211.33,456.38,208.93,458.908,206.76z"/>
	<path fill="#CD031B" d="M180.26,764.99c40.94,5.61,82.22,9.271,122.66,18.08c6.16,1.61,12.66,1.41,18.688,3.53
		c25.222,7.97,51.69,13.26,78.25,11.32c6.23-0.53,12.66-0.472,18.58-2.802c19.8-5.68,39.76-12.33,60.59-12.38
		c18.76,0.472,36.65,6.79,54.96,10.23c11.53,2.14,23.221,4.068,34.99,3.51c12.04-0.45,24.06-1.26,36.08-1.89
		c16.3-2.842,31.99-8.271,48.08-12.03c22.42-5.22,45.85-2.04,67.75,4.04c-9.43,4.97-19.11,9.49-28.641,14.28
		c-22.511,10.738-46.649,17.438-70.109,25.648c-26.021,4.26-51.68,10.34-77.312,16.45c-7.568,1.5-15.108,3.41-22.8,4.17
		c-29.68,0.5-59.35,2.45-89.05,1.271c-16.05-0.28-32.068-1.172-48.1-1.812c-2.9-0.229-5.82-0.31-8.65-0.93
		c-11.04-2.78-22.13-5.36-33.14-8.25c-21.021-5.98-41.74-12.94-62.29-20.36c-20.58-7.58-41.43-14.53-61.38-23.67
		C204.68,786.73,190.39,777.83,180.26,764.99z"/>
</g>
</svg>
