<?xml version="1.0" encoding="utf-8"?>
<!-- Generator: Adobe Illustrator 15.0.2, SVG Export Plug-In . SVG Version: 6.00 Build 0)  -->
<!DOCTYPE svg PUBLIC "-//W3C//DTD SVG 1.1 Basic//EN" "http://www.w3.org/Graphics/SVG/1.1/DTD/svg11-basic.dtd">
<svg version="1.1" baseProfile="basic" xmlns="http://www.w3.org/2000/svg" xmlns:xlink="http://www.w3.org/1999/xlink" x="0px"
	 y="0px" width="530px" height="530px" viewBox="0 0 530 530" xml:space="preserve">
<g id="Layer_1">
	<path fill="#018847" d="M304.254,195.33c2.509-3.369,5.021-6.743,7.547-10.108c3.374,3.493,6.764,6.987,10.148,10.485
		c4.062-3.521,8.109-7.071,12.186-10.598c3.374,4.276,6.737,8.562,10.132,12.839c2.45-2.4,4.91-4.801,7.372-7.2
		c0.747,2.95,1.484,5.906,2.247,8.858c2.736-1.534,5.486-3.069,8.246-4.604c0.513,2.909,1.035,5.819,1.576,8.727
		c3.474-0.414,6.959-0.84,10.455-1.263c0.181,4.021,0.379,8.04,0.588,12.062c3.896-1.096,7.797-2.207,11.707-3.302
		c1.243,3.253,2.498,6.5,3.76,9.747c2.671-0.19,5.364-0.414,8.062-0.6c0,3.979,0.013,7.957,0.062,11.934
		c4.091-0.985,8.176-1.999,12.281-2.985c-0.896,3.735-1.8,7.474-2.686,11.213c4.117-1.005,8.233-2.036,12.365-3.048
		c-0.157,4.062-0.312,8.117-0.456,12.18c3.441-0.984,6.879-2,10.336-2.984c-0.945,2.653-1.889,5.302-2.811,7.955
		c3.286-0.57,6.573-1.146,9.881-1.704c-1.524,3.616-3.085,7.221-4.602,10.84c4.14-1.022,8.279-2.03,12.435-3.052
		c-0.52,3.259-1.036,6.521-1.531,9.781c2.623-0.896,5.249-1.81,7.896-2.696c-0.433,2.231-0.854,4.467-1.259,6.697
		c2.678-0.896,5.354-1.812,8.044-2.711c-1.116,3.229-2.246,6.459-3.348,9.688c3.086-1.146,6.175-2.312,9.278-3.455
		c-0.709,4.5-1.41,8.998-2.113,13.49c4.675-0.604,9.354-1.224,14.042-1.834c-0.286,4.711-0.574,9.418-0.854,14.127
		c3.908-1.281,7.825-2.565,11.759-3.842c-1.563,3.282-3.125,6.562-4.671,9.846c3.106-1.791,6.214-3.606,9.335-5.407
		c-2.834,4.114-5.688,8.212-8.509,12.331c5.282-1.668,10.566-3.354,15.861-5.021c-0.726,3.895-1.465,7.778-2.177,11.674
		c3.271-0.932,6.547-1.861,9.831-2.787c-1.158,3.935-2.295,7.867-3.49,11.787c5.086-0.502,10.178-1.007,15.271-1.511
		c-1.096,4.655-2.185,9.313-3.262,13.974c4.33-1.104,8.658-2.227,13.009-3.328c-1.43,5.56-2.85,11.121-4.261,16.68
		c5.335-1.725,10.674-3.469,16.016-5.189c-0.188,4.418-0.366,8.84-0.534,13.264c3.641-1.047,7.283-2.113,10.938-3.159
		c-0.911,4.378-1.846,8.752-2.739,13.13c3.591-1.746,7.182-3.509,10.782-5.26c-0.192,4.246-0.421,8.49-0.601,12.736
		c3.771-1.014,7.546-2.049,11.331-3.058c-1.563,3.599-3.162,7.177-4.725,10.769c4.229-1.084,8.448-2.203,12.688-3.291
		c-1.337,3.685-2.688,7.362-4.008,11.052c4.567-0.632,9.146-1.272,13.729-1.907c-0.495,4.801-1.009,9.598-1.483,14.396
		c3.8-1.271,7.604-2.554,11.418-3.822c-1.521,3.719-3.058,7.437-4.562,11.154c4.726-0.408,9.455-0.852,14.192-1.273
		c-1.115,3.75-2.212,7.5-3.312,11.25c4.197-0.756,8.402-1.529,12.617-2.275c-0.773,2.998-1.539,5.999-2.292,8.99
		c3.435-0.534,6.872-1.076,10.327-1.61c-0.618,2.828-1.212,5.666-1.8,8.5c2.554-0.332,5.111-0.653,7.69-0.985
		c-1.146,4.229-2.305,8.456-3.449,12.686c4.188-1.134,8.377-2.295,12.576-3.429c-1.757,3.905-3.512,7.812-5.25,11.722
		c3.829-1.514,7.659-3.049,11.51-4.553c-1.723,2.479-3.449,4.938-5.155,7.408c2.934-1.088,5.857-2.211,8.813-3.294
		c-1.375,3.808-2.759,7.604-4.119,11.416c3.531-1.353,7.079-2.687,10.632-4.029c-1.419,3.438-2.862,6.86-4.27,10.302
		c3.775-0.984,7.556-2.003,11.35-2.984c-1.729,3.843-3.476,7.675-5.169,11.525c4.893,0.087,9.786,0.074,14.691,0.229
		c-0.713,4.303-1.407,8.605-2.098,12.907c4.021-0.484,8.049-0.954,12.087-1.438c0.128,4.742,0.252,9.479,0.396,14.219
		c3.181-0.786,6.358-1.594,9.558-2.386c-2.109,3.211-4.241,6.406-6.325,9.628c4.729-0.336,9.464-0.661,14.205-1.013
		c-1.688,3.479-3.374,6.961-5.059,10.441c3.396-0.983,6.798-1.989,10.218-2.959c-1.361,2.66-2.747,5.304-4.099,7.961
		c2.89-0.953,5.778-1.938,8.688-2.896c-0.995,2.786-1.979,5.577-2.939,8.373c1.188-1.019,2.409-2.001,3.587-3.071V710H538.6
		c0.746-3.069,1.336-6.184,2.035-9.271c-2.729,0.48-5.439,0.973-8.146,1.45c0.192-4.28,0.406-8.562,0.618-12.845
		c-3.545,0.604-7.075,1.222-10.604,1.826c0.854-3.553,1.729-7.094,2.597-10.646c-3.023,1.078-6.042,2.149-9.044,3.229
		c0.561-4.897,1.146-9.795,1.724-14.692c-5.021,0-10.031-0.153-15.041-0.188c1.347-6.289,2.698-12.572,4.047-18.86
		c-5.062,1.979-10.104,3.971-15.152,5.942c1.729-5.586,3.484-11.168,5.229-16.75c-5.186,2.099-10.354,4.221-15.524,6.315
		c2.128-5.013,4.259-10.019,6.395-15.022c-5.312,1.472-10.612,2.959-15.917,4.438c0.342-4.985,0.69-9.979,1.05-14.974
		c-4.898-0.004-9.793,0.007-14.679,0c0.217-5.01,0.466-10.017,0.691-15.021c-3.4,1.979-6.78,3.981-10.163,5.972
		c0.623-6.222,1.271-12.435,1.909-18.649c-5.168,0.911-10.322,1.85-15.479,2.758c0.785-4.822,1.59-9.646,2.375-14.467
		c-4.741,0.493-9.473,1.021-14.205,1.508c0.575-4.938,1.152-9.875,1.729-14.814c-3.12,1.742-6.205,3.521-9.312,5.255
		c0.292-6.479,0.604-12.954,0.912-19.434c-4.863,1.272-9.717,2.568-14.565,3.854c1.151-5.371,2.315-10.732,3.479-16.099
		c-4.626,0.752-9.241,1.508-13.854,2.265c1.536-3.789,3.098-7.569,4.651-11.355c-3.882,0.614-7.752,1.237-11.617,1.855
		c1.103-4.965,2.232-9.911,3.354-14.868c-4.321,1.188-8.624,2.414-12.928,3.617c1.846-5.314,3.713-10.624,5.572-15.938
		c-5.384,1.213-10.76,2.439-16.134,3.65c2.605-5.265,5.229-10.523,7.841-15.793c-5.889,0.916-11.771,1.847-17.659,2.761
		c2.375-4.641,4.756-9.276,7.144-13.922c-4.341,2.021-8.659,4.062-12.982,6.086c0.854-4.229,1.722-8.455,2.603-12.681
		c-3.613,0.579-7.218,1.168-10.81,1.756c2.229-6.293,4.49-12.571,6.73-18.86c-6.037,1.393-12.063,2.792-18.093,4.176
		c0.979-5.864,1.982-11.733,2.979-17.601c-4.688,0.931-9.361,1.882-14.037,2.812c1.955-5.465,3.935-10.921,5.896-16.393
		c-4.968,1.134-9.925,2.281-14.878,3.42c1.431-5.641,2.885-11.271,4.334-16.906c-4.177,1.468-8.34,2.942-12.493,4.412
		c1.446-5.037,2.896-10.07,4.353-15.111c-4.336,0.802-8.654,1.631-12.978,2.424c1.593-4.104,3.181-8.213,4.774-12.321
		c-3.562-0.005-7.114,0-10.66-0.005c1.097-2.972,2.206-5.938,3.328-8.906c-3.721-0.104-7.43-0.223-11.133-0.306
		c0.562-3.354,1.119-6.709,1.693-10.063c-2.884,0-5.759,0-8.619,0c1.312-2.687,2.637-5.365,3.959-8.052
		c-3.771-1.646-7.541-3.274-11.296-4.938c2.401-5.601,4.784-11.207,7.179-16.812c-5.737-1.069-11.472-2.136-17.188-3.213
		c1.318-5.435,2.644-10.87,3.982-16.305c-3.799-0.377-7.584-0.747-11.36-1.134c3.173-1.613,6.365-3.196,9.556-4.812
		c-4.864-1.004-9.722-2.013-14.572-3.022c3.686-3.084,7.373-6.164,11.062-9.254c-5.142-0.838-10.273-1.646-15.404-2.479
		c4.635-2.41,9.241-4.874,13.893-7.252c-6.245-2.223-12.473-4.479-18.696-6.734c5.226-1.393,10.458-2.771,15.692-4.154
		c-5.897-3.024-11.803-6.045-17.697-9.065c4.447-2.419,8.899-4.83,13.357-7.239c-3.887-3.843-7.792-7.656-11.673-11.504
		c4.94-1.005,9.886-2,14.833-3.003c-3.729-4.126-7.479-8.229-11.195-12.354c5.329-0.698,10.66-1.41,16.005-2.109
		c-2.997-4.22-5.991-8.441-8.969-12.675c4.609,0.813,9.225,1.646,13.839,2.456c-1.594-4.824-3.192-9.648-4.775-14.475
		c5.795,3.532,11.572,7.095,17.376,10.622c-1.897-7.467-3.805-14.921-5.701-22.387c7.828,0.505,15.654,1.022,23.492,1.514
		c1.021-6.522,2.029-13.054,3.062-19.576C295.2,192.477,299.722,193.91,304.254,195.33"/>
	<path d="M339.88,229.737c1.061-1.48,2.847-1.756,4.41-2.49c0.849,0.274,1.731,0.56,2.611,0.854
		c2.002-0.075,3.964,0.434,5.837,1.137c1.273,1.481,2.984,2.681,3.722,4.562c0.919,2.164,1.299,4.542,1.304,6.883
		c-0.425,1.782-1.233,3.472-1.379,5.32c-1.834,1.385-3.857,2.483-5.833,3.616c-1.896,0.539-3.909,0.332-5.842,0.271
		c-2.422,0.018-4.222-1.771-6.256-2.773c-1.479-0.647-2.24-2.211-2.569-3.693c-0.297-1.556-0.081-3.19-0.687-4.675
		c0.431-1.658,0.687-3.362,0.825-5.071C337.354,232.383,338.138,230.582,339.88,229.737z"/>
	<path d="M273.867,292.688c2.225-0.049,4.207-1.088,6.287-1.737c2.224,0.163,4.099,1.538,6.01,2.571
		c1.398,0.709,2.012,2.256,2.811,3.525c1.188,1.939,0.723,4.323,0.674,6.479c-0.084,2.373-0.959,4.726-2.623,6.438
		c-1.11,1.065-1.856,2.646-3.405,3.108c-1.84,0.615-3.949,1.386-5.778,0.406c-2.146-1.109-4.713-1.637-6.308-3.563
		c-1.468-1.528-2.677-3.37-3.052-5.481c-0.653-2.367,0.433-4.701,1.271-6.867C270.854,295.74,272.555,294.364,273.867,292.688z"/>
</g>
<g id="bounds">
	<rect fill="none" stroke="#000000" stroke-miterlimit="10" width="600" height="600"/>
</g>
</svg>
