<?xml version="1.0" encoding="utf-8"?>
<!-- Generator: Adobe Illustrator 15.0.2, SVG Export Plug-In . SVG Version: 6.00 Build 0)  -->
<!DOCTYPE svg PUBLIC "-//W3C//DTD SVG 1.1 Basic//EN" "http://www.w3.org/Graphics/SVG/1.1/DTD/svg11-basic.dtd">
<svg version="1.1" baseProfile="basic" xmlns="http://www.w3.org/2000/svg" xmlns:xlink="http://www.w3.org/1999/xlink" x="0px"
	 y="0px" width="530px" height="530px" viewBox="0 0 530 530" xml:space="preserve">
<g id="Layer_1">
	<polygon fill="#008847" points="316.5,525.5 298.5,545.5 311.833,538.166 324.5,531.833 	"/>
	<polygon fill="#008847" points="333.833,535.5 323.166,556.833 329.5,554.166 344.333,545.5 	"/>
	<polygon fill="#008847" points="349.231,552.234 337.166,570.166 333.833,576.166 341.638,571.674 354.833,565.166 	"/>
	<polygon fill="#008847" points="366.009,572.366 351.5,588.166 344.333,596.833 352.75,593.5 374.396,582.433 	"/>
	<polygon fill="#008847" points="531.684,252.341 543.518,238.811 555.352,222.981 552.5,233.833 539.652,259.159 	"/>
	<polygon fill="#008847" points="547.202,261.988 560.167,243.5 566.055,239.789 560.624,248.985 553.493,268.5 	"/>
	<polygon fill="#008847" points="560.624,268.5 576.834,250.833 589.5,241.833 581.595,254.145 571.025,276.484 	"/>
	<g>
		<path fill="#008847" d="M530.003,233.769c-1.438,2.938-2.762,5.93-3.897,8.989c1.278,0.607,2.562,1.211,3.897,1.857L571.5,270.5
			l28.5,21V600H383.629L357.5,571.5l-20-24L319.162,530c-5.512-4.681-10.41-9.979-15.07-15.47c-7.8,5.08-15.42,10.434-23.33,15.329
			l1.2,0.141h-1.83c4.312-8.536,12.148-14.59,19.04-21.01c-2.062-2.316-4.119-4.642-6.16-6.95c-5.25,2.924-10.13,6.5-15.58,9.021
			c3.36-4.88,8.021-8.648,12.342-12.659c-3.75-4.142-7.5-8.271-11.159-12.479c-9.683,3.511-18.827,8.521-28.789,11.181
			c7.318-6.318,15.972-10.881,24.302-15.711c-2.66-3.271-5.062-6.737-7.318-10.277c-10.262,3.01-20.161,7.357-30.701,9.277
			c2.739-3.144,6.609-4.932,10.319-6.67c5.812-2.312,11.53-4.857,17.17-7.59c-2.021-3.094-4.069-6.147-6.08-9.229
			c-7.398,3.55-14.34,8.028-21.938,11.14c4.896-6.696,12.229-10.96,18.84-15.76c-1.643-2.393-3.23-4.8-4.79-7.222
			c-7.472,3.021-14.34,7.438-22.062,9.779c4.893-6.37,11.659-10.898,18.159-15.479c-1.938-2.762-3.83-5.552-5.699-8.343
			c-7.479,3.312-15.317,5.672-22.729,9.133c4.817-6.53,12.47-9.972,18.729-14.9c-2.96-4.156-6.147-8.221-8.101-12.96
			c-8.47,1.896-16.78,4.44-25.28,6.11c1.65-1.74,3.721-3,5.94-3.933c5.771-2.562,11.51-5.198,17.41-7.462
			c-0.262-0.605-0.78-1.816-1.04-2.432c-6.933,2.09-13.683,4.818-20.763,6.318c5.393-5.104,12.529-7.854,18.75-11.84
			c-0.761-1.264-1.351-2.562-2.147-3.74c-9.82,1-19.41,3.83-29.29,4.398c2.068-2.672,5.54-3.393,8.54-4.579
			c6.26-1.858,12.729-3.093,18.87-5.409c-1.41-3.354-2.75-6.711-4.053-10.08c-7.479,2.381-14.641,5.76-22.289,7.521
			c5.66-5.71,13.25-8.84,20.25-12.561c-0.898-2.279-1.761-4.58-2.568-6.892c-0.812-1.789-1.05-4.45-3.54-4.521
			c0.51-1.08,1.24-2.229,0.59-3.45c-1.1-3.562-2.359-7.062-3.3-10.658c-8.5,2.812-16.939,5.843-25.643,7.933
			c6.961-6.42,16.229-9.318,24.399-13.854c-1.38-7.271-2.34-14.618-2.521-22.012c-10.261,1.73-20.432,4.262-30.829,4.934
			c4.107-2.79,8.947-4.146,13.47-6.132c5.729-2.438,11.63-4.431,17.431-6.698c-0.011-2.816,0.04-5.632,0.149-8.447
			c-10.21-3.83-21.312-6.459-30.03-13.289c10.511,1.75,20.75,4.854,31.19,7.049c0.85-3.649,1.647-7.319,2.39-10.989
			c-7.34-1.41-14.649-2.97-22.061-3.91c-4.939-0.521-9.75-1.931-14.301-3.868c5.841-1.447,11.869-0.117,17.801,0.053
			c6.779,0.26,13.54,1.129,20.318,1.315c1.472-3.431,2.353-7.065,3.521-10.618c-6.812-2.027-13.671-3.867-20.41-6.08
			c-3.979-1.352-8.312-2.182-11.602-4.948c11.489,1.026,22.852,3.188,34.329,4.5c1.143-3.45,2.342-6.88,3.649-10.28
			c-4.51-4.53-8.358-9.87-13.96-13.12c0-0.397,0.011-1.188,0.011-1.59c-6.188-6.72-11.979-13.78-17.979-20.67
			c0.341-0.3,0.711-0.61,1.101-0.92c11.552,8.79,23.222,17.438,34.46,26.62c1.15-2.604,2.32-5.19,3.53-7.771
			c-8.771-4.29-17.399-9.06-24.729-15.58c2.881,0.34,5.739,0.98,8.472,2.052c6.391,2.461,12.961,4.438,19.381,6.868
			c0.608-0.938,1.25-1.89,1.93-2.84c-4.061-5.68-8.271-11.25-12.311-16.938c-3.689-5.104-7.909-9.98-10-16.014
			c9.551,7.78,17.319,17.474,26.381,25.804c2.119-3.45,4.26-6.9,6.438-10.33c-2.062-2.79-4.041-5.66-5.472-8.83
			c2.601,1.75,4.812,4,6.92,6.33c2.421-3.052,5.142-5.83,8.04-8.434c-5.938-7.84-12.59-15.56-15.859-24.96
			c7.37,6.41,13.381,14.23,20.37,21.052c2.778-2.432,5.528-4.898,8.329-7.328c-5.091-5.094-10.2-10.172-15.688-14.83
			c-3.41-2.92-6.4-6.38-8.57-10.312c3.602,1.48,6.7,3.894,9.771,6.25c6.771,5.29,13.818,10.24,20.398,15.79
			c3.409-1.92,6.819-3.87,10.221-5.85c-7.392-9.089-15.892-17.471-21.771-27.649c3.471,1.98,6.26,4.88,9.279,7.472
			c6.301,5.512,12.486,11.142,18.841,16.602c4.237-2.44,8.5-4.88,12.75-7.34c-3.83-6.812-7.771-13.61-10.604-20.9
			c6.104,5.34,10.521,12.32,16.014,18.271c2.641-1.104,5.329-2.144,8.061-3.08c-6.308-10.108-12.486-20.518-15.468-32.148
			c3.8,2.934,6.317,7.08,9.21,10.854c4.891,6.26,9.62,12.646,14.479,18.938c3.42-0.84,6.856-1.64,10.34-2.35
			c2.592-9.4,4.521-19.12,8.512-28.04c0.449,9.17-0.92,18.32-1.42,27.47c7.5-0.37,14.921,0.974,22.261,2.474
			c3.642-8.08,5.369-17.15,10.789-24.33c-0.99,8.71-3.33,17.188-5,25.77c4.18,1.16,8.358,2.38,12.562,3.57
			c0.433-0.63,1.29-1.88,1.723-2.51c0.066,0.787,0.197,2.366,0.27,3.156c3.75,1.144,7.5,2.36,11.25,3.594
			c2.951-7.75,5.361-16.08,10.771-22.554c-1.271,8.264-3.843,16.25-5.609,24.41c3.479,1.28,6.979,2.57,10.479,3.86
			c2.683-10.25,2.159-21.37,7.021-30.99c0.898,4.54,0.262,9.17,0,13.73c-0.567,6.479-0.777,12.979-1.41,19.446
			c3.803,1.71,7.529,3.58,11.263,5.48c1.553-5.51,3.104-11.021,4.92-16.46c1.489-4.32,2.41-9,5.33-12.66
			c-0.857,9.94-2.857,19.75-4.021,29.66c-0.5,1.52,0.22,2.79,1.229,3.89c3.539-6.39,5.392-13.68,9.829-19.566
			c-0.21,7.479-1.688,14.85-3.771,22.02c2.199,1.2,4.42,2.38,6.67,3.56c3.129-5.59,5.938-11.396,9.84-16.52
			c-0.697,6.64-1.84,13.22-3.641,19.66c2.188,1.09,4.396,2.188,6.631,3.29c4.312-8.98,9.119-17.94,16.08-25.17
			c-1.83,9.986-7.021,19.01-9.121,28.91c1.51,1.188,2.541-0.644,3.381-1.62c5.601-7.32,10.271-15.41,16.567-22.183
			c-2.842,9.59-8.171,18.21-12.671,27.08c3.62,1.812,7.238,3.63,10.852,5.5c2.631-3.24,5.291-6.46,8.03-9.63
			c4.8-5.32,8.71-11.54,14.479-15.896c-3.211,10.76-11.938,18.52-16.961,28.366c3.24,1.62,6.49,3.264,9.74,4.934
			c4.93-7.521,8.648-15.812,14.028-23.04c-1,9.25-5.3,17.72-9.118,26.066c3.118,2.394,6.27,4.771,9.381,7.2
			c1.469-2.356,3.027-4.7,4.938-6.76c-0.7,2.92-1.688,5.75-2.712,8.56c3.185,2.521,6.382,5.03,9.632,7.49
			c3.17-5.17,6.237-10.396,9.432-15.56L537,211.53l-3.688,12.402L530.003,233.769z"/>
	</g>
	<path d="M365.39,201.55c4.303-0.656,9.094-0.31,12.619,2.54c3.104,2.554,7.271,4.54,8.479,8.71
		c2.172,5.184,2.567,11.33-0.262,16.354c-3.479,5.61-10.146,8.01-16.271,9.38c-5.17,1.43-8.99-3-12.5-5.96
		c-6.34-5.29-9.604-15.97-3.729-22.771C356.839,206.21,360.661,202.7,365.39,201.55z"/>
	<path d="M256.482,313.58c6.602-2.29,12.102,3.46,15.892,8.104c4.26,4.08,3.521,10.566,3.08,15.896
		c-0.552,5.25-5.771,7.91-10.03,9.87c-5.17,2.34-10.649-0.2-15.438-2.22c-4.188-1.604-8.068-5.42-8.041-10.15
		c-0.011-5.566,1.5-11.13,3.989-16.09C249.031,316.529,252.732,314.85,256.482,313.58z"/>
	<polygon fill="#008847" points="579.917,285.057 589.5,269.957 594.178,265 587.047,285.057 	"/>
</g>
<g id="bounds">
	<rect fill="none" stroke="#000000" stroke-miterlimit="10" width="600" height="600"/>
</g>
</svg>
