<?xml version="1.0" encoding="utf-8"?>
<!-- Generator: Adobe Illustrator 15.0.2, SVG Export Plug-In . SVG Version: 6.00 Build 0)  -->
<!DOCTYPE svg PUBLIC "-//W3C//DTD SVG 1.1 Basic//EN" "http://www.w3.org/Graphics/SVG/1.1/DTD/svg11-basic.dtd">
<svg version="1.1" baseProfile="basic" xmlns="http://www.w3.org/2000/svg" xmlns:xlink="http://www.w3.org/1999/xlink" x="0px"
	 y="0px" width="530px" height="530px" viewBox="0 0 530 530" xml:space="preserve">
<g id="Layer_1">
	<path fill="#018847" d="M318.47,183.683c0.628-0.11,1.251,0.054,1.88,0.148c2.658-0.761,5.378,0.084,8.065,0.119
		c9.321,0.55,17.54,5.414,26.413,7.775c2.437,0.619,4.476,2.136,6.643,3.345c2.711,1.574,5.196,3.517,7.947,5.028
		c4.64,2.711,8.798,6.178,13.436,8.881c2.436,2.118,5.266,3.691,7.8,5.686c2.44,1.9,4.943,3.731,7.264,5.795
		c1.354,0.768,2.515,1.812,3.678,2.851c6.215,4.75,12.395,9.558,18.223,14.782c3.859,2.618,6.847,6.283,10.524,9.111
		c0.104,0.203,0.323,0.61,0.435,0.812c0.396,0.168,0.802,0.341,1.217,0.508c0.337,0.479,0.676,0.955,1.028,1.429
		c4.149,3.573,8.062,7.425,12.033,11.194c3.309,2.718,6.25,5.847,9.461,8.682c2.509,2.666,5.568,4.731,7.979,7.506
		c2.688,3.087,6.552,5.058,8.646,8.659c0.222,0.054,0.663,0.163,0.885,0.218c0.328,0.437,0.664,0.875,1.01,1.315
		c1.642,1.322,3.028,2.933,4.688,4.242c0.124,0.181,0.373,0.535,0.496,0.715c0.51,0.373,1.025,0.748,1.548,1.131
		c0.027,0.228,0.089,0.669,0.12,0.891c1.995,1.482,3.706,3.309,5.443,5.086c1.252,1.297,2.869,2.276,3.73,3.914
		c2.128,1.311,3.647,3.335,5.463,5.02c3.647,3.402,6.911,7.203,10.688,10.479c0.39,0.311,0.792,0.609,1.216,0.911
		c0.515,0.46,0.991,0.968,1.391,1.549c0.104,0.138,0.306,0.42,0.413,0.558c5.181,4.021,9.163,9.381,14.24,13.523
		c4.312,4.479,8.835,8.768,13.368,13.032c1.38,2.129,3.538,3.544,5.255,5.372c1.163,1.238,2.345,2.479,3.736,3.479
		c0.182,0.398,0.371,0.809,0.574,1.217c0.213,0.033,0.638,0.104,0.851,0.141c7.253,7.238,14.512,14.479,21.746,21.736
		c1.473,1.332,3.143,2.451,4.402,4.007c4.527,4.317,8.877,8.819,13.326,13.224c2.261,2.312,4.809,4.338,6.977,6.747
		c1.337,1.179,2.562,2.476,3.707,3.84c4.438,3.791,8.297,8.203,12.517,12.232c2.754,2.83,5.721,5.476,8.229,8.541
		c1.797,2.055,3.979,3.75,5.616,5.958c0.934,1.237,2.077,2.295,3.186,3.382c1.507,1.438,2.605,3.241,4.167,4.646
		c2,1.853,3.585,4.088,5.586,5.942c1.371,1.3,2.438,2.874,3.701,4.276c2.279,2.291,4.322,4.803,6.628,7.075
		c1.697,2.415,3.971,4.312,5.817,6.6c3.521,3.692,6.744,7.646,10.203,11.396c2.503,2.684,4.639,5.681,7.178,8.338
		c3.002,3.057,5.521,6.536,8.447,9.673c2.353,3.067,4.948,5.936,7.427,8.906c1.832,2.568,4.103,4.781,6.035,7.271
		c1.475,1.999,3.35,3.671,4.8,5.691c1.688,2.459,3.885,4.521,5.522,7.017c2.604,2.824,4.527,6.192,7.271,8.897
		c0.562,1.041,1.393,2.036,1.239,3.309c-0.028,57.503,0,115.01-0.018,172.511H536.694c-2.482-2.244-4.72-4.748-6.9-7.271
		c-5.923-6.205-11.189-12.989-16.965-19.327c-1.894-2.396-4.201-4.422-6.102-6.812c-1.995-2.426-4.416-4.457-6.324-6.955
		c-1.147-1.291-2.438-2.461-3.457-3.856c-2.744-3.138-5.812-5.982-8.401-9.247c-2.057-2.524-4.517-4.686-6.604-7.179
		c-4.62-5.271-9.618-10.206-14.109-15.59c-3.746-3.502-6.926-7.536-10.562-11.141c-1.251-1.266-2.273-2.729-3.563-3.939
		c-3.507-3.288-6.686-6.892-9.812-10.524c-1.188-1.282-2.508-2.46-3.468-3.929c-1.693-1.597-3.153-3.404-4.568-5.242
		c-8.297-9.138-16.146-18.683-24.438-27.816c-2.402-3.036-5.097-5.83-7.606-8.765c-2.118-3.147-4.783-5.864-6.981-8.951
		c-3.146-3.795-5.883-7.938-9.233-11.546c-5.202-6.844-10.755-13.404-16.133-20.104c-1.224-1.869-3.002-3.287-4.202-5.167
		c-2.67-2.969-5.388-5.904-7.479-9.327c-4.167-4.393-7.048-9.79-11.039-14.331c-5.579-8.2-12.228-15.62-17.735-23.86
		c-0.272-0.208-0.541-0.415-0.802-0.614c-2.549-3.755-5.513-7.188-8.188-10.85c-2.275-2.653-4.107-5.646-6.351-8.327
		c-1.396-1.741-2.494-3.729-4.145-5.259c-3.132-4.687-6.188-9.428-9.015-14.299c-2.663-3.568-4.608-7.604-7.285-11.148
		c-0.504-1.021-1.043-2.025-1.662-2.977c-5.039-6.979-9.229-14.514-14.088-21.604c-2.101-3.438-4.604-6.634-6.337-10.286
		c-1.192-1.416-2.354-2.865-3.435-4.359c-1.426-1.989-3.133-3.83-4.012-6.146c-2.078-3.423-3.522-7.182-5.556-10.632
		c-0.105-0.313-0.208-0.628-0.301-0.938c-0.312-0.385-0.616-0.765-0.915-1.148c-3.894-8.082-7.903-16.115-11.886-24.165
		c-0.931-1.946-1.681-3.989-2.919-5.771c-0.041-0.242-0.118-0.736-0.156-0.982c-1.807-2.758-3.018-5.836-4.593-8.725
		c-1.182-2.19-2.258-4.461-2.921-6.871c-0.651-2.107-1.034-4.31-1.88-6.354c-1.437-3.992-2.676-8.062-4.171-12.029
		c-0.053-1.04-0.08-2.088-0.209-3.118c-0.89-5.418-0.831-10.924-1.291-16.377c-0.116-5.857,0.751-11.685,1.862-17.421
		c1.135-6.229,3.454-12.162,6.058-17.906c1.062-2.312,1.658-4.863,3.159-6.955c1.618-2.188,3.179-4.419,4.679-6.691
		c0.896-1.34,1.861-2.648,3.092-3.715c1.488-1.327,2.373-3.187,3.894-4.489c2.269-2.029,4.026-4.533,6.239-6.616
		c1.982-2.136,4.397-3.822,6.348-6.01c1.455-1.667,3.444-2.711,5.015-4.255c1.996-1.947,4.529-3.183,6.814-4.745
		c0.875-0.446,1.77-0.866,2.626-1.356c6.779-4.171,14.077-7.614,21.848-9.47c0.068-0.104,0.208-0.308,0.272-0.415
		c2.063-0.434,4.166-0.716,6.228-1.181c0.223,0.035,0.45,0.075,0.689,0.109C311.221,184.029,314.901,184.251,318.47,183.683"/>
	<path d="M353.068,231.938c0.704-0.196,1.644-0.738,2.252-0.044c1.367,1.384,2.166,3.246,2.847,5.042
		c0.32,2.535,0.168,5.261-0.88,7.633c-1.684,3.114-5.127,4.419-8.044,6.054c-1.847,0.842-4.032,0.921-5.982,0.488
		c-2.112-1.251-3.918-2.963-6.001-4.266c1.968-3.678,4.229-7.29,7.262-10.194C347.078,234.634,350.032,233.124,353.068,231.938z"/>
	<path d="M274.906,304.075c3.375-4.245,8.229-7.188,13.478-8.491c1.025,1.688,2.515,3.271,2.584,5.355
		c0.212,2.859-0.544,5.843-2.147,8.229c-1.271,2.055-3.611,3.025-5.754,3.896c-4.104,1.172-8.53-0.371-11.756-2.98
		C272.422,308.034,273.559,305.98,274.906,304.075z"/>
</g>
<g id="bounds">
	<rect fill="none" stroke="#000000" stroke-miterlimit="10" width="600" height="600"/>
</g>
</svg>
