<?xml version="1.0" encoding="utf-8"?>
<!-- Generator: Adobe Illustrator 15.0.2, SVG Export Plug-In . SVG Version: 6.00 Build 0)  -->
<!DOCTYPE svg PUBLIC "-//W3C//DTD SVG 1.1 Basic//EN" "http://www.w3.org/Graphics/SVG/1.1/DTD/svg11-basic.dtd">
<svg version="1.1" baseProfile="basic" xmlns="http://www.w3.org/2000/svg" xmlns:xlink="http://www.w3.org/1999/xlink" x="0px"
	 y="0px" width="530px" height="530px" viewBox="0 0 530 530" xml:space="preserve">
<g id="Layer_1">
	<path fill="#018847" d="M309.588,185.36c3.382,3.494,6.769,6.988,10.147,10.486c4.066-3.521,8.116-7.071,12.188-10.599
		c3.375,4.276,6.739,8.562,10.132,12.839c2.45-2.399,4.912-4.8,7.373-7.203c0.746,2.953,1.484,5.907,2.24,8.861
		c2.741-1.534,5.492-3.066,8.253-4.604c0.518,2.909,1.04,5.818,1.575,8.726c3.479-0.414,6.959-0.84,10.454-1.262
		c0.217,3.879,0.262,7.771,0.662,11.637c4.004-0.272,7.733-1.979,11.634-2.875c1.243,3.25,2.498,6.498,3.76,9.747
		c2.676-0.192,5.364-0.415,8.062-0.599c0.006,3.06-0.033,6.119,0.095,9.181c0.838,0.653,1.67,1.345,2.497,2.057
		c3.271-0.628,6.485-1.544,9.752-2.291c-0.644,2.658-1.279,5.312-1.908,7.968c0.929,0.804,1.915,1.552,2.91,2.319
		c2.892-0.677,5.776-1.42,8.681-2.123c-0.114,3.118-0.282,6.236-0.304,9.357c0.912,0.594,1.731,1.571,2.847,1.832
		c2.498-0.402,4.869-1.384,7.337-1.994c-0.771,2.158-1.553,4.312-2.27,6.477c0.381,0.378,0.797,0.759,1.247,1.136
		c2.692-0.414,5.384-0.91,8.09-1.367c-0.854,2.019-1.725,4.031-2.562,6.053c1.237,1.044,2.442,2.149,3.542,3.375
		c2.292-0.489,4.562-1.075,6.854-1.642c-0.363,2.216-0.711,4.437-1.031,6.65c0.773,0.708,1.559,1.424,2.354,2.153
		c1.671-0.574,3.353-1.151,5.058-1.716c-0.285,2.117-1.327,4.295-0.535,6.416c2.445-0.756,4.864-1.623,7.311-2.428
		c-0.804,2.312-1.616,4.615-2.381,6.938c0.564,0.562,1.172,1.135,1.777,1.716c2.171-0.796,4.343-1.613,6.532-2.42
		c-0.414,2.805-0.995,5.591-1.15,8.426c0.278,0.039,0.838,0.119,1.123,0.156c1.277,1.415,2.604,2.809,4.032,4.087
		c2.642-0.311,5.274-0.673,7.926-1.014c-0.04,2.771-0.616,5.551-0.326,8.312c1.428,1.394,2.935,2.72,4.249,4.235
		c2.326-0.732,4.646-1.506,6.981-2.258c-0.955,1.99-1.901,3.983-2.847,5.976c0.53,0.603,1.083,1.203,1.667,1.812
		c1.961-1.078,3.896-2.227,5.845-3.354c-1.227,1.773-2.444,3.548-3.672,5.309c0.175,0.446,0.385,0.892,0.642,1.342
		c1.146,0.879,2.183,1.902,3.246,2.914c2.375-0.734,4.75-1.5,7.142-2.248c-0.515,2.742-1.055,5.48-1.51,8.229
		c0.912,0.812,1.8,1.653,2.72,2.494c2.13-0.629,4.282-1.233,6.441-1.84c-0.633,2.153-1.263,4.303-1.9,6.446
		c0.325,0.34,0.708,0.678,1.127,1.021c0.006,0.236,0.021,0.714,0.026,0.947c0.323,0.125,0.973,0.373,1.298,0.496
		c0.698,0.783,1.434,1.535,2.216,2.276c2.99-0.34,6.001-0.604,9.021-0.911c-0.561,2.562-1.299,5.096-1.757,7.683
		c-0.286,0.726,0.433,1.265,0.855,1.765c1.021,1.055,2.123,2.036,3.164,3.098c2.486-0.617,4.979-1.271,7.479-1.896
		c-0.55,2.387-1.392,4.715-1.723,7.143c1.76,2.461,4.247,4.348,6.199,6.684c2.425-0.756,4.839-1.559,7.274-2.34
		c-0.143,3.029-0.233,6.065-0.392,9.103c0.934,1.17,1.999,2.246,3.179,3.21c2.522-0.746,5.065-1.477,7.619-2.206
		c-0.579,2.726-1.151,5.448-1.703,8.179c0.931,1.033,1.938,2.019,2.943,3.008c2.26-1.101,4.523-2.201,6.798-3.312
		c-0.146,3.356-0.357,6.703-0.44,10.066c0.189,0.188,0.567,0.579,0.761,0.771c0.438,0.422,0.814,0.842,1.347,1.278
		c3.021-0.796,6.034-1.636,9.07-2.437c-1.172,2.655-2.316,5.328-3.525,7.969c0.856,0.717,1.583,2.335,2.956,1.724
		c2.849-0.696,5.674-1.509,8.534-2.217c-1.088,2.995-2.182,5.987-3.264,8.981c0.756,0.629,1.354,1.896,2.555,1.598
		c3.478-0.415,6.938-0.979,10.43-1.434c-0.396,3.875-0.819,7.75-1.191,11.627c0.618,0.657,1.229,1.32,1.885,1.988
		c3.103-0.939,6.151-2.033,9.241-3.043c-1.207,2.95-2.423,5.896-3.612,8.848c0.907,0.78,1.688,2.246,3.123,1.948
		c3.37-0.272,6.739-0.635,10.125-0.914c-0.931,3.112-1.835,6.229-2.753,9.341c0.322,0.523,0.699,1.058,1.089,1.593
		c3.656-0.614,7.304-1.32,10.969-1.959c-0.771,2.998-1.535,5.997-2.292,8.99c3.435-0.534,6.878-1.079,10.328-1.613
		c-0.618,2.831-1.207,5.667-1.8,8.502c2.553-0.332,5.116-0.654,7.692-0.986c-0.901,3.374-1.87,6.729-2.713,10.114
		c0.778,0.6,1.386,1.968,2.572,1.628c3.107-0.711,6.155-1.703,9.268-2.486c-1.377,3.034-2.722,6.09-4.103,9.115
		c0.451,0.531,0.932,1.054,1.455,1.579c2.963-1.183,5.932-2.363,8.91-3.533c-1.729,2.479-3.454,4.944-5.17,7.42
		c2.938-1.095,5.865-2.218,8.817-3.294c-1.146,3.171-2.306,6.337-3.435,9.515c0.271,0.421,0.581,0.841,0.926,1.271
		c3.008-1.115,6.007-2.265,9.02-3.399c-0.945,2.274-1.879,4.552-2.85,6.812c-0.348,1.013-1.133,2.068-0.743,3.171
		c3.612-0.605,7.097-1.835,10.674-2.667c-1.435,3.16-2.835,6.326-4.271,9.47c0.67,0.782,1.158,2.143,2.429,2.064
		c3.775,0.175,7.57,0.054,11.365,0.222c-0.576,3.653-1.247,7.293-1.761,10.954c-0.384,1.101,0.907,1.99,1.933,1.678
		c3.271-0.351,6.532-0.799,9.818-1.165c0.132,4.743,0.251,9.479,0.395,14.22c3.182-0.787,6.365-1.595,9.559-2.386
		c-1.773,2.685-3.533,5.369-5.304,8.044c0.306,0.479,0.609,0.95,1.005,1.438c4.052-0.282,8.115-0.569,12.181-0.865
		c-1.583,3.423-3.439,6.718-4.789,10.241c3.355-0.726,6.616-1.87,9.946-2.76c-1.362,2.657-2.747,5.303-4.099,7.961
		c2.894-0.955,5.775-1.938,8.688-2.896c-0.99,2.791-1.979,5.575-2.939,8.372c1.92-1.642,3.859-3.266,5.798-4.895
		c0,57.813,0,115.633,0,173.447H536.395c0.746-3.071,1.34-6.188,2.035-9.273c-2.724,0.48-5.438,0.974-8.146,1.45
		c0.19-4.282,0.405-8.562,0.615-12.845c-3.544,0.602-7.068,1.223-10.597,1.826c0.852-3.552,1.725-7.094,2.591-10.646
		c-3.022,1.077-6.041,2.147-9.044,3.229c0.436-4.025,0.985-8.048,1.375-12.081c-0.84-0.846-1.637-1.716-2.399-2.592
		c-4.104-0.129-8.2-0.146-12.291-0.211c0.757-3.573,1.538-7.145,2.292-10.722c-1.724-1.811-3.533-3.518-5.157-5.396
		c-2.771,1.025-5.498,2.138-8.238,3.202c0.906-3.021,1.919-6.017,2.775-9.055c-1.643-1.514-2.939-3.34-4.562-4.849
		c-2.846,1.163-5.685,2.314-8.519,3.469c1.207-2.855,2.423-5.716,3.646-8.57c-1.414-1.473-2.834-2.928-4.132-4.486
		c-3.042,0.747-6.031,1.648-9.039,2.476c0.229-3.681,0.55-7.355,0.734-11.039c-1.326-1.239-2.402-2.74-3.879-3.789
		c-3.481-0.361-7.001-0.029-10.487-0.143c0.143-3.619,0.367-7.231,0.466-10.854c-0.757-0.854-1.468-1.732-2.128-2.631
		c-2.725,1.27-5.206,2.968-7.812,4.433c0.377-3.944,0.844-7.882,1.181-11.83c-1.821-1.84-3.375-3.91-5.17-5.76
		c-3.201,0.562-6.391,1.134-9.573,1.7c0.562-3.451,1.127-6.896,1.704-10.342c-0.908-1.06-1.724-2.17-2.651-3.185
		c-0.447-0.717-1.307-0.415-1.915-0.396c-2.998,0.316-5.979,0.673-8.967,0.965c0.361-3.361,0.831-6.71,1.163-10.069
		c0.252-1.435-0.978-2.43-1.706-3.475c-2.349,1.336-4.688,2.666-7.035,3.979c0.163-3.976,0.381-7.951,0.545-11.93
		c-1.638-2.023-3.186-4.117-4.859-6.099c-3.131,0.771-6.236,1.629-9.339,2.443c0.688-3.62,1.716-7.195,2.239-10.846
		c-0.855-1.738-2.484-3.003-3.726-4.464c-2.973,0.52-5.938,0.983-8.894,1.474c1.034-2.758,2.354-5.407,3.271-8.211
		c-0.42-0.995-1.204-1.751-1.826-2.578c-2.826,0.352-5.615,0.854-8.412,1.292c0.637-2.934,1.332-5.853,1.963-8.782
		c-1.408-1.544-2.741-3.145-4.297-4.521c-2.416,0.712-4.835,1.374-7.236,2.053c0.91-2.672,1.865-5.329,2.773-8.005
		c-1.496-2.098-2.998-4.181-4.557-6.221c-2.95,0.562-5.86,1.292-8.779,1.938c1.088-2.272,2.247-4.51,3.375-6.769
		c0.133-0.534,0.698-1.135,0.251-1.663c-1.271-2.157-2.967-4.016-4.476-5.997c-2.998,0.451-5.988,0.932-8.977,1.393
		c1.317-2.589,2.654-5.165,3.971-7.763c-0.932-1.102-1.826-2.226-2.671-3.37c-2.416,1.035-4.766,2.199-7.142,3.295
		c0.654-3.255,1.312-6.511,2.021-9.757c-0.611-0.839-1.204-1.683-1.771-2.517c-2.833,0.4-5.646,0.895-8.455,1.35
		c0.949-2.76,1.995-5.493,2.902-8.272c-2.146-2.729-4.325-5.433-6.364-8.229c-2.645,0.604-5.277,1.218-7.896,1.816
		c0.523-3.221,1.094-6.433,1.623-9.649c-1.529-2.216-3.086-4.412-4.434-6.737c-2.771,0.471-5.507,1.063-8.246,1.602
		c0.979-3.008,2.286-5.918,3.123-8.975c-0.688-2.239-2.589-3.875-3.658-5.937c-2.823,0.637-5.644,1.291-8.446,1.938
		c0.896-3.544,1.798-7.089,2.729-10.626c-1.023-1.549-2.089-3.059-3.087-4.604c-2.618,0.892-5.21,1.826-7.802,2.737
		c0.837-2.979,1.729-5.94,2.571-8.922c0.732-2.146-1.569-3.621-2.408-5.364c-2.95,0.47-5.869,1.063-8.787,1.596
		c1.075-3.017,2.468-5.926,3.389-9.001c-0.205-1.629-1.549-3.641-3.419-3.328c-1.969-0.027-3.924,0.021-5.858,0.01
		c0.881-2.387,1.791-4.754,2.637-7.15c-0.583-0.604-1.055-1.281-1.699-1.766c-2.91-0.271-5.832-0.174-8.734-0.304
		c0.562-3.354,1.125-6.709,1.694-10.063c-2.885,0-5.755,0-8.62,0c1.314-2.685,2.639-5.364,3.959-8.049
		c-3.769-1.643-7.531-3.285-11.291-4.93c1.501-3.525,3.013-7.054,4.511-10.587c-0.955-1.717-1.919-3.423-2.667-5.228
		c-0.507-0.967-1.042-2.197-2.229-2.393c-3.2-0.697-6.439-1.178-9.63-1.826c0.905-3.816,1.88-7.617,2.791-11.436
		c0.535-1.984-1.104-3.591-1.98-5.186c-2.735-0.277-5.472-0.543-8.189-0.82c2.251-1.172,4.596-2.188,6.744-3.573
		c-0.564-0.717-0.703-1.942-1.703-2.146c-3.341-0.783-6.72-1.385-10.059-2.119c2.623-2.198,5.255-4.396,7.888-6.6
		c-0.442-1.117-0.768-2.311-1.479-3.275c-3.529-0.896-7.187-1.176-10.752-1.856c3.003-1.567,6.006-3.146,9.021-4.726
		c-0.103-1.537-0.358-3.055-0.729-4.541c-4.377-1.562-8.739-3.143-13.095-4.725c4.22-1.131,8.451-2.229,12.68-3.365
		c-0.034-0.774-0.04-1.549-0.009-2.322c-4.883-2.537-9.788-5.02-14.671-7.53c4.444-2.42,8.896-4.829,13.354-7.237
		c-3.888-3.843-7.793-7.664-11.674-11.503c4.942-1.004,9.887-1.999,14.834-3.003c-3.729-4.126-7.478-8.229-11.195-12.354
		c5.329-0.699,10.66-1.407,16.004-2.11c-2.996-4.225-5.991-8.44-8.969-12.675c4.609,0.814,9.225,1.646,13.84,2.456
		c-1.595-4.825-3.193-9.644-4.768-14.473c5.758,3.463,11.417,7.1,17.242,10.464c-1.699-7.448-3.746-14.815-5.575-22.232
		c7.828,0.506,15.655,1.022,23.492,1.514c1.021-6.522,2.029-13.053,3.061-19.574c4.521,1.425,9.046,2.855,13.572,4.275
		C304.556,192.101,307.071,188.73,309.588,185.36"/>
	<path d="M339.882,229.872c1.061-1.479,2.847-1.756,4.41-2.49c0.849,0.274,1.731,0.56,2.611,0.854
		c2.002-0.075,3.964,0.434,5.838,1.137c1.272,1.481,2.983,2.682,3.721,4.562c0.919,2.164,1.299,4.542,1.304,6.883
		c-0.425,1.782-1.232,3.471-1.379,5.32c-1.834,1.384-3.857,2.482-5.833,3.615c-1.896,0.539-3.909,0.332-5.842,0.271
		c-2.422,0.018-4.221-1.77-6.256-2.773c-1.479-0.647-2.24-2.211-2.569-3.692c-0.297-1.557-0.081-3.191-0.687-4.676
		c0.431-1.657,0.687-3.362,0.825-5.071C337.356,232.518,338.14,230.719,339.882,229.872z"/>
	<path d="M273.869,292.823c2.225-0.05,4.207-1.089,6.289-1.738c2.222,0.164,4.097,1.538,6.008,2.571
		c1.398,0.709,2.012,2.257,2.811,3.527c1.188,1.938,0.724,4.323,0.674,6.479c-0.084,2.373-0.959,4.727-2.623,6.439
		c-1.11,1.063-1.856,2.645-3.405,3.106c-1.839,0.615-3.949,1.388-5.778,0.407c-2.146-1.11-4.713-1.637-6.308-3.565
		c-1.468-1.528-2.677-3.368-3.052-5.479c-0.653-2.368,0.433-4.702,1.271-6.868C270.855,295.875,272.557,294.499,273.869,292.823z"/>
</g>
<g id="bounds">
	<rect fill="none" stroke="#000000" stroke-miterlimit="10" width="600" height="600"/>
</g>
</svg>
