<?xml version="1.0" encoding="utf-8"?>
<!-- Generator: Adobe Illustrator 15.0.2, SVG Export Plug-In . SVG Version: 6.00 Build 0)  -->
<!DOCTYPE svg PUBLIC "-//W3C//DTD SVG 1.1 Basic//EN" "http://www.w3.org/Graphics/SVG/1.1/DTD/svg11-basic.dtd">
<svg version="1.1" baseProfile="basic" xmlns="http://www.w3.org/2000/svg" xmlns:xlink="http://www.w3.org/1999/xlink" x="0px"
	 y="0px" width="530px" height="530px" viewBox="0 0 530 530" xml:space="preserve">
<g id="Layer_1">
	<g>
		<path fill="#008847" d="M298.347,529.998c-7.847-9.108-15.726-18.206-23.616-27.275c-10.714-13.896-20.936-28.19-31.477-42.234
			c-12.249-15.551-22.702-32.392-34.465-48.288c-8.112-10.646-15.164-22.041-22.584-33.157
			c-17.446-25.438-33.803-51.604-50.026-77.818c-3.151-4.595-3.548-10.267-4.564-15.576c-1.074-7.035-3.254-13.854-4.15-20.917
			c-1.562-13-4.991-26.075-2.989-39.235c1.752-7.979,4.521-15.871,9.128-22.688c7.788-11.425,14.575-23.556,23.526-34.171
			c10.572-12.823,19.728-26.955,32.124-38.175c11.087-9.351,23.983-16.875,38.073-20.6c20.641-4.325,42.473-4.402,62.688,2.031
			c7.035,2.443,14.704,3.832,20.596,8.733c14.385,9.394,26.708,21.446,40.025,32.212c15.771,13.811,32.199,26.836,48.748,39.691
			c14.265,10.642,27.104,23.01,40.676,34.505c15.979,14.708,34.746,25.868,51.66,39.401c12.898,10.306,25.941,20.459,38.277,31.44
			l70,50.627V600H343.5L298.347,529.998z"/>
	</g>
	<path d="M271.684,172.977c5.166-2.753,11.51-1.781,16.178,1.504c6.718,7.39,8.272,22.369-2.576,26.786
		c-9.492,6.876-22.952-2.126-23.497-12.852C262.464,182.193,265.777,175.716,271.684,172.977z"/>
	<path d="M188.927,255.186c6.949-3.062,16.269-1.604,20.14,5.482c6.596,11.197-6.419,26.089-18.446,22.837
		c-5.815-1.739-9.245-7.394-11.336-12.722C178.15,264.18,183.465,258.115,188.927,255.186z"/>
</g>
<g id="bounds">
	<rect fill="none" stroke="#000000" stroke-miterlimit="10" width="600" height="600"/>
</g>
</svg>
