<?xml version="1.0" encoding="utf-8"?>
<!-- Generator: Adobe Illustrator 15.0.2, SVG Export Plug-In . SVG Version: 6.00 Build 0)  -->
<!DOCTYPE svg PUBLIC "-//W3C//DTD SVG 1.1 Basic//EN" "http://www.w3.org/Graphics/SVG/1.1/DTD/svg11-basic.dtd">
<svg version="1.1" baseProfile="basic" id="Layer_1"
	 xmlns="http://www.w3.org/2000/svg" xmlns:xlink="http://www.w3.org/1999/xlink" x="0px" y="0px" width="530px" height="530px"
	 viewBox="0 0 530 530" xml:space="preserve">
<g id="Layer_1_1_">
	<path fill="#008847" d="M561.5,315.5l-31.381-15.953v-0.061c-20.768-16.312-41.282-33.017-63.193-47.804
		c-23.995-15.532-43.588-36.721-66.712-53.399c-23.987-17.924-47.115-36.93-70.097-56.113c-9.561-8.281-20.458-14.728-30.921-21.72
		c-9.953-6.287-19.188-13.849-30.062-18.509c-10.447-4.738-20.617-10.249-31.697-13.396c-3.474-1.132-7.444-1.863-9.6-5.089
		c-8.719-11.314-17.821-22.333-26.76-33.472c-8.501-11.05-16.812-22.246-25.37-33.238c-4.514-5.733-8.25-12.196-14.127-16.696
		c7.635,28.21,26.156,51.439,41.563,75.712c4.09,6.887,9.276,13.149,12.779,20.399c-1.055,2.111-2.431,4.045-3.604,6.024
		c-15.9-19.888-30.85-40.522-47.613-59.706c-5.32-5.861-9.526-12.778-15.813-17.673c13.864,32.09,34.263,60.724,52.244,90.534
		c-0.541,1.129-1.641,3.386-2.183,4.514c-8.94-9.257-17.632-18.745-26.277-28.271c-10.726-12.733-24.399-22.468-36.506-33.794
		c-10.595-8.971-20.429-18.873-31.596-27.144c2.313,5.208,5.848,9.721,9.494,14.074c11.886,14.918,24.738,29.047,36.8,43.834
		c11.446,14.23,23.551,27.903,35.787,41.474c-1.61,2.286-3.225,4.573-4.731,6.858c-10.04-11.094-20.036-22.261-31.437-31.962
		c-18.245-15.578-36.168-31.552-55.676-45.562c-5.597-4.192-10.962-8.852-17.469-11.593c3.812,7.137,9.643,12.869,15.828,17.967
		c22.862,20.679,43.467,43.628,64.292,66.3c5.761,6.683,11.462,13.44,17.119,20.225c-1.439,2.285-2.846,4.571-4.223,6.857
		c-20.679-16.497-41.271-33.261-59.384-52.606c-11.034-11.973-22.393-23.654-33.34-35.7c-2.112-2.302-4.443-4.383-6.802-6.346
		c2.169,7.693,6.977,14.216,11.343,20.796c10.435,14.874,22.217,28.737,33.458,42.998c13.556,17.033,29.325,32.078,44.522,47.598
		c-3.443,3.034-6.903,6.024-10.302,9.086c-20.737-23.213-41.724-46.236-63.939-68.043c-4.457-4.43-8.646-9.194-13.834-12.765
		c7.68,14.653,19.228,26.774,28.709,40.257c12.135,17.371,28.71,31.068,41.065,48.244c-5.248,4.675-10.948,8.822-17.103,12.193
		c-12.106-19.934-26.645-38.235-41.035-56.54c-5.1-6.126-9.32-13.047-15.402-18.274c-12.163-11.768-23.271-24.664-36.124-35.7
		c2.873,9.335,9.628,16.618,15.153,24.444c18.32,25.666,37.87,50.461,55.309,76.749c4.119,6.11,7.18,12.838,10.683,19.32
		c-1.757,1.305-3.429,2.603-5.085,3.913C98.009,209.067,88,199.117,77.066,190.192c-13.364-11.036-25.529-23.475-39.494-33.765
		c-11.886-9.184-23.801-18.345-35.875-27.288c-0.452,0.21-1.361,0.586-1.817,0.791c11.211,13.498,22.616,26.862,34.806,39.481
		c18.628,20.531,41.576,36.506,60.806,56.422c7.02,6.77,7.84,16.943,11.636,25.485c5.51,12.94,10.932,26.071,18.993,37.708
		c21.657,34.322,43.523,68.537,67.031,101.646c7.106,10.402,13.817,21.114,21.835,30.876c10.142,13.423,19.374,27.511,29.428,40.989
		c15.898,18.859,29.062,39.956,46.209,57.757c2.853,3.08,5.513,6.331,8.409,9.403l-0.307,0.305L324.5,565.5l19,34.5H600V340.5
		L561.5,315.5z"/>
	<path d="M275.48,180.074c4.688-1.778,10.168-0.293,14.041,2.735c3.192,4.05,5.273,9.277,5.054,14.499
		c-0.308,11.514-16.823,18.288-24.914,9.861c-2.755-3.206-6.154-6.741-5.994-11.256C264.559,189.131,268.665,182.286,275.48,180.074
		z"/>
	<path d="M192.134,264.076c7.109-3.503,16.648-1.449,20.312,5.965c5.218,10.359-5.555,22.848-16.354,22.13
		c-7.005-1.079-11.739-7.751-13.482-14.155C182.491,272.02,187.227,266.92,192.134,264.076z"/>
</g>
<g id="bounds">
	<rect x="0" fill="none" width="600" height="600"/>
</g>
</svg>
