<?xml version="1.0" encoding="utf-8"?>
<!-- Generator: Adobe Illustrator 15.0.2, SVG Export Plug-In . SVG Version: 6.00 Build 0)  -->
<!DOCTYPE svg PUBLIC "-//W3C//DTD SVG 1.1 Basic//EN" "http://www.w3.org/Graphics/SVG/1.1/DTD/svg11-basic.dtd">
<svg version="1.1" baseProfile="basic" xmlns="http://www.w3.org/2000/svg" xmlns:xlink="http://www.w3.org/1999/xlink" x="0px"
	 y="0px" width="530px" height="530px" viewBox="0 0 530 530" xml:space="preserve">
<g id="Layer_1">
	<g>
		<path fill="#008847" d="M600,266.376V600c0,0-228.166,6.836-235.275,0c-7.108-6.836-8.558-18.164-13.558-24.164
			s-12-6.333-18-11.667s-9-16.334-13-20S304.5,536.835,298.821,530c-6.671-7.811-9.778-17.947-16.278-25.867
			c-6.25-7.723-13.98-14.067-20.19-21.812c-6.76-7.789-7.75-18.579-12.47-27.449c-3.79-5.521-10.5-8.29-13.94-14.08
			c-2.989-6.277-4.897-13.027-7.84-19.327c-2.99-5.553-9.279-8.053-13.02-12.962c-4.86-7.341-6.271-16.858-12.973-22.979
			c-5.22-5.088-11.56-9.567-14.39-16.549c-3.73-9.451-1.641-20.121-5.44-29.539c-3.697-8.86-10.97-15.951-13.277-25.439
			c-2.4-9.688,2.5-19.188,1.777-28.92c-0.447-4.46,0.28-8.891,1.871-13.051c1.489-3.859,0.75-8.021,0.939-12.029
			c1.239-6.88,8.857-10.479,9.77-17.51c1.33-7.37,4.433-14.23,6.4-21.43c1-3.343,1.13-7.021,3.01-10.053
			c4.211-6.107,12.03-8.51,16.11-14.737c4.63-7.79,4.521-17.66,10.147-24.96c4.603-5.73,12.771-6.053,18.08-10.803
			c5.643-5.357,10.301-11.697,16.15-16.84c9.87-5.357,21.647-4.53,32.13-8.03c6.711-2.68,10.54-9.72,17.37-12.21
			c5.268-1.782,10.636,0.508,15.916,0.938c5.71-0.44,11.102-3.72,16.938-2.68c8.438,1.447,15.58,6.52,23.052,10.38
			c9.896,5.47,22.551,1.21,31.979,8.01c7.479,5.2,17.102,6.06,24.33,11.7c7.159,5.09,13.55,11.16,20.648,16.35
			c5.261,3.8,16.354,2.78,22.098,4.95c6.03,3.03,5.116,8.1,14.116,13.1c8,4,16.334,3,25.768,8.68
			c6.062,4.79,10.819,16.47,17.06,21.11c5.528,4.2,11.091,8.49,15.341,14.07c4.5,7.807,21.345-0.406,32.194,7.101
			c10.849,7.507,11.639,17.039,18.306,21.706S591.166,259.915,600,266.376z"/>
	</g>
	<path d="M366.062,201.55c7.819-1.96,14.593,3.223,19.729,8.423c3.25,5.737,4.479,13.188,1.119,19.157
		c-3.473,5.633-10.148,8.021-16.271,9.4c-5.17,1.45-8.988-3-12.521-5.97c-3.939-3.03-5.789-7.9-6.859-12.58
		c-0.601-5.76,2.78-10.88,7.188-14.23C360.733,203.98,363.111,202.04,366.062,201.55z"/>
	<path d="M257.133,313.591c6.58-2.312,12.09,3.409,15.857,8.04c4.303,4.08,3.603,10.58,3.133,15.938
		c-0.54,5.281-5.82,7.938-10.094,9.9c-5.179,2.317-10.639-0.25-15.429-2.263c-4.188-1.619-8.06-5.46-7.99-10.188
		c0.013-5.562,1.513-11.119,4.013-16.062C249.733,316.54,253.403,314.85,257.133,313.591z"/>
</g>
<g id="bounds">
	<rect fill="none" stroke="#000000" stroke-miterlimit="10" width="600" height="600"/>
</g>
</svg>
