<?xml version="1.0" encoding="utf-8"?>
<!-- Generator: Adobe Illustrator 15.0.2, SVG Export Plug-In . SVG Version: 6.00 Build 0)  -->
<!DOCTYPE svg PUBLIC "-//W3C//DTD SVG 1.1 Basic//EN" "http://www.w3.org/Graphics/SVG/1.1/DTD/svg11-basic.dtd">
<svg version="1.1" baseProfile="basic" xmlns="http://www.w3.org/2000/svg" xmlns:xlink="http://www.w3.org/1999/xlink" x="0px"
	 y="0px" width="530px" height="530px" viewBox="0 0 530 530" xml:space="preserve">
<g id="Layer_1">
	<g>
		<path fill="#008847" d="M298.347,529.998c-7.847-9.108-15.726-18.206-23.616-27.275c-10.715-13.896-20.936-28.191-31.477-42.235
			c-12.249-15.55-22.702-32.391-34.465-48.288c-8.112-10.645-15.164-22.041-22.584-33.157
			c-17.446-25.438-33.803-51.604-50.026-77.819c-3.151-4.594-3.548-10.266-4.564-15.576c-1.074-7.035-3.254-13.854-4.15-20.917
			c-1.562-13-4.991-26.075-2.989-39.235c1.752-7.979,4.521-15.871,9.128-22.688c7.788-11.425,14.575-23.556,23.526-34.171
			c10.572-12.823,19.728-26.955,32.124-38.175c11.087-9.351,23.983-16.875,38.073-20.6c20.641-4.325,42.473-4.402,62.688,2.031
			c7.036,2.443,14.705,3.832,20.596,8.733c14.385,9.394,26.708,21.446,40.026,32.212c15.771,13.811,32.199,26.836,48.748,39.691
			c14.264,10.642,27.103,23.01,40.676,34.505c15.979,14.708,34.746,25.868,51.66,39.401c12.898,10.306,25.941,20.459,38.277,31.441
			l70,50.627V600H343.5L298.347,529.998z"/>
	</g>
</g>
<g id="bounds">
	<rect fill="none" stroke="#000000" stroke-miterlimit="10" width="600" height="600"/>
</g>
</svg>
