<?xml version="1.0" encoding="utf-8"?>
<!-- Generator: Adobe Illustrator 15.0.2, SVG Export Plug-In . SVG Version: 6.00 Build 0)  -->
<!DOCTYPE svg PUBLIC "-//W3C//DTD SVG 1.1 Basic//EN" "http://www.w3.org/Graphics/SVG/1.1/DTD/svg11-basic.dtd">
<svg version="1.1" baseProfile="basic" xmlns="http://www.w3.org/2000/svg" xmlns:xlink="http://www.w3.org/1999/xlink" x="0px"
	 y="0px" width="530px" height="530px" viewBox="0 0 530 530" xml:space="preserve">
<g id="Layer_1">
	<path fill="#018847" d="M324.448,186.942c2.812-0.925,5.844-0.912,8.739-0.396c4.71,1.337,7.447,6.035,11.959,7.759
		c3.823,1.078,7.862,0.151,11.756,0.791c1.93,0.305,3.558,1.544,4.789,3.018c2.355,2.804,4.235,6.099,7.271,8.273
		c2.791,2.054,6.316,2.514,9.538,3.587c4.184,1.28,8.146,3.415,11.341,6.438c5.174,4.923,8.672,11.316,13.899,16.19
		c3.239,3.028,7.401,4.782,11.593,6.081c3.229,0.98,6.609,2.217,8.788,4.951c4.727,5.926,7.33,13.284,12.392,18.982
		c2.592,3.159,6.926,3.59,10.562,4.875c2.212,0.831,5.102,1.163,6.324,3.473c2.984,5.412,3.334,11.953,6.771,17.146
		c2.929,2.533,6.996,2.984,10.604,4.057c3.477,0.91,7.318,1.866,9.721,4.771c3.312,4.166,3.217,10.062,6.675,14.15
		c4.279,5.325,12.245,4.754,16.806,9.694c2.922,3.64,3.604,8.509,6.258,12.317c0.781,1.168,2.043,1.873,3.299,2.474
		c4.938,2.396,9.754,5.079,14.165,8.356c2.78,2.188,5.979,4.274,7.413,7.668c1.835,4.191,3.029,8.635,4.729,12.887
		c1.199,2.938,2.479,6.234,5.391,7.896c3.938,2.312,8.268,3.843,12.396,5.771c3.474,1.586,7.287,3.021,9.698,6.154
		c4.745,5.907,7.36,13.17,11.707,19.354c1.442,2.028,3.015,4.082,5.222,5.353c2.92,1.689,6.16,2.701,9.261,4.012
		c2.868,1.188,5.992,2.26,8.075,4.709c5.368,6.185,7.373,14.604,13.075,20.549c6.676,6.609,16.188,9.438,22.7,16.253
		c4.211,4.771,7.392,10.328,10.912,15.605c3.474,5.382,6.9,10.979,11.949,15.063c5.166,4.448,11.197,7.825,16.12,12.573
		c5.506,5.555,8.991,12.655,13.121,19.211c2.954,4.969,7.158,9.029,11.384,12.923c2.799,2.602,6.062,4.616,9.132,6.892
		c0.039,58.032,0.01,116.064,0.013,174.102h-170.82c0.233-6.646-3.305-12.677-7.54-17.518c-2.232-2.533-5.37-3.943-8.307-5.457
		c-4.087-2.073-8.321-4.122-11.581-7.417c-1.852-1.828-2.949-4.216-4.062-6.516c-1.979-4.235-3.667-8.613-5.812-12.771
		c-2.826-5.951-8.482-10.014-14.373-12.596c-3.404-1.57-7.195-2.513-10.104-4.982c-2.092-1.985-3.504-4.552-4.824-7.075
		c-4.012-7.922-6.228-16.74-11.329-24.101c-1.408-2.108-3.28-3.879-5.465-5.149c-5.18-3.104-10.806-5.344-16.138-8.146
		c-2.26-1.218-4.551-2.444-6.479-4.149c-2.064-2.018-3.632-4.49-4.924-7.05c-2.257-4.497-2.993-9.519-4.12-14.361
		c-0.887-3.771-2.435-7.556-5.249-10.293c-2.583-2.271-6.062-2.921-9.168-4.141c-3.8-1.361-7.693-2.869-10.694-5.655
		c-2.469-2.237-4.072-5.229-5.354-8.252c-2.253-5.354-3.603-11.028-5.705-16.438c-0.866-2.221-1.974-4.387-3.632-6.121
		c-5.576-6.067-12.904-10.252-20.528-13.2c-1.149-0.362-2.069-1.138-2.569-2.218c-4.389-7.297-6.284-15.745-10.438-23.166
		c-1.712-4.175-3.573-8.293-5.202-12.499c-0.687-1.814-2.281-3.032-3.808-4.107c-2.989-2.077-6.392-3.543-9.132-5.957
		c-1.529-1.311-2.218-3.309-3.741-4.607c-3.394-2.933-7.584-4.754-10.974-7.689c-1.049-0.896-1.741-2.098-2.441-3.248
		c-2.543-4.153-7.58-6.104-9.8-10.505c-1.854-3.806-3.394-7.757-5.196-11.58c-1.553-2.801-3.656-5.235-5.522-7.818
		c-2.752-3.619-5.18-7.55-6.586-11.896c-1.569-5.004-2.188-10.229-3.466-15.304c-0.403-1.483-0.799-3.049-1.832-4.228
		c-1.782-2.063-3.971-3.719-6.033-5.463c-5.182-4.226-10.395-8.565-14.2-14.123c-4.161-6.035-7.693-12.69-9.143-19.938
		c-1.632-7.344-2.853-14.917-6.298-21.677c-3.043-4.812-7.886-8.199-10.806-13.104c-1.227-2.043-1.374-4.486-1.394-6.81
		c-0.013-6.052,0.938-12.063,0.892-18.116c-0.041-6.477-1.921-12.725-3.026-19.059c-0.609-3.612-1.162-7.352-0.518-10.999
		c0.926-2.84,3.009-5.113,4.864-7.396c3.233-3.855,6.953-7.461,9.08-12.097c2.483-6.536,4.783-13.28,8.891-19.023
		c2.562-3.159,6.931-3.479,10.434-5.05c2.914-1.188,4.652-3.988,6.197-6.581c1.596-2.998,3.875-5.684,6.905-7.298
		c3.146-1.968,6.981-1.853,10.437-2.904c4.27-1.297,6.479-5.976,10.891-7.006c4.853-1.27,9.538,1.282,14.378,1.395
		C318.124,189.837,321.185,187.823,324.448,186.942"/>
	<path d="M339.879,230.636c1.061-1.48,2.847-1.757,4.41-2.49c0.849,0.273,1.73,0.559,2.611,0.854
		c2.003-0.075,3.963,0.435,5.838,1.138c1.272,1.48,2.984,2.681,3.721,4.562c0.919,2.164,1.3,4.543,1.304,6.883
		c-0.425,1.782-1.232,3.473-1.379,5.32c-1.834,1.385-3.856,2.484-5.833,3.616c-1.896,0.54-3.909,0.332-5.842,0.271
		c-2.42,0.019-4.222-1.771-6.255-2.772c-1.479-0.649-2.241-2.212-2.569-3.694c-0.297-1.556-0.081-3.191-0.688-4.675
		c0.432-1.658,0.688-3.363,0.826-5.072C337.353,233.281,338.137,231.482,339.879,230.636z"/>
	<path d="M273.867,293.588c2.225-0.049,4.205-1.088,6.287-1.736c2.224,0.164,4.099,1.537,6.009,2.569
		c1.399,0.71,2.012,2.259,2.812,3.527c1.188,1.94,0.721,4.325,0.672,6.479c-0.082,2.37-0.959,4.723-2.623,6.438
		c-1.108,1.064-1.854,2.645-3.402,3.107c-1.842,0.613-3.949,1.385-5.779,0.405c-2.146-1.108-4.713-1.637-6.308-3.563
		c-1.468-1.529-2.677-3.369-3.052-5.481c-0.652-2.368,0.432-4.701,1.271-6.868C270.854,296.639,272.555,295.264,273.867,293.588z"/>
</g>
<g id="bounds">
	<rect fill="none" stroke="#000000" stroke-miterlimit="10" width="600" height="600"/>
</g>
</svg>
