<?xml version="1.0" encoding="utf-8"?>
<!-- Generator: Adobe Illustrator 15.0.2, SVG Export Plug-In . SVG Version: 6.00 Build 0)  -->
<!DOCTYPE svg PUBLIC "-//W3C//DTD SVG 1.1 Basic//EN" "http://www.w3.org/Graphics/SVG/1.1/DTD/svg11-basic.dtd">
<svg version="1.1" baseProfile="basic" xmlns="http://www.w3.org/2000/svg" xmlns:xlink="http://www.w3.org/1999/xlink" x="0px"
	 y="0px" width="530px" height="530px" viewBox="0 0 530 530" xml:space="preserve">
<g id="Layer_1">
	<path fill="#008847" d="M588.5,255.499c0,0-45-32-58.5-39.301l-0.761,1.029c-0.006-0.316-0.021-0.632-0.021-0.948
		c-7.857-4.24-14.239-10.71-21.42-15.95c0.19-1.55,0.4-3.09,0.629-4.64c-0.93,0.98-1.879,1.97-2.75,2.96
		c-2.478-1.92-4.967-3.82-7.438-5.71c1.271-2.428,2.552-4.87,3.562-7.44c-2.566,1.19-4.41,3.34-6.146,5.46
		c-4.85-3.68-10.589-5.8-15.86-8.75c0.299-1.33,0.61-2.66,0.94-3.988c-0.94,0.968-1.844,1.948-2.712,2.938
		c-2.989-1.322-5.909-2.781-8.802-4.26c0.25-0.879,0.52-1.77,0.83-2.65c-0.199-0.22-0.601-0.66-0.799-0.88
		c-0.433,0.652-1.291,1.942-1.722,2.59c-12.33-6.081-24.75-11.969-36.858-18.479c0.18-1.73,0.379-3.471,0.58-5.2
		c-0.99,1.36-1.92,2.77-2.82,4.17c-5.531-2.88-11.111-5.63-16.641-8.49c-0.17-1.648-0.32-3.3-0.449-4.948
		c-0.691,1.21-1.461,2.358-2.301,3.448c-6.75-3.43-13.529-6.84-20.74-9.18c-20.459-7.808-41.468-14.2-62.988-18.28h-18.521
		l1.642,0.402c-9.29,1.76-18.511,4.04-27.37,7.33c-11.701,5.04-22.458,11.938-33.56,18.12c-6.75,4.27-14.472,7.17-20.211,12.88
		c-3.681,3.338-7.381,6.648-11.131,9.898c-4.978,4.19-8,10.08-11.568,15.4c-7.29,11.22-13.57,23.09-18.65,35.47
		c-0.661-0.29-1.98-0.88-2.64-1.17c0.56,1.16,1.15,2.322,1.77,3.47c-6.02,17.182-12.74,34.222-16.31,52.12
		c-1.341,5.262-1.721,10.691-1.51,16.102c0.25,9.802-0.702,19.701,1.108,29.41c2.78,19.75,11.24,38.008,18.42,56.438
		c2.92,7.29,6.03,14.51,8.9,21.829c-1.53,0.822-3.09,1.601-4.551,2.471c1.832,0.21,3.721,0.219,5.561,0.609
		c2.4,5.701,6.218,10.57,9.61,15.701c-1.291,0.898-2.549,1.82-3.771,2.76c1.722-0.26,3.46-0.541,5.21-0.84
		c4.351,6.147,8.512,12.438,12.83,18.617c-1.14,1.343-2.3,2.664-3.35,4.062c1.611-0.562,3.199-1.17,4.84-1.75
		c2.838,4.302,5.808,8.53,8.479,12.95c-1.061,1.148-2.101,2.309-3.101,3.479c1.15-0.357,3.46-1.09,4.61-1.46
		c2.329,3.467,4.61,6.979,6.84,10.528c-1.11,1.33-2.25,2.652-3.28,4.012c1.572-0.552,3.232-1.108,4.852-1.67
		c1.69,2.579,3.419,5.138,5.18,7.688c-3.261,1.891-6.56,3.73-9.721,5.771c4.311,1.451,8.561-1.839,12.761-2.61
		c3.849,4.183,7.63,8.433,11.37,12.712c-3.62,2.231-7.429,4.329-10.2,7.631c4.37-1.25,8.46-3.258,12.71-4.858
		c8.35,9.079,16.331,18.48,24.6,27.641c-2.628,3.112-5.258,6.23-7.438,9.681c3.898-1.492,7.348-3.872,10.729-6.312
		c2.302,2.172,4.552,4.41,6.949,6.489h0.739l-0.001,0.001L342.5,572.5l22.225,27.5H600V266.376
		C595,262.376,588.5,255.499,588.5,255.499z"/>
	<path d="M365.051,201.59c4.271-0.658,9.062-0.488,12.619,2.302c2.58,2.02,5.528,3.76,7.569,6.39c3.129,5.8,4.316,13.31,0.697,19.19
		c-3.578,5.448-10.18,7.79-16.271,9.09c-4.931,1.3-8.609-2.9-12-5.73c-4.021-3.068-6.029-7.95-7.14-12.729
		C349.721,211.32,357.45,204.28,365.051,201.59z"/>
	<path d="M256.941,313.439c6.34-1.853,11.55,3.607,15.2,8.068c4.25,3.979,3.75,10.319,3.291,15.609
		c-0.131,4.391-3.971,7.25-7.512,9.104c-3.359,1.979-7.489,2.879-11.239,1.549c-5.63-1.869-12.48-3.938-14.511-10.223
		c-0.979-6.271,0.921-12.67,3.569-18.311C248.832,316.391,252.962,314.761,256.941,313.439z"/>
	<polygon fill="#008847" points="316.5,525.5 298.5,545.5 311.833,538.166 324.5,531.833 	"/>
	<polygon fill="#008847" points="333.833,535.5 323.166,556.833 329.5,554.166 344.333,545.5 	"/>
	<polygon fill="#008847" points="349.231,552.234 337.166,570.166 333.833,576.166 341.638,571.674 354.833,565.166 	"/>
	<polygon fill="#008847" points="366.009,572.366 351.5,588.166 344.333,596.833 352.75,593.5 374.396,582.433 	"/>
	<polygon fill="#008847" points="531.684,252.341 543.518,238.811 555.352,222.981 552.5,233.833 539.652,259.159 	"/>
	<polygon fill="#008847" points="547.202,261.988 560.167,243.5 566.055,239.789 560.624,248.985 553.493,268.5 	"/>
	<polygon fill="#008847" points="560.624,268.5 576.834,250.833 589.5,241.833 581.595,254.145 571.025,276.484 	"/>
	<polygon fill="#008847" points="579.917,285.057 589.5,269.957 594.178,265 587.047,285.057 	"/>
</g>
<g id="bounds">
	<rect fill="none" stroke="#000000" stroke-miterlimit="10" width="600" height="600"/>
</g>
</svg>
