<?xml version="1.0" encoding="utf-8"?>
<!-- Generator: Adobe Illustrator 16.0.0, SVG Export Plug-In . SVG Version: 6.00 Build 0)  -->
<!DOCTYPE svg PUBLIC "-//W3C//DTD SVG 1.1 Basic//EN" "http://www.w3.org/Graphics/SVG/1.1/DTD/svg11-basic.dtd">
<svg version="1.1" baseProfile="basic" id="Livello_1"
	 xmlns="http://www.w3.org/2000/svg" xmlns:xlink="http://www.w3.org/1999/xlink" x="0px" y="0px" width="768px"
	 height="1024.604px" viewBox="0 0 768 1024.604" xml:space="preserve">
<g id="_x23_cd031bff">
	<path fill="#CC051D" d="M552.508,398.131c8.783-8.836,17.547-20.673,31.228-21.016c12.92,0.922,24.251,8.747,32.346,18.468
		c7.138,10.48,7.41,23.763,6.106,35.924c-1.372,8.023-7.968,13.119-12.685,19.155c-10.553,5.475-23.274,8.348-35.058,5.564
		c-14.04-2.148-25.316-14.274-28.659-27.756C542.462,417.882,548.388,407.564,552.508,398.131z"/>
	<path fill="#CC051D" d="M369.616,610.389c12.107-3.055,23.999,3.977,32.834,11.691c9.993,8.818,12.704,23.04,11.817,35.799
		c0.435,10.535-7.065,18.882-14.148,25.713c-10.156,4.5-21.757,7.464-32.871,5.151c-17.764-2.352-32.256-20.005-30.756-37.931
		c0.994-5.639,3.488-10.824,5.439-16.155c2.188-6.271,7.896-10.191,12.36-14.765C358.791,615.846,363.309,611.237,369.616,610.389z"
		/>
	<path fill="#CC051D" d="M156.528,822.013c9.668-2.477,20.185-1.554,29.382,2.331c12.758,6.561,21.919,20.691,20.781,35.257
		c-2.404,7.265-4.373,14.998-8.638,21.413c-8.33,7.644-15.794,18.359-27.992,19.498c-12.017,0.471-23.13-6.217-31.424-14.438
		c-10.083-9.976-10.571-25.479-9.379-38.727c0.958-8.022,6.904-13.787,12.343-19.154
		C145.287,823.802,151.431,823.657,156.528,822.013z"/>
</g>
<g id="_x23_010101ff">
	<path fill="#010101" d="M132.927,385.79c11.348-6.252,24.576-5.766,37.099-5.042c9.867,5.656,21.251,10.155,27.775,20.022
		c5.439,8.186,4.283,18.431,4.264,27.738c-2.909,10.824-8.312,22.317-19.01,27.34c-11.186,6.561-25.136,4.682-36.394-0.704
		c-11.403-3.902-17.673-14.817-25.083-23.51c-4.337-4.102-2.891-10.408-3.47-15.703c0.037-6.163-1.644-13.336,2.602-18.522
		C124.47,393.252,128.391,389.132,132.927,385.79z"/>
	<path fill="#010101" d="M573.812,819.646c12.434-4.5,25.985-0.091,37.046,6.071c8.421,5.439,13.715,14.275,20.04,21.828
		c2.872,2.82,1.987,7.085,2.386,10.734c-0.056,7.354,2.097,15.577-2.313,22.153c-4.301,4.572-8.674,9.289-14.04,12.614
		c-11.132,4.934-23.563,5.149-35.475,3.794c-11.835-6.069-26.058-12.306-30.593-25.968c-1.646-6.414-1.771-13.173-1.752-19.768
		C551.749,837.536,559.881,823.892,573.812,819.646z"/>
</g>
</svg>
