<?xml version="1.0" encoding="utf-8"?>
<!-- Generator: Adobe Illustrator 15.0.2, SVG Export Plug-In . SVG Version: 6.00 Build 0)  -->
<!DOCTYPE svg PUBLIC "-//W3C//DTD SVG 1.1 Basic//EN" "http://www.w3.org/Graphics/SVG/1.1/DTD/svg11-basic.dtd">
<svg version="1.1" baseProfile="basic" id="Livello_1"
	 xmlns="http://www.w3.org/2000/svg" xmlns:xlink="http://www.w3.org/1999/xlink" x="0px" y="0px" width="768px" height="1024px"
	 viewBox="0 0 768 1024" xml:space="preserve">
<g id="_x23_010101ff">
	<path fill="#010101" d="M0,0h768v1024H0V0"/>
</g>
<g id="_x23_009144ff">
	<path fill="#009144" d="M408.42,220.47c7.189-2.66,15.021-2.24,22.529-1.7c7.221,0.36,12.88,5.36,19.25,8.15
		c7,3.09,9.53,10.92,11.819,17.59c1.45,7.03,1.41,14.31,1.381,21.46c-1.58,4.65-3.641,9.19-5.939,13.53
		c-5.79,7.13-14.061,11.63-22.28,15.399c-4.939,2.551-10.62,4.28-16.199,3.2c-8.439-1.71-16.189-5.95-23.021-11.09
		c-5.25-4.58-9.431-10.23-14.061-15.41c-1.92-10.78-2.12-22.32,2.26-32.55c1.25-3.13,3.811-5.43,6.359-7.51
		C395.97,227.12,401.73,222.83,408.42,220.47z"/>
	<path fill="#009144" d="M342.17,884.3c7.939-6.08,18.619-5.04,27.97-4.181c1.689,0.229,3.391,0.511,5.061,0.891
		c4.551,1.33,9.511,2.319,13.109,5.641c3.851,3.479,8.16,6.869,10.2,11.811c1.819,4.31,3.25,8.77,4.771,13.199
		c1.87,5.24,1.779,10.899,1.511,16.391c-0.061,4.391-2.801,8.04-5.301,11.42c-3.601,4.99-8.101,9.229-12.221,13.79
		c-2.55,3.04-6.72,3.5-10.22,4.83c-5.271,1.529-10.479,4.699-16.149,3.479c-4.82-0.92-9.561-2.37-13.99-4.45
		c-5.25-2.439-8.88-7.09-12.819-11.141c-7.87-8.51-12.851-20.25-11.101-31.93C325.85,902.39,332.82,891.78,342.17,884.3z"/>
</g>
<g id="_x23_3754a0ff">
	<path fill="#3754A0" d="M276.86,270.95c0.931-2.99,2.32-5.811,3.83-8.54c15.57,2.52,31,5.75,46.32,9.52
		c27.971,6.47,55.721,14.15,82.489,24.59c4.83,1.91,9.801,3.45,14.601,5.431c-11.34,7.31-23.569,13.06-35.239,19.8
		c-5.36,3.22-11.471,5.2-16.399,9.08c0.42,1.359,1,2.68,1.699,3.93c9.811,16.12,18.13,33.09,27.87,49.26
		c15.229,25.49,29.489,51.55,44.83,76.98c9.779,18.39,20.09,36.5,30.351,54.64c20.979,37.91,41.569,76.04,62.59,113.92
		c-10.24,7.431-21.689,12.971-32.45,19.591C495.53,656,483.97,663.3,472.15,670.17c-5.49,3.29-11.181,6.271-16.439,9.92
		c-1.181-0.37-2.341-0.721-3.5-1.08c-28.78-49.16-55.57-99.46-82.83-149.471c-5.37-9.01-9.841-18.529-15.479-27.369
		c-19.21-34.98-36.021-71.23-56.189-105.69c-3.9-7.439-9.07-14.09-13.4-21.27c-5.41,0.84-9.689,4.55-14.58,6.729
		c-9.77,5.471-20.609,8.48-30.89,12.79c-2.34,0.91-4.73,1.681-7.12,2.42c2.17-9.069,5.66-17.729,8.59-26.56
		c4.07-13.39,9.221-26.42,13.65-39.68c3.31-9.771,7.49-19.19,10.87-28.931C268.59,291.54,273.57,281.56,276.86,270.95z"/>
</g>
<g id="_x23_cd031bff">
	<path fill="#CD031B" d="M420.44,689.27c9.88-3.479,19.46-7.869,29.55-10.729c0.561,0.12,1.67,0.351,2.221,0.471
		c1.159,0.359,2.319,0.71,3.5,1.08c0.43,0.12,1.29,0.37,1.72,0.489c-8.569,20.08-16.41,40.46-24.84,60.591
		c-7.49,16.92-13.71,34.351-21.149,51.29c-5.57,14.319-11.71,28.409-17.471,42.659c-6.479,15.2-12.601,30.561-18.771,45.891
		c-1.67-0.38-3.37-0.659-5.061-0.891c-3.449-6.779-7.569-13.199-10.859-20.069c-8.351-14.96-14.771-31.04-18-47.899
		c-3.479-11.46-1.641-23.49-0.271-35.12c2.521-11.399,5.471-22.84,10.601-33.391c3.899-7.449,9.17-14.05,14.609-20.43
		c5.979-7.801,13.761-14.229,22.721-18.32C399.56,699.93,409.73,694.03,420.44,689.27z"/>
</g>
</svg>
