<?xml version="1.0" encoding="utf-8"?>
<!-- Generator: Adobe Illustrator 15.0.2, SVG Export Plug-In . SVG Version: 6.00 Build 0)  -->
<!DOCTYPE svg PUBLIC "-//W3C//DTD SVG 1.1 Basic//EN" "http://www.w3.org/Graphics/SVG/1.1/DTD/svg11-basic.dtd">
<svg version="1.1" baseProfile="basic" id="Livello_1"
	 xmlns="http://www.w3.org/2000/svg" xmlns:xlink="http://www.w3.org/1999/xlink" x="0px" y="0px" width="768px" height="1024px"
	 viewBox="0 0 768 1024" xml:space="preserve">
<g id="_x23_010101ff">
	<path fill="#010101" d="M0,0h768v1024H0V0"/>
</g>
<g id="_x23_cd031bff">
	<path fill="#CD031B" d="M355.1,225.12c1.439-3.351,4.96-5.17,8.33-5.98c6.261,19.92,12.649,39.8,18.83,59.74
		c1.46,4.91,2.59,9.93,4.54,14.68c13.29,42.11,26.21,84.38,39.521,126.47c-0.229,0.431-0.67,1.28-0.899,1.71
		c-5.171-2.479-10.71-4.01-16.04-6.079c-15.149-6.25-30.591-12.4-43.74-22.391c-6.659-5.25-14.3-9.649-19.109-16.84
		c-4.29-6.01-8.939-11.89-11.859-18.72c-4.561-8.811-8.229-18.03-10.931-27.57c-1.42-10.32-1.471-20.75-1.149-31.15
		c0.7-7.199,2.72-14.31,5.95-20.789c4.18-9.44,7.979-19.051,12.47-28.351C345.56,241.53,350.24,233.27,355.1,225.12z"/>
</g>
<g id="_x23_009144ff">
	<path fill="#009144" d="M436.409,417.69c4.551-2.14,9.74-0.35,14.561-0.43c4.931-0.021,8.84,3.29,12.851,5.7
		c4.569,2.699,7.989,6.84,11.939,10.31c4.45,3.95,7.859,9.57,7.87,15.671c0.649,10.34-1.03,21.18-6.521,30.109
		c-2.391,3.899-3.521,9.12-8.061,11.16c-8.83,4.8-18.979,8.17-29.13,7.01c-6.229-1.779-11.5-5.83-16.801-9.409
		c-9.84-7.131-14.47-19.181-16.409-30.761c0.51-5.71,1.46-11.37,2.05-17.069c0.899-5.601,5.55-9.21,9.399-12.881
		C423.329,422.4,430.28,420.71,436.409,417.69z"/>
	<path fill="#009144" d="M308.5,899.77c2.409-0.789,4.96-1.5,7.5-0.949c8.529,1.71,16.56,5.181,24.5,8.62
		c2.979,2.739,5.159,6.21,7.859,9.22c2.47,3.21,6.141,5.979,6.449,10.351c1.03,7.649,1.971,16.04-1.699,23.181
		c-2.439,5.539-5.341,10.92-9.141,15.67c-4.279,5.439-10.601,8.899-17.01,11.229c-8.53,1.489-17.28,0.229-25.479-2.351
		c-4.951-2.101-10.42-3.91-13.891-8.279c-5.521-6.301-7.57-14.771-9.29-22.761c-0.55-5.069-1.75-10.479,0.24-15.37
		c1.42-3.72,2.58-7.63,5.05-10.811c3.41-4.289,7.96-7.43,12.06-11.01C299.31,903.24,303.9,901.3,308.5,899.77z"/>
</g>
<g id="_x23_3754a0ff">
	<path fill="#3754A0" d="M450.949,499.4c1.04,0.04,2.13-0.181,3.13,0.22c10.2,4.28,19.881,9.689,30.03,14.11
		c14.87,7.271,30.149,13.67,44.93,21.159c2.9,1.55,6.301,2.32,8.641,4.79c-4.689,8.891-8.609,18.16-13.08,27.149
		c-13.819,27.761-27.58,55.561-42.09,82.95c-11.3,22.29-22.92,44.42-33.67,66.979c-18.351,35.68-39.141,70.12-55.511,106.811
		c-1.409,4.29-4.329,8.21-4.109,12.909c12.5,5.62,24.221,12.841,35.16,21.08c3.101,2.511,6.83,4.229,9.479,7.271
		c-35.03,10.08-70.221,19.851-105.87,27.609c-4.989,1.171-10.109,1.86-14.979,3.511c-3.58,1.181-7.3,2.101-11.09,1.609
		c-11.82-25.949-21.95-52.67-30.98-79.71c-5.949-17.21-9.38-35.13-14.54-52.569c5.42,0.51,10.051,3.891,14.801,6.311
		c9.659,4.68,19.189,9.63,28.619,14.77c2.34,1.25,4.529,2.99,7.26,3.301c5.841-11.46,10.9-23.311,17.24-34.521
		c5.311-11.33,11.21-22.41,16.101-33.95c9.25-18.819,18.6-37.6,27.17-56.729c18.319-35.24,35.3-71.15,53.779-106.312
		c7.86-15.699,15.851-31.35,23.79-47.01C446.77,507.06,449.75,503.65,450.949,499.4z"/>
</g>
</svg>
