<?xml version="1.0" encoding="utf-8"?>
<!-- Generator: Adobe Illustrator 15.0.2, SVG Export Plug-In . SVG Version: 6.00 Build 0)  -->
<!DOCTYPE svg PUBLIC "-//W3C//DTD SVG 1.1//EN" "http://www.w3.org/Graphics/SVG/1.1/DTD/svg11.dtd">
<svg version="1.1" id="Livello_1" xmlns="http://www.w3.org/2000/svg" xmlns:xlink="http://www.w3.org/1999/xlink" x="0px" y="0px"
	 width="886px" height="886px" viewBox="0 0 886 886" enable-background="new 0 0 886 886" xml:space="preserve">
<g id="_x23_cd031bff">
	<path fill="#CB021A" d="M396.909,560.03c18.659-2.399,37.409-4.189,56.069-6.649c7.67-0.37,15.33,0.609,22.979,1.13
		c19.65,1.46,39.262,4.011,58.512,8.229c18.01,7.41,35.64,15.739,52.74,25.05c23.92,13.46,43.198,33.311,63.328,51.631
		c12.45,13.25,25.12,26.351,36.552,40.479c-7.341-2.57-14.472-5.721-21.682-8.62c-12.898-6.439-26.55-11.181-39.81-16.79
		c-12.48-4.7-24.53-10.439-37.04-15.04c-18.22-6.939-37-12.26-55.8-17.33c-19.83-3.13-39.802-5.239-59.79-6.979
		c-6.98-1.01-13.99,0.381-20.99,0.12c-23.521,1.46-47.49,2.391-70.03,9.83c-14,2.899-27.329,8.13-40.619,13.26
		c-16.511,5.86-32.649,12.681-48.919,19.16c-13.392,4.649-26.36,10.391-39.632,15.359c-7.79,3.221-15.77,6.011-23.408,9.57
		c5.988-9.49,13.488-17.891,20.38-26.721c10.43-11.54,21.068-22.939,32.68-33.311c17.71-13.05,36.04-25.239,53.91-38.069
		c4.88-2.96,10.04-5.41,15.109-8.03c6.199-3.521,13.149-5.34,19.721-8.021C379.68,565.33,388.22,562.39,396.909,560.03z"/>
</g>
</svg>
