<?xml version="1.0" encoding="utf-8"?>
<!-- Generator: Adobe Illustrator 16.0.0, SVG Export Plug-In . SVG Version: 6.00 Build 0)  -->
<!DOCTYPE svg PUBLIC "-//W3C//DTD SVG 1.1 Basic//EN" "http://www.w3.org/Graphics/SVG/1.1/DTD/svg11-basic.dtd">
<svg version="1.1" baseProfile="basic" id="Livello_1"
	 xmlns="http://www.w3.org/2000/svg" xmlns:xlink="http://www.w3.org/1999/xlink" x="0px" y="0px" width="768px"
	 height="1024.604px" viewBox="0 0 768 1024.604" xml:space="preserve">
<g id="_x23_14267aff">
	<path fill="#1C2974" d="M352.359,257.885c11.258-2.494,22.876-0.867,34.298-1.319c7.823,0.343,15.955-1.157,23.51,1.518
		c8.312,0.163,16.496,1.735,24.647,3.325c9.757,1.518,19.118,4.735,28.644,7.265c10.461,2.674,19.966,8.24,30.628,10.12
		c6.759,3.252,13.48,6.577,20.167,10.01c0.831,0.181,2.53,0.579,3.36,0.76c10.083,7.011,21.704,11.438,32.581,17.059
		c1.97,1.301,3.868,2.674,5.766,4.102c0.866,0.035,2.565,0.108,3.433,0.145c0.831,0.867,2.477,2.638,3.308,3.523
		c0.995,0.091,2.981,0.271,3.994,0.362c4.518,4.047,9.36,7.77,14.421,11.131c10.19,7.174,18.558,16.444,27.306,25.209
		c10.39,9.613,19.551,20.329,28.769,31.044c16.047,20.222,34.225,38.96,47.2,61.44c4.625,6.561,9.486,12.994,12.919,20.294
		c0.127,0.759,0.397,2.294,0.542,3.054c3.688,7.047,6.741,14.42,9.181,21.992c0.669,0.831,1.988,2.53,2.658,3.361
		c0.83,3.09,1.823,6.126,2.673,9.216c0.977,1.843,1.952,3.687,2.944,5.529c0.146,0.776,0.417,2.332,0.562,3.107
		c1.445,3.056,2.818,6.146,3.974,9.325c4.304,8.691,4.121,18.649,6.38,27.92c3.181,14.347,4.861,28.947,7.338,43.422
		c0.162,18.632,0.541,37.316-0.38,55.948c-1.555,10.588-2.656,21.269-5.492,31.659c-1.283,4.916-2.568,9.829-4.304,14.618
		c-0.577,1.861-1.174,3.705-1.807,5.549c-1.102,5.456-2.963,10.715-4.626,16.009c-2.945,8.584-6.289,17.021-9.722,25.408
		c-1.03,2.639-2.422,5.097-3.977,7.463c-0.145,0.796-0.415,2.367-0.56,3.145c-9.379,18.071-18.215,36.396-27.434,54.537
		c-8.601,16.209-20.31,30.378-31.297,44.979c-9.018,11.438-20.095,21.068-30.268,31.424c-10.066,7.771-19.591,16.174-29.095,24.613
		c-3.072,4.5-8.149,6.831-12.667,9.559c-5.965,3.38-11.367,7.608-17.203,11.149c-6.921,3.74-14.097,7.028-21.035,10.771
		c-0.794,0.107-2.403,0.324-3.197,0.435c-3.544,2.132-7.049,4.391-10.935,5.891c-4.191,1.808-8.312,3.776-12.559,5.438
		c-9.215,4.084-19.153,6.197-28.805,8.945c-9.669,3.125-19.354,6.18-29.131,8.945c-8.729,3.106-17.583,6.215-26.869,7.011
		c-0.67,0.308-1.988,0.958-2.64,1.267c-12.145,1.571-24.217,4.407-36.521,3.938c-16.391-0.271-32.815,0.38-49.206-0.379
		c-14.457-3.887-29.871-4.066-43.786-10.029c-4.789-1.518-9.541-3.182-14.348-4.662c-5.53-1.861-11.113-3.632-16.407-6.127
		c-9.795-3.07-19.462-6.577-28.805-10.806c-4.301-2.241-8.656-4.41-12.631-7.192c-26.003-16.01-50.2-34.839-72.174-56.02
		c-15.342-12.271-28.714-27.178-40.298-43.025c-8.095-11.239-16.479-22.264-23.582-34.172c-8.023-10.535-11.529-23.382-18.36-34.568
		c-0.126-0.831-0.379-2.492-0.506-3.323c-5.005-10.031-8.854-20.603-12.957-31.011c-1.753-5.565-3.542-11.132-6.018-16.407
		c-1.518-4.915-3.108-9.812-5.494-14.366c-1.988-6.182-3.849-12.378-5.529-18.63c-2.205-12.055-3.94-24.18-5.711-36.286
		c-0.325-19.896-0.054-39.828-0.198-59.725c0.055-5.239-0.343-10.625,1.391-15.668c1.121-9.686,3.307-19.207,5.277-28.73
		c1.138-4.862,2.331-9.704,3.596-14.529c2.421-9.759,6.072-19.153,9.162-28.73c3.524-10.318,6.469-20.836,10.734-30.884
		c1.572-4.265,3.505-8.349,5.493-12.415c6.199-10.137,11.493-20.835,18.017-30.773c7.209-11.204,15.324-21.794,22.931-32.727
		c7.138-8.023,13.39-16.805,20.366-24.992c0.813-1.481,1.825-2.818,2.999-4.03c14.602-11.944,29.275-23.816,43.714-35.96
		c16.697-11.547,32.364-24.648,50.001-34.769c5.873-3.921,11.728-8.095,18.648-9.974c6.687-2.928,12.993-6.759,19.933-9.144
		c4.698-2.133,9.559-3.85,14.492-5.368c11.402-4.029,23.185-6.885,34.768-10.354c7.373-2.259,15.035-3.523,22.75-3.921
		C337.974,256.981,345.419,259.349,352.359,257.885"/>
</g>
<g id="_x23_3754a0ff">
	<path fill="#38549E" d="M315.585,310.398c15.612,28.028,30.033,56.941,40.243,87.425c3.649,14.62,8.42,28.896,12.414,43.405
		c7.391,40.895,12.758,82.168,21.578,122.79c2.167,14.619,5.185,29.112,9.468,43.263c1.572,7.209,2.241,16.082-3.433,21.755
		c-4.212,4.465-8.712,9.597-14.929,11.06c-30.666,3.958-61.114,9.577-91.852,13.066c-10.229,1.048-20.33,3.432-30.667,3.506
		c-18.053-0.127-36.141,0.667-54.158-0.979c-14.745,0.037-29.798-0.359-43.749-5.745c8.873-6.181,18.162-12.271,28.877-14.637
		c20.474-6.127,40.1-16.229,61.748-17.637c32.888-10.158,66.789-16.481,100.616-22.716c-4.047-24.612-6.902-49.422-12.613-73.747
		c-6.487-26.472-10.209-53.506-15.757-80.178c-2.295-12.596-2.946-25.443-4.969-38.093
		C313.795,372.326,313.416,341.227,315.585,310.398z"/>
</g>
<g id="_x23_cd031bff">
	<path fill="#CC051D" d="M88.727,578.621c6.487-2.097,13.336-2.656,19.896-4.482c7.481,2.387,14.692,5.512,21.703,9.035
		c2.909,7.301,4.878,14.98,4.354,22.914c-0.849,0.308-2.53,0.939-3.378,1.246c-3.307,9.09-12.975,12.47-19.788,18.343
		c-6.903,0.831-13.318-1.97-19.607-4.338c-5.258-5.818-12.143-10.391-15.721-17.492c-3-5.908-0.832-12.451,1.066-18.287
		C81.101,583.283,84.697,580.572,88.727,578.621z"/>
	<path fill="#CC051D" d="M615.973,593.98c12.54-9.723,29.617-9.813,44.146-5.061c5.204,5.276,9.325,11.457,12.921,17.889
		c-2.44,7.682-4.752,15.415-8.059,22.771c-8.929,3.759-17.854,8.04-27.45,9.667c-12.612,1.013-19.878-11.005-26.962-19.408
		C609.358,611.255,606.575,599.005,615.973,593.98z"/>
	<path fill="#CC051D" d="M319.922,864.678c27.575-5.005,55.802-6.035,83.685-3.127c0.688,0.651,2.078,1.951,2.784,2.604
		c3.702,0.324,7.427,0.669,11.149,1.029c-3.614,12.487-13.338,21.849-23.403,29.438c-9.089,5.818-20.166,11.347-31.152,8.239
		c-11.818-2.493-20.8-11.077-29.131-19.228C330.023,876.748,325.072,870.623,319.922,864.678z"/>
</g>
</svg>
