<?xml version="1.0" encoding="utf-8"?>
<!-- Generator: Adobe Illustrator 16.0.0, SVG Export Plug-In . SVG Version: 6.00 Build 0)  -->
<!DOCTYPE svg PUBLIC "-//W3C//DTD SVG 1.1 Basic//EN" "http://www.w3.org/Graphics/SVG/1.1/DTD/svg11-basic.dtd">
<svg version="1.1" baseProfile="basic" id="Livello_1"
	 xmlns="http://www.w3.org/2000/svg" xmlns:xlink="http://www.w3.org/1999/xlink" x="0px" y="0px" width="768px"
	 height="1024.604px" viewBox="0 0 768 1024.604" xml:space="preserve">
<g id="_x23_ed7304ff">
	<path fill="#EC7409" d="M349.088,256.909c14.203-2.747,28.732-1.029,43.097-1.5c13.917-0.687,27.596,2.313,41.349,3.868
		c0.775,0.271,2.312,0.831,3.09,1.102c18.287,3.343,36.086,9.071,53.271,16.083c10.79,2.276,19.788,9.251,30.36,12.161
		c0.415,0.615,1.246,1.844,1.662,2.458c4.915,2.187,9.702,4.626,14.439,7.156c5.039,2.241,9.974,4.716,14.926,7.192
		c1.879,1.048,3.738,2.114,5.618,3.162c2.604,1.409,5.187,2.819,7.753,4.319c0.958,0.162,2.873,0.488,3.831,0.65
		c1.428,1.536,2.872,3.071,4.319,4.626c0.85,0.362,2.565,1.084,3.414,1.445c3.813,3.29,7.897,6.289,11.729,9.578
		c0.704,0.289,2.113,0.867,2.836,1.156c12.233,12.252,24.25,24.738,36.827,36.647c0.236,0.795,0.724,2.404,0.959,3.199
		c4.281,3.794,8.331,7.932,11.365,12.83c1.752,1.897,3.542,3.777,5.35,5.656c1.158,1.716,2.312,3.451,3.47,5.204
		c4.373,4.59,8.331,9.56,12.433,14.403c3.416,3.687,6.324,7.77,9.324,11.8c1.844,2.476,3.741,4.916,5.693,7.3
		c1.697,2.691,3.396,5.368,5.148,8.041c2.493,3.561,4.752,7.266,7.049,10.97c1.229,1.409,2.455,2.836,3.687,4.283
		c2.476,4.571,4.952,9.18,7.102,13.932c3.146,8.132,7.12,15.957,9.505,24.377c0.398-0.036,1.192-0.107,1.59-0.144
		c0.977,3.396,2.044,6.775,3.128,10.154c2.169,4.861,3.958,9.903,5.511,15l1.445-0.072c0.072,1.012,0.217,3.019,0.289,4.03
		c2.729,3.829,3.396,8.491,4.065,13.046c3.813,19.301,7.355,38.636,9.903,58.151c0.56,13.822-0.055,27.702,0.234,41.544
		c-0.183,7.191,0.722,14.582-1.338,21.575c-0.198,7.519-1.245,14.981-3.903,22.029c-0.181,2.005-0.361,3.993-0.504,6.018h-1.248
		c-0.361,2.729-0.704,5.457-1.156,8.167c-2.403,6.436-3.958,13.139-5.982,19.682c-4.606,13.821-8.997,27.953-16.244,40.641
		c-0.146,1.012-0.434,3.053-0.577,4.065l-0.923-0.073c-2.133,5.223-4.645,10.265-7.371,15.18
		c-4.827,9.704-9.325,19.57-14.584,29.058c-2.477,5.603-5.387,11.005-8.655,16.191c-3.343,5.583-6.85,11.077-10.716,16.336
		c-2.548,3.56-5.151,7.083-7.681,10.68c-2.459,2.98-4.845,6.035-7.354,8.98c-1.066,1.733-2.132,3.507-3.162,5.275
		c-8.584,8.367-16.806,17.096-25.444,25.408c-1.191,1.265-2.365,2.566-3.541,3.867c-1.915,1.229-3.85,2.421-5.782,3.613
		c-1.121,1.246-2.241,2.512-3.325,3.776c-1.808,1.065-3.578,2.15-5.35,3.234c-4.625,4.842-9.379,9.649-15.069,13.281
		c-0.218,0.868-0.651,2.603-0.868,3.471c-0.938,0.253-2.836,0.759-3.776,1.012c-2.838,2.113-5.817,4.012-8.817,5.873
		c-1.952,1.247-3.887,2.493-5.818,3.76c-4.607,3.288-9.434,6.27-14.547,8.744c-5.368,2.693-10.662,5.478-16.102,8.006
		c-3.324,1.375-6.562,2.875-9.703,4.59c-1.862,0.867-3.723,1.699-5.55,2.586c-12.575,6.16-25.983,10.336-39.572,13.553
		c-2.784,0.921-5.565,1.77-8.352,2.711c-15.882,4.535-31.26,10.986-47.633,13.697c-9.921,2.331-20.04,4.083-30.215,4.788
		c-20.419,0.162-40.857,0.036-61.276,0.145c-0.795-0.435-2.35-1.301-3.145-1.734c-13.499-1.012-26.943-3.866-39.9-7.824l0.145-0.994
		c-7.625-1.627-14.962-4.265-22.317-6.776c-17.33-6.434-35.255-11.689-51.067-21.54c-1.771-1.372-3.561-2.747-5.295-4.154
		c-2.404-1.14-4.825-2.225-7.229-3.309c-1.012-1.191-2.005-2.386-3.018-3.561c-2.006-1.211-3.994-2.402-5.963-3.632
		c-10.897-6.867-20.944-14.998-30.611-23.455c-1.175-1.519-2.35-3.019-3.506-4.519c-0.633,0.125-1.898,0.344-2.531,0.452
		l-0.361-1.375c-5.783-4.732-10.535-10.625-16.806-14.764c-7.444-7.046-14.691-14.329-21.883-21.647
		c-2.873-3.759-5.71-7.571-9.233-10.752c-2.53-3.486-4.861-7.084-7.03-10.788c-1.283-1.156-2.548-2.275-3.832-3.396
		c-0.325-0.903-0.976-2.675-1.3-3.562c-2.042-2.547-4.012-5.132-5.909-7.753c-0.47-0.505-1.392-1.553-1.843-2.076
		c-1.97-3.831-4.283-7.464-7.066-10.753c-1.247-2.24-2.458-4.481-3.65-6.74c-1.3-1.771-2.62-3.542-3.921-5.276
		c-4.97-9.595-8.891-19.696-13.915-29.273c-2.095-5.312-4.318-10.571-6.252-15.938c-0.488-0.938-1.464-2.801-1.952-3.724
		c-1.68-4.464-3.342-8.927-4.535-13.533l-0.524-0.109c-3.759-11.801-8.837-23.112-12.794-34.841
		c-5.457-15.956-6.957-32.869-9.342-49.458c-0.362-25.443-0.018-50.922-0.126-76.385l1.644-0.035
		c0-10.156,2.531-20.042,4.717-29.889c2.566-10.373,4.77-20.873,8.529-30.9c2.422-7.211,4.608-14.494,7.192-21.649
		c4.59-15.089,10.102-30.105,18.758-43.388c2.114-4.319,4.336-8.584,6.992-12.613c1.79-3.054,3.561-6.125,5.368-9.18
		c1.897-2.854,3.831-5.692,5.674-8.565c2.295-3.252,4.662-6.451,7.101-9.578c1.302-1.752,2.602-3.505,3.921-5.24
		c0.379-0.759,1.157-2.276,1.536-3.018c2.548-3.126,4.879-6.415,7.518-9.451c4.445-5.15,8.656-10.5,12.522-16.083
		c2.603-2.657,4.898-5.566,6.705-8.819c1.951-1.427,3.938-2.801,5.944-4.156c2.458-2.349,4.934-4.68,7.373-7.047
		c1.753-1.139,3.505-2.277,5.259-3.416c1.121-1.228,2.259-2.421,3.397-3.631c8.891-6.18,16.824-13.625,25.39-20.24
		c1.879-1.228,3.758-2.439,5.673-3.614c1.193-1.336,2.368-2.674,3.561-4.011c0.795-0.272,2.385-0.813,3.198-1.084
		c2.349-2.078,4.735-4.102,7.229-6.018c1.716-1.048,3.416-2.097,5.132-3.126c2.566-2.005,5.168-3.939,7.861-5.783
		c2.476-1.68,4.952-3.397,7.409-5.114c6.18-3.27,11.98-7.191,17.781-11.077c5.801-2.403,11.638-4.716,17.167-7.68
		c8.945-3.849,17.799-8.674,27.594-9.903l-0.904-1.518c0.976-0.019,2.928-0.054,3.904-0.091c8.746-3.325,17.817-6.035,27.087-7.48
		l0.036-0.94c8.223-2.404,16.661-4.518,25.299-4.157c0.776-0.433,2.312-1.319,3.072-1.752
		C338.119,257.253,343.63,257.561,349.088,256.909"/>
</g>
<g id="_x23_3754a0ff">
	<path fill="#38549E" d="M82.095,511.289c-0.055-1.897-0.091-3.776-0.127-5.656c13.463,1.897,27.142,0.596,40.623,2.512
		c15.251,0.524,30.178,3.957,45.357,5.096c4.952,1.191,9.867,2.478,14.746,3.939c1.228,0.199,3.687,0.614,4.897,0.831
		c5.547,1.463,11.149,2.64,16.661,4.246c2.91,0.688,5.819,1.338,8.728,2.043c4.428,1.174,8.819,2.513,13.156,3.976
		c1.066,0.127,3.216,0.397,4.282,0.522c0.615,0.614,1.879,1.808,2.512,2.404c2.386,0.778,4.771,1.59,7.156,2.439
		c12.469,4.318,24.685,9.36,37.153,13.68c6.867,2.872,13.915,5.295,20.942,7.752c3.037,0.921,6.073,1.896,9.126,2.819
		c3.019,1.354,6.035,2.711,9.035,4.118c8.097,2.82,16.554,4.609,24.449,7.987c15.649,6.579,32.438,9.921,47.797,17.239
		c6.651,6.055,12.612,13.301,15.829,21.773c2.223,10.79,5.586,21.36,7.229,32.275c1.988,8.511,3.703,17.112,6.09,25.551
		c0.886,5.513,1.917,11.005,3.47,16.373c0.921,5.386,2.024,10.732,3.18,16.084c0.833,3.576,1.519,7.19,2.313,10.787
		c0.634,3.09,1.283,6.197,2.077,9.271c0.417,5.312,0.634,10.644,1.03,15.975c1.755,16.246,3.523,32.545,3.218,48.918
		c-0.309,14.474,1.95,29.437-2.64,43.459c-0.596,0.253-1.789,0.741-2.386,0.976c-5.565-7.68-11.22-15.54-14.058-24.72
		c-0.741-1.428-1.482-2.854-2.225-4.266c-0.614-2.06-1.264-4.104-1.916-6.125c-5.815-12.072-10.137-24.758-14.979-37.228
		c-2.24-5.908-3.398-12.178-3.938-18.467c-0.579-0.542-1.754-1.628-2.333-2.169c-0.775-2.439-1.553-4.862-2.384-7.246
		c-3-9.759-5.566-19.644-9.09-29.22c-0.181-0.994-0.542-3.019-0.705-4.012c-0.958-2.82-1.861-5.62-2.837-8.403
		c-1.048-4.88-2.188-9.741-3.542-14.547c-1.916-7.266-3.704-14.546-5.674-21.794c-0.289-1.229-0.561-2.438-0.85-3.649
		c-0.85-3.976-1.481-8.007-2.169-12.018c-0.523-3.938-1.029-7.88-1.789-11.781l-0.812-0.903
		c-11.944-3.507-23.763-7.41-35.346-11.944c-1.013-0.127-3.036-0.397-4.048-0.542c-0.614-0.579-1.843-1.734-2.458-2.313
		c-2.639-0.812-5.276-1.662-7.896-2.564c-0.903-0.198-2.71-0.633-3.614-0.851c-3.614-1.48-7.264-2.854-10.915-4.247
		c-9.723-2.637-19.137-6.232-28.769-9.143c-15.757-5.169-31.605-10.066-47.11-15.939c-8.421-3.305-16.932-6.324-25.371-9.577
		c-0.921-0.196-2.783-0.597-3.704-0.794c-7.518-3.688-15.468-6.379-23.022-9.976c-2.674-0.866-5.366-1.735-8.059-2.566
		c0.019-0.27,0.036-0.796,0.055-1.064c-4.283-1.429-8.494-3.019-12.686-4.646c-8.927-4.283-17.872-8.494-26.673-13.029
		c-1.771-1.139-3.523-2.275-5.294-3.396c-7.807-5.06-16.228-9.126-23.691-14.727C87.461,513.602,84.787,512.41,82.095,511.289z"/>
</g>
<g id="_x23_cd031bff">
	<path fill="#CC051D" d="M104.015,575.53c9.325-2.241,17.438,4.373,25.605,7.732c2.078,6.109,3.868,12.308,5.44,18.561
		c-6.561,10.516-15.613,21.125-28.39,23.581c-12.125-0.868-20.961-10.355-28.244-19.118c-5.078-6.343-4.427-16.336,1.626-21.775
		C86.504,578.403,95.702,577.301,104.015,575.53z"/>
	<path fill="#CC051D" d="M633.844,586.77c8.873-2.527,17.836,0.688,26.401,2.839c4.192,5.62,10.174,10.661,11.584,17.817
		c-0.759,7.807-4.681,14.853-7.646,22.01c-8.602,3.776-17.223,8.06-26.582,9.596c-12.468-0.163-21.396-10.86-26.526-21.161
		c-3.435-6.396-0.759-13.625,0.38-20.239C618.231,592.77,625.531,588.342,633.844,586.77z"/>
	<path fill="#CC051D" d="M320.915,864.081c16.607-0.651,32.961-4.445,49.622-3.886c15.773-0.633,31.406,2.043,46.677,5.766
		c-5.295,12.921-15.542,23.058-27.069,30.558c-8.456,5.331-19.011,8.837-28.822,5.188
		C342.348,896.788,331.288,879.242,320.915,864.081z"/>
</g>
</svg>
