<?xml version="1.0" encoding="utf-8"?>
<!-- Generator: Adobe Illustrator 15.0.2, SVG Export Plug-In . SVG Version: 6.00 Build 0)  -->
<!DOCTYPE svg PUBLIC "-//W3C//DTD SVG 1.1 Basic//EN" "http://www.w3.org/Graphics/SVG/1.1/DTD/svg11-basic.dtd">
<svg version="1.1" baseProfile="basic" id="Layer_1"
	 xmlns="http://www.w3.org/2000/svg" xmlns:xlink="http://www.w3.org/1999/xlink" x="0px" y="0px" width="1166px" height="1175px"
	 viewBox="0 0 1166 1175" xml:space="preserve">
<g id="_x23_3754a0ff">
	<path fill="#3754A0" d="M694.43,197.42c12.79-4.51,25.95-8.729,39.6-9.31c10.82,0.24,21.603,1.35,32.38,2.25
		c7.94,0.47,15.08,4.229,22.562,6.54c11.38,4.28,22.77,8.729,34.67,11.39c16.89,3.04,34.22,3.75,51.27,1.78
		c13.24-2.3,26.16-6.09,39.093-9.72c12.51-3.07,25.037-6.75,38.037-6.75c7.303-0.15,14.271,2.357,21.463,3.25
		c1.42,7.64,0.397,15.47,0.81,23.197c0.22,25.683,2.09,51.312,2.54,76.99c0.76,11.32,0.35,22.69,1.38,33.99
		c0.55,20.98-0.14,42,1.08,62.97c-0.06,15.66,0.3,31.32,0.56,46.98c0.603,14.65,0.16,29.32,0.343,43.98
		c0.107,31.987,0.17,63.998,1.02,95.97c-0.16,10.34,0.88,20.7-0.14,31.02c-0.75,7.16-0.643,14.37-1.33,21.54
		c-0.3,7.521-1.41,14.99-1.33,22.53c0.05,4.71-0.393,9.39-0.86,14.08c-0.91,15.62-1.56,31.26-2.6,46.88
		c-3.87,23.3-9.07,46.36-15.01,69.22c-4.78,17.433-10.19,34.73-17.37,51.33c-4.312,10-9.28,19.69-13.553,29.71
		c-4.26,8.69-9.34,16.973-14.88,24.91c-12.96,19.79-26.277,39.41-41.27,57.74c-2.62,3.38-6.28,5.7-9.17,8.82
		c-6.92,6.8-14.5,12.867-21.812,19.229c-5.42,5.521-12.407,9-18.84,13.17c-9.22,6-19.01,11.01-28.51,16.55
		c-9.11,5.433-18.771,9.853-28.07,14.91c-14.739,7.8-29.647,15.29-44.87,22.11c-8.487,4.3-17.119,8.479-26.42,10.74
		c-22.5,6.47-45.29,11.897-68.21,16.67c-12.317,2.3-24.567,5.04-37.06,6.34c-7.88,1.6-15.98,0.479-23.893,1.89
		c-9.938,1.75-20.06,0.98-30.078,0.771c-23.119-3.353-46.052-7.893-68.779-13.222c-11.471-3.841-22.92-7.771-34.29-11.881
		c-4.431-1.56-9.142-2.277-13.35-4.447c-13.763-6.62-27.66-12.963-41.263-19.9c-8.817-5.46-17.657-10.9-26.46-16.391
		c-26.05-18.939-51.38-39.062-73.8-62.262c-7.58-8.43-15.41-16.647-22.608-25.397c-10.342-15.722-20.359-31.67-30.602-47.472
		c-6.01-10.301-13.188-19.938-18.1-30.851c-14.5-28.939-27.42-58.82-36.11-90.05c-7.24-18.94-7.26-39.58-11.78-59.19
		c-1.92-10.54-1.75-21.33-3.1-31.949c-0.83-7.358-0.851-14.778-1.62-22.148c-3.5-24.48-2.78-49.271-4.28-73.892
		c-1.027-28.368-2.729-56.729-4.29-85.068c-0.35-11.66,0.08-23.34,0.183-35.01c0.89-10.62,0.47-21.29,0.647-31.94
		c0.28-24.67,0.33-49.33,0.49-74c0.5-9,0.29-18.021,0.34-27.04c-0.05-13.34,0.5-26.69-0.449-40.01
		c-0.75-12.312,1.479-24.513,1.932-36.79c0.89-4.95,0.278-10.07,1.59-14.94c7.62,0.24,15.188,1.16,22.79,1.73
		c10.59,1.68,21.33,1.078,32,1.777c3.2,0.2,6.42-0.159,9.479-1.159c14.29-3.721,27.882-9.561,41.921-14.061
		c18.529-6.38,37.479-11.45,56.352-16.76c7.858-2.393,16.148-2.182,24.24-3.12c6.277-0.73,12.5,0.66,18.697,1.47
		c16.723,2.61,32.25,9.7,48.461,14.17c17.169,1.771,34.669,7.58,51.869,2.801c8.84-2.729,17.931-4.608,26.7-7.568
		c8.71-3.853,17.819-6.94,27.22-8.521c18.38-4.357,37.353-0.42,55.48,3.312c14.938,2.568,29.619,6.357,44.52,9.08
		c13.28,3.06,27.062,2.34,40.59,2.01C665.63,208.86,679.827,202.42,694.43,197.42z"/>
</g>
</svg>
