<?xml version="1.0" encoding="utf-8"?>
<!-- Generator: Adobe Illustrator 15.0.2, SVG Export Plug-In . SVG Version: 6.00 Build 0)  -->
<!DOCTYPE svg PUBLIC "-//W3C//DTD SVG 1.1//EN" "http://www.w3.org/Graphics/SVG/1.1/DTD/svg11.dtd">
<svg version="1.1" id="Layer_1" xmlns="http://www.w3.org/2000/svg" xmlns:xlink="http://www.w3.org/1999/xlink" x="0px" y="0px"
	 width="886px" height="886px" viewBox="0 0 886 886" enable-background="new 0 0 886 886" xml:space="preserve">
<g id="_x23_010101ff">
	<path fill="#010101" d="M629.89,107.9c7.64-0.49,15.27-1.16,22.91-1.64c-11.58,14.6-21.73,30.38-34.761,43.789
		c-2.699,2.95-5.289,6-8.17,8.79c-6.869,5.66-13.93,11.221-22.1,14.9c-12.54,6.22-25.92,11-39.82,12.87
		c-13.31,0.72-26.609-0.64-39.819-2.03c0.159-0.39,0.479-1.17,0.64-1.56c1.96-1.721,3.78-3.59,5.44-5.601
		c1.079-1.149,2.17-2.279,3.26-3.42l-0.07-0.22c0.93-0.84,1.86-1.7,2.79-2.56c0.95-1.04,1.94-2.061,2.94-3.07
		c3.949-4.061,7.6-8.47,12.189-11.84c3.851-3.16,7.75-6.25,11.79-9.17c4.48-3.23,9.2-6.141,13.67-9.4
		c11.13-7.8,23.351-13.93,36.05-18.74c2.07-0.649,4.11-1.39,6.101-2.279c2.96-1.091,6.05-1.79,8.97-2.98
		C617.93,111.9,624.17,110.65,629.89,107.9z"/>
	<path fill="#010101" d="M223.64,111.25c13.12,0.311,26.36,0.32,39.23,3.181c9.439,1.38,18.25,5.21,27.199,8.3
		c2.62,1.189,5.37,2.05,8.051,3.08c7.92,2.979,15.71,6.31,23.319,9.979c4.271,3.69,8.16,7.83,12.261,11.721
		c1,0.93,1.989,1.88,2.96,2.85c8.79,7.61,16.51,16.37,25.31,23.97c0.17,0.25,0.51,0.75,0.68,1c0.54,1.32,3.261,3.21,1.12,4.36
		c-4.31,2.06-9.17,1.25-13.77,1.57c-6.37,0.279-12.641-1.16-19-1.15c-17.181-2.561-35.12-5.35-49.78-15.36
		c-6.04-3.84-11.64-8.31-17.37-12.59c-2.25-1.76-4.439-3.57-6.57-5.46c-1.079-0.93-2.149-1.87-3.21-2.81
		c-2.35-1.971-4.649-3.99-6.89-6.08c-0.81-0.83-1.62-1.66-2.43-2.49c-1.141-1.24-2.29-2.46-3.431-3.68
		C235.06,125.18,228.97,118.51,223.64,111.25z"/>
	<path fill="#010101" d="M421.96,731.73c6.01-0.81,12.1-0.31,18.119,0.13c8.69,1.05,17.311,3.47,24.71,8.29
		c6.431,4.36,13.33,8.66,17.551,15.4c6.189,9.029,9.63,19.689,11.3,30.41c-0.86,10.75-2.44,21.97-8.46,31.21
		c-2.68,3.949-4.3,8.77-8.18,11.77c-3.511,2.87-7.021,5.78-11.011,7.98c-8.069,4.25-16.89,6.529-25.819,8.14
		c-4.631,1.439-9.42,1.86-14.17,0.71c-7.061-0.09-13.641-2.78-19.98-5.61c-5.24-2.58-9.62-6.5-14.29-9.91
		c-3.79-3.649-6.63-8.09-9.529-12.42c-1.271-1.88-2.601-3.72-3.721-5.68c-1.34-3.57-1.729-7.4-2.729-11.05
		c-1.311-9.601-2.141-19.561,0.14-29.08c1.17-3.13,2.55-6.17,4.021-9.16c1.199-2.689,1.71-5.79,3.909-7.91
		c3.601-3.76,7.53-7.189,11.2-10.88c4.4-3.37,9.48-5.649,14.21-8.5C413.07,733.18,417.73,733.04,421.96,731.73z"/>
</g>
<g id="_x23_cd031bff">
	<path fill="#CD031B" d="M362.65,175.33l-0.399-0.6c1.529,1.71,3.38,3.09,5.279,4.35c-0.04,0.32-0.109,0.97-0.149,1.3
		c-9.63,2.391-19.57,1.391-29.38,1.351c-2.73-0.4-5.471-0.95-8.181-1.53l1.181-0.09c6.359-0.01,12.63,1.43,19,1.15
		c4.6-0.32,9.46,0.489,13.77-1.57C365.91,178.54,363.19,176.65,362.65,175.33z"/>
	<path fill="#CD031B" d="M429.5,228.63c2.84-0.34,5.699-0.359,8.539,0.011c2.521,2.6,5.021,5.239,6.98,8.3
		c3.03,6.229,3.2,13.29,4.52,19.99c2.07,10.89,2.961,21.96,3.601,33.02c-0.08,13.91,1.51,27.75,1.439,41.65
		c0.46,42.67,5.771,85.05,9.431,127.5c1.02,7,1.02,14.1,2.029,21.1c1.771,15.891,2.171,31.94,4.66,47.761
		c1.99,16.079,4.811,32.05,7.13,48.079c2.221,10.171,1.78,20.65,3.311,30.91c2.26,27.431,5.72,54.73,8.689,82.09
		c0.841,4.351,1,8.801,1,13.221c-36.859,0.069-73.72,0.17-110.579,0.319c0.51-6.85,0.85-13.729,2.01-20.5
		c2.21-29.409,5.09-58.76,7.69-88.14c0.829-13.01,2.529-25.97,4.26-38.88c0.58-7.72,1.88-15.36,2.26-23.09
		c3.61-23.891,6.88-47.83,9.48-71.86c1.81-18.45,5.21-36.71,7.029-55.17c0.851-5.61,1.2-11.3,2.181-16.89
		c1.88-20.04,4.27-40.021,5.609-60.101c1.12-8.58,0.4-17.27,1.36-25.859c0.729-10.041,0.77-20.131,1.6-30.171
		c1.31-9.35,0.45-18.84,1.59-28.21C425.52,238.42,426.76,233.19,429.5,228.63z"/>
</g>
</svg>
