<?xml version="1.0" encoding="utf-8"?>
<!-- Generator: Adobe Illustrator 16.0.0, SVG Export Plug-In . SVG Version: 6.00 Build 0)  -->
<!DOCTYPE svg PUBLIC "-//W3C//DTD SVG 1.1 Basic//EN" "http://www.w3.org/Graphics/SVG/1.1/DTD/svg11-basic.dtd">
<svg version="1.1" baseProfile="basic" id="Livello_1"
	 xmlns="http://www.w3.org/2000/svg" xmlns:xlink="http://www.w3.org/1999/xlink" x="0px" y="0px" width="768px"
	 height="1024.604px" viewBox="0 0 768 1024.604" xml:space="preserve">
<g id="_x23_010101ff">
	<path fill="#010101" d="M184.32,351.997c22.19,2.024,45.032,2.512,66.156,10.427c28.625,8.673,48.899,32.256,67.259,54.537
		c-21.957-3.416-44.996-2.241-65.813-11.095c-7.699-3.65-14.927-8.241-22.841-11.403c-8.566-6.469-16.517-13.662-24.63-20.637
		C197.566,366.707,190.79,359.479,184.32,351.997z"/>
	<path fill="#010101" d="M525.455,357.436c11.531-3.235,23.494-4.066,35.33-5.403c-15.271,21.866-31.716,45.556-57.321,56.019
		c-17.781,8.891-37.982,10.463-57.393,13.011c-4.335,0.776-8.71,0.253-12.882-0.977c9.63-10.733,20.058-20.672,30.32-30.774
		c7.607-7.137,16.605-12.596,25.878-17.275C501.079,366.417,512.95,361.015,525.455,357.436z"/>
	<path fill="#010101" d="M334.396,899.771c5.565-13.625,11.691-27.068,18.053-40.353c9.758-0.055,19.57-0.055,29.239,1.301
		c4.732,12.921,10.969,25.281,15.07,38.438c3.632,11.401,9.233,22.063,12.559,33.558c4.97,14.492,9.233,29.22,14.438,43.641
		c-9.324,0.289-18.632,1.156-27.956,0.886c-5.257-12.271-10.859-24.396-15.72-36.827c-10.029-0.272-20.076-0.562-30.124-0.183
		c-4.355,12.959-8.945,25.822-13.842,38.581c-10.554,0.325-21.088,0.091-31.642,0.397
		C313.435,952.338,325.181,926.534,334.396,899.771 M365.478,891.242c-3.415,8.349-5.746,17.094-8.601,25.641
		c6.18,0.234,12.541,0.688,18.432-1.553c-3.234-7.68-3.759-16.211-7.246-23.799C367.429,891.459,366.128,891.314,365.478,891.242z"
		/>
</g>
<g id="_x23_cd031bff">
	<path fill="#CC051D" d="M362.677,457.565c0.47-4.229,4.229-6.688,7.156-9.234c2.981,1.102,6.902,1.283,8.601,4.427
		c5.494,8.168,6.271,18.342,7.049,27.883c1.407,23.511,2.167,47.056,2.838,70.603c1.299,18.648,1.77,37.334,2.222,56.001
		c0.055,16.878,2.673,33.611,3.055,50.471c2.638,27.125,4.336,54.339,7.191,81.444c3.018,20.185,5.945,40.405,9.704,60.48
		c1.155,11.529,2.275,23.097,2.675,34.696c-31.715,0.886-63.429,1.283-95.142,1.193c2.457-18.92,4.986-37.842,7.101-56.797
		c3.433-20.4,6.957-40.784,9.542-61.313c2.006-22.496,7.536-44.525,9.469-67.041c3.379-37.369,7.103-74.74,9.921-112.165
		C357.273,511.38,359.532,484.418,362.677,457.565z"/>
</g>
</svg>
