<?xml version="1.0" encoding="utf-8"?>
<!-- Generator: Adobe Illustrator 16.0.0, SVG Export Plug-In . SVG Version: 6.00 Build 0)  -->
<!DOCTYPE svg PUBLIC "-//W3C//DTD SVG 1.1 Basic//EN" "http://www.w3.org/Graphics/SVG/1.1/DTD/svg11-basic.dtd">
<svg version="1.1" baseProfile="basic" id="Livello_1"
	 xmlns="http://www.w3.org/2000/svg" xmlns:xlink="http://www.w3.org/1999/xlink" x="0px" y="0px" width="768px"
	 height="1024.604px" viewBox="0 0 768 1024.604" xml:space="preserve">
<g id="_x23_000000ff">
	<path d="M0,0h768v1024.604H0V0"/>
</g>
<g id="_x23_fefefeff">
	<path fill="#FFFFFF" d="M316.597,229.243c17.112-9.469,36.357-14.239,55.548-17.329c11.187-1.717,22.336,0.812,33.449,1.86
		c10.644,1.32,20.257,6.235,29.996,10.355c11.151,4.897,19.86,13.643,29.455,20.889c8.803,8.078,18.505,15.415,25.751,25.028
		c13.877,19.065,28.153,37.822,41.399,57.356c14.365,28.75,31.841,56.127,42.701,86.539c1.373,2.567-0.146,6.09,2.296,8.078
		c3.034,1.066,2.765,4.861,4.101,7.302c4.393,13.751,10.121,27.214,12.452,41.544c2.493,10.933,5.764,21.703,7.969,32.708
		c4.987,31.931,8.674,64.079,10.771,96.315c0,10.283-1.429,20.476-1.394,30.774c-3.36,27.196-10.731,53.814-20.292,79.456
		c-5.062,10.428-8.783,21.63-15.938,30.92c-9.287,12.432-17.673,25.516-27.686,37.406c-9.938,12.378-22.643,22.01-34.678,32.236
		c-13.878,10.191-29.742,17.367-45.916,23.096c-14.331,5.674-29.31,9.829-44.652,11.491c-26.095,1.771-52.37,1.646-78.373-1.174
		c-23.962-1.754-47.218-9.56-68.144-21.18l-0.163-0.867c-23.961-13.77-45.085-32.329-62.344-53.904
		c-10.499-13.407-21.594-26.744-28.082-42.665c-6.668-11.203-10.246-23.762-14.005-36.142c-4.047-18.395-9.631-36.429-13.01-54.971
		c-3.162-16.155-3.994-32.636-6.379-48.862c1.283-26.6,1.319-53.309,4.663-79.746c5.06-24.07,8.295-48.718,17.474-71.704
		c5.512-13.391,10.21-27.124,16.427-40.207c4.481-10.409,8.24-21.233,14.42-30.811c8.801-16.028,18.757-31.371,28.027-47.11
		c8.223-13.878,19.444-25.534,29.744-37.822C277.799,259.331,295.708,242.073,316.597,229.243"/>
</g>
<g id="_x23_42d6fbff">
	<path fill="#64C6EA" d="M358.827,485.828c12.18-3,25.155-2.639,37.37-0.02c25.947,6.252,48.159,27.017,55.206,52.893
		c11.222,34.931-6.813,76.276-40.28,91.476c-23.599,11.456-53.343,10.153-75.191-4.681c-14.457-8.965-25.443-23.096-31.081-39.088
		c-7.247-20.781-5.476-44.888,5.818-63.914C320.627,504.133,338.715,490.996,358.827,485.828z"/>
</g>
</svg>
