<?xml version="1.0" encoding="utf-8"?>
<!-- Generator: Adobe Illustrator 16.0.0, SVG Export Plug-In . SVG Version: 6.00 Build 0)  -->
<!DOCTYPE svg PUBLIC "-//W3C//DTD SVG 1.1 Basic//EN" "http://www.w3.org/Graphics/SVG/1.1/DTD/svg11-basic.dtd">
<svg version="1.1" baseProfile="basic" id="Livello_1"
	 xmlns="http://www.w3.org/2000/svg" xmlns:xlink="http://www.w3.org/1999/xlink" x="0px" y="0px" width="768px"
	 height="1024.604px" viewBox="0 0 768 1024.604" xml:space="preserve">
<g id="_x23_26d61bff">
	<path fill="#58AB27" d="M296.285,130.145c68.325-14.782,140.392-12.179,207.359,7.987c57.719,17.095,111.496,47.218,156.349,87.389
		c47.019,41.364,84.118,93.932,108.007,151.775v317.049c-26.329,63.826-68.939,120.818-122.628,164.227
		c-57.681,46.784-128.154,77.737-201.739,88.004c-77.27,11.167-157.666,0.145-228.864-31.95
		C159.707,889.96,110.177,853.04,70.891,807.27C40.894,773.438,17.493,734.082,0,692.482V380.53
		c6.704-19.01,16.444-36.899,26.437-54.393c23.799-41.291,55.477-77.739,91.672-108.604
		C169.322,174.634,230.924,144.113,296.285,130.145"/>
</g>
<g id="_x23_ffff01ff">
	<path fill="#F4E500" d="M340.36,467.251c24.142,0.688,48.302-0.126,72.443-0.163c17.061,15.035,33.215,31.153,50.726,45.628
		c1.771,7.879-0.07,15.976,0.416,23.979c-0.903,16.806,0.107,33.864-1.754,50.543c-14.816,16.011-30.215,31.568-44.761,47.833
		c-9.56,1.48-19.264,0.902-28.878,0.995c-15.558,0.271-31.117,0.724-46.657,0.414c-10.644-11.35-22.878-21.033-33.864-32.021
		c-4.752-4.264-8.801-9.451-14.493-12.54c-0.307-22.662,0.452-45.341,0.47-68.019c-0.416-3.524,2.078-6.36,4.282-8.746
		C312.657,499.489,325.849,482.755,340.36,467.251z"/>
</g>
</svg>
