<?xml version="1.0" encoding="utf-8"?>
<!-- Generator: Adobe Illustrator 16.0.0, SVG Export Plug-In . SVG Version: 6.00 Build 0)  -->
<!DOCTYPE svg PUBLIC "-//W3C//DTD SVG 1.1 Basic//EN" "http://www.w3.org/Graphics/SVG/1.1/DTD/svg11-basic.dtd">
<svg version="1.1" baseProfile="basic" id="Livello_1"
	 xmlns="http://www.w3.org/2000/svg" xmlns:xlink="http://www.w3.org/1999/xlink" x="0px" y="0px" width="768px"
	 height="1024.604px" viewBox="0 0 768 1024.604" xml:space="preserve">
<g id="_x23_94f073ff">
	<path fill="#9EC76B" d="M0,0h768v1024.604H0V0"/>
</g>
<g id="_x23_e77d05ff">
	<path fill="#E87E07" d="M343.232,524.481c10.535-3.813,21.829-3,32.798-4.246c13.859-1.627,27.43,2.474,41.092,4.153
		c23.962,5.387,46.677,16.463,65.812,31.877c11.491,8.022,18.07,20.817,26.167,31.876c1.029,0.199,3.107,0.579,4.154,0.762
		c-6.161,12.864-12.359,27.304-9.505,41.833c1.627,9.576,11.602,13.498,18.397,18.919c4.138,0.037,8.273,0.127,12.413,0.055
		c3.506,15.07,3.487,30.612,2.818,45.973c-1.428,7.878-3.56,15.631-4.77,23.562c-1.628,11.602-9.436,20.836-13.733,31.444
		c-5.421,8.728-11.783,16.823-18.09,24.9c-5.438,7.156-12.63,12.686-18.358,19.588c-2.097-2.295-4.175-4.625-6.219-6.921
		c-3.162,1.156-6.413,2.169-9.36,3.85c-6.231,3.85-8.942,11.711-15.448,15.126c-7.823,0.145-12.378-7.592-18.034-11.818
		c-4.337-4.915-14.926-3.688-16.192,3.324c-0.054,7.88,2.403,15.486,3.688,23.202c-6.523-0.613-13.083-2.167-19.662-1.48
		c-5.818,1.156-7.842,7.591-10.68,12.018c0.02-1.536,0.02-3.055,0.057-4.555c-11.675-0.469-23.692,0.487-34.95-3.233
		c-14.583-4.463-29.78-7.662-43.225-15.144c-5.53-3.234-11.493-5.639-17.873-6.487c10.734-3.992,22.281-6.921,31.172-14.527
		c8.041-6.091,14.872-15.253,14.563-25.788c-0.849-10.318-9.323-17.764-17.547-22.931c-13.316-8.621-29.689-8.17-44.778-10.753
		c3.144-18.703,13.698-34.984,18.396-53.235c1.987-8.079,0.072-17.04-5.313-23.419c-4.066-4.827-9.415-8.296-14.384-12.073
		c-6.777,0.724-13.679,1.592-19.878,4.592c-9.505,3.848-17.148,10.932-26.347,15.323c5.819-8.604,5.332-19.336,7.988-29.003
		c2.819-12.688,8.799-24.25,13.751-36.158c2.276-5.658,5.873-10.609,9.704-15.29c4.535-4.426,8.475-9.378,12.541-14.202
		c8.294-10.065,19.571-16.896,30.07-24.396C315.946,532.721,329.969,529.106,343.232,524.481"/>
	<path fill="#E87E07" d="M695.193,847.166c-2.438-1.229-2.438-2.312,0.018-3.252C695.211,844.729,695.211,846.354,695.193,847.166z"
		/>
</g>
<path fill="#9EC76B" d="M381.434,626.777c4.627,6.361,3.65,14.711,5.422,22.028c2.148,10.572,2.782,21.377,4.878,31.948
	c1.535,11.963,0.019,24.215-4.717,35.327c-5.837,2.82-13.317,2.711-17.527-2.818c-4.952-8.384-5.367-18.9-2.657-28.116
	C372.109,665.792,375.254,645.896,381.434,626.777z"/>
<g id="_x23_fd0012ff">
	<path fill="#E42328" d="M376.519,101.611c6.74-2.494,13.896-4.752,21.088-2.674c11.387,2.024,22.554,6.56,30.812,14.908
		c9.451,7.951,11.276,20.962,18.07,30.756c3.632,0.054,4.789-3.795,6.597-6.252c4.969-8.458,10.264-17.203,18.63-22.751
		c6.342-4.68,14.257-6.072,21.702-8.06c5.836,1.898,11.276,4.735,16.283,8.276c1.317,3,2.69,5.981,4.173,8.928
		c0.091,7.282,0.507,14.908-2.458,21.756c-3.377,7.825-10.154,14.782-8.491,23.979c13.102,0.127,27.213-0.162,38.615,7.355
		c6.145,2.692,8.187,9.36,10.373,15.106c-2.549,4.392-4.266,9.469-8.042,13.011c-3.308,2.765-6.977,5.006-10.463,7.5
		c-1.878,0.433-3.741,0.867-5.603,1.336c-8.187,4.048-19.569,2.802-25.354,10.662c2.981,2.729,5.979,5.476,8.998,8.169
		c6.724,10.3,15.435,20.853,15.343,33.773c0.307,7.626-4.391,14.004-7.933,20.348c-6.181,3.94-12.271,9.487-20.147,8.873
		c-14.386,0.776-24.794-12.577-38.943-12.577c2.692,13.065,2.929,26.636-0.794,39.52c-1.88,4.482-5.422,7.987-8.331,11.8
		c-3.85-0.108-7.697-0.271-11.528-0.488c1.065-0.217,2.114-0.452,3.18-0.669c-8.963-1.681-16.66-6.794-24.812-10.607
		c-4.443-6.072-8.816-12.27-11.927-19.155c-2.386-5.041-3.74-10.589-7.19-15.07c-15.252,9.759-32.545,19.173-51.338,16.606
		c-7.463-2.187-15.613-6.233-18.632-13.896c-3.144-10.951,0.254-22.48,5.783-32.039c4.409-6.433,10.029-11.891,14.781-18.035
		c0.669-0.324,2.006-0.957,2.674-1.283c0.163-2.187,0.343-4.373,0.542-6.56c-12.325-4.445-25.226-7.644-35.853-15.686
		c-4.209-3.252-7.752-7.228-10.138-11.999c-0.071-4.625-0.704-9.36,0.308-13.932c1.897-6.379,8.149-9.577,12.775-13.752
		c5.042-3.65,10.282-8.204,16.896-8.078c10.896-0.469,21.812,0.253,32.635,1.41c2.386-0.886,4.825-1.734,7.247-2.529
		c-1.012-0.019-3.037-0.072-4.048-0.091c-1.536-11.457-7.337-22.172-6.433-33.955C366.128,123.603,367.231,110.267,376.519,101.611z
		"/>
	<path fill="#E42328" d="M188.657,413.147c4.229,0.705,8.439,1.59,12.596,2.657c7.047,6.777,11.222,15.649,13.734,24.992
		c1.752-1.265,3.451-2.565,5.132-3.938c4.861-5.656,11.799-9.145,19.245-9.613c5.078,4.626,10.987,9.83,11.565,17.147
		c1.084,8.783-4.788,16.119-6.975,24.233c8.692-0.217,17.799-0.452,25.371,4.5c1.698,1.482,3.433,2.891,5.223,4.247
		c3.668,9.994-3.561,18.649-10.047,25.354c-5.061,4.246-11.601,6.019-17.565,8.638c4.029,7.844,10.209,14.654,11.944,23.562
		c2.169,4.627-1.842,8.746-4.174,12.416c-5.602,6.505-15.758,6.182-22.299,1.265c-2.15-1.808-4.572-3.216-6.975-4.607
		c-0.705,9.831-2.205,20.003-9.18,27.54c-4.59,0.903-9.216,1.734-13.877,2.259c-4.879-3.145-9.596-6.523-14.041-10.266
		c-3.29-6.25-6.633-12.468-9.56-18.899c-1.139,0.107-3.416,0.324-4.554,0.433c-5.53,6.993-13.3,13.301-22.39,14.331
		c-7.354,0.47-11.944-5.692-15.902-10.861c-2.458-10.915,3.433-20.674,8.908-29.545c-5.095-0.688-10.209-1.337-15.324-1.789
		c-3.614-2.384-7.77-4.301-10.354-7.897c-2.548-5.331-2.096-11.601-1.157-17.257c2.368-5.674,8.458-8.259,13.192-11.601
		c4.716-1.175,9.324-2.693,14.022-3.977c-3.704-6.794-8.656-13.246-9.812-21.088c0.56-7.77,6.613-16.064,15.052-15.867
		c8.928-1.518,17.602,2.188,24.27,7.97c0.922,0.127,2.801,0.416,3.723,0.543c-0.054-9.542,1.048-19.047,3.631-28.263
		C184.266,417.539,186.453,415.353,188.657,413.147z"/>
	<path fill="#E42328" d="M630.898,448.15c7.68-2.549,15.955-3.181,23.601-0.072c3.922,6.199,8.095,12.541,9.396,19.914
		c1.989,9.901-2.402,19.552-2.076,29.473c5.711-2.909,11.401-5.891,16.66-9.596c8.331-3.976,17.927-4.897,26.998-3.65
		c7.681,2.729,15.612,9.198,15.812,18.018c0.107,10.57-3.507,20.962-9.107,29.853c-3.777,5.149-8.603,9.415-12.884,14.149
		c13.171,4.229,26.726,8.727,36.952,18.521c1.537,4.246,3.994,8.401,4.121,12.991c-2.766,10.121-10.354,17.764-18.179,24.288
		c-8.168,4.03-16.697,7.281-25.408,9.903c3.09,7.354,8.132,14.021,9.253,22.116c1.155,5.331-1.012,10.554-2.188,15.688
		c-3.507,5.077-7.5,9.757-11.639,14.312c-9.342,2.457-18.396-1.555-26.816-5.113c-10.606-4.916-18.757-13.554-28.768-19.463
		c-4.211,19.389-9.957,41.635-28.207,52.478c-9.669,5.276-20.619,2.041-29.365-3.415c-6.867-6.993-11.312-15.687-14.928-24.685
		c-0.523-7.824-1.264-15.649-0.938-23.476c-0.725,0.108-2.204,0.346-2.945,0.452c-8.241,3.651-16.463,8.477-25.679,8.873
		c-4.141,0.072-8.276-0.018-12.414-0.055c-6.796-5.421-16.771-9.343-18.397-18.919c-2.854-14.529,3.344-28.968,9.505-41.833
		c4.141-7.394,11.352-12.234,17.639-17.639c-7.97-4.301-15.433-9.542-22.174-15.576c-6.975-6.198-10.949-14.836-16.389-22.265
		c-3.308-14.51,1.625-29.905,11.69-40.586c13.012-6.288,28.589-4.752,41.616,0.741c2.26,0.904,4.5,1.771,6.776,2.639
		c0.253,0.561,0.741,1.662,0.977,2.224c0.162-0.562,0.505-1.699,0.669-2.277c1.065,0.108,2.132,0.199,3.197,0.308
		c-1.518-14.601-2.549-30.646,6.415-43.278c4.824-0.867,9.597-2.421,14.548-2.169c12.54,2.006,22.01,11.891,27.159,23.021
		c0.541,0.162,1.59,0.452,2.113,0.598c4.104-6.922,9.035-13.302,14.584-19.119C625.062,453.12,628.008,450.68,630.898,448.15z"/>
	<path fill="#E42328" d="M134.626,613.514c6.198-6.252,15.342-9.974,24.161-8.438c4.789,0.759,9.559,1.717,14.384,2.351
		c4.735,3.144,9.36,6.434,13.734,10.064c6.632,12.072,14.041,24.25,16.336,38.038c1.373,6.562,3.054,13.064,4.066,19.697
		c1.174,0.38,3.487,1.155,4.662,1.534c2.801-2.763,5.638-5.474,8.403-8.259c2.999-3.143,6.144-6.27,10.046-8.257
		c9.199-4.394,16.842-11.476,26.347-15.323c6.199-3,13.101-3.868,19.878-4.592c4.969,3.777,10.318,7.246,14.384,12.073
		c5.385,6.379,7.301,15.34,5.313,23.419c-4.698,18.251-15.252,34.532-18.396,53.236c15.089,2.582,31.461,2.131,44.778,10.752
		c8.224,5.167,16.698,12.611,17.547,22.931c0.309,10.535-6.522,19.697-14.563,25.788c-8.891,7.606-20.438,10.535-31.172,14.527
		c-5.114,1.734-10.554,1.971-15.902,2.239c-2.312,9.271,8.15,14.276,10.915,22.103c4.102,11.077,10.517,22.533,7.03,34.713
		c-2.512,6.146-4.752,12.704-9.415,17.619c-4.121,4.338-8.909,7.952-13.282,11.998c-7.499,2.007-14.944,5.402-22.877,4.373
		c-17.474-1.408-31.858-12.144-47.453-18.955c-5.114,11.168-10.265,22.316-16.48,32.925c-9.125,7.101-19.607,13.625-31.624,13.426
		c-13.029,1.5-24.883-6.649-32.401-16.606c-8.348-14.548-12.541-31.08-13.101-47.797c-0.976-0.037-2.909-0.071-3.885-0.09
		c-11.384,8.674-23.509,17.799-37.713,20.943c1.103,0.181,3.307,0.507,4.409,0.687c-7.987,1.177-16.787,2.711-23.961-2.06
		c-1.428-1.302-2.892-2.567-4.355-3.813c-1.5-2.8-2.999-5.583-4.518-8.365c-1.283-8.114-2.367-16.519-0.271-24.612
		c4.916-14.926,19.263-24.07,25.533-38.11c-12.017-2.477-23.509-6.902-35.508-9.396c-7.698-5.673-16.896-12.162-17.564-22.625
		c-0.777-7.896,5.367-13.733,9.541-19.643c13.12-9.342,28.19-16.95,44.616-17.384c-0.126-0.796-0.379-2.386-0.505-3.182
		c-1.482-2.223-2.946-4.463-4.392-6.723c-0.705-0.632-2.133-1.896-2.837-2.528c-5.783-11.929-13.354-26.22-5.873-39.158
		c0.397-0.796,1.156-2.387,1.537-3.182c6.233-4.499,13.624-9.092,21.666-7.823c14.42,2.438,26.907,10.408,40.279,15.773
		c0.072-12.018-1.337-24.051-0.09-36.051C118.832,637.675,124.687,624.014,134.626,613.514z"/>
	<path fill="#E42328" d="M605.112,766.734c4.771-4.718,11.602-8.276,18.413-5.892c12.831,1.809,25.174,10.229,28.931,23.059
		c1.664,2.312,1.951,7.646,5.657,7.104c5.602-11.403,14.744-23.294,28.587-23.908c7.373-0.396,11.979,6,15.47,11.512
		c0.035,10.806-5.711,19.933-9.198,29.762c10.246,0.182,20.728,1.031,29.726,6.452c1.176,2.366,2.494,4.697,3.435,7.21
		c0.271,4.012-2.259,7.536-3.579,11.203c-8.4,5.187-18.051,7.555-27.341,10.68c-2.456,0.94-2.456,2.024-0.018,3.252
		c7.553,5.873,12.542,14.693,14.998,23.836c1.988,13.012-10.933,25.01-23.8,22.534c-6.703-3.433-13.516-6.688-20.562-9.288
		c1.064,11.781,3,25.696-6.126,34.966c-11.294,0.109-23.781-5.329-28.75-15.974c-2.656-4.428-4.176-9.378-5.366-14.349
		c-9.056,3.522-17.204,9.723-27.144,10.645c-8.294,1.824-19.679-1.591-21.721-10.825c-1.303-7.246,0.614-15.033,5.042-20.906
		c3.85-5.386,8.709-10.029,11.927-15.866c-10.825-2.854-20.961-7.463-29.816-14.349c-1.808-5.927-3.614-12.885,0.886-18.089
		c4.028-3.776,8.204-7.842,13.463-9.812c9.487-2.493,19.263,0.091,28.842,0.343c-1.862-7.949-5.297-15.702-5.042-24.017
		C601.913,779.438,603.575,773.06,605.112,766.734z"/>
	<path fill="#E42328" d="M466.853,792.105c2.947-1.681,6.198-2.692,9.36-3.85c2.044,2.296,4.122,4.626,6.219,6.921l1.029,1.14
		c-0.452,8.455-2.134,16.786-3.542,25.137c10.192,0.56,21.938,0.396,29.13,8.926c-0.234,2.368-0.579,4.734-1.03,7.085
		c-5.331,5.892-12.794,9.071-20.095,11.781c0.416,5.366,3.234,10.012,5.352,14.836c2.636,5.476,1.373,11.691,1.28,17.529
		c-4.97,1.138-10.57,2.402-15.269-0.309c-4.662-2.603-8.838-5.928-13.408-8.674c-0.02,7.698-0.796,15.433-3.579,22.696
		c-1.86,1.645-3.648,3.38-5.312,5.241c-5.947,3.722-11.331-0.813-15.921-4.41c-1.809-6.542-3.344-13.191-3.256-20.005
		c-0.595-2.854-0.955-5.745-1.279-8.618c-1.031,2.294-2.114,4.572-2.767,7.028c-8.384,5.349-18.069,9.597-28.243,7.97
		c-2.91-1.445-5.206-4.681-5.422-7.897c2.565-9.143,8.512-16.787,14.998-23.525c-6.794-2.314-13.463-5.079-19.644-8.729
		c-1.627-3.325-3.289-6.614-4.934-9.903c2.838-4.426,4.86-10.859,10.68-12.017c6.579-0.687,13.139,0.867,19.662,1.48
		c-1.284-7.716-3.741-15.322-3.688-23.202c1.268-7.012,11.855-8.239,16.192-3.324c5.656,4.228,10.211,11.963,18.034,11.818
		C457.909,803.816,460.62,795.955,466.853,792.105z"/>
	<path fill="#E42328" d="M289.04,918.617c7.083-2.764,15.432-1.463,21.125,3.669c4.535,3.542,6.451,9.181,9.053,14.095
		c2.71-3.414,5.312-6.938,7.97-10.391c1.824-1.318,3.668-2.602,5.475-3.938c1.428-0.308,4.302-0.886,5.747-1.192
		c2.621,1.699,5.223,3.451,7.789,5.259c-0.02,5.295-0.886,10.644-3.977,15.071c-0.181,1.59-0.343,3.198-0.506,4.823
		c6.939,0.562,14.583,1.193,19.571,6.725c0.632,3.034-1.879,5.637-2.855,8.347c-5.421,2.241-10.969,4.176-16.643,5.604
		c3.144,5.438,7.21,10.427,9.198,16.48c1.138,4.408-2.224,8.222-3.903,12.035c-2.53,0.866-5.042,1.753-7.535,2.656
		c-4.771-1.989-9.343-4.394-13.788-6.994c-0.36,7.391-0.632,14.943-3.849,21.774c-4.157-0.687-8.837-0.542-12.162-3.542
		c-5.295-3.542-6.596-10.139-10.626-14.764c-6.686,4.734-14.781,7.97-23.076,6.09c-0.885-0.976-2.674-2.91-3.578-3.886
		c-0.704-2.132-1.409-4.283-2.114-6.378c2.439-6,5.529-11.892,10.897-15.794c-0.127-0.579-0.362-1.734-0.47-2.313
		c-4.211-1.914-8.511-3.632-12.812-5.241c-4.481-2.729-6.071-7.407-6.126-12.433c3.65-2.638,6.921-6.09,11.294-7.553
		c5.44-0.523,10.915,0.181,16.354,0.361C287.069,937.828,285.967,927.96,289.04,918.617z"/>
</g>
</svg>
