<?xml version="1.0" encoding="utf-8"?>
<!-- Generator: Adobe Illustrator 15.0.2, SVG Export Plug-In . SVG Version: 6.00 Build 0)  -->
<!DOCTYPE svg PUBLIC "-//W3C//DTD SVG 1.1//EN" "http://www.w3.org/Graphics/SVG/1.1/DTD/svg11.dtd">
<svg version="1.1" id="Layer_1" xmlns="http://www.w3.org/2000/svg" xmlns:xlink="http://www.w3.org/1999/xlink" x="0px" y="0px"
	 width="886px" height="886px" viewBox="0 0 886 886" enable-background="new 0 0 886 886" xml:space="preserve">
<g id="_x23_cd031bff">
	<path fill="#CD031B" d="M59.9,0h348.32c2.15,20.431,5.19,40.75,7.67,61.141c1.89,20.33,4.42,40.59,6.46,60.909
		c2.93,26.961,5.38,53.971,7.91,80.971c0.92,12.99,2.33,25.97,2.41,39.01c0.76,19.33,1.46,38.67,2.01,58.021
		c-0.11,8.64,1.18,17.27,0.2,25.899c-1.021,23.721-2.32,47.44-2.561,71.19c-2.49,28-10.24,55.27-12.35,83.33
		c-0.26,8.02-2.83,15.67-4.44,23.47c-2.47,12.18-5.51,24.271-7.399,36.56c10.75,0.66,21.38,2.44,32.08,3.471
		c19.27,2.21,38.54-0.84,57.76-1.931c0.64-1.34,1.47-2.56,2.96-3.05c-1.68-14.96-5.021-29.68-7.72-44.47
		c-1.771-8.94-4.16-17.73-6.551-26.51c-4.39-19.94-8.06-40.03-12-60.061c-1.75-11.01-4.37-21.89-5.52-33
		c-2.75-22.89-4.4-45.89-6.26-68.87c-1.44-20.34-3.341-40.689-2.95-61.1c0.54-12.65,0.229-25.311,0.62-37.96
		c0.27-19.34,1.41-38.66,1.97-58c3.95-49.63,7.11-99.34,10.39-149.021h374.45c0.46,5.54-0.09,11.101,0.13,16.65l-0.88-0.23
		c0.03,4.591-0.04,9.17-0.22,13.75c-1.561,6.88-0.44,13.98-1.11,20.94c-1.05,3.93-0.609,8.02-1.01,12.02
		c-1.2,9.92-1.53,19.91-2.05,29.891c-1.33,17.64-1.641,35.34-3.03,52.979c-2.81,16.46-5.17,33.03-5.97,49.73
		c-1.7,10.85-4.2,21.55-6.23,32.34c-4.71,19.69-8.569,39.58-14.2,59.04c-12.539,44.45-24.479,89.12-39.56,132.8
		c-7.09,21.28-14.27,42.521-21.44,63.761c-6.739,19.699-13.239,39.489-20.609,58.97c-1.15,2.899-2.74,5.59-4.26,8.31
		c-19.431,34.58-38.95,69.141-59.87,102.851c-4.011,7.17-9.07,13.66-13.95,20.25c-18.82,24.84-37.25,49.989-56.771,74.3
		c-8.119,9.85-15.39,20.56-25.109,28.96c-14.99,14.39-30.75,27.95-46.63,41.34c-22.761,18.98-45.96,37.51-70.53,54.12
		c-12.51-13.12-26.53-24.69-39.5-37.34c-27.45-26.9-53.68-55-80.34-82.67c-5.82-4.891-10.41-10.99-15.68-16.42
		c-11.7-12.99-23.46-25.96-34.11-39.83c-12.57-15.55-24.71-31.46-36.03-47.94c-5.159-7.609-10.689-15.01-15.069-23.109
		c-15.721-31.511-33.41-61.98-49.311-93.4c-3.899-7.86-8.42-15.44-11.34-23.74c-13.34-33.47-26.51-67-39-100.79
		c-3.51-9.58-7.36-19.06-10.01-28.93c-7.92-27.93-15.09-56.05-22.45-84.13c-8.71-33.11-16.11-66.58-21.65-100.37
		c21.44,3.47,42.9,6.859,64.4,9.93c16.16,3.14,32.24,6.73,48.38,10.02c20.42,2.86,41.05,5.591,61.71,4.16
		c9.74-1,19.43-2.67,28.99-4.77c19.28-7.38,38.31-15.48,57.11-24.03c4.35-2.01,8.55-4.33,12.51-7.03c0.01-0.39,0.04-1.159,0.05-1.54
		c-19.33-5.479-38.83-10.439-58.67-13.699c-29.32-5.471-59.15-9.36-89.04-8.061c-29.39,0.86-58.68,3.641-88.06,4.47
		c-13.851,1.57-27.4,4.99-41.11,7.37C67.16,122.73,65.76,73.66,60.99,25.01C60.12,16.7,60.23,8.34,59.9,0 M682.05,187.46
		c-7.48-0.16-14.601,2.351-21.78,4.061c-6.01,1.689-12.17,2.779-18.17,4.529c-2.67,0.641-5.35,1.29-7.99,2.04
		c-1.35,0.33-2.67,0.65-4,0.971c-1.35,0.37-2.689,0.72-4.03,1.06c-5.04,1.2-10.029,2.55-15.01,3.91
		c-12.05,3.21-24.03,6.64-36.02,10.04c-1.82,0.59-3.62,1.26-5.44,1.84c4.24,0.601,8.13,2.49,12.23,3.63
		c8.56,2.46,17.04,5.25,25.71,7.3c15.26,3.49,30.91,4.881,46.47,6.2c24.57,2.37,49.34,1.45,73.92-0.43
		c29.14-2.37,58.3-5.36,87.021-10.96c0.989-0.24,1.96-0.54,2.92-0.91c0.83-0.17,2.489-0.49,3.319-0.66
		c-1.25-0.229-2.529-0.47-3.76-0.689l-0.1-0.69c-2.21-0.78-4.391-1.63-6.49-2.64c-1.67-0.65-3.34-1.3-5.01-1.94
		c-4.221-1.939-8.49-3.74-12.79-5.47c-2.08-0.84-4.141-1.69-6.221-2.48c-1.659-0.689-3.31-1.39-4.949-2.069
		c-4.33-1.66-8.61-3.46-12.99-4.971c-1.01-0.35-2.021-0.68-3.01-1.01c-0.98-0.38-1.95-0.74-2.91-1.09
		c-1.021-0.33-2.03-0.67-3.021-1.02c-2.359-0.62-4.71-1.23-7.029-1.94c-1.36-0.35-2.73-0.67-4.08-0.99
		c-2.65-0.689-5.29-1.39-7.94-2.01c-3.61-0.98-7.29-1.57-10.99-1.98c-7.569-1.52-15.3-1.84-22.989-1.97
		C698.65,185.89,690.34,187.51,682.05,187.46z"/>
</g>
</svg>
