<?xml version="1.0" encoding="utf-8"?>
<!-- Generator: Adobe Illustrator 15.0.2, SVG Export Plug-In . SVG Version: 6.00 Build 0)  -->
<!DOCTYPE svg PUBLIC "-//W3C//DTD SVG 1.1 Basic//EN" "http://www.w3.org/Graphics/SVG/1.1/DTD/svg11-basic.dtd">
<svg version="1.1" baseProfile="basic" id="Livello_1"
	 xmlns="http://www.w3.org/2000/svg" xmlns:xlink="http://www.w3.org/1999/xlink" x="0px" y="0px" width="768px" height="1024px"
	 viewBox="0 0 768 1024" xml:space="preserve">
<g id="_x23_010101ff">
	<path fill="#010101" d="M348.119,335.22c1.351-0.32,2.721-0.62,4.101-0.9c5.511-0.909,11.21-1.069,16.689,0.091
		c2.229,0.09,4.471,0.159,6.7,0.199l-0.141,0.761c3.8-0.011,7.59,0.35,11.34,1.029c3.631,0.351,7.131,1.521,10.431,3.07
		c0.29-0.05,0.88-0.15,1.181-0.2l0.061,0.95c1.64,0.5,3.26,1.05,4.899,1.57c0.061,0.239,0.18,0.71,0.239,0.949
		c0.431-0.109,1.301-0.34,1.729-0.46l0.301,1.46c0.46-0.109,1.369-0.319,1.83-0.43l0.039,0.79c2.421,1.061,4.729,2.4,6.771,4.11
		c0.57,0.109,1.71,0.31,2.29,0.42c-0.01,0.43-0.029,1.28-0.04,1.71c0.78,0.07,2.341,0.2,3.12,0.27
		c-0.029,0.351-0.08,1.061-0.109,1.41c1.38,0.55,2.75,1.15,4.141,1.72c-0.021,0.421-0.061,1.261-0.08,1.681
		c0.351,0.02,1.04,0.05,1.391,0.06c1.34,1.51,2.699,2.98,4.09,4.45c0.899,0.67,1.8,1.36,2.7,2.05c1.1,1.29,2.189,2.59,3.3,3.87
		c2.149,2.24,4.189,4.58,5.96,7.13c0.729,0.8,1.47,1.601,2.229,2.4c1.271,1.97,2.521,3.96,3.681,6l0.29-0.05
		c0.859,1.54,1.729,3.09,2.619,4.63c0.939,1.66,1.87,3.34,2.82,5c1.101,2.47,2.229,4.939,3.229,7.46l0.399-0.05
		c0.439,1.38,0.91,2.76,1.351,4.159l0.64-0.09c0.471,1.91,0.96,3.82,1.4,5.74c0.64,2.54,0.92,5.15,1.13,7.76
		c0.359,1.71,0.601,3.45,0.811,5.19c0.859,5.17,1.05,10.489-0.011,15.649c-0.46,3.439-1.01,6.88-1.87,10.25
		c-0.909,2.971-1.819,5.939-2.579,8.95c-0.54,1.319-1.04,2.64-1.601,3.949c-0.109,1.511-0.21,3.021-0.29,4.551
		c-0.311,0.01-0.92,0.029-1.221,0.039c0.16,0.461,0.49,1.381,0.65,1.841l-1.53,0.25l0.311,1.159c-1.24,2.021-2.45,4.061-3.59,6.15
		c-1.091,1.6-2.07,3.29-3.2,4.869c-1.771,2.979-3.851,5.761-6.061,8.421c-0.029,0.21-0.09,0.63-0.109,0.84
		c-1.641,1.91-3.261,3.83-4.851,5.779c-5.25,6.57-12.16,11.561-19.229,16.011l-0.029,0.37c-2.62,1.239-5.171,2.649-7.591,4.26
		c-0.159-0.01-0.479-0.04-0.649-0.061c-2.21,1.21-4.431,2.399-6.699,3.489l-0.03,0.74c-0.45-0.069-1.33-0.2-1.771-0.271
		l-0.271,1.311c-0.311-0.04-0.93-0.12-1.239-0.149c-1.391,0.859-2.771,1.739-4.091,2.699c-3.521,1.21-7.319,1.17-10.75,2.66
		c1.011-0.54,2.011-1.09,3.021-1.64c-1.38,0.358-2.75,0.729-4.119,1.108c-3.381,0.61-6.771,1.2-10.171,1.62
		c3.881,0.67,7.771,1.4,11.689,1.931c3.471,0.819,6.98,1.42,10.45,2.25c1.221,0.42,2.431,0.851,3.66,1.301
		c0.29,0.05,0.88,0.14,1.18,0.188c1.351,0.421,2.71,0.812,4.08,1.21c2.88,1.12,5.801,2.15,8.761,3.07c2.01,0.66,4.01,1.351,6.029,2
		c6.761,2,13.149,5.01,19.54,7.93l0.061,0.431c1.359,0.421,2.729,0.881,4.109,1.319l-0.021,0.45c2.61,1.021,5.11,2.3,7.551,3.681
		c1.779,1.369,3.569,2.729,5.409,4.04l-0.04,1.01c1.681-0.561,3.37-1.13,5.07-1.67c-0.04-0.33-0.109-1-0.149-1.34
		c0.529-0.131,1.569-0.391,2.09-0.521c1.779-1.13,3.58-2.221,5.351-3.37c2.119-1.45,4.29-2.84,6.619-3.92
		c0.021-0.3,0.051-0.891,0.07-1.181c0.569-0.109,1.71-0.329,2.279-0.431c1.04-0.829,2.101-1.64,3.16-2.438
		c0.971-0.641,1.95-1.301,2.931-1.94c2.92-2.08,5.92-4.05,8.989-5.909c2.46-1.801,5.021-3.45,7.681-4.931l-0.141-0.811
		c0.311,0,0.931-0.011,1.24-0.011c1.029-0.81,2.09-1.579,3.159-2.329c1.38-1,2.771-1.979,4.17-2.96
		c1.141-0.601,2.28-1.211,3.439-1.79l0.07-0.811c0.3-0.021,0.91-0.07,1.21-0.101c1.439-1.271,3-2.391,4.431-3.67
		c0.311,0.029,0.92,0.069,1.229,0.101c0.05-0.21,0.159-0.61,0.21-0.811c6.84-3.91,13.1-8.721,19.87-12.729l0.01-0.88
		c0.34,0.029,1.01,0.069,1.351,0.09c3.569-2.729,7.43-5.021,11.18-7.49c3.811-2.609,7.591-5.25,11.461-7.77l0.01-0.79
		c0.3-0.021,0.891-0.051,1.189-0.061c3.561-2.49,7.25-4.78,10.96-7.061l-0.021-0.92c0.46,0.1,1.391,0.31,1.851,0.41l-0.091-0.892
		c1.62-0.96,3.221-1.96,4.83-2.949c0.979-0.58,1.95-1.181,2.92-1.801c1.061-0.779,2.11-1.579,3.11-2.438
		c0.3-0.011,0.91-0.03,1.22-0.04l0.131-1.33c0.329,0.09,1,0.26,1.329,0.35c1.66-1.449,3.421-2.779,5.101-4.21
		c0.381,0.07,1.12,0.2,1.5,0.271l-0.229-0.95c1.96-1.221,3.899-2.45,5.851-3.681c2.92-2.199,5.96-4.239,9.141-6.05l0.1-0.279
		c3.23-2.12,6.44-4.29,9.971-5.87c0.04-0.351,0.109-1.04,0.149-1.391c0.471,0.029,1.42,0.101,1.9,0.13l0.029-0.819
		c0.899-0.57,1.811-1.13,2.729-1.689c2.05-1.399,4.09-2.811,6.2-4.141c0.93-0.729,1.88-1.47,2.829-2.189
		c0.171-0.091,0.511-0.279,0.671-0.37c1.149-0.54,2.31-1.061,3.489-1.55c-0.021-0.261-0.061-0.78-0.08-1.04
		c1.2-0.601,2.439-1.171,3.66-1.761c1.351-1.029,2.739-2.021,4.119-3.021c2.182-1.409,4.33-2.859,6.432-4.409l0.89-0.19
		c0.67-0.56,1.34-1.119,2.021-1.67c1.341-0.84,2.67-1.689,4.021-2.529c1.45-1.08,2.931-2.141,4.42-3.18
		c0.5-0.29,1.511-0.859,2.021-1.149c1.92-1.341,3.859-2.66,5.811-3.95c1.09-0.67,2.18-1.351,3.279-2.021
		c2.381-1.76,4.859-3.38,7.431-4.85l0.101-0.75c0.3-0.021,0.891-0.061,1.181-0.08c2.01-1.521,4.109-2.91,6.22-4.29
		c3.021-1.92,5.99-3.94,9.04-5.82c1.67-1.109,3.359-2.189,5.061-3.26c1.319-0.939,2.67-1.86,4.021-2.79
		c1.641-1.03,3.279-2.06,4.899-3.14c3.859-2.84,8.091-5.13,11.899-8.04c1.04-0.69,2.08-1.37,3.149-2.04
		c2.181-1.601,4.391-3.17,6.649-4.67l-0.18-0.641c0.49,0.011,1.46,0.04,1.939,0.051c0.029,0.51,0.09,1.52,0.109,2.02l-0.479-0.2
		c-1.541,3.04-3.24,5.98-5.021,8.88l-0.63-0.04c0.05,0.341,0.15,1.021,0.2,1.36l-1.37-0.07c0.101,0.341,0.3,1.011,0.399,1.351
		c-7.609,10.55-13.37,22.31-20.569,33.14c-0.939,1.61-1.851,3.24-2.771,4.86c-0.92,1.39-1.841,2.779-2.79,4.148
		c0.069,0.352,0.2,1.04,0.26,1.381l-0.859-0.08c-3.771,6.271-7.5,12.569-11.51,18.699c-0.79,1.32-1.53,2.671-2.29,4
		c-2.41,4-4.931,7.94-7.561,11.801c-0.061,0.631-0.17,1.891-0.229,2.521c-0.319-0.03-0.971-0.07-1.301-0.101
		c-1.609,2.931-3.319,5.801-5.05,8.66c-1.3,1.829-2.54,3.699-3.79,5.561c-1.979,3.229-4.069,6.38-6.189,9.52
		c-1.08,1.62-2.13,3.271-3.149,4.95c-0.931,1.7-1.899,3.38-2.891,5.061c-0.83,1.391-1.67,2.79-2.479,4.211
		c-1.391,2.17-2.83,4.318-4.239,6.479c-1.69,2.971-3.521,5.851-5.521,8.61c-0.01,0.189-0.029,0.56-0.039,0.739
		c-0.87,1.29-1.7,2.601-2.551,3.909c-1.75,2.78-3.59,5.5-5.521,8.15c-0.01,0.2-0.01,0.6-0.01,0.8
		c-3.17,4.13-5.979,8.521-8.58,13.021c-1.101,1.38-2.149,2.79-3.24,4.17c-0.14,0.58-0.42,1.739-0.56,2.319
		c-0.479-0.021-1.45-0.061-1.931-0.069c0.101,0.51,0.311,1.54,0.41,2.05l-1.2,0.12c-0.01,0.319-0.03,0.96-0.04,1.29
		c-1.26,1.398-2.399,2.898-3.649,4.31c-0.131,0.61-0.381,1.83-0.511,2.44c-0.31-0.011-0.92-0.04-1.229-0.062
		c-0.61,1.2-1.19,2.432-1.801,3.642c-1.471,1.989-2.859,4.05-4.24,6.108c-1.01,1.551-2.01,3.11-3,4.671
		c-1.64,2.511-3.459,4.909-5.359,7.239l-0.1,0.58c-1.511,2.08-3.03,4.16-4.511,6.26c-2.341,3.33-4.771,6.591-7.069,9.95
		c-1,1.311-1.95,2.65-2.931,3.971c-1.42,2.09-2.841,4.189-4.149,6.359c-0.36,0.07-1.07,0.2-1.42,0.271
		c0.05,0.46,0.159,1.399,0.21,1.859l-0.83,0.062c-0.511,0.92-1.08,1.818-1.7,2.68c-0.68,0.95-1.35,1.91-2.069,2.84
		c-2.341,3.36-4.67,6.72-7,10.09c-0.67,0.971-1.341,1.96-2.011,2.94c-2.29,3.12-4.71,6.14-6.92,9.319l-0.239,0.199
		c-1.25,1.771-2.551,3.49-3.82,5.24c-3.689,4.87-7.21,9.86-10.869,14.76l-0.78-0.02c0.011,0.479,0.05,1.43,0.069,1.91
		c-0.319,0.028-0.959,0.1-1.279,0.13c-2.061,3.41-4.771,6.35-7.149,9.529c-1.229,1.329-2.439,2.681-3.681,4.011
		c-0.271,5.33,0.07,10.67,0.221,16.01c1.22,5.189,0.689,10.55,0.789,15.84c-0.08,4.67,0.431,9.431-0.699,14.03
		c-0.261,2.649-0.511,5.31-0.95,7.96c-0.149,2.24-0.289,4.479-0.439,6.74c-0.55,1.76-1.05,3.529-1.54,5.318
		c-0.319,2.392-0.899,4.722-1.449,7.07c-0.32,1.29-0.631,2.6-0.91,3.92c-0.471,1.62-0.96,3.23-1.439,4.86
		c-1.01,3.409-1.729,6.909-2.58,10.37c-0.439,1.528-0.84,3.09-1.22,4.648c-1.271,3.812-2.5,7.62-3.7,11.45
		c-0.79,2.229-1.55,4.49-2.37,6.72c-0.31,1.11-0.601,2.24-0.88,3.392c-0.109,0.02-0.32,0.06-0.43,0.09
		c-0.421,1.46-0.87,2.93-1.291,4.42c-0.709,1.74-1.42,3.49-2.13,5.25c-1.079,2.41-2.159,4.83-3.199,7.26l-0.9,0.03
		c0.09,0.46,0.271,1.39,0.36,1.85l-0.78,0.08c-1.49,3.11-3.1,6.16-4.729,9.2c-0.229-0.01-0.689-0.021-0.92-0.021
		c-0.859,2.819-2.5,5.289-4.341,7.58c-0.13,0.319-0.398,0.96-0.529,1.279c-2.561,3.36-5.25,6.62-8.21,9.65
		c-1.431,1.6-2.83,3.21-4.261,4.818c-0.68,0.75-1.34,1.521-2,2.302c-0.329,0.028-0.989,0.079-1.319,0.1l0.141,0.82
		c-5.87,5.71-11.99,11.18-18.351,16.34l-0.739,0.04c-0.87,0.83-1.75,1.66-2.65,2.479c-0.92,0.67-1.83,1.36-2.75,2.051
		c-4.199,2.979-8.449,5.881-12.77,8.699l0.069,0.94c-0.479-0.11-1.439-0.33-1.921-0.431l0.021,1.431
		c-0.48-0.05-1.45-0.141-1.931-0.181c-0.061,0.359-0.159,1.091-0.221,1.461c-2.52,1.14-4.97,2.448-7.34,3.869
		c-1.88,1-3.75,1.989-5.64,2.96l-0.04,0.87c-0.46-0.109-1.37-0.33-1.83-0.439l-0.09,1.398c-0.472-0.079-1.41-0.229-1.881-0.31
		l-0.021,0.84c-2.76,1.37-5.729,2.511-8.061,4.58c-0.319,3.22-0.189,6.46-0.181,9.69l-0.76,0.01c-0.07,9.81-0.04,19.62-0.38,29.43
		c-0.771,3.65-0.55,7.4-0.59,11.11c-0.08,13.529-0.221,27.06-0.23,40.6l-0.75-0.22c-0.1,12.54-0.1,25.07-0.109,37.61H302.76
		l-1.221-0.012c-0.05-8.028,1.141-15.988,0.78-24.02c0.279-24.062,0.439-48.12,0.12-72.181c-1.631-11.189,0.18-22.569-0.95-33.789
		c-3.05-2.16-6.38-3.881-9.609-5.74c-1.26-0.931-2.521-1.84-3.76-2.771c-0.62-0.039-1.851-0.13-2.471-0.17
		c-0.02-0.489-0.069-1.46-0.09-1.949l-1.93,0.221c-0.021-0.32-0.07-0.96-0.101-1.28l-1.18,0.351l-0.01-1.351
		c-0.45,0.11-1.37,0.32-1.83,0.43l0.14-0.869c-0.439-0.351-1.34-1.051-1.779-1.399c-0.351,0.05-1.03,0.17-1.37,0.229v-0.738
		c-5.73-3-11.141-6.562-16.69-9.86c-1.58-1.05-3.16-2.07-4.71-3.149c-5.13-3.62-10.25-7.271-15.29-11.029
		c-0.88-0.66-1.76-1.301-2.649-1.91c-1.79-1.74-3.561-3.471-5.25-5.29c-0.221-0.04-0.67-0.141-0.891-0.19
		c-0.66-0.81-1.33-1.6-2-2.38c-1.069-1.159-2.109-2.34-3.149-3.51c-0.351-0.03-1.07-0.09-1.431-0.12
		c0.021-0.34,0.051-1.01,0.07-1.35c-3.11-2.99-5.77-6.391-8.42-9.771l-0.81,0.08c0.079-0.489,0.25-1.47,0.329-1.96
		c-0.55-0.03-1.659-0.09-2.21-0.12c0.091-0.479,0.25-1.43,0.341-1.909l-0.95,0.061c-0.86-1.33-1.74-2.66-2.59-3.99l-0.771-0.149
		c-0.04-0.279-0.12-0.851-0.16-1.141c-1.09-1.39-2.16-2.81-3.239-4.189c-3.311-5.17-6.33-10.5-9.04-16
		c-0.681-1.511-1.2-3.101-2-4.54l-0.69-0.039c0.09-0.49,0.27-1.48,0.36-1.972l-1.28-0.188c0.05-0.33,0.15-0.971,0.2-1.301
		c-0.98-2.3-1.891-4.63-2.78-6.949c-0.4-1.011-0.82-1.99-1.24-2.96c-0.02-0.312-0.06-0.94-0.08-1.25
		c-0.3-0.86-0.899-2.57-1.199-3.432h-0.45c-0.771-2.5-1.641-4.97-2.511-7.42c-0.38-0.989-0.75-1.96-1.119-2.93
		c-0.71-2.09-1.341-4.2-1.95-6.311c-0.53-1.931-1.04-3.859-1.62-5.761c-0.04-0.3-0.13-0.909-0.18-1.22
		c-0.561-1.95-1.12-3.89-1.721-5.81c-0.54-2.7-1.12-5.4-1.569-8.11c-0.21,0.21-0.63,0.62-0.84,0.82
		c0.01-1.921,0.02-3.852,0.079-5.75c-0.369-1.432-0.729-2.83-1.069-4.24c-1.2-4.939-0.62-10.05-1.271-15.05
		c-1.16-6.352-0.109-12.881-1.38-19.221c-0.35-9.489-0.01-19.061,1.67-28.41c0.04-3.029,0.11-6.09,0.891-9.039
		c0.31-1.642,0.63-3.28,0.989-4.892c0.29-1.72,0.601-3.43,0.99-5.108c0.4-1.432,0.83-2.841,1.271-4.24
		c0.01-0.15,0.05-0.45,0.06-0.59c0.67-1.82,1.3-3.631,1.96-5.431c0.01-0.561,0.03-1.7,0.04-2.261l0.89,0.08
		c0.051-1,0.17-3.01,0.23-4.01c-0.75-0.24-2.26-0.7-3.01-0.94c-3.04-0.51-6.061-1.17-9.13-1.42l0.17-0.449
		c-4.45-0.711-8.761-2.101-13.17-2.989c-0.801-0.36-1.591-0.711-2.381-1.062c-1.08-0.43-2.14-0.87-3.199-1.319
		c-1.62-0.79-3.25-1.551-4.891-2.29c-1.859-0.96-3.689-1.949-5.55-2.891l-0.11-0.239c-2.27-1.04-4.449-2.261-6.58-3.551l-0.619,0.24
		c-1.431-1.07-2.881-2.11-4.311-3.17c-0.34,0.03-1.02,0.1-1.35,0.13l0.01-1.3c-0.29,0.01-0.86,0.021-1.15,0.029
		c-1.229-0.869-2.489-1.681-3.77-2.439c-0.05-0.189-0.13-0.57-0.17-0.76c-4.17-2.46-8.061-5.352-11.74-8.471
		c-0.3,0-0.88-0.011-1.18-0.011l0.06-1.22l-1.28,0.16l0.211-1.28c-0.271-0.021-0.811-0.05-1.091-0.07
		c-1.22-0.858-2.409-1.76-3.64-2.59c-0.14-0.49-0.43-1.46-0.57-1.95c-0.51-0.09-1.52-0.29-2.029-0.39
		c-4.67-5.1-10.301-9.36-13.92-15.37c-1.801-2.43-3.53-4.92-5.131-7.49l-0.85-0.02c0.04-0.34,0.14-1.021,0.18-1.36
		c-1.229-1.42-2.439-2.84-3.689-4.239c-0.12-0.439-0.37-1.319-0.49-1.761c-1.31-1.898-2.51-3.858-3.7-5.83
		c-0.439-1.01-0.88-2.02-1.319-3.02l-0.521,0.3c-0.43-1.43-0.9-2.84-1.35-4.25l-0.49,0.15c-1.05-2.521-2.12-5.03-3.19-7.54
		c-1.3-3.61-2.63-7.2-4.04-10.771c-0.43-1.43-0.899-2.83-1.34-4.24c-0.38-1.31-0.76-2.608-1.109-3.908
		c-0.5-1.392-0.99-2.762-1.511-4.142c-0.1-1.34-0.21-2.659-0.33-3.989c-1.26-3.101-2.59-6.381-1.579-9.779
		c-0.5,1.18-1.011,2.37-1.53,3.55c-1.811-4.32,0-9.1-0.88-13.61c-0.75-2.619-1.011-5.329-1.09-8.04
		C52.8,477.389,53.46,466.5,55.24,456c0.5-2.76,1.18-5.49,1.92-8.2c0.37-1.939,0.88-3.84,1.279-5.76
		c-0.02-0.392-0.06-1.16-0.08-1.55h0.87c0.29-1.73,0.61-3.461,1-5.16c0.67-2.142,1.37-4.271,2.07-6.392
		c0.63-1.93,1.23-3.858,1.87-5.77c0.81-2.39,1.67-4.77,2.52-7.14c0.32-0.73,0.641-1.45,0.96-2.16c0.83-1.771,1.54-3.58,2.32-5.36
		l0.82-0.08l-0.26-1.2c2.81-4.6,5.5-9.26,8.22-13.909l0.26,0.069c1.76-3.06,3.73-5.989,5.81-8.83c2.07-2.63,4.091-5.3,6.101-7.97
		l0.25-0.13c1.24-1.65,2.53-3.26,3.8-4.89c0.4-0.03,1.2-0.11,1.6-0.15c-0.079-0.49-0.239-1.479-0.319-1.979l1.359,0.289l-0.21-0.819
		c3.301-3.55,6.65-7.08,10.561-9.98c2.859-2.67,5.71-5.35,8.34-8.239c0.58-0.091,1.73-0.261,2.3-0.351
		c-0.02-0.46-0.069-1.38-0.09-1.84c0.37,0.01,1.13,0.03,1.5,0.04c0.84-0.47,1.68-0.93,2.521-1.38c0.13,3.29,0.039,6.63-0.94,9.819
		c-0.16,3.971-0.04,7.98-0.94,11.891c-0.109,2.25-0.22,4.49-0.29,6.75l-0.75-0.25c-0.04,3.25-0.04,6.53-0.819,9.7
		c-0.24,4.68-0.09,9.37-0.49,14.04c-1.2,8.239-0.49,16.6-0.66,24.899c0.96,8,1.05,16.101,2.72,24.021
		c0.46,2.631,1.011,5.25,1.381,7.909c0.79,2.94,1.39,5.921,1.939,8.921c0.67,2.391,1.29,4.801,1.96,7.199
		c0.72,2.36,1.4,4.74,2.021,7.13c1.01,4.091,2.58,8.012,4.12,11.921c0.47,1.25,0.939,2.511,1.43,3.771
		c0.939,2.43,2.03,4.81,3.2,7.149c0.02,0.319,0.069,0.971,0.09,1.301c0.71,1.21,1.43,2.42,2.149,3.63
		c-0.069,0.34-0.199,1.03-0.27,1.38c0.35,0.08,1.06,0.25,1.42,0.33l-0.63,1.689l1.52,0.17c-0.1,0.461-0.29,1.369-0.39,1.819
		l1.33,0.24c-0.09,0.45-0.28,1.36-0.38,1.82l0.88,0.068c2.46,6.69,6.689,12.521,11.17,18l0.26,0.88
		c3.101,3.512,6.26,7.021,8.681,11.062c0.329-0.04,0.989-0.11,1.319-0.15l-0.28,1.312c0.341,0.01,1.03,0.028,1.37,0.04v1.04
		c0.78,1.25,1.641,2.448,2.62,3.568c0.53,0.13,1.59,0.4,2.12,0.53c-0.02,0.45-0.07,1.34-0.1,1.79l1.319-0.1
		c0.021,0.318,0.07,0.96,0.091,1.278c8.35,8.29,16.52,16.8,25.71,24.19l0.01,0.29c2.03,1.31,4.03,2.66,6.08,3.95
		c0,0.31,0.01,0.93,0.02,1.229c0.74,0.07,2.23,0.2,2.971,0.271c-0.011,0.488-0.03,1.479-0.04,1.97c1.409-0.04,2.829-0.09,4.25-0.13
		c1.17-2.03,2.64-3.852,4.229-5.551c6.88-6.471,13.04-13.829,21.01-19.029c0.99-0.67,1.99-1.352,2.99-2
		c1.37-0.98,2.76-1.931,4.12-2.91c2.42-1.45,4.86-2.89,7.42-4.09c-0.02-0.32-0.05-0.96-0.06-1.28c0.79-0.03,2.359-0.1,3.149-0.14
		l-0.17-1.17l0.561,0.18c1.18-0.47,2.359-0.91,3.56-1.35l0.07-0.91c0.439,0.1,1.319,0.31,1.76,0.42c0.09-0.352,0.25-1.05,0.34-1.4
		l1.03,0.2c1.27-0.49,2.55-0.95,3.84-1.39c0-0.33-0.01-0.98-0.01-1.312c0.89-0.09,1.79-0.18,2.68-0.25
		c1.95-1.09,3.96-2.05,5.92-3.12c0.18,0.03,0.53,0.08,0.71,0.102c2.9-1.521,5.92-2.79,9.03-3.84c5.8-1.98,11.62-3.932,17.59-5.352
		c0.021-0.14,0.061-0.42,0.08-0.56c1.92-0.21,3.859-0.41,5.779-0.67c1.62-0.44,3.25-0.802,4.87-1.23c1.33-0.18,2.67-0.33,4.021-0.46
		c3.84-0.92,7.75-1.57,11.66-2.1c4.561-1.2,9.329-0.7,13.92-1.722c-0.12-0.88-0.24-1.75-0.359-2.608
		c-3.091-0.61-6.07-1.602-9.011-2.67l-0.09-0.352c-5.641-1.93-10.261-5.88-15.801-8.01c-0.01-0.34-0.021-1.01-0.029-1.35
		c-0.74-0.021-2.21-0.062-2.95-0.08l0.061-1.24l-1.329,0.28c0.039-0.5,0.109-1.5,0.149-2c-0.479,0.05-1.46,0.14-1.939,0.188
		c-0.03-0.359-0.08-1.069-0.11-1.43l-1.22,0.17c-3.03-3.33-6.37-6.37-9.13-9.94l-0.19,0.012c-1.21-1.7-2.479-3.341-3.71-5.012
		l-0.29-0.13c-1.31-1.909-2.689-3.77-4.09-5.6c-0.1-0.18-0.29-0.55-0.39-0.73c-0.37-0.608-1.11-1.829-1.48-2.438
		c-0.36-0.011-1.07-0.05-1.42-0.07c-0.03-0.77-0.08-2.319-0.11-3.09c-0.409,0.05-1.22,0.14-1.63,0.189
		c-0.569-1.391-1.14-2.761-1.67-4.149c-0.399-0.01-1.2-0.05-1.6-0.07c0.05-0.489,0.149-1.479,0.2-1.97l-1.421-0.101
		c0.12-0.449,0.36-1.369,0.48-1.819l-1.35-0.15c0.02-0.33,0.06-0.979,0.08-1.31c-1.771-3.812-2.681-7.92-3.851-11.931
		c-0.64-2.181-1.13-4.399-1.439-6.649c-0.131,0.02-0.4,0.06-0.54,0.08c-1.671-6.42-1.16-13.09-1.24-19.65
		c0.189-5.949-0.311-11.979,0.96-17.85c0.12-0.71,0.25-1.41,0.39-2.11c0.57-2.279,0.99-4.6,1.5-6.899
		c0.49-1.71,1.021-3.42,1.521-5.12c0.54-1.39,1.09-2.76,1.649-4.13c0.07-0.46,0.21-1.37,0.28-1.83c0.58-1.57,1.11-3.16,1.64-4.74
		c1.591-2.93,3.141-5.89,4.42-8.97l0.5,0.2c0.551-1.721,1.131-3.431,1.681-5.15c0.26,0.08,0.77,0.25,1.03,0.33
		c2.05-3.57,4.939-6.55,7.1-10.05c0.189-0.07,0.56-0.22,0.75-0.3c3.34-3.88,7.939-6.32,12.16-9.101c4.55-2.68,8.84-5.81,13.59-8.14
		l0.01-0.83c0.311,0.04,0.921,0.14,1.229,0.18c1.881-1.189,3.811-2.3,5.78-3.35l-0.03-0.86c0.471,0.13,1.41,0.391,1.881,0.521
		l0.09-1.391c0.399,0.061,1.21,0.17,1.609,0.221c1.24-0.721,2.49-1.44,3.74-2.15c0.3,0,0.89,0,1.18,0
		C340.56,337.62,344.23,336.05,348.119,335.22z"/>
</g>
</svg>
