<?xml version="1.0" encoding="utf-8"?>
<!-- Generator: Adobe Illustrator 15.0.2, SVG Export Plug-In . SVG Version: 6.00 Build 0)  -->
<!DOCTYPE svg PUBLIC "-//W3C//DTD SVG 1.1 Basic//EN" "http://www.w3.org/Graphics/SVG/1.1/DTD/svg11-basic.dtd">
<svg version="1.1" baseProfile="basic" id="Layer_1"
	 xmlns="http://www.w3.org/2000/svg" xmlns:xlink="http://www.w3.org/1999/xlink" x="0px" y="0px" width="378.34px" height="430px"
	 viewBox="0 0 378.34 430" xml:space="preserve">
<g id="_x23_000000ff">
	<path fill="#FFFF00" d="M0,0.55C4.09,0.82,7.55,3.16,11.19,4.79c38.67,18.9,77.51,37.42,116.57,55.49
		c12.7,5.91,25.04,12.61,38,17.97c19.86,10.08,40.21,19.19,60.31,28.8c37.449,17.32,74.381,35.75,111.841,53.07
		c13.409,6.97,27.67,12.36,40.43,20.521c-6.04,6.6-13.43,11.729-20.562,17.067c-20.469,15.33-40.858,30.763-61.438,45.933
		c-20.28,14.76-41.271,28.51-61.75,43c-16.67,11.5-34.239,21.63-51.19,32.71c-7.729,4.82-15.659,9.438-22.38,15.68
		c-7.37,6.08-15.359,11.37-23.09,16.98c-18.57,12.76-36.689,26.17-55.31,38.87C64.09,404.35,44.96,416.97,26.13,430h-3.3
		c-2.59-13.76-5.801-27.487-6.521-41.51c-1.88-12.76-1.37-25.688-2.64-38.5c-0.82-14.06-0.811-28.17-1.521-42.229
		c-2.38-11.473-1.159-23.25-2.52-34.83C8.34,259,9.18,244.96,7.64,231.05C7.06,223.04,7.4,215,6.98,206.98
		C6.32,196.8,6.86,186.57,5.8,176.41c-0.74-12.14-1.021-24.3-1.51-36.46c-0.811-10.62-1.69-21.24-1.84-31.89
		C2.35,100.34,0.99,92.71,0.9,85C0.66,57.87,1.16,30.71,0,3.6V0.55z"/>
</g>
</svg>
