<?xml version="1.0" encoding="utf-8"?>
<!-- Generator: Adobe Illustrator 15.0.2, SVG Export Plug-In . SVG Version: 6.00 Build 0)  -->
<!DOCTYPE svg PUBLIC "-//W3C//DTD SVG 1.1 Basic//EN" "http://www.w3.org/Graphics/SVG/1.1/DTD/svg11-basic.dtd">
<svg version="1.1" baseProfile="basic" id="Layer_1"
	 xmlns="http://www.w3.org/2000/svg" xmlns:xlink="http://www.w3.org/1999/xlink" x="0px" y="0px" width="886px" height="886px"
	 viewBox="0 0 886 886" xml:space="preserve">
<g id="_x23_010101ff">
	<path fill="#00FFFF" d="M379.345,221.662c15.892-2.66,31.857-5.391,47.993-5.873c6.663,0.57,13.356,0.784,20.021,1.338
		c34.397,2.26,68.768,9.052,100.494,22.815c14.689,6.935,28.198,16.068,41.803,24.877c2.354,1.502,4.545,3.221,6.641,5.064
		c5.939,5.155,11.93,10.254,17.529,15.783c3.962,3.964,9.503,5.991,13.088,10.384c8.243,9.68,16.119,19.682,23.132,30.285
		c4.699,6.549,7.927,13.974,11.395,21.206c3.039,7.717,6.866,15.134,9.329,23.084c3.336,8.636,6.372,17.433,8.026,26.569
		c3.403,18.245,6.521,36.566,8.189,55.055c0.517,4.371-0.056,8.784,0.503,13.163c-0.334,16.808-2.778,33.485-4.271,50.211
		c-0.934,10.979-3.796,21.641-6.083,32.386c-4.085,15.859-10.361,31.042-16.899,46.025c-5.172,12.164-11.132,24.035-18.613,34.955
		c-5.249,7.675-10.57,15.376-17.203,21.949c-3.845,5.022-9.119,8.603-13.788,12.789c-4.856,4.33-10.011,8.311-15.334,12.047
		c-22.25,16.979-45.666,32.536-70.527,45.441c-1.027,39.954-2.863,79.889-5.156,119.79c-0.726,15-1.995,29.983-2.527,44.993H371.377
		c-0.225-21.256-1.486-42.481-2.379-63.722c-0.535-7.397-0.023-14.816-0.352-22.225c-0.406-9.719-0.217-19.454-0.373-29.181
		c-0.866-15.258,1.019-30.542-0.132-45.793c-0.462-4.03-1.01-8.043-1.405-12.072c-1.71-0.316-3.404-0.75-4.927-1.577
		c-20.934-10.955-41.713-22.208-62.069-34.187c-2.953-1.928-5.406-4.479-8.017-6.8c-10.419-9.333-20.197-19.362-29.624-29.683
		c-10.903-12.579-20.99-25.844-30.867-39.241c-2.37-3.161-3.714-6.907-5.474-10.41c-4.096-9.103-8.784-18.037-11.361-27.73
		c-3.254-9.091-5.873-18.42-7.735-27.896c-3.062-12.088-4.604-24.468-6.516-36.765c-0.592-8.259-1.102-16.536-1.102-24.811
		c-0.991-26.57-0.969-53.326,3.287-79.646c2.902-17.578,6.265-35.274,13.464-51.675c4.955-14.6,12.148-28.256,19.431-41.796
		c2.578-4.229,5.464-8.275,8.458-12.221c6.544-7.375,13.876-13.981,20.968-20.822c7.506-5.99,15.005-12.305,24.025-15.918
		c3.502-1.341,6.676-3.379,10.011-5.08c15.666-7.092,32.011-12.563,48.438-17.608C357.721,226.067,368.49,223.605,379.345,221.662z"
		/>
</g>
</svg>
