<?xml version="1.0" encoding="utf-8"?>
<!-- Generator: Adobe Illustrator 15.0.2, SVG Export Plug-In . SVG Version: 6.00 Build 0)  -->
<!DOCTYPE svg PUBLIC "-//W3C//DTD SVG 1.1 Basic//EN" "http://www.w3.org/Graphics/SVG/1.1/DTD/svg11-basic.dtd">
<svg version="1.1" baseProfile="basic" id="Layer_1"
	 xmlns="http://www.w3.org/2000/svg" xmlns:xlink="http://www.w3.org/1999/xlink" x="0px" y="0px" width="485.109px" height="482px"
	 viewBox="0 0 485.109 482" xml:space="preserve">
<g id="_x23_000000ff">
	<path fill="#FFFFCC" d="M228.86,1.88c7.021-0.857,14.11-0.688,21.16-1.188c32.83-0.47,65.54,6.438,95.899,18.76
		c8.99,5.271,18.301,10.021,26.92,15.88c15.761,10.5,29.881,23.28,42.45,37.4c12.561,14.34,24.408,29.38,34.488,45.59
		c4.66,7.79,9.88,15.34,13.05,23.91c3.4,9.17,7.99,17.88,11.062,27.17c3.54,16.83,7.97,33.52,10.06,50.62
		c1.933,10.527,0.812,21.33,1.062,31.979c-1.12,8.96-1.75,18-3.472,26.88c-2.358,19.263-8.568,37.771-15.101,55.963
		c-2.45,9.35-8.04,17.43-12.77,25.737c-2.312,4.65-5.053,9.07-7.99,13.343c-5.97,9.13-11.98,18.3-19.103,26.579
		c-6.817,6.579-13.908,12.868-20.918,19.229c-2.28,2.11-4.592,4.19-7.062,6.08c-3.761,2.88-6.74,6.81-11.141,8.79
		c-10.189,5.33-19.88,11.53-29.932,17.08c-5.64,3.87-12.29,5.569-18.56,8.069c-8.75,3.811-17.94,6.5-26.851,9.938
		c-7.41,2.9-15.229,4.72-23.149,5.54c-1.421,0.11-2.761,0.61-4.07,1.12c-9.92,1.71-19.851,3.39-29.858,4.46
		c-17.301,1.16-34.67,1.27-51.979,0.29c-12.53-0.08-24.858-2.65-36.92-5.86c-6.67-0.96-12.66-4.16-18.971-6.29
		c-6.55-2.79-13.029-5.77-19.239-9.26c-5.45-2.25-10.729-4.93-15.891-7.8C93.5,439.56,77.43,424,61.95,408.1
		c-3.922-3.54-6.2-8.38-9.672-12.28c-5.92-5.76-11.39-12.03-16.22-18.74c-2.95-4.18-5.479-8.64-7.851-13.157
		c-2.92-5.223-5.91-10.45-7.899-16.11c-4.2-7.9-6.898-16.5-10.341-24.75c-3.159-9.83-7.51-19.54-7.829-30.011
		C0.08,278.14,0.16,263.04,0.23,248.02c0.312-10.37,0.562-20.771,1.88-31.07c0.83-6.34-0.188-12.91,1.722-19.09
		c2.479-9.36,5.229-18.66,8.33-27.83c2.5-8.4,5.54-16.62,8.39-24.9c1-4.17,3.37-7.76,5.08-11.63c2.601-5.96,5.011-12.01,8.04-17.76
		c3.7-6.15,7.938-11.979,12.54-17.47C59.63,79.53,76.62,63.63,94.82,49.62c11.71-8.51,23.91-16.34,36.58-23.33
		c4.722-2.688,9.13-6.05,14.37-7.688c18.812-7.053,38.489-11.29,58.109-15.37C212.19,2.65,220.59,3.2,228.86,1.88z"/>
</g>
</svg>
