<?xml version="1.0" encoding="utf-8"?>
<!-- Generator: Adobe Illustrator 15.0.2, SVG Export Plug-In . SVG Version: 6.00 Build 0)  -->
<!DOCTYPE svg PUBLIC "-//W3C//DTD SVG 1.1//EN" "http://www.w3.org/Graphics/SVG/1.1/DTD/svg11.dtd">
<svg version="1.1" id="Layer_1" xmlns="http://www.w3.org/2000/svg" xmlns:xlink="http://www.w3.org/1999/xlink" x="0px" y="0px"
	 width="384.47px" height="395.788px" viewBox="0 0 384.47 395.788" enable-background="new 0 0 384.47 395.788"
	 xml:space="preserve">
<g id="_x23_000000ff">
	<path fill="#FFFF44" d="M0.387,4.729c6.162-0.74,12.378-0.743,18.57-1.094C43.902,2.33,68.864,1.165,93.824,0.139
		c6.748,0.026,13.491-0.274,20.235,0.048c12.73,0.982,25.521-0.161,38.232,1.073c18.583-0.375,37.167,0.983,55.746-0.132
		c10.334-0.567,20.656,0.939,30.992,0.212c14.982-0.736,30.004-1.223,45.002-0.578c12.023,0.456,24.029-0.561,36.049-0.256
		C334.768,1.116,349.451,0.084,364.145,0c6.639,0.25,13.262,1.028,19.92,0.585c0.309,5.111,0.641,10.231,0.172,15.339
		c-0.129,14.292,0.266,28.609-0.375,42.896c0.094,16.264,0.6,32.547-0.113,48.796c0.047,9.088,0.846,18.21-0.037,27.282
		c-0.789,8.697,0.41,17.399,0.08,26.095c-0.254,4.817,0.191,9.632-0.041,14.438c-0.895,10.744-0.098,21.529-0.283,32.289
		c-1.094,15.448,0.559,30.968-0.637,46.423c-0.326,13.689,0.949,27.396-0.047,41.076c-0.012,8.67,0.336,17.344,0.121,26.014
		c0.756,6.699-1.084,13.324-0.287,20.014c0.357,18.045-0.564,36.078-0.105,54.115l-8.67,0.41
		c-12.025,0.168-24.049-0.891-36.078-0.195c-14.373,0.729-28.766-0.967-43.135,0.07c-6.398,0.16-12.814,0.213-19.209-0.137
		c-12.16-1.199-24.344,0.877-36.514-0.012c-13.176-0.92-26.379,0.141-39.58,0.092c-9.598-0.391-19.217-0.566-28.818-0.154
		c-12.349,0.34-24.677-0.852-37.03-0.199c-12.689,0.74-25.365-0.566-38.062-0.209c-7.076,0.252-14.16,0.756-21.231,0.26
		c-6.918-0.664-13.878-0.068-20.815-0.271c-16.387,0.652-32.77-0.496-49.159,0.123c-0.149-16.34-1.869-32.668-1.166-49.008
		c-0.14-13.363-0.708-26.707-1.076-40.057c-0.004-22.645-0.201-45.291-1.296-67.912c-0.029-9.328-0.498-18.656-0.056-27.966
		c0.042-15.06-0.667-30.113-0.615-45.164c0.983-14.01-0.411-28.063,0.703-42.059c0.085-11.997-0.401-24.008,0.166-36.008
		c0.16-16.673-1.016-33.355-0.139-50.026C0.587,26.204,0.812,15.462,0.387,4.729z"/>
</g>
</svg>
