<?xml version="1.0" encoding="utf-8"?>
<!-- Generator: Adobe Illustrator 15.0.2, SVG Export Plug-In . SVG Version: 6.00 Build 0)  -->
<!DOCTYPE svg PUBLIC "-//W3C//DTD SVG 1.1 Basic//EN" "http://www.w3.org/Graphics/SVG/1.1/DTD/svg11-basic.dtd">
<svg version="1.1" baseProfile="basic" id="Layer_1"
	 xmlns="http://www.w3.org/2000/svg" xmlns:xlink="http://www.w3.org/1999/xlink" x="0px" y="0px" width="371.023px"
	 height="760.59px" viewBox="0 0 371.023 760.59" xml:space="preserve">
<g id="_x23_000000ff">
	<path fill="#FF44FF" d="M3.909,43.043C3.504,30.738,3.17,18.397,4.038,6.099c13.736-0.825,27.539-1.591,41.283-0.522
		C56.806,6.289,68.313,6.435,79.809,7.01c25.117,0.644,50.209,2.249,75.337,2.396c28.448,0.656,56.899,0.622,85.348,1.293
		c40.438,2.375,80.991,2.512,121.405,5.3c2.198,0.073,4.365,0.552,6.454,1.259c-5.312,11.079-10.356,22.279-15.948,33.221
		c-8.508,17.515-17.846,34.593-26.163,52.201c-12.566,26.453-25.693,52.63-38.151,79.128c-12.339,29.372-28.73,56.799-41.799,85.827
		c-2.196,7.043-6.03,13.391-9.082,20.076c-6.167,13.089-12.998,25.874-18.823,39.115c-7.676,16.036-14.168,32.597-22.227,48.45
		c-4.975,10.337-10.165,20.568-14.682,31.111c-5.438,11.268-10.844,22.539-15.81,34.021c-11.275,22.543-21.589,45.567-32.856,68.106
		c-2.246,5.997-5.695,11.43-8.633,17.086c-8.713,18.275-18.564,35.985-27.402,54.212c-7.95,16.79-16.592,33.245-25.105,49.763
		c-9.555,17.854-17.89,36.31-27.312,54.232c-12.062,24.098-24.403,48.05-36.607,72.076l-1.642,0.812l-0.434-0.878
		c-1.599-10.588-0.349-21.347-1.137-31.99c0.117-0.439,0.345-1.31,0.458-1.735c-0.736-8.959,0.05-17.948-0.133-26.917
		c-0.655-5.591-0.202-11.216-0.408-16.825c0.195-14.128,0.007-28.271,0.184-42.403c-0.514-4.266-0.136-8.556-0.088-12.83
		c-0.303-15.278,0.458-30.569,0.298-45.854c-0.728-10.314,0.092-20.66-0.379-30.979c0.112-3.179,0.47-6.354,0.232-9.528
		c-0.56-8.325-0.021-16.668-0.534-24.995c0.536-10.919-0.144-21.839-0.136-32.764c0.22-7.517,0.433-15.074-0.143-22.577
		c0.086-0.454,0.287-1.357,0.383-1.817c-0.458-4.491-0.108-9.016-0.151-13.522c0.076-5.735-0.393-11.486,0.152-17.223
		c0.164-12.193-0.471-24.396,0.011-36.597c0.309-7.39-0.184-14.791,0.277-22.181c-0.128-13.657-0.317-27.333-0.073-41.005
		c-0.553-4.479-0.375-8.975-0.004-13.454c-0.302-9.389-0.615-18.779-0.5-28.176c-0.665-11.14,0.542-22.278-0.146-33.418
		c-0.545-8.666,0.458-17.328,0.003-26.005c0.263-7.683-0.574-15.378,0.104-23.054c0.068-12.952-0.058-25.908,0.348-38.848
		c-0.175-19.123-0.2-38.243,0.12-57.354C3.949,83.529,4.222,63.281,3.909,43.043z"/>
</g>
</svg>
