<?xml version="1.0" encoding="utf-8"?>
<!-- Generator: Adobe Illustrator 15.0.2, SVG Export Plug-In . SVG Version: 6.00 Build 0)  -->
<!DOCTYPE svg PUBLIC "-//W3C//DTD SVG 1.1//EN" "http://www.w3.org/Graphics/SVG/1.1/DTD/svg11.dtd">
<svg version="1.1" id="Layer_1" xmlns="http://www.w3.org/2000/svg" xmlns:xlink="http://www.w3.org/1999/xlink" x="0px" y="0px"
	 width="336px" height="735.552px" viewBox="-0.631 0 336 735.552" enable-background="new -0.631 0 336 735.552"
	 xml:space="preserve">
<g id="_x23_000000ff">
	<path fill="#FFFF66" d="M268.406,0.304c17.572,0.293,35.141,0.253,52.719,0.497c2.273,42.73,2.432,85.542,2.398,128.322
		c-0.342,27.406-0.041,54.811-0.506,82.213c-0.193,25.701-1.334,51.39-1.865,77.084c0.664,39.637-0.266,79.301,1.082,118.933
		c0.51,32.024,1.848,64.04,2.871,96.052c1.744,66.716,3.059,133.443,2.666,200.197c0.139,8.908-0.281,17.814,0.002,26.729
		c-0.494,0.388-1.486,1.146-1.98,1.534c-9.641,0.866-19.305,0.282-28.959,0.08c-52.324,0.321-104.602,2.761-156.944,2.697
		c-28.15,0.109-56.303-0.204-84.429-0.575c-6.326,0.354-12.934-1.034-18.972,1.485c-9.505-1.04-19.245,0.096-28.592-2.021
		c0.508-9.438,0.39-18.92,0.327-28.373c0.17-85.851,0.502-171.723,0.247-257.57c0.095-63.415,0.466-126.831,0.534-190.253
		C9.4,206.264,8.83,155.209,9.377,104.136C9.218,80.5,9.453,56.843,9.251,33.201C9.688,22.398,8.921,11.58,9.6,0.78
		c17.69-0.881,35.442,0.528,53.124-0.636c9.786,0.015,19.575-0.353,29.353,0.284c8.712-0.556,17.434,0.358,26.142-0.249
		c10.526-0.498,21.062,0.212,31.585,0.106C189.346,0.326,228.867,0.807,268.406,0.304z"/>
</g>
</svg>
