<?xml version="1.0" encoding="utf-8"?>
<!-- Generator: Adobe Illustrator 16.0.0, SVG Export Plug-In . SVG Version: 6.00 Build 0)  -->
<!DOCTYPE svg PUBLIC "-//W3C//DTD SVG 1.1//EN" "http://www.w3.org/Graphics/SVG/1.1/DTD/svg11.dtd">
<svg version="1.1" id="Livello_1" xmlns="http://www.w3.org/2000/svg" xmlns:xlink="http://www.w3.org/1999/xlink" x="0px" y="0px"
	 width="768px" height="1024.604px" viewBox="0 0 768 1024.604" enable-background="new 0 0 768 1024.604" xml:space="preserve">
<g id="_x23_e26910ff">
	<path fill="#E36B13" d="M392.873,594.035c5.079-68.001,16.697-135.259,23.527-203.078c25.895,2.421,51.608,6.632,77.124,11.674
		c13.59,2.168,25.049,10.083,37.172,15.957c28.568,13.263,54.015,32.021,78.645,51.41c9.414,6.723,16.57,15.975,25.643,23.095
		c6.253,7.373,13.463,13.896,19.554,21.413c9.884,12.487,19.153,25.463,27.9,38.78c10.027,14.583,14.238,32.039,20.743,48.285
		c4.373,13.913,10.013,27.503,12.562,41.923c4.5,22.662,6.432,45.72,9.647,68.578c1.12,11.384-0.485,22.806-0.36,34.227
		c-2.239,24.358-1.5,49.007-5.729,73.188c-3.994,18.685-10.174,36.791-15.343,55.148c-4.426,16.393-13.119,31.082-20.347,46.315
		c-4.897,9.921-8.818,20.421-15.323,29.474c-5.729,7.97-11.639,15.829-17.239,23.926c-12.308,17.564-26.764,33.433-40.01,50.254
		H174.092c-9.83-7.896-17.221-18.196-25.841-27.284c-7.047-7.987-14.095-16.05-19.769-25.104
		c-17.474-26.778-36.448-52.729-50.869-81.37c-8.747-16.229-17.167-32.926-21.251-51.015c-0.488-0.704-1.481-2.15-1.969-2.872
		c-8.402-31.968-14.944-64.675-15.523-97.836c-0.361-13.316,1.681-26.526,1.717-39.845c0.542-30.559,13.788-58.677,21.992-87.605
		c8.078-19.211,20.457-36.251,29.6-54.936c4.79-9.866,11.981-18.232,19.209-26.364c18.016-20.42,36.304-40.604,55.169-60.248
		c28.299-25.028,62.235-42.936,97.545-55.982c23.347-8.945,47.201-18.179,72.409-19.715c6.541,29.292,15.145,58.042,22.391,87.154
		c9.09,37.821,21.124,74.866,30.756,112.562C390.47,594.125,392.079,594.053,392.873,594.035"/>
</g>
<g id="_x23_38569fff">
	<path fill="#39569F" d="M587.547,572.097c22.48-5.674,44.779-12.83,67.93-15.269c-0.235,6.231,0.541,13.154-3.725,18.323
		c-7.535,10.658-11.998,23.11-19.264,33.937c-2.457,4.211-4.844,8.475-7.156,12.795c-0.541,0.309-1.645,0.921-2.204,1.245
		c-1.03,2.132-2.041,4.283-3.055,6.435c-1.048,0.162-3.162,0.507-4.229,0.687c-0.271,2.114-0.522,4.229-0.775,6.361
		c-1.192,0.198-3.578,0.597-4.771,0.774c-0.145,1.049-0.435,3.146-0.579,4.193c-8.963,7.95-17.185,16.731-26.814,23.906
		c-0.94,0.092-2.819,0.271-3.759,0.36c-0.614,0.813-1.846,2.423-2.459,3.234c-1.104,0.145-3.288,0.47-4.392,0.614
		c-2.711,1.662-5.438,3.271-8.169,4.896c-13.209,6.233-26.869,12.323-41.598,13.644c-2.458,0.866-4.971,1.354-7.555,1.445
		c-21.45,0.035-42.898,1.607-64.312-0.198c0.089-1.809,0.198-3.596,0.308-5.401c1.464-1.537,2.908-3.074,4.355-4.609
		c1.877-3.034,3.884-5.979,6.035-8.816c0.27-0.903,0.829-2.729,1.119-3.651c5.494-5.294,9.686-11.672,14.076-17.852
		c6.183-9.035,14.729-15.993,22.189-23.893c8.801-6.125,16.264-13.968,25.516-19.441C544.052,592.48,563.64,576.976,587.547,572.097
		z"/>
	<path fill="#39569F" d="M119.5,579.452c23.347-0.939,46.857-3.181,70.115,0.232c4.716,1.48,9.686,1.699,14.6,1.771
		c5.981,1.827,11.945,3.724,17.927,5.531c2.06,0.687,4.138,1.354,6.198,2.042c8.583,5.963,18.341,10.12,26.202,17.094
		c1.952,0.308,3.904,0.597,5.855,0.904c0.253,0.921,0.74,2.765,0.993,3.687c16.21,17.438,30.558,36.575,43.966,56.235
		c4.569,8.312,9.559,16.426,13.553,25.062c-0.488,1.155-1.464,3.486-1.952,4.662c-12.884,0.831-25.877,2.529-38.761,0.542
		c-13.933-2.274-27.992-4.176-41.346-9c-21.088-5.294-40.152-16.264-57.428-29.202c-0.939-0.197-2.837-0.597-3.795-0.795
		c-7.915-8.204-18.034-13.787-26.401-21.504c-8.62-7.571-16.119-16.314-24.45-24.214c-7.192-7.211-12.865-15.849-20.817-22.336
		c0.037-1.825,0.073-3.649,0.109-5.474c0.615-0.074,1.843-0.221,2.458-0.29C110.899,582.886,115.326,581.493,119.5,579.452z"/>
</g>
<g id="_x23_cc021bff">
	<path fill="#CB061D" d="M417.466,900.891c30.505,0.651,61.006-0.541,91.493-0.18c-0.037,1.029-0.127,3.07-0.182,4.102
		c-4.808,2.438-9.812,4.572-14.367,7.48c-14.004,11.222-28.839,22.318-46.242,27.54c-10.173,3.344-20.04,7.915-30.702,9.487
		c-6.088,0.812-11.961,2.619-17.996,3.632c-21.358,2.563-42.864-4.393-60.936-15.485c-14.998-10.428-30.087-20.854-43.821-32.89
		c33.63-2.675,67.385-1.717,101.105-2.006C403.064,902.354,410.202,900.656,417.466,900.891z"/>
</g>
<rect fill="none" width="768" height="1024.604"/>
</svg>
