<?xml version="1.0" encoding="utf-8"?>
<!-- Generator: Adobe Illustrator 16.0.0, SVG Export Plug-In . SVG Version: 6.00 Build 0)  -->
<!DOCTYPE svg PUBLIC "-//W3C//DTD SVG 1.1//EN" "http://www.w3.org/Graphics/SVG/1.1/DTD/svg11.dtd">
<svg version="1.1" id="Livello_1" xmlns="http://www.w3.org/2000/svg" xmlns:xlink="http://www.w3.org/1999/xlink" x="0px" y="0px"
	 width="768px" height="1024.604px" viewBox="0 0 768 1024.604" enable-background="new 0 0 768 1024.604" xml:space="preserve">
<g id="_x23_5882beff">
	<path fill="#5A83BD" d="M9.776,371.982c60.013,0.163,120.042,1.518,180.055,1.373c19.282-0.216,38.527,0.253,57.79,0.705
		c8.964,0.994,17.98,1.5,26.998,1.193c56.055,1.283,112.127,1.229,168.163,1.879c16.88,0.74,33.794-0.56,50.617,1.156
		c28.276,1.446,56.575,1.482,84.895,1.663c33.089,1.446,66.247-0.505,99.317,1.555c13.806,1.843,27.756,0.469,41.612,1.048
		c12.542,0.578,25.104,0.831,37.659,0.831c1.811,23.997-2.273,47.869-5.236,71.613c-5.841,31.66-8.043,64.241-18.866,94.78
		c-4.646,11.564-6.163,24.195-12.198,35.22c-6.649,19.787-13.678,39.683-24.033,57.917c-0.307,1.752-0.614,3.504-0.902,5.276
		c-6.561,9.632-10.189,20.834-16.518,30.593c-9.559,15.667-19.68,31.01-28.787,46.948c-8.04,9.699-13.643,21.051-21.286,31.045
		c-7.393,10.933-15.09,21.63-22.694,32.396c-0.741,0.345-2.204,1.031-2.945,1.373c-8.331,12.053-19.771,21.396-28.913,32.764
		c-5.764,6.851-12.722,12.612-18.233,19.682c-3.434,4.427-7.048,8.728-11.222,12.468c-14.528,17.837-32.146,32.834-47.906,49.551
		c-4.694,5.456-11.073,8.998-16.045,14.149c-8.71,9.27-19.729,15.863-30.16,22.968c-0.575,0.541-1.752,1.606-2.329,2.149
		c-7.646,3.16-13.317,9.722-21.271,12.285c-0.651,0.67-1.951,2.009-2.585,2.692c-0.977,0.127-2.928,0.379-3.902,0.506
		c-5.478,4.536-13.228,3.994-19.789,6.021c-14.94,1.442-30.521,2.638-45.064-1.848c-15.74-3.521-30.576-10.025-45.502-15.937
		c-0.74-0.544-2.226-1.609-2.963-2.134c-11.875-5.294-22.208-13.498-31.499-22.498c-12.848-10.557-24.016-22.913-35.815-34.587
		c-19.3-18.271-36.232-38.814-53.056-59.31c-20.528-29.22-42.863-57.681-57.59-90.441c-3.777-8.077-8.566-15.667-11.638-24.07
		c-12.233-21.321-21.377-44.291-34.442-65.162c-3.56-5.689-6.542-11.728-8.8-18.034c-5.168-7.605-8.837-16.047-11.565-24.792
		c-4.79-11.583-10.03-22.969-14.493-34.694c-9.018-27.538-17.71-55.205-24.938-83.306c-3.65-19.354-7.517-38.617-10.499-58.078
		C11.348,411.303,10.48,391.661,9.776,371.982"/>
</g>
<g id="_x23_cc021aff">
	<path fill="#CB061D" d="M48.194,410.4c-0.126-0.904-0.416-2.674-0.542-3.578c2.638,0.307,5.294,0.614,7.932,0.938
		c4.048,2.604,8.548,4.283,13.047,5.909c6.614,2.295,13.282,4.535,19.679,7.409c6.632,2.584,13.336,4.896,20.095,7.12
		c9.595,3.723,19.227,7.301,28.931,10.733c12.469,5.114,25.389,9.126,37.695,14.674c3.109,1.049,6.18,2.169,9.235,3.397
		c6.722,1.952,13.444,4.157,19.697,7.373c6.596,2.837,13.535,4.716,20.166,7.463c1.862,0.343,3.741,0.669,5.621,0.977
		c0.65,0.704,1.952,2.097,2.602,2.782c7.102,1.481,13.878,4.12,20.637,6.704c2.945,1.03,5.854,2.241,8.62,3.705
		c8.511,3.019,16.86,6.613,25.697,8.637c0.704,0.597,2.132,1.826,2.854,2.44c3.307,0.957,6.633,1.969,9.938,2.963
		c6.346,2.225,12.378,5.205,18.688,7.48c-12,1.41-23.221,6.181-34.913,8.854c-14.474-0.18-29.003-0.849-43.478-0.09
		c-14.727,1.663-29.201-2.548-43.423-5.747c-9.252-1.716-18.36-4.281-27.088-7.789c-10.191-3.975-20.781-6.957-30.576-11.872
		c-7.354-3.668-14.727-7.282-22.19-10.698c-0.507-0.633-1.5-1.916-1.988-2.548c-2.548-0.812-5.078-1.644-7.625-2.439
		c-8.368-6.704-16.734-13.444-24.432-20.926c-1.337-0.253-2.674-0.523-4.012-0.776c-0.145-0.993-0.469-3-0.614-3.993
		c-3.362-2.711-6.506-5.711-8.927-9.306c-4.41-6.634-10.554-12.125-13.499-19.68c-1.175-1.157-2.385-2.312-3.578-3.452
		C51.14,414.772,49.64,412.604,48.194,410.4z"/>
	<path fill="#CB061D" d="M696.042,416.2c5.748-1.662,11.729-2.188,17.711-2.042c-9.886,13.715-19.301,27.847-30.595,40.46
		c-6.344,7.028-13.607,13.19-19.678,20.455c-10.283,6.216-19.646,14.583-31.592,17.457c-7.567,3.307-15.125,6.741-22.982,9.342
		c-0.741,0.597-2.241,1.789-3,2.385c-27.485,6.217-55.621,8.385-83.738,9.74c-7.626,1.969-15.56,1.354-23.348,1.518
		c-11.836-0.069-23.654,0.345-35.475-0.198c0.183-1.444,0.381-2.892,0.578-4.318c26.87-10.318,53.326-21.811,79.818-33.069
		c5.583-1.969,11.058-4.265,16.57-6.433c10.315-3.614,20.021-8.746,30.269-12.541c13.771-4.445,26.653-11.132,40.134-16.3
		c17.854-6.831,35.363-14.565,53.416-20.927C688.255,420.249,692.211,418.351,696.042,416.2z"/>
</g>
<g id="_x23_e36910ff">
	<path fill="#E46B12" d="M355.828,745.483c6.27-1.283,11.979-4.394,18.23-5.767c8.729,1.21,15.667,7.461,23.238,11.509
		c13.662,8.439,26.818,17.656,39.829,27.057c17.112,13.588,33.9,27.593,49.098,43.35c3.889,1.879,6.522,5.007,6.992,9.379
		c0.854,0.22,2.548,0.669,3.398,0.904c0.759,0.886,2.273,2.692,3.035,3.578c0.163,1.788,0.322,3.595,0.484,5.4
		c-10.024,1.95-20.234,0.146-30.339,0.888c-13.807-1.862-27.884,0.704-41.509-2.44c-19.823-1.229-39.81,0.886-59.579-1.589
		c-11.475-0.633-22.968-0.036-34.424,0.505c-9.578-0.541-19.191-1.444-28.75-0.289c-8.511,1.211-16.95-1.028-25.461-0.812
		c-7.409-0.222-15.053,1.083-22.229-1.32c-3.325-0.146-6.65-0.417-9.975-0.417c0.181-1.57,0.543-4.731,0.723-6.324
		c6.921-7.264,12.939-15.357,20.293-22.207c16.065-15.252,33.432-29.146,51.683-41.688c1.391-0.361,2.801-0.727,4.19-1.084
		c4.481-4.881,10.498-7.81,15.884-11.514c0.812-0.271,2.402-0.775,3.197-1.027C347.642,749.132,351.762,747.38,355.828,745.483z"/>
</g>
<rect fill="none" width="768" height="1024.604"/>
</svg>
