<?xml version="1.0" encoding="utf-8"?>
<!-- Generator: Adobe Illustrator 15.0.2, SVG Export Plug-In . SVG Version: 6.00 Build 0)  -->
<!DOCTYPE svg PUBLIC "-//W3C//DTD SVG 1.1 Basic//EN" "http://www.w3.org/Graphics/SVG/1.1/DTD/svg11-basic.dtd">
<svg version="1.1" baseProfile="basic" id="Layer_1"
	 xmlns="http://www.w3.org/2000/svg" xmlns:xlink="http://www.w3.org/1999/xlink" x="0px" y="0px" width="130px" height="130px"
	 viewBox="46.776 48.427 130 130" xml:space="preserve">
<g>
	<polygon fill="#4466B0" points="140.482,123.552 127.938,139.947 168.155,161.797 170.532,160.211 	"/>
	<polygon fill="#9FDBED" points="119.026,49.604 170.666,160.111 141.077,123.445 	"/>
	<polygon fill="#31B2E6" points="118.667,49.244 127.938,139.947 140.482,123.552 	"/>
	<polygon fill="#EE3765" points="115.895,48.991 56.44,158.056 112.486,86.104 	"/>
	<polygon fill="#F15E73" points="116.191,49.086 117.728,49.086 122.179,92.032 113.161,86.281 	"/>
	<polygon fill="#9B312F" points="121.96,92.381 112.981,86.575 56.295,158.22 57.526,159.453 	"/>
	<g>
		<path d="M155.47,166.767c0.764-0.293,1.905-0.051,1.829,0.957c-0.415,0.854-1.955,0.889-2.29-0.055
			C154.993,167.277,155.147,166.978,155.47,166.767z"/>
		<g>
			<path d="M53.528,166.615c0.399-0.775,1.646-0.953,2.134-0.172c2.151,3.055,4.156,6.201,6.264,9.287
				c0.324,0.539,0.92,1.127,0.553,1.803c-0.444,0.318-1.076,0.357-1.396-0.152c-0.716-0.912-1.299-1.914-1.947-2.873
				c-2.963,0.012-5.929,0.004-8.892,0.004c-0.783,1.09-1.389,2.338-2.383,3.254c-0.732,0.178-1.444-0.697-0.884-1.303
				C49.127,173.162,51.333,169.892,53.528,166.615z M51.141,173.129c2.347,0.004,4.692,0.01,7.041,0
				c-1.155-1.855-2.318-3.697-3.479-5.549C53.528,169.435,52.346,171.289,51.141,173.129z"/>
			<path d="M103.374,166.109c0.595-0.283,1.382-0.223,1.781,0.355c2.538,3.168,5.01,6.391,7.533,9.574
				c2.468-3.213,4.872-6.479,7.38-9.658c0.521-0.76,2.114-0.562,1.984,0.533c0.021,3.354,0.017,6.703,0,10.055
				c0.081,0.836-0.869,0.896-1.463,0.74c-0.341-0.428-0.267-0.99-0.285-1.494c0.012-2.561,0.015-5.117,0.005-7.678
				c-2.202,2.848-4.285,5.789-6.499,8.631c-0.521,0.793-1.811,0.805-2.328,0c-2.228-2.859-4.398-5.764-6.607-8.635
				c-0.019,2.797,0.026,5.594-0.015,8.391c0.251,1.182-1.97,1.148-1.726-0.027c-0.041-2.941,0.012-5.879-0.019-8.82
				C103.142,167.416,103.026,166.707,103.374,166.109z"/>
			<path d="M140.083,166.088c0.498-0.061,1.064-0.273,1.489,0.123c0.111,0.855,0.066,1.725,0.078,2.588
				c2.4,0.045,4.807-0.092,7.203,0.066c1.334,0.131,3.035,0.711,3.196,2.262c0.074,1.404,0.074,2.814,0,4.215
				c-0.207,1.723-2.166,2.23-3.621,2.297c-1.99,0.012-4.008,0.174-5.978-0.188c-1.154-0.203-2.361-1.02-2.37-2.312
				C140.046,172.125,140.061,169.101,140.083,166.088z M141.643,170.177c0.044,1.734-0.104,3.48,0.074,5.211
				c0.981,1.309,2.921,0.777,4.345,0.902c1.425-0.154,3.438,0.508,4.373-0.914c0.141-1.328,0.104-2.678,0.03-4.01
				c-0.163-0.92-1.297-1.131-2.083-1.176C146.134,170.142,143.889,170.195,141.643,170.177z"/>
			<path d="M159.661,166.076c0.518-0.061,1.553-0.361,1.53,0.502c0.062,3.457,0.033,6.92,0.015,10.377
				c0.214,1.131-1.8,1.068-1.552-0.062C159.629,173.291,159.641,169.681,159.661,166.076z"/>
			<path d="M65.179,170.73c0.691-2.135,3.442-1.99,5.249-1.873c-0.007,0.426-0.018,0.85-0.036,1.273
				c-1.204,0.145-2.903-0.27-3.665,0.928c-0.184,2.107-0.03,4.23-0.074,6.338c-0.192,0.119-0.572,0.352-0.763,0.467
				c-0.206-0.113-0.615-0.34-0.817-0.453C65.146,175.185,64.924,172.939,65.179,170.73z"/>
			<path d="M73.754,169.615c1.854-1.158,4.145-0.736,6.217-0.824c1.5,0.035,3.383-0.152,4.433,1.156
				c0.603,1.268,0.399,2.789,0.136,4.123c-3.373-0.008-6.746,0.008-10.117-0.008c-0.014,0.498-0.026,0.998-0.04,1.496
				c1.255,1.035,2.937,0.619,4.426,0.768c0.738-0.066,0.735,1.32,0.021,1.295c-1.77,0.09-3.798,0.209-5.279-0.947
				c-0.972-0.867-0.68-2.289-0.729-3.443C72.849,172.006,72.583,170.427,73.754,169.615z M75.046,170.5
				c-0.886,0.359-0.576,1.441-0.671,2.189c2.943,0,5.885,0.008,8.83,0c-0.115-0.729,0.222-1.707-0.459-2.213
				c-1.111-0.5-2.371-0.24-3.546-0.303C77.817,170.242,76.357,169.969,75.046,170.5z"/>
			<path d="M93.488,168.851c1.507-0.053,3.089-0.223,4.533,0.316c0.918,0.311,1.524,1.248,1.495,2.211
				c0.004,1.465,0.096,2.947-0.071,4.406c-0.307,1.389-1.905,1.811-3.131,1.861c-2.021,0.029-4.042,0.049-6.064-0.008
				c-1.166-0.096-2.677-0.34-3.128-1.607c-0.257-0.982-0.247-2.061,0.03-3.037c0.496-1.148,1.844-1.521,2.993-1.58
				c2.659-0.107,5.322,0.07,7.983-0.102c-0.847-1.529-2.697-1.047-4.124-1.166C93.222,170.228,93.521,169.301,93.488,168.851z
				 M88.579,173.648c-0.056,0.658-0.133,1.357,0.077,1.992c0.636,0.83,1.833,0.592,2.746,0.654c1.81-0.086,3.649,0.152,5.441-0.127
				c1.532-0.395,1.042-2.236,1.115-3.404c-2.559,0.012-5.119-0.02-7.676,0.008C89.631,172.793,88.759,172.892,88.579,173.648z"/>
			<path d="M127.379,169.056c1.525-0.391,3.113-0.229,4.674-0.266c1.415,0.008,3.014-0.039,4.185,0.891
				c1.06,0.867,0.721,2.354,0.783,3.551c-0.077,1.176,0.292,2.674-0.746,3.539c-1.418,1.082-3.311,0.875-4.986,0.9
				c-1.63-0.037-3.399,0.174-4.877-0.656c-0.838-0.416-1.149-1.396-1.124-2.273c0-1.207-0.051-2.418,0.037-3.625
				C125.442,170.045,126.381,169.287,127.379,169.056z M128.077,170.32c-0.514,0.131-1.192,0.414-1.178,1.047
				c-0.07,1.236-0.067,2.479-0.004,3.715c-0.023,0.785,0.86,1.031,1.475,1.127c1.47,0.162,2.954,0.049,4.429,0.082
				c0.89-0.033,2.075,0.033,2.578-0.871c0.156-1.443,0.126-2.912,0.022-4.355c-0.443-0.969-1.704-0.85-2.594-0.895
				C131.231,170.232,129.632,170.029,128.077,170.32z"/>
			<path d="M165.743,169.615c1.962-1.209,4.374-0.713,6.556-0.824c1.448,0.021,3.393-0.07,4.216,1.387
				c0.4,1.244,0.292,2.629,0.004,3.893c-3.387-0.004-6.778-0.004-10.17,0c0.097,0.637-0.147,1.539,0.568,1.883
				c1.316,0.584,2.786,0.156,4.154,0.43c0.425,0.291,0.384,1.252-0.263,1.244c-1.77,0.082-3.793,0.205-5.268-0.949
				c-0.986-0.875-0.681-2.305-0.736-3.469C164.833,171.99,164.572,170.422,165.743,169.615z M167.291,170.394
				c-1.099,0.223-0.887,1.463-0.934,2.295c2.944,0,5.89,0.006,8.832-0.004c-0.045-0.885,0.218-2.324-1.051-2.42
				C171.872,170.174,169.529,169.986,167.291,170.394z"/>
			<path d="M155.433,169.941c-0.088-0.799,1.006-0.477,1.459-0.621c0.138,2.748,0.053,5.502,0.053,8.25
				c-0.485,0.107-1.019,0.318-1.456-0.041C155.321,175.006,155.421,172.469,155.433,169.941z"/>
		</g>
	</g>
</g>
</svg>
