<?xml version="1.0" encoding="utf-8"?>
<!-- Generator: Adobe Illustrator 16.0.0, SVG Export Plug-In . SVG Version: 6.00 Build 0)  -->
<!DOCTYPE svg PUBLIC "-//W3C//DTD SVG 1.1 Basic//EN" "http://www.w3.org/Graphics/SVG/1.1/DTD/svg11-basic.dtd">
<svg version="1.1" baseProfile="basic" id="Livello_1"
	 xmlns="http://www.w3.org/2000/svg" xmlns:xlink="http://www.w3.org/1999/xlink" x="0px" y="0px" width="768px"
	 height="1024.604px" viewBox="0 0 768 1024.604" xml:space="preserve">
<g id="_x23_13a6daff">
	<path fill="#18A6DA" d="M319.072,264.282c18.485-2.476,36.087-10.932,55.043-9.542c14.837-0.921,29.399,2.006,43.965,4.247
		c24.829,4.771,48.79,13.047,72.519,21.631c11.603,4.138,23.619,7.987,33.684,15.288c9.596,6.108,19.732,11.367,28.896,18.143
		c8.836,5.963,16.191,13.751,23.42,21.522c10.318,14.131,21.63,27.647,29.728,43.261c11.78,21.919,26.183,43.261,30.304,68.289
		c3.541,9.287,5.386,19.118,7.245,28.858c3.02,9.342,3.94,19.154,5.403,28.822c3.361,10.12,4.373,20.745,6.072,31.208
		c3.359,16.336,5.438,32.906,7.644,49.423c0.489,18.091-0.072,36.195,0.254,54.303c-0.072,4.029,0.415,8.331-1.572,12.053
		c-0.706,9.831,0.056,19.68-0.324,29.51c-2.115,19.083-4.646,38.13-8.224,56.996c-2.801,9.575-3.107,19.786-7.463,28.931
		c-0.597,4.971-1.808,9.848-3.433,14.582c-4.248,16.102-10.607,31.57-15.381,47.508c-6.215,15.162-10.101,31.209-17.328,45.973
		c-4.083,8.077-6.649,16.915-11.547,24.595c-8.241,12.053-16.843,23.871-26.42,34.911c-2.06,2.188-4.5,3.958-6.902,5.711
		c-6.614,10.428-18.124,15.722-27.884,22.57c-19.497,12.486-39.736,23.799-60.535,33.973c-15.723,8.276-33.432,11.638-50.888,13.932
		c-6.253,1.267-12.832,0.381-18.901,2.566c-11.421,0.307-22.859,0.361-34.279,0.109c-7.392-1.158-14.836-1.989-22.317-2.331
		c-0.47-0.021-1.428-0.056-1.916-0.056c-30.558-6.308-60.826-15.378-88.763-29.438c-12.92-6.234-25.841-12.884-36.702-22.408
		c-11.691-8.728-22.534-18.503-32.22-29.398c-7.589-10.355-17.943-18.849-22.732-31.101c-9.994-17.512-18.758-35.707-27.738-53.76
		c-8.006-19.119-16.77-37.894-24.359-57.177c-4.735-14.147-13.228-26.906-16.137-41.67c-2.476-12.309-5.71-24.432-7.698-36.828
		c-4.138-14.077-4.518-28.896-7.301-43.263c-1.934-8.71-3.217-17.636-3.036-26.562c0.181-21.07,0.036-42.141,0-63.211
		c0.09-4.663-0.614-9.597,1.59-13.896c1.21-9.597-1.301-19.553,1.572-28.913c2.241-24.576,7.951-48.773,16.227-72.013
		c4.59-11.818,6.108-24.757,12.596-35.798c12.342-25.118,25.136-50.02,39.483-74.035c1.392-2.259,3.326-4.084,5.35-5.747
		c16.335-14.457,32.165-30.07,51.537-40.478c8.944-5.819,18.522-10.571,28.189-15.053c11.891-4.084,22.317-12.053,35.039-13.734
		c5.313-0.379,10.499-3.163,15.831-2.169c-0.633-1.03-1.355-1.987-2.097-2.927c2.674,0.397,5.367,0.271,7.951-0.542
		C302.719,268.909,311.14,267.445,319.072,264.282"/>
</g>
<g id="_x23_f87114ff">
	<path fill="#EC7122" d="M349.069,418.117c4.645,4.825,3.74,12.216,6.36,18.053c4.266,9.306,5.603,19.534,8.928,29.165
		c2.439,10.463,5.602,20.818,6.903,31.534c1.481,8.638,3.85,17.33,2.24,26.147c0.47-0.106,1.428-0.324,1.916-0.435
		c0.307,3.796,0.921,7.572,2.312,11.132c-0.18,13.156,3.741,25.95,3.65,39.106c2.133,16.787,2.964,33.702,5.222,50.471
		c-0.597,14.366,3.562,28.496,1.482,42.882c0.469-0.235,1.372-0.724,1.824-0.958c1.085,10.715-0.686,21.63,1.662,32.221
		c1.79,12.884-0.76,26.021,1.536,38.868c1.989,10.209-0.325,20.709,1.646,30.92c1.845,9.776,0.777,19.751,0.977,29.636
		c0.234,4.627-0.903,9.669,1.591,13.879c0.433,5.294,0.286,10.626-0.415,15.901c-10.824-4.663-22.951-3.939-33.774-8.549
		c0.198-3.667,0.379-7.317,0.632-10.968c-0.578,0.036-1.716,0.126-2.295,0.181c-0.614-16.118,1.355-32.399-1.789-48.32
		c-0.649-13.154,0.668-26.365-0.523-39.483c-2.965-15.035-0.234-30.431-1.753-45.556c-3.669-19.013,0.866-38.617-2.945-57.609
		c-1.337-16.301,1.427-32.852-1.752-49.008c-1.303-17.926,1.337-36.105-2.043-53.867c-0.379-13.988,0.217-27.993-0.198-41.979
		C347.516,453.879,349.052,435.898,349.069,418.117z"/>
</g>
<g id="_x23_040203ff">
	<path fill="#020202" d="M513.566,463.022c7.209-5.893,16.857-6.938,25.806-7.535c8.257,6.45,16.913,13.264,20.672,23.438
		c2.458,11.817-4.066,22.228-8.24,32.707c-5.112,2.71-8.564,7.897-14.022,9.958c-5.638,1.118-11.547,1.102-17.222,0.307
		c-9.632-5.224-20.347-11.729-23.167-23.148c-0.469-6.794-1.048-13.824,0.579-20.492
		C501.387,471.679,507.91,467.521,513.566,463.022z"/>
	<path fill="#020202" d="M195.469,505.868c6.416-4.03,13.751,0.233,20.619,0.396c7.066,4.5,13.697,9.686,19.733,15.505
		c1.608,5.656,2.928,11.385,4.319,17.096c-2.674,4.896-5.566,9.687-8.511,14.438c-4.337,2.803-7.825,6.776-12.361,9.308
		c-4.789,2.007-9.866,3.486-15.017,4.176c-5.258-0.526-10.318-2.062-15.432-3.255c-4.464-4.771-8.259-10.153-13.336-14.312
		c-2.656-2.584-5.801-5.132-6.975-8.764c-1.302-7.553,0.379-15.088,2.133-22.408C177.526,511.47,187.193,509.952,195.469,505.868z"
		/>
</g>
<g id="_x23_fad901ff">
	<path fill="#FBDA03" d="M509.373,872.557c2.604-0.923,5.297-1.555,8.042-1.916c-7.301,9.922-18.342,15.866-27.847,23.366
		c-8.457,5.603-16.844,11.312-25.717,16.244c-5.363,2.386-11.347,3.037-16.75,5.44c-12.975,1.734-25.496,7.012-38.778,5.926
		c-6.38,0.398-13.283-1.445-19.228,1.537c-8.818,0.38-17.638,0.38-26.456,0c-5.385-2.945-11.728-0.868-17.51-1.844
		c-7.698-1.464-15.559-1.554-23.274-2.929c-16.317-0.921-32.076-5.564-48.014-8.817c-3.65-1.192-7.301-2.366-10.969-3.434
		c6.162-4.138,13.733-4.302,20.618-6.487c6.216-1.809,12.668-2.712,19.028-3.885c6.234-2.134,13.065-0.94,19.443-2.604
		c15.687-0.308,31.118-3.342,46.623-5.511c19.984-1.556,39.827-4.591,59.777-6.36c1.59-0.379,3.182-0.778,4.77-1.212
		c4.592-0.071,9.198-0.036,13.789-0.288c5.168-3.162,11.691,0,16.913-3.072C479.068,875.845,494.158,873.803,509.373,872.557z"/>
</g>
</svg>
