<?xml version="1.0" encoding="utf-8"?>
<!-- Generator: Adobe Illustrator 16.0.0, SVG Export Plug-In . SVG Version: 6.00 Build 0)  -->
<!DOCTYPE svg PUBLIC "-//W3C//DTD SVG 1.1//EN" "http://www.w3.org/Graphics/SVG/1.1/DTD/svg11.dtd">
<svg version="1.1" id="Livello_1" xmlns="http://www.w3.org/2000/svg" xmlns:xlink="http://www.w3.org/1999/xlink" x="0px" y="0px"
	 width="886px" height="886px" viewBox="0 0 886 886" enable-background="new 0 0 886 886" xml:space="preserve">
<path fill="#C71A0C" d="M412.88,10.3c6.3-1.069,12.72-0.619,19.068-1.13c10.028-1.09,20.028,0.78,30.011,1.641
	c11.041,1.88,22.311,2.71,33.109,5.819c30.67,8.381,61.21,17.591,90.51,30.011c9.632,3.75,17.9,10.06,26.852,15.09
	c16.24,9.479,31.762,20.45,44.979,33.88c10.25,13.35,20.802,26.49,30.45,40.28C698.54,153,706.969,171.38,717.139,188.79
	c2.12,3.771,4.37,7.53,5.61,11.71c9.1,28.28,16.88,57.12,21.158,86.55c7.46,31.98,11.812,64.581,16.512,97.061
	c2.158,12.521,1.34,25.26,1.068,37.9c-1.028,24.779-2.05,49.562-3.04,74.33c-1.108,12.58-2.988,25.069-4.852,37.562
	c-4.648,35.25-14.578,69.51-25.34,103.317c-6.04,18.353-12.771,36.46-19.189,54.683c-4.489,13.05-10.329,25.561-15.909,38.157
	c-5.771,12.843-13.46,24.771-22.55,35.513c-6.961,9.311-15.08,17.647-23.131,26.01c-2.649,2.671-4.649,5.95-7.601,8.32
	c-25.38,17.93-52.271,33.63-79.722,48.14c-13.408,6.2-26.398,13.961-41.068,16.771c-13.771,3.472-27.932,4.909-41.979,6.712
	c-21.301,2.447-42.779,1.38-64.102-0.08c-7.068-0.36-14.101-1.382-20.931-3.24c-12.779-2.75-25.3-6.562-37.8-10.352
	c-25.479-7.528-50.08-18.028-73.029-31.421c-11.28-6.229-21.2-14.521-31.261-22.47c-5.579-4.7-11.319-9.221-16.561-14.301
	c-9.7-8.72-17.1-19.55-25.47-29.47c-2.221-2.521-4.51-5.04-6.04-8.062c-20.21-36.74-39.21-74.2-55.15-113.01
	c-8.09-18.41-14.648-37.471-23.5-55.551c-0.779-1.643-1.5-3.33-1.92-5.092c-3.06-13.538-6.31-27.028-9.31-40.568
	c-1.65-7.609-3.761-15.13-4.682-22.869c-2.448-16.36-4.77-32.75-7.54-49.07c-0.46-2.97-1.55-5.85-1.448-8.89
	c-0.381-25.03,0.238-50.061,0.488-75.091c0.842-14.569,0.682-29.199,1.07-43.77c1.78-7.49,1.9-15.21,3.12-22.78
	c3.76-28.13,11.3-55.67,20.95-82.31c2.27-6.761,3.34-13.931,6.648-20.311c12.552-26.51,25.841-52.68,40.11-78.3
	c3.64-5.67,6.43-11.94,10.75-17.14c14.67-14.41,30.29-27.87,46.8-40.12c23.23-16.74,49.88-27.65,75.59-39.84
	C340.22,28.37,376.159,17.73,412.88,10.3"/>
<g id="_x23_e46810ff">
	<path fill="#E3680F" d="M399.9,179.22c3.198,4.84,4.648,10.51,6.948,15.79c6.91,18.939,12.552,38.319,17.359,57.899
		c3.399,12.9,6.438,25.92,7.989,39.2c7.271,45.01,11.568,90.43,15.568,135.833c1.2,19.05,2.672,38.078,4.142,57.117
		c1.17,23.961,2.148,47.939,3.479,71.9c0.892,12.319,0.688,24.699,1.852,37.01c0.858,22.88,2.521,45.723,3.25,68.609
		c-14.71-3.271-29.54-6-44.108-9.859c-0.49-17.239-1.148-34.479-1.721-51.721c-1.399-27.3-1.893-54.64-3.103-81.96
		c-2.351-52.68-3.76-105.399-5.897-158.1c-2.062-55.3-3.841-110.62-5.729-165.931C399.74,189.75,399.18,184.46,399.9,179.22z"/>
</g>
<g id="_x23_010101ff">
	<path d="M608.368,237.6c4.78-0.66,10.2-2.471,14.62,0.39c8.449,5.56,16.71,12.53,20.512,22.189
		c2.328,7.479,3.448,16.029,0.038,23.369c-2.068,4.551-4.26,9.03-6.101,13.681c-2.039,5.83-7.399,9.42-12.021,13.1
		c-6.61,5.11-15.342,5.221-23.302,5.061c-4.869-0.2-8.619-3.62-12.562-6.04c-7.561-4.91-15.028-11.18-18.159-19.91
		c-1.681-7.681-0.381-15.62,0.391-23.33c0.28-4.23,2.842-7.73,5.432-10.89c3.53-4.5,8.479-7.521,13.148-10.681
		C595.75,240.87,602.05,238.9,608.368,237.6z"/>
	<path d="M235.08,291.94c4-0.141,7.93,1.1,11.908,1.52c6.04,0.58,11.142,4.181,15.91,7.641c5.302,3.95,10.771,8.37,13.312,14.68
		c1.83,4.891,2.568,10.12,3.188,15.28c0.852,4.22-2.43,7.49-4.488,10.78c-4.052,6.17-8.91,11.87-14.78,16.39
		c-2.98,2.14-6.69,2.81-10.08,4.06c-3.95,1.2-7.82,3.011-12.01,3.16c-8.94-0.6-18.12-3.47-24.57-9.95
		c-4.85-5.17-9.16-10.81-13.99-15.989c-2.398-2.63-4.92-5.67-4.85-9.44c-0.21-7.21,1.41-14.47,4.55-20.96
		c1.45-2.97,3.82-5.49,6.85-6.87C215.3,297.77,225.12,294.49,235.08,291.94z"/>
</g>
<g id="_x23_ffe508ff">
	<path fill="#FCEA10" d="M442.948,727.2c52.062-5.55,104.108-11.159,156.052-17.729c-9.12,8.07-18.24,16.183-28.021,23.439
		c-12.479,8.74-24.618,18.318-38.76,24.29c-8.87,3.181-18.09,5.21-27.182,7.63c-14.438,3.641-29.289,5.131-44.141,5.521
		c-22.319,0.57-44.729,0.723-66.949-1.81c-12.289-1.16-24.521-2.891-36.812-4.062c-14.398-2.688-28.739-5.729-42.818-9.817
		c-5.021-1.449-10.052-2.88-15.222-3.689c-0.528-0.09-0.66-0.647-0.858-1.04c5.801-0.17,11.108-2.619,16.648-4
		c14.24-3.68,28.66-6.688,43.182-9.021C386.46,734.591,414.67,730.53,442.948,727.2z"/>
</g>
<rect fill="none" width="886" height="886"/>
</svg>
