<?xml version="1.0" encoding="utf-8"?>
<!-- Generator: Adobe Illustrator 16.0.0, SVG Export Plug-In . SVG Version: 6.00 Build 0)  -->
<!DOCTYPE svg PUBLIC "-//W3C//DTD SVG 1.1//EN" "http://www.w3.org/Graphics/SVG/1.1/DTD/svg11.dtd">
<svg version="1.1" id="Livello_1" xmlns="http://www.w3.org/2000/svg" xmlns:xlink="http://www.w3.org/1999/xlink" x="0px" y="0px"
	 width="768px" height="1024.604px" viewBox="0 0 768 1024.604" enable-background="new 0 0 768 1024.604" xml:space="preserve">
<g>
	<g id="_x23_98bf0eff">
		<path fill="#98BF16" d="M333.167,261.12c8.765-1.952,17.419-4.481,26.292-5.945c26.237-2.331,52.585,1.428,77.993,7.933
			c24.647,7.12,49.133,14.944,72.824,24.829c8.476,3.217,15.504,9.071,23.347,13.463c8.023,4.5,15.704,9.56,23.058,15.089
			c8.641,6.632,17.005,14.041,22.987,23.256c12.125,14.854,23.04,30.685,31.821,47.761c6.45,12.92,14.583,25.1,19.518,38.762
			c7.607,24.359,14.112,49.1,17.961,74.344c1.048,6.704,3,13.226,4.268,19.895c3.667,25.858,9.521,51.502,10.822,77.632
			c-0.381,15.667-0.851,31.334-0.923,46.983c-2.729,16.771-0.307,33.864-3.396,50.58c-5.099,51.501-20.602,101.195-38.6,149.497
			c-2.747,8.021-5.112,16.189-8.654,23.926c-6.798,14.583-12.253,29.996-22.373,42.755c-8.062,9.921-15.123,20.943-25.229,28.948
			c-6.899,10.211-18.286,15.614-28.1,22.498c-22.968,14.565-46.769,27.92-71.666,38.907c-19.141,7.173-39.72,8.728-59.834,11.274
			c-20.147,1.14-40.333,0.055-60.3-2.621c-39.9-8.476-79.167-22.189-113.646-44.29c-14.529-11.132-29.239-22.391-41.183-36.356
			c-6.162-8.259-13.824-15.38-19.083-24.271c-14.24-26.347-28.642-52.711-39.792-80.538c-7.265-15.144-13.318-30.828-19.535-46.425
			c-4.011-9.722-9.541-18.92-11.709-29.293c-3.74-15.899-7.011-31.913-10.625-47.832c-1.952-11.891-3.289-23.854-5.295-35.707
			c-1.535-6.958-2.8-14.005-2.945-21.125c-0.126-24.052,0.253-48.122-0.054-72.175c-0.072-3.505,0.162-7.01,1.301-10.336
			c0.055-36.61,7.59-73.021,20.203-107.357c2.674-7.281,3.704-15.089,6.938-22.153c12.849-26.075,25.77-52.133,40.388-77.271
			c4.373-8.511,12.903-13.499,19.3-20.293c11.312-9.379,22.1-19.625,34.948-26.944c13.318-8.349,27.287-15.649,41.833-21.594
			c9.632-4.536,19.281-10.391,30.287-10.301c0.379-0.289,1.138-0.85,1.518-1.121c13.679-4.083,27.774-6.74,41.273-11.402
			c4.59-1.138,9.252-1.861,13.968-2.204C333.095,261.698,333.149,261.318,333.167,261.12"/>
	</g>
</g>
<g id="_x23_f87014ff">
	<path fill="#EC7022" d="M349.359,418.009c4.373,8.005,4.896,17.583,9.105,25.787c4.481,18.577,10.372,36.865,13.266,55.82
		c2.674,11.204,2.295,22.914,5.907,33.918c-0.106,9.505,2.114,18.794,2.964,28.227c3.939,43.876,8.313,87.732,10.318,131.716
		c2.855,14.204-0.324,28.786,2.204,43.027c1.845,10.065-0.18,20.347,1.645,30.412c1.989,12.957,0.255,26.094,1.395,39.104
		c0.922,6.634,1.662,13.266,1.915,19.95c-0.597,0.107-1.789,0.309-2.384,0.414c-10.143-4.391-21.487-3.974-31.771-7.877
		c-4.012-16.59-1.591-33.646-2.928-50.453c-3.054-19.77,0.522-39.883-3.234-59.561c-0.434-11.928,0.957-23.926-0.705-35.799
		c-2.729-16.751,0.398-33.791-1.807-50.6c-2.368-15.737,0.199-31.729-1.5-47.508c-3.325-19.154,0.705-38.742-2.566-57.897
		c-1.789-18.539,1.014-37.298-2.168-55.729C348.076,446.669,348.907,432.303,349.359,418.009z"/>
</g>
<g id="_x23_040404ff">
	<path fill="#030303" d="M512.519,463.872c7.175-6.072,16.878-8.042,25.985-8.385c9.162,5.385,16.57,13.174,21.595,22.516
		c1.245,10.229-1.318,20.276-6.741,28.967c-0.45,1.482-0.902,2.964-1.354,4.464c-3.831,2.352-7.084,5.457-10.553,8.275
		c-4.354,3.562-10.371,2.441-15.562,2.658c-7.406,0.759-12.702-5.294-18.446-8.908c-8.678-6.164-12.02-17.132-10.535-27.378
		C495.965,475.726,505.308,469.366,512.519,463.872z"/>
	<path fill="#030303" d="M195.252,506.066c6.488-3.994,13.897-0.056,20.8,0.181c6.144,4.175,12.487,8.24,17.6,13.698
		c4.03,4.027,4.59,10.047,5.078,15.413c0.452,0.759,1.374,2.274,1.825,3.036c-2.529,4.337-5.024,8.728-7.752,12.954
		c-7.319,8.604-17.655,14.768-29.13,15.325c-5.005-0.742-9.92-1.896-14.818-3.197c-6.487-7.718-13.715-14.691-20.601-22.047
		c-0.668-9.669-0.65-21.089,7.355-27.955c1.012-0.182,3.035-0.577,4.047-0.76C184.393,509.464,190.247,508.759,195.252,506.066z"/>
</g>
<g id="_x23_fde34cff">
	<path fill="#FCE34D" d="M364.574,888.494c50.852-6.02,101.827-11.022,152.661-17.257c-5.785,7.026-13.43,12.053-20.584,17.526
		c-8.71,6.649-17.943,12.597-27.305,18.288c-8.097,5.023-17.564,6.851-26.652,9.145c-11.312,2.386-22.571,6.145-34.281,5.458
		c-13.336-0.853-26.51,2.385-39.845,1.191c-35.527-2.656-71.65-5.312-105.479-17.237c19.499-6.94,40.135-10.698,60.772-12.253
		C337.521,892.524,350.967,889.904,364.574,888.494z"/>
</g>
<rect fill="none" width="768" height="1024.604"/>
</svg>
