<?xml version="1.0" encoding="utf-8"?>
<!-- Generator: Adobe Illustrator 16.0.0, SVG Export Plug-In . SVG Version: 6.00 Build 0)  -->
<!DOCTYPE svg PUBLIC "-//W3C//DTD SVG 1.1//EN" "http://www.w3.org/Graphics/SVG/1.1/DTD/svg11.dtd">
<svg version="1.1" id="Livello_1" xmlns="http://www.w3.org/2000/svg" xmlns:xlink="http://www.w3.org/1999/xlink" x="0px" y="0px"
	 width="886px" height="886px" viewBox="0 0 886 886" enable-background="new 0 0 886 886" xml:space="preserve">
<g id="_x23_e16692ff">
	<path fill="#E56D96" d="M381.972,4.34c35.938-0.468,72.066-2.758,107.838,2.071c17.828,2.548,35.528,6.092,53.453,7.994
		c2.784,0.299,5.56,0.854,8.188,1.892c17.652,6.958,34.992,14.693,52.306,22.498c20.124,8.711,39.812,18.478,59.041,29.09
		c12.323,6.44,24.33,13.509,36.131,20.905c12.034,7.526,24.759,14.046,36.005,22.808c15.851,16.386,30.454,34.006,44.699,51.875
		c1.918,2.368,3.836,4.777,5.335,7.466c7.546,14.274,15.539,28.342,21.867,43.255c7.225,15.849,12.022,32.663,17.291,49.248
		c3.319,10.522,4.646,21.533,6.769,32.344c1.763,9.039,3.047,18.168,5.022,27.157c2.656,12.395,4.371,24.987,7.535,37.262
		c4.021,15.85,14.431,29.1,26.297,39.682c4.433,5.106,10.584,7.864,16.252,11.21v185.651c-6.125,2.148-12.31,4.539-17.563,8.491
		c-6.036,4.341-12.843,7.844-17.594,13.788c-3.826,4.788-7.127,10.005-10.32,15.25c-3.104,4.879-3.67,10.781-4.896,16.337
		c-2.531,12.396-5.473,24.815-10.738,36.336c-2.668,6.223-5.86,12.194-8.726,18.327c-2.425,4.985-3.262,10.644-6.134,15.421
		c-22.313,40.944-47.768,79.959-71.719,119.89c-8.812,14.742-16.804,29.977-24.379,45.415H189.964
		c-3.059-6.811-7.711-12.612-12.345-18.339c-22.871-30.939-46.033-61.779-65.623-95.051c-6.786-11.707-15.023-22.627-20.136-35.271
		c-8.52-18.785-17.466-37.36-25.74-56.256c-2.895-6.75-6.098-13.358-8.473-20.328c-4.002-11.617-8.5-23.057-12.269-34.764
		c-1.782-5.337-4.354-10.333-6.659-15.44c-1.587-3.482-3.592-6.867-6.582-9.275c-3.194-2.51-6.192-5.806-10.389-6.381
		c-7.283-1.155-14.332-3.716-21.75-3.873V394.42c4.906-0.876,9.629-2.568,14.193-4.58c4.459-1.981,9.553-2.897,13.193-6.432
		c4.722-4.449,10.232-8.571,12.764-14.833c2.044-4.897,3.808-9.916,5.832-14.822c4.52-10.612,6.438-22.07,9.493-33.151
		c5.521-21.821,11.752-43.435,17.01-65.325c1.803-5.685,2.375-11.737,4.597-17.272c11.751-22.229,24.146-44.11,37.025-65.674
		c12.375-21.184,26.562-41.184,39.599-61.939c1.937-3.267,4.761-5.805,7.75-8.024c12.529-9.487,25.09-18.934,37.988-27.884
		c10.243-7.446,20.251-15.251,31-21.94c8.754-5.416,17.226-11.458,26.736-15.439c10.525-4.858,20.816-10.293,31.633-14.476
		c12.181-4.817,24.771-8.452,37.438-11.677c4.128-1.095,8.227-2.369,12.479-2.887C353.105,6.411,367.476,4.39,381.972,4.34"/>
</g>
<g id="_x23_616aabff">
	<path fill="#4865A9" d="M243.845,379.926c5.687-1.294,11.469,0.368,17.077,1.374c5.354,0.905,10.223,3.664,14.498,6.988
		c5.257,4.449,8.724,10.593,12.2,16.495c3.096,5.188,4.332,11.25,5.14,17.202c0.604,3.523-0.983,6.831-1.986,10.095
		c-2.18,6.438-3.096,13.56-7.224,19.134c-3.086,3.443-6.942,6.043-10.573,8.829c-3.252,2.528-7.02,4.381-11.081,4.997
		c-4.848,0.816-9.695,2.222-14.643,1.963c-9.571-1.684-18.852-5.138-27.272-10.065c-3.534-2.536-6.756-5.702-9.201-9.355
		c-2.062-4.608-3.252-9.575-4.712-14.404c-2.541-8.083,0.479-16.416,2.873-24.121c1.891-4.729,3.33-10.273,7.779-13.2
		C225.317,389.82,233.924,383.499,243.845,379.926z"/>
	<path fill="#4865A9" d="M623.461,390.646c8.614-1.533,17.886,0.189,24.981,5.564c6.854,3.375,10.866,10.193,15.208,16.227
		c2.705,3.664,3.037,8.363,3.737,12.723c0.645,4.34,1.782,8.779,0.888,13.17c-1.842,6.74-2.562,14.086-7.118,19.652
		c-3.933,6.889-11.398,9.755-17.622,13.887c-3.532,1.961-7.684,1.979-11.486,3.058c-4.527,1.006-9.521,2.618-13.952,0.396
		c-6.98-3.165-13.445-7.388-19.551-12.035c-3.981-2.757-5.735-7.524-8.528-11.318c-5.932-8.332-4.371-19.184-4.439-28.839
		c1.021-5.516,3.445-10.712,5.501-15.889c5.229-5.794,11.891-10.005,18.548-13.856C613.773,390.776,618.875,391.702,623.461,390.646
		z"/>
</g>
<g id="_x23_cd031bff">
	<path fill="#CB021A" d="M427.47,681.394c14.524-1.722,29.188-2.688,43.804-1.712c19.589,1.194,39.062,3.862,58.65,5.146
		c-2.095,2.369-4.703,4.143-7.1,6.162c-8.169,7.854-16.602,15.41-24.942,23.076c-3.632,2.588-6.251,6.567-10.438,8.342
		c-4.519,2.108-8.052,5.854-12.521,8.044c-12.298,6.11-26.26,7.726-39.771,7.874c-7.896-0.706-15.743-2.238-23.25-4.838
		c-6.184-1.623-11.538-5.275-17.264-8.004c-6.26-3.812-12.979-6.958-18.604-11.769c-7.938-6.392-15.804-12.843-23.642-19.332
		C377.485,690.433,402.351,685.136,427.47,681.394z"/>
</g>
<rect x="-0.002" fill="none" width="886.002" height="886"/>
</svg>
