<?xml version="1.0" encoding="utf-8"?>
<!-- Generator: Adobe Illustrator 16.0.0, SVG Export Plug-In . SVG Version: 6.00 Build 0)  -->
<!DOCTYPE svg PUBLIC "-//W3C//DTD SVG 1.1//EN" "http://www.w3.org/Graphics/SVG/1.1/DTD/svg11.dtd">
<svg version="1.1" id="Layer_1" xmlns="http://www.w3.org/2000/svg" xmlns:xlink="http://www.w3.org/1999/xlink" x="0px" y="0px"
	 width="886px" height="886px" viewBox="0 0 886 886" enable-background="new 0 0 886 886" xml:space="preserve">
<path fill="#009144" d="M403.35,121.36c15.551-11.73,28.341-26.521,41.681-40.58c30.63,22.29,61.83,43.81,93.689,64.3
	c4.351,2.72,8.38,6.04,13.21,7.931c36.37,15.319,73.181,29.84,111.189,40.64c9.931,3.53,20.58,3.58,30.95,4.6
	c23.939,1.391,47.909,2.271,71.891,2.04c16.26,0.25,32.479-0.89,48.72-1.399c-0.75,13.699-1.449,27.399-2.3,41.09
	c-0.12,6.77-1.79,13.37-2.5,20.08c-3.13,25.67-6.79,51.27-10.439,76.87c-1.189,7.729-2.011,15.56-4.479,23.02
	c-7.591,34.99-16.12,69.811-26.979,103.939c-0.8,2.431-0.94,5.021-1.681,7.471c-1.21,1.649-3.029,2.84-3.869,4.76
	c-14.16,37.95-29.142,75.601-44.291,113.17c-1.709,4.351-3.771,8.561-6.359,12.46c-28.29,44.131-57.069,88.15-90.58,128.551
	c-8.109,6.069-14.85,13.729-22.489,20.351c-21.91,19.96-44.78,38.93-69.271,55.649c-13.66,9.529-28.08,18.029-43.25,24.92
	c-3.101,1.41-6.66,1-9.771,2.37c-10.479,4.01-21.221,7.521-32.359,9.141c-18.551,3.06-37.609,4.59-56.271,1.55
	c-21.36-3.311-42.71-9.319-61.08-21c-9.771-6.391-19.49-13.021-27.859-21.189c-26.439-24.88-51.7-51.07-74.939-78.979
	c-3.75-4.96-8.32-9.311-11.19-14.899C191.25,675.75,171.1,642.37,153.7,607.54c-16.431-37.579-33-75.319-44.511-114.779
	C100.24,460.01,91.66,427.15,84.32,394c-2.489-9.489-3.27-19.279-4.649-28.96c-3.3-29.939-5.7-59.97-6.99-90.06
	c-1.04-17.47-1.75-34.99-1.24-52.49c12.851-0.75,25.721-0.979,38.58-1.62c12.971-0.88,26,0.48,38.96-0.859
	c13.57-0.971,27.17-1.681,40.771-2.351c12.39-0.38,24.84-0.41,37.18-1.62c26.73-6.84,52.33-17.35,77.48-28.569
	c4.1-1.83,8.31-3.471,12.119-5.86C346.67,163.35,376.19,143.87,403.35,121.36 M424.22,642.18c-1.97,1.16-3.67,3.96-6.25,3.069
	c-7.87-2.479-15.069-6.699-22.87-9.369c-3.96-1.37-8.31-0.681-12.08,0.949c-3.568,1.5-7.779,2.841-9.6,6.58
	c-4,7.2-7.67,15.13-7.05,23.58c-0.431,7.939,3.358,15.149,6.659,22.101C386.21,707.3,403.08,722.539,421,735.97
	c9.619-10.021,18.77-20.489,28.43-30.479c6.939-7.819,14.181-15.62,18.84-25.08c3.511-6.979,4.761-14.779,6.011-22.399
	c1.479-12.489-10.05-23.891-22.29-23.88c-4.939,0.04-9.899-0.03-14.8,0.561C431.949,635.19,428.38,639.461,424.22,642.18z"/>
<g id="_x23_cd031bff">
	<path fill="#CD031B" d="M424.22,642.18c4.16-2.72,7.729-6.989,12.971-7.489c4.899-0.591,9.859-0.521,14.8-0.561
		c12.24-0.011,23.771,11.39,22.29,23.88c-1.25,7.62-2.5,15.42-6.011,22.399c-4.659,9.46-11.899,17.261-18.84,25.08
		c-9.66,9.989-18.811,20.46-28.43,30.479c-17.92-13.431-34.79-28.67-47.971-46.88c-3.301-6.95-7.09-14.16-6.659-22.101
		c-0.62-8.45,3.05-16.38,7.05-23.58c1.819-3.739,6.03-5.08,9.6-6.58c3.771-1.63,8.12-2.319,12.08-0.949
		c7.801,2.67,15,6.89,22.87,9.369C420.55,646.14,422.25,643.341,424.22,642.18z"/>
</g>
<rect fill="none" width="886" height="886"/>
</svg>
