<?xml version="1.0" encoding="utf-8"?>
<!-- Generator: Adobe Illustrator 16.0.0, SVG Export Plug-In . SVG Version: 6.00 Build 0)  -->
<!DOCTYPE svg PUBLIC "-//W3C//DTD SVG 1.1 Basic//EN" "http://www.w3.org/Graphics/SVG/1.1/DTD/svg11-basic.dtd">
<svg version="1.1" baseProfile="basic" id="Livello_1"
	 xmlns="http://www.w3.org/2000/svg" xmlns:xlink="http://www.w3.org/1999/xlink" x="0px" y="0px" width="768px"
	 height="1024.604px" viewBox="0 0 768 1024.604" xml:space="preserve">
<g id="_x23_009144ff">
	<path fill="#019244" d="M307.76,387.506c29.003-19.317,55.676-41.924,81.046-65.759c12.614,12.614,25.696,24.739,39.432,36.124
		c15.07,15.053,31.01,29.292,47.87,42.339c17.743,11.999,36.447,22.986,56.957,29.545c17.764,5.566,35.852,10.247,54.229,13.229
		c25.878,3.271,51.736,7.047,77.831,7.95c12.991,1.734,26.075,2.53,39.104,3.903c0.146,17.89-2.222,35.726-6.071,53.181
		c-5.746,31.932-14.258,63.338-18.596,95.485c-3.106,14.438-6.069,28.933-9.215,43.369c-9.106,37.244-25.461,72.065-41.072,106.906
		c-15.598,33.919-35.097,65.812-55.136,97.237c-10.732,17.601-26.112,31.587-39.684,46.894
		c-5.312,6.072-12.019,10.717-17.132,16.969c-8.294,10.391-19.263,18.106-28.586,27.485c-10.121,10.063-22.661,17.021-34.117,25.371
		c-8.513,5.584-16.588,12.034-26.167,15.738c-14.654,5.691-29.979,9.397-45.356,12.561c-11.276,2.187-22.806,0.577-34.081-0.706
		c-10.951-1.535-21.938-3.125-32.708-5.673c-17.384-4.88-33.069-14.114-48.791-22.733c-15.342-8.077-27.468-20.727-40.677-31.678
		c-13.281-13.48-23.256-29.779-35.075-44.471c-10.878-13.14-18.812-28.281-28.263-42.413c-10.824-16.082-19.372-33.557-29.69-49.965
		c-10.246-17.639-16.625-37.137-25.642-55.388c-7.48-17.908-12.396-36.755-18.974-54.987c-5.458-17.908-10.572-36.052-12.812-54.682
		c-2.15-15.903-5.168-31.732-5.836-47.797c-2.476-44.815-5.078-89.649-9.542-134.319c10.481-4.373,21.974-2.096,32.961-2.603
		c48.646-1.266,98.774-3.614,144.221-22.715C263.379,417.16,285.732,402.215,307.76,387.506"/>
</g>
<g id="_x23_b71309ff">
	<path fill="#B6181D" d="M318.928,810.177c20.925-10.102,45.501-9.614,67.692-4.354c13.372,2.638,24.396,11.294,34.876,19.479
		c15.487,14.384,25.968,33.052,39.105,49.441c-0.74,0.687-2.205,2.097-2.946,2.783c-12.921-2.331-24.737-8.35-37.515-11.169
		c-22.605-6.975-46.008-11.781-69.717-12.287c-22.263,1.428-44.182,5.944-65.632,11.998c-8.457,1.446-16.408,5.259-25.01,5.854
		C276.335,848.758,293.485,824.309,318.928,810.177z"/>
</g>
</svg>
