<?xml version="1.0" encoding="utf-8"?>
<!-- Generator: Adobe Illustrator 15.0.2, SVG Export Plug-In . SVG Version: 6.00 Build 0)  -->
<!DOCTYPE svg PUBLIC "-//W3C//DTD SVG 1.1//EN" "http://www.w3.org/Graphics/SVG/1.1/DTD/svg11.dtd">
<svg version="1.1" id="Layer_1" xmlns="http://www.w3.org/2000/svg" xmlns:xlink="http://www.w3.org/1999/xlink" x="0px" y="0px"
	 width="583px" height="588px" viewBox="0 0 583 588" enable-background="new 0 0 583 588" xml:space="preserve">
<path fill="#FCEE22" d="M61.533,103.64c22.82-2.65,45.712,1.71,67.602,7.97c18.68,5.07,35.72,14.6,52.479,24.04
	c8.94,4.648,15.972,12.05,23.312,18.8c10.18,9.36,17.479,21.23,25.069,32.66c-8.479,4.188-17.471,7.58-26.829,9.13
	c-12.791,2.47-25.91,3.92-38.921,2.6c-9.301-0.6-18.779-1.608-27.421-5.29c-7.67-2.8-14.52-7.31-21.37-11.64
	c-8.278-4.8-14.26-12.47-20.89-19.188c-4.479-4.19-7.1-9.802-10.311-14.922C75.694,133.62,68.055,118.86,61.533,103.64z"/>
<path fill="#FCEE22" d="M479.185,109.4c11.562-1.14,23.182-0.78,34.78-1.01c-0.22,2.5-0.188,5.028-0.688,7.5
	c-6.521,13.27-12.57,26.898-20.99,39.13c-10.58,13.88-23.959,26.13-40.188,32.97c-7.88,3.16-15.66,6.98-24.16,8.03
	c-5.93,0.75-11.698,2.95-17.737,2.29c-14.301-0.92-28.643-0.82-42.973-0.95c-7.29-0.29-14.738,0.688-21.88-1.04
	c10.88-16.48,24.722-30.72,38.939-44.32c6.489-5.59,12.641-11.88,20.59-15.398c16.49-9.57,33.631-18.552,52.229-23.222
	C464.305,111.28,471.614,109.29,479.185,109.4z"/>
<g>
	<path fill="#CA1516" d="M267.261,263.245c8.568-5.58,18.84-8.27,29.02-8.16c4.73,0.641,9.32,2.12,14.03,2.98
		c8.07,1.53,14.91,6.9,20.229,12.81c-4.01,17.32-8.079,34.62-11.89,51.98c-1.79,6.649-3.85,13.229-5.32,19.96
		c-2.22,10.051-5.51,19.83-7.39,29.96c-2.1,10.131-5.189,20.04-7.09,30.221c20.92-23.34,41.95-46.601,63.229-69.62
		c3.579-4.041,7.399-7.891,10.529-12.301c7.92,14.711,15.86,29.541,22.75,44.82c3.13,6.25,5.75,12.74,8.96,18.96
		c0.86,1.53,1.102,3.439-0.08,4.898c-5.87,8.472-11.95,16.791-17.87,25.222c-6.108,8.431-11.858,17.229-19.438,24.438
		c-12.021,12.791-25.13,24.92-40.67,33.32c-15.5,7.301-33.12,8.77-50.011,7.42c-10.381-1.35-20.359-4.72-30.221-8.109
		c-3.74-1.189-6.38-4.239-9.34-6.641c-4.39-3.59-8.45-7.55-12.74-11.25c-7.818-6.6-13.898-14.92-20.26-22.859
		c-10.14-14.34-18.06-30.141-24.82-46.301c-0.33-1.129-1.26-2.358-0.778-3.549c6.75-15.071,13.22-30.28,20.488-45.101
		c6.03-9.49,10.04-20.16,16.58-29.33l0.512,0.311c0.96,0.569,1.979,1.109,2.77,1.93c8.15,16.301,16.11,32.711,24.4,48.939
		c5.159,11.78,11.77,22.851,18.108,34.021c0.74-7.5-0.46-15-0.3-22.5c-0.76-33.66-2.61-67.311-2.25-100.99
		c-0.229-0.021-0.689-0.061-0.92-0.08c0.16-0.28,0.49-0.83,0.65-1.11C261.791,267.925,264.271,264.785,267.261,263.245z"/>
	<path fill="#FFFFFF" d="M220.4,301.914c11.55-11.938,23.2-24.04,37.08-33.27c0.122,0.01,0.609-1.2,0.948-1.169
		c-0.36,33.681,1.462,68.58,2.222,102.24c-0.16,7.5,1.04,15,0.3,22.5c-6.34-11.172-12.948-22.24-18.108-34.021
		c-8.29-16.229-16.25-32.641-24.4-48.94c-0.79-0.819-2.285-1.613-3.245-2.183C215.995,304.682,218.811,303.705,220.4,301.914z"/>
	<path fill="#FFFFFF" d="M318.65,322.854c3.811-17.36,7.88-34.66,11.891-51.98c6.771,6.07,13.489,12.25,19.199,19.36
		c8.48,9.57,15.48,20.33,23.021,30.63l-0.15,0.209c-3.13,4.41-6.95,8.26-10.529,12.301c-21.279,23.021-42.311,46.28-63.229,69.62
		c1.9-10.181,4.99-20.09,7.09-30.221c1.88-10.13,5.17-19.909,7.391-29.96C314.801,336.084,316.86,329.505,318.65,322.854z"/>
</g>
</svg>
