<?xml version="1.0" encoding="utf-8"?>
<!-- Generator: Adobe Illustrator 15.0.2, SVG Export Plug-In . SVG Version: 6.00 Build 0)  -->
<!DOCTYPE svg PUBLIC "-//W3C//DTD SVG 1.1//EN" "http://www.w3.org/Graphics/SVG/1.1/DTD/svg11.dtd">
<svg version="1.1" id="Layer_1" xmlns="http://www.w3.org/2000/svg" xmlns:xlink="http://www.w3.org/1999/xlink" x="0px" y="0px"
	 width="583px" height="588px" viewBox="0 0 583 588" enable-background="new 0 0 583 588" xml:space="preserve">
<g>
	<path fill="#FCEE22" d="M74.07,110.19c3.15,0.24,5.87,1.938,8.78,3.01c11.688,4.16,23.71,7.41,35.148,12.28
		c9.62,3.938,19.19,8.09,28.182,13.358c12.76,7.422,25.5,14.91,37.77,23.12c17.19,13.802,33.57,28.562,50.3,42.91
		c-14.12,0.09-28.33,0.29-42.318-1.858c-9.762-2.82-19.74-4.972-29.182-8.75c-16.25-7.102-31.93-15.91-45.239-27.722
		c-4.931-5.05-10.189-9.81-14.801-15.16C93.02,137.75,83.628,123.9,74.07,110.19z"/>
	<path fill="#FCEE22" d="M454.07,131.08c13.897-4.3,28.479-5.28,42.778-7.54c4-0.75,8.052,0.05,12.08,0.21
		c-4.488,6.682-10.7,12.08-16.568,17.53c-9.762,8.55-20.4,16.08-31.682,22.48c-14.188,8.42-28.7,16.31-43.642,23.318
		c-8.47,3.682-16.71,8.44-25.979,9.72c-15.658,2.99-31.318,6.15-47.118,8.222c8.71-10.26,18.42-19.602,27.56-29.472
		c4.341-4.358,8.432-9.158,13.972-12.06C407.26,150.68,429.28,137.21,454.07,131.08z"/>
</g>
<path fill="#CA1516" d="M273.084,325.225c8.16-1.99,16.61-1.15,24.91-1c8.131,0.18,15.95,2.62,23.62,5.068
	c6.79,2.512,13.66,5.062,19.83,8.9c10.62,8.03,21.021,16.391,31.011,25.19c3.859,4.76,8.189,9.1,12.539,13.408
	c1.33,1.021,1.391,2.672,1.521,4.19c-16.18,2.82-32.4,5.341-48.61,7.931c-13.229,1.801-26.45,4.379-39.851,4.109
	c-8.689-0.09-17.379,0.131-26.069,0.141c-25.85-2.069-51.27-7.891-75.94-15.729c-1.64-0.11-0.59-2,0.12-2.569
	c7.95-8.649,16.82-16.37,25.36-24.411c9.38-8.738,21.2-13.959,32.39-19.858C259.875,327.515,266.625,326.675,273.084,325.225z"/>
</svg>
