<?xml version="1.0" encoding="utf-8"?>
<!-- Generator: Adobe Illustrator 15.0.2, SVG Export Plug-In . SVG Version: 6.00 Build 0)  -->
<!DOCTYPE svg PUBLIC "-//W3C//DTD SVG 1.1//EN" "http://www.w3.org/Graphics/SVG/1.1/DTD/svg11.dtd">
<svg version="1.1" id="Layer_1" xmlns="http://www.w3.org/2000/svg" xmlns:xlink="http://www.w3.org/1999/xlink" x="0px" y="0px"
	 width="583px" height="588px" viewBox="0 0 583 588" enable-background="new 0 0 583 588" xml:space="preserve">
<g>
	<path fill="#FCEE22" d="M66.424,102.04c11.72,2.271,23.16,6.09,33.858,11.38c13.98,6.99,28.12,13.69,41.472,21.842
		c12.41,7.43,24.608,15.188,36.6,23.278c5.24,3.7,10.88,6.98,15.28,11.73c6.39,6.608,13.068,12.93,19.8,19.2
		c5.63,5.068,12.02,9.21,17.689,14.229c-25.699,0.12-52.039,3.44-77.149-3.7c-8.87-2.66-17.46-6.18-25.92-9.92
		c-8.71-4.25-15.04-11.83-21.641-18.67c-8.101-10.11-15.601-20.76-21.461-32.34C78.294,126.97,72.584,114.4,66.424,102.04z"/>
	<path fill="#FCEE22" d="M486.873,111.26c6.711-0.712,13.399-1.712,20.159-1.972c-5.67,8.53-10.858,17.5-17.938,24.972
		c-7.55,8.42-15.028,16.93-23.358,24.59c-4.67,4.05-8.83,8.729-14.068,12.06c-6.791,4.57-13.262,9.72-20.762,13.08
		c-20.938,10.53-42.729,20.28-66.029,24.03c-3.931,0.729-7.859,1.92-11.891,1.43c-7.13-0.7-14.229-1.72-21.271-3.02
		c11.568-11.99,22.09-24.94,33.028-37.5c2.979-3.352,5.45-7.29,9.291-9.771c9.25-6.41,17.561-14.13,27.101-20.13
		c7.938-3.63,15.688-7.67,23.62-11.34c13.188-4.57,26.66-8.34,40.142-12C472.202,114.14,479.363,111.67,486.873,111.26z"/>
</g>
<g>
	<path fill="#CA1516" d="M286.11,274.965c4.84-2.86,10.639-2.261,16.02-3.5c9.181-0.171,17.261,4.72,25.061,8.939
		c1.939,1.82,5.04,3.03,6.439,5.09c-4.381,11.59-7.609,23.57-11.659,35.271c-4.28,13.79-9.16,27.39-13.302,41.22
		c5.07-3.26,9.392-7.5,13.98-11.38c10.55-8.899,20.729-18.229,31.32-27.08c1.89-1.5,3.85-3,6.17-3.771
		c10.979,22.229,21.148,45.109,26.76,69.351c-10.46,6.08-20.6,12.77-31.66,17.721c-11.25,5.08-22.12,11.141-34.05,14.539
		c-9.94,3.84-20.55,5.381-31.062,6.75c-8.39,0.631-17.028,0.801-25.148-1.75c-13.562-3.47-25.18-11.6-37.12-18.539
		c-10.65-6.631-21.6-12.82-31.76-20.211c6.79-16.74,14.41-33.148,22.479-49.31c7.75-12.75,16.771-24.66,25.28-36.9
		c1.71-2.699,4.52-4.32,7.23-5.84c6.278,14.33,13.108,28.41,19.568,42.66c0.45,1.398,1.82,1.939,3.04,2.52
		c3.48-14.84,5.96-29.879,8.86-44.84c1.05-6.669,2.75-13.27,2.938-20.05c0.12-0.48,0.012-0.362,0.142-0.843L286.11,274.965z"/>
	<path fill="#FFFFFF" d="M285.539,275.095l-0.04,0.76c-0.188,6.78-1.89,13.38-2.938,20.05c-2.9,14.961-5.38,30-8.86,44.84
		c-1.22-0.58-2.59-1.119-3.04-2.52c-6.46-14.25-13.29-28.33-19.568-42.66c-0.16-0.42-0.49-1.24-0.66-1.66
		C261.729,286.905,273.239,280.205,285.539,275.095z"/>
	<path fill="#FFFFFF" d="M321.97,320.765c4.05-11.7,7.278-23.681,11.658-35.271l0.11-0.319c5.71,5.649,12.57,10.18,17,17.04
		c4.44,4.38,6.062,10.568,9.78,15.46c-2.09,2.05-4.312,3.96-6.55,5.851c-10.592,8.85-20.771,18.18-31.32,27.079
		c-4.59,3.88-8.91,8.12-13.98,11.38C312.81,348.154,317.689,334.555,321.97,320.765z"/>
</g>
</svg>
