<?xml version="1.0" encoding="utf-8"?>
<!-- Generator: Adobe Illustrator 15.0.2, SVG Export Plug-In . SVG Version: 6.00 Build 0)  -->
<!DOCTYPE svg PUBLIC "-//W3C//DTD SVG 1.1//EN" "http://www.w3.org/Graphics/SVG/1.1/DTD/svg11.dtd">
<svg version="1.1" id="Layer_1" xmlns="http://www.w3.org/2000/svg" xmlns:xlink="http://www.w3.org/1999/xlink" x="0px" y="0px"
	 width="583px" height="588px" viewBox="0 0 583 588" enable-background="new 0 0 583 588" xml:space="preserve">
<path fill="#FCEE22" d="M61.533,103.64c22.82-2.65,45.712,1.71,67.602,7.97c18.68,5.07,35.72,14.6,52.479,24.04
	c8.94,4.648,15.972,12.05,23.312,18.8c10.18,9.36,17.479,21.23,25.069,32.66c-8.479,4.188-17.471,7.58-26.829,9.13
	c-12.791,2.47-25.91,3.92-38.921,2.6c-9.301-0.6-18.779-1.608-27.421-5.29c-7.67-2.8-14.52-7.31-21.37-11.64
	c-8.278-4.8-14.26-12.47-20.89-19.188c-4.479-4.19-7.1-9.802-10.311-14.922C75.694,133.62,68.055,118.86,61.533,103.64z"/>
<path fill="#FCEE22" d="M479.185,109.4c11.562-1.14,23.181-0.78,34.78-1.01c-0.22,2.5-0.189,5.028-0.689,7.5
	c-6.521,13.27-12.57,26.898-20.99,39.13c-10.58,13.88-23.959,26.13-40.188,32.97c-7.88,3.16-15.66,6.98-24.16,8.03
	c-5.93,0.75-11.699,2.95-17.738,2.29c-14.301-0.92-28.642-0.82-42.972-0.95c-7.29-0.29-14.739,0.688-21.88-1.04
	c10.88-16.48,24.721-30.72,38.939-44.32c6.489-5.59,12.641-11.88,20.59-15.398c16.49-9.57,33.631-18.552,52.229-23.222
	C464.305,111.28,471.614,109.29,479.185,109.4z"/>
<path fill="#E4B25C" d="M545.275,461.132c1.399-0.54,1.851-0.092,1.359,1.33C545.185,462.99,544.735,462.54,545.275,461.132z"/>
<path fill="#CA1516" d="M187.283,227.39c8.94-0.75,17.83,0.89,26.642,2.278c0.699,11.5-1.03,23.04,0.479,34.49
	c1.23,24.61,2.37,49.21,3.562,73.83c0.58,8.05,1.28,16.102,2.27,24.119c3.45-4.799,5.95-10.229,8.932-15.34
	c10.21-18.26,20.05-36.74,29.648-55.33c8.432-15.22,16.11-30.87,24.602-46.05c7.148,2.43,14.68,3.358,21.988,5.188
	c0.66,6.771,1.312,13.55,1.46,20.36c0.062-0.53,0.189-1.59,0.26-2.12c5.24,37.29,7.512,74.9,8.951,112.5
	c0.789,0.16,1.608,0.33,2.459,0.5c5.892-21.188,12.399-42.2,18.28-63.398c6.09-21.852,12.579-43.592,20.029-65.03
	c6.141-0.08,12.24-1.222,18.41-0.892c17.709-0.26,35.43,0.05,53.039,2.102c7.041,0.398,13.659,2.93,20.439,4.64
	c5.899,1.46,11.149,4.67,16.479,7.49c-0.189,0.6-0.58,1.81-0.78,2.41c-6.779,12.71-14.601,24.84-21.431,37.54
	c-13.131,23.34-26.409,46.59-39.688,69.84c0.619-0.029,1.88-0.1,2.511-0.14c26.539-17.183,52.591-35.142,78.279-53.569
	c8.789-6.381,17.229-13.23,25.909-19.761c10.37,12.97,18.021,27.817,26.021,42.3c-10.5,10.32-20.97,20.66-31.698,30.721
	c-17.711,17.649-36.7,33.92-54.65,51.312c-3.069,3.1-6.71,5.618-9.449,9.04c5.899-1.11,11.25-3.979,16.89-5.96
	c26.791-10.62,53.012-22.62,79.58-33.78c5.842-2.41,11.521-5.17,17.36-7.58c-0.181-0.709-0.53-2.149-0.71-2.869
	c1.01,2.869,1.971,5.771,3.079,8.619c2.939,7.041,3.841,14.68,5.562,22.061c-2.32,2.222-4.472,4.569-6.41,7.12
	c-9.76,11.63-19.648,23.17-29.59,34.649c-11.261,13.108-23.7,25.33-32.95,40.03c26.891-5.82,53.062-14.5,79.079-23.33
	c1.431,13.148,0.729,26.438,1.979,39.6c-0.771,9.421,0.011,18.91-1,28.312c0.149-9.351,0.642-18.681,0.739-28.029
	c-0.55-0.569-1.08-1.13-1.569-1.682c-1.659,2.312-4.471,3.2-6.75,4.689c-26.159,15.881-52.431,31.57-78.698,47.261
	c-5.28,3.029-10.393,6.359-15.841,9.102c19.818-2.21,39.47-5.729,59.3-7.852c13.859-1.311,27.688-3.229,41.631-3.62
	c-0.471,8.312-1.479,16.569-2.392,24.841H21.265c-1.38-5.989-2.97-11.921-4.529-17.851c-3.711-12.261-2.461-25.25-3.87-37.841
	c24.42,1.25,48.811,3.28,73.239,4.17c-25.47-18.77-50.229-38.52-76.399-56.319c-1.84-7.55,0.091-15.431-0.329-23.108
	c-0.49-7.33-0.37-14.689,0.688-21.972c0.551,0.182,1.641,0.54,2.182,0.722c17.948,8.26,35.648,17.08,53.869,24.75
	c12.761,5.68,25.329,11.76,38.189,17.22c-11.3-16.569-23.61-32.43-35.25-48.76c-14.439-20.29-29.39-40.21-43.3-60.859
	c3.08-10.971,5.729-22.07,8.85-33.03c1.38-4.47,4.11-8.341,5.681-12.729c11.091,13.5,21.829,27.271,32.54,41.07
	c10.489,13.188,20.421,26.868,31.729,39.398c-5.46-40.08-13.43-79.78-23.47-118.95c-0.471-4.27-2.71-7.93-5.62-10.979
	c2.5-2.41,4.87-4.96,7.25-7.5c3.72-4.07,8.45-6.972,12.89-10.182c19.61,23.352,40.101,45.962,59.15,69.779
	c-2.21-30.77-5.79-61.429-8.301-92.179C159.725,229.01,173.585,228.32,187.283,227.39z"/>
<path fill="#F4F4F5" d="M214.404,264.16c-1.158-11.5,0.45-23.02,0.352-34.54c10.54,2.062,21.39,2.62,31.67,5.93
	c12.279,3.462,24.74,6.271,36.99,9.842c-8.49,15.18-16.17,30.83-24.602,46.05c-9.6,18.59-19.438,37.07-29.648,55.33
	c-2.98,5.11-5.48,10.541-8.932,15.34c-0.988-8.02-1.688-16.069-2.27-24.119C216.775,313.37,215.635,288.77,214.404,264.16z"/>
<path fill="#F4F4F5" d="M129.864,236.81c5.392-1.78,11.07-2.58,16.591-3.96c2.511,30.75,6.091,61.409,8.301,92.179
	c-19.051-23.817-39.54-46.429-59.15-69.779c-0.68-1.01-2.18-1.858-1.7-3.238C105.765,246.66,117.885,241.9,129.864,236.81z"/>
<path fill="#F4F4F5" d="M305.715,249.56c9.771,1.64,19.729,1.91,29.59,2.96c7.16,0.72,14.37,0.188,21.54,0.87
	c-7.45,21.438-13.938,43.18-20.029,65.03c-5.881,21.198-12.391,42.21-18.28,63.398c-0.851-0.17-1.67-0.34-2.459-0.5
	c-1.439-37.601-3.711-75.211-8.95-112.5C306.704,262.39,306.095,255.99,305.715,249.56z"/>
<path fill="#F4F4F5" d="M466.284,265.6c5.801,2.91,11.148,6.608,16.791,9.818c4.067,2.32,7.68,5.42,10.738,8.972
	c5.399,6.22,10.682,12.54,16.199,18.66c-8.68,6.528-17.12,13.38-25.91,19.761c-25.688,18.43-51.738,36.39-78.277,53.569
	c-0.632,0.04-1.893,0.108-2.512,0.14c13.279-23.25,26.561-46.5,39.689-69.84c6.83-12.7,14.648-24.83,21.43-37.54
	C465.025,267.95,465.624,266.77,466.284,265.6z"/>
<path fill="#F4F4F5" d="M60.725,288.42c4.99-5.09,9.67-10.479,14.74-15.488c2.91,3.05,5.148,6.71,5.62,10.979
	c10.04,39.17,18.01,78.87,23.47,118.95c-11.311-12.53-21.24-26.211-31.73-39.398c-10.71-13.802-21.448-27.57-32.54-41.07
	C45.444,310.212,51.614,298.16,60.725,288.42z"/>
<path fill="#F4F4F5" d="M504.335,376.07c10.729-10.061,21.199-20.398,31.699-30.721c2.67,5.271,5.938,10.24,8.141,15.75
	c3.279,8.291,6.12,16.75,9.18,25.131c0.181,0.72,0.53,2.16,0.711,2.869c-5.841,2.41-11.521,5.17-17.36,7.58
	c-26.568,11.16-52.789,23.16-79.58,33.78c-5.64,1.979-10.988,4.85-16.89,5.96c2.739-3.422,6.38-5.94,9.449-9.04
	C467.635,409.99,486.624,393.721,504.335,376.07z"/>
<path fill="#F4F4F5" d="M19.485,394.342c1.852-8.779,3.91-17.521,6.271-26.189c13.91,20.649,28.858,40.57,43.3,60.859
	c11.64,16.33,23.95,32.188,35.25,48.761c-12.86-5.46-25.43-11.54-38.189-17.221c-18.221-7.67-35.921-16.489-53.869-24.75
	c-0.422-0.2-1.28-0.602-1.7-0.812C13.025,421.342,16.375,407.859,19.485,394.342z"/>
<path fill="#F4F4F5" d="M562.345,416.779c1.12,1.893,2.439,3.75,2.689,6.041c2.011,10.67,4.271,21.33,5.369,32.149
	c0.352,6.818,1.121,13.608,1.721,20.41c-26.021,8.83-52.189,17.51-79.079,23.33c9.25-14.7,21.688-26.922,32.95-40.03
	c9.938-11.479,19.83-23.021,29.59-34.649C557.725,421.51,560.005,419.109,562.345,416.779 M545.275,461.132
	c-0.54,1.408-0.091,1.858,1.359,1.33C547.124,461.04,546.675,460.592,545.275,461.132z"/>
<path fill="#F4F4F5" d="M9.704,480.16c26.171,17.802,50.931,37.552,76.399,56.319c-24.43-0.89-48.819-2.92-73.24-4.17
	C11.935,514.922,10.885,497.52,9.704,480.16z"/>
<path fill="#F4F4F5" d="M572.275,513.58c0.489,0.552,1.021,1.11,1.569,1.682c-0.1,9.351-0.59,18.681-0.739,28.029
	c-0.438,6.619-0.438,13.271-1.188,19.869c-13.939,0.392-27.771,2.312-41.632,3.62c-19.83,2.12-39.479,5.642-59.3,7.852
	c5.449-2.74,10.562-6.07,15.841-9.102c26.271-15.688,52.539-31.38,78.699-47.26C567.805,516.78,570.614,515.89,572.275,513.58z"/>
</svg>
