<?xml version="1.0" encoding="utf-8"?>
<!-- Generator: Adobe Illustrator 16.0.0, SVG Export Plug-In . SVG Version: 6.00 Build 0)  -->
<!DOCTYPE svg PUBLIC "-//W3C//DTD SVG 1.1//EN" "http://www.w3.org/Graphics/SVG/1.1/DTD/svg11.dtd">
<svg version="1.1" id="Layer_1" xmlns="http://www.w3.org/2000/svg" xmlns:xlink="http://www.w3.org/1999/xlink" x="0px" y="0px"
	 width="7680px" height="768px" viewBox="0 0 7680 768" enable-background="new 0 0 7680 768" xml:space="preserve">
<path fill="#F9EA32" d="M868.117,176.613c4.02,0.685,7.904,2.065,11.668,3.611c8.819,4.193,88.872,47.607,97.403,52.338
	c5.863,3.266,11.74,6.522,17.609,9.787c6.031,3.75,84.451,43.749,90.509,47.437c-4.343-0.11-13.936-3.397-18.228-4.05
	c-3.327-0.507-6.697-0.849-9.925-1.86c-9.619-1.999-88.892-38.463-97.207-43.681c-7.321-5.138-81.854-51.157-87.433-58.068
	C871.05,180.29,869.447,178.558,868.117,176.613z"/>
<path fill="#F9EA32" d="M1396.27,187.097c8.646-3.551,17.345-6.984,26.006-10.483c-3.706,5.938-20.854,19.52-25.987,24.261
	c-8.318,6.668-87.961,51.853-98.426,54.36c-4.968,1.562-65.337,29.447-70.415,30.551c-3.458,0.294-6.889,1.036-10.354,1.045
	c1.821-2.728,4.635-4.576,7.199-6.548c4.838-3.461,51.41-29.312,56.811-31.859C1287.403,245.373,1390.033,190.282,1396.27,187.097z"
	/>
<rect x="768" fill="none" width="768" height="768"/>
<path fill="#F9EA32" d="M1636.117,176.613c6.773,1.155,13.314,3.477,19.658,6.083c14.855,7.063,75.367,40.839,89.74,48.811
	c9.879,5.5,19.776,10.986,29.663,16.486c10.16,6.319,67.925,37.394,78.13,43.609c-7.316-0.186-23.478-5.722-30.705-6.823
	c-5.604-0.855-11.282-1.43-16.72-3.135c-16.202-3.364-75.399-28.488-89.409-37.279c-12.334-8.654-63.55-46.819-72.942-58.46
	C1641.059,182.806,1638.357,179.889,1636.117,176.613z"/>
<path fill="#F9EA32" d="M2146.468,194.275c14.558-5.983,29.214-11.766,43.808-17.662c-6.245,10.005-35.129,32.881-43.778,40.87
	c-14.013,11.234-77.946,47.404-95.572,51.626c-8.369,2.632-39.83,14.099-48.387,15.96c-5.825,0.495-11.604,1.746-17.442,1.761
	c3.068-4.594,7.809-7.709,12.127-11.03c8.152-5.833,16.375-11.655,25.473-15.946C2033.304,254.715,2135.961,199.64,2146.468,194.275
	z"/>
<rect x="1536" fill="none" width="768" height="768"/>
<g>
	<path fill="#F9EA32" d="M2403.247,176.613c11.987,2.042,23.567,6.152,34.791,10.763c26.293,12.501,50.993,28.02,76.431,42.127
		c17.482,9.735,35.001,19.444,52.498,29.177c17.979,11.184,36.279,21.922,54.34,32.919c-12.949-0.329-25.857-1.646-38.651-3.596
		c-9.917-1.512-19.97-2.529-29.589-5.546c-28.678-5.955-56.223-17.284-81.016-32.84c-21.828-15.318-39.059-35.961-55.684-56.564
		C2411.994,187.574,2407.212,182.41,2403.247,176.613z"/>
	<path fill="#F9EA32" d="M2878.906,207.438c26.375-10.841,52.93-21.316,79.369-31.997c-11.318,18.126-25.741,34.303-41.416,48.778
		c-25.388,20.354-53.933,38.007-85.864,45.659c-15.162,4.768-30.8,7.785-46.302,11.157c-10.556,0.898-21.024,3.162-31.603,3.19
		c5.56-8.325,14.146-13.966,21.974-19.986c14.769-10.565,29.668-21.114,46.146-28.889
		C2840.439,226.04,2859.871,217.161,2878.906,207.438z"/>
</g>
<rect x="2304" fill="none" width="768" height="768"/>
<g>
	<path fill="#F9EA32" d="M3169.574,145.156c4.148,0.316,7.73,2.553,11.564,3.966c15.396,5.479,31.233,9.761,46.303,16.176
		c12.673,5.188,25.278,10.657,37.125,17.597c16.809,9.777,33.592,19.642,49.756,30.457c22.645,18.182,44.222,37.625,66.261,56.527
		c-18.601,0.118-37.32,0.382-55.746-2.448c-12.86-3.715-26.004-6.549-38.442-11.526c-21.404-9.355-42.062-20.958-59.594-36.519
		c-6.496-6.653-13.423-12.923-19.498-19.971C3194.538,181.461,3182.165,163.216,3169.574,145.156z"/>
	<path fill="#F9EA32" d="M3670.158,172.675c18.308-5.664,37.516-6.956,56.353-9.933c5.271-0.988,10.606,0.066,15.913,0.277
		c-5.914,8.802-14.095,15.913-21.826,23.093c-12.857,11.263-26.873,21.182-41.733,29.613c-18.69,11.092-37.81,21.486-57.49,30.718
		c-11.157,4.85-22.013,11.118-34.225,12.804c-20.627,3.939-41.257,8.102-62.069,10.831c11.475-13.516,24.265-25.822,36.305-38.824
		c5.719-5.741,11.106-12.063,18.405-15.886C3608.493,198.495,3637.501,180.75,3670.158,172.675z"/>
</g>
<path fill="#CA1919" d="M3452.417,430.237c16.229-2.068,32.683-1.157,49.007-2.251c6.375-0.54,12.325,2.306,18.469,3.542
	c8.195,2.355,16.89,2.896,24.78,6.294c14.954,5.704,29.722,11.896,44.08,18.981c26.647,16.824,53.125,34.132,77.722,53.894
	c16.1,15.597,30.931,32.46,46.576,48.502c5.893,7.972,11.387,16.348,16.021,25.135c-10.974-6.64-21.433-14.08-32.313-20.838
	c-13.529-8.55-27.359-16.572-41.246-24.489c-15.201-8.444-29.6-18.312-45.104-26.188c-19.244-6.954-38.861-12.987-58.816-17.574
	c-21.301-3.886-42.969-5.781-64.63-5.626c-29.062-1.025-58.133,0.923-87.032,3.887c-18.746,2.169-36.886,7.716-55.052,12.633
	c-50.664,14.521-100.773,30.944-150.504,48.383c5.823-6.916,14.188-10.627,21.749-15.235c24.107-13.033,47.279-27.771,71.584-40.473
	c8.457-4.452,17.243-8.46,24.541-14.737c23.448-10.735,47.41-20.337,71.176-30.392
	C3405.557,443.57,3429.27,437.615,3452.417,430.237z"/>
<rect x="3072" fill="none" width="768" height="768"/>
<g>
	<path fill="#F9EA32" d="M3927.502,134.42c15.439,2.992,30.509,8.022,44.602,14.991c18.418,9.208,37.043,18.034,54.634,28.773
		c16.348,9.788,32.417,20.008,48.214,30.665c6.903,4.875,14.332,9.195,20.128,15.452c8.418,8.705,17.215,17.033,26.083,25.292
		c7.416,6.676,15.834,12.133,23.302,18.745c-33.854,0.158-68.552,4.532-101.63-4.875c-11.685-3.504-23-8.141-34.145-13.067
		c-11.476-5.599-19.812-15.584-28.51-24.595c-10.672-13.318-20.552-27.348-28.271-42.603
		C3943.139,167.26,3935.617,150.702,3927.502,134.42z"/>
	<path fill="#F9EA32" d="M4481.369,146.565c8.841-0.938,17.648-2.255,26.557-2.597c-7.469,11.236-14.305,23.053-23.631,32.896
		c-9.945,11.092-19.797,22.302-30.771,32.393c-6.149,5.335-11.632,11.499-18.531,15.887c-8.945,6.02-17.472,12.804-27.351,17.231
		c-27.584,13.871-56.289,26.715-86.981,31.655c-5.179,0.96-10.354,2.529-15.664,1.884c-9.394-0.922-18.743-2.266-28.021-3.978
		c15.239-15.795,29.101-32.854,43.51-49.4c3.925-4.416,7.181-9.603,12.238-12.872c12.187-8.444,23.133-18.614,35.701-26.518
		c10.457-4.782,20.666-10.104,31.114-14.938c17.373-6.02,35.118-10.986,52.877-15.808
		C4462.043,150.359,4471.477,147.105,4481.369,146.565z"/>
</g>
<path fill="#E4B25C" d="M4236.677,475.293c0.21,0.778,0.646,2.334,0.854,3.097C4237.322,477.623,4236.887,476.068,4236.677,475.293z
	"/>
<path fill="#E4B25C" d="M4368.752,480.35c0.041-0.081,0.119-0.249,0.145-0.327C4368.871,480.099,4368.793,480.271,4368.752,480.35z"
	/>
<path fill="#E4B25C" d="M4359.504,501.4c0.037-0.079,0.105-0.238,0.135-0.314C4359.611,501.162,4359.544,501.321,4359.504,501.4z"/>
<path fill="#CA1919" d="M4164.093,505.933c13.002-24.989,26.188-49.899,40.166-74.35c6.902-0.105,13.804,0.145,20.708-0.037
	c0.74,2.108,1.529,4.213,2.226,6.362c3.384,12.395,6.188,24.961,9.48,37.386c0.211,0.78,0.646,2.334,0.857,3.098
	c5.897,24.793,11.711,49.648,15.516,74.864c10.867-27.322,19.013-55.63,27.638-83.717c3.871-11.817,7.362-23.751,11.039-35.65
	c30.263,1.132,59.886,9.087,87.826,20.523c-1.421,3.149-2.462,6.444-3.466,9.737c-2.29,5.338-4.754,10.605-7.192,15.876
	c-0.026,0.077-0.104,0.247-0.144,0.33c-2.937,6.951-6.07,13.814-9.115,20.73c-0.025,0.079-0.092,0.239-0.134,0.313
	c-6.954,16.52-14.61,32.738-21.63,49.229c1.631,0.577,3.555,1.265,4.967-0.279c21.669-15.162,43.248-30.453,64.586-46.078
	c7.941-5.388,14.963-12.157,23.367-16.834c-0.896-1.304-1.841-2.544-2.896-3.659c0.631-0.146,1.906-0.45,2.555-0.596
	c-0.158,1.873,0.724,3.07,2.621,3.598c1.58,2.369,4.057,3.872,6.229,5.679c10.421,8.772,19.418,19.049,28.721,28.98
	c-0.693,1.398-1.396,2.794-2.117,4.161c-15.27,23.869-32.522,46.386-48.98,69.438c23.686-9.063,47.781-17.109,70.809-27.798
	c5.402-2.424,10.775-4.871,16.188-7.298c16.93,20.733,31.579,43.156,46.229,65.51c9.414,14.647,18.357,29.603,26.539,44.987
	c-27.993-5.362-55.686-12.255-83.334-19.116c-15.584-4.492-31.42-8.012-47.451-10.499c-34.002-6.231-68.356-10.448-102.803-13.173
	c-29.744-0.622-58.777-7.957-88.343-10.539c-25.409-3.19-50.955-5.258-76.405-7.996c-48.925,0.522-97.534,6.704-146.224,10.92
	c-30.086,3.729-59.817,9.691-89.562,15.426c-12.688,2.74-25.357,5.493-37.86,8.933c-11.092,2.661-21.981,6.48-33.395,7.481
	c14.596-28.151,30.338-55.694,45.75-83.411c8.246-11.937,19.102-21.75,29.19-32.088c21.803,20.208,43.562,40.481,64.863,61.24
	c-6.93-34.828-14.688-69.488-21.762-104.279c8.352-6.504,16.556-13.305,25.793-18.546c0.591,0.014,1.765,0.036,2.355,0.052
	c18.217,17.099,36.622,34.014,54.825,51.139c-4.294-23.304-8.471-46.621-13.039-69.87c23.765-5.533,47.41-11.712,71.544-15.562
	c0.04,3.003,0.525,5.98,1.146,8.919c4.662,32.524,7.549,65.249,10.883,97.917C4150.393,533.807,4156.806,519.646,4164.093,505.933z"
	/>
<path fill="#F4F4F4" d="M4131.107,440.713c24.123-4.902,48.582-7.956,73.149-9.131c-13.978,24.451-27.164,49.362-40.166,74.351
	c-7.285,13.714-13.7,27.874-21.221,41.454c-3.332-32.668-6.22-65.391-10.884-97.915
	C4131.648,446.547,4131.371,443.622,4131.107,440.713z"/>
<path fill="#F4F4F4" d="M4225.928,431.66c21.932,0.09,43.92,0.541,65.801,2.225c-3.676,11.896-7.166,23.833-11.041,35.648
	c-8.629,28.083-16.77,56.396-27.637,83.717c-3.807-25.214-9.615-50.072-15.516-74.863c-0.211-0.764-0.646-2.316-0.857-3.097
	c-3.293-12.424-6.099-24.991-9.48-37.386C4226.745,435.826,4226.323,433.742,4225.928,431.66z"/>
<path fill="#F4F4F4" d="M4376.088,464.148c1.477-3.27,2.951-6.534,4.545-9.749c11.607,6.401,22.738,13.606,34.211,20.263
	c4.455,2.873,8.932,5.771,13.055,9.116c1.057,1.123,2.003,2.356,2.898,3.66c-8.407,4.679-15.426,11.446-23.369,16.837
	c-21.34,15.619-42.918,30.916-64.588,46.078c-1.408,1.541-3.332,0.854-4.967,0.275c7.021-16.494,14.676-32.709,21.63-49.229
	c0.038-0.081,0.104-0.237,0.132-0.313c3.047-6.916,6.178-13.779,9.117-20.731c0.039-0.083,0.119-0.25,0.144-0.33
	C4371.334,474.751,4373.798,469.482,4376.088,464.148z"/>
<path fill="#F4F4F4" d="M4016.54,474c13.792-6.929,27.807-13.925,42.76-17.89c4.571,23.252,8.747,46.567,13.04,69.87
	c-18.204-17.125-36.605-34.041-54.826-51.138L4016.54,474z"/>
<path fill="#F4F4F4" d="M3946.261,536.377c13.688-15.008,28.188-29.243,43.104-43.039c7.072,34.791,14.833,69.451,21.762,104.279
	C3989.824,576.856,3968.062,556.582,3946.261,536.377z"/>
<path fill="#F4F4F4" d="M4465.905,525.6c1.175-1.843,2.356-3.623,3.636-5.428c12.477,12.701,25.492,24.939,36.857,38.666
	l-2.479,1.105c-5.412,2.427-10.786,4.875-16.188,7.299c-23.025,10.684-47.123,18.732-70.808,27.797
	C4433.381,571.982,4450.638,549.469,4465.905,525.6z"/>
<rect x="3840" fill="none" width="768" height="768"/>
<path fill="#F9EA32" d="M4689.059,136.528c30.062-3.491,60.22,2.252,89.056,10.499c24.604,6.679,47.056,19.233,69.132,31.668
	c11.777,6.123,21.041,15.874,30.709,24.766c13.41,12.33,23.023,27.967,33.023,43.023c-11.17,5.517-23.017,9.985-35.344,12.028
	c-16.85,3.253-34.131,5.164-51.271,3.424c-12.252-0.79-24.736-2.118-36.121-6.969c-10.104-3.688-19.127-9.629-28.15-15.333
	c-10.904-6.324-18.785-16.427-27.52-25.277c-5.899-5.52-9.354-12.913-13.584-19.658
	C4707.713,176.021,4697.65,156.577,4689.059,136.528z"/>
<path fill="#F9EA32" d="M5239.241,144.115c15.231-1.502,30.538-1.027,45.817-1.33c-0.291,3.293-0.248,6.623-0.908,9.88
	c-8.59,17.481-16.561,35.433-27.65,51.546c-13.938,18.285-31.562,34.422-52.941,43.433c-10.379,4.162-20.629,9.194-31.826,10.578
	c-7.812,0.988-15.41,3.886-23.365,3.017c-18.84-1.212-37.73-1.08-56.607-1.252c-9.604-0.382-19.416,0.906-28.823-1.37
	c14.333-21.709,32.565-40.468,51.296-58.383c8.549-7.364,16.65-15.65,27.123-20.284c21.725-12.606,44.305-24.439,68.805-30.591
	C5219.641,146.592,5229.27,143.97,5239.241,144.115z"/>
<path fill="#E4B25C" d="M5326.305,607.46c1.842-0.711,2.438-0.121,1.789,1.752C5326.186,609.908,5325.593,609.315,5326.305,607.46z"
	/>
<path fill="#CA1919" d="M4854.713,299.546c11.775-0.988,23.488,1.173,35.096,3.001c0.922,15.149-1.355,30.353,0.631,45.437
	c1.621,32.419,3.121,64.824,4.691,97.258c0.766,10.604,1.688,21.211,2.992,31.771c4.543-6.319,7.836-13.476,11.766-20.207
	c13.449-24.056,26.412-48.397,39.059-72.889c11.105-20.05,21.223-40.666,32.408-60.663c9.416,3.201,19.338,4.424,28.965,6.835
	c0.87,8.919,1.729,17.85,1.924,26.82c0.081-0.698,0.248-2.097,0.342-2.793c6.902,49.124,9.896,98.668,11.792,148.197
	c1.04,0.212,2.118,0.437,3.237,0.658c7.764-27.911,16.332-55.59,24.082-83.516c8.021-28.786,16.568-57.424,26.383-85.666
	c8.09-0.105,16.125-1.609,24.252-1.174c23.328-0.343,46.672,0.063,69.869,2.768c9.275,0.525,17.994,3.86,26.926,6.113
	c7.771,1.923,14.688,6.152,21.709,9.867c-0.25,0.791-0.766,2.384-1.027,3.174c-8.932,16.743-19.232,32.722-28.229,49.453
	c-17.299,30.747-34.791,61.375-52.281,92.003c0.814-0.039,2.477-0.133,3.307-0.188c34.961-22.637,69.279-46.294,103.119-70.565
	c11.578-8.406,22.695-17.431,34.131-26.032c13.66,17.087,23.74,36.644,34.277,55.723c-13.832,13.597-27.623,27.218-41.756,40.473
	c-23.332,23.248-48.348,44.684-71.992,67.594c-4.043,4.083-8.84,7.398-12.447,11.908c7.771-1.463,14.82-5.24,22.25-7.853
	c35.293-13.988,69.834-29.799,104.832-44.5c7.695-3.175,15.176-6.811,22.869-9.983c-0.237-0.936-0.696-2.83-0.936-3.779
	c1.33,3.779,2.598,7.603,4.055,11.354c3.873,9.275,5.062,19.34,7.328,29.062c-3.057,2.927-5.891,6.02-8.441,9.38
	c-12.855,15.32-25.883,30.522-38.979,45.643c-14.834,17.271-31.223,33.368-43.406,52.733c35.424-7.667,69.9-19.102,104.174-30.731
	c1.885,17.318,0.961,34.826,2.607,52.167c-1.019,12.408,0.014,24.907-1.318,37.295c0.195-12.317,0.846-24.608,0.973-36.926
	c-0.724-0.747-1.422-1.486-2.063-2.215c-2.187,3.045-5.892,4.216-8.894,6.177c-34.461,20.923-69.068,41.59-103.672,62.261
	c-6.955,3.987-13.689,8.376-20.867,11.987c26.105-2.909,51.994-7.546,78.117-10.343c18.256-1.728,36.476-4.254,54.842-4.769
	c-0.621,10.947-1.949,21.827-3.148,32.723h-722.236c-1.818-7.89-3.914-15.703-5.967-23.515c-4.889-16.152-3.242-33.264-5.098-49.852
	c32.168,1.646,64.299,4.321,96.479,5.494c-33.554-24.727-66.169-50.744-100.643-74.189c-2.426-9.945,0.12-20.326-0.436-30.44
	c-0.646-9.656-0.486-19.35,0.905-28.943c0.728,0.238,2.162,0.713,2.875,0.95c23.646,10.881,46.959,22.5,70.963,32.604
	c16.812,7.481,33.367,15.491,50.307,22.686c-14.885-21.827-31.101-42.722-46.436-64.232c-19.021-26.729-38.716-52.971-57.039-80.17
	c4.057-14.452,7.547-29.074,11.657-43.514c1.815-5.888,5.414-10.985,7.483-16.769c14.608,17.784,28.756,35.925,42.865,54.103
	c13.814,17.372,26.898,35.396,41.797,51.9c-7.19-52.798-17.69-105.096-30.918-156.696c-0.621-5.625-3.569-10.446-7.402-14.463
	c3.293-3.175,6.415-6.534,9.552-9.88c4.899-5.362,11.132-9.187,16.979-13.413c25.832,30.762,52.825,60.546,77.919,91.922
	c-2.911-40.535-7.628-80.922-10.936-121.43C4818.409,301.68,4836.668,300.771,4854.713,299.546z"/>
<path fill="#F4F4F4" d="M4890.439,347.984c-1.525-15.149,0.592-30.325,0.463-45.5c13.885,2.716,28.18,3.449,41.721,7.811
	c16.176,4.562,32.59,8.261,48.729,12.965c-11.186,19.998-21.301,40.613-32.408,60.663c-12.646,24.49-25.605,48.833-39.058,72.887
	c-3.927,6.731-7.22,13.888-11.767,20.207c-1.301-10.562-2.226-21.167-2.99-31.771
	C4893.562,412.81,4892.061,380.404,4890.439,347.984z"/>
<path fill="#F4F4F4" d="M4779.072,311.956c7.104-2.345,14.583-3.399,21.854-5.216c3.31,40.507,8.023,80.895,10.937,121.43
	c-25.096-31.375-52.087-61.162-77.92-91.922c-0.896-1.33-2.871-2.448-2.238-4.266
	C4747.328,324.932,4763.293,318.661,4779.072,311.956z"/>
<path fill="#F4F4F4" d="M5010.727,328.751c12.871,2.161,25.988,2.516,38.979,3.899c9.433,0.947,18.931,0.248,28.375,1.146
	c-9.813,28.241-18.358,56.883-26.384,85.665c-7.749,27.925-16.323,55.604-24.081,83.517c-1.121-0.224-2.199-0.445-3.237-0.656
	c-1.896-49.534-4.891-99.077-11.791-148.2C5012.029,345.653,5011.227,337.222,5010.727,328.751z"/>
<path fill="#F4F4F4" d="M5222.247,349.881c7.642,3.833,14.685,8.705,22.12,12.936c5.355,3.056,10.115,7.14,14.145,11.817
	c7.112,8.193,14.072,16.521,21.34,24.581c-11.436,8.602-22.554,17.626-34.133,26.031c-33.838,24.279-68.152,47.938-103.115,70.568
	c-0.832,0.053-2.494,0.143-3.309,0.184c17.491-30.628,34.988-61.255,52.282-92.002c8.997-16.729,19.297-32.708,28.229-49.451
	C5220.589,352.977,5221.377,351.423,5222.247,349.881z"/>
<path fill="#F4F4F4" d="M4687.994,379.942c6.574-6.705,12.738-13.806,19.418-20.402c3.833,4.018,6.781,8.839,7.402,14.463
	c13.227,51.6,23.727,103.897,30.918,156.696c-14.9-16.507-27.98-34.528-41.801-51.9c-14.105-18.182-28.254-36.317-42.863-54.104
	C4667.863,408.649,4675.991,392.773,4687.994,379.942z"/>
<path fill="#F4F4F4" d="M5272.373,495.406c14.134-13.254,27.926-26.871,41.758-40.469c3.518,6.94,7.82,13.486,10.725,20.746
	c4.318,10.924,8.062,22.064,12.095,33.105c0.237,0.948,0.696,2.846,0.938,3.779c-7.695,3.174-15.18,6.811-22.869,9.983
	c-35,14.7-69.541,30.509-104.832,44.498c-7.432,2.606-14.478,6.391-22.25,7.854c3.605-4.508,8.402-7.825,12.445-11.909
	C5224.025,540.09,5249.041,518.658,5272.373,495.406z"/>
<path fill="#F4F4F4" d="M4633.667,519.476c2.44-11.562,5.151-23.081,8.262-34.5c18.324,27.202,38.015,53.444,57.041,80.174
	c15.332,21.512,31.55,42.4,46.438,64.233c-16.943-7.191-33.501-15.202-50.311-22.687c-24.002-10.104-47.32-21.724-70.963-32.604
	c-0.557-0.264-1.688-0.792-2.24-1.066C4625.158,555.044,4629.571,537.283,4633.667,519.476z"/>
<path fill="#F4F4F4" d="M5348.79,549.033c1.476,2.493,3.214,4.938,3.543,7.958c2.649,14.056,5.626,28.099,7.073,42.351
	c0.463,8.981,1.477,17.926,2.268,26.889c-34.277,11.632-68.752,23.063-104.174,30.73c12.188-19.364,28.57-35.465,43.406-52.73
	c13.091-15.121,26.123-30.325,38.979-45.646C5342.704,555.265,5345.708,552.104,5348.79,549.033 M5326.305,607.46
	c-0.711,1.855-0.121,2.448,1.789,1.752C5328.74,607.339,5328.148,606.749,5326.305,607.46z"/>
<path fill="#F4F4F4" d="M4620.783,632.526c34.476,23.449,67.092,49.468,100.643,74.188c-32.183-1.172-64.311-3.847-96.479-5.493
	C4623.723,678.319,4622.339,655.395,4620.783,632.526z"/>
<path fill="#F4F4F4" d="M5361.872,676.552c0.644,0.729,1.345,1.462,2.065,2.215c-0.131,12.319-0.776,24.61-0.975,36.926
	c-0.576,8.72-0.576,17.48-1.562,26.174c-18.363,0.517-36.584,3.045-54.846,4.77c-26.122,2.792-52.007,7.434-78.116,10.345
	c7.177-3.61,13.913-7.995,20.867-11.99c34.604-20.666,69.211-41.337,103.673-62.258
	C5355.982,680.768,5359.684,679.594,5361.872,676.552z"/>
<rect x="4608" fill="none" width="768" height="768"/>
<g>
	<path fill="#F9EA32" d="M5473.574,145.156c4.15,0.316,7.732,2.553,11.566,3.966c15.396,5.479,31.232,9.761,46.301,16.176
		c12.674,5.188,25.277,10.657,37.125,17.597c16.809,9.777,33.592,19.642,49.756,30.457c22.646,18.182,44.222,37.625,66.262,56.527
		c-18.602,0.118-37.32,0.382-55.748-2.448c-12.859-3.715-26.004-6.549-38.441-11.526c-21.404-9.355-42.062-20.958-59.594-36.519
		c-6.496-6.653-13.422-12.923-19.498-19.971C5498.537,181.461,5486.166,163.216,5473.574,145.156z"/>
	<path fill="#F9EA32" d="M5974.158,172.675c18.307-5.664,37.516-6.956,56.352-9.933c5.271-0.988,10.607,0.066,15.914,0.277
		c-5.912,8.802-14.096,15.913-21.824,23.093c-12.859,11.263-26.875,21.182-41.735,29.613c-18.688,11.092-37.81,21.486-57.49,30.718
		c-11.157,4.85-22.015,11.118-34.226,12.804c-20.625,3.939-41.254,8.102-62.066,10.831c11.475-13.516,24.268-25.822,36.307-38.824
		c5.719-5.741,11.105-12.063,18.403-15.886C5912.493,198.495,5941.502,180.75,5974.158,172.675z"/>
</g>
<path fill="#CA1919" d="M5735.74,428.426c10.75-2.621,21.88-1.514,32.814-1.314c10.711,0.234,21.012,3.45,31.115,6.676
	c8.943,3.31,17.996,6.669,26.123,11.726c13.99,10.577,27.689,21.591,40.852,33.185c5.084,6.27,10.787,11.984,16.518,17.662
	c1.752,1.346,1.832,3.521,2.004,5.52c-21.312,3.715-42.682,7.037-64.035,10.448c-17.428,2.372-34.844,5.769-52.496,5.413
	c-11.445-0.118-22.895,0.173-34.342,0.186c-34.053-2.726-67.539-10.395-100.037-20.72c-2.162-0.146-0.775-2.635,0.158-3.386
	c10.475-11.395,22.156-21.563,33.406-32.156c12.355-11.511,27.928-18.389,42.668-26.16
	C5718.34,431.444,5727.232,430.337,5735.74,428.426z"/>
<rect x="5376" fill="none" width="768" height="768"/>
<g>
	<path fill="#F9EA32" d="M6231.502,134.42c15.439,2.992,30.51,8.022,44.604,14.991c18.414,9.208,37.043,18.034,54.631,28.773
		c16.35,9.788,32.416,20.008,48.213,30.665c6.903,4.875,14.334,9.195,20.129,15.452c8.418,8.705,17.217,17.033,26.084,25.292
		c7.418,6.676,15.834,12.133,23.304,18.745c-33.854,0.158-68.552,4.532-101.63-4.875c-11.688-3.504-23.001-8.141-34.146-13.067
		c-11.475-5.599-19.812-15.584-28.508-24.595c-10.672-13.318-20.553-27.348-28.271-42.603
		C6247.139,167.26,6239.617,150.702,6231.502,134.42z"/>
	<path fill="#F9EA32" d="M6785.369,146.565c8.842-0.938,17.65-2.255,26.557-2.597c-7.469,11.236-14.304,23.053-23.631,32.896
		c-9.943,11.092-19.795,22.302-30.77,32.393c-6.15,5.335-11.632,11.499-18.532,15.887c-8.946,6.02-17.47,12.804-27.351,17.231
		c-27.582,13.871-56.287,26.715-86.981,31.655c-5.179,0.96-10.353,2.529-15.663,1.884c-9.393-0.922-18.745-2.266-28.021-3.978
		c15.238-15.795,29.102-32.854,43.508-49.4c3.924-4.416,7.182-9.603,12.24-12.872c12.188-8.444,23.133-18.614,35.701-26.518
		c10.457-4.782,20.666-10.104,31.115-14.938c17.373-6.02,35.119-10.986,52.881-15.808
		C6766.043,150.359,6775.477,147.105,6785.369,146.565z"/>
</g>
<g>
	<path fill="#CA1919" d="M6520.898,362.218c6.377-3.767,14.016-2.978,21.104-4.608c12.096-0.228,22.738,6.218,33.016,11.773
		c2.554,2.398,6.64,3.992,8.48,6.706c-5.771,15.269-10.023,31.049-15.357,46.464c-5.639,18.164-12.066,36.079-17.522,54.298
		c6.681-4.294,12.371-9.88,18.417-14.987c13.896-11.726,27.307-24.017,41.257-35.676c2.491-1.976,5.073-3.949,8.129-4.968
		c14.463,29.282,27.858,59.424,35.252,91.358c-13.778,8.01-27.14,16.821-41.707,23.344c-14.817,6.692-29.14,14.676-44.854,19.152
		c-13.097,5.059-27.071,7.089-40.92,8.893c-11.054,0.831-22.432,1.055-33.129-2.306c-17.865-4.572-33.17-15.28-48.897-24.422
		c-14.028-8.735-28.454-16.891-41.838-26.624c8.942-22.055,18.981-43.668,29.61-64.958c10.209-16.796,22.095-32.485,33.301-48.608
		c2.254-3.556,5.955-5.689,9.524-7.694c8.271,18.879,17.269,37.427,25.778,56.197c0.592,1.842,2.396,2.557,4.002,3.32
		c4.586-19.551,7.854-39.36,11.674-59.069c1.383-8.785,3.623-17.479,3.869-26.412c0.158-0.632,0.017-0.477,0.188-1.108
		L6520.898,362.218z"/>
	<path fill="#FFFFFF" d="M6520.146,362.389l-0.054,1.002c-0.248,8.933-2.487,17.625-3.87,26.412
		c-3.818,19.709-7.086,39.521-11.672,59.069c-1.605-0.765-3.411-1.475-4.004-3.32c-8.51-18.771-17.508-37.318-25.777-56.195
		c-0.209-0.556-0.646-1.635-0.867-2.188C6488.781,377.947,6503.945,369.121,6520.146,362.389z"/>
	<path fill="#FFFFFF" d="M6568.139,422.553c5.336-15.415,9.588-31.195,15.357-46.464l0.146-0.421
		c7.521,7.442,16.558,13.412,22.395,22.448c5.85,5.771,7.984,13.922,12.882,20.365c-2.752,2.698-5.681,5.217-8.627,7.707
		c-13.953,11.657-27.362,23.948-41.258,35.674c-6.049,5.107-11.737,10.693-18.418,14.987
		C6556.072,458.632,6562.5,440.717,6568.139,422.553z"/>
</g>
<rect x="6144" fill="none" width="768" height="768"/>
<path fill="#F9EA32" d="M6993.059,136.528c30.062-3.491,60.22,2.252,89.056,10.499c24.606,6.679,47.058,19.233,69.131,31.668
	c11.778,6.123,21.042,15.874,30.711,24.766c13.409,12.33,23.022,27.967,33.022,43.023c-11.17,5.517-23.017,9.985-35.342,12.028
	c-16.852,3.253-34.133,5.164-51.271,3.424c-12.254-0.79-24.737-2.118-36.122-6.969c-10.104-3.688-19.127-9.629-28.15-15.333
	c-10.904-6.324-18.785-16.427-27.52-25.277c-5.9-5.52-9.354-12.913-13.584-19.658
	C7011.713,176.021,7001.65,156.577,6993.059,136.528z"/>
<path fill="#F9EA32" d="M7543.241,144.115c15.231-1.502,30.539-1.027,45.817-1.33c-0.291,3.293-0.248,6.623-0.906,9.88
	c-8.591,17.481-16.559,35.433-27.65,51.546c-13.938,18.285-31.562,34.422-52.939,43.433c-10.381,4.162-20.628,9.194-31.825,10.578
	c-7.812,0.988-15.411,3.886-23.366,3.017c-18.839-1.212-37.73-1.08-56.609-1.252c-9.603-0.382-19.414,0.906-28.821-1.37
	c14.332-21.709,32.567-40.468,51.296-58.383c8.548-7.364,16.65-15.65,27.123-20.284c21.723-12.606,44.303-24.439,68.803-30.591
	C7523.641,146.592,7533.27,143.97,7543.241,144.115z"/>
<g>
	<path fill="#CA1919" d="M7264.068,346.779c11.287-7.353,24.818-10.896,38.229-10.75c6.229,0.844,12.275,2.792,18.479,3.925
		c10.633,2.015,19.644,9.089,26.649,16.875c-5.282,22.814-10.644,45.604-15.663,68.476c-2.357,8.758-5.072,17.428-7.009,26.292
		c-2.924,13.241-7.258,26.123-9.735,39.471c-2.766,13.346-6.834,26.396-9.34,39.811c27.561-30.747,55.264-61.39,83.295-91.713
		c4.715-5.323,9.746-10.396,13.869-16.204c10.436,19.379,20.895,38.915,29.972,59.042c4.123,8.233,7.574,16.783,11.804,24.978
		c1.133,2.017,1.451,4.529-0.104,6.451c-7.731,11.16-15.742,22.119-23.541,33.228c-8.046,11.105-15.621,22.694-25.606,32.191
		c-15.834,16.852-33.104,32.827-53.574,43.896c-20.42,9.617-43.629,11.553-65.881,9.772c-13.676-1.777-26.817-6.219-39.812-10.683
		c-4.926-1.564-8.401-5.585-12.306-8.748c-5.78-4.729-11.129-9.945-16.783-14.818c-10.297-8.694-18.307-19.653-26.688-30.112
		c-13.357-18.893-23.79-39.707-32.695-60.993c-0.435-1.487-1.66-3.107-1.022-4.677c8.894-19.854,17.415-39.89,26.987-59.412
		c7.942-12.5,13.228-26.558,21.842-38.637l0.674,0.408c1.267,0.749,2.606,1.461,3.648,2.542
		c10.736,21.476,21.223,43.092,32.143,64.471c6.797,15.518,15.506,30.102,23.854,44.814c0.976-9.88-0.604-19.76-0.394-29.64
		c-1.002-44.34-3.438-88.671-2.965-133.037c-0.304-0.027-0.908-0.08-1.211-0.105c0.209-0.367,0.645-1.093,0.854-1.462
		C7256.863,352.944,7260.131,348.808,7264.068,346.779z"/>
	<path fill="#FFFFFF" d="M7202.339,397.719c15.215-15.726,30.562-31.668,48.847-43.828c0.16,0.016,0.801-1.581,1.248-1.54
		c-0.474,44.369,1.929,90.344,2.93,134.685c-0.211,9.88,1.368,19.76,0.396,29.64c-8.354-14.717-17.059-29.297-23.854-44.815
		c-10.921-21.379-21.405-42.998-32.144-64.471c-1.039-1.078-3.01-2.125-4.273-2.877
		C7196.535,401.364,7200.244,400.078,7202.339,397.719z"/>
	<path fill="#FFFFFF" d="M7331.766,425.303c5.021-22.868,10.381-45.658,15.664-68.474c8.92,7.996,17.771,16.137,25.293,25.503
		c11.17,12.608,20.392,26.782,30.324,40.351l-0.195,0.275c-4.123,5.808-9.154,10.88-13.87,16.204
		c-28.032,30.325-55.735,60.966-83.294,91.712c2.504-13.413,6.574-26.465,9.341-39.811c2.478-13.348,6.812-26.229,9.735-39.471
		C7326.693,442.731,7329.408,434.064,7331.766,425.303z"/>
</g>
<rect x="6912" fill="none" width="768" height="768"/>
<rect fill="none" width="768" height="768"/>
</svg>
