<?xml version="1.0" encoding="utf-8"?>
<!-- Generator: Adobe Illustrator 16.0.0, SVG Export Plug-In . SVG Version: 6.00 Build 0)  -->
<!DOCTYPE svg PUBLIC "-//W3C//DTD SVG 1.1//EN" "http://www.w3.org/Graphics/SVG/1.1/DTD/svg11.dtd">
<svg version="1.1" id="Layer_1" xmlns="http://www.w3.org/2000/svg" xmlns:xlink="http://www.w3.org/1999/xlink" x="0px" y="0px"
	 width="588px" height="588px" viewBox="-2.5 0 588 588" enable-background="new -2.5 0 588 588" xml:space="preserve">
<g>
	<path fill="#FCEE22" d="M74.07,110.19c3.15,0.24,5.87,1.938,8.78,3.01c11.688,4.16,23.71,7.41,35.148,12.28
		c9.62,3.938,19.19,8.09,28.182,13.358c12.76,7.422,25.5,14.91,37.77,23.12c17.19,13.802,33.57,28.562,50.3,42.91
		c-14.12,0.09-28.33,0.29-42.318-1.858c-9.762-2.82-19.74-4.972-29.182-8.75c-16.25-7.102-31.93-15.91-45.239-27.722
		c-4.931-5.05-10.188-9.81-14.801-15.16C93.02,137.75,83.628,123.9,74.07,110.19z"/>
	<path fill="#FCEE22" d="M454.07,131.08c13.897-4.3,28.479-5.28,42.778-7.54c4-0.75,8.052,0.05,12.08,0.21
		c-4.489,6.682-10.7,12.08-16.568,17.53c-9.762,8.55-20.4,16.08-31.682,22.479c-14.188,8.42-28.7,16.31-43.642,23.318
		c-8.47,3.682-16.71,8.44-25.979,9.72c-15.658,2.99-31.318,6.15-47.118,8.222c8.71-10.26,18.42-19.602,27.56-29.472
		c4.341-4.358,8.432-9.158,13.972-12.06C407.26,150.68,429.28,137.21,454.07,131.08z"/>
</g>
<path fill="#CA1516" d="M288.78,326.6c12.319-1.569,24.81-0.879,37.2-1.709c4.841-0.41,9.357,1.75,14.021,2.688
	c6.222,1.79,12.82,2.198,18.812,4.778c11.352,4.33,22.562,9.031,33.462,14.41c20.229,12.771,40.329,25.91,59,40.91
	c12.22,11.84,23.479,24.641,35.356,36.818c4.472,6.052,8.644,12.41,12.16,19.08c-8.33-5.04-16.27-10.688-24.529-15.818
	c-10.271-6.49-20.771-12.58-31.311-18.59c-11.54-6.41-22.471-13.9-34.24-19.882c-14.607-5.278-29.5-9.858-44.648-13.341
	c-16.17-2.949-32.618-4.39-49.062-4.271c-22.062-0.778-44.13,0.7-66.068,2.95c-14.23,1.646-28,5.857-41.79,9.59
	c-38.46,11.021-76.5,23.49-114.25,36.729c4.42-5.25,10.77-8.067,16.51-11.567c18.3-9.894,35.89-21.08,54.34-30.722
	c6.42-3.381,13.09-6.422,18.63-11.188c17.8-8.149,35.99-15.438,54.03-23.069C253.208,336.721,271.208,332.2,288.78,326.6z"/>
<rect x="-2.5" fill="none" width="588" height="588"/>
</svg>
