<?xml version="1.0" encoding="utf-8"?>
<!-- Generator: Adobe Illustrator 15.0.2, SVG Export Plug-In . SVG Version: 6.00 Build 0)  -->
<!DOCTYPE svg PUBLIC "-//W3C//DTD SVG 1.1//EN" "http://www.w3.org/Graphics/SVG/1.1/DTD/svg11.dtd">
<svg version="1.1" id="Layer_1" xmlns="http://www.w3.org/2000/svg" xmlns:xlink="http://www.w3.org/1999/xlink" x="0px" y="0px"
	 width="886px" height="886px" viewBox="0 0 886 886" enable-background="new 0 0 886 886" xml:space="preserve">
<path fill="#009144" d="M240.4,190.47c4.9-1.392,9.771,0.408,14.61,1.108c5.71,1.09,11.8,1.38,16.87,4.54
	c5.03,3.16,8.858,7.8,12.89,12.09c2.79,3.24,6.12,6.352,7.34,10.59c2.472,8.49,2.5,17.45,1.972,26.2
	c-1.67,12.8-7.7,24.61-15.29,34.892c-2.21,2.75-5.09,4.85-7.74,7.148c-4.08,3.32-7.93,7.07-12.8,9.23c-4.07,2.07-8.7,2.4-13.12,3.21
	c-3.01,0.45-6.03,1.17-9.09,0.83c-10.94-1.55-22.36-4.051-31.04-11.352c-6.76-5.96-12.26-13.239-17.021-20.85
	c-1.85-2.7-2.479-5.94-2.97-9.11c-1.15-7.279-3.06-14.58-2.47-22.01c2.01-13.43,9.88-25.63,20.568-33.86
	C214.11,195.53,227.51,192.94,240.4,190.47z"/>
<path fill="#009144" d="M608.4,197.69c11.46-3.23,23.04,1.33,33.67,5.35c5.392,2.3,11.25,4.2,15.44,8.5
	c4,4.021,8.92,7.29,11.66,12.392c2.96,5.38,6.51,10.488,8.738,16.238c0.42,5.972,1.87,12.262-0.47,18.021
	c-4.13,11.88-8.01,24.88-18.22,33.08c-6.58,4.93-14.142,8.51-21.97,10.96c-3.222,1.44-6.58,2.83-10.182,2.14
	c-11.14-1.27-23.188-2.09-32.489-9.02c-5.859-4.09-12.079-7.74-17.351-12.59c-8.75-9.182-12.28-22.352-11.21-34.802
	c1.13-7.198,2.04-14.698,5.99-21c3.6-7.54,8.97-14.22,15.66-19.229C594.288,203.83,601.4,200.83,608.4,197.69z"/>
</svg>
