<?xml version="1.0" encoding="utf-8"?>
<!-- Generator: Adobe Illustrator 15.0.2, SVG Export Plug-In . SVG Version: 6.00 Build 0)  -->
<!DOCTYPE svg PUBLIC "-//W3C//DTD SVG 1.1 Basic//EN" "http://www.w3.org/Graphics/SVG/1.1/DTD/svg11-basic.dtd">
<svg version="1.1" baseProfile="basic" id="Livello_1"
	 xmlns="http://www.w3.org/2000/svg" xmlns:xlink="http://www.w3.org/1999/xlink" x="0px" y="0px" width="886px" height="886px"
	 viewBox="0 0 886 886" xml:space="preserve">
<g id="_x23_ce041aff">
	<path fill="#CE041A" d="M280.7,113.764c2.87,0.54,5.74,1.479,7.81,3.67c6.88,6.761,14.521,12.729,20.92,19.979
		c16.5,18.811,33.94,36.75,50.45,55.55c2.45,2.688,4.9,6.381,8.99,6.301c8.688,0.46,17.396,0.312,26.1,0.67
		c16,0.7,32.021,0.109,48.014,0.979c24.67,0.147,49.35,0.04,74.02,0.061c4.61,0.312,8.25-2.771,11.57-5.521
		c18.77-15.58,37.63-31.062,56.3-46.771c11.8-8.93,23.87-17.521,36.18-25.75c0.62,7.99,1.82,15.92,2.604,23.9
		c1.6,13.97,0.81,28.05,1.604,42.06c0.92,16.021-0.55,32.021-1.188,48.021c-1.12,21.66-3.28,43.271-3.65,64.971
		c-0.93,15.67-1.67,31.38-3.42,46.989c-1.31,11.938-1.89,24.107-5.58,35.62c-2.27,7.29-4.528,14.658-8.42,21.277
		c-12.91,22.521-30.59,41.843-48.93,60.029c9.37,10.58,19.14,20.869,27.42,32.359c8.569,13.188,16.91,26.54,25.42,39.775
		c12.06,20.91,22.938,42.57,31.52,65.16c1.9,5.562,3.28,11.29,4.69,17c6.29,24.7,11.5,49.67,16.38,74.689
		c4.92,38.801,8.393,77.931,7.3,117.066c-0.39,13.354-0.12,26.711-0.525,40.062c-0.212,24.318,0.315,48.647,0.841,72.961
		c-0.61,13.959-0.28,27.949-1.28,41.898c-0.88,37.051-3.34,74.067-5.25,111.078c0,6.353-0.438,12.698-1.2,19.021H212.63
		c-0.31-35.352-1.23-70.688-1.89-106.03c0.55-24.986,1.16-49.986,1.72-74.979c-0.16-17.67,1.61-35.28,2.38-52.92
		c1.15-16.66,1.53-33.36,2.43-50.04c0.02-13.49,1.96-26.859,3.05-40.29c1.33-18.95,3.47-37.841,5.77-56.7
		c0.78-7.17,2.96-14.068,4.35-21.13c1.21-5.79,1.92-11.67,3.42-17.399c5.67-21.34,11.64-42.605,18.27-63.681
		c3.48-11.239,6.65-22.63,11.56-33.34c6.96-16.46,14.95-32.474,23.73-48.021c8.55-16.198,18.16-31.8,27.72-47.408
		c5.021-8.392,11.644-15.711,16.23-24.368c-5.08-4.25-9.67-9.029-14.17-13.869c-9.48-10.12-18.34-21.16-23.7-34.062
		c-9.03-21.13-11.37-44.229-14.38-66.778c-2.93-22.221-3.65-44.619-4.76-66.972c-0.91-13.659-0.38-27.351-0.54-41.021
		c0.23-16.312-0.54-32.66,0.93-48.931C276.05,163.834,278.55,138.814,280.7,113.764"/>
</g>
<g id="_x23_010101ff">
	<path fill="#010101" d="M431,359.784c6.88-2.03,14.15-1.381,21.19-0.689c9.024,0.649,17.864,2.819,26.59,5.17
		c10.31,3.609,20.18,8.353,30.479,12.01c-3.18,4.683-7.81,8.013-11.438,12.303c-3.66,4.25-8.806,6.71-13.271,9.96
		c-5.75,3.88-11.09,8.479-17.396,11.46c-7.32,2.96-15.23,4.96-23.186,4.26c-11.06-0.739-21.064-6.18-30.35-11.83
		c-9.66-7.17-19.18-14.55-28.26-22.439c0-0.777,0.01-2.34,0.01-3.117c3.78-2.24,7.62-4.44,11.79-5.883
		C408.39,367.094,419.61,363.173,431,359.784z"/>
</g>
<path fill="#FDC401" d="M514.43,241.664c8.41-1.939,16.842,1.188,23.521,6.221c6.33,3.819,8.96,11.14,11,17.85
	c2.03,5.78,0.89,12.093-0.59,17.86c-3.266,7.399-8.99,13.85-16.32,17.42c-6.91,3.71-15.37,3.8-22.62,1.08
	c-4.68-1.841-8.2-5.591-11.5-9.221c-4.72-5.17-7.45-12.021-7.95-18.973c0.17-5.67,1.53-11.289,3.58-16.56
	C497.48,249.104,505.88,243.983,514.43,241.664z"/>
<path fill="#FDC401" d="M365.48,242.704c9.21-2.069,18.896,0.811,26.21,6.54c3.47,3.34,5.6,7.771,7.76,12.01
	c2.316,4.49,3.46,9.551,3.02,14.61c-0.46,5.67-0.77,12.13-5.026,16.42c-9.78,11.539-27.934,16.18-41.434,8.58
	c-4.316-2.16-7.64-5.843-10.27-9.82c-2.98-4.08-3.521-9.25-4.521-14.062c-1.71-7.479,0.82-15.43,5.46-21.38
	C351.4,249.543,357.57,243.844,365.48,242.704z"/>
<rect fill="none" stroke="#000000" stroke-width="1.1169" stroke-miterlimit="10" width="886" height="1230"/>
</svg>
