<?xml version="1.0" encoding="utf-8"?>
<!-- Generator: Adobe Illustrator 15.0.2, SVG Export Plug-In . SVG Version: 6.00 Build 0)  -->
<!DOCTYPE svg PUBLIC "-//W3C//DTD SVG 1.1 Basic//EN" "http://www.w3.org/Graphics/SVG/1.1/DTD/svg11-basic.dtd">
<svg version="1.1" baseProfile="basic" id="Livello_1"
	 xmlns="http://www.w3.org/2000/svg" xmlns:xlink="http://www.w3.org/1999/xlink" x="0px" y="0px" width="886px" height="886px"
	 viewBox="0 0 886 886" xml:space="preserve">
<g id="_x23_a80000ff">
	<path fill="#CD031B" d="M629.777,112.014c0.321-1.345,0.904-2.608,1.771-3.691c3.188,9.46,5.471,19.188,8.266,28.77
		c3.689,14.429,7.763,28.771,10.798,43.364c1.732,7.689,3.997,15.296,4.774,23.157c3.213,15.394,7.009,30.653,10.395,46.01
		c0.888-0.875,1.755-1.786,2.48-2.81c9.588-12.89,18.757-26.073,28.426-38.895c2.78-4.305,6.651-7.735,9.506-11.986
		c9.063-11.725,17.44-23.987,26.834-35.45c-0.353,5.404-1.979,10.612-2.758,15.962c-2.159,9.139-2.974,18.636-6.135,27.507
		c-4.755,22.314-9.288,44.685-14.617,66.873c-6.829,31.228-14.653,62.23-22.051,93.333c-2.541,0.396-5.1,0.763-7.667,0.604
		c-6.729-0.493-13.488,0.636-20.19-0.389c-4.162,0.336-8.34,0.216-12.501,0.365c-16.762,0.531-33.537-0.112-50.292,0.457
		c-15.191-0.023-30.391,0.037-45.583-0.017c-4.759-0.18-9.474,0.756-14.234,0.404c-17.928-0.904-35.896-0.097-53.84-0.568
		c-0.119,0.151-0.352,0.448-0.472,0.599c-10.036,0-20.086-0.008-30.114,0.508c-11.939,0.038-23.883,0.255-35.832,0.246
		c-14.159,1.106-28.396,0.366-42.593,0.531c-5.783-0.239-11.62,0.427-17.359-0.538c-0.381,0.449-0.762,0.896-1.136,1.353
		c0.037-0.344,0.12-1.022,0.158-1.359c-2.312-0.703-4.693,0.357-7.048,0.066c-6.718-0.688-13.481-0.336-20.224-0.425
		c-10.742,0.098-21.498-0.12-32.241,0.098c-3.213-13.646-5.313-27.521-7.938-41.294c-2.586-13.218-5.246-26.422-7.683-39.664
		c-5.484-27.111-9.796-54.438-15.139-81.579c-0.276-2.907-0.276-5.865-1.094-8.698c-2.577-13.981-5.444-27.917-7.764-41.951
		c-0.599-2.892-1.188-5.798-1.286-8.766c2.959,2.542,4.828,6.016,7.159,9.087c3.303,4.857,6.905,9.505,10.253,14.333
		c8.339,12.232,16.478,24.645,23.591,37.639c5.276,8.198,10.492,16.433,15.938,24.518c2.938,5.792,6.302,11.359,9.063,17.239
		c6.509,11.732,12.696,23.629,19.16,35.383c1.547-1.428,1.486-3.64,2.085-5.508c3.714-16.529,7.54-33.037,11.112-49.596
		c2.074-8.249,3.36-16.701,5.769-24.869c1.622-3.84,2.272-7.965,3.429-11.94c2.432-10.761,5.684-21.312,8.363-32.012
		c2.519-7.943,4.043-16.134,6.217-24.159c1.102-4.933,2.676-9.73,3.76-14.662c0.383-0.037,1.138-0.104,1.519-0.142
		c1.822,8.997,4.617,17.77,6.449,26.768c4.305,17.313,8.041,34.77,11.016,52.361c0.096,5.82,1.965,11.387,2.525,17.157
		c3.295,16.193,5.754,32.55,9.333,48.683c1.091-0.814,1.11-2.279,1.439-3.482c2.212-13.091,4.396-26.199,6.612-39.299
		c1.174-5.298,1.696-10.715,2.578-16.065c1.18-4.528,2.504-9.034,3.056-13.689c4.143-23.755,8.108-47.578,13.959-70.976
		c1.562,0.822,2.025,2.585,2.685,4.088c2.601,6.561,5.327,13.07,7.485,19.794c6.113,17.233,8.759,35.405,13.729,52.959
		c0.738,2.758,0.864,5.648,1.727,8.392c6.646,23.845,13.832,47.526,20.864,71.266c2.212,7.205,3.87,14.594,6.644,21.619
		c0.645-1.047,1.314-2.13,1.475-3.378c0.844-4.947,2.067-9.826,2.957-14.767c5.934-25.788,12.659-51.388,19.229-77.021
		c0.649-2.024,1.602-3.945,2.128-6.007c4.403-16.201,8.945-32.371,13.071-48.646c2.562-10.364,3.869-21.005,6.501-31.354
		c0.126-1.143,1.367-0.793,1.568,0.165c6.853,13.847,12.846,28.089,19.112,42.207c5.32,11.252,10.23,22.693,15.491,33.977
		c2.04,3.998,3.058,8.414,5.029,12.435c6.147,13.779,12.008,27.671,17.889,41.563c1.938,4.528,3.513,9.229,5.688,13.644
		c0.312,0.166,0.956,0.501,1.271,0.666c-0.12-4.215,1.202-8.257,1.367-12.45c1.778-14.206,3.706-28.404,5.755-42.594
		c0.104-4.11,2.233-7.824,2.294-11.926c1.756-13.36,4.162-26.632,6.075-39.971C622.406,140.896,625.656,126.34,629.777,112.014z"/>
</g>
<g id="_x23_f44900ff">
	<path fill="#F44900" d="M596.815,365.194c16.754-0.569,33.528,0.074,50.291-0.456c0.082,0.484,0.239,1.441,0.32,1.928
		c-0.182-0.321-0.538-0.958-0.716-1.278c-4.173-0.365-8.354,0.037-12.524,0.007c-12.704,0.284-25.422-0.418-38.104,0.435
		c-17.942,0.224-35.886-0.27-53.817,0.03c-19.863-0.165-39.728,0.193-59.58-0.246c0.12-0.15,0.353-0.448,0.472-0.599
		c17.942,0.472,35.913-0.336,53.84,0.568c4.763,0.351,9.479-0.583,14.234-0.403C566.424,365.231,581.619,365.172,596.815,365.194z"
		/>
</g>
<g id="_x23_f0d68bff">
	<path fill="#FFF69B" d="M416.739,366.366c11.949,0.009,23.894-0.208,35.832-0.246c10.027-0.517,20.078-0.507,30.114-0.507
		c19.854,0.439,39.717,0.082,59.58,0.246c17.934-0.3,35.875,0.193,53.817-0.03c12.682-0.853,25.397-0.149,38.104-0.435
		c4.169,0.03,8.354-0.372,12.524-0.007c0.179,0.321,0.534,0.957,0.717,1.278c2.376,4.005,3.834,8.438,5.537,12.748
		c5.791,15.006,11.154,30.174,16.445,45.366c4.078,12.562,7.975,25.188,12.83,37.489c0.688,4.044,2.311,7.866,2.854,11.947
		c2.31,8.66,4.433,17.359,6.921,25.969c1.89,8.267,4.925,16.319,5.282,24.869c3.469,24.658,7.732,49.216,10.291,73.985
		c0.014,3.513,1.127,6.912,1.18,10.425c0.051,3.312,1.24,6.485,1.151,9.805c-0.083,2.779,1.083,5.396,1.109,8.178
		c0.068,4.244,1.303,8.369,1.271,12.629c1.493,8.167,1.621,16.499,2.219,24.764c-0.438,9.729,1.31,19.385,1.173,29.105
		c0.052,7.739,1.367,15.424,1.077,23.165c0.225,7.739,1.374,15.452,1.195,23.218c0.236,7.457,1.411,14.886,1.104,22.374
		c-0.238,4.251,0.582,8.457,0.61,12.71c0.066,3.98,0.113,7.973,0.449,11.949c0.353,7.479-0.336,14.997,0.666,22.445
		c0.737,5.692,0.28,11.447,1.054,17.137c0.627,7.003,0.62,14.023,1.465,21.014c0.635,4.834,0.038,9.729,0.71,14.557
		c0.604,7.816,0.993,15.644,0.784,23.486H261.78c1.354-9.527,0.859-19.188,1.98-28.74c0.575-4.849,0.149-9.729,0.359-14.586
		c0.553-4.991,0.363-10.021,1.021-14.99c0.083-6.2-0.044-12.418,0.836-18.574c0.437-2.743,0.474-5.53,0.485-8.294
		c0.076-6.023,1.271-11.975,1.062-17.995c0.022-3.97,0.576-7.898,0.683-11.854c0.762-8.969,0.269-17.979,0.993-26.944
		c-0.175-7.241,0.882-14.438,0.61-21.681c-0.284-5.773,1.217-11.438,1.159-17.209c0.007-3.511,1.054-6.92,1.143-10.424
		c0.055-3.55,1.183-6.979,1.113-10.521c0.082-4.006,1.337-7.885,1.218-11.896c1.233-9.938,2.146-19.906,3.318-29.854
		c-0.052-4.318,1.389-8.476,1.247-12.785c0.336-4.224,1.227-8.385,1.241-12.638c1.121-5.948,1.061-12.01,2.04-17.979
		c-0.172-4.797,1.338-9.423,1.285-14.204c0.135-3.506,1.148-6.921,1.129-10.432c0.007-3.043,1.065-5.948,1.136-8.978
		c0.956-9.999,2.503-19.904,3.885-29.847c2.496-16.745,5.156-33.506,9.05-50.015c3.983-11,9.071-21.572,12.86-32.646
		c2.137-6.209,5.013-12.121,7.494-18.188c6.902-15.372,13.896-30.71,20.98-46.001c0.949-2.159,1.928-4.35,3.468-6.157
		c4.08-4.91,7.898-10.029,12.068-14.856c0.374-0.456,0.756-0.903,1.137-1.353c5.739,0.964,11.575,0.299,17.358,0.538
		C388.343,366.733,402.576,367.473,416.739,366.366"/>
</g>
<path d="M590.522,430.721c5.509-2.548,11.239-5.335,17.473-5.104c3.896,0.4,7.975,0.993,11.254,3.316
	c5.174,3.818,10.853,7.385,14.395,12.913c2.697,4.708,4.432,9.998,4.933,15.409c0.847,4.954-0.812,9.833-1.358,14.729
	c-3.438,4.468-6.854,9.15-11.557,12.396c-0.769,0.519-1.389,1.21-1.992,1.898c-2.048,0.351-3.297,2.145-5.192,2.795
	c-1.638,0.717-3.505,0.433-5.192,0.972c-3.021,0.426-5.984-0.521-8.998-0.427c-4.059,0.09-8.032-0.926-11.938-1.884
	c-5.254-3.825-9.864-8.697-13.287-14.269c-3.004-4.348-2.929-9.86-3.769-14.886c-1.11-4.558,0.601-9.087,1.457-13.524
	c0.366-2.403,2.295-4.033,3.725-5.836C583.24,435.788,586.674,432.889,590.522,430.721z"/>
<path d="M368.055,433.038c5.365-2.802,11.164-4.979,17.246-5.396c3.607,0.442,7.465-0.396,10.855,1.196
	c6.145,1.938,10.857,6.694,14.896,11.507c3.467,3.855,4.812,8.96,7.382,13.368c1.794,5.485,1.181,11.404,0.464,17.031
	c-0.92,2.6-1.847,5.254-3.267,7.637c-3.818,4.319-7.442,8.915-12.03,12.457c-7.205,3.497-15.387,6.075-23.45,4.595
	c-4.088-1.136-8.234-2.075-12.113-3.803c-2.574-2.153-5.328-4.372-6.692-7.512c-0.247-0.172-0.733-0.507-0.979-0.672
	c0.322-2.742-1.928-4.707-2.688-7.158c-3.125-6.39-2.908-13.729-2.534-20.646c1.263-6.174,2.697-13.018,7.727-17.292
	C364.66,436.632,366.187,434.66,368.055,433.038z"/>
<path fill="#F44900" d="M525.093,559.602c4.476-0.479,8.974-0.326,13.45-0.792c12.876-0.007,25.74-0.362,38.608-0.618
	c0.209,2.976-0.901,5.781-1.271,8.696c-2.014,10.535-3.982,21.079-6.657,31.478c-5.529,19.94-11.866,39.664-16.971,59.713
	c-3.959,13.188-7.569,26.498-11.731,39.628c-0.935,3.953-2.429,7.748-4.058,11.456c-6.329,16.551-12.603,33.146-18.851,49.745
	c-4.151,10.716-7.794,21.641-12.352,32.196c-1.976-0.027-2.257-2.377-3.153-3.669c-5.097-8.938-8.104-18.81-11.565-28.456
	c-13.989-44.186-29.33-88.024-48.312-130.345c-5.515-14.37-10.969-28.77-16.461-43.14c-1.122-2.369-1.45-4.999-2.534-7.384
	c-0.844-4.425-2.649-8.751-2.567-13.294c2.022-0.848,4.354-0.321,6.501-0.594c11.396-1.001,22.835-0.971,34.255-1.619
	c6.229-0.82,12.538-0.337,18.793-0.839c10.454-0.909,20.961-0.845,31.422-1.529C516.077,559.445,520.615,559.96,525.093,559.602z"/>
</svg>
