<?xml version="1.0" encoding="utf-8"?>
<!-- Generator: Adobe Illustrator 15.0.2, SVG Export Plug-In . SVG Version: 6.00 Build 0)  -->
<!DOCTYPE svg PUBLIC "-//W3C//DTD SVG 1.1 Basic//EN" "http://www.w3.org/Graphics/SVG/1.1/DTD/svg11-basic.dtd">
<svg version="1.1" baseProfile="basic" id="Livello_1"
	 xmlns="http://www.w3.org/2000/svg" xmlns:xlink="http://www.w3.org/1999/xlink" x="0px" y="0px" width="886px" height="886px"
	 viewBox="0 0 886 886" xml:space="preserve">
<g id="_x23_fff69bff">
	<path fill="#FFF69B" d="M564.49,327.712c0.096-1.971,0.311-3.927,0.656-5.863c0.037,0.677,0.108,2.042,0.146,2.718
		c0.521-0.092,1.566-0.279,2.086-0.37C566.433,325.378,565.472,326.549,564.49,327.712z"/>
	<path fill="#FFF69B" d="M498.281,346.51c0.337-0.532,0.662-1.079,0.968-1.632c-0.591,2.118-1.222,4.227-1.827,6.345
		c-0.558-1.625-1.131-3.243-1.618-4.889C496.616,346.419,497.448,346.607,498.281,346.51z"/>
	<path fill="#FFF69B" d="M386.897,365.399c1.326,0.194,2.164-0.717,2.782-1.748c0.475,2.28,0.806,4.582,1.15,6.89
		C389.471,368.857,388.132,367.161,386.897,365.399z"/>
	<path fill="#FFF69B" d="M343.08,368.772c1.671,4.405,2.938,8.943,4.238,13.468c-1.917-3.997-4.108-7.853-6.039-11.836
		C341.878,369.858,342.482,369.312,343.08,368.772z"/>
	<path fill="#FFF69B" d="M298.042,408.825c22.028,3.62,44.005,7.678,66.066,11.143c3.458,0.461,6.883,1.431,10.393,1.223
		c22.321-1.28,44.655-2.262,66.995-2.996c12.584-0.144,25.148-0.923,37.74-1.1c10.165-0.57,20.362-0.437,30.497-1.526
		c19.771-1.17,39.44-3.758,59.229-4.621c-0.487,0.469-0.969,0.941-1.45,1.423c2.158,4.312,5.148,8.125,7.319,12.429
		c7.904,11.375,11.778,24.83,16.998,37.498c3.418,9.296,6.044,18.884,8.008,28.602c3.36,13.609,6.064,27.403,7.832,41.319
		c0.585,9.68,1.104,19.352,1.242,29.042c1.268,10.388,0.253,20.854,0.5,31.277c-0.578,4.543-0.487,9.119-0.546,13.688
		c-0.604,8.481-0.618,17.021-1.989,25.44c-0.8,5.16-1.241,10.406-2.782,15.425c-1.479,7.577-2.769,15.21-4.803,22.672
		c-1.983,7.039-3.621,14.188-6.084,21.079c-2.19,6.175-3.771,12.539-5.948,18.714c-1.896,5.823-4.348,11.453-6.285,17.271
		c-1.703,4.374-3.366,8.841-6.045,12.74c-4.067,6.401-9.229,12.012-13.638,18.181c-7.623,9.438-15.787,18.435-24.204,27.171
		c-3.354,4.452-7.995,7.592-12.162,11.205c-3.224,2.627-6.396,5.329-9.543,8.061c-2.618,2.314-5.928,3.596-8.886,5.39
		c-5.005,3.028-10.412,5.305-15.832,7.48c-7.223,2.587-14.393,5.376-21.899,7.053c-9.24,1.605-18.642,0.649-27.936,0.184
		c-6.371-0.215-12.715-0.893-19.065-1.358c-7.598-0.363-14.989-2.294-22.417-3.744c-7.599-2.45-15.243-4.81-22.607-7.903
		c-4.205-1.54-7.845-4.19-11.726-6.351c-6.559-4.012-13.533-7.481-19.324-12.609c-2.106-1.802-3.692-4.104-5.668-6.025
		c-7.696-7.832-13.676-17.088-20.553-25.604c-3.061-3.842-6.142-7.67-9.171-11.53c-2.386-3.081-5.083-5.968-6.864-9.465
		c-5.063-9.151-11.167-17.692-15.931-27.008c-8.086-13.494-14.729-27.854-19.591-42.81c-5.46-15.529-7.872-31.875-9.789-48.158
		c-0.897-4.882-0.494-9.887-1.443-14.755c-0.26-3.712-0.468-7.437-0.774-11.143c-0.753-3.419-0.923-6.93-1.235-10.398
		c0.267-4.173-0.409-8.309-0.929-12.429c-1.073-10.406-1.723-20.847-2.879-31.228c0.396-8.717,0.923-17.438,1.956-26.104
		c0.735-6.733,2.795-13.239,3.562-19.954c1.138-3.726,1.781-7.572,2.867-11.312c1.001-6.884,4.543-12.984,6.636-19.532
		c0.644-1.685,1.58-3.229,2.23-4.906c2.067-5.492,4.979-10.614,7.202-16.042c2.522-4.667,4.719-9.511,7.559-13.994
		C287.05,422.28,293.999,416.554,298.042,408.825"/>
</g>
<g>
	<g id="_x23_cd031bff">
		<path fill="#CD031B" d="M229.331,217.68c0.715,0.04,1.437,0.078,2.158,0.124c10.627,27.48,23.692,53.931,36.003,80.685
			c9.106,19.104,18.012,38.305,26.981,57.466c1.079,2.581,2.386,5.062,3.438,7.663c1.554,3.745,3.549,7.294,4.999,11.083
			c0.163,0.501,0.67,0.37,1.073,0.332l-0.943-0.645c-0.877-3.127-1.553-6.298-2.45-9.418c-5.278-21.535-11.297-42.881-15.99-64.559
			c-5.089-23.191-10.673-46.318-14.313-69.791c4.849,9.479,9.412,19.098,14.385,28.511c7.04,14.183,14.053,28.371,21.235,42.482
			c6.513,13.356,13.234,26.609,20.091,39.793c5.024,9.327,9.646,18.862,14.879,28.071c0.097,0.229,0.299,0.689,0.403,0.925
			c1.93,3.983,4.121,7.839,6.039,11.837c-1.3-4.523-2.567-9.062-4.238-13.469c-3.692-11.082-6.61-22.398-10.166-33.527
			c-3.067-10.913-6.383-21.755-9.581-32.629c-4.355-15.601-9.653-30.967-12.76-46.885c-0.585-3.933-1.878-7.819-1.476-11.83
			c1.736,4.173,4.154,8.008,6.234,12.012c12.304,22.966,26.091,45.098,40.449,66.827c9.548,14.802,20.767,28.424,31.115,42.659
			c1.235,1.762,2.574,3.458,3.933,5.141c-0.344-2.307-0.675-4.607-1.15-6.89c-6.298-31.604-13.663-63.012-19.025-94.804
			c-1.209-7.988-1.821-16.042-2.542-24.082c-0.546-6.021-1.665-12-1.677-18.051c0.579,0.031,1.742,0.091,2.327,0.123
			c2.775,13.059,7.682,25.558,10.491,38.608c1.216,6.338,3.224,12.493,5.648,18.467c3.601,8.145,8.033,15.893,11.615,24.051
			c9.666,19.401,20.273,38.336,29.66,57.889c0.461-7.423,0.864-14.839,0.729-22.28c-0.47-28.387-0.273-56.778-0.801-85.157
			c-0.383-6.539-0.784-13.122-0.063-19.647c4.686,13.292,9.672,26.486,15.131,39.486c9.198,21.541,16.237,43.907,23.381,66.184
			c0.11-0.948,0.279-1.885,0.5-2.813c0.709-24.283-0.2-48.581-1.56-72.826c-0.422-7.8-0.429-15.612-0.338-23.419
			c0.098-2.241-0.117-4.596,0.856-6.682c4.114,13.246,7.533,26.701,11.634,39.948c6.532,22.626,13.539,45.098,20.156,67.69
			c0.487,1.646,1.062,3.265,1.618,4.89c0.606-2.119,1.235-4.227,1.828-6.346c9.288-34.131,19.396-68.066,31.453-101.334
			c1.021-3.32,1.931-6.701,3.653-9.75c-0.28,9.938,0.569,19.877,0.084,29.815c0.345,22.951,0.377,45.909,0.407,68.867
			c0.224-0.099,0.664-0.299,0.887-0.396c4.612-11.635,9.521-23.151,14.254-34.734c5.616-13.579,11.552-27.041,18.551-39.962
			c4.199-7.494,8.19-15.112,12.754-22.399c0.37-0.702,1.098-1.033,1.769-1.391c-0.162,0.312-0.486,0.936-0.649,1.255
			c-1.495,8.547-3.142,17.088-5.823,25.363c-1.339,3.859-2.081,7.885-2.659,11.928c-3.478,16.464-6.578,33.02-8.779,49.71
			c-0.347,1.938-0.562,3.895-0.657,5.863c0.98-1.163,1.941-2.334,2.893-3.517c5.688-6.994,11.466-13.91,17.316-20.769
			c8.697-9.725,17.413-19.43,26.384-28.898c15.685-16.114,31.661-31.947,47.69-47.71c1.346-0.56,2.847-0.345,4.274-0.391
			c-6.936,15.735-14.733,31.083-21.233,47.014c-0.548,0.807-1.001,1.678-1.293,2.613c-2.72,5.94-5.56,11.837-8.271,17.783
			c-4.367,10.485-8.709,20.989-12.823,31.577c-5.005,13.201-10.329,26.292-14.593,39.755c-3.432,9.393-7.37,18.608-10.218,28.203
			c-1.41,4.705-3.271,9.274-4.569,14.021c-0.207,0.97-0.771,1.938-1.892,1.933c-6.402,0.525-12.807,1.021-19.193,1.617
			c-19.786,0.864-39.455,3.451-59.229,4.62c-10.136,1.094-20.332,0.956-30.497,1.528c-12.593,0.176-25.155,0.956-37.74,1.099
			c-22.341,0.734-44.674,1.717-66.995,2.996c-3.51,0.208-6.935-0.761-10.394-1.223c-22.061-3.465-44.037-7.521-66.065-11.142
			c-6.227-1.061-12.415-2.359-18.629-3.479c-2.723-0.685-5.57-0.818-8.209-1.802c-7.104-26.644-14.157-53.301-20.754-80.072
			c-3.302-12.722-6.084-25.56-8.924-38.391c-2.548-10.42-4.661-20.948-6.545-31.512C232.444,241.717,230.683,229.719,229.331,217.68
			z"/>
		<path fill="#CD031B" d="M395.366,709.625c20.131-0.377,40.287-0.338,60.424-0.631c7.163-0.104,14.28,0.769,21.431,0.988
			c8.652,0.059,17.316-0.131,25.938,0.832c-1.834,3.018-4.644,5.22-6.903,7.896c-17.583,18.388-35.605,36.348-53.404,54.521
			c-1.176,1.247-2.357,2.557-4.01,3.166c-7.903-8.521-15.906-16.959-23.842-25.454c-9.419-9.905-17.947-20.61-27.073-30.782
			c-3.042-3.396-5.941-6.91-8.944-10.329C384.42,709.041,389.899,709.827,395.366,709.625z"/>
	</g>
	<path fill="#010101" d="M556.066,503.81c-0.403,3.698-3.237,6.487-6.313,8.249c-3.451,1.572-6.936,3.068-10.392,4.615
		c-4.108,1.339-8.795,0.655-12.393-1.743c-3.358-1.664-5.815-4.595-8.125-7.461c-2.704-4.466-2.981-9.933-2.969-15.021
		c2.651-4.311,5.322-8.717,9.125-12.122c2.113-2.229,5.251-2.88,8.132-3.51c4.219-0.43,8.32,1.065,11.999,3.003
		c2.225,1.392,4.049,3.31,6.184,4.821c1.209,0.962,2.646,1.665,3.686,2.828c1.066,2.21,1.911,4.55,2.604,6.896
		c-0.019,2.827-0.391,5.7-1.301,8.393L556.066,503.81z"/>
	<path fill="#010101" d="M324.21,477.928c5.038-0.847,10.907-0.547,14.97,2.957c2.646,2.301,6.318,3.913,7.521,7.456
		c1.372,3.602,3.523,7.239,2.802,11.251c-0.163,5.221-3.289,9.983-7.546,12.846c-3.979,3.451-9.107,5.479-14.229,6.474
		c-3.588-0.447-7.754,0.462-10.744-2.054c-2.763-2.327-5.187-5.312-6.143-8.848c-0.943-3.834-1.443-7.772-1.58-11.713
		c-0.137-2.354-0.339-4.896,0.897-7.015C313.343,484.037,318.438,479.993,324.21,477.928z"/>
</g>
</svg>
