<?xml version="1.0" encoding="iso-8859-1"?>
<!-- Generator: Adobe Illustrator 15.0.2, SVG Export Plug-In . SVG Version: 6.00 Build 0)  -->
<!DOCTYPE svg PUBLIC "-//W3C//DTD SVG 1.1 Basic//EN" "http://www.w3.org/Graphics/SVG/1.1/DTD/svg11-basic.dtd">
<svg version="1.1" baseProfile="basic" id="Layer_1"
	 xmlns="http://www.w3.org/2000/svg" xmlns:xlink="http://www.w3.org/1999/xlink" x="0px" y="0px" width="768px" height="1024px"
	 viewBox="0 0 768 1024" xml:space="preserve">
<g id="pesce">
</g>
<g id="gatto">
	<rect style="fill:#231F20;" width="768" height="1024"/>
	<g>
		<g id="_x23_ce041aff">
			<path style="fill:#CE041A;" d="M223.625,210.006c2.201,0.382,4.611,0.632,6.221,2.392c4.5,4.188,9.109,8.26,13.65,12.39
				c8.898,8.11,16.398,17.562,24.629,26.312c12.471,13.56,25.199,26.898,37.279,40.818c1.5,1.72,3.432,3.271,5.83,3.316
				c50,1.979,100.081,0.91,150.106,1.438c4.133,0.12,7.104-3.148,10.133-5.46c18.737-15.618,37.633-31.062,56.212-46.858
				c11.721-8.96,23.729-17.55,36.025-25.7c1.91,15.351,4.33,30.71,4.09,46.221c0.021,14.67,1.423,29.352,0.57,44.021
				c-0.721,8.34-0.5,16.72-1.352,25.05c-0.725,20.688-2.938,41.29-3.271,61.988c-0.931,21.079-2.438,42.142-4.79,63.109
				c-0.87,6.641-1.521,13.391-3.646,19.776c-2.279,6.974-4.146,14.147-7.726,20.62c-7.155,12.987-15.97,24.987-25.695,36.17
				c-7.229,9.05-15.765,16.938-23.46,25.54c2.025,4.869,6.75,7.771,9.931,11.812c7.04,8.63,14.891,16.67,20.604,26.3
				c10.66,17.108,22.37,33.608,31.562,51.603c8.688,15.802,16.039,32.317,22.579,49.107c7.909,27.812,13.851,56.143,19.641,84.45
				c1.92,8.71,2.55,17.63,3.62,26.47c2.979,25.593,4.818,51.312,5.33,77.07c0.04,26.641-1.062,53.276-0.75,79.92
				c0.858,27.34,1.229,54.697,0.568,82.051c-1.08,13.021-0.343,26.109-1.515,39.131c-0.735,24.644-2.39,49.238-3.5,73.858
				c-0.97,9.979-0.34,20.062-1.815,30.011H158.146c-0.279-21.688-0.859-43.381-1.25-65.062c-0.73-22.671-1.33-45.358-0.48-68.041
				c1-27.63,0.541-55.327,2.301-82.932c1.6-24.948,2.619-49.938,3.369-74.932c1.121-16.358,3.07-32.66,4.061-49.021
				c2.182-19.381,3.102-39.021,7.852-58c1.75-7.646,2.648-15.461,4.729-23.026c7.449-28.54,15.619-56.9,24.869-84.9
				c14.381-37.146,34.592-71.641,55.15-105.63c5.17-8.37,11.4-16.028,16.51-24.432c-10.5-9.521-20.391-19.841-28.719-31.329
				c-11.4-15.712-16.32-34.939-19.621-53.771c-3.219-19.85-5.891-39.81-7.34-59.867c-1.32-24.013-2.83-48.021-2.641-72.079
				c0-14.317-0.221-28.644,0.041-42.961c1.299-15.989,1.811-32.04,3.299-48.021C221.346,235.955,222.496,222.976,223.625,210.006"/>
		</g>
		<path style="fill:#010101;" d="M373.125,467.945c5.609-1.5,11.4-2.188,17.211-1.95c13.439-0.63,26.312,3.921,39.04,7.562
			c10.92,3.229,21.604,7.17,32.47,10.58c-6.101,2.853-12.729,4.312-19.064,6.5c-10.562,3.353-21.59,5.05-32.59,6.183
			c-11.291,1.229-22.621-0.04-33.86-1.183c-13.602-1.409-26.83-5.021-39.99-8.59c-4.58-1.46-9.355-2.54-13.42-5.224
			C339.215,475.804,356.316,472.256,373.125,467.945z"/>
		<g id="_x23_fdc401ff">
			<path style="fill:#FDC401;" d="M456.626,337.426c6.479-1.512,13.569-0.63,19.359,2.7c4.391,2.42,8.84,5.25,11.511,9.63
				c2.47,4.021,3.85,8.603,5.29,13.066c1.46,4.229,0.271,8.724-0.19,13.021c-0.43,4.479-3.26,8.12-5.814,11.63
				c-4.91,6.58-12.529,11-20.63,12.229c-7.671,0.489-16.16-1.188-21.4-7.261c-6.75-5.973-11.489-14.41-11.68-23.54
				c0.54-5.603,1.729-11.21,3.84-16.433C440.896,344.865,448.626,339.974,456.626,337.426z"/>
			<path style="fill:#FDC401;" d="M309.715,338.495c9.016-2,18.17,1.424,25.4,6.689c3.459,3.71,5.82,8.318,8.1,12.828
				c3.631,7.183,2.84,15.58,1.34,23.223c-0.93,5.46-5.574,9.05-9.438,12.55c-8.549,5.79-19.5,8.62-29.639,5.91
				c-8.48-2.438-15.48-8.893-18.885-16.979c-1.156-4.224-2.039-8.521-2.711-12.84c-0.709-10.644,5.91-20.12,13.98-26.4
				C301.195,340.615,305.436,339.166,309.715,338.495z"/>
		</g>
	</g>
	<g>
		<g id="_x23_4a76d5ff">
			<path style="fill:#00AEEF;" d="M652.832,56.342c4.072-0.417,8.264-0.371,12.204,0.852c6.391,2.23,11.416,7.041,15.785,12.045
				c1.606,1.812,3.293,3.562,4.687,5.557c2.982,3.41,7.81,4.026,11.266,6.767c2.197,2.2,4.159,4.651,5.715,7.353
				c0.688,1.247,1.51,2.474,1.777,3.909c0.644,3.135,0.71,6.348,0.907,9.533c0,1.229,0.162,2.498-0.127,3.708
				c-0.933,1.874-1.848,3.761-2.854,5.599c-2.234,3.513-4.935,6.903-8.578,9.037c-2.894,1.792-6.023,3.424-9.459,3.786
				c-3.584,0.58-7.802,0.707-10.272,3.786c-2.544,3.287-5.128,6.574-8.26,9.33c-2.223,2.319-5.188,3.655-7.991,5.115
				c-1.854,0.833-3.679,1.785-5.636,2.344c-2.117,0.167-4.274,0.159-6.377-0.177c-4.775-0.626-9.683-1.195-14.059-3.344
				c-3.385-1.219-6.139-3.587-9.23-5.348c-1.301-0.803-2.769-1.488-4.337-1.293c-6.465,0.674-12.944,1.654-19.462,1.386
				c-2.021-0.378-4.156-0.153-6.101-0.894c-2.506-1.099-5.029-2.354-6.92-4.387c-2.396-2.464-4.732-5.111-7.914-6.589
				c-3.025-1.841-6.183-3.464-9.2-5.323c-1.517-0.876-2.758-2.152-3.835-3.513c-1.043-1.799-2.413-3.414-3.125-5.394
				c-1.367-3.4-0.906-7.125-0.614-10.674c0.015-2.372,1.241-4.468,2.085-6.613c1.201-1.53,2.9-2.562,4.387-3.789
				c4.421-2.98,9.439-4.927,14.444-6.684c0.986-0.403,2.146-0.565,2.916-1.361c3.058-3.775,4.836-8.437,8.183-12
				c4.347-4.711,9.358-9.232,15.552-11.268c5.479-0.611,11.054-0.361,16.491,0.522c2.02,0.315,3.808,1.456,5.854,1.641
				c3.036,0.399,6.237,1.06,9.204-0.039C644.172,58.52,648.367,56.872,652.832,56.342z"/>
		</g>
	</g>
</g>
</svg>
