<?xml version="1.0" encoding="utf-8"?>
<!-- Generator: Adobe Illustrator 16.0.0, SVG Export Plug-In . SVG Version: 6.00 Build 0)  -->
<!DOCTYPE svg PUBLIC "-//W3C//DTD SVG 1.1 Basic//EN" "http://www.w3.org/Graphics/SVG/1.1/DTD/svg11-basic.dtd">
<svg version="1.1" baseProfile="basic" id="Layer_1"
	 xmlns="http://www.w3.org/2000/svg" xmlns:xlink="http://www.w3.org/1999/xlink" x="0px" y="0px" width="4608px" height="768px"
	 viewBox="0 0 4608 768" xml:space="preserve">
<g id="_x23_a80000ff">
	<path fill="#CE141F" d="M545.902,97.096c0.278-1.166,0.783-2.26,1.535-3.199c2.764,8.2,4.743,16.632,7.166,24.938
		c3.197,12.507,6.729,24.939,9.359,37.589c1.502,6.665,3.466,13.259,4.139,20.073c2.785,13.344,6.075,26.571,9.011,39.882
		c0.77-0.758,1.521-1.548,2.149-2.436c8.311-11.173,16.259-22.6,24.641-33.715c2.409-3.731,5.765-6.705,8.24-10.389
		c7.855-10.164,15.117-20.793,23.26-30.729c-0.307,4.684-1.716,9.198-2.391,13.836c-1.873,7.922-2.579,16.154-5.319,23.844
		c-4.122,19.342-8.051,38.734-12.67,57.967c-5.919,27.069-12.702,53.941-19.114,80.903c-2.203,0.343-4.42,0.661-6.646,0.523
		c-5.833-0.427-11.692,0.552-17.5-0.337c-3.608,0.292-7.23,0.187-10.837,0.317c-14.529,0.459-29.07-0.098-43.593,0.396
		c-13.168-0.021-26.344,0.032-39.513-0.015c-4.125-0.156-8.212,0.655-12.338,0.35c-15.541-0.784-31.115-0.083-46.669-0.493
		c-0.103,0.131-0.306,0.389-0.409,0.52c-8.7,0-17.412-0.007-26.104,0.44c-10.35,0.033-20.703,0.221-31.06,0.213
		c-12.273,0.958-24.614,0.317-36.92,0.46c-5.013-0.207-10.073,0.37-15.047-0.466c-0.33,0.389-0.661,0.776-0.985,1.172
		c0.032-0.298,0.104-0.885,0.137-1.178c-2.004-0.608-4.068,0.31-6.11,0.058c-5.823-0.596-11.685-0.291-17.53-0.368
		c-9.312,0.084-18.635-0.104-27.947,0.084c-2.785-11.828-4.605-23.855-6.881-35.794c-2.241-11.457-4.547-22.903-6.66-34.381
		c-4.753-23.5-8.491-47.188-13.123-70.714c-0.239-2.52-0.239-5.084-0.948-7.54c-2.233-12.119-4.719-24.199-6.73-36.364
		c-0.519-2.507-1.029-5.026-1.115-7.599c2.565,2.204,4.185,5.215,6.206,7.877c2.863,4.21,5.985,8.239,8.887,12.424
		c7.229,10.603,14.284,21.363,20.449,32.626c4.573,7.106,9.095,14.244,13.815,21.252c2.547,5.021,5.462,9.846,7.856,14.943
		c5.643,10.169,11.005,20.482,16.608,30.67c1.341-1.237,1.289-3.155,1.807-4.774c3.22-14.328,6.536-28.637,9.632-42.991
		c1.798-7.15,2.913-14.476,5.001-21.556c1.406-3.329,1.969-6.905,2.973-10.35c2.107-9.328,4.926-18.474,7.249-27.749
		c2.184-6.885,3.505-13.985,5.39-20.941c0.955-4.276,2.319-8.434,3.259-12.709c0.332-0.032,0.986-0.09,1.317-0.123
		c1.579,7.799,4.002,15.403,5.59,23.203c3.732,15.007,6.97,30.139,9.549,45.387c0.083,5.045,1.704,9.871,2.188,14.873
		c2.856,14.036,4.988,28.214,8.09,42.199c0.945-0.706,0.962-1.975,1.248-3.018c1.917-11.348,3.81-22.709,5.731-34.065
		c1.017-4.593,1.47-9.289,2.234-13.925c1.022-3.925,2.17-7.831,2.649-11.866c3.591-20.591,7.028-41.241,12.1-61.523
		c1.354,0.712,1.755,2.241,2.327,3.543c2.254,5.687,4.618,11.329,6.489,17.158c5.299,14.938,7.592,30.69,11.9,45.906
		c0.64,2.391,0.749,4.896,1.497,7.274c5.761,20.669,11.99,41.196,18.086,61.774c1.917,6.246,3.354,12.65,5.759,18.74
		c0.559-0.908,1.139-1.847,1.278-2.929c0.732-4.288,1.792-8.517,2.563-12.8c5.144-22.353,10.973-44.544,16.668-66.763
		c0.562-1.754,1.388-3.419,1.845-5.207c3.817-14.043,7.753-28.06,11.33-42.167c2.221-8.983,3.353-18.208,5.634-27.178
		c0.11-0.991,1.185-0.688,1.36,0.143c5.94,12.003,11.135,24.348,16.567,36.586c4.611,9.753,8.867,19.67,13.428,29.452
		c1.768,3.466,2.65,7.293,4.359,10.779c5.329,11.944,10.409,23.986,15.507,36.028c1.68,3.925,3.045,8,4.93,11.827
		c0.271,0.144,0.829,0.435,1.102,0.578c-0.104-3.654,1.041-7.158,1.185-10.792c1.541-12.314,3.211-24.621,4.988-36.921
		c0.09-3.562,1.936-6.782,1.989-10.337c1.522-11.581,3.607-23.085,5.265-34.647C539.513,122.131,542.33,109.514,545.902,97.096z"/>
</g>
<g id="_x23_f44900ff">
	<path fill="#E84C16" d="M517.329,316.557c14.523-0.494,29.063,0.063,43.593-0.395c0.071,0.419,0.208,1.249,0.278,1.671
		c-0.157-0.279-0.466-0.831-0.621-1.108c-3.617-0.315-7.242,0.032-10.856,0.006c-11.011,0.246-22.036-0.362-33.028,0.377
		c-15.552,0.194-31.106-0.234-46.649,0.026c-17.218-0.143-34.437,0.167-51.645-0.213c0.104-0.13,0.306-0.389,0.409-0.52
		c15.552,0.41,31.13-0.291,46.669,0.493c4.128,0.304,8.217-0.505,12.337-0.35C490.986,316.589,504.157,316.537,517.329,316.557z"/>
</g>
<g id="_x23_f0d68bff">
	<path fill="#FDF39D" d="M361.237,317.572c10.357,0.008,20.711-0.18,31.06-0.213c8.691-0.449,17.403-0.439,26.104-0.439
		c17.209,0.38,34.427,0.071,51.645,0.213c15.545-0.261,31.097,0.167,46.649-0.026c10.993-0.74,22.014-0.129,33.028-0.377
		c3.615,0.026,7.242-0.322,10.856-0.006c0.155,0.278,0.463,0.83,0.622,1.108c2.06,3.472,3.323,7.314,4.8,11.05
		c5.02,13.007,9.668,26.155,14.255,39.324c3.535,10.889,6.913,21.833,11.122,32.495c0.596,3.507,2.002,6.819,2.473,10.356
		c2.003,7.507,3.842,15.048,6,22.51c1.639,7.167,4.27,14.146,4.579,21.558c3.007,21.374,6.703,42.661,8.92,64.132
		c0.013,3.045,0.977,5.991,1.023,9.036c0.044,2.871,1.074,5.621,0.997,8.499c-0.072,2.409,0.938,4.678,0.961,7.089
		c0.059,3.679,1.129,7.254,1.102,10.947c1.294,7.079,1.405,14.302,1.924,21.466c-0.38,8.434,1.135,16.803,1.016,25.229
		c0.045,6.708,1.185,13.37,0.935,20.08c0.194,6.708,1.19,13.394,1.035,20.126c0.205,6.464,1.223,12.903,0.958,19.394
		c-0.207,3.686,0.504,7.331,0.528,11.018c0.058,3.449,0.099,6.911,0.39,10.357c0.306,6.483-0.291,13,0.577,19.456
		c0.639,4.934,0.243,9.922,0.914,14.854c0.544,6.07,0.538,12.155,1.271,18.215c0.55,4.19,0.032,8.434,0.615,12.618
		c0.524,6.775,0.861,13.562,0.68,20.358H226.916c1.173-8.259,0.744-16.633,1.716-24.912c0.499-4.203,0.13-8.433,0.312-12.644
		c0.479-4.326,0.314-8.686,0.885-12.994c0.072-5.373-0.039-10.764,0.725-16.1c0.379-2.378,0.411-4.793,0.42-7.189
		c0.066-5.221,1.102-10.38,0.92-15.598c0.019-3.442,0.5-6.847,0.592-10.276c0.66-7.774,0.233-15.584,0.861-23.355
		c-0.152-6.276,0.764-12.515,0.528-18.793c-0.246-5.004,1.055-9.914,1.004-14.917c0.006-3.044,0.914-5.999,0.991-9.036
		c0.047-3.077,1.025-6.05,0.965-9.12c0.071-3.473,1.159-6.834,1.056-10.311c1.068-8.615,1.86-17.256,2.876-25.879
		c-0.045-3.742,1.204-7.347,1.081-11.082c0.291-3.661,1.063-7.269,1.076-10.955c0.972-5.155,0.92-10.41,1.769-15.584
		c-0.149-4.158,1.16-8.168,1.114-12.312c0.117-3.039,0.995-5.999,0.979-9.042c0.006-2.639,0.923-5.156,0.984-7.783
		c0.829-8.667,2.17-17.253,3.368-25.871c2.163-14.515,4.469-29.044,7.844-43.354c3.453-9.535,7.863-18.698,11.147-28.298
		c1.853-5.382,4.345-10.507,6.496-15.766c5.983-13.325,12.045-26.62,18.186-39.875c0.822-1.871,1.671-3.77,3.006-5.336
		c3.537-4.256,6.846-8.694,10.46-12.878c0.324-0.396,0.655-0.783,0.986-1.172c4.975,0.835,10.033,0.259,15.046,0.465
		C336.622,317.891,348.96,318.532,361.237,317.572"/>
</g>
<path fill="#010202" d="M511.874,373.356c4.776-2.208,9.743-4.625,15.146-4.424c3.377,0.346,6.913,0.861,9.755,2.874
	c4.484,3.31,9.407,6.402,12.478,11.193c2.337,4.081,3.841,8.667,4.276,13.357c0.734,4.294-0.704,8.523-1.178,12.768
	c-2.979,3.873-5.94,7.931-10.018,10.745c-0.667,0.45-1.204,1.049-1.727,1.646c-1.775,0.304-2.858,1.858-4.5,2.423
	c-1.42,0.621-3.039,0.375-4.501,0.842c-2.618,0.369-5.188-0.451-7.8-0.37c-3.519,0.078-6.962-0.802-10.348-1.633
	c-4.554-3.315-8.55-7.539-11.518-12.369c-2.604-3.769-2.539-8.546-3.267-12.903c-0.962-3.95,0.521-7.876,1.263-11.723
	c0.317-2.083,1.989-3.496,3.229-5.059C505.562,377.749,508.539,375.235,511.874,373.356z"/>
<path fill="#010202" d="M319.036,375.365c4.651-2.429,9.677-4.316,14.949-4.678c3.127,0.383,6.471-0.343,9.41,1.037
	c5.326,1.68,9.411,5.803,12.912,9.974c3.005,3.342,4.172,7.767,6.399,11.588c1.555,4.755,1.023,9.886,0.402,14.763
	c-0.797,2.254-1.601,4.555-2.832,6.62c-3.309,3.744-6.451,7.728-10.428,10.798c-6.245,3.031-13.338,5.266-20.327,3.982
	c-3.543-0.984-7.138-1.798-10.5-3.296c-2.231-1.866-4.618-3.79-5.801-6.512c-0.214-0.148-0.635-0.439-0.848-0.582
	c0.279-2.377-1.671-4.08-2.331-6.205c-2.709-5.538-2.521-11.9-2.196-17.896c1.095-5.352,2.338-11.284,6.698-14.989
	C316.094,378.48,317.417,376.771,319.036,375.365z"/>
<path fill="#E84C16" d="M455.159,485.072c3.881-0.415,7.779-0.282,11.659-0.687c11.161-0.006,22.312-0.313,33.465-0.535
	c0.181,2.579-0.78,5.011-1.101,7.537c-1.746,9.133-3.451,18.272-5.771,27.286c-4.792,17.284-10.285,34.382-14.71,51.761
	c-3.432,11.431-6.561,22.969-10.168,34.35c-0.811,3.427-2.106,6.717-3.518,9.931c-5.486,14.347-10.925,28.731-16.34,43.12
	c-3.599,9.288-6.756,18.758-10.708,27.907c-1.712-0.023-1.956-2.061-2.732-3.181c-4.419-7.747-7.025-16.304-10.025-24.666
	c-12.126-38.301-25.424-76.3-41.877-112.985c-4.781-12.456-9.509-24.938-14.269-37.394c-0.974-2.054-1.258-4.333-2.198-6.4
	c-0.731-3.836-2.295-7.586-2.225-11.523c1.752-0.735,3.774-0.278,5.635-0.516c9.878-0.868,19.794-0.842,29.693-1.402
	c5.4-0.712,10.868-0.293,16.29-0.729c9.062-0.787,18.169-0.732,27.237-1.324C447.345,484.937,451.278,485.383,455.159,485.072z"/>
<rect fill="none" width="768" height="768"/>
<g id="_x23_b60000ff">
	<path fill="#CE141F" d="M1308.691,96.454c1.583-6.271,2.93-12.631,5.158-18.716c3.521,11.068,6.431,22.315,9.419,33.531
		c7.191,26.982,12.548,54.409,19.062,81.558c0.508,2.33,0.877,4.725,2.04,6.85c5.847-8.197,12.067-16.121,17.705-24.464
		c13.024-17.465,26.066-34.921,39.158-52.328c-4.874,26.769-10.817,53.319-16.502,79.929c-6.753,29.44-13.526,58.883-20.824,88.195
		c-0.485,2.023-0.627,4.168-1.558,6.052c-8.235,0.676-16.524,0.36-24.782,0.432c-5.646-0.155-11.281,0.212-16.89,0.798
		c-7.354-0.065-14.713-0.167-22.063,0.026c7.576,0.516,15.19-0.142,22.775,0.477c-11.783,0.424-23.59,0.121-35.383,0.275
		c-8.358,0.877-16.784,0.348-25.172,0.508c-9.66-0.006-19.319-0.013-28.978-0.03c-7.507,0.192-14.971-0.774-22.483-0.503
		c-16.741-0.555-33.486,0.024-50.231,0.134c-11.143,0.697-22.328,0.245-33.485,0.561c-5.988,0.772-12.034,0.284-18.046,0.482
		c-10.011-0.096-20.027,0.084-30.031-0.161c-0.148,0.104-0.452,0.315-0.598,0.417l0.689-0.946c-0.36-0.056-1.08-0.18-1.448-0.236
		c-16.789-0.18-33.606-0.141-50.402-0.167c-1.764-9.059-3.58-18.104-5.247-27.182c-1.425-9.63-3.774-19.095-5.402-28.688
		c-3.823-19.488-7.559-39.002-10.937-58.568c-4.559-25.346-9.748-50.584-14.12-75.964c2.931,3.059,5.022,6.78,7.6,10.122
		c9.238,12.464,17.563,25.572,25.604,38.834c5.334,8.389,10.82,16.682,16.177,25.051c8.031,14.975,16.03,29.969,24.068,44.938
		c0.296-0.018,0.895-0.058,1.198-0.075c5.286-22.277,9.966-44.701,15.084-67.016c3.281-13.899,7.042-27.677,10.745-41.46
		c2.286-7.25,3.528-14.756,5.62-22.058c1.03-3.432,1.474-7.061,3.044-10.32c3.657,14.602,7.346,29.197,10.565,43.895
		c5.491,26.963,9.842,54.145,15.252,81.121c0.123,0.31,0.354,0.914,0.471,1.217l0.875-0.206
		c5.467-32.578,10.726-65.193,16.816-97.667c1.904-8.852,3.368-17.834,6-26.519c6.669,14.415,11.52,29.666,14.863,45.189
		c3.63,16.953,8.571,33.588,13.385,50.237c3.135,11.479,6.979,22.738,10.14,34.206c2.209,7.487,4.302,15.006,6.683,22.443
		c0.252,0.695,0.735,1.21,1.455,1.532c0.825-3.046,1.333-6.16,2.041-9.231c3.269-16.225,7.711-32.18,11.562-48.268
		c3.374-12.606,6.344-25.315,9.879-37.876c3.214-12.142,6.699-24.221,9.66-36.428c1.598-7.421,2.812-14.91,4.426-22.32
		c0.173-0.958,0.503-1.892,1.101-2.671c4.842,9.734,9.279,19.681,13.586,29.674c10.636,23.576,21.528,47.037,31.661,70.839
		c3.658,8.492,6.973,17.144,10.874,25.527c0.94-2.15,1.206-4.488,1.362-6.805c2.871-23.629,6.233-47.218,9.851-70.75
		C1303.72,121.345,1305.581,108.771,1308.691,96.454z"/>
</g>
<g id="_x23_f0d68bff_1_">
	<path fill="#FDF39D" d="M1321.384,298.793c1.932-0.272,3.88-0.434,5.833-0.414c0.393,0.676,0.805,1.359,1.21,2.041
		c1.969,3.142,3.072,6.701,4.443,10.121c4.708,12.361,9.083,24.85,13.461,37.334c4.004,11.428,7.509,23.027,11.299,34.528
		c3.445,14.693,7.456,29.249,11.345,43.837c0.855,2.69,0.894,5.547,1.475,8.303c0.277,5.402,1.654,10.664,2.163,16.047
		c1.642,10.938,3.307,21.874,4.88,32.818c1.199,9.896,2.228,19.823,3.438,29.724c0.565,2.189,0.451,4.458,0.674,6.7
		c1.018,4.099,0.843,8.361,1.739,12.496c-0.083,3.927,1.167,7.711,1.178,11.641c0.304,6.001,1.144,11.982,0.886,18.008
		c-0.155,3.855,0.555,7.675,0.657,11.529c0.586,4.365,0.27,8.774,0.456,13.166c0.019,3.16-0.262,6.385,0.4,9.512
		c0.533,3.766,0.198,7.591,0.581,11.377c0.712,7.958,0.964,15.934,1.023,23.924c0.955,4.688,0.376,9.496,0.778,14.236
		c0.496,5.781,0.412,11.594,1.017,17.377c0.271,6.416-0.353,12.875,0.51,19.268c0.713,5.57,0.336,11.197,1.029,16.773
		c0.644,4.709,0.296,9.465,0.966,14.173c0.804,5.756,0.236,11.569,0.946,17.339c0.861,7.912,0.462,15.883,0.56,23.834
		c0.116,4.538-1.004,8.986-1.082,13.521H994.722c0.163-3.767-0.174-7.552,0.431-11.286c0.605-3.76-0.006-7.617,0.863-11.339
		c0.109-2.324-0.129-4.661,0.315-6.953c0.893-4.707,0.014-9.503,0.689-14.222c0.586-4.05,0.464-8.145,0.483-12.215
		c0.265-9.63,1.487-19.225,1.204-28.869c1.129-4.301,0.222-8.762,0.94-13.102c0.792-8.067,0.747-16.171,1.468-24.245
		c0.56-5.634-0.226-11.313,0.489-16.933c0.488-4.235,0-8.51,0.407-12.747c0.708-4.692-0.046-9.444,0.397-14.15
		c0.239-3.236,0.973-6.439,0.869-9.69c-0.205-3.909,1.198-7.675,1.03-11.575c0.307-3.13,1.017-6.215,1.105-9.372
		c1.017-4.551,0.727-9.235,1.68-13.797c-0.016-3.483,0.804-6.862,1.113-10.307c-0.15-3.702,1.095-7.277,1.018-10.97
		c-0.015-2.847,1.115-5.548,0.973-8.396c-0.079-3.026,0.869-5.955,0.952-8.974c-0.064-3.924,1.236-7.716,1.087-11.647
		c0.478-3.753,0.979-7.501,1.056-11.287c1.019-4.755,0.747-9.638,1.715-14.401c-0.128-3.722,1.114-7.275,1.137-10.969
		c1.732-13.992,3.638-27.971,5.949-41.886c1.866-9.567,3.052-19.341,5.995-28.671c10.983-27.245,22.765-54.163,35.249-80.753
		c0.812-1.646,1.372-3.457,2.563-4.893c3.663-4.642,7.363-9.265,11.072-13.875c0.147-0.103,0.451-0.315,0.598-0.418
		c10.005,0.245,20.023,0.064,30.032,0.164c6.013-0.201,12.058,0.288,18.046-0.485c11.156-0.315,22.338,0.136,33.485-0.559
		c16.745-0.109,33.49-0.689,50.229-0.135c7.512-0.27,14.973,0.695,22.482,0.503c9.66,0.019,19.319,0.024,28.98,0.031
		c8.388-0.163,16.812,0.366,25.173-0.508"/>
</g>
<g id="_x23_000000ff">
	<path fill="#010202" d="M1278.6,355.48c4.912-2.454,10.088-5.073,15.762-4.674c3.124,0.379,6.494,0.572,9.109,2.535
		c5.146,3.6,10.854,7.147,13.693,12.993c3.949,7.552,3.534,16.572,1.114,24.529c-1.385,2.562-3.581,4.552-5.436,6.768
		c-2.117,2.546-5.141,4.059-7.559,6.19c-0.331,0.044-0.981,0.127-1.303,0.164c-0.313,1.37-1.738,1.168-2.812,1.31l-0.085,0.523
		c-3.979,0.039-7.967,0.143-11.94-0.135c-1.824-0.792-3.879-0.219-5.738-0.814c-1.183-0.354-2.364-0.728-3.549-1.042l-0.03-0.405
		c-0.793-0.528-1.606-1.027-2.398-1.539c-1.571-1.246-3.016-2.657-4.23-4.262c-1.175-1.442-2.384-2.859-3.598-4.262
		c-0.024-0.187-0.084-0.566-0.108-0.754c-0.604-0.783-1.16-1.604-1.74-2.396c-0.436-1.331-0.869-2.671-1.033-4.067
		c-0.967-3.946-1.338-8.071-0.918-12.111c0.941-3.31,1.067-7.017,3.289-9.819C1271.75,360.818,1274.807,357.611,1278.6,355.48z"/>
	<path fill="#010202" d="M1087.275,357.456c4.265-2.503,9.041-4.099,13.924-4.834c2.807-0.09,5.634-0.026,8.435,0.233
		c7.167,1.756,12.699,7.192,16.853,13.043c1.307,2.148,2.113,4.565,3.147,6.857c2.665,4.864,1.535,10.66,1.184,15.934
		c-0.978,3.377-2.13,6.984-4.803,9.444c-3.116,3.381-5.832,7.452-10.107,9.473c-6.471,2.489-13.771,4.919-20.622,2.489
		c-1.471-0.415-2.943-0.821-4.417-1.203c-1.101-0.471-2.215-0.901-3.341-1.27c-0.658-0.425-1.274-0.896-1.926-1.307
		c-1.519-1.5-3.098-2.975-4.224-4.803c-0.617-2.061-1.739-3.908-2.531-5.898l-0.386-0.079c-0.127-0.4-0.384-1.188-0.516-1.591
		c-0.487-1.246-0.907-2.514-1.384-3.76c-0.901-3.16-0.825-6.478-0.855-9.728c-0.052-4.262,1.622-8.255,3.026-12.187
		C1080.111,363.684,1084.321,360.958,1087.275,357.456z"/>
</g>
<g id="_x23_f44900ff_1_">
	<path fill="#E84C16" d="M1190.66,456.442c11.408,0.29,22.767-1.753,34.168-0.797c15.187,1.964,29.931,6.268,44.682,10.239
		c0.404-0.065,0.824-0.133,1.248-0.142c-1.638,5.673-4.983,10.688-6.701,16.337c-1.173,1.385-1.624,3.17-2.396,4.782
		c-2.91,6.271-5.69,12.593-8.53,18.896c-4.21,7.855-7.365,16.2-11.134,24.266c-9.542,21.219-19.53,42.248-30.541,62.753
		c-0.571,1.044-1.354,1.962-2.169,2.831c-4.812-6.67-8.993-13.774-13.594-20.589c-11.641-17.77-23.316-35.506-35.03-53.225
		c-10.332-15.366-20.64-30.76-30.085-46.694c-0.712-1.427-2.367-2.724-1.787-4.46c6.431-2.163,12.748-4.671,19.186-6.812
		c3.92-1.679,8.201-2.045,12.284-3.146C1170.349,458.967,1180.45,457.188,1190.66,456.442z"/>
</g>
<rect x="768" fill="none" width="768" height="768"/>
<g>
	<g id="_x23_f0d68bff_2_">
		<path fill="#FDF39D" d="M1948.006,282.524c16.608-1.32,33.303-0.486,49.95-0.629c4.776-0.213,9.484,0.817,14.259,0.7
			c6.859,0.883,13.779,0.449,20.678,0.647c10.552,1.135,21.188,0.291,31.777,0.713c7.561,0.836,15.188,0.298,22.775,0.532
			c0.344,0.491,0.687,0.991,1.029,1.49c3.246,5.228,6.678,10.364,9.529,15.819c9.89,25.353,18.731,51.106,26.836,77.075
			c1.67,5.305,2.623,10.791,4.172,16.128c1.918,7.773,4.137,15.468,6.164,23.222c1.049,4.747,2.952,9.359,3.018,14.283
			c2.469,18.149,5.461,36.233,7.883,54.383c2.125,19.666,4.619,39.277,6.951,58.913c0.104,3.873-0.165,7.753,0.27,11.612
			c0.901,8.863,0.592,17.776,1.466,26.637c0.562,5.146-0.08,10.344,0.629,15.477c0.842,7.562,0.434,15.181,1.288,22.736
			c0.654,5.693-0.017,11.446,0.725,17.138c0.914,9.806,0.376,19.667,1.029,29.488c0.441,9.274,0.598,18.548,1.5,27.801
			c-0.158,5.878,1.215,11.665,1.063,17.555c0.032,6.042,1.211,12.04,0.994,18.104c-0.09,7.799,1.063,15.597,0.292,23.39
			c-0.461,4.071-0.054,8.214-0.83,12.262h-401.006c-0.045-6.29,0.634-12.521,1.095-18.777c-0.199-6.953,1.317-13.815,1.036-20.773
			c0.279-6.691,1.185-13.363,0.978-20.074c-0.104-6.264,0.771-12.487,1.003-18.738c-0.234-6.953,1.199-13.843,1.024-20.789
			c0.298-5.162,1.218-10.286,0.965-15.472c0.324-6.043,0.505-12.1,0.965-18.137c0.033-7.782,0.006-15.571,0.55-23.337
			c0.589-6.912,0.267-13.875,1.379-20.742c-0.188-4.968,1.031-9.794,1.318-14.729c0.835-4.101,0.77-8.298,1.555-12.407
			c0.11-4.604,1.308-9.093,1.286-13.701c0.888-4.749,0.783-9.599,1.784-14.32c-0.016-4.515,1.073-8.927,1.184-13.428
			c1.556-12.313,2.48-24.678,3.886-37.006c2.416-24.062,5.761-48.037,10.131-71.841c0.621-2.616,1.03-5.278,1.697-7.884
			c1.017-6.483,4.165-12.325,6.429-18.42c9.483-22.679,19.182-45.278,29.63-67.534c1.406-2.857,2.429-5.959,4.496-8.434
			c5.194-6.483,10.317-13.021,15.623-19.413c0.958-1.133,2.002-2.208,3.115-3.193c10.967-1.011,21.972-1.575,32.977-1.932
			c10.158-1.062,20.347-1.874,30.501-2.882c3.142-0.266,6.296-0.181,9.426-0.563c3.961-0.512,7.964-0.156,11.938-0.57
			C1940.265,282.479,1944.145,282.653,1948.006,282.524"/>
	</g>
	<g id="_x23_ba0400ff">
		<path fill="#CE141F" d="M1930.024,75.351c2.493,8.861,4.827,17.767,7.114,26.687c-0.41,0.863-0.227,1.58,0.536,2.157
			c6.503,25.262,10.968,50.997,17.303,76.303c1.638,7.021,2.896,14.133,4.915,21.064c0.045,1.16,1.639,0.713,1.646-0.232
			c0.931-2.474,2.253-4.761,3.496-7.087c13.703-30.826,28.126-61.334,42.685-91.765c4.206-8.706,7.876-17.638,11.762-26.48
			c4.074,11.557,5.732,23.773,8.215,35.729c2.195,11.549,4.635,23.053,7.008,34.563c2.896,13.875,5.613,27.794,8.722,41.625
			c0.414,2.344,0.876,4.689,1.69,6.937c13.194-28.43,26.979-56.581,40.537-84.848c5.329-11.051,10.182-22.36,16.264-33.035
			c0.538,0.052,1.082,0.104,1.633,0.156c0.933,7.449,2.416,14.833,2.915,22.327c3.984,29.77,7.073,59.644,11.538,89.349
			c0.568,4.308,1.303,8.596,1.569,12.942c2.377-0.181,3.595-2.455,5.065-4.023c6.826-8.628,14.283-16.718,21.516-25.003
			c15.826-18.098,32.071-35.833,47.701-54.099c8.542-10.234,18.416-19.212,27.865-28.578c-6.251,22.087-13.078,44.021-19.58,66.038
			c-0.773,2.811-1.629,5.603-2.773,8.284c-4.633,11.666-8.752,23.526-13.143,35.282c-5.659,15.56-11.942,30.892-17.859,46.359
			c-2.261,6.387-3.873,13.013-6.702,19.186c-3.143,7.462-6.165,14.964-9.346,22.407c-5.495-0.169-10.927-1.14-16.425-1.055
			c-5.422,0.013-10.786-0.966-16.208-0.817c-10.537-0.647-21.077-1.489-31.64-1.167c0.107,0.356,0.336,1.068,0.445,1.419
			c-0.343-0.499-0.687-0.998-1.03-1.49c-7.591-0.235-15.214,0.305-22.772-0.532c-10.59-0.421-21.225,0.421-31.778-0.713
			c-6.899-0.198-13.819,0.235-20.678-0.648c-4.776,0.119-9.483-0.913-14.259-0.699c-16.649,0.143-33.344-0.692-49.951,0.629
			c-3.861,0.13-7.74-0.045-11.588,0.382c-3.971,0.414-7.975,0.058-11.937,0.57c-3.13,0.379-6.285,0.298-9.427,0.563
			c-10.157,1.01-20.347,1.821-30.501,2.882c-11.003,0.356-22.01,0.921-32.977,1.932l0.563-0.338c1.066-0.305,2.149-0.55,3.232-0.81
			c-5.647-0.764-11.231,0.692-16.848,1.114c-11.712,1.709-23.539,2.265-35.322,3.173c-5.688,0.783-11.42,0.964-17.125,1.542
			c-1.716-4.081-3.906-7.941-5.869-11.904c-4.318-8.039-8.303-16.26-12.658-24.279c-4.191-8-8.413-15.985-12.371-24.108
			c-9.833-21.479-18.94-43.282-28.842-64.729c-2.218-4.722-4.852-9.25-6.802-14.094c-3.211-8.129-6.362-16.284-9.698-24.361
			c-1.755-3.815-3.258-7.733-4.774-11.653c14.025,10.169,25.948,22.839,38.961,34.207c18.627,17.605,37.255,35.224,55.36,53.38
			c2.021,2.253,4.217,4.346,6.529,6.302c1.445-10.681,2.307-21.434,3.945-32.089c2.74-19.114,5.499-38.223,8.343-57.326
			c1.619-12.967,3.977-25.825,6.678-38.605c2.125,2.624,3.751,5.59,5.46,8.493c19.906,34.413,40.271,68.57,58.945,103.677
			c3.188-8.376,5.611-17.029,8.468-25.521c5.94-19.395,12.469-38.605,18.779-57.883
			C1920.911,100.438,1924.862,87.664,1930.024,75.351z"/>
	</g>
	<g id="_x23_000000ff_1_">
		<path fill="#010202" d="M1937.137,102.037c0.686,0.59,0.861,1.309,0.537,2.157C1936.91,103.618,1936.728,102.9,1937.137,102.037z"
			/>
		<path fill="#010202" d="M2027.693,111.729c2.422,11.503,4.877,23.001,7.008,34.563
			C2032.327,134.782,2029.893,123.277,2027.693,111.729z"/>
		<path fill="#010202" d="M1959.891,201.563c0.408-0.059,1.23-0.175,1.646-0.232
			C1961.527,202.275,1959.938,202.723,1959.891,201.563z"/>
	</g>
</g>
<path fill="#CE141F" d="M1950.492,531.891c-0.284-0.812-0.719-1.517-1.185-2.209c-1.982-1.739-3.355-4.025-5.177-5.906
	c-4.491-6.232-9.883-11.719-14.751-17.644c-6.697-8.143-14.191-15.604-20.751-23.852c-2.053-2.338-3.99-4.761-5.926-7.184
	c-2.999-3.652-5.869-7.416-8.99-10.979c-1.232-1.405-2.437-2.84-3.362-4.466c6.747-2.669,13.419-5.525,20.135-8.289
	c2.339-0.874,4.742-1.567,7.224-1.91c1.833-0.867,3.724-1.626,5.722-2.04c11.663-3.867,23.376-7.603,34.978-11.66
	c3.886-1.197,7.722-2.649,11.707-3.464c9.865,2.746,19.779,5.364,29.733,7.778c7.211,2.322,14.676,3.734,22.063,5.331
	c9.794,3.445,20.002,5.635,29.75,9.212c0.435,0.058,1.296,0.166,1.724,0.225c-0.025,1.103-0.064,2.204-0.08,3.316
	c-0.363-0.038-1.073-0.126-1.429-0.174c0.065,0.285,0.196,0.849,0.254,1.137c-1.237,0.116-1.427,1.172-1.602,2.163
	c-0.306,0.014-0.899,0.022-1.207,0.039c0.054,0.259,0.149,0.781,0.196,1.049c-1.223,0.133-1.414,1.191-1.555,2.209
	c-0.206-0.006-0.631-0.025-0.838-0.032c-0.666,0.952-1.176,2.007-1.896,2.928c-3.867,4.586-7.39,9.463-11.122,14.165
	c-1.316,2.08-3.267,3.702-4.391,5.907c-1.973,1.932-3.566,4.224-5.209,6.438c-1.354,1.544-2.499,3.268-4.073,4.605
	c-0.07,0.299-0.211,0.898-0.283,1.205c-1.113,1.062-2.172,2.189-3.238,3.304c0.046,0.152,0.129,0.451,0.175,0.597
	c-1.997,1.61-3.464,3.773-4.87,5.888c-0.785,0.751-1.502,1.581-1.975,2.572c-2.639,2.804-4.644,6.121-7.295,8.919
	c-1.034,1.444-2.125,2.871-3.453,4.067c0.025,0.156,0.085,0.465,0.11,0.622c-1.534,0.939-2.651,2.345-3.585,3.859
	c-1.326,1.214-1.994,3.116-3.688,3.919c0.046,0.163,0.135,0.487,0.183,0.653c-1.173,0.886-2.077,2.041-3.001,3.162
	c-1.451,1.786-3.492,3.096-4.49,5.233c-2.114,1.807-3.676,4.132-5.718,6.01c-1.745,1.861-3.99,3.233-5.386,5.416
	c-1.031-0.214-2.041-0.46-3.041-0.751L1950.492,531.891z"/>
<path fill="#010202" d="M2047.919,352.751c3.118-1.418,6.251-2.935,9.66-3.518c4.569-0.338,9.517-0.271,13.487,2.319
	c5.906,4.048,12.37,8.395,14.898,15.447c0.544,1.494,0.977,3.02,1.535,4.516c0.26,6.309,0.791,12.978-2.014,18.85
	c-1.094,1.317-2.148,2.667-3.304,3.931c-1.32,1.801-3.083,3.181-4.579,4.806c-0.226-0.018-0.674-0.055-0.894-0.077l-0.022,0.783
	l-0.821-0.072l0.108,0.923c-0.239-0.077-0.732-0.225-0.972-0.304c-1.244,1.217-2.714,2.148-4.308,2.824l0.188,0.452
	c-5.228,1.167-10.648,0.578-15.946,0.376c-1.179-0.323-2.404-0.421-3.617-0.435l-0.062-0.401c-1.312-0.181-2.585-0.459-3.843-0.844
	l-0.058-0.805c-0.31,0.088-0.938,0.246-1.248,0.324l0.253-0.939l-0.895,0.235l0.033-0.885c-0.227,0.026-0.679,0.078-0.9,0.104
	c-2.469-2.901-5.305-5.466-7.481-8.608l0.196-0.663l-0.939,0.197c0.046-0.307,0.145-0.926,0.189-1.23l-0.861-0.065
	c0.053-0.284,0.157-0.86,0.208-1.152l-0.675-0.053c-0.408-1.389-0.771-2.787-1.146-4.177c-0.195-1.102-0.395-2.203-0.632-3.284
	c-0.268-3.523-0.964-7.145,0.096-10.61c0.815-2.682,0.915-5.72,2.754-7.973C2039.446,358.705,2043.154,354.863,2047.919,352.751z"/>
<path fill="#010202" d="M1862.834,351.896c3.109-0.647,6.231-1.722,9.426-0.906c7.933-0.369,14.632,5.053,19.264,10.985
	c2.32,2.514,3.349,5.822,4.748,8.868c2.799,4.971,1.421,10.907,1.427,16.329c-0.596,1.769-1.255,3.518-1.923,5.257
	c-0.615,1.107-1.263,2.195-1.95,3.269c-0.553,0.55-1.097,1.107-1.641,1.671c-1.379,1.651-2.855,3.22-4.389,4.729
	c-0.899,0.887-1.799,1.774-2.618,2.74c-0.166,0.032-0.499,0.097-0.667,0.128c-0.842,0.507-1.691,1.01-2.521,1.54
	c-0.77,0.188-1.547,0.356-2.325,0.521l-0.058,0.331c-5.079,1.742-10.455,2.714-15.819,2.012c-3.686-1.38-7.669-1.941-11.076-4.011
	c-0.567-0.566-1.127-1.143-1.679-1.721l-0.265-0.006c-0.239-0.207-0.725-0.632-0.964-0.845l0.167-0.488l-0.514,0.013
	c-0.688-0.984-1.419-1.937-2.188-2.852c0.039-0.212,0.124-0.646,0.163-0.868l-0.512-0.057c-0.207-1.122-0.609-2.188-1.003-3.242
	l-0.395-0.104c-0.149-0.369-0.44-1.12-0.591-1.499c-1.146-2.501-2.116-5.076-2.662-7.773c-0.387-5.201-0.764-10.644,1.594-15.475
	c0.09-0.356,0.267-1.076,0.355-1.432c0.285-0.674,0.563-1.347,0.829-2.021c0.104-0.331,0.318-1.003,0.421-1.34
	c1.715-4.347,5.777-7.034,8.815-10.403C1857.151,354.176,1859.796,352.479,1862.834,351.896z"/>
<rect x="1536" fill="none" width="768" height="768"/>
<g>
	<path fill="#CE141F" d="M2708.778,67.525c2.135,5.211,2.9,10.855,4.438,16.262c4.871,18.674,8.807,37.569,12.618,56.478
		c0.659,4.411,2.135,8.657,2.558,13.105c2.438,12.196,5.529,24.263,8.048,36.445c0.37,1.803,0.895,3.578,1.679,5.255
		c1.985-2.614,3.247-5.671,4.889-8.495c8.897-19.162,17.908-38.274,27.153-57.266c5.492-11.585,11.419-22.968,16.663-34.67
		c4.228-8.32,8.027-16.846,11.913-25.329c1.316,1.743,1.542,3.987,2.149,6.03c2.823,11.35,4.449,22.935,6.823,34.377
		c4.109,21.262,8.052,42.564,12.326,63.802c1.033,4.892,1.455,9.958,3.22,14.667c4.063-7.617,7.386-15.611,11.37-23.273
		c9.01-18.583,18.297-37.023,27.502-55.515c6.337-12.878,12.124-26.063,19.358-38.486c0.382,0,1.149-0.007,1.535-0.007
		c0.696,2.146,0.858,4.404,1.041,6.634c1.198,6.791,1.534,13.685,2.51,20.502c0.932,10.85,2.669,21.614,3.526,32.47
		c0.949,3.876,0.649,7.896,1.403,11.792c1.764,17.784,4.444,35.463,6.452,53.219c-0.125,1.021,1.53,0.774,1.951,0.241
		c10.383-12.43,21.4-24.333,32.296-36.328c7.631-8.65,15.476-17.101,23.212-25.646c6.607-7.689,13.628-15.019,20.23-22.72
		c8.013-9.251,17.264-17.309,25.947-25.914c-0.357,2.309-1.104,4.514-1.809,6.732c-5.061,16.587-10.2,33.141-15.259,49.727
		c-1.864,5.119-3.221,10.446-5.014,15.603c-7.488,18.154-13.884,36.745-21.459,54.86c-0.943,3.245-2.278,6.348-3.53,9.476
		c-2.295,5.281-4.269,10.701-6.522,16.002c-2.856,6.574-4.562,13.58-7.266,20.222c-2.8,6.283-5.516,12.599-8.093,18.975
		c-0.896,1.918-1.521,4.006-2.751,5.75c-4.3,0.39-8.617-0.11-12.875-0.722c-4.142-0.208-8.287-0.293-12.409-0.775
		c-5.146-0.722-10.375-0.188-15.512-0.943c-3.76-0.596-7.577,0.373-11.312-0.435c-4.866-1.027-9.878-0.15-14.754-1.008
		c-1.86-0.247-3.738-0.201-5.607-0.072c-5.274,0.078-10.583,0.104-15.825-0.531c-6.513-0.254-13.035-0.137-19.549-0.286
		c-6.281-0.833-12.637-0.269-18.946-0.659c1.146-0.194,2.303-0.372,3.456-0.554c-4.387,0.176-8.796,0.255-13.166-0.111
		c-3.592-0.826-7.33-0.013-10.901-0.962c-5.148-1.072-10.478-0.077-15.692-0.643c-5.661,0.013-11.287-0.67-16.946-0.477
		c-3.702-0.162-7.393,0.334-11.089,0.209c-3.613,0.885-7.366,0.268-11.034,0.429c-8.28,0.397-16.573,0.644-24.86,0.657
		c-0.586-0.025-1.139,0.098-1.652,0.38c-4.832,0.11-9.639,0.766-14.491,0.69c-9.731,1.104-19.507,1.643-29.273,2.393
		c-3.044,0.118-6.107-0.007-9.13,0.417c-6.271,0.553-12.632-0.105-18.865,0.912c-1.412,0.065-2.301,1.254-3.237,2.146
		c0.715-0.717,1.171-1.626,1.463-2.582c-5.458-0.38-10.822,1.001-16.261,1.046c-1.681,0.722-3.538,0.774-5.333,0.879
		c-5.236,0.053-10.401,1.223-15.646,1.104c-5.456-0.19-10.842,0.937-16.292,0.885c-4.032,0.481-8.111,0.572-12.169,0.682
		c-5.545-10.972-10.728-22.121-16.472-32.99c-4.773-9.197-9.445-18.455-13.996-27.755c-8.435-19.26-16.383-38.722-24.99-57.902
		c-3.22-7.552-7.251-14.747-10.186-22.428c-2.536-6.83-5.039-13.671-7.819-20.405c-2.113-4.858-4.1-9.776-5.829-14.783
		c3.694,2.204,6.796,5.229,10.088,7.967c20.197,18.635,40.184,37.498,59.683,56.869c3.486,2.984,6.428,6.531,9.775,9.672
		c7.062,6.641,13.454,13.985,20.561,20.574c0.945-7.383,2.187-14.719,2.863-22.127c2.18-15.195,4.715-30.339,7.021-45.513
		c3.387-20.215,5.6-40.704,10.764-60.561c3.29,4.104,5.347,9.007,8.115,13.457c7.475,13.854,15.579,27.364,23.237,41.128
		c10.791,19.324,21.658,38.623,31.78,58.312c0.144-0.018,0.43-0.065,0.573-0.091c1.332-4.644,3.142-9.138,4.384-13.809
		c8.593-25.628,17.328-51.197,26.077-76.768C2701.228,87.416,2704.535,77.289,2708.778,67.525z"/>
	<g id="_x23_f44900ff_2_">
		<path fill="#E84C16" d="M2727.72,274.966c3.669-0.162,7.423,0.456,11.034-0.429c3.696,0.127,7.387-0.371,11.088-0.209
			c5.662-0.194,11.287,0.488,16.947,0.477c5.214,0.565,10.54-0.43,15.693,0.645c-13.592,0.521-27.165-1.184-40.764-0.367
			c-3.574,0.235-7.158-0.057-10.731,0.247c-3.481,0.403-7.02-0.071-10.439,0.788c-6.44,0.033-12.906,0.222-19.339-0.117
			c0.513-0.28,1.065-0.404,1.65-0.38C2711.144,275.611,2719.439,275.363,2727.72,274.966z"/>
		<path fill="#E84C16" d="M2743.479,452.095C2743.834,452.401,2743.834,452.401,2743.479,452.095z"/>
	</g>
	<g id="_x23_f0d68bff_4_">
		<path fill="#FDF39D" d="M2741.715,275.083c13.599-0.817,27.177,0.886,40.764,0.365c3.571,0.951,7.313,0.137,10.9,0.961
			c4.372,0.365,8.782,0.287,13.165,0.111c-1.151,0.182-2.31,0.359-3.455,0.555c6.31,0.389,12.665-0.176,18.948,0.658
			c6.513,0.149,13.035,0.032,19.546,0.286c5.243,0.636,10.55,0.61,15.827,0.531c4.39,6.596,8.514,13.366,12.578,20.171
			c3.533,8.501,6.647,17.177,9.767,25.842c4.703,12.853,9.152,25.797,13.318,38.824c2.557,8.203,5.517,16.313,7.173,24.763
			c3.234,12.509,6.693,24.958,9.92,37.466c0.906,3.168,0.42,6.521,1.353,9.687c2.619,20.071,6.304,39.999,8.301,60.134
			c2.003,16.701,4.021,33.381,5.943,50.084c-0.294,9.568,1.15,19.064,1.104,28.627c0.143,5.005,0.585,9.993,0.923,14.982
			c-0.374,7.396,0.976,14.727,0.958,22.118c-0.015,5.646,0.824,11.247,1.021,16.88c-0.234,5.893,0.301,11.766,0.769,17.633
			c0.515,4.28,0.085,8.592,0.3,12.893c-0.184,4.809,0.41,9.589,0.365,14.394c-0.019,3.038,0.689,6.037,0.56,9.083
			c-0.191,5.23,0.722,10.422,0.983,15.638c-0.127,3.461,0.297,6.911,0.667,10.349c0.617,4.762,0.087,9.574,0.737,14.342
			c0.778,6.479,0.461,13.01,0.73,19.521c0.381,8.68,0.084,17.382-0.716,26.021h-403.03c0.967-4.716,0.205-9.562,0.982-14.29
			c0.755-6.68,0.377-13.425,1.273-20.094c0.684-4.593,0.072-9.249,0.671-13.851c0.282-4.736,0.823-9.473,0.641-14.216
			c-0.259-7.617,1.135-15.155,1.087-22.759c0.098-5.237,1.119-10.421,0.913-15.663c0.124-5.197,1.21-10.343,1.015-15.552
			c0.022-11.074,1.509-22.115,0.981-33.192c-0.006-6.947,0.976-13.852,1.029-20.801c-0.019-3.936,1.029-7.773,1.002-11.701
			c-0.032-2.864,0.721-5.647,0.87-8.479c0.12-3.944,1.288-7.748,1.189-11.702c0.996-4.523,0.749-9.192,1.724-13.718
			c0.046-4.878,1.186-9.64,1.335-14.512c0.683-3.115,0.839-6.276,0.969-9.444c0.949-4.554,0.684-9.235,1.672-13.782
			c0.109-4.773,1.178-9.471,1.223-14.245c0.137-2.617,0.942-5.15,0.921-7.775c-0.084-3.733,1.157-7.338,1.041-11.063
			c2.946-25.675,6.206-51.307,11.546-76.637c1.065-6.79,4.345-12.911,6.742-19.286c9.672-23.206,19.701-46.272,30.384-69.038
			c1-2.032,1.664-4.276,3.165-6.017c7.418-9.327,14.733-18.746,22.696-27.625c0.938-0.889,1.826-2.08,3.236-2.146
			c6.232-1.016,12.593-0.358,18.867-0.912c3.021-0.421,6.086-0.3,9.129-0.416c9.766-0.749,19.54-1.288,29.273-2.393
			c4.853,0.077,9.659-0.58,14.492-0.69c6.432,0.338,12.897,0.149,19.338,0.117c3.42-0.858,6.958-0.384,10.438-0.788
			C2734.558,275.025,2738.142,275.318,2741.715,275.083"/>
	</g>
</g>
<path fill="#010202" d="M2819.654,351.081c3.324-1.371,6.551-3.212,10.152-3.747c3.24-0.072,6.57-0.318,9.751,0.475
	c3.753,1.345,6.882,3.921,10.05,6.277c3.863,2.83,7.442,6.603,8.741,11.322c0.3,0.202,0.898,0.604,1.197,0.81
	c-0.094,0.195-0.306,0.584-0.403,0.778c0.617,3.085,1.808,6.086,1.371,9.294c0.269-0.045,0.794-0.141,1.062-0.188
	c-0.372,0.163-1.12,0.483-1.491,0.643c0.437,3.389-0.545,6.629-0.993,9.94c-1.492,2.557-3.197,5.143-5.333,7.135
	c-1.784,2.543-4.585,4.098-6.959,6.023c-0.919,0.774-1.999,1.322-3.155,1.627c0.018,0.27,0.052,0.806,0.069,1.077
	c-7.244,0.682-14.501,0.224-21.697-0.619c-1.216-1.048-2.81-1.489-4.052-2.491c-3.357-2.555-6.121-5.815-8.606-9.201
	c-3.538-4.695-3.825-10.797-4.452-16.408c0.098-3.919,1.414-7.749,2.571-11.472C2810.555,357.729,2814.639,353.586,2819.654,351.081
	z"/>
<path fill="#010202" d="M2633.451,350.137c2.366-0.426,4.681-1.143,7.075-1.401c2.603,0.127,5.185,0.493,7.786,0.673
	c6.258,1.756,11.408,6.198,15.149,11.391c2.453,2.562,3.179,6.158,4.813,9.218c1.899,3.33,1.137,7.271,1.276,10.933
	c0.109,4.28-1.373,8.378-3.388,12.083c-3.13,3.558-6.167,7.247-9.824,10.29c-2.445,1.887-5.523,2.445-8.373,3.44
	c-5.099,1.525-10.775,2.103-15.824,0.089c-2.842-0.357-5.463-1.562-7.928-2.968c-2.537-1.642-4.221-4.203-5.997-6.568
	c-0.271-2.943-2.427-5.292-3.305-8.069c-1.847-4.892-1.71-10.226-1.427-15.357c0.885-3.737,2.207-7.375,3.637-10.941
	c0.849-2.277,2.936-3.674,4.459-5.462c1.729-1.724,3.147-3.98,5.58-4.781C2629.313,351.979,2631.179,350.528,2633.451,350.137z"/>
<path fill="#CE141F" d="M2733.571,416.854c2.961-1.697,5.343-4.287,8.448-5.743c1.301,0.095,2.426,0.846,3.516,1.515
	c10.168,5.782,20.426,11.467,30.334,17.699c6.102,3.088,11.496,7.354,17.533,10.558c4.07,2.687,8.43,4.923,12.428,7.733
	c2.484,1.809,5.791,2.134,8.028,4.316c2.179,1.901,4.417,3.737,6.68,5.551c-1.81,1.681-4.202,2.475-6.198,3.881
	c-3.242,2.473-6.615,4.83-10.281,6.627c-0.162,0.317-0.475,0.962-0.637,1.282c-3.663,1.578-7.13,3.649-10.174,6.226
	c-2.438,2.719-5.904,4.136-9.041,5.86c-2.432,1.718-5.106,3.103-7.311,5.125c-2.778,1.125-4.918,3.27-7.492,4.754
	c-1.156,0.627-1.736,2.057-3.149,2.224c-2.597,0.495-3.918,3.008-6.168,4.088c-2.603,2.394-5.802,4.029-8.587,6.219
	c-2.326,0.768-3.836,3.016-6.263,3.468c-0.561-0.66-1.113-1.289-1.681-1.92c-1.937,0.062-3.317-1.354-4.587-2.611
	c-1.146-1.281-3.138-0.992-4.361-2.174c-3.422-2.75-7.421-4.592-10.954-7.188c-5.379-3.037-10.53-6.445-15.908-9.476
	c-4.174-3.188-9.268-4.827-13.457-8.002c-3.212-1.802-6.275-3.842-9.449-5.704c-6.237-2.9-12.008-6.726-18.16-9.822
	c10.588-6.566,21.146-13.196,31.486-20.149c4.977-3.761,10.297-6.995,15.441-10.51c4.307-3.333,9.012-6.087,13.445-9.234
	C2729.239,419.933,2731.285,418.214,2733.571,416.854 M2743.479,452.095C2743.834,452.401,2743.834,452.401,2743.479,452.095z"/>
<path fill="#E84C16" d="M2729.201,372.807c4.124-5.12,7.964-10.556,12.795-15.043l0.701,0.084
	c14.268,16.084,26.769,33.634,40.917,49.811c5.138,6.342,10.51,12.502,15.549,18.929c7.738,10.049,16.139,19.564,23.683,29.771
	c0.849,1.078-0.324,2.275-0.871,3.196c-2.264,3.585-5.673,6.192-8.182,9.575c-5.146,5.457-9.843,11.305-14.764,16.957
	c-4.17,6.157-9.307,11.584-13.778,17.516c-4.794,6.237-10.06,12.118-14.741,18.445c-6.338,7.491-12.785,14.91-18.981,22.533
	c-0.856-0.018-1.712-0.027-2.562-0.027c-1.316-1.317-2.65-2.623-4.247-3.593c-0.724-1.477-2.509-1.764-3.341-3.136
	c-1.319-2.062-3.646-3.087-4.999-5.106c-12.497-12.139-24.79-24.506-37.551-36.382c-5.003-3.887-9.789-8.033-14.752-11.968
	c-1.979-1.445-3.461-3.409-5.315-4.99c-5.261-4.459-10.277-9.197-15.184-14.049c-1.71-1.644,0.47-3.292,1.38-4.646
	c15.437-21.789,31.248-43.3,47.151-64.743C2717.592,388.072,2723.666,380.638,2729.201,372.807 M2733.571,416.854
	c-2.29,1.356-4.332,3.078-6.522,4.586c-4.434,3.147-9.139,5.904-13.446,9.234c-5.146,3.516-10.463,6.75-15.439,10.511
	c-10.342,6.953-20.899,13.58-31.488,20.149c6.154,3.097,11.923,6.922,18.161,9.822c3.174,1.86,6.236,3.902,9.449,5.704
	c4.189,3.174,9.283,4.813,13.455,8.002c5.381,3.03,10.531,6.438,15.911,9.476c3.53,2.596,7.53,4.437,10.954,7.188
	c1.223,1.179,3.215,0.892,4.361,2.174c1.269,1.256,2.648,2.673,4.587,2.608c0.563,0.632,1.118,1.26,1.68,1.922
	c2.427-0.452,3.938-2.699,6.263-3.466c2.786-2.186,5.984-3.825,8.588-6.224c2.253-1.078,3.572-3.59,6.167-4.084
	c1.412-0.166,1.994-1.601,3.15-2.223c2.572-1.489,4.714-3.631,7.492-4.755c2.204-2.022,4.878-3.408,7.31-5.125
	c3.136-1.723,6.603-3.141,9.043-5.86c3.045-2.576,6.513-4.646,10.171-6.228c0.163-0.316,0.476-0.96,0.639-1.281
	c3.666-1.796,7.038-4.157,10.282-6.628c1.998-1.403,4.389-2.197,6.197-3.88c-2.264-1.813-4.499-3.649-6.681-5.555
	c-2.238-2.179-5.543-2.504-8.028-4.312c-3.999-2.811-8.359-5.047-12.428-7.733c-6.038-3.2-11.432-7.468-17.531-10.559
	c-9.91-6.23-20.168-11.917-30.338-17.7c-1.088-0.668-2.212-1.418-3.514-1.514C2738.917,412.567,2736.533,415.156,2733.571,416.854z"
	/>
<rect x="2304" fill="none" width="768" height="768"/>
<path fill="#CE141F" d="M3538.585,124.159c11.085-34.541,21.736-69.219,32.165-103.954c0.576-0.013,1.735-0.044,2.312-0.064
	c1.244,2.643,1.549,5.571,2.273,8.37c5.572,22.175,10.24,44.569,15.205,66.898c1.896,8.668,3.362,17.44,5.421,26.067
	c3.032,16.416,7.231,32.618,10.132,49.054c0.824-0.511,1.69-0.992,2.344-1.738c8.105-8.524,16.264-16.998,24.605-25.303
	c8.228-8.189,16.049-16.779,24.289-24.96c4.762-4.754,9.188-9.821,13.773-14.737c9.211-9.555,18.456-19.078,27.461-28.827
	c3.718-3.466,7.145-7.34,11.467-10.08c-0.459,2.712-0.74,5.46-1.275,8.162c-8.324,47.115-19.721,93.608-29.057,140.516
	c9.16-3.317,18.257-6.828,27.28-10.5c18.242-7.185,36.453-14.465,54.778-21.456c12.573-5.098,25.244-9.963,37.941-14.751
	c7.688-2.378,15.266-5.37,23.308-6.4c-1.86,2.657-4.271,4.846-6.375,7.295c-7.767,8.402-15.573,16.766-23.169,25.33
	c-7.684,8.098-14.841,16.667-22.578,24.721c-2.654,3.375-5.88,6.238-8.66,9.503c-8.225,8.621-16.175,17.517-24.369,26.17
	c-5.873,6.213-11.647,12.522-17.328,18.909c-9.626,10.135-18.73,20.76-28.441,30.809c-1.464-0.448-2.891-0.992-4.303-1.563
	c-7.15-2.084-14.148-4.656-21.223-6.982c-12.288-4.314-24.686-8.3-37.055-12.393c-1.252-0.468-2.577-0.708-3.883-0.955
	c0.041,0.41,0.117,1.226,0.156,1.636c-0.668-0.869-1.36-1.855-2.47-2.158c-4.365-1.354-8.902-2.099-13.254-3.486
	c-4.281-1.508-8.831-1.942-13.279-2.714c-16.603-2.812-33.259-5.241-49.932-7.546c-4.745-0.654-9.523-0.704-14.262-1.282
	c-3.855-0.091-7.719-0.071-11.571-0.272c-8.182-0.879-16.412-0.348-24.615-0.395c-4.34-0.155-8.622,0.765-12.963,0.614
	c-6.268,0.5-12.488,1.499-18.652,2.748c-10.491,1.25-20.857,3.349-31.224,5.392c-6.355,0.963-12.567,2.635-18.837,4.003
	c-5.232,0.81-10.279,2.479-15.471,3.495c-1.282,0.229-2.512,0.688-3.607,1.394c0.038-0.336,0.117-1.01,0.156-1.348
	c-4.224,1.146-8.518,2.001-12.677,3.341c-5.313,1.464-10.736,2.527-16.019,4.081c-9.6,2.273-19.46,3.673-28.84,6.867
	c-3.232-3.271-6.623-6.38-10.065-9.418c-5.441-5.319-11.098-10.406-16.733-15.502c-13.28-12.912-27.506-24.778-41.518-36.866
	c-9.044-8.234-18.682-15.787-27.557-24.202c-9.615-8.759-19.363-17.375-29.515-25.518c-7.655-6.77-15.993-12.743-23.675-19.492
	c2.619-0.338,4.435-3.687,7.205-2.333c31.949,9.815,63.219,21.644,94.734,32.729c12.023,4.347,24.124,8.466,36.025,13.15
	c-0.227-5.189-1.398-10.274-1.618-15.458c-0.449-2.798-0.908-5.597-0.925-8.428c-1.082-9.068-1.847-18.17-2.786-27.252
	c-0.085-5.616-0.835-11.187-1.12-16.785c0.165-6.931-0.702-13.831-0.654-20.756c-0.016-2.604-0.047-5.208-0.214-7.806
	c-0.343-5.597,0.116-11.226-0.415-16.817c-0.233-4.955-0.457-9.917-0.362-14.873c0.317,0.065,0.958,0.194,1.279,0.258
	c5.329,5.545,10.835,10.929,16.581,16.055c9.143,8.539,17.944,17.432,27.052,26.009c9.918,9.075,19.207,18.786,28.854,28.133
	c6.18,6.128,12.406,12.207,18.534,18.392c5.124,4.786,9.819,10.054,15.151,14.608c2.149-10.774,4.476-21.513,6.958-32.215
	c9.083-35.637,16.475-71.681,24.889-107.471c0.325-1.763,0.52-3.578,1.282-5.223c0.663-3.666,1.84-7.216,2.449-10.895
	c0.129-1.043,0.529-1.996,1.271-2.767c4.003,8.771,7.807,17.634,11.628,26.481c5.117,12.6,10.618,25.051,15.3,37.827
	c2.078,5.344,4.277,10.657,5.897,16.169c6.737,18.605,13.345,37.269,19.376,56.119c2.204,5.196,3.034,10.896,5.585,15.943
	C3527.238,159.789,3532.986,141.993,3538.585,124.159z"/>
<g id="_x23_f0d68bff_5_">
	<path fill="#FDF39D" d="M3483.425,265.698c4.341,0.15,8.624-0.771,12.964-0.615c8.204,0.046,16.434-0.485,24.613,0.394
		c3.851,0.203,7.712,0.181,11.572,0.272c4.739,0.579,9.518,0.629,14.26,1.282c16.675,2.306,33.329,4.737,49.933,7.546
		c4.45,0.773,8.997,1.207,13.278,2.715c4.354,1.388,8.89,2.131,13.254,3.486c1.105,0.304,1.801,1.289,2.471,2.158
		c2.721,4.075,5.232,8.278,7.807,12.456c1.236,2.346,3.015,4.406,3.886,6.946c7.775,20.037,14.933,40.312,21.643,60.725
		c2.714,9.051,6.085,17.933,7.903,27.221c2.844,11.084,5.927,22.097,8.795,33.174c0.916,3.125,1.696,6.339,1.659,9.617
		c2.28,15.298,4.515,30.596,6.795,45.894c0.126,3.334,1.335,6.521,1.177,9.879c1.375,10.535,2.354,21.119,3.869,31.642
		c0.125,3.938,1.146,7.773,1.178,11.725c0.933,4.039,0.892,8.208,1.556,12.288c0.583,3.867,0.122,7.78,0.344,11.667
		c0.466,6.452,1.044,12.906,1.019,19.375c0.164,7.172,1.159,14.297,0.924,21.481c1.066,9.691,0.72,19.475,1.809,29.172
		c0.44,4.229-0.117,8.492,0.318,12.729c0.386,3.31,0.315,6.665,0.768,9.985c0.17,10.531,0.121,21.105,1.043,31.62
		c-0.162,5.856,0.592,11.666,1.029,17.499c-0.271,5.219,0.922,10.355,0.992,15.574c-0.163,7.136,1.271,14.217,0.979,21.362
		c0.207,11.014,0.583,22.065-0.556,33.038h-401.51c0.593-4.081,0.72-8.193,0.745-12.3c1.138-7.941,0.648-15.976,1.665-23.926
		c0.519-4.049-0.071-8.137,0.486-12.172c0.466-6.944,0.876-13.883,0.772-20.847c0.362-5.637,1.145-11.259,1.055-16.915
		c0.045-4.762,0.985-9.464,0.934-14.226c-0.188-5.006,1.056-9.923,0.972-14.928c-0.032-6.049,0.315-12.084,0.639-18.123
		c0.916-8.62-0.195-17.317,0.729-25.932c0.439-4.54,0.567-9.087,0.748-13.631c0.836-5.817,0.916-11.685,1.787-17.492
		c0.032-3.882,1.316-7.625,1.137-11.517c1.006-4.736,0.829-9.601,1.802-14.344c-0.052-4.594,1.191-9.056,1.21-13.649
		c0.506-3.006,1.023-6.012,0.946-9.076c0.907-4.469,0.764-9.049,1.613-13.516c0.796-7.347,1.198-14.728,2.24-22.045
		c-0.157-3.951,1.134-7.774,1.05-11.719c3.07-26.684,6.542-53.328,12.294-79.622c1.555-5.233,3.953-10.167,5.883-15.269
		c9.932-23.729,20.172-47.331,31.141-70.61c1.043-2.98,3.199-5.312,5.092-7.767c7.105-8.596,13.752-17.594,21.493-25.653
		c1.095-0.706,2.325-1.166,3.608-1.394c5.188-1.017,10.235-2.688,15.47-3.495c6.271-1.367,12.483-3.038,18.837-4.003
		c10.366-2.041,20.731-4.141,31.225-5.392C3470.936,267.195,3477.158,266.197,3483.425,265.698"/>
</g>
<path fill="#010202" d="M3595.217,349.356c5.178-0.707,11.047-0.946,15.496,2.306c4.388,3.155,9.115,6.148,12.182,10.727
	c2.116,3.341,3.485,7.187,4,11.104c0.019,4.302,0.41,8.694-0.866,12.879c-0.396,3.465-2.954,6.083-5.233,8.508
	c-2.968,3.663-7.023,6.252-11.138,8.464c-1.91,1.192-4.255,0.885-6.394,0.957c-5.318-0.09-10.799-0.104-15.877-1.833
	c-5.454-3.006-9.409-8.136-12.742-13.286c-1.489-3.03-1.989-6.457-2.296-9.794c-0.513-2.798-0.687-5.746,0.183-8.491
	c0.737-2.583,0.944-5.417,2.428-7.723c3.09-4.203,6.885-8.051,11.611-10.398C3589.427,351.591,3592.187,350.088,3595.217,349.356z"
	/>
<path fill="#010202" d="M3405.041,350.949c3.614-0.966,7.325-0.077,10.98,0.143c6.174,1.8,11.256,6.186,15.035,11.284
	c1.8,1.904,2.618,4.438,3.693,6.777c0.887,2.286,2.306,4.443,2.396,6.963c0.098,2.571,0.048,5.147-0.023,7.721
	c-0.149,3.875-1.581,7.577-3.529,10.888c-2.729,3.384-5.733,6.545-8.843,9.581c-2.802,2.151-6.335,2.944-9.626,4.069
	c-4.548,1.165-9.503,1.885-14.044,0.33c-3.408-1.036-7.088-1.612-9.989-3.836c-2.012-1.773-3.682-3.899-5.269-6.048
	c0.011-0.391,0.017-1.174,0.021-1.57c-3.473-5.267-5.234-11.628-5.026-17.95c-0.092-4.035,1.534-7.799,2.746-11.571
	c0.759-1.958,1.334-4.106,2.89-5.603c2.157-2.241,4.229-4.572,6.478-6.718C3396.729,353.36,3400.727,351.571,3405.041,350.949z"/>
<path fill="#CE141F" d="M3506.393,374.393c0.993-1.062,2.055-2.08,3.377-2.734c6.962,9.051,14.354,17.775,21.09,26.99
	c4.408,5.714,8.581,11.595,13.111,17.224c5.579,6.591,10.396,13.76,15.778,20.509c2.481,3.926,6.065,7.034,8.456,11.034
	c1.186,2.202,3.412,3.601,4.477,5.89c1.703,2.363,3.528,4.747,5.889,6.505c0.465,1.339-1.69,1.715-2.439,2.51
	c-6.051,4.743-11.946,9.698-18.142,14.281c-3.134,2.889-6.843,5.2-9.526,8.508c-1.273,0.917-2.449,1.943-3.737,2.837
	c-2.975,1.964-5.269,4.846-8.516,6.42c-2.566,2.84-5.892,4.818-8.76,7.333c-3.973,3.394-8.218,6.445-12.226,9.788
	c-3.318,1.933-5.807,4.988-9.162,6.859c-1.431,0.751-2.695,1.776-4.108,2.564c-0.92,0.261-1.518-0.724-2.148-1.19
	c-4.081-4.128-8.578-7.815-12.834-11.746c-2.352-2.637-5.259-4.666-7.851-7.041c-7.09-6.774-14.627-13.065-21.283-20.262
	c-3.395-2.592-6.394-5.661-9.56-8.519c-3.231-4.122-7.712-7.035-10.929-11.155c-1.49-1.898-3.9-2.846-5.183-4.917
	c1.728-1.645,3.27-3.486,4.901-5.228c8.888-11.324,19.414-21.219,28.672-32.21c4.762-5.377,9.842-10.46,14.351-16.055
	C3489.087,393.399,3497.099,383.293,3506.393,374.393z"/>
<g id="_x23_f44900ff_3_">
	<path fill="#E84C16" d="M3515.811,324.863c1.034-1.058,2.014,0.64,2.622,1.354c6.999,9.937,13.515,20.199,20.077,30.42
		c8.073,11.701,13.582,24.857,20.246,37.354c5.927,11.65,11.998,23.23,18.378,34.645c3.764,7.294,8.146,14.237,12.748,21.027
		c1.318,1.736,2.479,3.575,3.474,5.521c-6.888,9.155-14.439,17.801-21.514,26.816c-6.581,8.102-13.214,16.159-19.681,24.354
		c-3.803,4.819-8.019,9.3-11.619,14.283c-8.169,9.749-16.597,19.246-25.077,28.718c-2.009,2.119-4.375,3.971-5.756,6.602
		c-1.465,1.755-3.635,2.869-4.77,4.943c-0.777-0.008-1.55-0.019-2.314-0.019c-4.354-3.445-7.023-8.46-11.172-12.101
		c-1.586-1.643-2.92-3.544-4.751-4.933c-3.877-4.872-8.544-9.096-12.262-14.11c-5.241-6.249-10.834-12.196-16.034-18.477
		c-5.693-6.617-11.24-13.357-16.979-19.927c-8.143-9.887-16.188-19.887-25.012-29.192c-0.415-2.761,0.82-5.243,2.692-7.176
		c7.159-10.088,14.804-19.823,21.834-29.996c4.901-6.735,9.871-13.436,15.008-19.993c12.621-17.161,24.889-34.576,37.992-51.373
		c4.846-6.783,10.142-13.228,15.073-19.946C3511.28,330.718,3513.25,327.543,3515.811,324.863 M3506.393,374.393
		c-9.295,8.901-17.306,19.006-26.303,28.194c-4.509,5.596-9.589,10.678-14.352,16.056c-9.258,10.996-19.784,20.884-28.672,32.209
		c-1.633,1.741-3.174,3.582-4.902,5.229c1.281,2.071,3.692,3.015,5.183,4.917c3.222,4.119,7.696,7.033,10.929,11.155
		c3.166,2.856,6.166,5.927,9.56,8.519c6.657,7.195,14.193,13.486,21.284,20.263c2.589,2.374,5.5,4.404,7.852,7.042
		c4.256,3.929,8.752,7.616,12.832,11.743c0.631,0.467,1.227,1.452,2.148,1.192c1.414-0.79,2.679-1.816,4.106-2.564
		c3.357-1.873,5.847-4.928,9.165-6.86c4.006-3.344,8.252-6.395,12.225-9.788c2.871-2.515,6.195-4.494,8.761-7.333
		c3.247-1.574,5.544-4.46,8.516-6.42c1.287-0.894,2.467-1.924,3.736-2.836c2.69-3.309,6.397-5.621,9.53-8.51
		c6.193-4.579,12.088-9.537,18.141-14.281c0.749-0.797,2.908-1.173,2.441-2.51c-2.361-1.757-4.185-4.141-5.891-6.504
		c-1.064-2.287-3.289-3.687-4.476-5.891c-2.392-3.996-5.975-7.105-8.455-11.034c-5.382-6.75-10.203-13.921-15.78-20.509
		c-4.529-5.627-8.703-11.51-13.109-17.222c-6.738-9.217-14.13-17.939-21.091-26.991
		C3508.447,372.313,3507.386,373.331,3506.393,374.393z"/>
</g>
<rect x="3072" fill="none" width="768" height="768"/>
<g>
	<path fill="#CE141F" d="M4331.936,8.447c0.855-0.155,1.73-0.213,2.604-0.298c5.48,22.122,10.567,44.335,15.568,66.575
		c3.479,14.537,6.115,29.261,9.346,43.856c2.877,13.253,5.826,26.495,8.694,39.749c2.722-1.938,4.925-4.47,7.196-6.893
		c13.635-14.226,27.43-28.301,41-42.586c5.338-6.083,11.254-11.635,16.521-17.789c5.255-5.344,10.274-10.915,15.527-16.266
		c7.491-7.574,14.257-15.995,22.887-22.337c-1.165,9.951-3.22,19.765-5.046,29.611c-6.963,36.264-15.023,72.302-22.428,108.474
		c-0.691,3.402-1.632,6.776-1.75,10.275c8.274-2.709,16.24-6.257,24.354-9.393c11.887-4.865,23.761-9.763,35.738-14.407
		c9.982-3.758,19.895-7.683,29.816-11.583c11.336-4.586,22.602-9.373,34.25-13.137c6-2.034,12.045-4.075,18.371-4.782
		c-5.873,7.282-12.549,13.889-18.691,20.944c-5.149,5.422-10.127,10.993-15.156,16.513c-18.51,21.164-37.689,41.725-56.672,62.468
		c-13.137,14.33-26.242,28.698-39.295,43.118c-15.82-5.273-31.664-10.456-47.512-15.67c-9.758-2.934-19.343-6.517-29.27-8.855
		c0.849,1.567,1.902,3.017,3.129,4.32c-1.562-1.594-3.016-3.479-5.196-4.206c-9.369-3.329-19.452-3.602-29.041-5.972
		c-0.155-0.059-0.466-0.181-0.631-0.247l-0.765-0.306c-13.325-2.254-26.774-3.756-40.178-5.526
		c-15.108-1.288-30.286-1.327-45.43-1.216c-3.686,0.09-7.351,0.415-11.033,0.474c-4.768,0.517-9.6,0.343-14.297,1.497
		c-16.453,2.37-32.818,5.331-49.07,8.849c-2.875,0.701-6.045,0.934-8.396,2.928l0.109-1.145
		c-21.328,4.638-42.167,11.361-63.596,15.547c-3.861,0.764-7.611,1.976-11.447,2.85c-0.252,0.22-0.751,0.668-1.004,0.889
		c-4.027-3.513-8.025-7.068-11.865-10.787c-7.892-7.417-16.148-14.446-24.028-21.882c-8.919-8.014-17.903-15.963-27.192-23.555
		c-12.562-10.954-25.316-21.688-37.632-32.928c-11.143-10.054-22.628-19.72-34.474-28.938c-4.901-3.958-9.949-7.767-14.426-12.225
		c1.594-0.94,3.181-1.897,4.73-2.922c10.233,3.142,20.46,6.317,30.58,9.827c28.846,9.872,57.661,19.861,86.41,30.02
		c5.383,2.001,10.716,4.152,16.189,5.927c-1.711-13.39-3.33-26.793-4.824-40.202c-0.663-10.138-2.061-20.231-2.189-30.396
		c-0.562-6.049-0.416-12.132-0.895-18.184c0.43-13.331-1.411-26.592-1.01-39.917c3.608,3.188,7.172,6.419,10.551,9.846
		c7.496,7.185,15.244,14.104,22.674,21.359c10.398,10.105,20.943,20.062,31.328,30.188c9.574,9.665,19.377,19.09,29.019,28.69
		c4.703,4.478,9.14,9.251,14.167,13.371c0.946-3.005,1.406-6.134,2.06-9.211c3.945-20.963,9.996-41.466,14.154-62.377
		c6.491-29.177,12.775-58.399,19.564-87.505c2.628,4.464,4.411,9.342,6.556,14.038c10.202,23.418,20.189,46.947,28.916,70.961
		c3.195,9.808,6.803,19.486,10.239,29.217c4.298,12.91,8.62,25.809,13.002,38.687c2.028-4.347,3.247-9.005,4.81-13.526
		c6.105-18.423,11.647-37.028,17.534-55.53c8.644-27.985,17.479-55.919,25.316-84.15C4330.861,11.239,4331.186,9.756,4331.936,8.447
		"/>
	<path fill="#010202" d="M4248.855,253.356c3.68-0.058,7.346-0.382,11.031-0.473c15.145-0.11,30.322-0.072,45.43,1.216
		c13.404,1.769,26.852,3.271,40.178,5.526l0.766,0.306c-1.365-0.104-2.732-0.201-4.095-0.317c-1.296-0.317-2.624-0.518-3.933-0.713
		c-1.497-0.265-2.992-0.441-4.488-0.628c-13.546-1.893-27.079-4.562-40.807-4.677c-1.225,0.512-2.592,0.543-3.777-0.078
		c-7.146-0.519-14.328-0.149-21.482-0.641c-6.662,0.064-13.373,0.117-19.973,1.102c-4.391,0.13-8.803,0.072-13.145,0.875
		C4239.256,253.7,4244.088,253.874,4248.855,253.356z"/>
	<path fill="#FDF39D" d="M4247.702,253.979c6.598-0.985,13.31-1.036,19.972-1.102c7.154,0.492,14.337,0.123,21.484,0.641
		c1.185,0.622,2.552,0.59,3.775,0.078c13.729,0.117,27.262,2.787,40.807,4.677c1.496,0.188,2.992,0.363,4.489,0.629
		c1.312,0.196,2.636,0.396,3.933,0.712c1.359,0.117,2.727,0.214,4.095,0.317c0.163,0.064,0.476,0.188,0.63,0.247
		c9.588,2.369,19.674,2.643,29.041,5.972c2.184,0.725,3.634,2.61,5.195,4.206c7.501,7.61,12.801,16.971,18.366,26.001
		c2.618,3.908,3.847,8.501,5.675,12.789c8.914,24.13,17.57,48.39,24.83,73.08c2.438,10.143,5.086,20.237,7.878,30.292
		c1.588,6.827,4.171,13.496,4.425,20.57c2.506,17.044,5.092,34.088,7.547,51.145c2.051,20.354,4.961,40.585,7.025,60.932
		c0.616,5.125-0.055,10.313,0.597,15.44c0.386,5.033,0.608,10.086,0.858,15.133c-0.265,3.795-0.156,7.624,0.065,11.421
		c1.004,4.208,0.025,8.575,0.711,12.819c0.507,2.196,0.286,4.46,0.474,6.699c1.218,6.412-0.149,13.05,1.096,19.466
		c0.439,4.696-0.143,9.442,0.307,14.139c0.744,3.231,0.188,6.599,0.957,9.833c0.277,8.188-0.053,16.391,0.26,24.578
		c0.893,4.277,0.449,8.652,0.607,12.988c0.643,5.369,1.257,10.747,1.282,16.168c1.089,5.325,0.408,10.8,0.72,16.188
		c0.523,3.007,0.568,6.071,1.102,9.084c0.057,9.504,0.148,19.015,0.057,28.515c0.11,3.479-0.977,6.866-0.559,10.364h-401.516
		c0.308-3.673,0.842-7.333,0.818-11.024c-0.084-5.424,1.06-10.778,0.956-16.2c-0.065-5.2,0.804-10.337,0.995-15.517
		c0.09-6.284,0.46-12.561,0.773-18.839c0.439-4.702,0.006-9.431,0.408-14.135c0.239-3.521,0.73-7.01,0.777-10.533
		c0.055-2.357-0.064-4.723,0.226-7.061c0.511-4.508,0.915-9.03,0.849-13.569c0.42-5.18,1.059-10.341,0.955-15.544
		c-0.006-11.05,1.296-22.055,0.984-33.106c-0.246-6.726,1.005-13.373,1.096-20.075c0.562-5.836,0.946-11.686,1.768-17.485
		c1.533-13.603,3.016-27.209,4.354-40.837c0.369-2.352,0.77-4.703,0.764-7.088c2.391-21.811,4.263-43.668,6.944-65.447
		c2.755-20.382,5.531-40.805,10.167-60.868c1.688-5.559,4.197-10.824,6.308-16.224c10.047-24.195,20.587-48.197,31.781-71.887
		c1.256-1.937,2.727-3.731,4.192-5.513c8.35-10.235,16.194-21.002,25.985-29.942c3.812-3.742,8.107-6.944,12.107-10.475
		c2.353-1.995,5.519-2.228,8.396-2.928c16.253-3.518,32.617-6.479,49.07-8.848C4238.898,254.049,4243.311,254.107,4247.702,253.979"
		/>
</g>
<path fill="#CE141F" d="M4270.092,334.546c0.719-1.341,1.621-2.565,2.561-3.75c8.244,13.986,15.723,28.399,23.458,42.67
	c8.082,16.484,15.7,33.181,23.097,49.986c2.912,8.182,7.157,15.812,10.277,23.896c-0.246,5.759-2.863,11.117-3.45,16.831
	c-0.538,5.396-2.257,10.564-3.097,15.903c-1.271,5.461-1.966,11.045-3.381,16.472c-1.419,5.442-1.691,11.149-3.654,16.455
	c-2.008,5.291-3.283,10.826-4.832,16.261c-3.7,11.09-6.867,22.356-10.051,33.602c-3.025,8.402-4.588,17.246-7.537,25.665
	c-0.71,2.1-1.073,4.322-2.061,6.317c-2.146,0.316-2.763-2.281-3.744-3.647c-7.915-12.256-16.478-24.086-24.758-36.097
	c-10.268-16.23-19.842-32.885-29.532-49.466c-3.259-6.348-7.151-12.334-10.689-18.527c-3.368-6.006-7.333-11.652-11.064-17.419
	c0.291-3.049,1.91-5.828,2.694-8.777c1.988-5.118,3.094-10.562,5.511-15.515c10.534-23.05,19.9-46.616,30.677-69.556
	c2.856-6.085,5.363-12.339,8.438-18.326C4262.275,349.686,4266.001,342.008,4270.092,334.546z"/>
<path fill="#E84C16" d="M4262.815,277.177c0.521-1.335,2.017-0.72,2.34,0.409c6.181,10.851,12.469,21.649,18.624,32.513
	c6.85,12.976,13.688,25.95,20.773,38.791c4.5,8.188,9.381,16.169,13.773,24.416c4.043,6.873,6.736,14.407,10.08,21.624
	c6.141,14.436,12.945,28.582,19.324,42.911c2.559,5.687,4.816,11.518,7.572,17.115c1.127,2.401,2.469,4.724,3.304,7.268
	c-0.315,2.247-1.396,4.295-2.161,6.41c-4.35,11.216-8.116,22.64-12.458,33.857c-3.687,10.779-8.067,21.306-11.81,32.058
	c-4.271,10.94-8.145,22.047-12.858,32.799c-7.288,17.026-15.765,33.495-23.747,50.191c-2.035,4.263-4.353,8.377-6.523,12.567
	c-2.866-2.092-4.1-5.582-6.162-8.344c-8.146-13.279-16.91-26.157-25.229-39.328c-6.574-9.899-13.143-19.812-19.34-29.959
	c-15.613-26.43-31.725-52.569-47.31-79.013c-1.121-2.356-2.28-4.709-3.231-7.145c-0.766-1.848,0.244-3.726,0.854-5.449
	c5.306-14.287,10.371-28.661,15.275-43.099c5.699-14.602,11.059-29.332,16.506-44.037c3.68-9.497,6.602-19.298,10.857-28.569
	C4241.302,322.282,4252.107,299.752,4262.815,277.177 M4270.092,334.546c-4.092,7.461-7.816,15.139-11.14,22.978
	c-3.078,5.986-5.582,12.237-8.438,18.327c-10.774,22.938-20.14,46.506-30.676,69.556c-2.417,4.956-3.522,10.396-5.511,15.515
	c-0.783,2.951-2.402,5.729-2.694,8.777c3.731,5.763,7.696,11.413,11.064,17.419c3.537,6.195,7.431,12.18,10.689,18.527
	c9.693,16.584,19.268,33.24,29.532,49.467c8.282,12.009,16.845,23.84,24.759,36.096c0.984,1.366,1.602,3.965,3.744,3.647
	c0.986-1.995,1.35-4.217,2.059-6.316c2.949-8.422,4.512-17.264,7.537-25.662c3.184-11.249,6.352-22.516,10.052-33.605
	c1.548-5.435,2.824-10.963,4.832-16.26c1.964-5.306,2.235-11.014,3.653-16.455c1.424-5.428,2.113-11.01,3.382-16.473
	c0.843-5.335,2.56-10.507,3.097-15.903c0.589-5.713,3.204-11.069,3.449-16.83c-3.123-8.084-7.364-15.716-10.276-23.897
	c-7.392-16.805-15.011-33.502-23.096-49.985c-7.739-14.269-15.219-28.685-23.46-42.671
	C4271.713,331.981,4270.811,333.204,4270.092,334.546z"/>
<path fill="#010202" d="M4359.086,348.526c3.795-0.946,7.861-0.978,11.667-0.033c3.205,0.751,5.714,2.999,8.362,4.825
	c3.303,2.332,6.409,5.046,8.659,8.44c3.305,5.41,4.354,11.926,3.79,18.179c-0.33,1.524-0.504,3.073-0.672,4.627
	c-0.42,1.308-0.822,2.637-1.217,3.962c-2.26,3.395-5.281,6.159-7.998,9.173c-0.227,0-0.687-0.007-0.921-0.007l-0.032,0.448
	c-0.562,0.41-1.121,0.821-1.68,1.246c-1.854,1.263-3.882,2.241-5.77,3.439c-7.081,0.39-14.355,0.474-21.25-1.386
	c-0.732-0.564-1.522-1.044-2.359-1.412c-0.045-0.148-0.135-0.454-0.181-0.603c-1.263-0.771-2.447-1.643-3.641-2.507
	c-0.124-0.344-0.375-1.03-0.505-1.373c-0.505-0.416-1.004-0.823-1.51-1.219v-0.466l-0.512,0.013
	c-1.088-1.555-2.183-3.094-3.252-4.657c-0.408-0.71-0.814-1.419-1.231-2.111c-0.447-1.517-0.893-3.026-1.237-4.562
	c-0.592-4.177-1.531-8.472-0.466-12.653c0.892-3.413,1.295-7.248,4.035-9.773C4345.488,354.2,4352.178,350.559,4359.086,348.526z"/>
<path fill="#010202" d="M4159.568,353.409c4.182-2.15,8.769-3.614,13.498-3.796c2.603,0.176,5.24,0.187,7.832,0.603
	c6.646,1.968,11.77,7.087,15.772,12.541c1.614,2.824,2.765,5.889,4.068,8.867c1.601,3.414,1.095,7.272,0.97,10.91
	c-0.395,1.499-0.496,3.04-0.633,4.578c-0.467,1.103-0.926,2.203-1.34,3.33c-0.604,1.289-1.12,2.662-2.079,3.75
	c-2.884,3.143-5.533,6.498-8.753,9.316c-1.127,0.614-2.248,1.247-3.377,1.86c-0.963,0.314-1.917,0.66-2.869,0.995
	c-1.639,0.575-3.318,1.049-4.975,1.563c-4.58,0.583-9.33,0.837-13.773-0.647c-0.642-0.207-1.29-0.395-1.937-0.57
	c-0.642-0.229-1.286-0.448-1.935-0.647c-1.043-0.46-2.106-0.868-3.156-1.308c-0.486-0.443-0.979-0.869-1.464-1.289
	c-1.049-0.896-2.027-1.866-3.006-2.831c-0.409-0.745-0.812-1.494-1.2-2.229l-0.529,0.064c-0.01-0.442-0.02-1.321-0.027-1.768
	c-0.369-0.561-0.73-1.115-1.088-1.675c-0.311-0.804-0.63-1.593-0.926-2.392l-0.33-0.126c-0.324-0.959-0.66-1.904-0.965-2.856
	c-0.298-0.656-0.597-1.305-0.9-1.943c-0.26-1.493-0.387-3-0.559-4.502c-0.486-2.81-0.306-5.681-0.195-8.511
	c0.613-2.171,1.316-4.308,2.003-6.451c1.076-2.85,1.886-6.004,4.263-8.104C4154.457,357.86,4156.271,354.647,4159.568,353.409z"/>
<rect x="3840" fill="none" width="768" height="768"/>
</svg>
