<?xml version="1.0" encoding="iso-8859-1"?>
<!-- Generator: Adobe Illustrator 15.0.2, SVG Export Plug-In . SVG Version: 6.00 Build 0)  -->
<!DOCTYPE svg PUBLIC "-//W3C//DTD SVG 1.1 Basic//EN" "http://www.w3.org/Graphics/SVG/1.1/DTD/svg11-basic.dtd">
<svg version="1.1" baseProfile="basic" id="Layer_1"
	 xmlns="http://www.w3.org/2000/svg" xmlns:xlink="http://www.w3.org/1999/xlink" x="0px" y="0px" width="768px" height="1024px"
	 viewBox="0 0 768 1024" xml:space="preserve">
<g id="oca">
</g>
<g id="pesce">
	<rect style="fill:#00AEEF;" width="768" height="1024"/>
	<g id="_x23_bcdff3ff">
		<path style="fill:#F9ED32;" d="M417.792,277.106c12.66-1.899,25.49-2.149,38.24-2.893c11.739,0.568,23.37,2.301,35.069,3.341
			c16.67,2.96,32.854,8.062,49.131,12.659c10.96,3.931,21.813,8.144,32.699,12.271c17.354,7.565,34.314,16.04,51.024,24.946
			c8.514,5.644,16.936,11.514,24.514,18.369c9.326,8.03,19.156,15.515,27.979,24.12c6.64,7.028,13.021,14.301,19.47,21.5
			c2.515,2.898,5.271,5.63,7.17,9.011c-8.8,7.42-18.01,14.554-28.33,19.739c-15.229,8.21-30.47,16.432-46.05,23.972
			c-19.97,8.723-40.989,14.618-61.64,21.438c-10.771,2.421-21.645,4.369-32.436,6.688c-11.971,3.069-24.405,3.211-36.67,4.264
			c-10.646-0.188-21.315-0.723-31.921-1.882c-12.118-0.603-23.945-3.488-35.88-5.488c-13.028-2.67-26.229-4.479-39.091-7.933
			c-11.659-2.271-22.79-6.472-34.108-9.921c-9.396-2.932-18.381-6.938-27.711-10.021c-22.984-8.012-45.3-17.881-68.22-26.109
			c-5.22-0.721-10,2.37-14.91,3.689c-2.62,1.221-6.01,0.721-8.14,2.855c-27.101,9.479-53.57,20.684-80.72,30.029
			c-2.931,0.949-5.92,1.721-8.931,2.438c0.99-4.618,4.07-8.312,6.021-12.5c5.67-10.447,10.64-21.263,16.26-31.729
			c7.75-12.2,13.09-25.812,21.55-37.569c-0.899-4.841-3.02-9.369-4.18-14.157c-5.181-15.778-9.74-31.75-14.03-47.778
			c-1.76-6.449-4.33-12.688-5.35-19.319c15.01,6.051,29.279,13.79,43.899,20.689c6.561,4.021,13.37,7.688,20.59,10.396
			c9.181,4.62,18.28,9.475,26.79,15.263c3.21-1.857,5.971-4.421,9.32-6.027c9.01-4.17,18.062-8.271,26.89-12.802
			c14.94-7.897,30.57-14.354,46.011-21.188c16.188-5.66,32.59-10.761,49.02-15.688C399.771,279.035,408.854,278.325,417.792,277.106
			"/>
	</g>
	<g id="_x23_e0d61aff">
		<path style="fill:#CD031B;" d="M564.643,354.106c8.051-1.593,16.92,0.931,22.351,7.211c3.39,3.406,3.49,8.525,3.62,13.025
			c0.27,6.12-4.221,11.104-8.521,14.895c-4.5,2.938-9.938,5.562-15.46,4.392c-4.904-0.922-9.688-3.212-13.27-6.712
			c-2.94-4.8-6.63-10.56-4.03-16.31C550.604,362.617,556.742,355.897,564.643,354.106z"/>
	</g>
	<g>
		<path style="fill:#CD031B;" d="M222.789,738.26c3.399-2.373,6.579-5.285,10.636-6.481c2.177-0.603,5.02-0.025,6.389,1.895
			c0.991,2.414,1.415,5.021,1.777,7.599c1.038,10.84,0.39,21.745,0.281,32.604c0.531,8.098-0.487,16.277,1.113,24.297
			c0.633,1.279,2.259,1.383,3.48,1.744c13.363,2.529,26.932,3.783,40.27,6.473c7.854,1.261,15.384,4.058,22.458,7.646
			c0.76,1.475,1.331,3.035,1.777,4.641c-1.158,2.556-2.527,5.09-4.641,6.99c-3.974,3.539-7.908,7.123-12.09,10.414
			c-2.547,1.529-5.222,2.836-7.91,4.102c-0.043,0.025-0.133,0.07-0.177,0.093c-7.053,3.614-14.387,6.659-21.346,10.463
			c-2.727,1.717-6.267,2.428-8.307,5.051c-0.083,2.041,1.491,3.758,1.934,5.734c1.895,6.957,3.315,14.036,4.901,21.065
			c1.133,6.437,3.277,12.711,3.611,19.273c0.435,3.326-1.241,6.397-2.375,9.424c-1.146,3.008-4.276,5.051-7.495,4.801
			c-3.429-0.371-6.873-1.209-9.901-2.896c-0.057-0.033-0.167-0.099-0.225-0.127c-3.646-1.748-5.708-5.248-8.389-8.066
			c-2.189-2.521-4.366-5.043-6.566-7.539c-5.965-7.207-12.078-14.397-19.579-20.063c-1.938-1.298-4.462-0.974-6.65-0.742
			c-2.765,1.459-5.159,3.52-7.909,5.012c-4.979,2.76-9.018,6.828-13.633,10.113c-4.984,4.043-10.491,7.391-15.514,11.373
			c-4.992,2.649-9.773,5.715-14.925,8.051c-2.88,1.293-6.086,1.375-9.069,0.396c-1.101-5.278-1.234-10.784-0.844-16.159
			c1.197-7.775,3.156-15.533,6.585-22.646c4.946-11.047,11.093-21.565,15.24-32.953c0.293-0.68,0.595-1.35,0.909-2.01
			c-7.682-1.271-15.303-2.881-22.881-4.646c-7.45-1.74-14.599-4.462-21.76-7.099c-2.828-1.215-5.8-2.299-8.199-4.281
			c-1.854-2.282-4.243-4.498-4.768-7.52c0.077-3.023,2.241-5.603,4.814-6.998c6.188-3.385,12.92-5.549,19.506-8.019
			c2.836-1,5.592-2.366,8.64-2.604c14.527-1.498,29.076-2.912,43.642-4.021c7.538-12.934,12.626-27.448,22.413-39.014
			c3.104-3.93,6.476-7.623,9.721-11.438C219.123,740.525,221.08,739.527,222.789,738.26z"/>
	</g>
</g>
<g id="gatto">
</g>
</svg>
