<?xml version="1.0" encoding="utf-8"?>
<!-- Generator: Adobe Illustrator 15.0.2, SVG Export Plug-In . SVG Version: 6.00 Build 0)  -->
<!DOCTYPE svg PUBLIC "-//W3C//DTD SVG 1.1 Basic//EN" "http://www.w3.org/Graphics/SVG/1.1/DTD/svg11-basic.dtd">
<svg version="1.1" baseProfile="basic" id="Livello_1"
	 xmlns="http://www.w3.org/2000/svg" xmlns:xlink="http://www.w3.org/1999/xlink" x="0px" y="0px" width="886px" height="886px"
	 viewBox="0 0 886 886" xml:space="preserve">
<g id="_x23_b60000ff">
	<path fill="#CD031B" d="M623.766,111.274c1.827-7.234,3.38-14.572,5.95-21.592c4.062,12.768,7.419,25.744,10.866,38.682
		c8.296,31.128,14.476,62.769,21.99,94.089c0.586,2.688,1.012,5.451,2.354,7.902c6.745-9.456,13.921-18.597,20.425-28.223
		c15.026-20.149,30.072-40.287,45.174-60.368c-5.622,30.882-12.479,61.512-19.038,92.21c-7.791,33.964-15.604,67.93-24.023,101.746
		c-0.56,2.334-0.724,4.808-1.798,6.982c-9.5,0.779-19.062,0.415-28.59,0.498c-6.514-0.179-13.013,0.245-19.485,0.921
		c-8.483-0.075-16.974-0.193-25.453,0.03c8.74,0.595,17.524-0.164,26.274,0.55c-13.593,0.489-27.214,0.14-40.819,0.318
		c-9.643,1.011-19.362,0.401-29.039,0.586c-11.145-0.007-22.289-0.015-33.431-0.035c-8.66,0.222-17.271-0.893-25.938-0.58
		c-19.312-0.64-38.63,0.029-57.948,0.155c-12.855,0.803-25.759,0.282-38.63,0.646c-6.908,0.892-13.883,0.328-20.819,0.557
		c-11.55-0.111-23.105,0.097-34.646-0.186c-0.171,0.119-0.521,0.363-0.69,0.481l0.795-1.092c-0.415-0.065-1.246-0.208-1.671-0.273
		c-19.368-0.208-38.77-0.163-58.146-0.192c-2.035-10.45-4.13-20.886-6.053-31.358c-1.645-11.11-4.354-22.029-6.232-33.096
		c-4.411-22.483-8.72-44.995-12.618-67.567c-5.259-29.24-11.245-58.356-16.289-87.635c3.382,3.528,5.794,7.822,8.768,11.677
		c10.658,14.379,20.262,29.501,29.538,44.801c6.154,9.678,12.482,19.245,18.663,28.899c9.265,17.276,18.493,34.574,27.766,51.843
		c0.342-0.021,1.033-0.067,1.382-0.087c6.098-25.7,11.498-51.569,17.402-77.312c3.786-16.035,8.125-31.929,12.396-47.831
		c2.637-8.363,4.07-17.023,6.484-25.446c1.188-3.959,1.7-8.146,3.512-11.906c4.219,16.845,8.475,33.683,12.189,50.639
		c6.335,31.106,11.354,62.464,17.595,93.584c0.141,0.358,0.409,1.055,0.543,1.404l1.01-0.238
		c6.307-37.583,12.374-75.209,19.4-112.673c2.196-10.212,3.886-20.574,6.922-30.593c7.694,16.63,13.289,34.224,17.147,52.133
		c4.188,19.557,9.889,38.749,15.441,57.956c3.617,13.243,8.051,26.232,11.698,39.461c2.548,8.637,4.962,17.312,7.71,25.891
		c0.291,0.802,0.847,1.396,1.679,1.768c0.95-3.514,1.537-7.107,2.354-10.65c3.771-18.718,8.896-37.124,13.339-55.684
		c3.892-14.543,7.318-29.204,11.396-43.696c3.708-14.007,7.729-27.942,11.145-42.024c1.843-8.562,3.244-17.201,5.106-25.75
		c0.201-1.106,0.58-2.183,1.271-3.082c5.585,11.23,10.704,22.705,15.673,34.233c12.27,27.199,24.836,54.264,36.526,81.723
		c4.22,9.796,8.045,19.778,12.545,29.449c1.085-2.481,1.39-5.177,1.571-7.851c3.312-27.26,7.19-54.473,11.364-81.62
		C618.031,139.989,620.178,125.483,623.766,111.274z"/>
</g>
<g id="_x23_f0d68bff">
	<path fill="#FFF69B" d="M638.409,344.701c2.229-0.313,4.476-0.5,6.729-0.477c0.453,0.779,0.928,1.567,1.396,2.354
		c2.272,3.625,3.544,7.731,5.126,11.676c5.432,14.26,10.479,28.668,15.53,43.07c4.619,13.185,8.661,26.566,13.034,39.833
		c3.975,16.95,8.602,33.742,13.088,50.573c0.987,3.104,1.032,6.4,1.702,9.579c0.319,6.232,1.908,12.302,2.495,18.512
		c1.894,12.618,3.815,25.235,5.63,37.861c1.382,11.416,2.57,22.869,3.966,34.291c0.653,2.525,0.521,5.142,0.778,7.729
		c1.174,4.729,0.973,9.646,2.006,14.416c-0.096,4.53,1.345,8.896,1.358,13.429c0.351,6.923,1.32,13.823,1.023,20.775
		c-0.179,4.447,0.639,8.854,0.757,13.301c0.677,5.035,0.312,10.122,0.527,15.188c0.021,3.646-0.303,7.367,0.461,10.974
		c0.616,4.344,0.229,8.757,0.67,13.124c0.823,9.181,1.113,18.382,1.181,27.601c1.102,5.407,0.435,10.954,0.898,16.422
		c0.572,6.67,0.475,13.375,1.174,20.047c0.312,7.403-0.408,14.854,0.587,22.229c0.823,6.426,0.388,12.917,1.188,19.35
		c0.742,5.433,0.342,10.919,1.114,16.351c0.928,6.64,0.272,13.347,1.092,20.002c0.993,9.129,0.533,18.323,0.645,27.497
		c0.134,5.234-1.158,10.366-1.247,15.598H261.557c0.188-4.346-0.201-8.713,0.498-13.021c0.698-4.338-0.007-8.787,0.995-13.081
		c0.126-2.682-0.149-5.377,0.363-8.021c1.03-5.43,0.016-10.963,0.795-16.407c0.676-4.673,0.535-9.396,0.557-14.091
		c0.305-11.11,1.716-22.179,1.389-33.305c1.303-4.962,0.256-10.109,1.085-15.115c0.914-9.307,0.862-18.656,1.694-27.97
		c0.646-6.499-0.26-13.052,0.564-19.534c0.563-4.887,0-9.818,0.469-14.706c0.816-5.414-0.053-10.896,0.459-16.325
		c0.275-3.733,1.122-7.428,1.002-11.179c-0.237-4.51,1.382-8.854,1.188-13.354c0.354-3.61,1.173-7.17,1.275-10.811
		c1.173-5.251,0.839-10.656,1.938-15.917c-0.018-4.019,0.928-7.917,1.284-11.891c-0.173-4.271,1.263-8.396,1.174-12.655
		c-0.017-3.284,1.286-6.401,1.122-9.687c-0.091-3.491,1.002-6.87,1.099-10.351c-0.074-4.528,1.426-8.903,1.254-13.438
		c0.551-4.33,1.129-8.653,1.218-13.021c1.175-5.486,0.862-11.118,1.979-16.615c-0.148-4.293,1.285-8.393,1.312-12.653
		c1.998-16.142,4.197-32.268,6.863-48.322c2.153-11.037,3.521-22.312,6.916-33.075c12.67-31.432,26.262-62.486,40.664-93.161
		c0.936-1.9,1.583-3.989,2.957-5.645c4.225-5.355,8.494-10.688,12.773-16.006c0.17-0.119,0.521-0.364,0.69-0.482
		c11.542,0.282,23.1,0.074,34.646,0.188c6.938-0.231,13.911,0.332,20.819-0.559c12.871-0.364,25.771,0.156,38.63-0.645
		c19.318-0.126,38.636-0.795,57.948-0.156c8.666-0.312,17.273,0.802,25.936,0.58c11.145,0.021,22.289,0.028,33.434,0.036
		c9.677-0.187,19.396,0.423,29.04-0.586"/>
</g>
<g id="_x23_000000ff">
	<path d="M589.051,410.099c5.667-2.831,11.639-5.853,18.183-5.393c3.604,0.438,7.493,0.66,10.509,2.925
		c5.937,4.152,12.522,8.245,15.798,14.989c4.556,8.713,4.077,19.118,1.285,28.298c-1.597,2.956-4.13,5.251-6.27,7.807
		c-2.442,2.937-5.931,4.682-8.72,7.142c-0.382,0.051-1.132,0.146-1.504,0.189c-0.361,1.581-2.005,1.347-3.243,1.51l-0.099,0.605
		c-4.59,0.045-9.191,0.164-13.775-0.155c-2.104-0.914-4.475-0.253-6.619-0.941c-1.365-0.407-2.728-0.839-4.095-1.202l-0.034-0.467
		c-0.915-0.609-1.854-1.185-2.767-1.776c-1.812-1.438-3.479-3.066-4.879-4.916c-1.356-1.664-2.75-3.299-4.151-4.917
		c-0.027-0.215-0.097-0.653-0.125-0.869c-0.697-0.904-1.338-1.85-2.008-2.764c-0.503-1.536-1.002-3.081-1.191-4.692
		c-1.115-4.553-1.544-9.312-1.059-13.972c1.086-3.818,1.232-8.095,3.794-11.327C581.149,416.256,584.676,412.557,589.051,410.099z"
		/>
	<path d="M368.33,412.377c4.92-2.888,10.43-4.729,16.064-5.577c3.238-0.104,6.499-0.03,9.73,0.269
		c8.268,2.026,14.651,8.297,19.442,15.047c1.508,2.479,2.438,5.267,3.631,7.911c3.075,5.612,1.771,12.298,1.366,18.382
		c-1.128,3.896-2.458,8.058-5.541,10.896c-3.595,3.899-6.728,8.596-11.661,10.927c-7.464,2.872-15.887,5.675-23.79,2.872
		c-1.697-0.479-3.395-0.948-5.096-1.388c-1.27-0.543-2.556-1.04-3.855-1.464c-0.759-0.49-1.47-1.033-2.221-1.508
		c-1.753-1.73-3.574-3.432-4.873-5.541c-0.712-2.377-2.006-4.509-2.92-6.805l-0.445-0.09c-0.146-0.462-0.443-1.371-0.595-1.835
		c-0.562-1.438-1.047-2.901-1.596-4.338c-1.04-3.646-0.952-7.473-0.987-11.223c-0.06-4.917,1.871-9.523,3.491-14.06
		C360.066,419.562,364.923,416.418,368.33,412.377z"/>
</g>
<g id="_x23_f44900ff">
	<path fill="#F44900" d="M487.6,526.572c13.161,0.335,26.264-2.021,39.418-0.919c17.52,2.266,34.529,7.231,51.546,11.813
		c0.467-0.075,0.951-0.154,1.44-0.163c-1.89,6.544-5.749,12.329-7.731,18.846c-1.353,1.598-1.872,3.658-2.763,5.518
		c-3.357,7.234-6.565,14.527-9.841,21.8c-4.857,9.062-8.496,18.688-12.845,27.993c-11.008,24.479-22.531,48.74-35.233,72.396
		c-0.659,1.204-1.562,2.262-2.503,3.265c-5.552-7.694-10.375-15.89-15.683-23.752c-13.428-20.5-26.898-40.962-40.412-61.402
		c-11.92-17.728-23.811-35.486-34.708-53.869c-0.821-1.646-2.73-3.142-2.062-5.146c7.42-2.495,14.707-5.387,22.134-7.858
		c4.523-1.938,9.461-2.36,14.171-3.631C464.168,529.485,475.821,527.434,487.6,526.572z"/>
</g>
</svg>
