<?xml version="1.0" encoding="utf-8"?>
<!-- Generator: Adobe Illustrator 15.0.2, SVG Export Plug-In . SVG Version: 6.00 Build 0)  -->
<!DOCTYPE svg PUBLIC "-//W3C//DTD SVG 1.1 Basic//EN" "http://www.w3.org/Graphics/SVG/1.1/DTD/svg11-basic.dtd">
<svg version="1.1" baseProfile="basic" id="Livello_1"
	 xmlns="http://www.w3.org/2000/svg" xmlns:xlink="http://www.w3.org/1999/xlink" x="0px" y="0px" width="886px" height="886px"
	 viewBox="0 0 886 886" xml:space="preserve">
<g id="_x23_ce041aff">
	<path fill="#CE041A" d="M278.86,75.919c1.54-0.029,3.08-0.079,4.63-0.14c6.58,6.399,13.72,12.22,20.34,18.58
		c6.83,6.91,12.88,14.54,19.62,21.529c12.55,13.811,25.56,27.23,37.688,41.41c1.49,1.699,3.41,3.279,5.79,3.342
		c50.03,1.857,100.11,1.05,150.16,1.357c3.42,0.28,6.062-2.12,8.53-4.101c19.54-16.061,39.01-32.229,58.32-48.561
		c11.538-8.87,23.444-17.239,35.538-25.33c1.722,13.051,3.536,26.12,4.062,39.28c-0.09,9.7,0.38,19.391,0.688,29.08
		c0.842,20.01-1.25,39.96-1.974,59.93c-0.92,10.643-1.21,21.32-2.13,31.961c-0.56,22.029-1.88,44.039-3.87,66
		c-1.37,13.119-2.1,26.529-6.72,39.021c-3.66,14.14-12.25,26.199-20.55,37.949c-10.688,13.952-22.415,27.092-35.138,39.222
		c2.62,4.602,6.812,7.899,10.271,11.83c5.646,6.96,11.8,13.529,17.02,20.84c7.96,12.145,15.631,24.479,23.54,36.649
		c4.5,6.74,8.021,14.061,11.98,21.105c8.568,15.604,15.89,31.86,22.28,48.45c7.93,27.99,13.938,56.472,19.72,84.96
		c1.938,8.229,2.28,16.71,3.46,25.062c3.42,30.54,5.88,61.229,5.34,91.979c-0.09,24.689-0.86,49.37-0.31,74.062
		c0.484,25.97,0.8,51.946,0.1,77.908c-1.03,12.672-0.35,25.397-1.42,38.067c-1.08,28.34-2.78,56.67-4.22,85.012
		c0,5.318-0.21,10.658-1.016,15.938H213.92c-0.14-21.82-0.8-43.631-1.21-65.438c-0.65-21.527-1.44-43.067-0.55-64.603
		c1.03-29.63,0.49-59.3,2.56-88.88c0.87-9.34,0.65-18.729,1.59-28.062c0.08-9.688,0.91-19.341,1.16-29.021
		c-0.01-20.41,3.04-40.65,4.21-60.99c1.79-16.971,3.02-34.04,5.87-50.87c2.28-9.605,3.99-19.317,5.94-28.979
		c7.58-30,16.36-59.689,25.88-89.12c14.5-37.079,34.62-71.604,55.146-105.604c5.04-8.438,11.684-15.816,16.424-24.446
		c-6.014-4.974-11.304-10.712-16.54-16.462c-10.07-10.71-18.98-22.96-23.72-37.011c-7.13-19.101-9.26-39.528-12.15-59.58
		c-3.771-28.488-4.61-57.25-5.76-85.938c-0.12-19.671-0.31-39.353-0.11-59.021c1.2-16.641,1.85-33.317,3.39-49.938
		C276.74,101.52,278.78,88.79,278.86,75.919"/>
</g>
<path fill="#010101" d="M432.15,311.438c9.524-1.149,19.35-0.92,28.76,1.061c9.396,2.96,18.57,6.67,27.22,11.399
	c5.71,2.761,9.84,7.7,14.69,11.641c3.229,3.062,6.43,8.08,4.1,12.55c-4.396,8.771-11.896,15.83-20.61,20.263
	c-10.05,6.09-21.56,10.197-33.38,10.479c-15.68,1.05-30.55-5.63-44.16-12.681c-4.946-2.699-10.88-4.351-14.25-9.21
	c-2.979-3.71-5.826-8.779-3.52-13.55c3.18-6.87,7.41-13.79,14.07-17.78c6.05-4.09,12.188-8.05,18.566-11.609
	C426.27,312.569,429.24,312.029,432.15,311.438z"/>
<g id="_x23_fdc401ff">
	<path fill="#FDC401" d="M512.43,202.979c6.92-1.649,14.521-0.359,20.53,3.46c5.271,2.858,10.17,6.971,12.271,12.75
		c1.8,5.188,4.734,10.438,3.814,16.11c-0.55,3.657-0.438,7.567-2.2,10.938c-3.81,6.88-9.194,13.22-16.615,16.3
		c-7.539,3.87-16.779,3.271-24.239-0.431c-9.521-6.38-17.33-16.84-16.95-28.76c0.53-5.021,1.64-10,3.39-14.723
		C496.17,210.549,504.29,205.709,512.43,202.979z"/>
	<path fill="#FDC401" d="M365.44,204.029c8.77-2.101,17.526,1.39,24.76,6.14c3.566,3.271,5.688,7.78,8,11.973
		c4.71,8.357,3.81,18.63,1.106,27.487c-4.71,8.54-13.93,13.521-23.116,15.893c-3.7,0.54-7.48,0.5-11.21,0.29
		c-10.054-1.529-18.844-8.7-22.634-18.103c-1.106-4.08-1.89-8.26-2.566-12.43c-0.61-10.551,5.856-20.07,13.938-26.28
		C357.04,206.219,361.2,204.699,365.44,204.029z"/>
</g>
<rect fill="none" stroke="#000000" stroke-width="1.1169" stroke-miterlimit="10" width="886" height="1230"/>
</svg>
