<?xml version="1.0" encoding="utf-8"?>
<!-- Generator: Adobe Illustrator 15.0.2, SVG Export Plug-In . SVG Version: 6.00 Build 0)  -->
<!DOCTYPE svg PUBLIC "-//W3C//DTD SVG 1.1 Basic//EN" "http://www.w3.org/Graphics/SVG/1.1/DTD/svg11-basic.dtd">
<svg version="1.1" baseProfile="basic" id="Livello_1"
	 xmlns="http://www.w3.org/2000/svg" xmlns:xlink="http://www.w3.org/1999/xlink" x="0px" y="0px" width="886px" height="886px"
	 viewBox="0 0 886 886" xml:space="preserve">
<path fill="#CD031B" d="M538.274,143.236c12.789-39.848,25.075-79.854,37.107-119.926c0.665-0.015,2.002-0.051,2.668-0.074
	c1.436,3.048,1.786,6.427,2.623,9.656c6.427,25.582,11.812,51.417,17.54,77.177c2.188,10,3.88,20.12,6.255,30.072
	c3.498,18.938,8.341,37.63,11.688,56.591c0.951-0.59,1.951-1.144,2.705-2.005c9.35-9.834,18.761-19.609,28.385-29.19
	c9.491-9.447,18.515-19.357,28.021-28.795c5.493-5.485,10.598-11.33,15.889-17.002c10.627-11.023,21.292-22.009,31.681-33.256
	c4.289-3.998,8.242-8.468,13.229-11.628c-0.531,3.129-0.854,6.299-1.472,9.416c-9.604,54.354-22.75,107.99-33.521,162.105
	c10.568-3.826,21.062-7.877,31.472-12.114c21.045-8.288,42.054-16.688,63.194-24.752c14.505-5.881,29.124-11.494,43.771-17.018
	c8.87-2.743,17.612-6.195,26.889-7.383c-2.146,3.065-4.926,5.59-7.354,8.416c-8.96,9.693-17.966,19.341-26.729,29.221
	c-8.864,9.342-17.122,19.228-26.047,28.519c-3.062,3.893-6.784,7.197-9.99,10.963c-9.49,9.946-18.661,20.208-28.114,30.191
	c-6.775,7.168-13.437,14.446-19.991,21.814c-11.104,11.693-21.609,23.951-32.812,35.543c-1.688-0.516-3.334-1.144-4.963-1.803
	c-8.25-2.405-16.322-5.372-24.483-8.055c-14.177-4.978-28.479-9.575-42.748-14.297c-1.445-0.54-2.973-0.816-4.479-1.101
	c0.046,0.472,0.135,1.414,0.179,1.886c-0.77-1.002-1.569-2.139-2.848-2.489c-5.036-1.562-10.271-2.421-15.291-4.021
	c-4.939-1.74-10.188-2.241-15.319-3.131c-19.154-3.244-38.369-6.046-57.604-8.705c-5.474-0.755-10.987-0.813-16.453-1.479
	c-4.448-0.105-8.905-0.082-13.35-0.314c-9.437-1.015-18.933-0.402-28.396-0.455c-5.007-0.179-9.948,0.882-14.956,0.708
	c-7.229,0.577-14.407,1.729-21.517,3.169c-12.104,1.442-24.062,3.864-36.021,6.22c-7.332,1.112-14.499,3.04-21.732,4.618
	c-6.035,0.934-11.858,2.861-17.847,4.033c-1.479,0.264-2.897,0.793-4.162,1.607c0.044-0.388,0.135-1.165,0.181-1.555
	c-4.873,1.323-9.826,2.309-14.625,3.855c-6.13,1.689-12.386,2.915-18.48,4.708c-11.075,2.623-22.45,4.237-33.271,7.922
	c-3.729-3.774-7.64-7.361-11.612-10.866c-6.277-6.136-12.802-12.004-19.304-17.884c-15.32-14.896-31.732-28.585-47.896-42.53
	c-10.434-9.499-21.553-18.213-31.792-27.921c-11.091-10.104-22.338-20.044-34.048-29.438c-8.833-7.81-18.452-14.701-27.313-22.487
	c3.021-0.39,5.116-4.253,8.312-2.692c36.858,11.323,72.932,24.969,109.29,37.757c13.871,5.015,27.831,9.767,41.56,15.17
	c-0.262-5.986-1.612-11.853-1.866-17.832c-0.518-3.228-1.048-6.457-1.068-9.723c-1.247-10.462-2.129-20.962-3.213-31.44
	c-0.099-6.479-0.964-12.906-1.293-19.364c0.191-7.996-0.81-15.956-0.755-23.945c-0.018-3.004-0.054-6.008-0.246-9.005
	c-0.396-6.457,0.134-12.951-0.479-19.401c-0.269-5.716-0.527-11.441-0.418-17.158c0.366,0.075,1.106,0.224,1.476,0.298
	c6.147,6.397,12.5,12.608,19.129,18.521c10.547,9.851,20.701,20.11,31.208,30.005c11.441,10.47,22.158,21.673,33.288,32.456
	c7.129,7.07,14.312,14.082,21.382,21.218c5.911,5.522,11.328,11.599,17.479,16.853c2.48-12.429,5.163-24.818,8.026-37.165
	c10.479-41.112,19.006-82.694,28.714-123.984c0.374-2.033,0.599-4.127,1.479-6.025c0.765-4.229,2.122-8.325,2.825-12.569
	c0.149-1.204,0.612-2.302,1.466-3.192c4.618,10.118,9.006,20.343,13.415,30.55c5.902,14.536,12.249,28.9,17.651,43.639
	c2.397,6.165,4.934,12.294,6.802,18.653c7.773,21.464,15.396,42.995,22.354,64.742c2.542,5.994,3.5,12.57,6.443,18.392
	C525.183,184.34,531.815,163.81,538.274,143.236z"/>
<g id="_x23_f0d68bff">
	<path fill="#FFF69B" d="M474.639,306.521c5.007,0.174,9.948-0.888,14.956-0.708c9.464,0.052,18.958-0.56,28.394,0.454
		c4.442,0.233,8.897,0.209,13.351,0.314c5.466,0.667,10.979,0.726,16.45,1.479c19.237,2.66,38.45,5.464,57.604,8.705
		c5.135,0.891,10.38,1.392,15.32,3.132c5.021,1.601,10.255,2.458,15.29,4.021c1.275,0.351,2.077,1.487,2.849,2.489
		c3.139,4.701,6.038,9.55,9.007,14.37c1.426,2.706,3.478,5.083,4.483,8.013c8.969,23.115,17.227,46.506,24.968,70.055
		c3.131,10.441,7.019,20.688,9.117,31.404c3.281,12.786,6.838,25.491,10.146,38.271c1.057,3.604,1.957,7.312,1.914,11.094
		c2.631,17.649,5.209,35.297,7.839,52.946c0.145,3.845,1.54,7.521,1.359,11.396c1.585,12.153,2.714,24.364,4.462,36.503
		c0.145,4.543,1.324,8.968,1.36,13.526c1.075,4.66,1.028,9.469,1.794,14.176c0.672,4.462,0.141,8.976,0.396,13.46
		c0.538,7.443,1.204,14.889,1.176,22.352c0.188,8.274,1.337,16.494,1.066,24.782c1.229,11.181,0.83,22.467,2.085,33.653
		c0.509,4.88-0.134,9.798,0.367,14.685c0.446,3.818,0.365,7.689,0.887,11.519c0.195,12.15,0.139,24.349,1.203,36.479
		c-0.187,6.756,0.683,13.459,1.188,20.187c-0.313,6.021,1.062,11.947,1.144,17.967c-0.188,8.233,1.466,16.402,1.129,24.646
		c0.238,12.705,0.672,25.455-0.641,38.114h-463.2c0.684-4.708,0.83-9.453,0.86-14.19c1.312-9.162,0.747-18.43,1.92-27.602
		c0.598-4.671-0.082-9.387,0.561-14.042c0.537-8.011,1.011-16.016,0.891-24.05c0.418-6.503,1.32-12.988,1.217-19.514
		c0.053-5.493,1.137-10.918,1.077-16.411c-0.217-5.775,1.218-11.447,1.121-17.221c-0.037-6.979,0.363-13.941,0.737-20.908
		c1.057-9.945-0.225-19.978,0.84-29.916c0.507-5.237,0.654-10.483,0.863-15.725c0.964-6.711,1.057-13.48,2.062-20.18
		c0.037-4.478,1.518-8.796,1.312-13.286c1.159-5.464,0.957-11.075,2.077-16.548c-0.059-5.299,1.375-10.446,1.397-15.746
		c0.583-3.468,1.181-6.936,1.091-10.471c1.047-5.155,0.882-10.439,1.861-15.591c0.919-8.476,1.383-16.992,2.585-25.433
		c-0.182-4.559,1.308-8.969,1.211-13.52c3.542-30.783,7.548-61.521,14.184-91.855c1.793-6.037,4.559-11.73,6.786-17.614
		c11.457-27.375,23.271-54.604,35.925-81.459c1.203-3.438,3.691-6.128,5.874-8.96c8.198-9.917,15.865-20.297,24.796-29.595
		c1.263-0.814,2.682-1.345,4.163-1.607c5.985-1.173,11.807-3.101,17.846-4.033c7.234-1.577,14.402-3.505,21.732-4.618
		c11.958-2.354,23.916-4.777,36.021-6.22C460.231,308.249,467.409,307.097,474.639,306.521"/>
</g>
<path d="M603.608,403.033c5.972-0.815,12.744-1.092,17.876,2.66c5.062,3.64,10.516,7.093,14.053,12.375
	c2.442,3.855,4.021,8.291,4.616,12.811c0.02,4.963,0.472,10.029-1.001,14.857c-0.456,3.997-3.408,7.018-6.037,9.816
	c-3.423,4.225-8.102,7.212-12.849,9.764c-2.203,1.375-4.908,1.021-7.375,1.104c-6.136-0.104-12.459-0.119-18.318-2.114
	c-6.292-3.468-10.854-9.387-14.7-15.328c-1.718-3.497-2.294-7.449-2.649-11.299c-0.59-3.229-0.79-6.629,0.211-9.796
	c0.851-2.98,1.09-6.249,2.801-8.91c3.565-4.849,7.944-9.288,13.396-11.995C596.927,405.611,600.111,403.878,603.608,403.033z"/>
<path d="M384.211,404.871c4.17-1.114,8.451-0.089,12.668,0.165c7.123,2.077,12.985,7.137,17.345,13.018
	c2.077,2.196,3.02,5.119,4.26,7.818c1.024,2.638,2.661,5.126,2.765,8.033c0.113,2.966,0.056,5.939-0.026,8.907
	c-0.173,4.471-1.824,8.742-4.073,12.562c-3.146,3.903-6.613,7.55-10.201,11.053c-3.232,2.481-7.309,3.396-11.104,4.694
	c-5.248,1.345-10.963,2.175-16.203,0.381c-3.931-1.195-8.176-1.86-11.523-4.425c-2.321-2.046-4.247-4.499-6.078-6.977
	c0.013-0.451,0.02-1.355,0.023-1.812c-4.006-6.076-6.039-13.415-5.799-20.708c-0.105-4.655,1.771-8.998,3.169-13.349
	c0.874-2.258,1.539-4.737,3.333-6.463c2.489-2.585,4.879-5.275,7.473-7.75C374.621,407.652,379.235,405.589,384.211,404.871z"/>
<path fill="#CD031B" d="M501.135,431.917c1.146-1.225,2.37-2.399,3.896-3.154c8.031,10.441,16.559,20.506,24.33,31.136
	c5.086,6.592,9.9,13.376,15.125,19.87c6.437,7.604,11.995,15.874,18.204,23.66c2.863,4.529,6.997,8.115,9.754,12.729
	c1.369,2.541,3.938,4.155,5.165,6.795c1.965,2.727,4.071,5.477,6.793,7.504c0.538,1.545-1.95,1.979-2.814,2.896
	c-6.98,5.472-13.781,11.188-20.929,16.475c-3.615,3.333-7.893,5.999-10.99,9.816c-1.469,1.057-2.825,2.241-4.312,3.272
	c-3.431,2.266-6.078,5.59-9.823,7.406c-2.961,3.277-6.797,5.559-10.106,8.46c-4.583,3.915-9.481,7.436-14.104,11.292
	c-3.828,2.23-6.699,5.755-10.57,7.913c-1.651,0.867-3.109,2.049-4.739,2.959c-1.062,0.3-1.751-0.835-2.479-1.374
	c-4.708-4.761-9.896-9.015-14.805-13.55c-2.713-3.042-6.068-5.383-9.057-8.123c-8.18-7.816-16.875-15.073-24.554-23.375
	c-3.916-2.99-7.376-6.531-11.028-9.828c-3.729-4.754-8.896-8.116-12.608-12.869c-1.719-2.19-4.499-3.282-5.979-5.672
	c1.993-1.897,3.772-4.022,5.655-6.031c10.253-13.064,22.397-24.478,33.077-37.159c5.494-6.203,11.354-12.066,16.555-18.522
	C481.171,453.844,490.413,442.185,501.135,431.917z"/>
<g id="_x23_f44900ff">
	<path fill="#F44900" d="M512,374.776c1.193-1.22,2.323,0.739,3.025,1.562c8.075,11.464,15.591,23.303,23.163,35.095
		c9.313,13.498,15.667,28.676,23.356,43.093c6.837,13.441,13.841,26.8,21.201,39.968c4.342,8.414,9.397,16.425,14.707,24.258
		c1.52,2.003,2.86,4.125,4.007,6.368c-7.945,10.563-16.657,20.536-24.819,30.938c-7.592,9.345-15.244,18.641-22.704,28.095
		c-4.387,5.561-9.251,10.729-13.405,16.479c-9.424,11.247-19.146,22.203-28.93,33.13c-2.317,2.444-5.047,4.581-6.64,7.615
		c-1.689,2.025-4.193,3.311-5.503,5.703c-0.896-0.009-1.787-0.021-2.669-0.021c-5.023-3.975-8.104-9.76-12.888-13.959
		c-1.831-1.896-3.37-4.089-5.482-5.692c-4.473-5.62-9.857-10.493-14.146-16.277c-6.047-7.21-12.497-14.07-18.497-21.317
		c-6.568-7.633-12.968-15.409-19.589-22.988c-9.393-11.405-18.675-22.942-28.854-33.677c-0.479-3.185,0.946-6.048,3.107-8.279
		c8.258-11.638,17.077-22.868,25.188-34.604c5.654-7.771,11.388-15.5,17.313-23.066c14.561-19.798,28.713-39.887,43.83-59.265
		c5.59-7.826,11.7-15.261,17.389-23.011C506.774,381.531,509.046,377.869,512,374.776 M501.135,431.917
		c-10.723,10.269-19.964,21.927-30.344,32.525c-5.201,6.456-11.062,12.319-16.557,18.524
		c-10.679,12.685-22.824,24.092-33.077,37.157c-1.884,2.009-3.662,4.133-5.655,6.031c1.479,2.391,4.26,3.479,5.979,5.673
		c3.716,4.752,8.878,8.114,12.608,12.869c3.652,3.296,7.113,6.838,11.028,9.827c7.68,8.302,16.374,15.559,24.554,23.376
		c2.987,2.74,6.345,5.082,9.058,8.124c4.91,4.534,10.097,8.788,14.804,13.548c0.728,0.539,1.415,1.675,2.479,1.376
		c1.63-0.912,3.089-2.095,4.737-2.959c3.873-2.16,6.744-5.684,10.572-7.914c4.622-3.857,9.521-7.377,14.104-11.292
		c3.312-2.901,7.146-5.184,10.106-8.46c3.746-1.816,6.396-5.145,9.824-7.406c1.486-1.03,2.846-2.22,4.311-3.271
		c3.104-3.818,7.38-6.485,10.994-9.818c7.146-5.283,13.945-11.002,20.929-16.475c0.863-0.919,3.354-1.354,2.815-2.896
		c-2.723-2.026-4.827-4.776-6.794-7.503c-1.228-2.639-3.796-4.253-5.164-6.796c-2.758-4.61-6.892-8.197-9.754-12.729
		c-6.21-7.787-11.771-16.06-18.205-23.66c-5.225-6.492-10.04-13.278-15.124-19.868c-7.773-10.632-16.301-20.695-24.331-31.138
		C503.506,429.518,502.281,430.691,501.135,431.917z"/>
</g>
</svg>
