<?xml version="1.0" encoding="utf-8"?>
<!-- Generator: Adobe Illustrator 15.0.2, SVG Export Plug-In . SVG Version: 6.00 Build 0)  -->
<!DOCTYPE svg PUBLIC "-//W3C//DTD SVG 1.1 Basic//EN" "http://www.w3.org/Graphics/SVG/1.1/DTD/svg11-basic.dtd">
<svg version="1.1" baseProfile="basic" id="Livello_1"
	 xmlns="http://www.w3.org/2000/svg" xmlns:xlink="http://www.w3.org/1999/xlink" x="0px" y="0px" width="886px" height="886px"
	 viewBox="0 0 886 886" xml:space="preserve">
<path fill="#F28B02" d="M640.07,531.196c2.235,6.062,4.02,12.303,6.64,18.229c0.15,1.25,0.312,2.511,0.45,3.78
	c1.56,3.76,3.09,7.697,3.08,11.829c-1.05,7.067-3.41,13.841-6.13,20.421c-2.685,10.947-8.24,21.027-10.062,32.197
	c6.71-2.079,11.65-7.237,17.261-11.188c5.562-4.5,11.554-8.431,16.989-13.08c4.45-3.79,10.25-5.818,13.98-10.47
	c6.09-0.29,10.35,4.5,14.479,8.25c-3.58-2.604-7.22-5.109-10.84-7.63c-4.49,0.479-7.68,3.85-11.29,6.18
	c-9.47,6.352-18.146,13.761-27.38,20.438c-4.07,3.142-8.41,5.922-12.39,9.188c-0.461,0.142-1.384,0.42-1.845,0.562
	c0.78-6.198,3.36-11.938,5.265-17.842c1.8-5.658,3.775-11.25,5.68-16.867c1.35-3.883,1.53-8.109,3.439-11.803
	c2.091-4.42,3.101-9.641,1.221-14.311c-0.5-1.82-1.771-3.302-2.24-5.09c-0.52-5.48-3.05-10.46-4.22-15.803
	C641.37,535.877,640.65,533.557,640.07,531.196z"/>
<g>
	<path fill="#F28B02" d="M240.77,22.452c8.97-1.643,18.39-1.812,27.29,0.3c3.38,0.79,6.73,1.761,9.97,3.04
		c7.979,2.931,15.63,6.681,23.109,10.721c1.24,0.79,2.48,1.569,3.74,2.359c6.04,3.101,11.57,7.08,17.3,10.721
		c4.61,3,9.393,5.859,13.33,9.739c1.4,0.96,0.73,2.75,0.853,4.181c-7.94,5.683-15.013,12.521-22.82,18.41
		c-14.76,12.38-33.5,19.3-52.46,21.729c-10.19,1.538-20.31-1.171-30.46-1.66l-0.58-0.479c-9.65-1.511-18.95-4.721-28.27-7.54
		c-3.27-1.46-6.58-2.811-9.91-4.13c-4.01-1.63-7.82-3.721-11.79-5.431c-4.3-1.271-8.02,2.188-12.02,3.2
		c-9.3,2.857-17.9,7.487-27.07,10.71c-4.24,1.351-8.22,3.58-12.69,4.107c1.23-2.63,2.47-5.271,3.48-7.987
		c1.82-3.86,3.52-7.79,5.47-11.593c2.69-5.438,5.35-10.89,8.45-16.107c1.25-1.76,0.99-3.972,0.83-5.979
		c-5.2-9.3-9.12-19.261-13.37-29.011c-1.2-2.479-2.22-5.05-2.98-7.688c5.96,2.182,11.89,4.461,17.8,6.802
		c8.49,3.897,16.96,7.857,25.39,11.92c2.67,1.317,5.23-1.04,7.7-1.859c1.28-0.5,2.56-0.99,3.85-1.471c2.1-0.83,4.17-1.729,6.27-2.55
		c1.01-0.4,2.03-0.74,3.07-1.053c13.77-4.527,27.59-9.107,41.76-12.271C237.6,23.212,239.19,22.862,240.77,22.452"/>
	<path fill="#CC0218" d="M282.39,53.132c4.25-0.86,9.94,0.04,11.38,4.819c0.89,4.37-0.9,9.351-4.43,12.13
		c-5.72,3.53-14.02-1.76-13.49-8.399C276.14,57.962,278.58,54.012,282.39,53.132z"/>
</g>
<g>
	<path fill="#F28B02" d="M22.07,118.892c1.3,0.28,2.59,0.592,3.88,0.933c4.4,1.96,8.89,3.729,13.28,5.71
		c10.32,4.681,20.47,9.71,30.81,14.351c2.87,0.949,5.86,1.682,8.91,1.25c5.7-2.78,11.82-4.49,17.76-6.67
		c14.09-4.851,28.51-8.681,43.1-11.681c9.01-1.439,18.04-3.143,27.2-2.7c13.19-0.38,26.49,1.41,38.97,5.74
		c3.11,1.141,6.2,2.37,9.27,3.63c14.71,6.55,28.14,15.54,41.45,24.53c2.27,1.5,4.55,2.979,6.86,4.438
		c0.67,0.529,1.35,1.069,2.03,1.619c-0.31,1.24-0.15,2.841-1.45,3.58c-7.18,5.17-15.22,8.96-22.61,13.82
		c-9.44,4.92-19.5,8.521-29.36,12.5c-3.62,1.357-7.31,2.567-10.95,3.907c-16.54,5.03-33.89,8.593-51.24,6.87
		c-5.32-0.641-10.78,0.052-16-1.391c-6.37-1.521-12.83-2.76-19.06-4.8c-1.01-0.229-2.01-0.439-3.01-0.643
		c-9.34-3.21-18.49-6.92-27.59-10.737c-2.83-1.343-6.07-1.479-9.05-0.61c-4.73,1.33-9.39,2.931-14.18,4.08
		c-4.27,1.49-8.65,2.66-13,3.92c-3.58,1.131-7.2,2.11-10.75,3.33c-3.37,0.91-6.73,1.9-10.04,3.03c-3.37,1.09-6.71,2.397-10.27,2.72
		c0.29-1.8,0.58-3.649,1.69-5.141c6.98-11.039,14.54-21.689,21.89-32.479c0.66-1.397,2.28-2.68,1.69-4.359
		c-3.97-7.647-8.46-15.038-12.24-22.788C27.5,129.483,24.49,124.331,22.07,118.892"/>
	<path fill="#CC0218" d="M192.66,154.652c0.94-2.973,3.23-5.2,5.16-7.54c3.3,0.407,6.89,0.107,9.9,1.72
		c2.78,2.04,5.87,5.021,5.14,8.83c0,7.2-9.96,10.521-15.16,6.38C194.54,162.062,192.5,158.402,192.66,154.652z"/>
</g>
<g>
	<path fill="#CC0218" d="M424.11,148.209c5.025,1.96,9.405,5.132,13.97,7.939c8.859,5.29,17.85,10.37,27.13,14.91
		c5.65,2.811,11.4,5.857,17.79,6.471c9.86-0.171,19.35-3.091,29.06-4.45c11.33-2.37,22.54-5.479,33.99-7.2
		c19.49-5.06,39.771-7.31,59.92-6.817c13.08-0.239,26.145,0.141,39.2,1.05c5.6,0.891,11.312,0.939,16.92,1.841
		c13.71,2.353,27.44,4.68,40.94,8.05c9.77,3.263,19.729,6.28,28.776,11.312c13.104,6.42,25.859,13.49,38.88,20.067
		c3.989,2.423,8.644,3.82,12.199,6.9c-0.75,1.5-2.52,1.92-3.84,2.739c-12.53,5.96-24.8,12.49-37.398,18.311
		c-13.341,5.312-26.027,12.37-39.907,16.229c-13.16,2.7-26.343,5.351-39.66,7.101c-10.99,1.479-22.103,1.22-33.15,1.432
		c-8.355,0.141-16.659-0.882-24.92-2.021c-27.81-2.79-54.855-10.479-81.27-19.391c-9.881-3.21-19.395-7.82-29.73-9.41
		c-5.52-0.142-11.26,0.608-16.18,3.28c-12.3,5.271-24.53,10.697-37,15.54c-5.853,2.229-11.59,4.85-17.71,6.27
		c7.25-15.579,18.607-28.77,28.188-42.93C441.48,186.398,431.97,167.68,424.11,148.209"/>
	<path fill="#FDC401" d="M704.58,204.341c0.12-5.892,7.188-9.432,12.45-8.132c2.59,1.96,3.43,5.28,4.51,8.189
		c-1.14,2.181-2.03,4.771-4.39,5.938C712.46,213.819,704.66,210.319,704.58,204.341z"/>
</g>
<g>
	<path fill="#CC0218" d="M206.68,459.005c9.83-4.37,20.38-8.29,31.3-7.71c5.64,0.027,11.3-0.11,16.93,0.438
		c4.31,1.198,8.82,1.51,13.08,2.931c24.28,5.859,45.68,19.271,66.26,32.898c18.18,13.801,34.87,29.393,51.92,44.511
		c1.26,0.989,0.17,2.898-0.63,3.893c-11.94,14.76-26.33,27.271-39.64,40.739c-9.353,8.078-17.393,17.788-28.013,24.301
		c-7,4.607-14.938,7.449-22.57,10.811c-7.4,3.33-15.49,4.609-23.38,6.262c-7.52,1.632-15.3,1.488-22.91,0.779
		c-19.2-1.397-37.9-6.602-56.04-12.802c-7.15-3.198-13.71-7.58-20.55-11.39c-6.6-3.562-12.75-7.87-18.97-12.021
		c-10.53-7.02-20.86-14.357-30.54-22.479c-18.39,8.688-35.36,20.14-53.62,29.13c-4.93,2.317-9.53,5.54-14.95,6.659
		c9.55-23.143,21.74-45.062,32.25-67.762c-12.37-18.479-23.36-37.857-34.07-57.328l0.06-1.041c10.2,4.211,19.33,10.672,29.07,15.852
		c14.4,8.699,29.12,16.891,43.43,25.75c19.94-12.74,39.05-26.779,58.8-39.83C190.9,466.394,198.94,462.915,206.68,459.005"/>
	<path fill="#FDC401" d="M316.34,522.154c6.8-0.979,14.521,5.438,12.7,12.67c-1.06,9.5-14.72,12.229-20.68,5.688
		C303.27,534.074,307.96,522.626,316.34,522.154z"/>
</g>
<g>
	<path fill="#F28B02" d="M757.4,486.207c5.485,0.63,11.039,0.527,16.56,0.351c5.09-0.761,9.9,1.829,14.2,4.229
		c-10.03-3.513-21.13-4.763-31.54-2.211c-2.96,0.75-5.99,1.438-8.61,3.078c-6.025,3.683-12.355,7.001-17.58,11.812
		c-4.34,4.062-9.105,7.648-13.18,12c-2.55,2.688-5.3,5.188-8.16,7.55c6.2-6.438,12.59-12.709,19.44-18.448
		c7.78-7.237,17.08-12.551,26.68-16.972c0.65,0.052,1.96,0.131,2.62,0.182L757.4,486.207z"/>
	<path fill="#F28B02" d="M684.16,545.587c8.31-6.722,15.52-14.67,23.72-21.49c-7.61,7.312-14.97,14.9-23.14,21.602
		c-2.58,2.172-5.45-0.602-7.66-1.932c-6.53-4.75-13.78-8.488-19.99-13.67c8.08,4.938,15.92,10.28,23.73,15.631
		C681.66,545.696,683.33,545.627,684.16,545.587z"/>
	<path fill="#FDC401" d="M756.62,488.578c10.41-2.552,21.51-1.302,31.54,2.211c7.1,4.05,13.5,9.188,19.91,14.229
		c18.605,14.291,36.72,29.229,54.09,45c0.105,0.32,0.33,0.972,0.438,1.291c-6.315,1.289-12.63,2.67-19,3.641
		c-0.14,0.53-0.408,1.58-0.55,2.103c5.98,3.812,11.83,7.83,17.67,11.87c-0.04,0.857-0.065,1.737-0.09,2.642
		c-7.58,7.47-14.521,15.568-21.87,23.271c-6.52,7.119-13.779,13.619-21.76,19.062c-6.59,4.771-13.05,9.729-19.75,14.359
		c-10.61,7.107-24.021,9.697-36.521,7.021l-0.801-0.438c-2-0.53-3.97-1.143-5.89-1.87c-4.2-2.069-8.65-3.689-12.473-6.42
		c-6.827-4.88-13.511-9.95-20.438-14.66c-8.97-5.853-16.521-13.521-24.37-20.71c-4.13-3.75-8.39-8.54-14.479-8.25
		c-3.73,4.647-9.53,6.681-13.98,10.471c-5.438,4.649-11.43,8.58-16.99,13.08c-5.605,3.949-10.55,9.109-17.26,11.188
		c1.82-11.171,7.38-21.25,10.062-32.198c2.72-6.58,5.077-13.353,6.13-20.421c0.01-4.131-1.521-8.068-3.08-11.829
		c-0.145-1.271-0.3-2.529-0.45-3.779c-2.62-5.931-4.4-12.171-6.641-18.229c-1.633-5.051-3.923-9.909-4.899-15.141
		c6.95,4.188,13.89,8.438,20.64,12.948c0.32,0.271,0.96,0.818,1.28,1.091c6.21,5.181,13.46,8.92,19.99,13.67
		c2.21,1.33,5.08,4.102,7.66,1.932c8.17-6.698,15.525-14.291,23.14-21.602c0.3-0.271,0.91-0.812,1.21-1.08
		c2.86-2.358,5.61-4.858,8.16-7.551c4.069-4.351,8.84-7.938,13.18-12c5.225-4.812,11.552-8.13,17.58-11.812
		C750.63,490.017,753.66,489.328,756.62,488.578"/>
	<path fill="#039030" d="M799.37,535.466c6.34-1.79,13.75,2.771,14.09,9.54c-0.12,4.01-1.6,9.08-5.82,10.521
		c-3.896,1.5-8.96,2.398-12.355-0.642c-3.25-2.13-3.9-6.25-3.99-9.829C791.39,540.438,795.18,536.807,799.37,535.466z"/>
</g>
</svg>
