<?xml version="1.0" encoding="utf-8"?>
<!-- Generator: Adobe Illustrator 15.0.2, SVG Export Plug-In . SVG Version: 6.00 Build 0)  -->
<!DOCTYPE svg PUBLIC "-//W3C//DTD SVG 1.1 Basic//EN" "http://www.w3.org/Graphics/SVG/1.1/DTD/svg11-basic.dtd">
<svg version="1.1" baseProfile="basic" id="Livello_1"
	 xmlns="http://www.w3.org/2000/svg" xmlns:xlink="http://www.w3.org/1999/xlink" x="0px" y="0px" width="886px" height="886px"
	 viewBox="0 0 886 886" xml:space="preserve">
<g id="_x23_ffffffff">
	<path fill="#FFFFFF" d="M413.86,241.037c20-2.562,40.147-0.71,60.197-0.103c12.75,0.91,25.44,2.58,38.16,3.95
		c-0.729,21.8-1.88,43.591-1.816,65.41c-0.804,26.449-0.054,52.92-0.724,79.38c-0.1,16.67-0.43,33.34-0.236,50.021
		c-1.144,29.97-3.79,59.937-2.58,89.96c0.47,14.01-0.45,28.01-0.394,42.02c-1.08,22.971,0.03,45.971-0.77,68.949
		c-0.25,26.32-0.33,52.65-0.13,78.971c0.6,29.359-0.4,137.045-0.021,166.404H283.98c0.9-5.939,0.48-30.48,0.41-36.449
		c-1-13.32-0.73-86.516-1.33-99.834c-0.27-12.041,0.45-24.051,0.14-36.08c-0.23-14.33-0.18-28.67-0.23-43
		c-0.76-25.979-0.29-51.971-0.51-77.961c0.17-14.68-0.66-29.35-0.43-44.029c-0.05-19.117-0.561-38.229-0.62-57.357
		c0.47-25.221-0.38-50.44-0.93-75.66c-0.27-10.351,1.59-20.591,3.18-30.78c2.13-13.67,4.1-27.37,6.57-40.987
		c1.03-4.723,1.75-9.58,3.87-13.973c3.46-8.317,7.01-16.688,11.75-24.37c10.58-13.92,22.271-27.17,36-38.061
		c9.223-8.14,20.513-13.39,31.633-18.38C386.41,244.207,400.16,242.227,413.86,241.037"/>
</g>
<g id="_x23_fdc401ff">
	<path fill="#FDC401" d="M529.95,246.646c44.67-2.021,89.41-1.271,134.12-1.448c11.63-0.319,23.146,1.688,34.75,2.13
		c15.479,1.16,30.946,2.12,46.438,3.068c1.25,1.909,2.301,4.029,2.25,6.392c-1.527,1.858-2.64,4.271-5.01,5.221
		c-18.98,10.143-37.97,20.271-57.03,30.279c-24.229,12.41-48.6,24.561-72.987,36.649c-15.159,7.101-29.973,14.979-44.093,23.988
		c-3.396,2.33-7.3,3.95-10.316,6.819c12.21,4.479,24.479,8.78,36.77,13.04c16.354,5.301,32.261,11.817,48.432,17.631
		c21.278,8.079,43.068,14.859,63.892,24.109c9.91,4.729,19.62,9.947,28.87,15.897c-11.69,0.149-23.37-0.859-35.05-1.26
		c-29.98-1.642-59.99-2.631-89.99-3.66c-8.66-0.58-17.354-0.04-25.99-0.87c-24.17-0.63-48.359-0.59-72.52-1.479
		c0.17-11.183,0.827-22.342,0.96-33.521c0.1-33.41,2-66.78,2.196-100.181c0.812-13.63-0.229-27.279,0-40.899
		C520.28,247.087,525.09,246.537,529.95,246.646z"/>
</g>
<g id="_x23_0291b4ff">
	<path fill="#0291B4" d="M404.47,308.278c6.19-0.32,13.13-0.479,18.15,3.777c7.12,3.78,12.18,11.46,11.97,19.62
		c0.36,6.2-2.17,12.149-5.2,17.41c-3.13,3.38-7.276,5.75-11.27,7.979c-8.641,1.08-18.21,1.25-25.71-3.811
		c-2.72-2.62-5.521-5.28-7.271-8.66c-3.87-9.38-2.647-21.51,5.271-28.47C393.87,311.747,399.23,309.646,404.47,308.278z"/>
</g>
</svg>
