<?xml version="1.0" encoding="utf-8"?>
<!-- Generator: Adobe Illustrator 15.0.2, SVG Export Plug-In . SVG Version: 6.00 Build 0)  -->
<!DOCTYPE svg PUBLIC "-//W3C//DTD SVG 1.1 Basic//EN" "http://www.w3.org/Graphics/SVG/1.1/DTD/svg11-basic.dtd">
<svg version="1.1" baseProfile="basic" id="Livello_1"
	 xmlns="http://www.w3.org/2000/svg" xmlns:xlink="http://www.w3.org/1999/xlink" x="0px" y="0px" width="886px" height="886px"
	 viewBox="0 0 886 886" xml:space="preserve">
<g id="_x23_ce041aff">
	<path fill="#CE041A" d="M278.69,19.202c1.45-0.101,2.9-0.199,4.36-0.29c5.3,4.989,10.8,9.75,16.22,14.609
		c4.924,4.351,9.104,9.44,13.7,14.12c16.66,18.75,34.354,36.561,50.9,55.41c10.66,1.43,21.43,0.869,32.146,1.04
		c11.312,0.119,22.62,0.06,33.934,0.17c27.314,0.739,54.64-0.42,81.97,0.069c3.89-0.062,8.4,0.688,11.45-2.359
		c20.46-16.75,40.59-33.91,60.84-50.92c11.43-8.681,22.95-17.29,35.09-24.94c1.73,13.48,3.66,26.972,4.225,40.562
		c-0.239,19.33,2.091,38.67,0.271,57.979c-0.229,11.69-1.24,23.353-1.56,35.04c-1.476,17.96-2.12,35.973-2.62,53.99
		c-1.396,20.71-2.436,41.489-5.341,62.069c-0.895,6.87-3.425,13.359-5.354,19.989c-2.91,9.479-8.38,17.858-13.83,26.051
		c-11.39,17.199-25.84,32.051-39.87,47.051c1.95,3.72,5.4,6.29,8.15,9.38c4.71,5.25,9.188,10.71,13.77,16.09
		c6.056,6.95,10.54,15.062,15.65,22.7c7.96,12.75,16.729,25.01,23.58,38.42c8.93,16.16,16.689,32.939,23.689,50.029
		c7.341,24.73,12.82,49.971,18.301,75.171c1.72,8.96,3.904,17.85,4.734,26.96c3.78,29.869,6.37,59.93,6.806,90.05
		c-0.346,40.354-0.686,80.729,0.729,121.069c0.391,9.607-0.06,19.229-0.07,28.857c-0.71,27.353-1.25,54.723-2.89,82.041
		c0.1,11.607-1.34,23.157-1.34,34.771c-1.05,11.729-0.75,23.521-1.82,35.25H217.57c-0.01-18.69-1.34-37.36-1.14-56.051
		c-0.72-12.96-1.04-25.939-1.11-38.92c-0.76-9.354,0.12-18.7,0.09-28.055c0.09-17.325,0.08-34.655,0.86-51.96
		c0.41-12.05-0.3-24.14,0.95-36.146c0.72-16.97,1.82-33.92,2.34-50.899c0.77-11.641,0.23-23.34,1.53-34.948
		c1.06-21.432,3.43-42.771,5.4-64.132c1.31-9.659,1.64-19.5,4.11-28.97c2.46-10.068,3.56-20.41,6.27-30.41
		c5.47-21.3,11.55-42.431,17.86-63.488c3.19-9.842,5.7-19.938,10.07-29.352c13.96-33.53,32.08-65.108,50.83-96.148
		c5.09-8.42,11.3-16.092,16.49-24.447c-10.49-10.229-21.25-20.38-29.604-32.514c-9.458-13.21-14.316-29.039-17.56-44.776
		c-10.58-53.552-11.99-108.33-12.22-162.74c-0.59-17.369,1.08-34.669,1.979-51.999C275.72,55.492,277.98,37.392,278.69,19.202"/>
</g>
<path fill="#010101" d="M444.19,244.961c4.896-1.38,10.5-1.35,15.01,1.24c4.938,2.67,10.438,4.681,14.27,8.97
	c9.61,9.771,20.53,18.681,27.28,30.82c3.17,4.867,5.52,10.688,4.74,16.59c-1.476,4.83-4.07,9.34-7.16,13.311
	c-11.12,10.74-26.5,15.17-41.3,18.01c-15.12,4.765-31.84,1.935-45.61-5.51c-5.9-2.37-10.51-6.811-15.35-10.76
	c-5.03-4.391-7.96-11.32-6.74-17.99c0.68-6.857,4.83-12.55,8.74-17.95c4.396-5.59,9.6-10.47,14.066-15.987
	c2.67-3.353,6.46-5.479,9.86-7.99C428.85,252.592,436.32,248.272,444.19,244.961z"/>
<g id="_x23_fdc401ff">
	<path fill="#FDC401" d="M513.3,145.092c10.436-2.21,21.186,2.329,28.3,9.92c3.62,4,5.12,9.3,6.83,14.29
		c2.04,5.58,0.7,11.67-0.47,17.29c-4.8,11.449-16.11,21-28.97,20.8c-5.73-0.141-11.91-1.397-16.12-5.58
		c-3.69-3.601-7.62-7.147-10.08-11.75c-2.59-5.438-4.22-11.58-3.03-17.601c1.11-5.619,1.976-11.729,5.84-16.22
		C500.03,150.653,506.57,147.102,513.3,145.092z"/>
	<path fill="#FDC401" d="M370.41,146.242c6.08-0.562,11.87,2.277,17.18,4.93c5.63,2.7,8.11,8.82,11.04,13.931
		c4.08,7.16,3.43,15.819,2.141,23.643c-0.787,5.438-5.067,9.29-8.938,12.777c-7.76,5.5-17.46,8.49-26.99,7.229
		c-7.146-1.689-14.21-5.25-18.396-11.5c-3.86-4.359-4.724-10.229-5.82-15.72c-1.2-6.812,0.13-14.229,4.22-19.883
		c3.021-4.34,6.74-8.25,11.12-11.229C360.17,147.421,365.49,147.142,370.41,146.242z"/>
</g>
<rect fill="none" stroke="#000000" stroke-width="1.1169" stroke-miterlimit="10" width="886" height="1230"/>
</svg>
