<?xml version="1.0" encoding="utf-8"?>
<!-- Generator: Adobe Illustrator 15.0.2, SVG Export Plug-In . SVG Version: 6.00 Build 0)  -->
<!DOCTYPE svg PUBLIC "-//W3C//DTD SVG 1.1 Basic//EN" "http://www.w3.org/Graphics/SVG/1.1/DTD/svg11-basic.dtd">
<svg version="1.1" baseProfile="basic" id="Livello_1"
	 xmlns="http://www.w3.org/2000/svg" xmlns:xlink="http://www.w3.org/1999/xlink" x="0px" y="0px" width="886px" height="886px"
	 viewBox="0 0 886 886" xml:space="preserve">
<g id="_x23_6d5940ff">
	<path fill="#6D5940" d="M510.71,277.76c8.54-9.5,17.47-18.66,26.8-27.38c0.3,2.87,0.53,5.75,0.562,8.649
		c-0.353,27.318-1.33,54.63-1.57,81.96c-0.84,15.979-0.68,31.979-1.08,47.979c0.04,7.472-0.78,14.95-0.16,22.432
		c11.59,2.818,23.271,5.26,35.08,6.97c16.271-12.739,32.28-25.812,48.49-38.63c23.29-18.739,47.05-36.859,70.77-55.05
		c6.29-4.382,11.5-10.142,18.08-14.11c0.08,2.87,0.07,5.761-0.317,8.631c-6.58,37.3-10.88,74.949-16.33,112.42
		c-1.103,12.319-4.38,24.279-6.062,36.51c-0.56,4.301-1.897,8.49-2.06,12.842c0.42,9.278,5.89,17.1,9.82,25.188
		c14.17,28.149,27.06,56.97,42.357,84.55c4.38,8.79,10.66,16.471,14.682,25.471c10.108,18.399,19.011,37.409,28.271,56.229
		c7.17,15.38,15.46,30.199,23.58,45.1c9.24,17.7,19.66,34.762,28.43,52.711c10.13,18.641,19.091,37.869,29.103,56.579
		c8.89,17.21,17.33,34.671,26.85,51.551V886H399.19c-11.25-14.41-22.83-28.57-34.41-42.711c-12.88-16.1-26.601-31.5-39.561-47.529
		c-19.27-19.04-38.91-37.71-58.77-56.13c-15.76-13.591-31.44-27.28-47.53-40.471c-14.32-11.351-27.91-23.609-42.77-34.26
		c-17.86-13.552-36.26-26.38-54.12-39.932c-8.69-7.391-17.8-14.261-26.81-21.25c-10.97-8.42-21.8-17.068-33.66-24.21
		c-12.35-9.37-24.47-19.068-37.14-28.01c-1.88-0.91-0.77-3.091-0.48-4.591c3.15-8.812,6.14-17.682,9.15-26.529
		c6.83,2.89,14.08,5.12,21.41,6.17c7.81-6.471,14.27-14.49,21.86-21.24c1.26-1.188,3.1-0.648,4.65-0.778
		c1.76,11.641,4.11,23.181,5.88,34.83c8.65,2.988,17.34,5.851,26.06,8.619c7.67-7,15.29-14.039,22.85-21.149
		c1.85-1.851,4.31-2.84,6.51-4.17c1.6,11.91,2.75,23.87,4.19,35.801c5.02,2.97,10.17,7.05,16.41,5.909
		c4.53,0.41,7.71-2.96,10.62-5.859c6.49-6.181,13.23-12.101,19.69-18.311c1.56,1.261,3.87,2.2,4.03,4.511
		c1.7,9.63,1.86,19.54,4.11,29.079c2.38,1.221,5.05,1.761,7.62,2.479c8.26,2.08,16.39,4.62,24.66,6.672
		c9.63-9.729,19.26-19.472,29.08-29.021c2.42,14.609,4.09,29.319,6.12,43.989c12.65,4.431,25.09,9.529,38.09,12.87
		c11.801,3.229,23.271,7.521,34.95,11.13c-21.26-24.479-42.51-48.971-63.87-73.37c-11.51,1.921-23,3.99-34.51,5.961
		c1.85-7.841,3.74-15.681,5.62-23.511c0.32-1.801,1.24-4.062-0.68-5.29c-7.27-6.521-14.68-12.899-22.12-19.229
		c-13.96,5.359-27.62,11.79-42.18,15.352c0.22-9.939,1.36-19.83,2.54-29.689c0.11-2.25,0.69-4.95-1.23-6.609
		c-4.03-4.181-8.98-7.369-12.82-11.75c-12.54,3.859-25.02,7.891-37.6,11.641c0.11-12.141,0.32-24.279,0.46-36.42
		c-6.57-7.05-13.37-13.891-19.94-20.939c-14.65,4.529-29.17,9.479-43.8,14.069c-0.45-11.699-0.96-23.399-0.78-35.101
		c-0.21-2.5,0.2-5.369-1.36-7.5c-4.61-5.359-11.54-8.029-16.23-13.289c0.98-5.229,3.23-10.092,4.92-15.11
		c4-10.869,7.69-21.85,12.15-32.54c111.84,16.761,223.74,33.16,335.59,49.87c2.33,0.561,4.69-0.239,6.3-2
		C445.53,350.59,477.88,313.949,510.71,277.76"/>
</g>
<g id="_x23_cd031bff">
	<path fill="#CD031B" d="M502.2,477.36c7.13-1.939,14.72-0.07,20.81,3.891c4.46,2.989,9.44,5.68,12.46,10.289
		c5.65,7.801,8.87,17.83,7.263,27.471c-0.54,4.21-1.973,8.24-3.562,12.16c-2.188,5.35-6.54,9.449-11.07,12.869
		c-4.438,3.391-10.039,4.551-15.39,5.61c-3.84,0.698-7.97,1.05-11.63-0.552c-3.26-1.438-6.4-3.148-9.55-4.811
		c-6.8-3.539-11.63-9.789-15.73-16.079c-2.77-4.16-2.93-9.271-3.479-14.061c-1.04-7.66,2.13-15.229,6.43-21.399
		c3.26-4.29,6.67-8.841,11.66-11.221C494.17,479.72,498.16,478.39,502.2,477.36z"/>
</g>
</svg>
