<?xml version="1.0" encoding="utf-8"?>
<!-- Generator: Adobe Illustrator 15.0.2, SVG Export Plug-In . SVG Version: 6.00 Build 0)  -->
<!DOCTYPE svg PUBLIC "-//W3C//DTD SVG 1.1 Basic//EN" "http://www.w3.org/Graphics/SVG/1.1/DTD/svg11-basic.dtd">
<svg version="1.1" baseProfile="basic" id="Livello_1"
	 xmlns="http://www.w3.org/2000/svg" xmlns:xlink="http://www.w3.org/1999/xlink" x="0px" y="0px" width="886px" height="886px"
	 viewBox="0 0 886 886" xml:space="preserve">
<g>
	<path fill="#FFFFFF" d="M143.922,59.089c8.224-1.241,16.487-2.19,24.751-3.104c8.312-0.455,16.632,0.318,24.864,1.456
		c6.448,0.615,12.183,3.919,17.888,6.728c7.016,4,13.976,8.104,20.583,12.744c9.256,7.392,17.232,16.496,22.792,26.983
		c2.455,4.703,5.176,9.272,7.417,14.088c1.967,5.286,4.664,10.271,6.751,15.52c2.022,5.792,2.086,11.992,2.959,18
		c0.112,4.521,0.286,9.048,0.191,13.576c-1.545,10.633-3.85,21.177-7.545,31.296c-3.487,11.128-10.455,20.792-18.312,29.256
		c-5.224,4.264-8.888,10.112-14.312,14.159c-5.2,3.937-10.464,7.85-16.223,10.951c-9.288,5.791-20.282,7.591-30.72,10.281
		c-9.544,2.399-19.455,2.584-29.224,1.881c-9.119-1.289-18.254-2.761-27.016-5.672c-5.496-1.105-10.272-4.113-15.296-6.419
		c-4.327-2.094-8.2-4.967-12.351-7.375c-2.409-1.682-4.951-3.209-7.2-5.096c-7.095-8.063-13.151-16.977-18.873-26.04
		c-2.055-3.15-3.367-6.695-4.422-10.281c-3.328-9.918-6.697-20-7.369-30.519c-0.473-2.904-0.576-5.856-0.655-8.784
		c-0.096-4.841-1.183-9.713-0.217-14.52c1.76-9.903,2.217-20.319,7.042-29.359c3.744-6.271,7.264-12.768,12.15-18.256
		c7.8-8.512,15.904-16.808,25.119-23.808c5.409-4,10.881-8.129,17.241-10.513C130.53,63.699,137.098,60.986,143.922,59.089"/>
</g>
</svg>
