<?xml version="1.0" encoding="utf-8"?>
<!-- Generator: Adobe Illustrator 15.0.2, SVG Export Plug-In . SVG Version: 6.00 Build 0)  -->
<!DOCTYPE svg PUBLIC "-//W3C//DTD SVG 1.1 Basic//EN" "http://www.w3.org/Graphics/SVG/1.1/DTD/svg11-basic.dtd">
<svg version="1.1" baseProfile="basic" id="Livello_1"
	 xmlns="http://www.w3.org/2000/svg" xmlns:xlink="http://www.w3.org/1999/xlink" x="0px" y="0px" width="886px" height="886px"
	 viewBox="0 0 886 886" xml:space="preserve">
<g id="_x23_bcdff3ff">
	<path fill="#BCDFF3" d="M412.71,166.66c18.66-2.25,37.59-2.899,56.29-0.75c18.69,1.027,36.59,6.87,54.86,10.45
		c6.856,1.22,13.26,4.1,19.84,6.3c13.729,4.79,27.63,9.17,40.938,15.08c12.764,5.42,25.16,11.67,37.9,17.147
		c11.2,5.312,22.81,9.933,33.2,16.779c4.738,3.41,10.16,5.7,14.979,9.011c10.5,6.67,20.59,14.021,30.053,22.109
		c-13.643,6.061-26.843,13.091-39.893,20.319c9.05,9.229,18.393,18.198,27.143,27.729c-10.683,4.8-21.789,8.601-32.643,13.04
		c-9.729,4.079-19.72,7.5-29.6,11.22c-17.894,6.16-36.54,9.71-54.83,14.45c-14.644,2.562-29.15,6.01-43.973,7.409
		c-10.961,1.551-22.037,1.851-33.051,2.801c-12.979,0.569-25.96,0.01-38.93-0.28c-10.47-0.368-20.88-1.737-31.12-3.938
		c-13.97-2.892-28.16-4.8-41.81-9.09c-15.44-4.723-30.88-9.433-46.103-14.84c-9.08-2.7-17.66-6.79-26.729-9.479
		c-16.71-5.479-33.12-11.721-49.81-17.25c-4.92-1.761-9.84-3.647-15.06-4.261c-7.54,4.101-15.95,6.17-23.8,9.58
		c-11.71,4.39-23.08,9.647-34.77,14.107c-15.11,6.37-29.82,13.66-45.05,19.74c4.59-13.5,12.5-25.551,18.6-38.391
		c3.07-7.5,8.16-13.932,11.32-21.393c1.43-3.729,3.79-6.979,6.54-9.829c2.75-5.828,7.64-10.591,9.11-17
		c-0.16-2.858-1.35-5.5-2.28-8.158c-2.95-7.91-4.69-16.222-7.87-24.051c-5.1-15-8.6-30.479-13.22-45.619
		c7.83,2.789,14.91,7.237,22.57,10.42c9.65,4.34,19.42,8.408,29.04,12.811c4.36,2.449,8.96,4.393,13.62,6.199
		c9.91,4.511,19.93,8.771,29.57,13.87c13.34-6.46,26.96-12.3,40.46-18.41c14.84-7.489,30.4-13.39,45.521-20.279
		C365.5,174.379,389.2,170.059,412.71,166.66"/>
</g>
<g id="_x23_fdc402ff">
	<path fill="#FDC402" d="M560.84,235.03c4.19-0.71,8.51-0.183,12.604,0.89l0.188,0.53c5.58,2.641,10.62,6.857,12.57,12.92
		c0.17,2.66,0.18,5.317,0.2,7.99c-1.42,4.021-2.79,8.42-6.41,11.039c-3.78,2.771-8.104,5.961-13.062,5.318
		c-4.736-0.647-9.96-1.301-13.606-4.721c-7.2-5.353-8.75-16.17-4.65-23.892C550.92,240.07,555.88,236.958,560.84,235.03z"/>
</g>
</svg>
