<?xml version="1.0" encoding="iso-8859-1"?>
<!-- Generator: Adobe Illustrator 15.0.2, SVG Export Plug-In . SVG Version: 6.00 Build 0)  -->
<!DOCTYPE svg PUBLIC "-//W3C//DTD SVG 1.1 Basic//EN" "http://www.w3.org/Graphics/SVG/1.1/DTD/svg11-basic.dtd">
<svg version="1.1" baseProfile="basic" id="Layer_1"
	 xmlns="http://www.w3.org/2000/svg" xmlns:xlink="http://www.w3.org/1999/xlink" x="0px" y="0px" width="768px" height="1024px"
	 viewBox="0 0 768 1024" xml:space="preserve">
<g id="rana">
	<g>
		<g id="_x23_ffffffff_1_">
			<path style="fill:#FFFFFF;" d="M0.003,1023.362c0.381,0.153,1.141,0.474,1.521,0.636H0.003V1023.362z"/>
		</g>
		<g id="_x23_00904bff">
			<path style="fill:#00904B;" d="M344.585,592.062c4.555-0.799,9.201-0.52,13.8-0.581c4.291-0.085,8.589,0.479,12.669,1.831
				c8.176,2.646,16.143,6.469,22.502,12.342c6.377,5.778,12.879,11.458,18.812,17.686c5.555,6.833,11.219,13.566,16.872,20.316
				c4.671,5.887,9.883,11.34,15.538,16.289c8.169,8.074,17.919,14.249,27.195,20.937c4.778,3.421,10.115,5.936,15.169,8.905
				c13.646,7.772,27.312,15.506,40.938,23.312c12.718,7.701,25.507,15.28,38.234,22.961c4.711,2.562,9.185,5.646,12.823,9.613
				c2.724,2.59,5.641,5.523,5.681,9.562c-10.265,3.49-20.862,5.889-31.296,8.789c-12.302,3.188-24.318,7.328-36.379,11.265
				c7.096,0.14,14.164-0.634,21.264-0.858c11.33-1.062,22.735-0.745,34.1-0.373c1.481,0.018,2.955,0.272,4.413,0.583
				c-3.841,7.136-8.642,13.668-13.178,20.362c-4.615,6.026-8.218,12.808-13.342,18.431c-11.474,13.63-22.688,27.471-34.202,41.065
				c-15.756,16.787-31.521,33.582-47.655,50.003c-10.417,10.294-20.293,21.117-30.641,31.472
				c-21.96,22.007-43.339,44.604-66.066,65.82c-8.573,7.509-17.579,14.513-26.794,21.207c-3.731,0.877-7.695,0.233-11.513,0.479
				c-6.779,0.266-13.631-0.645-20.341,0.521H1.523c-0.381-0.164-1.141-0.48-1.521-0.635v-180.18
				c1.428-7.898,2.784-15.803,4.367-23.66c2.273-7.214,5.461-14.087,8.129-21.156c5.291-13.396,12.195-26.056,18.416-39.018
				c4.902-6.673,9.068-13.979,15.033-19.797c4.895-5.215,9.914-10.303,15.064-15.25c11.876-10.629,24.924-19.836,38.329-28.425
				c4.267-3.125,9.23-5.072,14.181-6.817c21.827-7.842,44.169-14.117,66.114-21.58c11.923-3.771,23.365-8.844,34.799-13.854
				c13.993-6.346,28.144-12.396,41.742-19.581c12.938-6.64,25.862-13.317,38.561-20.416c8.502-5.383,17.405-10.107,26.263-14.885
				C328.28,594.816,336.531,593.459,344.585,592.062"/>
		</g>
		<g id="_x23_ffd400ff">
			<path style="fill:#FFD400;" d="M345.918,626.738c12.288-0.887,25.487,2.651,34.117,11.859c2.216,2.723,5.058,5.08,6.253,8.486
				c2.839,7.562,5.687,15.839,3.058,23.906c-1.087,2.086-0.637,4.578-1.715,6.656c-1.257,2.442-1.632,5.351-3.576,7.406
				c-3.94,5.479-9.627,9.443-15.686,12.249c-3.803,1.909-8.208,0.743-12.202,1.85c-5.062,1.161-10.31,0.1-15.149-1.492
				c-4.451-2.521-8.819-5.213-13.257-7.774c-2.055-1.822-3.738-4.109-5.175-6.447c-2.078-4.638-5.135-8.89-6.226-13.913
				c-0.187-4.432,0.077-8.922,1.277-13.195c0.829-3.164,0.767-6.664,2.668-9.456c2.016-3.344,3.359-7.27,6.492-9.782
				c2.568-2.085,4.707-4.776,7.773-6.174C338.209,629.173,341.986,627.652,345.918,626.738z"/>
		</g>
	</g>
	<g>
		<path style="fill:#C8418E;" d="M642.96,59.743c4.718-3.091,10.387-4.397,15.942-4.922c3.098-0.397,6.01,0.979,8.979,1.619
			c6.355,1.517,10.738,6.815,14.502,11.808c1.853,2.157,1.945,5.14,2.957,7.693c1.619,4.447,2.176,9.164,2.566,13.85
			c0.076,7.033-1.778,13.869-3.291,20.679c-0.625,1.646-1.338,3.257-1.74,4.975c4.166,2.181,8.538,3.935,12.703,6.119
			c4.359,2.521,8.551,5.433,12.015,9.126c3.032,3.214,6.636,6.31,7.82,10.744c0.891,3.228,2.604,6.35,2.312,9.786
			c-0.227,3.917-0.227,7.975-1.754,11.654c-1.965,4.339-5.331,7.847-8.807,11.015c-1.724,1.613-3.867,2.656-6.049,3.481
			c-8.059,3.073-16.793,3.597-25.332,3.578c1.389,5.6,3.949,10.829,5.377,16.422c0.939,3.455,2.299,7.117,1.338,10.714
			c-0.396,1.896-0.582,3.827-1.104,5.694c-3.187,6.158-7.072,12.205-12.851,16.236c-3.925,2.645-8.954,3.528-13.577,2.605
			c-8.734-1.069-16.286-6.011-23.588-10.567c-4.288-3.774-8.538-7.629-12.577-11.687c-0.422,0-1.271,0-1.695,0
			c-2.599,1.959-3.975,5.03-6.198,7.342c-4.602,4.89-9.512,9.644-15.349,13.028c-7.454,3.674-16.173,3.091-24.03,1.186
			c-3.495-0.673-6.555-2.553-9.65-4.205c-5.869-3.827-9.037-10.814-9.264-17.702c-0.664-5.46,0.865-10.798,1.75-16.135
			c0.998-4.512,2.031-9.081,4.126-13.229c0.856-1.908,2.226-3.84,1.542-6.018c-6.723-1.221-13.723-1.643-20.025-4.466
			c-4.717-3.028-10.387-5.268-13.389-10.292c-1.875-2.897-4.498-5.651-4.748-9.267c-0.359-4.076-0.604-8.312,0.778-12.236
			c1.332-3.705,3.05-7.334,5.566-10.382c4.161-4.345,9.167-7.854,14.664-10.291c6.053-2.847,12.3-5.613,18.996-6.458
			c1.784-0.192,3.567-0.338,5.324-0.755c-1.199-4.57-3.714-8.979-3.306-13.825c-0.197,0.743-0.4,1.479-0.605,2.222
			c-0.021-1.146-0.038-2.292-0.104-3.437c-1.35-8.589-2.26-17.825,1.057-26.146c2.305-6.47,8.521-10.675,14.826-12.684
			c4.328-1.498,9.188-1.479,13.437,0.275c5.075,1.882,9.771,4.646,14.414,7.404c6.063,4.211,11.603,9.12,17.388,13.702
			c3.229-1.153,5.146-4.146,7.438-6.496C635.459,67.57,638.795,63.231,642.96,59.743z"/>
	</g>
</g>
<g id="lupo">
</g>
</svg>
