<?xml version="1.0" encoding="utf-8"?>
<!-- Generator: Adobe Illustrator 15.0.2, SVG Export Plug-In . SVG Version: 6.00 Build 0)  -->
<!DOCTYPE svg PUBLIC "-//W3C//DTD SVG 1.1 Basic//EN" "http://www.w3.org/Graphics/SVG/1.1/DTD/svg11-basic.dtd">
<svg version="1.1" baseProfile="basic" id="Livello_1"
	 xmlns="http://www.w3.org/2000/svg" xmlns:xlink="http://www.w3.org/1999/xlink" x="0px" y="0px" width="886px" height="886px"
	 viewBox="0 0 886 886" xml:space="preserve">
<g id="_x23_ffffffff">
	<path fill="#FFFFFF" d="M361.17,309.075c16.82-6.55,34.99-8.01,52.812-9.55c7.027,0.027,14.06-0.973,21.09-0.279
		c11.92,0.55,23.856,0.579,35.77,1.43c10.88,1.183,21.76,2.33,32.644,3.49c-0.79,18.279-1.264,36.569-1.82,54.869
		c-0.18,38.99-0.32,77.99-0.62,116.979c-0.39,12.99,0.36,25.99-0.521,38.973c-0.898,20.34-2.142,40.681-2.238,61.05
		c0.2,13.312,0.43,26.62,0.3,39.931c-0.03,12.021-0.67,24.03-0.61,36.053c0.271,48.64-1.38,97.277-0.197,145.92
		c0.431,17.35-0.109,70.697-0.211,88.061H270.55c-1.28-29.66-0.21-95.351-1.02-125.011c0.189-22.33-0.62-44.64-0.45-66.97
		c-0.08-28.12-0.61-56.24-0.67-84.353c-0.09-16.221-0.67-32.42-0.47-48.641c-0.59-4.688-0.34-9.37,0.01-14.061
		c-0.2-19.989-0.71-39.972-1.13-59.949c-1.06-11.763,0.39-23.521,2.31-35.103c3.09-18.62,5.09-37.46,9.56-55.818
		c3.77-9.682,7.78-19.319,13.04-28.302c12.35-17.011,26.98-32.448,43.82-45.067C343.62,317.346,352.34,313.056,361.17,309.075"/>
</g>
<g id="_x23_fdc401ff">
	<path fill="#FDC401" d="M509.47,307.136c15.63,4.25,31.052,9.29,46.59,13.86c29.712,8.909,59.554,17.35,89,27.109
		c27,8.777,53.884,17.907,81.04,26.18c5,1.181,9.062,4.631,12.2,8.561c3.69,2.16,6.271,6.473,5.511,10.78
		c-25.791,6.409-51.501,13.159-77.271,19.659c-12.17,2.78-24.36,5.45-36.521,8.229c-15,3.553-30.25,6.08-45.09,10.23
		c13.36,3.34,27.014,5.396,40.49,8.188c26.28,5.422,52.28,12.079,78.54,17.602c6.86,1.311,13.62,3.221,20.12,5.811
		c-8.61,1.41-17.4,1.5-26.09,2.21c-46.96,3.603-93.94,6.65-140.934,10.04c-17.119,1.53-34.236,2.812-51.31,4.74
		c-0.21-0.311-0.63-0.938-0.853-1.25c1.489-32.021,1.489-64.09,2.643-96.12C508.13,357.687,509,332.416,509.47,307.136z"/>
</g>
<path fill="#0291B4" d="M392.44,370.768c4.96-0.852,10.27-0.569,15.117,0.868c5.893,3.42,12.53,7.229,14.79,14.12
	c3.394,7.58,1.644,16.37-2.17,23.45c-1.38,3.319-4.438,5.39-7.3,7.34c-2.43,1.55-4.86,3.46-7.84,3.71
	c-6.67,1.051-13.62,0.45-19.9-2.061c-9.729-4.312-15.46-15.88-13.13-26.22C373.46,381.526,382.3,373.006,392.44,370.768z"/>
</svg>
