<?xml version="1.0" encoding="utf-8"?>
<!-- Generator: Adobe Illustrator 16.0.0, SVG Export Plug-In . SVG Version: 6.00 Build 0)  -->
<!DOCTYPE svg PUBLIC "-//W3C//DTD SVG 1.1//EN" "http://www.w3.org/Graphics/SVG/1.1/DTD/svg11.dtd">
<svg version="1.1" id="Layer_1" xmlns="http://www.w3.org/2000/svg" xmlns:xlink="http://www.w3.org/1999/xlink" x="0px" y="0px"
	 width="768px" height="1024px" viewBox="0 0 768 1024" enable-background="new 0 0 768 1024" xml:space="preserve">
<g id="gatto">
</g>
<g id="_x23_f0d68bff">
	<path fill="#FFF69B" d="M304.739,504.367c11.948,0.009,23.893-0.208,35.832-0.246c10.026-0.518,20.078-0.507,30.114-0.507
		c19.854,0.438,39.717,0.082,59.579,0.246c17.935-0.3,35.875,0.192,53.817-0.03c12.682-0.854,25.398-0.149,38.104-0.436
		c4.17,0.03,8.354-0.371,12.524-0.007c0.179,0.321,0.535,0.957,0.717,1.278c2.376,4.005,3.834,8.438,5.537,12.748
		c5.791,15.006,11.155,30.174,16.446,45.366c4.078,12.562,7.974,25.188,12.83,37.49c0.688,4.043,2.31,7.865,2.854,11.946
		c2.311,8.66,4.434,17.359,6.921,25.97c1.891,8.266,4.925,16.318,5.282,24.868c3.469,24.658,7.733,49.216,10.291,73.985
		c0.014,3.513,1.127,6.912,1.18,10.425c0.052,3.312,1.24,6.485,1.151,9.806c-0.083,2.778,1.083,5.396,1.11,8.177
		c0.067,4.244,1.303,8.369,1.271,12.629c1.493,8.167,1.621,16.499,2.22,24.764c-0.438,9.729,1.31,19.385,1.172,29.105
		c0.053,7.74,1.367,15.424,1.078,23.165c0.225,7.739,1.373,15.453,1.194,23.218c0.237,7.457,1.412,14.886,1.104,22.374
		c-0.238,4.251,0.582,8.457,0.609,12.71c0.067,3.981,0.114,7.973,0.449,11.949c0.354,7.479-0.335,14.997,0.666,22.445
		c0.738,5.692,0.281,11.447,1.054,17.137c0.627,7.003,0.62,14.023,1.466,21.014c0.635,4.834,0.037,9.729,0.709,14.557
		c0.604,7.816,0.993,15.644,0.784,23.486H149.78c1.354-9.527,0.859-19.188,1.979-28.74c0.575-4.849,0.149-9.729,0.359-14.586
		c0.553-4.991,0.364-10.021,1.021-14.99c0.083-6.2-0.044-12.418,0.836-18.574c0.436-2.743,0.473-5.53,0.485-8.294
		c0.076-6.023,1.271-11.975,1.062-17.995c0.022-3.97,0.576-7.898,0.682-11.854c0.762-8.969,0.269-17.979,0.993-26.943
		c-0.174-7.242,0.882-14.438,0.611-21.682c-0.284-5.773,1.217-11.438,1.159-17.209c0.007-3.511,1.054-6.92,1.143-10.424
		c0.054-3.55,1.182-6.979,1.113-10.521c0.082-4.006,1.337-7.885,1.218-11.896c1.233-9.938,2.146-19.906,3.318-29.854
		c-0.052-4.318,1.389-8.476,1.247-12.785c0.336-4.224,1.227-8.385,1.241-12.638c1.121-5.947,1.061-12.01,2.04-17.979
		c-0.172-4.797,1.338-9.423,1.285-14.204c0.135-3.506,1.149-6.921,1.129-10.433c0.007-3.041,1.066-5.947,1.136-8.977
		c0.956-9.999,2.503-19.904,3.885-29.847c2.496-16.745,5.156-33.506,9.05-50.015c3.983-11,9.071-21.572,12.86-32.646
		c2.137-6.209,5.013-12.121,7.494-18.188c6.903-15.37,13.897-30.711,20.981-46.002c0.949-2.159,1.928-4.351,3.468-6.157
		c4.08-4.909,7.898-10.028,12.068-14.855c0.374-0.456,0.756-0.903,1.137-1.353c5.739,0.964,11.575,0.299,17.358,0.538
		C276.343,504.734,290.577,505.474,304.739,504.367"/>
</g>
<g id="_x23_a80000ff">
	<path fill="#CD031B" d="M517.777,250.015c0.32-1.345,0.903-2.608,1.771-3.691c3.189,9.46,5.471,19.188,8.267,28.77
		c3.688,14.429,7.763,28.771,10.798,43.364c1.731,7.689,3.997,15.296,4.773,23.157c3.213,15.394,7.009,30.653,10.396,46.01
		c0.888-0.875,1.755-1.786,2.479-2.81c9.588-12.89,18.757-26.073,28.427-38.895c2.779-4.305,6.65-7.735,9.506-11.986
		c9.062-11.725,17.439-23.987,26.834-35.45c-0.354,5.404-1.979,10.612-2.759,15.962c-2.159,9.139-2.974,18.636-6.135,27.507
		c-4.755,22.314-9.288,44.685-14.617,66.873c-6.829,31.228-14.652,62.229-22.051,93.333c-2.541,0.396-5.099,0.763-7.667,0.604
		c-6.729-0.493-13.488,0.637-20.189-0.389c-4.162,0.336-8.341,0.216-12.502,0.365c-16.762,0.53-33.536-0.112-50.291,0.457
		c-15.191-0.023-30.392,0.037-45.584-0.018c-4.759-0.18-9.474,0.757-14.233,0.404c-17.928-0.904-35.896-0.097-53.84-0.568
		c-0.119,0.151-0.353,0.448-0.473,0.6c-10.036,0-20.086-0.008-30.113,0.508c-11.94,0.038-23.884,0.255-35.832,0.246
		c-14.159,1.105-28.396,0.366-42.593,0.531c-5.783-0.239-11.62,0.427-17.359-0.538c-0.381,0.449-0.762,0.896-1.136,1.353
		c0.037-0.344,0.12-1.021,0.158-1.358c-2.312-0.703-4.693,0.356-7.048,0.065c-6.718-0.688-13.481-0.336-20.223-0.425
		c-10.743,0.098-21.498-0.12-32.242,0.098c-3.213-13.646-5.313-27.521-7.938-41.294c-2.586-13.218-5.246-26.422-7.683-39.664
		c-5.484-27.111-9.796-54.438-15.139-81.579c-0.276-2.907-0.276-5.865-1.093-8.698c-2.577-13.981-5.445-27.917-7.764-41.951
		c-0.599-2.892-1.188-5.798-1.286-8.766c2.959,2.542,4.828,6.016,7.159,9.087c3.303,4.857,6.905,9.505,10.253,14.333
		c8.339,12.232,16.479,24.645,23.591,37.639c5.276,8.198,10.492,16.433,15.938,24.518c2.938,5.792,6.301,11.359,9.063,17.239
		c6.509,11.732,12.696,23.629,19.16,35.383c1.547-1.428,1.487-3.64,2.085-5.508c3.714-16.529,7.54-33.037,11.112-49.596
		c2.075-8.249,3.361-16.701,5.769-24.869c1.622-3.84,2.272-7.965,3.429-11.94c2.431-10.761,5.683-21.312,8.363-32.012
		c2.519-7.943,4.043-16.134,6.217-24.159c1.101-4.933,2.676-9.729,3.76-14.662c0.382-0.037,1.137-0.104,1.518-0.142
		c1.822,8.997,4.617,17.77,6.449,26.768c4.305,17.313,8.041,34.77,11.016,52.361c0.096,5.82,1.965,11.387,2.525,17.157
		c3.295,16.193,5.754,32.55,9.333,48.683c1.091-0.813,1.111-2.279,1.44-3.481c2.212-13.091,4.395-26.199,6.611-39.299
		c1.175-5.298,1.696-10.715,2.578-16.065c1.181-4.528,2.504-9.034,3.057-13.689c4.142-23.755,8.107-47.578,13.959-70.976
		c1.562,0.822,2.024,2.585,2.684,4.088c2.601,6.561,5.328,13.07,7.486,19.794c6.112,17.233,8.759,35.405,13.729,52.959
		c0.739,2.758,0.865,5.648,1.728,8.392c6.645,23.845,13.832,47.526,20.863,71.266c2.213,7.205,3.87,14.594,6.645,21.619
		c0.644-1.047,1.313-2.13,1.474-3.378c0.845-4.947,2.068-9.826,2.957-14.767c5.935-25.788,12.659-51.388,19.229-77.021
		c0.648-2.024,1.601-3.945,2.128-6.007c4.403-16.201,8.944-32.371,13.071-48.646c2.562-10.364,3.868-21.005,6.501-31.354
		c0.126-1.144,1.366-0.793,1.567,0.165c6.854,13.847,12.846,28.089,19.113,42.207c5.32,11.252,10.229,22.693,15.491,33.977
		c2.04,3.998,3.058,8.414,5.028,12.435c6.148,13.779,12.009,27.671,17.89,41.563c1.938,4.528,3.513,9.229,5.688,13.644
		c0.312,0.166,0.957,0.501,1.271,0.666c-0.12-4.215,1.202-8.257,1.366-12.45c1.778-14.206,3.707-28.404,5.756-42.594
		c0.104-4.11,2.232-7.824,2.294-11.926c1.756-13.36,4.162-26.632,6.075-39.971C510.406,278.897,513.656,264.341,517.777,250.015z"/>
	<path d="M478.521,568.722c5.51-2.548,11.239-5.335,17.474-5.104c3.895,0.4,7.974,0.993,11.254,3.316
		c5.173,3.818,10.852,7.385,14.394,12.913c2.697,4.708,4.433,9.998,4.934,15.409c0.846,4.954-0.813,9.833-1.359,14.729
		c-3.438,4.468-6.854,9.15-11.556,12.396c-0.77,0.519-1.389,1.21-1.993,1.898c-2.047,0.351-3.296,2.145-5.192,2.795
		c-1.638,0.717-3.505,0.433-5.191,0.972c-3.021,0.426-5.985-0.521-8.998-0.427c-4.06,0.09-8.033-0.926-11.939-1.884
		c-5.254-3.825-9.863-8.697-13.286-14.269c-3.005-4.348-2.93-9.86-3.769-14.886c-1.111-4.558,0.601-9.087,1.457-13.524
		c0.366-2.403,2.294-4.033,3.724-5.836C471.241,573.789,474.674,570.89,478.521,568.722z"/>
	<path d="M256.055,571.039c5.365-2.802,11.164-4.979,17.246-5.396c3.608,0.442,7.465-0.396,10.856,1.196
		c6.144,1.938,10.857,6.694,14.895,11.507c3.467,3.855,4.812,8.96,7.382,13.368c1.794,5.485,1.182,11.404,0.465,17.031
		c-0.921,2.6-1.848,5.254-3.268,7.637c-3.818,4.319-7.442,8.915-12.03,12.457c-7.205,3.497-15.387,6.075-23.45,4.595
		c-4.088-1.136-8.234-2.075-12.113-3.803c-2.575-2.153-5.328-4.372-6.693-7.512c-0.247-0.172-0.733-0.507-0.979-0.672
		c0.322-2.742-1.928-4.707-2.688-7.158c-3.125-6.391-2.908-13.729-2.534-20.646c1.263-6.174,2.697-13.018,7.727-17.292
		C252.661,574.633,254.187,572.661,256.055,571.039z"/>
</g>
<g id="_x23_f44900ff">
	<path fill="#F44900" d="M484.815,503.195c16.754-0.569,33.527,0.074,50.291-0.456c0.081,0.483,0.238,1.44,0.319,1.928
		c-0.181-0.321-0.538-0.958-0.716-1.278c-4.172-0.364-8.354,0.037-12.524,0.008c-12.703,0.283-25.422-0.418-38.104,0.435
		c-17.942,0.224-35.885-0.271-53.817,0.03c-19.862-0.165-39.727,0.192-59.58-0.246c0.12-0.15,0.354-0.448,0.473-0.6
		c17.941,0.473,35.913-0.336,53.84,0.568c4.762,0.351,9.478-0.583,14.233-0.403C454.424,503.232,469.62,503.173,484.815,503.195z"/>
	<path fill="#F44900" d="M413.093,697.604c4.477-0.479,8.975-0.327,13.45-0.793c12.876-0.007,25.741-0.362,38.609-0.618
		c0.209,2.976-0.902,5.781-1.271,8.696c-2.013,10.535-3.981,21.079-6.657,31.478c-5.528,19.94-11.865,39.664-16.971,59.713
		c-3.959,13.188-7.569,26.498-11.731,39.628c-0.935,3.953-2.429,7.748-4.058,11.456c-6.329,16.551-12.602,33.146-18.85,49.745
		c-4.152,10.716-7.794,21.641-12.353,32.197c-1.975-0.028-2.257-2.377-3.152-3.67c-5.098-8.938-8.105-18.81-11.566-28.455
		c-13.989-44.187-29.33-88.025-48.312-130.346c-5.515-14.37-10.969-28.77-16.461-43.14c-1.121-2.369-1.449-4.999-2.533-7.384
		c-0.845-4.426-2.65-8.751-2.568-13.294c2.023-0.848,4.354-0.321,6.501-0.594c11.396-1.001,22.835-0.971,34.255-1.62
		c6.23-0.819,12.538-0.336,18.793-0.838c10.454-0.909,20.961-0.845,31.422-1.529C404.078,697.446,408.615,697.961,413.093,697.604z"
		/>
</g>
<g>
	<path fill="#F18A01" d="M74.547,33.098c0.07-1.275-0.949-3.355,0.824-3.815c4.094,6.155,7.529,12.72,11.158,19.155
		c5.656,10.1,11.086,20.32,16.74,30.415c7.194-0.84,14.369-1.905,21.579-2.645c1.199-1.905,2.046-3.989,2.966-6.03
		c5.686-12.34,11.074-24.835,17.585-36.765l0.801-0.4c-1.136,12.235-2.97,24.39-4.511,36.58c-0.466,4.015-1.324,8.005-1.239,12.07
		c1.771,0.69,3.11,2.08,4.72,3.05c3.16,1.975,6.22,4.105,9.335,6.15c1.104,0.255,1.851-0.87,2.72-1.355
		c8.449-5.875,16.811-11.88,25.421-17.525c4.17-2.68,8.369-5.31,12.561-7.96c1.484-0.905,2.915-1.99,4.635-2.415
		c-8.823,11.81-18.219,23.18-27.46,34.665c-2.34,3.21-5.005,6.165-7.455,9.295c0.031,1.385,0.455,2.705,0.94,3.99
		c0.614,2.51,1.315,5,1.921,7.52c1.244,4.21,1.863,8.594,3.29,12.755c14.109,4.47,28.56,7.83,42.514,12.805
		c2.736,1.156,5.677,1.865,8.236,3.396c-2.806,0.66-5.7,0.264-8.54,0.479c-5.479,0.665-11.012,0.21-16.507,0.57
		c-4.646,0.535-9.323,0.205-13.979,0.445c-4.704,0.495-9.444,0.37-14.17,0.415c-0.25,0.565-0.5,1.131-0.715,1.71
		c-1.49,4.814-3.875,9.314-5.516,14.05c3.484,3.755,7.37,7.17,11.08,10.715c6.698,6.64,13.569,13.1,20.396,19.604
		c0.979,1.025,2.069,1.985,2.784,3.229l0.195,1.205c-3.12-0.989-6.024-2.52-9.035-3.78c-6.613-2.825-13.21-5.689-19.738-8.71
		c-5.467-2.641-10.815-5.526-16.296-8.13c-2.579,1.635-4.784,3.804-7.387,5.415c-5.094,2.988-10.109,6.145-15.555,8.484
		c-0.829,0.489-2.15,0.656-2.38,1.755l-0.11,0.315c-0.085,0.02-0.261,0.06-0.345,0.075c-0.034,12.415,0.29,24.824,0.821,37.215
		c-0.37,5.064-0.495,10.15-0.415,15.229c-0.19-0.01-0.565-0.03-0.756-0.04c-0.07-0.725-0.164-1.448-0.507-2.094
		c-2.02-4.774-4.04-9.564-5.403-14.58c-1.62-5.399-3.602-10.734-4.79-16.244c-0.097,0.012-0.285,0.034-0.381,0.046
		c-1.21-5.396-3.364-10.551-4.681-15.926c-0.31-0.92-0.085-2.265-1.113-2.761c-3.101-1.864-6.784-2.364-9.954-4.074
		c-4.785-2.5-9.585-4.96-14.48-7.229c-0.92,0.75-1.739,1.615-2.381,2.615c-3.889,4.984-8.155,9.659-12.179,14.529
		c-5.355,6.79-11.98,12.409-17.865,18.72c0.015-1.975,0.95-3.765,1.51-5.614c1.13-2.985,2.025-6.065,3.44-8.936
		c1.335-2.585,2.194-5.396,3.745-7.87c3.42-6.76,6.88-13.51,10.54-20.145c1.618-1.495,0.764-3.699-0.311-5.23
		c-0.68-1.354-2.015-2.55-1.92-4.165c-0.171,0.005-0.511,0.01-0.68,0.01c-0.415-1.935-1.781-3.455-2.615-5.215
		c-0.974-2.915-2.25-5.76-2.81-8.795c-0.105-0.219-0.321-0.66-0.43-0.88c-3.555,0.485-7.114,0.955-10.635,1.645
		c-8.829,1.405-17.679,2.71-26.57,3.61c-2.694,0.465-5.425,0.795-8.159,0.66c6.716-4.215,13.579-8.19,20.546-11.979
		c6.314-4.035,13.319-6.775,19.979-10.156c0.414-3.005,0.375-6.165,1.375-9.034c0.56-2.365,1.195-4.72,1.885-7.051l0.091-0.17
		c0.585-1.38,0.926-2.88,1.051-4.37c0.091-0.979-0.9-1.559-1.436-2.229c-2.67-2.525-5.135-5.265-7.97-7.61
		c-0.119,0.03-0.349,0.09-0.465,0.115l-0.055-0.3c-0.011-0.725-0.64-1.17-1.07-1.665c-3.165-3.16-6.311-6.36-9.07-9.89
		c-3.725-4.275-7.17-8.765-10.489-13.365c0.165-0.185,0.495-0.55,0.659-0.735l0.137-0.145c3.051,1.87,6.395,3.2,9.534,4.91
		c5.085,2.515,10.065,5.22,15.091,7.85c4.438,2.505,8.824,5.135,13.426,7.345c4.045-5.025,8.75-9.495,13.665-13.655
		c2.32-1.17,0.811-3.82,0.46-5.705c-1.399-6.145-2.854-12.285-4.235-18.435C77.877,52.513,76.237,42.793,74.547,33.098z"/>
</g>
<rect fill="none" width="768" height="1024"/>
</svg>
