<?xml version="1.0" encoding="utf-8"?>
<!-- Generator: Adobe Illustrator 15.0.2, SVG Export Plug-In . SVG Version: 6.00 Build 0)  -->
<!DOCTYPE svg PUBLIC "-//W3C//DTD SVG 1.1 Basic//EN" "http://www.w3.org/Graphics/SVG/1.1/DTD/svg11-basic.dtd">
<svg version="1.1" baseProfile="basic" id="Livello_1"
	 xmlns="http://www.w3.org/2000/svg" xmlns:xlink="http://www.w3.org/1999/xlink" x="0px" y="0px" width="886px" height="886px"
	 viewBox="0 0 886 886" xml:space="preserve">
<g>
	<g id="_x23_4a76d5ff">
		<path fill="#00AEEF" d="M711.008,53.368c4.072-0.417,8.264-0.371,12.204,0.852c6.391,2.23,11.416,7.041,15.785,12.045
			c1.607,1.813,3.293,3.562,4.687,5.557c2.982,3.41,7.809,4.026,11.265,6.767c2.198,2.2,4.16,4.651,5.715,7.353
			c0.689,1.247,1.51,2.474,1.778,3.909c0.643,3.135,0.71,6.348,0.907,9.533c0,1.229,0.162,2.498-0.127,3.708
			c-0.933,1.874-1.848,3.761-2.855,5.599c-2.234,3.513-4.934,6.903-8.578,9.037c-2.893,1.792-6.023,3.424-9.459,3.786
			c-3.584,0.58-7.801,0.707-10.272,3.786c-2.544,3.287-5.128,6.574-8.26,9.33c-2.223,2.319-5.188,3.655-7.991,5.115
			c-1.855,0.833-3.679,1.785-5.636,2.344c-2.117,0.167-4.274,0.159-6.377-0.177c-4.775-0.626-9.682-1.195-14.058-3.344
			c-3.385-1.219-6.139-3.587-9.231-5.348c-1.301-0.803-2.768-1.488-4.337-1.293c-6.465,0.674-12.944,1.654-19.462,1.386
			c-2.021-0.378-4.156-0.153-6.1-0.894c-2.506-1.099-5.03-2.354-6.92-4.387c-2.396-2.464-4.733-5.111-7.914-6.589
			c-3.026-1.841-6.183-3.464-9.201-5.323c-1.516-0.876-2.757-2.152-3.835-3.513c-1.042-1.799-2.413-3.414-3.124-5.394
			c-1.368-3.4-0.907-7.125-0.615-10.674c0.015-2.372,1.241-4.468,2.085-6.613c1.201-1.53,2.901-2.562,4.387-3.789
			c4.421-2.98,9.439-4.927,14.444-6.684c0.987-0.403,2.146-0.565,2.916-1.361c3.058-3.775,4.836-8.437,8.183-12
			c4.347-4.711,9.358-9.232,15.552-11.268c5.479-0.611,11.053-0.361,16.491,0.522c2.019,0.315,3.807,1.456,5.854,1.641
			c3.036,0.399,6.238,1.06,9.204-0.039C702.348,55.546,706.543,53.898,711.008,53.368z"/>
	</g>
</g>
</svg>
