<?xml version="1.0" encoding="utf-8"?>
<!-- Generator: Adobe Illustrator 15.0.2, SVG Export Plug-In . SVG Version: 6.00 Build 0)  -->
<!DOCTYPE svg PUBLIC "-//W3C//DTD SVG 1.1 Basic//EN" "http://www.w3.org/Graphics/SVG/1.1/DTD/svg11-basic.dtd">
<svg version="1.1" baseProfile="basic" id="Livello_1"
	 xmlns="http://www.w3.org/2000/svg" xmlns:xlink="http://www.w3.org/1999/xlink" x="0px" y="0px" width="886px" height="886px"
	 viewBox="0 0 886 886" xml:space="preserve">
<g>
	<g id="_x23_f0d68bff">
		<path fill="#FFF69B" d="M475.308,325.933c19.161-1.523,38.42-0.561,57.625-0.726c5.51-0.246,10.942,0.942,16.45,0.808
			c7.913,1.018,15.897,0.517,23.855,0.747c12.173,1.309,24.443,0.336,36.661,0.823c8.721,0.965,17.52,0.344,26.273,0.613
			c0.396,0.567,0.793,1.144,1.188,1.719c3.745,6.03,7.705,11.956,10.994,18.249c11.409,29.248,21.609,58.958,30.959,88.917
			c1.926,6.12,3.025,12.449,4.812,18.605c2.213,8.969,4.773,17.845,7.111,26.79c1.211,5.477,3.407,10.798,3.482,16.478
			c2.848,20.938,6.299,41.801,9.094,62.739c2.452,22.688,5.328,45.312,8.019,67.965c0.12,4.468-0.191,8.943,0.312,13.396
			c1.039,10.225,0.681,20.507,1.69,30.729c0.647,5.938-0.093,11.934,0.725,17.855c0.971,8.724,0.5,17.513,1.487,26.23
			c0.754,6.568-0.02,13.204,0.836,19.771c1.055,11.312,0.434,22.688,1.188,34.018c0.508,10.7,0.688,21.398,1.729,32.072
			c-0.182,6.782,1.402,13.458,1.228,20.252c0.037,6.971,1.396,13.89,1.146,20.885c-0.104,8.998,1.226,17.994,0.337,26.984
			c-0.532,4.697-0.062,9.476-0.957,14.146h-462.62c-0.052-7.257,0.732-14.444,1.263-21.663c-0.229-8.022,1.52-15.938,1.195-23.965
			c0.322-7.72,1.367-15.416,1.128-23.158c-0.12-7.227,0.89-14.406,1.158-21.618c-0.271-8.022,1.383-15.969,1.181-23.983
			c0.344-5.956,1.405-11.867,1.114-17.849c0.374-6.971,0.583-13.958,1.113-20.923c0.038-8.979,0.007-17.964,0.635-26.923
			c0.68-7.974,0.307-16.007,1.591-23.929c-0.216-5.731,1.189-11.299,1.52-16.992c0.964-4.73,0.889-9.572,1.794-14.312
			c0.127-5.312,1.509-10.491,1.484-15.807c1.024-5.479,0.904-11.073,2.058-16.521c-0.018-5.209,1.238-10.298,1.366-15.491
			c1.795-14.205,2.861-28.47,4.483-42.691c2.787-27.76,6.646-55.418,11.688-82.879c0.717-3.019,1.188-6.09,1.958-9.095
			c1.173-7.479,4.805-14.22,7.417-21.251c10.94-26.163,22.129-52.234,34.183-77.91c1.622-3.296,2.802-6.875,5.186-9.729
			c5.993-7.48,11.903-15.021,18.024-22.396c1.104-1.308,2.309-2.548,3.594-3.684c12.652-1.166,25.348-1.816,38.043-2.228
			c11.718-1.226,23.473-2.161,35.188-3.325c3.625-0.307,7.263-0.209,10.874-0.65c4.569-0.59,9.188-0.179,13.771-0.657
			C466.378,325.88,470.854,326.082,475.308,325.933"/>
	</g>
	<g id="_x23_ba0400ff">
		<path fill="#CD031B" d="M454.565,86.928c2.877,10.222,5.568,20.497,8.206,30.787c-0.472,0.995-0.261,1.822,0.62,2.488
			c7.502,29.144,12.652,58.832,19.96,88.027c1.89,8.1,3.34,16.305,5.671,24.301c0.052,1.338,1.89,0.823,1.898-0.268
			c1.073-2.854,2.6-5.493,4.033-8.176c15.809-35.562,32.447-70.758,49.243-105.865c4.853-10.043,9.086-20.348,13.57-30.548
			c4.7,13.332,6.613,27.425,9.476,41.219c2.533,13.324,5.347,26.595,8.085,39.874c3.342,16.006,6.475,32.065,10.062,48.02
			c0.477,2.704,1.009,5.41,1.95,8.003c15.222-32.798,31.123-65.274,46.764-97.885c6.149-12.749,11.747-25.795,18.764-38.11
			c0.62,0.06,1.248,0.12,1.884,0.179c1.075,8.594,2.786,17.112,3.362,25.758c4.597,34.344,8.161,68.808,13.312,103.077
			c0.654,4.97,1.502,9.917,1.81,14.931c2.741-0.209,4.146-2.832,5.843-4.641c7.875-9.954,16.479-19.287,24.823-28.845
			c18.256-20.878,36.997-41.338,55.029-62.411c9.854-11.807,21.245-22.164,32.146-32.969c-7.211,25.481-15.088,50.784-22.589,76.184
			c-0.891,3.243-1.877,6.464-3.198,9.557c-5.345,13.458-10.097,27.141-15.163,40.703c-6.528,17.95-13.777,35.638-20.603,53.482
			c-2.608,7.368-4.468,15.012-7.732,22.134c-3.625,8.608-7.112,17.263-10.781,25.849c-6.34-0.195-12.606-1.315-18.95-1.217
			c-6.254,0.015-12.442-1.114-18.697-0.942c-12.156-0.747-24.315-1.718-36.502-1.346c0.126,0.411,0.389,1.233,0.515,1.637
			c-0.396-0.575-0.792-1.151-1.188-1.719c-8.757-0.271-17.552,0.352-26.272-0.613c-12.218-0.486-24.485,0.485-36.661-0.823
			c-7.959-0.229-15.943,0.271-23.855-0.747c-5.509,0.136-10.941-1.053-16.45-0.807c-19.207,0.165-38.465-0.799-57.626,0.726
			c-4.454,0.15-8.93-0.053-13.368,0.44c-4.581,0.478-9.199,0.066-13.771,0.657c-3.61,0.438-7.249,0.344-10.874,0.65
			c-11.718,1.165-23.473,2.1-35.188,3.325c-12.693,0.411-25.391,1.062-38.043,2.228l0.65-0.39c1.23-0.352,2.479-0.635,3.729-0.934
			c-6.515-0.882-12.957,0.799-19.436,1.285c-13.512,1.972-27.156,2.614-40.749,3.661c-6.562,0.904-13.174,1.113-19.757,1.779
			c-1.98-4.708-4.506-9.161-6.771-13.734c-4.981-9.273-9.578-18.758-14.602-28.009c-4.835-9.229-9.706-18.441-14.272-27.812
			c-11.344-24.779-21.85-49.932-33.273-74.674c-2.559-5.447-5.597-10.671-7.847-16.26c-3.705-9.378-7.34-18.786-11.188-28.104
			c-2.025-4.402-3.758-8.922-5.507-13.444c16.179,11.732,29.934,26.349,44.947,39.463c21.489,20.31,42.979,40.636,63.866,61.581
			c2.332,2.6,4.865,5.014,7.532,7.271c1.667-12.322,2.661-24.727,4.551-37.02c3.161-22.051,6.344-44.095,9.625-66.133
			c1.868-14.96,4.588-29.793,7.704-44.537c2.451,3.026,4.327,6.449,6.299,9.797c22.964,39.701,46.458,79.106,68.001,119.607
			c3.678-9.663,6.474-19.645,9.769-29.442c6.853-22.374,14.385-44.537,21.664-66.776
			C444.051,115.869,448.609,101.133,454.565,86.928z"/>
	</g>
	<g id="_x23_000000ff">
		<path d="M462.769,117.715c0.792,0.68,0.994,1.509,0.62,2.488C462.508,119.538,462.298,118.71,462.769,117.715z"/>
		<path d="M567.24,128.895c2.794,13.271,5.626,26.535,8.085,39.874C572.586,155.49,569.777,142.218,567.24,128.895z"/>
		<path d="M489.02,232.532c0.471-0.067,1.419-0.202,1.898-0.268C490.908,233.354,489.073,233.87,489.02,232.532z"/>
	</g>
</g>
<path fill="#CD031B" d="M478.178,613.613c-0.329-0.937-0.83-1.749-1.368-2.549c-2.287-2.005-3.871-4.643-5.971-6.813
	c-5.182-7.189-11.402-13.519-17.018-20.354c-7.726-9.394-16.372-18-23.939-27.516c-2.368-2.697-4.604-5.492-6.837-8.287
	c-3.459-4.214-6.771-8.556-10.371-12.666c-1.421-1.621-2.812-3.277-3.879-5.152c7.784-3.079,15.48-6.375,23.229-9.562
	c2.698-1.009,5.47-1.809,8.333-2.204c2.115-1.001,4.297-1.876,6.602-2.354c13.455-4.461,26.968-8.77,40.352-13.451
	c4.483-1.382,8.908-3.057,13.506-3.997c11.38,3.168,22.818,6.188,34.301,8.974c8.319,2.679,16.931,4.308,25.453,6.15
	c11.299,3.975,23.075,6.5,34.322,10.627c0.501,0.067,1.495,0.192,1.988,0.26c-0.029,1.271-0.074,2.542-0.092,3.826
	c-0.419-0.045-1.238-0.146-1.648-0.201c0.075,0.329,0.225,0.979,0.292,1.311c-1.427,0.134-1.646,1.352-1.847,2.495
	c-0.354,0.016-1.038,0.027-1.392,0.045c0.062,0.299,0.171,0.902,0.226,1.211c-1.411,0.153-1.631,1.374-1.794,2.548
	c-0.237-0.007-0.727-0.029-0.966-0.037c-0.769,1.099-1.356,2.315-2.188,3.377c-4.462,5.291-8.526,10.917-12.831,16.342
	c-1.519,2.399-3.769,4.271-5.066,6.815c-2.275,2.229-4.114,4.872-6.008,7.428c-1.562,1.78-2.884,3.769-4.7,5.312
	c-0.082,0.345-0.244,1.038-0.326,1.391c-1.285,1.225-2.507,2.525-3.736,3.811c0.052,0.175,0.148,0.52,0.201,0.688
	c-2.304,1.859-3.996,4.354-5.618,6.793c-0.905,0.866-1.734,1.823-2.279,2.967c-3.042,3.235-5.356,7.062-8.415,10.29
	c-1.193,1.666-2.452,3.312-3.983,4.692c0.028,0.18,0.098,0.536,0.127,0.717c-1.771,1.084-3.06,2.705-4.136,4.453
	c-1.53,1.401-2.301,3.595-4.254,4.521c0.053,0.188,0.156,0.562,0.21,0.754c-1.354,1.021-2.397,2.354-3.462,3.647
	c-1.675,2.062-4.028,3.572-5.181,6.038c-2.438,2.084-4.239,4.767-6.595,6.934c-2.014,2.146-4.604,3.729-6.214,6.248
	c-1.188-0.247-2.354-0.531-3.508-0.866L478.178,613.613z"/>
<path d="M590.573,406.95c3.598-1.636,7.211-3.386,11.145-4.058c5.27-0.39,10.978-0.313,15.559,2.675
	c6.814,4.67,14.271,9.685,17.188,17.821c0.627,1.722,1.127,3.483,1.771,5.209c0.299,7.278,0.912,14.971-2.323,21.746
	c-1.263,1.52-2.479,3.077-3.812,4.535c-1.523,2.077-3.557,3.669-5.282,5.544c-0.261-0.021-0.778-0.064-1.031-0.089l-0.026,0.903
	l-0.948-0.083l0.125,1.065c-0.276-0.089-0.844-0.26-1.121-0.351c-1.435,1.404-3.131,2.479-4.969,3.258l0.217,0.522
	c-6.031,1.346-12.284,0.666-18.396,0.434c-1.36-0.373-2.773-0.485-4.173-0.502l-0.071-0.463c-1.513-0.208-2.982-0.529-4.434-0.973
	l-0.065-0.928c-0.358,0.101-1.083,0.284-1.441,0.374l0.292-1.084l-1.032,0.271l0.039-1.02c-0.262,0.03-0.783,0.09-1.039,0.119
	c-2.848-3.347-6.119-6.306-8.631-9.931l0.227-0.765l-1.084,0.228c0.053-0.354,0.166-1.068,0.218-1.42l-0.994-0.075
	c0.061-0.328,0.182-0.993,0.24-1.33l-0.778-0.06c-0.471-1.602-0.889-3.216-1.322-4.819c-0.225-1.271-0.456-2.542-0.729-3.789
	c-0.309-4.064-1.113-8.242,0.11-12.24c0.94-3.094,1.056-6.599,3.177-9.198C580.799,413.818,585.077,409.386,590.573,406.95z"/>
<path d="M377.051,405.964c3.587-0.747,7.188-1.986,10.874-1.045c9.151-0.426,16.88,5.829,22.223,12.673
	c2.676,2.899,3.864,6.717,5.478,10.23c3.229,5.735,1.639,12.583,1.646,18.838c-0.688,2.04-1.449,4.059-2.219,6.065
	c-0.709,1.278-1.457,2.533-2.249,3.77c-0.638,0.635-1.266,1.278-1.894,1.928c-1.591,1.905-3.294,3.715-5.063,5.455
	c-1.038,1.023-2.076,2.047-3.021,3.161c-0.191,0.038-0.575,0.112-0.769,0.148c-0.972,0.584-1.951,1.166-2.908,1.777
	c-0.888,0.217-1.785,0.411-2.682,0.601l-0.067,0.382c-5.859,2.01-12.061,3.131-18.249,2.322c-4.252-1.593-8.847-2.241-12.778-4.627
	c-0.654-0.655-1.3-1.319-1.936-1.986l-0.306-0.007c-0.276-0.239-0.836-0.728-1.113-0.974l0.193-0.564l-0.593,0.015
	c-0.793-1.136-1.637-2.234-2.523-3.289c0.045-0.245,0.142-0.746,0.188-1.002l-0.59-0.065c-0.239-1.294-0.704-2.524-1.158-3.741
	l-0.456-0.12c-0.172-0.427-0.508-1.293-0.681-1.729c-1.322-2.886-2.442-5.857-3.071-8.968c-0.446-6.001-0.882-12.279,1.839-17.853
	c0.104-0.411,0.308-1.241,0.41-1.652c0.329-0.777,0.65-1.554,0.956-2.331c0.12-0.381,0.367-1.157,0.486-1.546
	c1.979-5.015,6.666-8.115,10.17-12.002C370.494,408.594,373.546,406.637,377.051,405.964z"/>
</svg>
