<?xml version="1.0" encoding="utf-8"?>
<!-- Generator: Adobe Illustrator 15.0.2, SVG Export Plug-In . SVG Version: 6.00 Build 0)  -->
<!DOCTYPE svg PUBLIC "-//W3C//DTD SVG 1.1 Basic//EN" "http://www.w3.org/Graphics/SVG/1.1/DTD/svg11-basic.dtd">
<svg version="1.1" baseProfile="basic" id="Layer_1"
	 xmlns="http://www.w3.org/2000/svg" xmlns:xlink="http://www.w3.org/1999/xlink" x="0px" y="0px" width="886px" height="886px"
	 viewBox="0 0 886 886" xml:space="preserve">
<g id="_x23_ce041aff">
	<path fill="#CE041A" d="M280.68,35.222c2.62,0.301,5.29,0.98,7.17,2.98c4.93,4.7,9.93,9.34,15.07,13.82
		c7.19,6.89,13.38,14.72,20.16,22c13.58,14.8,27.26,29.51,40.6,44.52c2.021,2.49,5.433,2.05,8.28,2.22
		c9.37,0.03,18.73,0.812,28.1,0.763c25.633,0.18,51.263,1.18,76.893,0.617c13.7,0.021,27.41,0.473,41.107,0.32
		c4.038,0.1,7.062-2.97,10.053-5.25c18.979-15.68,38.08-31.22,56.85-47.16c11.87-8.64,23.562-17.6,36.08-25.29
		c0.79,8.101,1.97,16.15,2.67,24.271c1.47,12.93,0.86,25.97,1.5,38.939c1.21,22.04-1.1,44.03-2,66.021
		c-2.64,29.64-2.66,59.438-5.438,89.069c-1.53,12.698-1.99,25.578-4.975,38.061c-2.5,8.42-4.68,17.05-9.08,24.729
		c-12.938,23.03-30.77,42.83-49.58,61.19c1.805,2.43,3.67,4.84,5.884,6.93c5.551,5.21,9.946,11.45,14.971,17.15
		c5.88,6.63,10.26,14.37,15.05,21.78c8.32,13.42,17.47,26.355,24.65,40.46c7.445,13.97,14.605,28.12,20.38,42.88
		c4.737,9.99,6.896,20.89,9.59,31.54c2.83,10.88,5.229,21.87,7.51,32.89c2.761,13.271,5.92,26.48,7.94,39.895
		c4.47,37.97,7.988,76.22,6.59,114.485c-0.34,11.7,0.029,23.41-0.33,35.12c-0.55,24.95,0.359,49.91,0.68,74.86
		c-0.54,14.97-0.21,29.97-1.33,44.92c-0.27,9.71-0.17,19.438-1.01,29.13c-0.31,15.3-1.78,30.55-2.22,45.85
		c-0.74,10.021-0.92,20.07-1.78,30.08c-0.22,7.685-0.22,15.395-1.27,23.03H212.61c0.01-17.34-0.52-34.67-0.8-52
		c-0.06-23.68-1.72-47.35-0.61-71.021c0.18-14,0.53-27.988,0.95-41.979c0.53-11.01,0.06-22.04,0.67-33.05
		c1.87-32.29,3.76-64.59,4.83-96.934c2.91-30.106,4.84-60.341,9.14-90.301c2.14-9.72,4.35-19.43,6-29.26
		c4.16-16.85,8.85-33.57,13.85-50.189c4.37-14.711,8.67-29.461,13.87-43.907c14.42-35.75,33.88-69.171,53.94-101.989
		c5.2-8.72,12.08-16.33,16.897-25.28c-15.68-14.76-31.47-30.79-39.18-51.34c-7.63-19.36-9.86-40.229-12.68-60.7
		c-3.7-27.188-4.31-54.66-5.59-82.04c-0.13-20-0.03-40.01-0.03-60.02C275.09,97.022,278.07,66.132,280.68,35.222"/>
</g>
<path fill="#010101" d="M427.64,269.682c7.83-2.697,16.271-3.979,24.521-2.84c7.146,1.11,14.06,3.42,20.688,6.3
	c11.685,4.62,21.91,12.893,29.095,23.172c3.688,4.959,4.985,11.698,2.92,17.561c-5.53,9.38-14.395,16.41-23.975,21.32
	c-8.3,3.18-16.867,6.54-25.89,6.51c-9.95,0.21-20.229,0.146-29.57-3.7c-10.02-2.95-18.91-8.82-26.37-16.01
	c-3.27-3.96-6.55-8.55-6.577-13.893c0.01-4.438-0.923-9.5,2.09-13.229c4.37-5.58,9.01-11.21,15.107-15
	C415.48,276.182,421.28,272.352,427.64,269.682z"/>
<path fill="#FDC401" d="M515.47,162.712c9.23-1.55,18.19,2.84,25.104,8.63c5.52,5.103,7.56,12.683,9.406,19.71
	c0.369,4.74-0.421,9.604-1.656,14.17c-3.45,7.44-9.225,14.04-16.765,17.49c-7.688,3.86-17.235,3.49-24.815-0.43
	c-7.021-5.08-13.49-11.87-15.62-20.521c-2.54-7.46-0.07-15.37,2.26-22.54C497.41,170.452,506.45,165.142,515.47,162.712z"/>
<path fill="#FDC401" d="M367.53,163.762c8.33-1.688,16.607,1.683,23.41,6.263c4.25,3.38,6.38,8.59,8.81,13.288
	c3.8,7.062,3.15,15.489,1.52,23.069c-0.907,5.23-5.21,8.721-8.827,12.19c-8.223,5.948-18.843,8.91-28.9,6.75
	c-6.76-1.92-13.22-5.71-17.06-11.75c-3.423-4.08-4.03-9.5-5.103-14.513c-1.76-7.01,0.08-14.64,4.23-20.46
	C350.77,171.242,358.17,164.532,367.53,163.762z"/>
<rect fill="none" stroke="#000000" stroke-width="1.1169" stroke-miterlimit="10" width="886" height="1230"/>
</svg>
