<?xml version="1.0" encoding="utf-8"?>
<!-- Generator: Adobe Illustrator 15.0.2, SVG Export Plug-In . SVG Version: 6.00 Build 0)  -->
<!DOCTYPE svg PUBLIC "-//W3C//DTD SVG 1.1 Basic//EN" "http://www.w3.org/Graphics/SVG/1.1/DTD/svg11-basic.dtd">
<svg version="1.1" baseProfile="basic" id="Livello_1"
	 xmlns="http://www.w3.org/2000/svg" xmlns:xlink="http://www.w3.org/1999/xlink" x="0px" y="0px" width="886px" height="886px"
	 viewBox="0 0 886 886" xml:space="preserve">
<g>
	<g id="_x23_00904bff">
		<path fill="#00904B" d="M428.361,365.447c12.512-1.231,25.193,0.817,37.025,4.939c6.173,2.023,11.453,5.908,16.916,9.291
			c4.496,2.814,7.377,7.429,10.973,11.211c10.481,12.325,20.4,25.108,30.311,37.884c5.823,7.854,11.396,16.338,19.814,21.675
			c8.814,5.593,17.017,12.17,26.324,16.966c19.797,11.297,39.389,22.932,58.973,34.585c16.065,9.843,32.565,19.102,47.55,30.576
			c2.003,1.521,3.748,3.348,5.414,5.245c-3.646,1.052-7.472,1.003-11.212,1.377c-17.263,1.113-34.356,3.833-51.561,5.491
			c-18.222,2.258-36.372,5.134-54.4,8.609c-9.899,1.7-18.538,7.157-27.77,10.785c-10.199,4.14-19.057,10.718-27.905,17.127
			c-9.579,7.429-19.091,15.001-27.749,23.501c11.797,1.972,23.834,1.546,35.758,2.158c26.332,1.012,52.7,0.383,79.05,0.895
			c10.771,0.23,21.54-0.349,32.3-0.018c6.003,0.671,11.754,2.637,17.613,4.028c-6.341,5.041-12.844,9.895-18.938,15.247
			c-10.192,8.791-20.621,17.306-30.711,26.224c-13.787,12.046-28.109,23.443-42.093,35.241
			c-10.333,8.628-20.108,17.918-30.507,26.47c-3.816,3.299-6.664,7.506-9.877,11.35c-10.606,12.963-21.029,26.069-31.059,39.472
			c-11.492,15.87-22.685,31.968-33.173,48.509c-5.494,8.235-9.863,17.137-14.824,25.68L409.823,886H0V673.865l19.88-33.333
			c13.614-20.893,27.341-37.302,32.984-47.619c6.635-11.961,11.717-16.458,19.303-28.079c5.33-9.138,12.514-14.732,18.6-23.362
			c2.669-3.544,4.896-7.479,8.271-10.431c4.777-4.334,9.019-9.222,13.889-13.464c5.338-4.588,10.54-9.358,16.209-13.541
			c9.971-7.182,19.567-15.096,30.821-20.246c9.834-5.533,20.689-8.77,31.229-12.623c29.452-9.086,58.335-20.043,86.419-32.742
			c13.201-6.043,26.486-11.866,39.619-18.045c23.91-12.64,48.229-24.565,71.621-38.182
			C401.331,375.231,414.048,367.793,428.361,365.447"/>
	</g>
	<g id="_x23_ffd400ff">
		<path fill="#FFD400" d="M438.272,402.124c2.235-0.28,4.519-0.653,6.782-0.339c3.17,0.715,5.976,2.439,8.95,3.689
			c3.579,1.606,7.396,3.11,10.147,6.018c2.855,2.916,4.787,6.562,6.99,9.962c3.085,4.828,5.471,10.26,5.855,16.048
			c0.255,4.378,1.156,8.977-0.637,13.158c-2.151,5.244-2.873,11.287-6.843,15.598c-2.296,3.062-5.499,5.202-8.406,7.627
			c-2.397,1.878-4.788,4.037-7.915,4.547c-7.711,1.99-15.92,5.082-23.86,2.423c-4.513-1.632-9.517-2.618-13.087-6.069
			c-5.916-5.381-12.011-11.449-13.906-19.507c-1.58-6.8-2.805-13.786-2.463-20.791c0.057-2.244,1.128-4.258,1.947-6.289
			c2.369-5.278,4.582-10.838,8.599-15.105C418.366,406.783,428.251,403.238,438.272,402.124z"/>
	</g>
</g>
</svg>
