<?xml version="1.0" encoding="utf-8"?>
<!-- Generator: Adobe Illustrator 16.0.0, SVG Export Plug-In . SVG Version: 6.00 Build 0)  -->
<!DOCTYPE svg PUBLIC "-//W3C//DTD SVG 1.1//EN" "http://www.w3.org/Graphics/SVG/1.1/DTD/svg11.dtd">
<svg version="1.1" id="Livello_1" xmlns="http://www.w3.org/2000/svg" xmlns:xlink="http://www.w3.org/1999/xlink" x="0px" y="0px"
	 width="768px" height="1024.604px" viewBox="0 0 768 1024.604" enable-background="new 0 0 768 1024.604" xml:space="preserve">
<g id="_x23_db011cff">
	<path fill="#DA051E" d="M100.744,355.484c14.077-12.577,32.816-17.999,51.032-21.251c15.504-2.493,30.972,1.138,46.314,3.054
		c17.402,5.15,34.388,11.818,50.579,20.004c14.981,11.801,28.209,25.643,41.346,39.395c14.059,16.86,25.407,36.828,29.455,58.583
		c-4.121-0.506-8.312-1.337-11.511-4.175c-30.358-22.516-61.982-44.562-98.358-56.127c-27.088-11.005-56.814-9.252-85.167-14.131
		c-9.36-1.717-19.914-4.066-26.075-11.945C98.412,364.339,98.629,359.622,100.744,355.484z"/>
	<path fill="#DA051E" d="M603.45,340.739c13.95-2.313,28.314-3.379,42.339-1.283c9.956,3.271,21.63,5.421,27.898,14.782
		c5.604,9.234,11.188,21.323,4.646,31.586c-4.987,11.71-18.723,13.409-29.762,15.053c-18.036,2.114-36.214,3.597-53.995,7.5
		c-12.542,2.711-25.266,4.518-37.731,7.5c-27.287,8.709-51.936,23.6-76.909,37.261c-6.759,3.651-13.064,8.276-20.455,10.607
		c9.397-20.347,22.75-38.599,38.201-54.753c11.133-13.77,25.174-24.702,38.854-35.779
		C555.995,357.544,578.766,345.419,603.45,340.739z"/>
	<path fill="#DA051E" d="M403.806,405.323c2.71-2.294,6.091-0.325,8.817,0.777c2.838,8.294,4.303,17.131,4.445,25.913
		c-1.12,22.229-1.12,44.526-0.092,66.752c-0.901,29.512-1.428,59.13,1.016,88.583c2.474,20.871,7.152,41.438,12.449,61.767
		c6.957,25.694,21.758,48.666,26.925,74.921c2.548,12.07,0.705,24.468-1.193,36.482c-4.68,11.604-11.021,22.859-20.688,31.048
		c-5.93,6.737-15.125,8.222-23.364,10.354c-14.276,3.451-29.221,4.065-43.66,1.354c-16.57-2.892-33.141-6.704-48.482-13.75
		c-5.98-2.656-11.006-6.993-15.521-11.619c-4.554-4.699-5.566-11.366-7.354-17.387c-2.946-7.859,1.952-15.646,5.367-22.495
		c8.023-9.183,19.661-14.457,31.391-17.134c8.458-0.47,18.378,0.578,24.702-6.308c8.401-10.281,15.901-21.485,21.053-33.771
		c4.879-12.634,1.681-26.132,1.103-39.179c-0.596-25.026-6.976-49.387-9.774-74.162c-0.072-13.372-0.056-26.904,2.964-40.024
		c5.168-22.751,9.9-45.665,12.631-68.851c1.229-8.747,1.896-17.617,4.049-26.2C393.487,422.726,398.329,413.762,403.806,405.323z"/>
	<path fill="#DA051E" d="M232.768,876.947c-4.409-7.245,3.433-19.426,12.143-15.649c31.696,12.146,64.242,23.51,98.322,26.203
		c31.895,2.386,63.935,0.324,95.736-2.404c11.692-0.901,22.843-4.77,34.427-6.379c14.131-1.985,27.23-9.104,41.741-8.78
		c7.139-1.247,14.112,0.688,20.33,4.154c1.896,4.268,1.824,8.945,1.809,13.536c-6.398,11.329-17.928,18.25-26.746,27.503
		c-9.02,6.723-15.468,16.103-24.448,22.859c-10.155,8.312-19.281,17.764-29.382,26.146c-6.706,6.055-12.888,12.829-20.781,17.419
		c-4.79,2.62-9.09,6.776-14.729,7.355c-11.423,1.048-22.823,2.275-34.189,3.669c-11.458-0.2-21.866-5.766-31.859-10.809
		c-9.104-3.955-12.468-13.896-18.124-21.286c-8.801-13.935-22.932-23.075-35.6-33.104c-13.589-9.884-27.973-18.54-41.959-27.772
		C249.808,893.139,237.972,888.042,232.768,876.947z"/>
</g>
<rect fill="none" width="768" height="1024.604"/>
</svg>
