<?xml version="1.0" encoding="utf-8"?>
<!-- Generator: Adobe Illustrator 16.0.0, SVG Export Plug-In . SVG Version: 6.00 Build 0)  -->
<!DOCTYPE svg PUBLIC "-//W3C//DTD SVG 1.1 Basic//EN" "http://www.w3.org/Graphics/SVG/1.1/DTD/svg11-basic.dtd">
<svg version="1.1" baseProfile="basic" id="Livello_1"
	 xmlns="http://www.w3.org/2000/svg" xmlns:xlink="http://www.w3.org/1999/xlink" x="0px" y="0px" width="768px"
	 height="1024.604px" viewBox="0 0 768 1024.604" xml:space="preserve">
<g id="_x23_db011cff">
	<path fill="#DA051E" d="M629.67,312.169c11.691-1.933,23.582-0.777,35.237,0.705c10.825,0.903,19.372,8.944,25.751,17.095
		c3.866,10.553,5.783,22.245,3.613,33.394c-2.062,10.264-9.74,17.871-16.174,25.643c-4.934,6.252-12.196,10.119-19.354,13.263
		c-17.204,5.62-35.255,8.385-53.253,9.921c-21.089,0.036-43.37-4.247-59.889-18.234c-10.009-10.029-10.153-28.027,0.109-37.966
		c11.492-11.764,25.407-21.016,39.918-28.606C599.979,321.494,614.346,315.042,629.67,312.169z"/>
	<path fill="#DA051E" d="M80.378,314.013c8.602-1.121,17.474-2.855,26.04-0.543c20.059,3.759,39.448,10.337,57.862,19.084
		c14.945,5.421,26.51,16.805,37.352,27.991c6.523,6.74,9.686,18.089,4.192,26.292c-13.209,14.041-32.201,20.583-50.634,24.414
		c-19.534,2.963-39.556,1.319-58.819-2.71c-8.656-3.199-18.071-5.53-25.082-11.908c-7.192-6.524-14.367-13.644-18.198-22.715
		c-3.09-9.18-4.211-19.173-2.711-28.768c2.657-7.463,6.018-15.378,12.741-20.095C68.578,321.024,73.548,315.639,80.378,314.013z"/>
	<path fill="#DA051E" d="M352.43,334.251c2.241-2.493,5.909-2.114,8.929-2.71c6.034,8.728,7.716,19.571,9.522,29.799
		c0.126,27.811,0.234,55.657,1.21,83.468c1.409,16.318,0.977,32.708,2.042,49.026c2.945,20.275,8.077,40.297,15.341,59.452
		c3.562,9.647,9,18.521,11.854,28.443c7.211,23.167,13.878,47.072,28.027,67.186c11.655,18.903,26.942,35.093,40.01,52.983
		c5.185,6.775,7.985,14.998,10.518,23.058c3,8.891-2.351,17.619-6.199,25.354c-13.336,7.12-28.769,7.317-43.441,8.944
		c-18.305,1.32-36.068,6.288-54.121,9.306c-15.92-0.343-33.413-5.005-43.333-18.449c-11.005-21.123-9.035-45.754-6.885-68.687
		c2.438-31.062,8.258-61.729,14.836-92.143c4.029-30.72,8.438-61.423,12.105-92.195c1.5-18.739,2.513-37.533,2.929-56.326
		c0.379-26.618-4.535-52.893-7.392-79.222C349.25,352.502,345.257,341.534,352.43,334.251z"/>
	<path fill="#DA051E" d="M304.453,787.426c35.545-3.56,71.649,0.741,105.64,11.603c36.957,11.71,74.777,22.821,107.901,43.496
		c21.575,13.354,39.519,34.135,45.446,59.198c2.729,14.021,3.867,30.63-6.07,42.23c-5.965,5.945-11.204,13.102-19.064,16.679
		c-13.823,7.013-27.685,14.366-42.829,18.125c-33.394,10.48-68.09,19.771-103.396,17.529c-24.469-2.801-48.828-6.597-72.988-11.422
		c-14.275-2.456-27.521-8.729-40.587-14.764c-6.271-3.234-13.3-5.403-18.45-10.444c-13.68-12.271-28.009-23.816-41.526-36.249
		c-8.421-10.987-15.722-23.022-20.583-36.034c-4.102-11.222-1.048-23.292,2.15-34.297c9.74-16.607,26.456-27.07,40.441-39.721
		C258.572,798.341,281.684,791.329,304.453,787.426z"/>
</g>
</svg>
