<?xml version="1.0" encoding="utf-8"?>
<!-- Generator: Adobe Illustrator 15.0.2, SVG Export Plug-In . SVG Version: 6.00 Build 0)  -->
<!DOCTYPE svg PUBLIC "-//W3C//DTD SVG 1.1 Basic//EN" "http://www.w3.org/Graphics/SVG/1.1/DTD/svg11-basic.dtd">
<svg version="1.1" baseProfile="basic" id="Livello_1"
	 xmlns="http://www.w3.org/2000/svg" xmlns:xlink="http://www.w3.org/1999/xlink" x="0px" y="0px" width="530px" height="530px"
	 viewBox="0 0 530 530" xml:space="preserve">
<rect x="0" y="-0.001" fill="#DCDADA" width="530" height="530.002"/>
<path fill="#010101" d="M9.636,399.91H130.09v120.455H9.636V399.91 M69.5,403.51c-0.877,0.038-1.756,0.018-2.634,0.062
	c-2.18,0.145-4.34,0.478-6.503,0.764c-0.827,0.091-1.62,0.349-2.434,0.499c-3.426,0.772-6.81,1.711-10.226,2.519
	c-0.585,0.135-1.119,0.412-1.655,0.672c-2.96,1.361-5.823,2.927-8.637,4.569c-0.344,0.19-0.653,0.435-0.925,0.714
	c-2.178,2.181-4.231,4.483-6.163,6.888c-0.398,0.476-0.829,0.938-1.074,1.517c-1.225,2.606-2.356,5.256-3.519,7.891
	c-0.451,1.096-1.083,2.147-1.196,3.354c-0.502,2.938-0.926,5.888-1.428,8.824c-0.186,1.408-0.53,2.797-0.566,4.223
	c-0.128,3.438-0.299,6.87-0.493,10.304c-0.071,1.007-0.148,2.019-0.062,3.026c0.32,2.85,0.67,5.695,1.036,8.539
	c0.622,2.5,1.23,5.007,1.883,7.499c0.71,2.75,1.752,5.394,2.778,8.036c0.36,0.9,0.667,1.828,1.13,2.684
	c1.339,2.576,2.659,5.167,4.174,7.647c0.395,0.655,0.73,1.345,1.167,1.976c0.724,0.986,1.548,1.895,2.334,2.831
	c1.664,1.959,3.36,3.89,5.084,5.793c3.504,3.24,7.261,6.27,11.497,8.504c2.481,1.148,5.114,1.932,7.765,2.587
	c3.518,0.559,7.098,0.416,10.636,0.195c4.497-0.929,9.057-1.647,13.429-3.093c2.239-0.825,4.443-1.777,6.51-2.979
	c0.716-0.401,1.523-0.688,2.097-1.302c1.904-1.904,3.896-3.73,5.672-5.757c2.009-2.097,3.7-4.468,5.386-6.823
	c2.32-3.245,4.397-6.656,6.37-10.12c1.092-2.741,2.127-5.506,3.163-8.269c0.776-2.521,1.47-5.069,2.143-7.621
	c0.379-1.573,0.854-3.133,1.018-4.748c0.452-3.132,0.838-6.273,1.312-9.402c0.128-0.763,0.093-1.541,0.095-2.312
	c0.015-2.674-0.146-5.343-0.206-8.015c-0.054-1.001-0.015-2.022-0.33-2.986c-0.765-2.525-1.61-5.028-2.521-7.506
	c-0.308-1.027-0.874-1.941-1.362-2.888c-1.452-2.716-3.022-5.364-4.626-7.994c-0.318-0.536-0.733-1.007-1.115-1.495
	c-2.246-2.729-4.586-5.375-6.994-7.961c-0.637-0.822-1.532-1.369-2.353-1.989c-2.442-1.854-5.04-3.513-7.798-4.858
	c-1.73-0.918-3.606-1.502-5.448-2.143c-0.86-0.254-1.673-0.674-2.573-0.771c-2.518-0.337-5.033-0.686-7.554-0.993
	C73.69,403.495,71.593,403.476,69.5,403.51z"/>
<path fill="#36549D" d="M69.5,403.51c2.093-0.033,4.189-0.014,6.278,0.088c2.52,0.312,5.037,0.657,7.554,0.996
	c0.9,0.095,1.713,0.517,2.572,0.77c1.842,0.643,3.719,1.225,5.449,2.143c2.758,1.347,5.354,3.004,7.797,4.858
	c0.818,0.619,1.717,1.167,2.354,1.988c2.408,2.586,4.749,5.233,6.994,7.963c0.382,0.489,0.797,0.957,1.115,1.495
	c1.604,2.628,3.175,5.277,4.626,7.993c0.488,0.945,1.057,1.86,1.362,2.889c0.91,2.478,1.758,4.979,2.521,7.505
	c0.314,0.964,0.273,1.984,0.329,2.984c0.058,2.673,0.22,5.341,0.205,8.017c-0.001,0.771,0.033,1.549-0.095,2.312
	c-0.473,3.13-0.857,6.271-1.311,9.401c-0.164,1.617-0.639,3.176-1.019,4.75c-0.674,2.551-1.363,5.099-2.142,7.621
	c-1.037,2.762-2.072,5.525-3.164,8.268c-1.973,3.463-4.05,6.876-6.37,10.121c-1.685,2.354-3.377,4.727-5.385,6.822
	c-1.777,2.024-3.767,3.854-5.672,5.757c-0.575,0.614-1.381,0.899-2.098,1.303c-2.066,1.2-4.271,2.151-6.509,2.978
	c-4.372,1.443-8.933,2.164-13.431,3.094c-3.539,0.22-7.119,0.361-10.635-0.194c-2.65-0.657-5.283-1.44-7.764-2.588
	c-4.236-2.236-7.994-5.264-11.498-8.504c-1.725-1.903-3.419-3.836-5.083-5.793c-0.787-0.938-1.611-1.845-2.334-2.832
	c-0.436-0.631-0.773-1.32-1.167-1.975c-1.516-2.481-2.834-5.071-4.174-7.648c-0.465-0.854-0.77-1.782-1.131-2.683
	c-1.026-2.643-2.068-5.287-2.778-8.035c-0.652-2.495-1.262-5-1.882-7.5c-0.364-2.845-0.717-5.69-1.036-8.541
	c-0.086-1.008-0.01-2.021,0.062-3.025c0.195-3.434,0.365-6.867,0.494-10.304c0.035-1.426,0.381-2.813,0.565-4.224
	c0.501-2.937,0.925-5.887,1.428-8.822c0.111-1.205,0.744-2.259,1.196-3.354c1.16-2.634,2.293-5.283,3.519-7.89
	c0.245-0.578,0.676-1.042,1.074-1.518c1.931-2.4,3.984-4.705,6.163-6.886c0.271-0.281,0.582-0.523,0.925-0.714
	c2.813-1.646,5.676-3.209,8.638-4.571c0.535-0.26,1.069-0.536,1.655-0.67c3.416-0.809,6.799-1.747,10.225-2.52
	c0.814-0.151,1.607-0.407,2.435-0.499c2.163-0.286,4.323-0.62,6.502-0.764C67.743,403.526,68.623,403.548,69.5,403.51
	 M95.066,438.887c-0.488,0.138-0.943,0.364-1.396,0.587c-1.159,0.518-1.899,1.685-2.267,2.854c0.032,1.193,0.507,2.383,1.252,3.313
	c0.414,0.546,1.021,0.88,1.592,1.232c0.581,0.416,1.327,0.247,1.988,0.374c0.653,0.119,1.306-0.062,1.904-0.315
	c0.673-0.262,1.15-0.829,1.671-1.307c0.394-0.427,0.908-0.833,0.992-1.448c0.146-0.935-0.157-1.857-0.349-2.764
	c-0.462-0.745-0.926-1.55-1.695-2.02C97.677,438.713,96.292,438.594,95.066,438.887 M41.456,439.577
	c-0.504,0.062-1.027,0.108-1.496,0.316c-0.458,0.248-0.886,0.551-1.295,0.869c-0.398,0.312-0.56,0.815-0.746,1.265
	c-0.43,1.067-0.243,2.252-0.017,3.344c0.087,0.354,0.124,0.758,0.418,1.008c0.478,0.42,0.921,0.931,1.539,1.146
	c0.729,0.245,1.467,0.59,2.257,0.449c1.087-0.143,2.302-0.231,3.145-1.021c0.428-0.382,0.938-0.702,1.196-1.234
	c0.334-0.64,0.727-1.296,0.761-2.033c-0.082-1.15-0.422-2.443-1.447-3.11C44.46,439.875,42.952,439.449,41.456,439.577z"/>
<path fill="#E46912" d="M95.066,438.887c1.227-0.293,2.611-0.175,3.693,0.511c0.771,0.469,1.233,1.273,1.697,2.02
	c0.19,0.905,0.493,1.829,0.348,2.764c-0.084,0.615-0.6,1.021-0.993,1.448c-0.52,0.478-0.998,1.045-1.671,1.307
	c-0.599,0.254-1.25,0.435-1.903,0.314c-0.661-0.125-1.408,0.043-1.989-0.372c-0.571-0.354-1.178-0.688-1.593-1.232
	c-0.744-0.934-1.22-2.121-1.251-3.314c0.368-1.171,1.108-2.339,2.268-2.854C94.122,439.252,94.578,439.025,95.066,438.887z"/>
<path fill="#E46912" d="M41.456,439.577c1.496-0.129,3.004,0.298,4.316,0.995c1.023,0.667,1.364,1.96,1.446,3.11
	c-0.035,0.737-0.427,1.395-0.761,2.033c-0.258,0.532-0.77,0.854-1.197,1.234c-0.842,0.79-2.057,0.88-3.146,1.021
	c-0.79,0.142-1.528-0.203-2.257-0.448c-0.617-0.215-1.062-0.726-1.54-1.146c-0.295-0.25-0.332-0.654-0.418-1.008
	c-0.228-1.091-0.413-2.275,0.016-3.344c0.188-0.448,0.349-0.951,0.747-1.265c0.408-0.318,0.836-0.621,1.295-0.869
	C40.429,439.686,40.952,439.639,41.456,439.577z"/>
<path fill="#FFFFFF" d="M9.636,9.635H130.09v120.454H9.636V9.635 M32.22,25.394c-0.856,0.365-1.515,1.062-2.053,1.8
	c-0.303,0.595-0.607,1.191-0.887,1.798c-0.207,0.827-0.366,1.673-0.378,2.525c0.064,1.163,0.176,2.342,0.56,3.446
	c0.562,1.02,1.188,2.029,2.042,2.828c0.766,0.395,1.576,0.69,2.348,1.067c0.254,0.113,0.513,0.257,0.803,0.22
	c1.179-0.08,2.422-0.083,3.487-0.664c1.062-0.539,1.831-1.493,2.354-2.542c0.697-1.148,0.533-2.539,0.452-3.815
	c-0.039-0.636-0.435-1.2-0.415-1.841c1.354,0.499,2.709,0.999,4.02,1.604c0.391,0.189,0.829,0.309,1.152,0.611
	c1.247,1.062,2.525,2.093,3.684,3.251c0.978,0.946,1.838,2.021,2.933,2.844c-0.254-0.909-0.57-1.797-0.906-2.678
	c-0.362-1.038-1.076-1.893-1.676-2.798c-0.991-1.459-2.176-2.792-3.492-3.966c0.019-0.072,0.052-0.215,0.07-0.288
	c-0.141-0.041-0.279-0.083-0.411-0.142c-0.171-0.099-0.342-0.198-0.508-0.302c-0.087-0.007-0.259-0.021-0.344-0.028
	c-1.597-0.886-3.157-1.834-4.739-2.743c-0.31-0.194-0.682-0.205-1.031-0.252c-0.994-0.141-1.984-0.312-2.982-0.419
	C34.925,24.759,33.533,24.983,32.22,25.394 M101.126,34.91c-0.979,0.449-1.791,1.18-2.647,1.819
	c-0.365,0.317-0.849,0.54-1.055,1.003c-0.386,0.74-0.667,1.527-0.992,2.296c-0.097,0.271-0.258,0.561-0.147,0.854
	c0.272,0.945,0.464,1.917,0.861,2.823c0.772,1.578,2.096,2.906,3.728,3.583c1.432,0.703,3.049,0.85,4.618,0.917
	c0.774-0.169,1.607-0.466,2.078-1.153c0.676-0.935,1.211-1.993,1.475-3.12c0.235-1.286,0.505-2.679-0.065-3.919
	c-0.327-0.538-0.604-1.11-0.779-1.719c0.911,0.354,1.682,0.979,2.508,1.487c0.474,0.328,0.981,0.622,1.385,1.04
	c1.248,1.298,2.438,2.653,3.559,4.064c1.577,1.995,3.19,3.965,4.777,5.952c0.371,0.489,0.775,0.966,0.995,1.55
	c0.136-0.515,0.042-1.051-0.033-1.565c-1.232-4.518-3.526-8.653-6.036-12.575c-0.854-1.353-2.194-2.285-3.544-3.095
	c-0.519-0.197-1.042-0.392-1.584-0.517c-1.568-0.356-3.146-0.688-4.742-0.911C103.995,33.948,102.47,34.205,101.126,34.91
	 M68.165,63.114c-1.488,5.911-2.842,11.856-4.436,17.743c-0.914,3.674-2.441,7.153-3.69,10.718
	c-0.466,1.108-1.241,2.061-2.104,2.886c-1-0.001-2.013,0.179-3.003-0.006c-0.928-0.272-1.847-0.573-2.75-0.912
	c-2.803-1.07-5.613-2.113-8.417-3.177c1.707,2.359,3.169,4.89,4.854,7.265c1.423,1.57,2.79,3.191,4.219,4.754
	c1.001,1.01,2.122,1.896,3.308,2.679c1.045,0.735,2.147,1.399,3.331,1.892c1.676,0.555,3.475,0.532,5.209,0.378
	c1.683-0.594,3.228-1.501,4.768-2.386c1.792-1.283,3.514-2.661,5.241-4.032c1.979-1.562,3.959-3.123,5.908-4.724
	c-3.12,0.491-6.143,1.454-9.25,2.008c-1.246,0.213-2.494-0.277-3.488-1c-0.196-2.22-0.308-4.447-0.292-6.676
	c0.06-1.551,0.029-3.107,0.294-4.644c0.353-3.033,0.793-6.057,1.217-9.08c0.21-2.566,0.524-5.126,0.796-7.689
	c0.233-2.868,0.363-5.741,0.528-8.612c0.028-0.66,0.149-1.32,0.078-1.982C69.516,59.935,68.861,61.547,68.165,63.114
	 M18.198,105.143c-0.008,0.082-0.023,0.25-0.03,0.333c0.599,0.075,1.047,0.503,1.529,0.823c1.622,1.111,3.263,2.196,4.958,3.194
	c1.488,0.847,3.049,1.56,4.55,2.38c1.125,0.624,2.4,0.896,3.528,1.511c2.2,1.081,4.418,2.124,6.646,3.146
	c2.914,1.23,5.828,2.481,8.866,3.385c1.219,0.447,2.522,0.561,3.743,1.001c1.656,0.507,3.381,0.724,5.083,1.016
	c6.145,0.758,12.364,0.664,18.5,1.501c1.443,0.25,2.887,0.502,4.354,0.583c2.763,0.179,5.536,0.353,8.304,0.17
	c2.679-0.155,5.368-0.366,8.003-0.906c1.683-0.368,3.391-0.643,5.026-1.198c-1.821-0.139-3.634-0.38-5.44-0.634
	c-6.904-0.834-13.746-2.111-20.64-3.012c-3.469-0.466-6.899-1.174-10.357-1.715c-2.99-0.482-5.961-1.084-8.953-1.57
	c-2.751-0.432-5.465-1.06-8.19-1.627c-4.864-1.273-9.736-2.523-14.562-3.945c-4.94-1.459-9.881-2.919-14.872-4.192
	C18.234,105.325,18.209,105.205,18.198,105.143z"/>
<path d="M32.22,25.394c1.313-0.412,2.706-0.637,4.083-0.483c0.999,0.107,1.989,0.278,2.982,0.419
	c0.351,0.047,0.723,0.059,1.031,0.252c1.583,0.909,3.144,1.856,4.739,2.743c0.085,0.007,0.257,0.021,0.344,0.027
	c0.167,0.104,0.337,0.205,0.509,0.303c0.132,0.059,0.271,0.101,0.411,0.142c-0.02,0.073-0.053,0.216-0.07,0.288
	c1.316,1.175,2.5,2.508,3.491,3.966c0.6,0.906,1.312,1.763,1.676,2.798c0.336,0.881,0.652,1.77,0.906,2.678
	c-1.095-0.823-1.955-1.896-2.933-2.843c-1.157-1.159-2.437-2.189-3.684-3.252c-0.324-0.304-0.762-0.422-1.152-0.611
	c-1.311-0.605-2.665-1.105-4.021-1.604c-0.02,0.642,0.375,1.206,0.416,1.841c0.081,1.276,0.246,2.667-0.452,3.815
	c-0.524,1.049-1.294,2.001-2.354,2.542c-1.066,0.582-2.309,0.584-3.488,0.664c-0.29,0.037-0.549-0.106-0.802-0.22
	c-0.773-0.376-1.583-0.674-2.349-1.067c-0.853-0.799-1.479-1.809-2.041-2.828c-0.384-1.104-0.496-2.284-0.561-3.446
	c0.012-0.853,0.172-1.699,0.378-2.524c0.278-0.607,0.583-1.204,0.886-1.799C30.705,26.456,31.364,25.76,32.22,25.394z"/>
<path d="M101.126,34.91c1.344-0.705,2.869-0.962,4.354-1.186c1.597,0.224,3.175,0.555,4.743,0.911
	c0.543,0.125,1.065,0.319,1.585,0.517c1.349,0.81,2.688,1.741,3.543,3.095c2.509,3.921,4.803,8.057,6.036,12.575
	c0.075,0.514,0.169,1.051,0.033,1.565c-0.22-0.584-0.624-1.061-0.995-1.55c-1.587-1.988-3.2-3.958-4.779-5.952
	c-1.117-1.411-2.309-2.767-3.557-4.063c-0.402-0.418-0.911-0.713-1.385-1.041c-0.827-0.508-1.597-1.133-2.508-1.487
	c0.177,0.609,0.451,1.182,0.779,1.719c0.57,1.24,0.303,2.635,0.065,3.919c-0.266,1.127-0.799,2.186-1.475,3.12
	c-0.472,0.688-1.304,0.984-2.078,1.153c-1.569-0.067-3.187-0.214-4.618-0.917c-1.632-0.678-2.955-2.004-3.728-3.583
	c-0.397-0.905-0.59-1.877-0.862-2.823c-0.11-0.293,0.051-0.582,0.146-0.854c0.326-0.77,0.607-1.556,0.993-2.296
	c0.206-0.462,0.689-0.686,1.055-1.002C99.334,36.089,100.147,35.359,101.126,34.91z"/>
<path fill="#010101" d="M68.165,63.114c0.695-1.567,1.351-3.179,2.319-4.6c0.071,0.662-0.049,1.322-0.078,1.983
	c-0.165,2.872-0.295,5.745-0.527,8.613c-0.271,2.562-0.585,5.122-0.797,7.689c-0.424,3.023-0.864,6.046-1.217,9.081
	c-0.263,1.535-0.232,3.092-0.293,4.644c-0.019,2.229,0.094,4.457,0.292,6.675c0.995,0.722,2.244,1.213,3.488,1
	c3.106-0.552,6.129-1.516,9.249-2.008c-1.947,1.602-3.93,3.161-5.907,4.726c-1.727,1.37-3.448,2.748-5.241,4.031
	c-1.54,0.884-3.085,1.791-4.768,2.386c-1.734,0.153-3.535,0.177-5.209-0.379c-1.184-0.489-2.286-1.152-3.331-1.891
	c-1.186-0.782-2.307-1.668-3.308-2.679c-1.431-1.562-2.797-3.185-4.22-4.755c-1.685-2.375-3.147-4.905-4.854-7.264
	c2.806,1.062,5.615,2.105,8.417,3.176c0.904,0.339,1.823,0.64,2.75,0.912c0.991,0.186,2.003,0.005,3.004,0.007
	c0.861-0.827,1.637-1.778,2.104-2.886c1.251-3.564,2.776-7.045,3.69-10.719C65.323,74.97,66.678,69.025,68.165,63.114z"/>
<path fill="#CA061D" d="M18.198,105.143c0.011,0.062,0.035,0.182,0.045,0.242c4.991,1.273,9.933,2.733,14.873,4.192
	c4.825,1.422,9.696,2.672,14.562,3.945c2.726,0.567,5.439,1.196,8.19,1.627c2.991,0.485,5.962,1.088,8.953,1.571
	c3.458,0.54,6.888,1.248,10.356,1.714c6.895,0.899,13.735,2.179,20.64,3.012c1.809,0.254,3.62,0.496,5.441,0.634
	c-1.636,0.557-3.344,0.831-5.026,1.198c-2.634,0.541-5.323,0.751-8.003,0.907c-2.767,0.182-5.54,0.008-8.304-0.171
	c-1.466-0.081-2.909-0.334-4.354-0.583c-6.137-0.836-12.354-0.744-18.5-1.5c-1.701-0.294-3.427-0.51-5.083-1.017
	c-1.22-0.44-2.524-0.553-3.743-1.001c-3.038-0.902-5.952-2.152-8.865-3.386c-2.227-1.021-4.445-2.064-6.646-3.146
	c-1.128-0.614-2.404-0.887-3.527-1.511c-1.503-0.82-3.062-1.532-4.551-2.38c-1.696-0.998-3.336-2.083-4.958-3.194
	c-0.481-0.321-0.931-0.748-1.53-0.823C18.174,105.393,18.191,105.225,18.198,105.143z"/>
<path d="M139.728,9.635h120.455v120.454h-22.126c-0.005-1.949,0.015-3.897,0-5.848c-0.241-4.896-0.604-9.781-0.861-14.676
	c-0.247-3.955-0.695-7.892-1.041-11.838c-0.381-2.938-0.636-5.887-0.881-8.836c-0.104-1.478-0.501-2.905-0.787-4.354
	c-0.641-3.12-1.398-6.213-2.096-9.32c-0.271-1.295-0.715-2.543-1.087-3.808c-0.63-1.535-1.097-3.131-1.759-4.655
	c-0.324-0.874-0.689-1.731-1.042-2.593c-0.37-1.089-0.826-2.146-1.293-3.195c-0.646-1.254-1.586-2.323-2.324-3.521
	c-0.697-0.908-1.229-1.928-1.926-2.834c-0.44-0.613-0.814-1.271-1.277-1.866c-0.613-0.793-1.312-1.514-1.972-2.267
	c-1.134-0.069-2.269-0.146-3.4-0.139c1.304-0.061,2.604,0.114,3.908,0.104c3.94-0.098,7.882-0.087,11.822-0.134
	c1.466-0.087,2.933-0.093,4.4-0.14c0.436-2.534,0.77-5.086,1.134-7.632c0.46-4.14,1.71-8.128,2.675-12.166
	c0.747-3.201,1.352-6.434,2.062-9.643c-0.895,0.97-2.008,1.697-2.94,2.626c-1.782,1.834-3.666,3.57-5.37,5.479
	c-1.903,2.055-3.688,4.214-5.5,6.354c-0.834,0.98-1.599,2.021-2.466,2.974c-1.099-4.4-1.743-8.896-2.567-13.352
	c-0.449-2.6-0.819-5.214-1.351-7.8c-0.488,1.089-1.247,2.02-1.771,3.089c-0.668,1.093-1.151,2.28-1.812,3.38
	c-0.868,1.812-1.946,3.511-2.831,5.313c-1.306,2.467-2.749,4.856-4.19,7.247c-0.033,0.004-0.104,0.013-0.139,0.017
	c-0.393-4.556-0.919-9.1-1.4-13.645c-0.212-1.785-0.39-3.573-0.639-5.354c-0.238,0.346-0.417,0.726-0.561,1.115
	c-1.229,2.859-2.609,5.654-3.686,8.577c-1.1,2.918-2.086,5.875-3.235,8.773c-0.581-1.78-0.753-3.651-1.064-5.489
	c-0.662-4.121-1.474-8.215-2.175-12.328c-0.235,0.102-0.603,0.037-0.703,0.328c-0.639,1.356-1.297,2.705-1.957,4.052
	c-1.663,3.126-3.09,6.372-4.459,9.635c-0.346,0.902-0.748,1.783-1.158,2.657c-0.224-0.113-0.335-0.345-0.46-0.546
	c-0.886-1.56-1.796-3.105-2.646-4.685c-1.138-1.87-2.252-3.75-3.315-5.66c-0.389-0.717-0.688-1.478-1.062-2.199
	c-0.394-0.759-0.702-1.579-1.289-2.216c-0.156,0.688-0.126,1.395-0.171,2.094c-0.525,5.85-0.779,11.717-1.333,17.565
	c-0.088,1.396-0.248,2.785-0.316,4.185l-0.278,0.024l0.446,0.048l-0.167,0.007c-0.004,0.174-0.009,0.523-0.013,0.698
	c-0.502-0.541-0.95-1.125-1.382-1.722c-3.26-4.294-6.366-8.698-9.464-13.107c-1.855-2.532-3.706-5.064-5.529-7.618
	c0.185,1.194-0.021,2.408,0.171,3.602c0.054,0.655,0.102,1.312,0.271,1.95c0.701,3.985,1.425,7.969,2.188,11.945
	c0.92,3.888,1.929,7.751,2.934,11.615c1.874-0.065,3.736-0.291,5.609-0.415c2.181-0.018,4.353-0.237,6.535-0.231
	c0.862-0.055,1.729-0.096,2.594-0.111c-1.223,1.125-2.733,1.876-4.004,2.944c-0.899,0.773-1.905,1.451-2.626,2.409
	c-0.544,0.718-1.177,1.364-1.686,2.111c-0.772,1.138-1.529,2.287-2.265,3.453c-0.544,0.871-0.991,1.801-1.562,2.655
	c-0.559,0.832-1.03,1.718-1.469,2.619c-0.386,0.81-0.882,1.585-1.057,2.479c-0.453,2.146-1.175,4.223-1.7,6.351
	c-0.574,2.354-1.003,4.746-1.535,7.111c-0.561,2.734-1.041,5.487-1.603,8.224c-0.386,3.032-0.489,6.091-0.813,9.13
	c-0.192,2.401-0.365,4.805-0.626,7.201c-0.262,3.171-0.435,6.35-0.679,9.521c-0.175,1.444-0.21,2.899-0.269,4.352
	c-0.127,1.222-0.062,2.448-0.171,3.669c-0.036,0.499-0.042,1-0.039,1.504c0.018,1.585-0.249,3.166-0.149,4.752h-21.68V9.635
	L139.728,9.635z"/>
<path fill="#CB051D" d="M220.346,20.102c0.523-1.069,1.283-1.999,1.771-3.088c0.53,2.586,0.899,5.201,1.351,7.801
	c0.824,4.455,1.469,8.949,2.567,13.351c0.867-0.953,1.631-1.992,2.466-2.974c1.81-2.14,3.596-4.299,5.5-6.354
	c1.703-1.909,3.588-3.646,5.37-5.479c0.934-0.93,2.047-1.657,2.938-2.626c-0.709,3.208-1.312,6.441-2.06,9.643
	c-0.966,4.037-2.216,8.025-2.676,12.165c-0.363,2.546-0.696,5.099-1.133,7.633c-1.469,0.046-2.937,0.052-4.4,0.141
	c-3.94,0.045-7.883,0.035-11.822,0.133c-1.305,0.01-2.604-0.165-3.909-0.104c-1.183-0.173-2.383-0.122-3.572-0.225
	c-2.676-0.025-5.35-0.208-8.021-0.299c-4.217-0.125-8.432-0.354-12.646-0.466c-1.769,0.012-3.535,0.077-5.304,0.14
	c-1.034,0.033-2.074,0.004-3.106,0.11c-0.865,0.017-1.73,0.056-2.594,0.111c-2.184-0.007-4.354,0.214-6.535,0.231
	c-1.874,0.125-3.736,0.35-5.609,0.416c-1.005-3.866-2.014-7.729-2.934-11.616c-0.763-3.976-1.486-7.959-2.188-11.945
	c-0.17-0.637-0.218-1.295-0.271-1.95c-0.192-1.193,0.013-2.406-0.171-3.602c1.822,2.553,3.675,5.085,5.529,7.618
	c3.099,4.409,6.204,8.813,9.463,13.107c0.434,0.597,0.881,1.181,1.382,1.722c0.005-0.175,0.01-0.524,0.015-0.698l0.166-0.006
	l-0.446-0.048l0.279-0.024c0.066-1.399,0.229-2.789,0.314-4.185c0.555-5.849,0.809-11.717,1.333-17.566
	c0.046-0.698,0.017-1.405,0.172-2.093c0.588,0.638,0.896,1.458,1.288,2.216c0.374,0.723,0.676,1.483,1.063,2.199
	c1.062,1.911,2.179,3.79,3.315,5.66c0.849,1.579,1.761,3.125,2.646,4.685c0.125,0.202,0.235,0.433,0.46,0.547
	c0.409-0.875,0.812-1.755,1.158-2.657c1.369-3.264,2.797-6.509,4.458-9.636c0.661-1.347,1.318-2.694,1.958-4.051
	c0.101-0.291,0.468-0.228,0.703-0.328c0.699,4.114,1.513,8.208,2.175,12.328c0.311,1.837,0.485,3.709,1.063,5.489
	c1.15-2.898,2.138-5.855,3.236-8.773c1.075-2.922,2.457-5.718,3.686-8.577c0.144-0.391,0.322-0.771,0.561-1.116
	c0.249,1.782,0.426,3.57,0.639,5.354c0.482,4.546,1.008,9.089,1.399,13.646c0.036-0.004,0.104-0.013,0.14-0.018
	c1.44-2.39,2.884-4.78,4.19-7.247c0.885-1.803,1.965-3.502,2.831-5.313C219.194,22.383,219.678,21.195,220.346,20.102z"/>
<path fill="#CB051D" d="M222.546,65.69c0.232,0.555-0.062,1.22-0.143,1.802c-0.045,0.014-0.138,0.041-0.183,0.055
	c-0.098,0.104-0.292,0.312-0.39,0.415c0.132-0.249,0.218-0.518,0.326-0.777c-0.035-0.037-0.106-0.113-0.144-0.151
	c0.089,0.024,0.264,0.076,0.351,0.103c0.111-0.448,0.177-0.908,0.176-1.371C222.543,65.746,222.546,65.709,222.546,65.69z"/>
<path fill="#FDF29D" d="M186.765,49.492c1.769-0.062,3.535-0.127,5.304-0.14c4.217,0.111,8.431,0.342,12.647,0.467
	c2.672,0.091,5.346,0.272,8.021,0.299c1.189,0.102,2.391,0.052,3.572,0.224c1.134-0.006,2.269,0.07,3.401,0.14
	c0.659,0.753,1.357,1.472,1.972,2.267c0.462,0.596,0.836,1.253,1.277,1.866c0.695,0.909,1.227,1.926,1.926,2.834
	c0.738,1.196,1.677,2.268,2.324,3.521c0.468,1.047,0.924,2.105,1.293,3.194c0.354,0.862,0.718,1.719,1.042,2.594
	c0.661,1.523,1.129,3.12,1.759,4.655c0.372,1.265,0.815,2.513,1.087,3.808c0.697,3.107,1.455,6.201,2.095,9.321
	c0.286,1.447,0.686,2.875,0.787,4.354c0.246,2.949,0.5,5.897,0.881,8.836c0.346,3.945,0.795,7.881,1.041,11.836
	c0.258,4.896,0.62,9.781,0.862,14.677c0.015,1.949-0.005,3.896,0,5.848h-76.647c-0.101-1.586,0.167-3.167,0.149-4.752
	c-0.003-0.503,0.002-1.005,0.038-1.504c0.108-1.222,0.045-2.448,0.172-3.668c0.059-1.452,0.094-2.907,0.269-4.352
	c0.244-3.171,0.417-6.35,0.679-9.52c0.261-2.396,0.433-4.8,0.625-7.203c0.325-3.039,0.431-6.099,0.812-9.13
	c0.562-2.735,1.043-5.488,1.604-8.224c0.53-2.365,0.959-4.755,1.534-7.111c0.524-2.128,1.247-4.204,1.699-6.351
	c0.177-0.896,0.671-1.67,1.058-2.479c0.437-0.901,0.911-1.787,1.468-2.619c0.57-0.855,1.02-1.786,1.562-2.654
	c0.732-1.166,1.492-2.315,2.264-3.454c0.509-0.746,1.142-1.395,1.686-2.111c0.722-0.958,1.727-1.635,2.627-2.409
	c1.271-1.067,2.78-1.819,4.004-2.943C184.691,49.497,185.73,49.525,186.765,49.492 M183.099,60.334
	c-0.654,0.194-1.39,0.245-1.966,0.637c-0.711,0.759-1.593,1.477-1.824,2.544c-0.44,1.165-0.408,2.467-0.065,3.652
	c0.527,0.878,1.392,1.478,2.043,2.256c0.94,0.588,2.1,0.566,3.168,0.534c0.548,0.002,1.054-0.25,1.525-0.501
	c1.185-0.727,2.173-1.821,2.724-3.099c0.229-0.892,0.396-1.895-0.031-2.753c-0.365-0.803-0.668-1.711-1.396-2.262
	C186.196,60.277,184.535,60.086,183.099,60.334 M213.428,62.652c-0.35,0.355-0.332,0.886-0.409,1.348
	c-0.276,1.011-0.104,2.055-0.014,3.078l0.233-0.401c-0.037,0.133-0.085,0.264-0.127,0.396c0.338,0.668,0.731,1.309,1.188,1.903
	c0.123,0.187,0.334,0.266,0.541,0.329c0.002,0.015,0.011,0.04,0.014,0.052c0.161,0.064,0.319,0.136,0.478,0.216
	c0.295,0.076,0.543,0.261,0.815,0.391c0.736,0.465,1.634,0.163,2.41-0.033c0.813-0.262,1.699-0.414,2.39-0.947
	c0.385-0.296,0.826-0.536,1.097-0.953c0.06-0.162,0.119-0.323,0.182-0.482c0.046-0.015,0.138-0.042,0.183-0.055
	c0.08-0.583,0.374-1.246,0.142-1.802l0.001-0.021c-0.256-0.58-0.104-1.263-0.441-1.812c-0.514-1.068-1.229-2.178-2.399-2.593
	c-0.846-0.331-1.674-0.966-2.631-0.768C215.658,60.741,214.332,61.539,213.428,62.652 M188.426,80.768
	c0.207,1.549,0.645,3.055,0.901,4.595c0.345,1.859,0.812,3.694,1.358,5.507c0.825,2.855,1.529,5.743,2.226,8.634
	c0.732,2.896,1.423,5.804,2.136,8.704c1.06,3.852,1.896,7.764,3.009,11.601c0.503-1.011,1.023-2.016,1.471-3.053
	c2.661-5.541,5.306-11.093,7.982-16.627c0.559-1.171,1.037-2.379,1.646-3.526c2.312-4.89,4.619-9.78,6.95-14.66
	c0.07-0.193,0.134-0.389,0.199-0.582c-0.736,0.006-1.469-0.05-2.201-0.109c-1.543-0.015-3.083-0.106-4.626-0.153
	c-1.589-0.107-3.18-0.016-4.77-0.078c-1.309-0.147-2.625-0.077-3.938-0.07c-3.169-0.021-6.34-0.03-9.508-0.019
	C190.316,80.898,189.372,80.805,188.426,80.768z"/>
<path fill="#010101" d="M183.099,60.334c1.438-0.249,3.096-0.058,4.178,1.01c0.729,0.551,1.03,1.459,1.396,2.263
	c0.427,0.858,0.261,1.859,0.031,2.752c-0.552,1.277-1.54,2.373-2.725,3.099c-0.473,0.251-0.979,0.503-1.524,0.501
	c-1.069,0.032-2.228,0.054-3.168-0.534c-0.651-0.778-1.516-1.377-2.043-2.256c-0.344-1.186-0.374-2.487,0.065-3.652
	c0.231-1.068,1.113-1.786,1.824-2.544C181.71,60.579,182.445,60.528,183.099,60.334z"/>
<path fill="#010101" d="M213.428,62.652c0.904-1.114,2.23-1.911,3.646-2.157c0.957-0.198,1.786,0.437,2.631,0.768
	c1.17,0.414,1.887,1.524,2.399,2.592c0.338,0.55,0.188,1.233,0.441,1.813l-0.001,0.021c0,0.02-0.002,0.056-0.004,0.074
	c0.001,0.464-0.063,0.923-0.176,1.372c-0.088-0.025-0.262-0.077-0.352-0.102c0.037,0.038,0.107,0.114,0.145,0.151
	c-0.108,0.26-0.194,0.527-0.326,0.777c0.098-0.103,0.292-0.312,0.39-0.415c-0.062,0.16-0.121,0.319-0.182,0.481
	c-0.271,0.417-0.711,0.656-1.096,0.953c-0.689,0.533-1.575,0.687-2.391,0.947c-0.775,0.197-1.673,0.499-2.41,0.033
	c-0.272-0.129-0.521-0.313-0.815-0.391c-0.156-0.08-0.314-0.151-0.478-0.217c-0.003-0.011-0.011-0.036-0.014-0.051
	c-0.207-0.062-0.418-0.143-0.54-0.329c-0.457-0.596-0.851-1.234-1.188-1.903c0.043-0.133,0.091-0.264,0.126-0.396l-0.232,0.401
	c-0.09-1.022-0.263-2.066,0.014-3.078C213.096,63.538,213.078,63.009,213.428,62.652z"/>
<path fill="#F9BB10" d="M188.426,80.768c0.946,0.037,1.89,0.129,2.834,0.162c3.168-0.011,6.339-0.003,9.508,0.02
	c1.313-0.007,2.632-0.077,3.938,0.07c1.59,0.062,3.182-0.029,4.77,0.079c1.543,0.046,3.083,0.139,4.626,0.152
	c0.731,0.06,1.467,0.116,2.201,0.109c-0.065,0.193-0.128,0.389-0.198,0.583c-2.331,4.879-4.64,9.771-6.951,14.661
	c-0.607,1.147-1.085,2.354-1.646,3.525c-2.678,5.536-5.321,11.086-7.982,16.627c-0.446,1.037-0.968,2.041-1.471,3.054
	c-1.111-3.839-1.948-7.749-3.009-11.603c-0.713-2.898-1.401-5.807-2.136-8.703c-0.695-2.891-1.398-5.777-2.225-8.634
	c-0.548-1.812-1.015-3.647-1.359-5.508C189.071,83.823,188.633,82.317,188.426,80.768z"/>
<path fill="#FFFFFF" d="M269.82,9.635h120.455v120.454h-44.649c0.087-2.445,0.293-4.887,0.412-7.332
	c0.372-6.502,0.672-13.011,0.839-19.521c4.052-2.104,7.869-4.64,11.493-7.406c0.868-0.609,1.709-1.257,2.499-1.963
	c0.762-0.685,1.621-1.268,2.247-2.085c1.08-1.071,1.948-2.325,2.804-3.577c1.221-1.781,2.189-3.714,3.033-5.696
	c1.064-2.441,2.088-4.916,2.755-7.5c0.371-1.751,0.837-3.489,0.99-5.279c0.243-2.726,0.642-5.442,0.694-8.183
	c-0.091-0.714,0.005-1.434-0.082-2.146c-0.271-3.014-0.778-5.998-1.334-8.972c-0.269-1.487-0.764-2.923-1.308-4.33
	c-0.401-1.295-1.026-2.504-1.521-3.762c-0.565-1.179-1.092-2.389-1.857-3.455c-1.144-1.728-2.427-3.357-3.771-4.936
	c-0.584-0.716-1.487-1.046-2.134-1.692c-0.912-0.902-1.888-1.731-2.855-2.572c-0.34-0.3-0.698-0.58-1.08-0.824
	c-2.218-1.437-4.42-2.926-6.814-4.056c-5.17-2.243-10.771-3.35-16.377-3.718c-1.086-0.088-2.176-0.125-3.264-0.217
	c-2.629,0.079-5.23,0.522-7.82,0.957c-1.769,0.316-3.523,0.718-5.251,1.219c-2.677,0.823-5.34,1.714-7.894,2.87
	c-0.545,0.277-1.061,0.609-1.631,0.828c-1.471,0.589-2.692,1.618-3.916,2.594c-1.154,1.115-2.352,2.192-3.416,3.395
	c-0.488,0.643-0.959,1.303-1.379,1.991c-1.188,2.207-2.358,4.434-3.166,6.812c-1.175,2.673-1.722,5.557-2.195,8.421
	c-0.693,4.29-0.696,8.65-0.536,12.979c0,1.351,0.084,2.697,0.18,4.044c0.312,2.005,0.563,4.021,1.062,5.992
	c0.304,1.544,0.729,3.064,1.26,4.546c0.419,1.579,1.187,3.035,1.853,4.52c0.287,0.571,0.506,1.183,0.892,1.696
	c1.611,2.184,3.254,4.346,5.031,6.396c1.537,1.682,3.13,3.314,4.828,4.836c0.425,0.378,0.824,0.795,1.307,1.109
	c3.315,1.953,6.704,3.786,10.114,5.571c0.249,0.135,0.523,0.206,0.804,0.258c0.062,0.656,0.152,1.31,0.229,1.967
	c0.188,2.484-0.121,4.977,0.021,7.464c0.025,1.583-0.006,3.17,0.062,4.755c0.053,1.207-0.03,2.416,0.057,3.621
	c0.146,3.462,0.351,6.921,0.387,10.385h-52.06V9.635H269.82z"/>
<path fill="#010101" d="M323.176,21.826c2.59-0.435,5.192-0.878,7.822-0.957c1.086,0.093,2.177,0.128,3.262,0.217
	c5.607,0.37,11.207,1.476,16.378,3.718c2.395,1.129,4.598,2.619,6.813,4.056c0.383,0.244,0.741,0.524,1.082,0.824
	c0.969,0.841,1.943,1.671,2.854,2.572c0.646,0.646,1.549,0.976,2.134,1.692c1.344,1.577,2.628,3.207,3.771,4.936
	c0.767,1.067,1.293,2.277,1.857,3.455c0.494,1.258,1.117,2.467,1.521,3.762c0.543,1.407,1.038,2.842,1.307,4.33
	c0.556,2.975,1.062,5.958,1.335,8.972c0.087,0.712-0.011,1.433,0.082,2.146c-0.054,2.74-0.452,5.457-0.694,8.184
	c-0.152,1.788-0.62,3.525-0.991,5.278c-0.666,2.584-1.689,5.059-2.754,7.5c-0.845,1.982-1.813,3.916-3.034,5.696
	c-0.854,1.251-1.722,2.505-2.803,3.577c-0.625,0.817-1.486,1.4-2.248,2.084c-0.791,0.706-1.631,1.354-2.498,1.964
	c-3.625,2.767-7.442,5.303-11.492,7.406c-0.169,6.51-0.468,13.019-0.841,19.521c-0.118,2.445-0.325,4.887-0.412,7.332h-23.745
	c-0.037-3.464-0.242-6.923-0.387-10.385c-0.089-1.205-0.005-2.414-0.059-3.621c-0.065-1.584-0.034-3.171-0.06-4.755
	c-0.144-2.487,0.164-4.979-0.021-7.463c-0.076-0.657-0.166-1.311-0.229-1.967c-0.279-0.052-0.555-0.123-0.805-0.258
	c-3.41-1.785-6.798-3.619-10.114-5.57c-0.481-0.314-0.882-0.729-1.309-1.109c-1.696-1.521-3.291-3.155-4.826-4.836
	c-1.776-2.05-3.42-4.212-5.03-6.396c-0.386-0.514-0.604-1.125-0.893-1.695c-0.667-1.483-1.434-2.94-1.854-4.52
	c-0.529-1.48-0.955-3.002-1.259-4.546c-0.499-1.97-0.75-3.987-1.062-5.993c-0.097-1.346-0.18-2.692-0.18-4.043
	c-0.161-4.33-0.159-8.689,0.535-12.979c0.474-2.864,1.021-5.749,2.194-8.421c0.809-2.379,1.979-4.604,3.166-6.812
	c0.422-0.688,0.892-1.348,1.38-1.992c1.064-1.201,2.261-2.277,3.417-3.394c1.223-0.978,2.445-2.004,3.915-2.594
	c0.569-0.22,1.087-0.552,1.631-0.829c2.554-1.155,5.218-2.047,7.893-2.869C319.655,22.543,321.408,22.142,323.176,21.826z"/>
<path d="M399.91,9.635h120.454v120.454H399.91V9.635 M500.719,38.843c-2.862,1.148-5.731,2.292-8.59,3.453
	c-1.481,0.742-2.953,1.505-4.461,2.19c-2.841,1.385-5.784,2.597-8.404,4.39c-1.851,1.255-3.737,2.476-5.401,3.98
	c-0.389,0.376-0.82,0.733-1.082,1.216c1.511-0.056,3.002-0.343,4.507-0.475c0.258-0.019,0.515-0.063,0.769-0.127
	c2.229-0.534,4.497-0.926,6.676-1.649c1.115-0.333,2.273-0.558,3.332-1.064c2.438-0.957,4.729-2.249,6.875-3.752
	c1.207-0.859,2.447-1.691,3.522-2.719c1.812-1.744,3.452-3.665,4.938-5.692c0.259-0.397,0.601-0.75,0.776-1.196
	C503.03,37.891,501.89,38.404,500.719,38.843 M419.039,37.581c1.641,2.104,3.375,4.136,5.088,6.181
	c1.927,2.015,3.888,4.062,6.3,5.502c2.639,1.545,5.458,2.774,8.37,3.708c1.448,0.465,2.967,0.675,4.418,1.142
	c3.041,0.472,6.097,1.035,9.188,1.027c-1.487-0.757-2.885-1.675-4.314-2.527c-1.903-1.104-3.723-2.354-5.684-3.355
	c-2.39-1.353-4.807-2.657-7.192-4.016c-3.567-2.006-7.061-4.158-10.758-5.925C422.711,38.568,420.902,37.97,419.039,37.581z"/>
<path fill="#FFE510" d="M500.719,38.843c1.17-0.438,2.312-0.95,3.455-1.445c-0.176,0.445-0.518,0.799-0.776,1.196
	c-1.484,2.028-3.125,3.948-4.938,5.692c-1.076,1.026-2.316,1.859-3.523,2.719c-2.144,1.503-4.436,2.795-6.875,3.751
	c-1.058,0.507-2.215,0.73-3.33,1.064c-2.18,0.725-4.447,1.115-6.677,1.649c-0.253,0.063-0.512,0.108-0.77,0.127
	c-1.504,0.13-2.994,0.418-4.505,0.475c0.262-0.481,0.691-0.839,1.08-1.217c1.664-1.504,3.554-2.726,5.402-3.979
	c2.62-1.793,5.563-3.005,8.404-4.39c1.508-0.688,2.979-1.449,4.461-2.191C494.987,41.135,497.855,39.99,500.719,38.843z"/>
<path fill="#FFE510" d="M419.039,37.581c1.861,0.39,3.672,0.986,5.414,1.736c3.699,1.768,7.189,3.918,10.758,5.925
	c2.387,1.357,4.804,2.663,7.192,4.015c1.96,1.003,3.778,2.252,5.684,3.355c1.432,0.853,2.827,1.771,4.314,2.527
	c-3.091,0.008-6.146-0.556-9.188-1.028c-1.451-0.466-2.97-0.677-4.418-1.142c-2.912-0.934-5.729-2.163-8.37-3.707
	c-2.412-1.439-4.373-3.486-6.3-5.502C422.414,41.717,420.68,39.685,419.039,37.581z"/>
<path fill="#010101" d="M9.636,139.726H130.09v120.455H56.615c-0.666-0.084-1.346-0.142-2.009,0h-0.07
	c-1.458-0.158-2.927-0.043-4.389-0.082c-12.645-0.054-25.288-0.032-37.932-0.059c-0.859,0.048-1.733-0.104-2.581,0.082
	L9.636,139.726 M64.474,156.225c-3.692,3.062-7.705,5.709-11.805,8.191c-0.518,0.324-1.09,0.548-1.646,0.798
	c-3.419,1.525-6.9,2.954-10.534,3.884c-1.678,0.164-3.371,0.168-5.056,0.22c-1.849,0.092-3.697,0.188-5.543,0.318
	c-1.763,0.185-3.533-0.002-5.297,0.119c-1.748,0.086-3.498,0.117-5.244,0.22c-0.07,2.378,0.026,4.761,0.168,7.138
	c0.176,4.09,0.501,8.172,0.949,12.244c0.188,1.313,0.295,2.646,0.633,3.937c0.998,4.507,2.165,8.974,3.382,13.427
	c1.563,5.364,3.817,10.496,6.052,15.604c2.365,4.734,5.105,9.272,8.024,13.688c0.39,0.759,1.01,1.352,1.521,2.024
	c3.16,3.795,6.594,7.355,10.188,10.739c1.138,1.11,2.46,2.012,3.787,2.88c2.499,1.589,5.401,2.403,8.306,2.854
	c2.537,0.413,5.127,0.206,7.649-0.211c1.515-0.22,2.975-0.696,4.399-1.241c0.423-0.188,0.907-0.13,1.328-0.321
	c2.062-0.938,4.022-2.094,5.88-3.389c3.329-2.273,6.438-4.854,9.417-7.564c1.039-0.901,1.955-1.942,3.059-2.768
	c4.556-5.492,8.468-11.477,12.315-17.479c0.352-0.529,0.631-1.104,0.861-1.694c2.062-5.106,4.099-10.225,6.021-15.386
	c0.114-0.262,0.362-0.422,0.527-0.646c0.1-0.334,0.118-0.686,0.228-1.016c1.478-4.64,2.637-9.374,3.669-14.131
	c0.335-1.015,0.446-2.079,0.608-3.13c0.496-3.48,0.993-6.96,1.419-10.452c0.097-0.912,0.322-1.81,0.341-2.729
	c0.114-1.859,0.21-3.723,0.312-5.586c-2.209,0.068-4.412,0.227-6.623,0.191c-3.261,0.031-6.52-0.09-9.773-0.277
	c-1.41-0.139-2.857-0.146-4.208-0.626c-5.168-1.468-10.172-3.441-15.117-5.524c-0.655-0.257-1.204-0.708-1.796-1.077
	c-4.331-2.785-8.573-5.712-12.737-8.741C68.326,152.62,66.587,154.631,64.474,156.225z"/>
<path fill="#009044" d="M64.474,156.225c2.113-1.594,3.854-3.604,5.666-5.516c4.164,3.029,8.406,5.956,12.737,8.741
	c0.591,0.369,1.14,0.821,1.795,1.077c4.944,2.083,9.95,4.058,15.117,5.524c1.35,0.479,2.798,0.487,4.208,0.626
	c3.254,0.188,6.515,0.31,9.772,0.277c2.21,0.034,4.415-0.123,6.623-0.191c-0.103,1.862-0.196,3.727-0.312,5.586
	c-0.019,0.922-0.244,1.817-0.34,2.729c-0.428,3.491-0.923,6.972-1.42,10.452c-0.162,1.05-0.273,2.115-0.608,3.13
	c-1.032,4.757-2.191,9.491-3.668,14.131c-0.109,0.33-0.129,0.683-0.229,1.016c-0.165,0.226-0.412,0.386-0.526,0.646
	c-1.925,5.16-3.962,10.278-6.021,15.386c-0.23,0.592-0.513,1.165-0.862,1.694c-3.848,6.002-7.761,11.985-12.315,17.479
	c-1.103,0.824-2.019,1.865-3.059,2.768c-2.979,2.712-6.088,5.292-9.417,7.564c-1.856,1.295-3.817,2.451-5.879,3.389
	c-0.42,0.191-0.905,0.134-1.328,0.321c-1.424,0.545-2.886,1.021-4.399,1.241c-2.521,0.417-5.113,0.624-7.649,0.211
	c-2.904-0.449-5.808-1.266-8.305-2.854c-1.327-0.867-2.65-1.77-3.788-2.88c-3.595-3.383-7.029-6.944-10.188-10.739
	c-0.51-0.674-1.131-1.267-1.521-2.024c-2.919-4.414-5.658-8.952-8.023-13.688c-2.233-5.108-4.487-10.239-6.052-15.604
	c-1.216-4.453-2.383-8.92-3.382-13.427c-0.337-1.291-0.444-2.622-0.632-3.938c-0.448-4.071-0.774-8.153-0.949-12.243
	c-0.143-2.377-0.238-4.76-0.168-7.138c1.747-0.103,3.497-0.134,5.243-0.22c1.765-0.121,3.535,0.064,5.298-0.119
	c1.845-0.131,3.693-0.228,5.542-0.318c1.685-0.052,3.378-0.056,5.056-0.22c3.634-0.93,7.114-2.357,10.534-3.884
	c0.558-0.25,1.13-0.473,1.646-0.798C56.769,161.934,60.781,159.286,64.474,156.225 M67.312,227.033
	c-0.269,0.159-0.5,0.539-0.851,0.417c-1.07-0.336-2.049-0.911-3.108-1.273c-0.538-0.186-1.131-0.092-1.645,0.129
	c-0.484,0.203-1.058,0.388-1.306,0.896c-0.543,0.979-1.042,2.057-0.958,3.206c-0.06,1.08,0.457,2.06,0.905,3.004
	c1.792,2.475,4.085,4.548,6.521,6.373c1.308-1.36,2.552-2.784,3.865-4.143c0.943-1.063,1.929-2.125,2.562-3.41
	c0.479-0.949,0.647-2.01,0.817-3.046c0.2-1.697-1.367-3.247-3.031-3.247c-0.672,0.007-1.345-0.004-2.012,0.077
	C68.363,226.083,67.876,226.664,67.312,227.033z"/>
<path fill="#009044" d="M9.636,260.123c0.848-0.187,1.722-0.034,2.581-0.082c12.644,0.025,25.287,0.004,37.932,0.059
	c1.461,0.039,2.93-0.076,4.389,0.082h-44.9L9.636,260.123L9.636,260.123z"/>
<path fill="#009044" d="M54.607,260.181c0.663-0.142,1.344-0.084,2.01,0H54.607z"/>
<path fill="#CB051D" d="M67.312,227.033c0.564-0.369,1.051-0.95,1.763-1.019c0.667-0.081,1.34-0.07,2.012-0.077
	c1.665-0.001,3.231,1.55,3.031,3.247c-0.17,1.036-0.341,2.097-0.817,3.045c-0.634,1.286-1.617,2.348-2.562,3.411
	c-1.313,1.357-2.557,2.782-3.865,4.143c-2.437-1.824-4.729-3.897-6.521-6.373c-0.449-0.944-0.963-1.925-0.905-3.004
	c-0.084-1.15,0.415-2.228,0.958-3.206c0.249-0.508,0.821-0.691,1.306-0.896c0.515-0.222,1.104-0.313,1.645-0.129
	c1.061,0.362,2.038,0.938,3.108,1.273C66.812,227.573,67.043,227.192,67.312,227.033z"/>
<path fill="#FFFFFF" d="M139.729,139.726h120.454v55.89c-0.771-0.453-1.607-0.828-2.21-1.523c-1.612-1.438-3.028-3.238-3.575-5.395
	c-0.431-1.669-0.664-3.382-1.023-5.065c-0.271-1.223-0.442-2.463-0.684-3.694c-0.287-1.468-0.469-2.965-0.92-4.396
	c-0.717-2.256-1.368-4.54-2.353-6.695c-0.86-2.026-1.946-3.938-2.973-5.881c-0.203-0.365-0.465-0.691-0.727-1.015
	c-1.937-2.43-3.922-4.824-6.076-7.053c-1.528-1.19-3.259-2.076-4.896-3.101c-1.604-1.007-3.237-1.968-4.912-2.844
	c-2.614-1.442-5.291-2.771-8.025-3.954c-2.354-1.062-4.713-2.113-7.11-3.059c-0.357-0.143-0.734-0.219-1.114-0.259
	c-2.438-0.259-4.843-0.739-7.268-1.087c-4.862-0.656-9.775-0.346-14.66-0.281c-1.972,0.008-3.926,0.281-5.879,0.506
	c-0.578,0.069-1.137,0.243-1.697,0.394c-1.723,0.438-3.434,0.933-5.09,1.588c-1.471,0.567-2.868,1.308-4.301,1.967
	c-1.293,0.541-2.443,1.364-3.635,2.1c-1.462,0.91-2.82,1.972-4.215,2.983c-1.753,1.217-3.461,2.5-5.164,3.79
	c-0.407,0.303-0.79,0.646-1.053,1.092c-1.772,2.821-3.702,5.542-5.384,8.421c-1.753,2.933-3.437,5.906-5.035,8.93
	c-0.302,0.752-0.379,1.575-0.624,2.347c-0.714,2.978-1.562,5.915-2.312,8.884c-0.415,1.505-0.677,3.062-1.292,4.507
	c-0.273,0.667-0.513,1.349-0.792,2.014c-0.344,0.853-1.094,1.412-1.734,2.018c-0.495,0.479-1.188,0.604-1.794,0.874
	c-0.621,0.273-1.263,0.504-1.93,0.622L139.729,139.726L139.729,139.726z"/>
<path fill="#FFFFFF" d="M139.729,220.077c1.01,0.021,1.967,0.37,2.956,0.526c0.57,0.078,0.979,0.527,1.413,0.867
	c0.405,0.328,0.679,0.788,0.896,1.263c0.312,0.691,0.663,1.373,0.903,2.099c0.515,1.592,1.124,3.146,1.668,4.728
	c0.323,0.947,0.76,1.847,1.151,2.766c1.126,2.566,2.342,5.094,3.5,7.646c0.694,1.719,1.814,3.203,2.738,4.796
	c2.663,4.522,5.812,8.716,8.92,12.923c0.63,0.777,1.264,1.567,1.681,2.492h-25.827L139.729,220.077L139.729,220.077z"/>
<path fill="#FFFFFF" d="M257.795,222.01c0.715-0.537,1.556-0.861,2.389-1.153v39.324h-23.395c1.03-2.099,2.116-4.169,3.313-6.175
	c3.257-5.429,6.717-10.73,9.751-16.299c0.392-0.65,0.505-1.418,0.832-2.098c0.391-0.832,0.825-1.646,1.188-2.491
	c0.716-1.566,1.114-3.256,1.46-4.938c0.166-0.757,0.243-1.558,0.665-2.221c0.435-0.714,0.884-1.423,1.402-2.073
	C256.05,223.077,256.974,222.599,257.795,222.01z"/>
<path fill="#E56D96" d="M191.658,140.318c4.886-0.065,9.798-0.375,14.66,0.28c2.426,0.348,4.831,0.828,7.268,1.087
	c0.379,0.04,0.756,0.115,1.114,0.258c2.397,0.945,4.757,1.998,7.11,3.06c2.735,1.186,5.411,2.512,8.025,3.954
	c1.677,0.875,3.31,1.836,4.913,2.842c1.636,1.023,3.365,1.91,4.894,3.102c2.155,2.228,4.142,4.623,6.078,7.052
	c0.262,0.322,0.521,0.648,0.725,1.015c1.026,1.941,2.112,3.854,2.975,5.881c0.981,2.154,1.635,4.439,2.353,6.694
	c0.45,1.432,0.631,2.929,0.919,4.397c0.239,1.229,0.413,2.471,0.684,3.692c0.361,1.686,0.595,3.396,1.024,5.065
	c0.546,2.153,1.962,3.955,3.573,5.395c0.604,0.695,1.439,1.07,2.211,1.524v25.24c-0.832,0.292-1.674,0.616-2.388,1.152
	c-0.821,0.59-1.746,1.066-2.393,1.875c-0.521,0.651-0.97,1.36-1.402,2.072c-0.422,0.665-0.499,1.466-0.665,2.222
	c-0.345,1.685-0.744,3.375-1.461,4.938c-0.362,0.847-0.797,1.659-1.187,2.491c-0.329,0.68-0.441,1.448-0.834,2.098
	c-3.033,5.568-6.493,10.871-9.75,16.301c-1.198,2.004-2.283,4.075-3.313,6.174h-71.235c-0.414-0.927-1.049-1.715-1.679-2.493
	c-3.108-4.206-6.257-8.398-8.921-12.923c-0.923-1.593-2.042-3.075-2.738-4.796c-1.157-2.554-2.375-5.079-3.5-7.646
	c-0.393-0.919-0.828-1.816-1.15-2.767c-0.542-1.577-1.154-3.133-1.667-4.725c-0.243-0.727-0.593-1.405-0.905-2.101
	c-0.216-0.475-0.489-0.935-0.896-1.262c-0.434-0.34-0.842-0.789-1.412-0.866c-0.988-0.158-1.947-0.507-2.954-0.527v-26.729
	c0.666-0.119,1.309-0.35,1.929-0.622c0.605-0.27,1.299-0.396,1.794-0.875c0.642-0.604,1.392-1.164,1.735-2.017
	c0.277-0.666,0.516-1.348,0.792-2.016c0.614-1.442,0.876-3,1.293-4.506c0.75-2.968,1.597-5.906,2.312-8.883
	c0.245-0.771,0.323-1.596,0.625-2.349c1.598-3.021,3.282-5.997,5.033-8.929c1.683-2.88,3.611-5.6,5.385-8.422
	c0.263-0.442,0.647-0.788,1.053-1.089c1.704-1.293,3.411-2.575,5.164-3.793c1.395-1.013,2.753-2.072,4.214-2.982
	c1.19-0.735,2.345-1.559,3.637-2.099c1.431-0.66,2.83-1.398,4.302-1.968c1.655-0.654,3.366-1.148,5.088-1.588
	c0.562-0.148,1.119-0.323,1.698-0.394C187.735,140.598,189.688,140.324,191.658,140.318 M172.88,191.379
	c-1.349,0.485-2.519,1.345-3.688,2.165c-0.605,0.399-0.803,1.151-1.06,1.794c-0.325,1.049-0.734,2.182-0.391,3.28
	c0.199,0.655,0.359,1.331,0.641,1.959c0.333,0.495,0.771,0.927,1.251,1.271c1.146,0.67,2.407,1.142,3.709,1.368
	c0.672,0.036,1.33-0.156,1.989-0.267c0.553-0.085,1.065-0.337,1.508-0.681c0.493-0.379,1.018-0.73,1.438-1.199
	c0.562-0.759,0.687-1.726,0.98-2.603c0.137-0.442,0.353-0.894,0.271-1.372c-0.11-0.81-0.278-1.634-0.699-2.339
	c-0.474-0.803-0.943-1.638-1.658-2.243c-0.581-0.451-1.243-0.827-1.971-0.949C174.439,191.428,173.655,191.203,172.88,191.379
	 M224.491,192.836c-0.624,0.144-1.318,0.019-1.883,0.372c-0.905,0.523-1.812,1.097-2.521,1.885c-0.28,0.703-0.609,1.409-0.748,2.159
	c0.01,1.312-0.202,2.789,0.604,3.921c0.378,0.517,0.617,1.164,1.157,1.539c0.831,0.632,1.711,1.207,2.659,1.637
	c0.603,0.302,1.281,0.083,1.896-0.054c0.517-0.146,1.081-0.148,1.562-0.415c0.846-0.561,1.86-0.951,2.396-1.889
	c0.619-0.756,0.718-1.755,0.968-2.672c0.122-0.598-0.032-1.2-0.121-1.79c-0.096-0.593-0.14-1.231-0.508-1.729
	c-0.591-0.819-1.137-1.748-2.068-2.206C226.921,192.863,225.66,192.627,224.491,192.836 M197.845,232.365
	c-3.417,0.509-6.796,1.229-10.208,1.766c1.065,0.883,2.136,1.759,3.213,2.629c0.767,0.652,1.681,1.081,2.531,1.6
	c0.777,0.373,1.506,0.867,2.347,1.089c1.021,0.354,2.09,0.562,3.161,0.656c1.837-0.02,3.736-0.238,5.407-1.069
	c0.607-0.298,1.087-0.809,1.702-1.095c0.569-0.24,0.926-0.781,1.419-1.135c1.135-1.041,2.281-2.068,3.391-3.137
	c0.327-0.273,0.682-0.516,0.967-0.837c-2.663-0.175-5.312-0.538-7.976-0.7C201.812,231.998,199.82,232.13,197.845,232.365z"/>
<path fill="#4865A8" d="M172.88,191.379c0.773-0.176,1.559,0.05,2.321,0.188c0.728,0.124,1.391,0.5,1.971,0.949
	c0.715,0.605,1.187,1.439,1.658,2.243c0.421,0.705,0.589,1.529,0.698,2.339c0.082,0.479-0.134,0.93-0.271,1.373
	c-0.296,0.875-0.42,1.843-0.98,2.602c-0.42,0.468-0.943,0.82-1.438,1.2c-0.442,0.344-0.955,0.596-1.508,0.679
	c-0.658,0.112-1.317,0.303-1.989,0.268c-1.302-0.229-2.563-0.698-3.709-1.369c-0.479-0.344-0.918-0.774-1.251-1.271
	c-0.28-0.627-0.44-1.303-0.641-1.96c-0.346-1.099,0.064-2.23,0.391-3.279c0.258-0.643,0.453-1.396,1.06-1.793
	C170.363,192.723,171.532,191.865,172.88,191.379z"/>
<path fill="#4865A8" d="M224.491,192.836c1.17-0.209,2.431,0.025,3.396,0.757c0.933,0.459,1.479,1.387,2.067,2.206
	c0.368,0.499,0.413,1.138,0.509,1.729c0.088,0.591,0.242,1.193,0.121,1.791c-0.251,0.917-0.349,1.915-0.967,2.671
	c-0.536,0.938-1.552,1.328-2.396,1.889c-0.479,0.267-1.045,0.27-1.562,0.416c-0.615,0.136-1.294,0.354-1.896,0.053
	c-0.949-0.43-1.829-1.005-2.659-1.636c-0.541-0.375-0.777-1.022-1.157-1.539c-0.808-1.133-0.596-2.608-0.604-3.921
	c0.138-0.75,0.468-1.457,0.747-2.16c0.711-0.788,1.616-1.359,2.521-1.885C223.172,192.854,223.866,192.981,224.491,192.836z"/>
<path fill="#CA061D" d="M197.845,232.365c1.975-0.234,3.969-0.367,5.954-0.232c2.664,0.162,5.312,0.524,7.976,0.699
	c-0.285,0.322-0.64,0.562-0.967,0.838c-1.109,1.068-2.257,2.095-3.391,3.137c-0.493,0.354-0.85,0.894-1.419,1.135
	c-0.615,0.286-1.095,0.798-1.702,1.095c-1.673,0.831-3.57,1.05-5.407,1.068c-1.071-0.095-2.141-0.303-3.161-0.655
	c-0.84-0.222-1.568-0.718-2.347-1.089c-0.852-0.519-1.765-0.946-2.531-1.601c-1.078-0.868-2.146-1.745-3.213-2.627
	C191.048,233.593,194.428,232.873,197.845,232.365z"/>
<path d="M269.82,139.726h120.455v120.455H269.82V139.726 M285.101,147.95c-1.555,0.232-2.731,1.439-3.521,2.724
	c-0.9,1.222-1.479,2.782-1.185,4.311c0.263,1.902,1.609,3.399,2.954,4.665c0.677,0.532,1.509,0.818,2.329,1.047
	c0.549,0.146,1.142,0.299,1.696,0.107c0.745-0.249,1.482-0.518,2.235-0.747c0.254-0.092,0.538-0.146,0.73-0.349
	c0.698-0.711,1.404-1.419,1.99-2.229c0.377-0.524,0.869-1.032,0.938-1.708c0.075-0.954,0.083-1.943-0.244-2.856
	c-0.242-0.693-0.467-1.396-0.765-2.068c-0.368-0.84-1.118-1.407-1.794-1.986c-0.419-0.396-1.007-0.466-1.532-0.624
	C287.696,147.87,286.382,147.846,285.101,147.95 M369.801,148.228c-1.245,0.229-2.28,1.006-3.263,1.754
	c-0.477,0.382-0.989,0.77-1.231,1.348c-0.656,1.477-0.676,3.138-0.468,4.713c0.044,0.561,0.513,0.93,0.84,1.34
	c0.527,0.563,0.96,1.228,1.599,1.676c1.156,0.787,2.422,1.509,3.839,1.675c0.925,0.078,1.784-0.324,2.592-0.722
	c1.067-0.441,1.999-1.15,2.862-1.911c0.388-0.333,0.519-0.847,0.732-1.292c0.214-0.507,0.539-1.005,0.483-1.58
	c-0.089-1.15,0.06-2.354-0.369-3.452c-0.209-0.512-0.396-1.038-0.707-1.496c-0.52-0.707-1.39-0.965-2.113-1.398
	c-0.478-0.23-0.911-0.598-1.459-0.646C372.033,148.116,370.903,148.027,369.801,148.228 M325.968,169.114
	c-3.555,0.553-7.125,0.979-10.688,1.464c0.638,6.489,1.338,12.973,2.026,19.458c0.396,3.625,0.874,7.238,1.195,10.869
	c0.621,3.974,1.002,7.979,1.563,11.96c0.546,3.715,0.846,7.458,1.338,11.177c-1.372,0.19-2.759,0.233-4.134,0.398
	c-1.729,0.201-3.477,0.289-5.188,0.614c1.655,1.584,3.341,3.138,5.062,4.652c2.354,2.068,4.882,3.925,7.413,5.77
	c1.914,1.413,3.866,2.776,5.898,4.016c0.39-0.222,0.762-0.48,1.04-0.837c1.08-1.358,2.4-2.489,3.589-3.749
	c3.727-3.859,7.286-7.875,10.791-11.936c-2.365-0.15-4.745-0.281-7.111-0.086c-0.616,0.067-1.229,0.136-1.849,0.161
	c-0.349-1.418-0.568-2.864-0.757-4.309c-0.386-3.261-0.715-6.525-0.947-9.799c-0.165-2.59-0.403-5.175-0.643-7.759
	c-1.361-10.88-2.076-21.838-3.664-32.691C329.249,168.607,327.615,168.907,325.968,169.114 M313.769,243.407
	c0.092,0.5,0.02,1.104,0.407,1.494c1.328,1.527,2.631,3.089,4.109,4.477c1.086,0.953,2.179,1.899,3.229,2.887
	c1.009,0.929,2.216,1.638,3.53,2.033c1.238,0.413,2.477,0.868,3.774,1.05c2.189,0.038,4.415,0.079,6.557-0.46
	c1.076-0.344,2.195-0.585,3.212-1.093c1.123-0.672,2.188-1.438,3.235-2.224c1.396-1.037,2.584-2.32,3.726-3.626
	c1.098-1.257,2.147-2.557,3.162-3.881c-4.545-0.078-9.088-0.187-13.634-0.271c-1.63,0.025-3.261-0.104-4.892-0.093
	C324.714,243.622,319.241,243.469,313.769,243.407z"/>
<path fill="#009044" d="M285.101,147.95c1.281-0.104,2.595-0.081,3.836,0.285c0.526,0.158,1.113,0.229,1.533,0.624
	c0.676,0.579,1.428,1.146,1.794,1.986c0.298,0.674,0.521,1.375,0.766,2.067c0.327,0.914,0.318,1.904,0.244,2.859
	c-0.069,0.674-0.562,1.183-0.938,1.707c-0.586,0.809-1.291,1.518-1.99,2.229c-0.192,0.202-0.479,0.257-0.73,0.349
	c-0.753,0.229-1.491,0.498-2.235,0.747c-0.557,0.19-1.147,0.038-1.697-0.107c-0.818-0.229-1.651-0.515-2.327-1.048
	c-1.346-1.266-2.692-2.763-2.954-4.665c-0.295-1.526,0.282-3.089,1.183-4.311C282.369,149.39,283.546,148.183,285.101,147.95z"/>
<path fill="#009044" d="M369.801,148.228c1.103-0.201,2.231-0.111,3.338,0.009c0.548,0.047,0.981,0.413,1.459,0.646
	c0.726,0.433,1.596,0.69,2.113,1.398c0.312,0.458,0.497,0.985,0.707,1.496c0.429,1.098,0.279,2.302,0.369,3.452
	c0.055,0.575-0.271,1.073-0.482,1.58c-0.216,0.445-0.347,0.958-0.733,1.292c-0.864,0.76-1.794,1.47-2.862,1.911
	c-0.808,0.396-1.667,0.8-2.593,0.721c-1.416-0.165-2.682-0.887-3.839-1.674c-0.638-0.448-1.069-1.111-1.598-1.676
	c-0.327-0.409-0.797-0.779-0.841-1.341c-0.207-1.575-0.189-3.237,0.469-4.712c0.242-0.579,0.758-0.967,1.231-1.348
	C367.521,149.234,368.556,148.456,369.801,148.228z"/>
<path fill="#37549C" d="M325.968,169.114c1.646-0.207,3.28-0.507,4.938-0.624c1.587,10.854,2.303,21.812,3.664,32.691
	c0.238,2.584,0.476,5.168,0.642,7.758c0.232,3.273,0.562,6.54,0.947,9.8c0.188,1.443,0.407,2.891,0.757,4.309
	c0.618-0.024,1.232-0.094,1.848-0.161c2.367-0.195,4.748-0.064,7.112,0.086c-3.505,4.06-7.064,8.075-10.79,11.936
	c-1.188,1.259-2.51,2.391-3.59,3.749c-0.277,0.356-0.65,0.617-1.04,0.837c-2.033-1.238-3.984-2.603-5.898-4.015
	c-2.53-1.846-5.058-3.701-7.412-5.771c-1.722-1.514-3.407-3.067-5.062-4.651c1.712-0.325,3.458-0.411,5.188-0.614
	c1.375-0.164,2.762-0.208,4.134-0.398c-0.492-3.719-0.792-7.462-1.338-11.178c-0.562-3.981-0.941-7.985-1.563-11.96
	c-0.321-3.63-0.8-7.243-1.196-10.868c-0.688-6.485-1.39-12.969-2.024-19.458C318.844,170.093,322.414,169.667,325.968,169.114z"/>
<path fill="#CA061D" d="M313.769,243.407c5.473,0.062,10.945,0.216,16.417,0.292c1.632-0.011,3.262,0.119,4.893,0.092
	c4.546,0.088,9.089,0.195,13.634,0.271c-1.014,1.326-2.064,2.625-3.163,3.882c-1.141,1.305-2.328,2.589-3.725,3.626
	c-1.047,0.784-2.112,1.552-3.235,2.224c-1.017,0.509-2.137,0.749-3.212,1.093c-2.142,0.54-4.367,0.498-6.558,0.46
	c-1.297-0.183-2.535-0.636-3.774-1.05c-1.312-0.396-2.521-1.104-3.529-2.033c-1.052-0.986-2.143-1.934-3.229-2.886
	c-1.479-1.389-2.782-2.948-4.109-4.479C313.787,244.51,313.861,243.907,313.769,243.407z"/>
<path fill="#FFFFFF" d="M399.91,139.726h120.454v4.33c-0.158-1.335,0.014-2.681-0.142-4.016c-3.397,0.049-6.796,0.012-10.192,0.006
	c-2.037,0.04-4.073,0.008-6.11-0.014c-1.801,0.014-3.604,0.066-5.405-0.011c-1.508-0.122-3.021-0.02-4.529-0.005
	c-1.719-0.18-3.441-0.065-5.161-0.092c-1.271-0.037-2.531,0.208-3.804,0.127c-5.529,0.042-11.061,0-16.589,0.016
	c-0.732-0.013-1.467-0.021-2.194,0.06c-0.987,0.119-1.983,0.042-2.976,0.064c-1.175,0.016-2.351,0.021-3.523-0.027
	c-3.672,0.025-7.353,0.176-11.021-0.086c-3.396-0.027-6.791,0.014-10.187,0.021c-5.896-0.038-11.787-0.007-17.684-0.011
	c-0.998,0.057-1.997,0.023-2.994,0.029c-1.897,0.191-3.804,0.011-5.702,0.039c-1.18-0.153-2.358,0.052-3.537-0.063
	c-2.838-0.032-5.681,0.001-8.518-0.053c-0.099,1.297-0.093,2.598-0.048,3.898c-0.039,3.803-0.049,7.608,0.016,11.411
	c-0.127,2.36,0.082,4.721-0.019,7.08c0.003,1.722-0.072,3.445,0.023,5.169c0.087,1.52-0.25,3.087,0.245,4.562
	c0.286,0.861,0.28,1.779,0.527,2.646c0.384,1.441,0.665,2.907,1.079,4.341c0.325,1.116,0.523,2.268,0.864,3.381
	c0.398,1.367,0.671,2.765,1.034,4.139c0.32,1.043,0.502,2.121,0.845,3.155c1.166,4.584,2.527,9.112,3.781,13.669
	c0.229,0.886,0.619,1.726,0.799,2.626c0.208,1.013,0.687,1.948,0.876,2.967c0.285,1.513,0.846,2.949,1.263,4.424
	c0.735,2.427,1.533,4.832,2.356,7.232c0.921,2.856,1.948,5.68,2.973,8.504c0.366,1.225,0.877,2.396,1.288,3.606
	c0.354,0.938,0.634,1.916,1.15,2.782c0.594,1,1.177,2.007,1.761,3.013c1.7,3.143,3.521,6.22,5.437,9.234
	c0.744,1.238,1.456,2.5,2.312,3.667c0.678,1.078,1.385,2.143,2.104,3.194c0.752,1.007,1.458,2.063,2.412,2.898
	c0.819,0.867,1.674,1.703,2.531,2.534h-35.797L399.91,139.726L399.91,139.726z"/>
<path fill="#FFFFFF" d="M519.845,173.513c0.128-0.812,0.072-1.691,0.521-2.421v89.09h-27.813c0.521-0.414,0.908-0.963,1.308-1.485
	c1.938-2.603,4.031-5.095,5.755-7.849c0.625-1.242,1.003-2.59,1.528-3.875c0.451-1.109,0.779-2.267,1.214-3.382
	c0.677-1.789,1.212-3.624,1.834-5.43c0.357-1.298,0.894-2.54,1.23-3.844c0.237-0.869,0.485-1.734,0.795-2.58
	c1.088-3.835,2.451-7.589,3.433-11.454c0.45-1.909,1.066-3.774,1.519-5.685c0.43-1.708,0.972-3.387,1.346-5.108
	c0.239-0.988,0.547-1.959,0.768-2.954c0.301-1.382,0.726-2.729,1.058-4.104c0.62-2.542,1.331-5.06,1.925-7.607
	c0.363-1.481,0.553-2.998,0.851-4.492c0.148-0.726,0.219-1.462,0.348-2.188c0.356-1.625,0.558-3.275,0.831-4.915
	c0.311-2.138,0.779-4.249,1.017-6.396C519.423,175.718,519.723,174.631,519.845,173.513z"/>
<path fill="#FDF29C" d="M485.021,140.054c1.271,0.081,2.532-0.164,3.804-0.128c1.721,0.026,3.443-0.087,5.161,0.093
	c1.508-0.015,3.021-0.116,4.529,0.005c1.802,0.076,3.604,0.022,5.405,0.011c2.037,0.021,4.073,0.053,6.11,0.013
	c3.396,0.007,6.795,0.043,10.192-0.006c0.154,1.336-0.018,2.682,0.142,4.017v27.036c-0.447,0.729-0.393,1.607-0.521,2.421
	c-0.123,1.117-0.422,2.204-0.539,3.32c-0.236,2.147-0.706,4.26-1.017,6.396c-0.273,1.641-0.477,3.29-0.832,4.915
	c-0.128,0.728-0.197,1.465-0.348,2.188c-0.299,1.494-0.485,3.011-0.85,4.492c-0.593,2.548-1.304,5.065-1.925,7.607
	c-0.332,1.373-0.757,2.723-1.06,4.104c-0.22,0.994-0.525,1.965-0.766,2.953c-0.374,1.722-0.916,3.4-1.346,5.108
	c-0.452,1.908-1.067,3.773-1.52,5.685c-0.98,3.865-2.344,7.619-3.432,11.454c-0.308,0.845-0.557,1.712-0.795,2.58
	c-0.338,1.304-0.873,2.546-1.231,3.844c-0.62,1.806-1.156,3.641-1.834,5.43c-0.434,1.115-0.762,2.271-1.213,3.382
	c-0.526,1.285-0.901,2.633-1.528,3.875c-1.725,2.754-3.816,5.247-5.756,7.85c-0.398,0.521-0.784,1.069-1.306,1.485h-56.845
	c-0.857-0.833-1.711-1.669-2.531-2.535c-0.954-0.835-1.661-1.893-2.412-2.899c-0.721-1.053-1.427-2.116-2.104-3.194
	c-0.855-1.167-1.567-2.428-2.312-3.666c-1.916-3.017-3.736-6.094-5.437-9.234c-0.584-1.007-1.167-2.014-1.76-3.013
	c-0.518-0.866-0.799-1.845-1.151-2.782c-0.41-1.208-0.922-2.383-1.288-3.607c-1.023-2.823-2.052-5.646-2.973-8.503
	c-0.822-2.4-1.62-4.806-2.355-7.232c-0.417-1.476-0.979-2.911-1.263-4.424c-0.191-1.02-0.669-1.954-0.877-2.968
	c-0.181-0.899-0.569-1.738-0.798-2.624c-1.257-4.559-2.615-9.087-3.781-13.67c-0.344-1.034-0.524-2.113-0.847-3.155
	c-0.361-1.375-0.635-2.771-1.032-4.139c-0.343-1.114-0.539-2.265-0.865-3.382c-0.413-1.435-0.693-2.898-1.078-4.338
	c-0.247-0.869-0.241-1.789-0.53-2.649c-0.493-1.476-0.157-3.044-0.244-4.562c-0.096-1.725-0.021-3.447-0.022-5.17
	c0.101-2.357-0.108-4.719,0.019-7.079c-0.062-3.805-0.054-7.609-0.016-11.412c-0.046-1.302-0.052-2.604,0.049-3.897
	c2.838,0.054,5.679,0.021,8.516,0.052c1.18,0.116,2.359-0.089,3.537,0.063c1.9-0.028,3.806,0.152,5.704-0.039
	c0.997-0.005,1.996,0.027,2.994-0.029c5.896,0.004,11.786-0.026,17.682,0.012c3.396-0.008,6.792-0.048,10.188-0.021
	c3.667,0.261,7.348,0.11,11.02,0.085c1.176,0.05,2.352,0.043,3.525,0.027c0.99-0.022,1.987,0.056,2.974-0.063
	c0.729-0.083,1.464-0.071,2.195-0.059C473.96,140.054,479.491,140.095,485.021,140.054 M460.7,142.577
	c-1.12,0.712-1.618,2.012-2.106,3.184c-0.755,2.271-1.117,4.649-1.614,6.986c-0.23,1.037-0.125,2.105-0.215,3.158
	c-0.131,1.474-0.061,2.957-0.26,4.426c-0.356,4.775-0.789,9.551-1.184,14.326c0.002,1.055-0.17,2.095-0.244,3.144
	c-0.061,1.629-0.258,3.248-0.38,4.872c-0.173,2.499-0.388,4.996-0.584,7.493c-0.078,3.277-0.404,6.542-0.759,9.801
	c-0.494,3.674-1.082,7.333-1.642,10.997c-0.279,1.331-0.37,2.698-0.728,4.013c-0.162,1.626-0.141,3.273-0.396,4.89
	c0.136,0.115,0.258,0.276,0.445,0.307c3.02,0.404,6.053,0.745,9.095,0.928c2.766,0.062,5.534,0.078,8.296-0.119
	c1.422-0.078,2.862-0.029,4.267-0.295c0.032-1.205,0.184-2.403,0.238-3.606c0.191-1.369-0.209-2.716-0.363-4.066
	c-0.24-1.311-0.443-2.627-0.706-3.931c-0.853-3.746-1.688-7.496-2.372-11.278c-1.306-7.856-2.677-15.728-3.164-23.69
	c-0.249-2.734-0.31-5.485-0.581-8.222c-0.117-1.151-0.035-2.313-0.168-3.465c-0.082-1.673-0.447-3.312-0.69-4.964
	c-0.345-2.6-0.68-5.202-0.947-7.812c-0.264-1.986-0.396-3.994-0.721-5.973c-0.337-0.598-0.953-0.974-1.42-1.46
	C461.405,142.236,461.003,142.307,460.7,142.577 M490.913,234.426c-2.452,0.738-4.975,1.273-7.528,1.48
	c-1.229,0.025-2.455,0.167-3.685,0.173c-2.618,0.223-5.251,0.031-7.871,0.161c-2.052,0.104-4.084,0.584-5.975,1.385
	c-0.823,0.345-1.646,0.69-2.472,1.031c-0.304,0.114-0.618,0.264-0.951,0.2c-1.443-0.171-2.874-0.508-4.335-0.511
	c-1.545-0.023-3.091,0-4.637-0.035c-2.126-0.137-4.266,0.028-6.385-0.22c-2.52-0.227-4.996-0.771-7.516-0.994
	c1.233,2.944,2.87,5.785,5.229,7.97c1.035,0.972,2.089,1.933,3.299,2.683c1.457,1,3.156,1.562,4.85,2.011
	c1.776,0.467,3.612,0.627,5.441,0.707c2.66,0.191,5.332,0.143,7.999,0.116c1.601,0.002,3.195-0.164,4.777-0.396
	c0.641-0.117,1.32-0.139,1.897-0.472c1.55-0.764,3.006-1.691,4.427-2.674c2.13-1.315,4.19-2.74,6.191-4.246
	c1.517-1.18,3.041-2.39,4.241-3.905c1.312-1.54,2.506-3.188,3.929-4.629C491.53,234.283,491.216,234.336,490.913,234.426z"/>
<path fill="#E36D96" d="M460.7,142.577c0.304-0.27,0.704-0.341,1.1-0.357c0.468,0.486,1.083,0.863,1.42,1.46
	c0.324,1.979,0.457,3.984,0.723,5.973c0.267,2.609,0.603,5.212,0.948,7.812c0.24,1.652,0.607,3.291,0.689,4.964
	c0.132,1.15,0.051,2.312,0.167,3.465c0.271,2.735,0.333,5.486,0.582,8.222c0.486,7.963,1.857,15.834,3.163,23.689
	c0.687,3.782,1.521,7.532,2.372,11.278c0.264,1.305,0.466,2.621,0.707,3.931c0.153,1.353,0.555,2.698,0.364,4.066
	c-0.058,1.204-0.206,2.402-0.238,3.606c-1.404,0.266-2.848,0.218-4.269,0.297c-2.762,0.195-5.53,0.18-8.295,0.117
	c-3.043-0.182-6.075-0.521-9.095-0.928c-0.189-0.029-0.312-0.19-0.444-0.307c0.255-1.615,0.231-3.263,0.396-4.889
	c0.354-1.314,0.445-2.681,0.726-4.014c0.562-3.664,1.148-7.323,1.645-10.996c0.353-3.259,0.678-6.523,0.756-9.802
	c0.197-2.496,0.412-4.993,0.584-7.493c0.123-1.624,0.32-3.242,0.38-4.872c0.076-1.048,0.246-2.089,0.245-3.143
	c0.394-4.775,0.825-9.55,1.184-14.326c0.197-1.469,0.128-2.952,0.26-4.426c0.089-1.053-0.018-2.121,0.214-3.158
	c0.498-2.337,0.86-4.715,1.614-6.986C459.081,144.589,459.578,143.289,460.7,142.577z"/>
<path fill="#CA061D" d="M490.913,234.426c0.302-0.09,0.615-0.143,0.933-0.159c-1.423,1.439-2.616,3.088-3.93,4.628
	c-1.199,1.517-2.724,2.727-4.24,3.907c-2.002,1.504-4.062,2.93-6.192,4.245c-1.42,0.98-2.874,1.908-4.426,2.673
	c-0.578,0.332-1.258,0.354-1.897,0.473c-1.582,0.229-3.177,0.396-4.777,0.396c-2.668,0.024-5.34,0.075-8-0.117
	c-1.828-0.079-3.666-0.24-5.439-0.707c-1.694-0.448-3.394-1.01-4.851-2.009c-1.211-0.751-2.264-1.714-3.299-2.684
	c-2.359-2.185-3.998-5.025-5.229-7.97c2.52,0.223,4.997,0.768,7.514,0.994c2.119,0.248,4.262,0.082,6.386,0.22
	c1.547,0.034,3.093,0.011,4.637,0.034c1.463,0.004,2.892,0.339,4.334,0.512c0.336,0.062,0.649-0.087,0.953-0.201
	c0.825-0.34,1.646-0.687,2.472-1.03c1.891-0.802,3.922-1.282,5.974-1.386c2.621-0.13,5.254,0.061,7.872-0.162
	c1.229-0.005,2.455-0.146,3.686-0.173C485.942,235.699,488.462,235.164,490.913,234.426z"/>
<path fill="#FFFFFF" d="M9.636,269.818h8.145c0.045,1.135,0.03,2.271,0.146,3.399c0.648,6.613,0.84,13.286,2.02,19.838
	c1.864-0.323,3.706-0.789,5.59-1.003c3.994-0.112,7.977-0.489,11.971-0.606c4.064-0.178,8.119,0.352,12.105,1.095
	c2.698,0.444,5.348,1.118,7.977,1.863c-0.001,0.052-0.005,0.155-0.007,0.209c-0.537,0.366-1.108,0.683-1.7,0.956
	c-2.556,1.162-5.143,2.264-7.764,3.267c-1.3,0.285-2.618,0.514-3.942,0.649c-2.809,0.194-5.612-0.179-8.39-0.565
	c-2.194-0.447-4.38-0.937-6.577-1.363c-2.923-0.416-5.841-0.878-8.756-1.35c0.753,4.593,1.76,9.146,2.943,13.646
	c1.001,3.816,1.976,7.642,3.052,11.437c0.36,1.344,0.884,2.632,1.361,3.935c1.697,4.595,3.487,9.153,5.303,13.703
	c0.396,1.128,1.01,2.158,1.541,3.228c2.161,4.271,4.565,8.414,6.704,12.697c0.595,1.103,1.347,2.107,2.049,3.144
	c1.54,2.24,3.19,4.403,4.899,6.518c1.447,1.886,3.047,3.649,4.638,5.415c0.716,0.737,1.34,1.567,2.131,2.231
	c3.625,3.763,7.191,7.583,10.922,11.24c1.764,1.719,3.67,3.293,5.371,5.075c3.34-2.259,6.494-4.775,9.589-7.357
	c2.159-1.819,4.302-3.663,6.339-5.619c1.321-1.144,2.311-2.599,3.414-3.938c2.654-3.307,5.16-6.726,7.718-10.103
	c0.665-0.896,1.352-1.778,1.897-2.753c2.844-4.584,5.498-9.281,8.139-13.982c0.207-0.369,0.424-0.735,0.579-1.13
	c1.002-2.648,1.886-5.338,2.803-8.018c0.976-2.889,1.951-5.774,2.914-8.667c2.05-5.939,3.673-12.015,5.378-18.057
	c0.767-2.646,1.291-5.35,1.932-8.025c0.275-1.467,0.614-2.922,0.848-4.397c0.108-2.27,0.43-4.522,0.812-6.76
	c0.188-2.398,0.231-4.805,0.411-7.204c0.07-1.355,0.117-2.715,0.279-4.062c0.055-0.545-0.005-1.102,0.139-1.636
	c0.092-0.945-0.062-1.911,0.15-2.848c0.024-0.621,0.034-1.245,0.029-1.868l0.121,0.03c-0.03-0.755,0.045-1.51-0.02-2.264h5.253
	v120.455H9.636V269.818z"/>
<path fill="#FFFFFF" d="M65.135,269.818h8.796c-0.445,6.755-0.874,13.513-1.412,20.261c-0.077,2.63-0.231,5.256-0.269,7.884
	c-0.052,1.72-0.011,3.441-0.083,5.16c-0.053,2.776,0.205,5.543,0.4,8.309c0.253,3.124,0.478,6.25,0.851,9.363
	c0.156,1.51,0.513,2.989,0.75,4.485c0.536,2.725,1.034,5.455,1.632,8.166c0.324,1.192,0.65,2.389,0.891,3.604
	c0.367,2.01,0.82,4.012,1.05,6.045c-0.203,0.067-0.315,0.232-0.403,0.415c-2.612,0.148-5.232,0.562-7.853,0.263
	c-1.455-0.141-2.9-0.383-4.361-0.473c0.256-1.671,0.671-3.312,1.006-4.971c0.22-1.062,0.569-2.101,0.604-3.19
	c0.287-3.814,1.34-7.522,1.68-11.329c0.032-3.229,0.21-6.454,0.348-9.679c0.135-1.174-0.042-2.348-0.025-3.521
	c-0.075-2.633-0.17-5.261-0.273-7.889c-0.011-1.772-0.204-3.538-0.328-5.304c-0.344-3.672-0.676-7.344-1.075-11.008
	c-0.276-2.764-0.621-5.519-0.877-8.281C65.841,275.359,65.428,272.596,65.135,269.818z"/>
<path fill="#FFFFFF" d="M102.364,295.303c1.127,0.006,2.257-0.214,3.381-0.047c1.046,0.02,2.097,0.062,3.127,0.269
	c0.502,0.056,1.004,0.136,1.494,0.269c0.359,0.085,0.719,0.18,1.079,0.273c0.184,0.044,0.368,0.087,0.555,0.135
	c0.314,0.097,0.635,0.18,0.956,0.264c0.135,0.048,0.271,0.094,0.411,0.139c0.131,0.049,0.262,0.097,0.395,0.147
	c0.135,0.046,0.272,0.09,0.409,0.139c0.596,0.206,1.178,0.449,1.766,0.675c0.225,0.094,0.447,0.188,0.674,0.282
	c0.282,0.106,0.562,0.224,0.847,0.337c0.584,0.234,1.164,0.479,1.738,0.744c0.228,0.086,0.452,0.174,0.681,0.263
	c0.285,0.138,0.582,0.253,0.883,0.359l0.014,0.094c0.169,0.03,0.343,0.062,0.514,0.094c-0.114,0.022-0.339,0.065-0.452,0.091
	c-0.13,0.049-0.264,0.09-0.396,0.123c-3.904,0.761-7.869,1.168-11.829,1.488c-3.344,0.258-6.71,0.382-10.05,0.061
	c-2.116-0.182-4.244-0.369-6.319-0.844c-1.178-0.278-2.331-0.657-3.495-0.992c-0.558-0.156-1.086-0.411-1.664-0.494
	c0.248-0.078,0.493-0.168,0.74-0.249c1.63-0.463,3.259-0.93,4.896-1.365c0.678-0.185,1.355-0.368,2.04-0.531
	c0.183-0.048,0.365-0.094,0.55-0.145c0.181-0.044,0.359-0.087,0.543-0.131c0.358-0.104,0.724-0.19,1.086-0.277
	c0.815-0.237,1.652-0.387,2.471-0.616C100.378,295.624,101.347,295.282,102.364,295.303z"/>
<path fill="#CB051D" d="M17.781,269.818h47.354c0.292,2.778,0.706,5.541,1.043,8.312c0.258,2.764,0.601,5.519,0.878,8.28
	c0.398,3.665,0.731,7.337,1.076,11.009c0.125,1.766,0.317,3.531,0.328,5.304c0.104,2.628,0.199,5.258,0.273,7.888
	c-0.017,1.176,0.16,2.349,0.026,3.521c-0.138,3.226-0.314,6.449-0.348,9.68c-0.339,3.807-1.393,7.514-1.68,11.327
	c-0.035,1.093-0.385,2.13-0.604,3.191c-0.335,1.656-0.749,3.3-1.006,4.971c1.462,0.089,2.907,0.332,4.362,0.474
	c2.62,0.302,5.239-0.115,7.853-0.264c0.087-0.184,0.199-0.348,0.403-0.414c-0.229-2.034-0.683-4.035-1.05-6.046
	c-0.24-1.216-0.566-2.411-0.891-3.604c-0.598-2.71-1.096-5.441-1.632-8.165c-0.237-1.496-0.594-2.978-0.75-4.486
	c-0.374-3.111-0.598-6.239-0.851-9.362c-0.196-2.766-0.454-5.532-0.401-8.309c0.073-1.718,0.032-3.44,0.084-5.16
	c0.037-2.629,0.192-5.255,0.269-7.884c0.537-6.748,0.966-13.507,1.412-20.261h50.907c0.062,0.754-0.013,1.508,0.02,2.264l-0.12-0.03
	c0.004,0.622-0.005,1.246-0.03,1.868c-0.213,0.937-0.059,1.9-0.15,2.847c-0.144,0.535-0.084,1.093-0.139,1.636
	c-0.162,1.349-0.208,2.708-0.278,4.062c-0.181,2.397-0.224,4.806-0.41,7.203c-0.384,2.237-0.704,4.491-0.812,6.761
	c-0.231,1.476-0.571,2.931-0.848,4.396c-0.641,2.678-1.165,5.382-1.931,8.026c-1.705,6.044-3.328,12.115-5.379,18.056
	c-0.963,2.894-1.938,5.779-2.914,8.669c-0.917,2.678-1.8,5.366-2.803,8.017c-0.155,0.395-0.371,0.763-0.579,1.13
	c-2.641,4.701-5.295,9.399-8.139,13.982c-0.546,0.974-1.233,1.856-1.896,2.753c-2.56,3.377-5.064,6.796-7.72,10.102
	c-1.104,1.341-2.092,2.795-3.413,3.938c-2.039,1.957-4.181,3.8-6.339,5.62c-3.095,2.581-6.249,5.1-9.59,7.356
	c-1.7-1.783-3.605-3.355-5.37-5.075c-3.731-3.658-7.298-7.479-10.922-11.239c-0.791-0.666-1.416-1.495-2.131-2.232
	c-1.591-1.767-3.189-3.53-4.638-5.416c-1.708-2.112-3.359-4.275-4.899-6.517c-0.701-1.035-1.453-2.041-2.048-3.144
	c-2.138-4.283-4.543-8.426-6.704-12.698c-0.531-1.067-1.145-2.099-1.542-3.227c-1.812-4.55-3.604-9.108-5.303-13.703
	c-0.478-1.303-1.001-2.591-1.361-3.935c-1.077-3.796-2.052-7.619-3.053-11.437c-1.185-4.502-2.189-9.052-2.943-13.646
	c2.916,0.471,5.833,0.933,8.756,1.349c2.197,0.429,4.382,0.916,6.576,1.363c2.778,0.389,5.582,0.761,8.392,0.565
	c1.324-0.136,2.642-0.363,3.941-0.648c2.621-1.003,5.208-2.104,7.764-3.268c0.592-0.272,1.163-0.589,1.7-0.955
	c0.001-0.055,0.005-0.158,0.007-0.209c-2.628-0.746-5.279-1.42-7.977-1.863c-3.987-0.743-8.042-1.272-12.106-1.095
	c-3.995,0.115-7.978,0.495-11.971,0.607c-1.883,0.214-3.725,0.678-5.59,1.001c-1.179-6.551-1.37-13.224-2.019-19.836
	C17.811,272.088,17.825,270.952,17.781,269.818 M102.364,295.303c-1.017-0.021-1.984,0.32-2.96,0.553
	c-0.817,0.229-1.655,0.377-2.471,0.614c-0.362,0.088-0.728,0.177-1.087,0.277c-0.184,0.046-0.362,0.089-0.543,0.132
	c-0.184,0.051-0.365,0.097-0.548,0.146c-0.686,0.163-1.363,0.347-2.041,0.53c-1.639,0.437-3.267,0.902-4.896,1.364
	c-0.247,0.081-0.492,0.172-0.739,0.25c0.576,0.083,1.105,0.339,1.663,0.494c1.165,0.335,2.317,0.714,3.495,0.992
	c2.075,0.476,4.203,0.663,6.317,0.843c3.341,0.322,6.708,0.197,10.05-0.059c3.962-0.321,7.926-0.729,11.83-1.489
	c0.135-0.032,0.267-0.074,0.396-0.124c0.113-0.023,0.339-0.066,0.452-0.09c-0.171-0.03-0.346-0.062-0.514-0.094l-0.013-0.094
	c-0.302-0.105-0.598-0.223-0.884-0.359c-0.228-0.087-0.453-0.177-0.68-0.263c-0.574-0.265-1.155-0.51-1.739-0.744
	c-0.283-0.114-0.563-0.23-0.847-0.337c-0.228-0.095-0.449-0.188-0.673-0.281c-0.589-0.227-1.171-0.471-1.767-0.677
	c-0.137-0.048-0.275-0.092-0.409-0.138c-0.132-0.052-0.265-0.1-0.395-0.147c-0.14-0.045-0.276-0.091-0.41-0.14
	c-0.321-0.083-0.642-0.166-0.956-0.263c-0.188-0.049-0.372-0.091-0.557-0.136c-0.359-0.094-0.719-0.188-1.078-0.272
	c-0.491-0.133-0.993-0.213-1.494-0.269c-1.03-0.206-2.079-0.25-3.126-0.269C104.62,295.09,103.491,295.309,102.364,295.303z"/>
<path d="M139.728,269.818h120.455v120.455H139.728V269.818 M193.689,345.956c-1.182,0.32-2.343,0.72-3.498,1.123
	c-0.895,0.364-1.839,0.612-2.683,1.09c-0.688,0.355-1.391,0.69-2.054,1.092c-2.429,1.744-4.922,3.401-7.33,5.175
	c-1.578,1.411-3.025,2.962-4.442,4.529c-0.938,1.201-1.957,2.344-2.771,3.633c1.038-0.483,2.124-0.863,3.183-1.3
	c1.805-0.677,3.567-1.457,5.389-2.089c2.213-0.881,4.406-1.809,6.649-2.604c1.809-0.696,3.619-1.408,5.522-1.804
	c3.062-1.01,6.322-1.138,9.521-1.335c0.951,0.035,1.904-0.155,2.853-0.018c2.719,0.236,5.434,0.523,8.13,0.949
	c2.555,0.688,5.107,1.412,7.586,2.354c1.7,0.625,3.339,1.405,5.035,2.044c1.804,0.764,3.658,1.408,5.411,2.283
	c0.981,0.395,1.95,0.824,2.948,1.173c-1.554-1.922-3.275-3.702-4.969-5.504c-2.736-2.491-5.358-5.189-8.61-7.021
	c-2.323-1.266-4.721-2.397-7.17-3.404c-2.617-0.573-5.283-0.92-7.955-1.119c-1.04-0.07-2.082-0.202-3.124-0.152
	C198.777,345.385,196.225,345.629,193.689,345.956z"/>
<path fill="#CA061D" d="M193.689,345.956c2.536-0.327,5.087-0.57,7.623-0.903c1.042-0.051,2.084,0.082,3.123,0.152
	c2.672,0.2,5.34,0.547,7.955,1.119c2.449,1.009,4.848,2.14,7.17,3.405c3.253,1.829,5.874,4.528,8.61,7.021
	c1.692,1.802,3.415,3.583,4.969,5.504c-0.998-0.349-1.967-0.778-2.946-1.172c-1.755-0.876-3.61-1.521-5.413-2.283
	c-1.697-0.64-3.334-1.419-5.035-2.044c-2.479-0.943-5.031-1.668-7.586-2.355c-2.696-0.427-5.411-0.714-8.129-0.948
	c-0.948-0.14-1.901,0.052-2.854,0.018c-3.199,0.195-6.458,0.325-9.521,1.335c-1.902,0.395-3.716,1.106-5.521,1.804
	c-2.245,0.798-4.438,1.725-6.651,2.604c-1.819,0.633-3.583,1.413-5.388,2.088c-1.059,0.438-2.144,0.817-3.182,1.302
	c0.812-1.291,1.833-2.433,2.771-3.634c1.417-1.567,2.863-3.118,4.442-4.527c2.408-1.774,4.899-3.432,7.33-5.177
	c0.663-0.401,1.364-0.734,2.054-1.093c0.844-0.477,1.788-0.725,2.682-1.089C191.346,346.676,192.507,346.278,193.689,345.956z"/>
<path fill="#FFFFFF" d="M269.82,269.818h120.455v47.827c-0.02-0.109-0.059-0.332-0.076-0.442c-0.086-0.002-0.26-0.007-0.346-0.009
	c-2.59-2.032-5.14-4.115-7.797-6.062c-0.788-0.603-1.732-0.93-2.6-1.399c-2.688-1.429-5.438-2.731-8.162-4.087
	c-2.208-1.094-4.385-2.245-6.584-3.35c-1.87-0.926-3.693-1.943-5.606-2.784c-4.473-1.699-9.005-3.302-13.69-4.305
	c-1.663-0.314-3.345-0.572-5.033-0.687c-2.579,0.41-5.158,0.939-7.621,1.836c-1.707,0.697-3.323,1.596-4.915,2.522
	c-2.086,1.168-4.143,2.389-6.232,3.552c-0.401,0.219-0.771,0.486-1.104,0.799c-1.114,1.02-2.25,2.012-3.378,3.017
	c-0.614,0.533-1.01,1.257-1.478,1.912c-2.344,3.489-4.43,7.186-5.801,11.172c-0.829,2.248-1.611,4.516-2.322,6.806
	c-0.357,0.991-0.618,2.011-0.826,3.041c-0.293,1.278-0.565,2.564-0.739,3.867c-0.072,0.722-0.028,1.446-0.062,2.17
	c-0.085,1.868,0.136,3.732,0.378,5.581c0.239,1.411,0.465,2.831,0.896,4.2c0.745,2.43,1.68,4.798,2.625,7.153
	c1.087,2.793,2.28,5.543,3.369,8.334c0.146,0.389,0.338,0.76,0.585,1.095c2.819,3.992,5.552,8.05,8.243,12.133
	c0.734,1.123,1.434,2.276,2.227,3.361c3.211,3.538,6.398,7.101,9.558,10.688c0.766,0.926,1.708,1.678,2.565,2.513H269.82V269.818"/>
<path fill="#FFFFFF" d="M390.197,370.016c0.027-1.403-0.056-2.813,0.079-4.214v24.47h-0.216c0.008-2.631-0.004-5.26,0.008-7.892
	c0.034-1.131-0.065-2.272,0.095-3.396C390.216,375.996,390.172,373.006,390.197,370.016z"/>
<path fill="#009044" d="M332.759,296.358c2.462-0.896,5.042-1.426,7.62-1.836c1.689,0.113,3.371,0.371,5.034,0.687
	c4.688,1.004,9.221,2.604,13.689,4.305c1.913,0.841,3.736,1.86,5.607,2.784c2.199,1.104,4.376,2.256,6.583,3.35
	c2.725,1.355,5.477,2.658,8.164,4.087c0.864,0.472,1.811,0.798,2.599,1.399c2.657,1.945,5.207,4.028,7.797,6.062
	c0.088,0.002,0.26,0.007,0.346,0.009c0.018,0.111,0.057,0.334,0.076,0.442v48.157c-0.135,1.398-0.052,2.811-0.079,4.214
	c-0.023,2.99,0.021,5.979-0.034,8.968c-0.16,1.123-0.061,2.267-0.095,3.396c-0.012,2.632,0,5.261-0.008,7.892h-53.712
	c-0.858-0.834-1.801-1.587-2.565-2.512c-3.158-3.589-6.347-7.151-9.558-10.688c-0.793-1.086-1.491-2.238-2.228-3.361
	c-2.69-4.084-5.423-8.141-8.242-12.133c-0.247-0.335-0.44-0.706-0.585-1.095c-1.089-2.792-2.282-5.542-3.369-8.334
	c-0.946-2.355-1.879-4.724-2.625-7.153c-0.432-1.369-0.656-2.789-0.896-4.2c-0.242-1.85-0.464-3.713-0.378-5.581
	c0.032-0.724-0.012-1.448,0.062-2.17c0.173-1.303,0.445-2.589,0.739-3.866c0.208-1.032,0.469-2.051,0.826-3.042
	c0.713-2.289,1.494-4.557,2.32-6.806c1.373-3.985,3.459-7.683,5.803-11.172c0.468-0.654,0.861-1.38,1.479-1.912
	c1.125-1.005,2.262-1.997,3.377-3.017c0.333-0.312,0.703-0.581,1.104-0.798c2.09-1.164,4.146-2.385,6.232-3.552
	C329.435,297.953,331.052,297.055,332.759,296.358 M352.005,313.823c-0.314,0.033-0.621,0.131-0.883,0.311
	c-0.979,0.63-1.93,1.417-2.417,2.503c-0.16,0.508-0.183,1.052-0.202,1.58c0.124,0.59,0.434,1.119,0.633,1.685
	c0.191,0.545,0.686,0.879,1.081,1.261c0.592,0.539,1.196,1.134,1.989,1.35c1.112,0.056,2.162-0.396,3.143-0.87
	c0.561-0.268,1.003-0.718,1.383-1.197c0.327-0.402,0.398-0.935,0.523-1.422c0.216-1.067-0.158-2.137-0.58-3.104
	c-0.277-0.442-0.745-0.704-1.139-1.028c-0.567-0.449-1.153-0.956-1.896-1.065C353.099,313.747,352.547,313.762,352.005,313.823
	 M326.557,339.911c-0.751,0.229-1.434,0.624-2.11,1.01c-0.121,0.088-0.279,0.155-0.342,0.301c-0.592,1.337-0.992,2.812-0.793,4.279
	c0.19,0.512,0.514,0.993,0.943,1.333c0.663,0.438,1.431,0.688,2.168,0.974c0.842,0.336,1.819,0.274,2.621-0.144
	c0.771-0.396,1.638-0.88,1.927-1.753c0.237-1.118,0.272-2.317-0.082-3.414c-0.321-0.587-0.882-0.993-1.277-1.524
	c-0.367-0.522-0.967-0.79-1.522-1.059C327.604,339.688,327.049,339.763,326.557,339.911z"/>
<path fill="#010101" d="M352.005,313.823c0.542-0.061,1.094-0.076,1.637,0c0.741,0.109,1.327,0.616,1.896,1.065
	c0.394,0.324,0.861,0.586,1.139,1.028c0.422,0.969,0.796,2.036,0.58,3.104c-0.125,0.488-0.196,1.021-0.523,1.423
	c-0.38,0.479-0.822,0.931-1.383,1.197c-0.979,0.475-2.029,0.927-3.143,0.87c-0.793-0.216-1.397-0.811-1.989-1.35
	c-0.396-0.383-0.89-0.717-1.081-1.261c-0.198-0.564-0.51-1.095-0.633-1.685c0.021-0.527,0.044-1.073,0.202-1.581
	c0.487-1.086,1.438-1.872,2.417-2.503C351.384,313.953,351.691,313.856,352.005,313.823z"/>
<path fill="#010101" d="M326.557,339.911c0.492-0.147,1.047-0.225,1.531,0.004c0.557,0.269,1.156,0.534,1.522,1.059
	c0.396,0.531,0.955,0.938,1.277,1.524c0.354,1.097,0.319,2.295,0.082,3.414c-0.289,0.872-1.155,1.356-1.927,1.753
	c-0.802,0.418-1.779,0.479-2.621,0.144c-0.737-0.286-1.504-0.535-2.168-0.975c-0.431-0.339-0.753-0.821-0.943-1.332
	c-0.197-1.47,0.2-2.942,0.794-4.279c0.062-0.146,0.22-0.214,0.341-0.302C325.123,340.535,325.806,340.139,326.557,339.911z"/>
<path fill="#010101" d="M399.91,269.818h120.456v120.455H399.91V269.818 M453.881,285.306c-4.114,0.313-8.227,0.926-12.192,2.081
	c-3.351,1.444-6.644,3.054-9.729,5.006c-2.604,1.576-5.107,3.329-7.403,5.332c-1.195,1.02-2.406,2.028-3.52,3.138
	c-0.852,1.101-1.748,2.164-2.545,3.303c-0.891,1.301-1.579,2.723-2.275,4.133c-0.336,0.756-0.75,1.484-0.949,2.292
	c-0.802,2.925-1.476,5.884-2.14,8.844c-0.351,1.422-0.324,2.896-0.476,4.346c-0.194,4.216-0.287,8.437-0.398,12.655
	c0.012,0.959-0.105,1.93,0.093,2.876c0.529,2.95,1.138,5.895,2.045,8.754c1.198,2.993,2.944,5.719,4.519,8.519
	c0.627,1.186,1.566,2.156,2.359,3.229c0.956,1.292,2.208,2.312,3.321,3.459c0.742,0.769,1.605,1.402,2.403,2.106
	c1.247,1.013,2.457,2.071,3.722,3.061c1.421,1.116,2.785,2.311,4.255,3.361c0.728,0.342,1.373,0.836,2.124,1.131
	c2.905,1.288,5.861,2.465,8.866,3.503c1.47,0.544,3.013,0.816,4.52,1.222c1.652,0.165,3.312,0.221,4.957,0.472
	c2.009,0.271,4.033,0.422,6.062,0.484c1.015,0,2.016-0.188,3.02-0.319c1.539-0.18,3.056-0.507,4.575-0.794
	c1.526-0.302,3.006-0.793,4.5-1.224c1.343-0.484,2.658-1.048,3.973-1.612c0.997-0.44,2.03-0.812,2.945-1.412
	c1.314-0.827,2.678-1.572,4.02-2.355c0.962-0.624,2.044-1.078,2.884-1.877c1.6-1.341,3.13-2.76,4.667-4.17
	c1.212-1.187,2.554-2.257,3.579-3.62c0.936-1.106,1.839-2.24,2.82-3.31c0.505-0.527,0.86-1.173,1.274-1.771
	c2.22-3.375,4.229-6.89,6.061-10.49c0.795-1.971,1.364-4.021,2.077-6.02c0.282-0.9,0.642-1.78,0.828-2.71
	c0.234-1.611,0.599-3.206,0.795-4.826c0.138-7.081-1.232-14.213-4.138-20.681c-0.212-0.478-0.557-0.874-0.833-1.312
	c-1.005-1.538-1.996-3.085-2.979-4.638c-3.451-3.839-7.231-7.396-11.335-10.535c-3.08-1.875-6.276-3.562-9.6-4.966
	c-0.802-0.329-1.586-0.717-2.439-0.901c-2.48-0.578-4.954-1.187-7.411-1.866c-1.035-0.316-2.127-0.372-3.181-0.588
	c-1.401-0.194-2.767-0.63-4.185-0.688C460.242,285.664,457.078,285.01,453.881,285.306z"/>
<path fill="#E46911" d="M453.881,285.306c3.197-0.297,6.361,0.357,9.536,0.617c1.418,0.058,2.781,0.492,4.184,0.688
	c1.055,0.215,2.146,0.271,3.182,0.587c2.457,0.68,4.93,1.289,7.411,1.867c0.854,0.186,1.638,0.572,2.438,0.901
	c3.322,1.401,6.521,3.09,9.601,4.965c4.103,3.141,7.882,6.697,11.335,10.535c0.981,1.553,1.975,3.101,2.979,4.637
	c0.277,0.439,0.622,0.836,0.832,1.312c2.905,6.468,4.276,13.599,4.138,20.682c-0.194,1.618-0.559,3.212-0.794,4.825
	c-0.187,0.931-0.545,1.811-0.826,2.71c-0.715,1.999-1.284,4.049-2.078,6.02c-1.831,3.602-3.842,7.114-6.062,10.489
	c-0.415,0.6-0.771,1.244-1.273,1.772c-0.982,1.067-1.887,2.201-2.82,3.309c-1.026,1.363-2.369,2.434-3.58,3.62
	c-1.537,1.411-3.067,2.829-4.667,4.17c-0.839,0.798-1.922,1.253-2.885,1.877c-1.34,0.784-2.703,1.529-4.018,2.355
	c-0.915,0.601-1.949,0.973-2.946,1.413c-1.313,0.564-2.631,1.127-3.973,1.611c-1.494,0.432-2.974,0.922-4.5,1.224
	c-1.521,0.287-3.036,0.615-4.575,0.794c-1.004,0.133-2.004,0.319-3.021,0.319c-2.026-0.062-4.052-0.214-6.06-0.484
	c-1.646-0.251-3.307-0.306-4.957-0.472c-1.508-0.404-3.052-0.679-4.521-1.222c-3.005-1.038-5.961-2.215-8.866-3.503
	c-0.751-0.295-1.397-0.788-2.125-1.13c-1.469-1.053-2.833-2.246-4.254-3.361c-1.264-0.989-2.475-2.048-3.722-3.062
	c-0.798-0.703-1.662-1.338-2.403-2.106c-1.114-1.146-2.365-2.166-3.321-3.458c-0.794-1.071-1.732-2.044-2.359-3.229
	c-1.574-2.802-3.319-5.526-4.519-8.519c-0.906-2.858-1.516-5.804-2.046-8.754c-0.196-0.946-0.081-1.917-0.092-2.876
	c0.111-4.221,0.204-8.438,0.398-12.655c0.15-1.449,0.125-2.924,0.476-4.346c0.663-2.959,1.337-5.919,2.14-8.844
	c0.2-0.808,0.614-1.537,0.949-2.292c0.695-1.41,1.385-2.832,2.274-4.132c0.799-1.14,1.693-2.203,2.546-3.304
	c1.112-1.109,2.322-2.118,3.52-3.137c2.295-2.004,4.8-3.758,7.403-5.332c3.086-1.953,6.38-3.562,9.729-5.007
	C445.656,286.232,449.767,285.62,453.881,285.306 M459.382,322.34c-0.404,1.202-0.784,2.412-1.162,3.624
	c-0.997,3.057-1.557,6.229-2.146,9.386c-0.224,1.302-0.412,2.613-0.365,3.938c-0.041,1.216,0.315,2.387,0.59,3.556
	c0.56,0.636,1.209,1.192,1.896,1.683c0.611,0.049,1.226,0.049,1.838,0.022c1.23-0.918,2.189-2.176,2.883-3.539
	c0.258-0.819,0.453-1.677,0.445-2.542c0.03-2.092-0.277-4.17-0.543-6.238c-0.313-2.269-0.733-4.519-1.271-6.745
	c-0.557-1.896-0.948-3.836-1.398-5.76C459.99,320.621,459.616,321.463,459.382,322.34z"/>
<path fill="#37549C" d="M459.382,322.34c0.234-0.877,0.606-1.719,0.763-2.615c0.451,1.925,0.844,3.862,1.399,5.76
	c0.538,2.227,0.958,4.478,1.271,6.744c0.265,2.069,0.573,4.147,0.543,6.239c0.008,0.866-0.188,1.723-0.445,2.542
	c-0.691,1.363-1.65,2.621-2.883,3.539c-0.612,0.023-1.227,0.023-1.838-0.022c-0.688-0.489-1.338-1.048-1.896-1.683
	c-0.273-1.169-0.631-2.34-0.59-3.556c-0.048-1.325,0.143-2.639,0.365-3.938c0.591-3.155,1.15-6.329,2.146-9.386
	C458.598,324.752,458.978,323.542,459.382,322.34z"/>
<path fill="#FFFFFF" d="M139.728,399.909h120.455v120.456H139.728V399.909 M225.365,414.579c-0.778,0.373-1.627,0.544-2.447,0.794
	c-0.396,0.162-0.815,0.257-1.22,0.405c-0.271,0.122-0.547,0.223-0.828,0.311c-1.729,0.654-3.389,1.487-4.902,2.548
	c-0.606,0.443-1.25,0.838-1.857,1.277c-0.549,0.396-1.079,0.817-1.604,1.247c-0.624,0.458-1.121,1.058-1.657,1.609
	c-0.137,0.139-0.271,0.276-0.398,0.417c-0.127,0.117-0.254,0.233-0.379,0.349l0.009,0.03c-0.147,0.154-0.297,0.309-0.442,0.465
	c-0.226,0.272-0.474,0.527-0.739,0.762c-0.021,0.053-0.064,0.159-0.088,0.212c1.797,0.189,3.604,0.373,5.413,0.276
	c1.892-0.255,3.709-0.904,5.414-1.751c1.11-0.5,2.07-1.256,3.005-2.025c0.393-0.38,0.743-0.794,1.109-1.195
	c1.771-1.821,3.152-3.969,4.729-5.952C227.439,414.422,226.403,414.512,225.365,414.579 M170.132,415.033
	c0.727,0.986,1.553,1.895,2.404,2.771c0.155,0.166,0.311,0.332,0.467,0.502c0.109,0.112,0.219,0.228,0.331,0.338
	c0.304,0.284,0.616,0.559,0.936,0.827c0.146,0.127,0.29,0.256,0.438,0.383c0.29,0.257,0.588,0.504,0.894,0.741
	c0.78,0.581,1.54,1.188,2.361,1.711c1.992,1.362,4.432,1.741,6.767,2.089l-0.158,0.013c0.368,0.079,0.739,0.153,1.11,0.209
	c1.334,0.005,2.687,0.141,3.995-0.186c0.005-0.045,0.017-0.133,0.021-0.176c-0.26-0.172-0.512-0.358-0.72-0.592l0.056,0.082
	c-0.023-0.034-0.07-0.103-0.093-0.135c-1.197-1.035-2.246-2.226-3.441-3.261c-0.132-0.132-0.266-0.262-0.401-0.388
	c-0.558-0.528-1.087-1.091-1.667-1.594c-1.033-0.497-2.093-0.95-3.17-1.356c-0.365-0.141-0.739-0.257-1.095-0.419
	c-1.217-0.419-2.414-0.938-3.698-1.127C173.715,415.078,171.916,415.077,170.132,415.033 M198.119,430.993
	c-0.372,0.62-0.541,1.331-0.567,2.05c-0.155,1.274-0.038,2.564-0.216,3.836c-0.112,1.364-0.117,2.736-0.218,4.103
	c-0.129,1.168-0.032,2.35-0.185,3.517c-0.183,2.729-0.508,5.445-0.764,8.169c-0.132,0.761-0.181,1.534-0.296,2.298
	c-0.248,2.509-0.709,4.991-0.956,7.499c-0.354,3.27-0.798,6.521-1.289,9.771c-0.052,1.051-0.229,2.09-0.308,3.14
	c-0.235,1.755-0.467,3.517-0.578,5.285c-0.354,3.995-0.746,7.984-1.047,11.983c-0.157,0.922-0.203,1.855-0.272,2.786
	c5.012-0.02,10.022-0.033,15.034-0.043c0-0.601-0.022-1.206-0.136-1.798c-0.404-3.72-0.874-7.431-1.183-11.16
	c-0.209-1.396-0.147-2.817-0.449-4.202c-0.315-2.179-0.698-4.35-0.97-6.536c-0.339-2.15-0.393-4.333-0.635-6.492
	c-0.137-0.952-0.137-1.917-0.276-2.869c-0.497-5.771-1.219-11.532-1.28-17.335c0.01-1.891-0.207-3.771-0.196-5.663
	c-0.087-1.503-0.208-3.009-0.488-4.488c-0.18-0.91-0.202-1.87-0.615-2.716c-0.266-0.418-0.606-0.776-0.948-1.13
	C198.894,430.946,198.506,430.948,198.119,430.993 M197.095,499.391c-0.576,0.178-1.209,0.197-1.73,0.521
	c-0.644,0.387-1.333,0.697-1.933,1.155c-0.499,0.502-1.032,0.969-1.522,1.479c-0.298,0.288-0.368,0.711-0.531,1.076
	c-0.199,0.407-0.387,0.819-0.547,1.245c-0.311,1.295-0.196,2.647-0.02,3.954c0.137,0.496,0.188,1.017,0.372,1.502
	c0.151,0.266,0.333,0.517,0.505,0.771c0.396,0.588,0.78,1.19,1.297,1.688c0.635,0.465,1.229,0.996,1.941,1.349
	c0.863,0.385,1.757,0.75,2.716,0.761c0.646,0.158,1.298,0.1,1.928-0.096c1.214-0.219,2.413-0.528,3.511-1.107
	c0.542-0.299,1.019-0.692,1.496-1.082c0.527-0.409,0.748-1.063,1.111-1.603c0.818-1.257,1.033-2.781,1.15-4.242
	c-0.228-1.459-0.695-2.907-1.537-4.135c-0.574-0.916-1.512-1.5-2.386-2.093c-1.006-0.656-2.179-0.985-3.359-1.127
	C198.74,499.349,197.912,499.281,197.095,499.391z"/>
<path fill="#010101" d="M225.365,414.579c1.037-0.066,2.073-0.158,3.113-0.225c-1.574,1.984-2.954,4.132-4.728,5.954
	c-0.366,0.401-0.718,0.814-1.109,1.194c-0.935,0.771-1.894,1.525-3.005,2.025c-1.705,0.847-3.522,1.496-5.414,1.751
	c-1.809,0.097-3.617-0.089-5.413-0.276c0.022-0.053,0.065-0.159,0.087-0.212c0.268-0.232,0.516-0.487,0.74-0.762
	c0.146-0.156,0.295-0.311,0.442-0.466l-0.009-0.029c0.125-0.114,0.252-0.23,0.379-0.349c0.129-0.141,0.263-0.278,0.398-0.417
	c0.536-0.552,1.033-1.15,1.657-1.609c0.523-0.431,1.055-0.851,1.604-1.247c0.607-0.439,1.25-0.833,1.857-1.277
	c1.514-1.061,3.175-1.895,4.902-2.548c0.28-0.089,0.559-0.189,0.828-0.311c0.403-0.148,0.822-0.241,1.22-0.405
	C223.739,415.123,224.586,414.953,225.365,414.579z"/>
<path fill="#010101" d="M170.132,415.033c1.785,0.044,3.584,0.045,5.334,0.435c1.283,0.188,2.48,0.708,3.698,1.127
	c0.354,0.162,0.729,0.278,1.095,0.419c1.077,0.406,2.136,0.859,3.17,1.356c0.58,0.503,1.109,1.064,1.667,1.594
	c0.137,0.126,0.271,0.256,0.401,0.388c1.195,1.035,2.244,2.226,3.441,3.261c0.021,0.033,0.068,0.101,0.093,0.135
	c0.072,0.18,0.441,0.438,0.15,0.593c-0.585,0.28-1.246,0.169-1.872,0.214c-0.864,0.038-1.718-0.158-2.584-0.156
	c-2.335-0.349-4.772-0.728-6.767-2.09c-0.821-0.521-1.583-1.129-2.361-1.711c-0.306-0.237-0.604-0.484-0.894-0.742
	c-0.146-0.125-0.292-0.255-0.438-0.381c-0.318-0.27-0.632-0.544-0.937-0.827c-0.11-0.112-0.22-0.227-0.33-0.339
	c-0.156-0.17-0.312-0.336-0.467-0.501C171.684,416.927,170.858,416.02,170.132,415.033z"/>
<path fill="#010101" d="M197.095,499.391c0.817-0.11,1.646-0.042,2.463,0.019c1.182,0.142,2.354,0.471,3.359,1.127
	c0.874,0.593,1.812,1.177,2.386,2.093c0.841,1.229,1.311,2.677,1.536,4.135c-0.116,1.461-0.331,2.986-1.148,4.242
	c-0.365,0.538-0.584,1.191-1.112,1.603c-0.479,0.39-0.954,0.784-1.496,1.083c-1.098,0.578-2.297,0.889-3.511,1.106
	c-0.63,0.194-1.281,0.254-1.928,0.097c-0.959-0.013-1.854-0.377-2.717-0.762c-0.711-0.353-1.308-0.884-1.94-1.349
	c-0.517-0.497-0.902-1.101-1.296-1.688c-0.172-0.256-0.354-0.507-0.506-0.771c-0.183-0.485-0.235-1.006-0.372-1.502
	c-0.178-1.307-0.29-2.659,0.02-3.954c0.16-0.426,0.347-0.838,0.547-1.245c0.164-0.365,0.232-0.788,0.531-1.076
	c0.49-0.511,1.022-0.977,1.522-1.479c0.6-0.458,1.289-0.77,1.933-1.155C195.885,499.589,196.519,499.569,197.095,499.391z"/>
<path fill="#CB051D" d="M189.032,423.746l-0.056-0.081c0.208,0.23,0.46,0.419,0.72,0.592c-0.006,0.043-0.017,0.13-0.021,0.175
	c-1.311,0.325-2.661,0.189-3.995,0.186c-0.371-0.056-0.743-0.13-1.11-0.208l0.158-0.014c0.866-0.001,1.72,0.194,2.584,0.157
	c0.625-0.045,1.286,0.066,1.872-0.214C189.474,424.183,189.105,423.926,189.032,423.746z"/>
<path fill="#CB051D" d="M198.119,430.993c0.387-0.046,0.774-0.048,1.161,0.001c0.343,0.354,0.684,0.712,0.949,1.13
	c0.411,0.846,0.436,1.806,0.613,2.717c0.282,1.479,0.403,2.985,0.489,4.487c-0.01,1.894,0.207,3.772,0.196,5.663
	c0.062,5.802,0.783,11.562,1.28,17.335c0.14,0.952,0.14,1.917,0.276,2.869c0.241,2.159,0.295,4.342,0.635,6.491
	c0.271,2.188,0.653,4.358,0.969,6.537c0.304,1.385,0.242,2.809,0.45,4.202c0.309,3.729,0.777,7.441,1.183,11.161
	c0.112,0.591,0.136,1.196,0.136,1.797c-5.011,0.01-10.022,0.022-15.034,0.044c0.07-0.933,0.116-1.866,0.272-2.787
	c0.302-3.999,0.692-7.988,1.047-11.983c0.111-1.769,0.344-3.53,0.578-5.285c0.079-1.049,0.256-2.089,0.309-3.139
	c0.49-3.249,0.935-6.502,1.288-9.771c0.247-2.508,0.708-4.99,0.956-7.499c0.116-0.764,0.164-1.537,0.297-2.298
	c0.256-2.724,0.581-5.438,0.763-8.169c0.151-1.167,0.056-2.349,0.185-3.517c0.101-1.365,0.105-2.737,0.218-4.103
	c0.177-1.271,0.062-2.562,0.217-3.836C197.578,432.324,197.746,431.614,198.119,430.993z"/>
<path fill="#010202" d="M269.82,399.909h120.455v120.456H281.148l0.016-0.002c-0.01,0-0.028,0.002-0.036,0.002H269.82V399.909
	 M302.501,425.804c-1.751,0.336-3.572,0.688-5.068,1.722c-1.453,1.119-2.523,2.778-2.798,4.604c-0.079,1.01,0.181,2.003,0.338,2.993
	c0.066,0.431,0.151,0.871,0.403,1.239c0.647,1.033,1.396,2.021,2.315,2.834c1.18,0.992,2.731,1.331,4.219,1.542
	c0.416,0.047,0.827-0.053,1.236-0.112c0.602-0.11,1.229-0.155,1.782-0.438c0.663-0.296,1.187-0.804,1.74-1.257
	c0.361-0.312,0.753-0.598,1.053-0.972c1.031-1.398,1.853-3.003,2.078-4.743c0.072-1.189,0.068-2.407-0.267-3.562
	c-0.167-0.575-0.618-0.999-0.999-1.438c-0.549-0.584-1.068-1.216-1.752-1.646c-0.69-0.43-1.519-0.469-2.293-0.616
	C303.831,425.86,303.168,425.615,302.501,425.804 M352.533,426.786c-0.953,0.426-1.92,0.835-2.818,1.365
	c-0.91,0.682-1.641,1.589-2.129,2.613c-0.537,0.856-0.66,1.875-0.813,2.854c-0.146,1.69,0.334,3.481,1.523,4.729
	c0.717,0.658,1.562,1.155,2.357,1.712c1.266,0.942,2.902,1.054,4.418,1.227c0.488,0.093,0.944-0.095,1.384-0.292
	c1.063-0.332,2.092-0.819,2.986-1.489c1.39-1.114,1.917-2.883,2.478-4.498c0.318-0.782,0.122-1.638,0.063-2.449
	c-0.304-0.781-0.786-1.477-1.188-2.208c-0.372-0.692-1.041-1.138-1.585-1.685c-0.569-0.584-1.366-0.843-2.099-1.155
	C355.666,426.967,354.091,426.347,352.533,426.786"/>
<path fill="#009044" d="M302.501,425.804c0.667-0.188,1.329,0.056,1.988,0.151c0.773,0.148,1.604,0.188,2.292,0.617
	c0.686,0.43,1.205,1.061,1.753,1.646c0.381,0.439,0.832,0.863,0.999,1.438c0.336,1.153,0.339,2.372,0.268,3.562
	c-0.228,1.739-1.047,3.347-2.079,4.743c-0.301,0.373-0.69,0.659-1.053,0.972c-0.555,0.452-1.077,0.961-1.74,1.257
	c-0.552,0.28-1.183,0.326-1.783,0.437c-0.408,0.062-0.819,0.159-1.235,0.113c-1.487-0.212-3.039-0.55-4.22-1.543
	c-0.92-0.812-1.667-1.801-2.314-2.834c-0.252-0.368-0.336-0.809-0.404-1.239c-0.156-0.99-0.415-1.982-0.337-2.992
	c0.274-1.826,1.346-3.484,2.798-4.604C298.929,426.493,300.75,426.14,302.501,425.804z"/>
<path fill="#009044" d="M352.533,426.786c1.558-0.439,3.133,0.181,4.577,0.727c0.731,0.312,1.529,0.571,2.1,1.155
	c0.544,0.548,1.214,0.99,1.585,1.685c0.402,0.731,0.885,1.427,1.188,2.209c0.058,0.812,0.255,1.666-0.063,2.448
	c-0.562,1.614-1.089,3.383-2.478,4.498c-0.896,0.67-1.923,1.156-2.986,1.489c-0.438,0.196-0.896,0.385-1.384,0.292
	c-1.516-0.173-3.152-0.283-4.418-1.226c-0.796-0.558-1.643-1.054-2.357-1.713c-1.188-1.248-1.671-3.039-1.524-4.729
	c0.154-0.979,0.277-1.999,0.813-2.855c0.489-1.023,1.22-1.933,2.13-2.612C350.615,427.622,351.58,427.212,352.533,426.786z"/>
<path fill="#009044" d="M271.49,520.365c0.008,0,0.024-0.002,0.036-0.002l-0.016,0.002H271.49z"/>
<path fill="#FFFFFF" d="M399.91,399.91h120.454v120.455H399.91V399.91 M456.043,401.31c-4.993,1.011-9.88,2.456-14.816,3.688
	c-3.495,1.657-7.119,3.14-10.275,5.418c-2.247,1.664-4.37,3.493-6.362,5.454c-0.588,0.705-0.967,1.559-1.462,2.329
	c-1.94,3.483-3.747,7.041-5.454,10.645c-0.45,0.868-0.595,1.842-0.901,2.763c-1.313,3.623-2.339,7.364-2.851,11.188
	c-0.165,1.029-0.182,2.08-0.424,3.099c-0.054,1.981-0.031,3.971-0.146,5.95c-0.033,3.403-0.119,6.807-0.065,10.209
	c-0.016,0.413,0.135,0.806,0.196,1.208c0.376,2.221,0.69,4.448,1.023,6.673c0.126,1.052,0.413,2.073,0.639,3.109
	c0.406,1.841,0.849,3.673,1.266,5.514c0.057,0.241,0.154,0.472,0.261,0.692c1.203,2.458,2.095,5.049,3.195,7.553
	c2.167,5.277,4.751,10.37,7.496,15.364c0.209,0.409,0.52,0.754,0.821,1.096c1.14,1.351,2.146,2.821,3.463,4.007
	c0.712,0.69,1.491,1.306,2.25,1.943c1.366,1.08,2.718,2.208,4.252,3.057c3.118,1.819,6.463,3.246,9.928,4.271
	c1.7,0.513,3.402,1.033,5.139,1.406c0.932,0.253,1.885,0.392,2.85,0.439c2.896,0.199,5.816,0.345,8.714,0.013
	c1.908-0.246,3.834-0.441,5.707-0.912c1.992-0.383,3.76-1.438,5.584-2.28c3.73-1.973,7.386-4.107,10.838-6.545
	c0.4-0.322,0.672-0.768,1.032-1.132c1.096-1.136,2.198-2.271,3.146-3.535c1.236-1.462,2.28-3.082,3.065-4.829
	c0.759-1.714,1.552-3.413,2.162-5.188c0.873-2.478,1.788-4.939,2.608-7.437c1.463-4.596,2.813-9.253,3.444-14.045
	c0.256-1.699,0.511-3.396,0.658-5.106c0.137-3.367,0.274-6.736,0.413-10.104c0.038-1.718,0.15-3.452-0.144-5.152
	c-0.641-4.416-1.23-8.85-2.246-13.194c-0.582-4.001-1.64-7.921-2.876-11.77c-0.17-0.566-0.476-1.078-0.764-1.592
	c-1.383-2.367-2.528-4.865-3.98-7.189c-1.312-1.877-2.747-3.662-4.141-5.478c-1.797-1.826-3.906-3.317-6.115-4.604
	c-1.216-0.685-2.339-1.541-3.648-2.053c-3.983-1.688-8.136-2.941-12.306-4.08c-1.47-0.424-3.001-0.535-4.502-0.792
	c-1.356-0.115-2.717-0.372-4.081-0.223C457.771,401.225,456.9,401.165,456.043,401.31z"/>
<path fill="#C51E1D" d="M456.043,401.31c0.854-0.146,1.728-0.085,2.591-0.153c1.364-0.148,2.725,0.106,4.081,0.224
	c1.502,0.256,3.034,0.368,4.502,0.792c4.169,1.138,8.322,2.391,12.306,4.08c1.31,0.511,2.435,1.368,3.651,2.052
	c2.208,1.288,4.317,2.779,6.115,4.604c1.393,1.815,2.826,3.602,4.139,5.478c1.451,2.325,2.6,4.823,3.981,7.19
	c0.287,0.515,0.594,1.023,0.762,1.592c1.238,3.847,2.295,7.768,2.876,11.768c1.015,4.348,1.608,8.78,2.245,13.196
	c0.294,1.701,0.183,3.436,0.146,5.152c-0.14,3.368-0.278,6.737-0.413,10.104c-0.15,1.71-0.405,3.407-0.658,5.106
	c-0.633,4.792-1.982,9.449-3.446,14.045c-0.819,2.496-1.735,4.959-2.607,7.436c-0.609,1.774-1.402,3.477-2.163,5.188
	c-0.784,1.746-1.83,3.367-3.064,4.828c-0.946,1.265-2.049,2.398-3.146,3.536c-0.358,0.363-0.632,0.81-1.03,1.132
	c-3.453,2.438-7.107,4.572-10.841,6.545c-1.822,0.842-3.59,1.896-5.585,2.279c-1.869,0.472-3.795,0.667-5.704,0.912
	c-2.896,0.334-5.817,0.188-8.716-0.012c-0.961-0.049-1.918-0.188-2.847-0.439c-1.737-0.373-3.439-0.895-5.14-1.406
	c-3.464-1.025-6.81-2.454-9.931-4.272c-1.531-0.848-2.882-1.975-4.248-3.056c-0.76-0.639-1.541-1.254-2.252-1.943
	c-1.317-1.186-2.323-2.656-3.462-4.007c-0.301-0.342-0.614-0.687-0.82-1.096c-2.747-4.994-5.33-10.087-7.498-15.364
	c-1.101-2.503-1.991-5.095-3.194-7.553c-0.106-0.223-0.203-0.451-0.262-0.692c-0.415-1.841-0.857-3.673-1.266-5.514
	c-0.225-1.036-0.512-2.06-0.638-3.11c-0.333-2.223-0.647-4.451-1.024-6.672c-0.062-0.402-0.211-0.795-0.196-1.208
	c-0.053-3.403,0.032-6.806,0.066-10.209c0.114-1.979,0.093-3.969,0.146-5.951c0.242-1.017,0.259-2.067,0.424-3.098
	c0.511-3.824,1.537-7.567,2.849-11.189c0.31-0.92,0.454-1.894,0.904-2.762c1.706-3.604,3.513-7.161,5.453-10.645
	c0.495-0.771,0.873-1.624,1.461-2.329c1.994-1.962,4.117-3.79,6.362-5.454c3.157-2.279,6.78-3.761,10.275-5.418
	C446.163,403.765,451.05,402.321,456.043,401.31 M454.28,424.275c-0.098,0.714-0.022,1.433,0.004,2.147
	c0.258,7.521,0.499,15.039,0.777,22.559c0.292,7.163,0.482,14.331,0.802,21.493c0.167,3.717,0.232,7.433,0.422,11.144
	c0.078,2.345,0.168,4.688,0.233,7.03c1.982,0.524,3.997,0.896,5.997,1.342c-0.1-3.111-0.324-6.218-0.44-9.328
	c-0.158-1.675-0.132-3.356-0.252-5.032c-0.184-3.258-0.313-6.519-0.476-9.775c-0.197-2.587-0.397-5.176-0.562-7.766
	c-0.542-6.173-1.128-12.348-2.115-18.467c-0.211-1.806-0.625-3.574-1.086-5.329c-0.654-2.663-1.421-5.296-2.36-7.871
	C454.909,425.704,454.714,424.934,454.28,424.275 M482.62,432.212c-0.859,0.177-1.717,0.444-2.446,0.943
	c-0.636,0.429-1.309,0.842-1.789,1.452c-0.352,0.43-0.7,0.905-0.737,1.479c-0.104,1.048-0.282,2.128-0.053,3.171
	c0.424,1.188,1.44,2.039,2.469,2.708c0.535,0.329,1.045,0.794,1.709,0.82c1.079,0.021,2.269,0.007,3.168-0.688
	c0.627-0.503,1.356-0.989,1.633-1.781c0.252-0.633,0.549-1.241,0.831-1.858c0.464-1,0.311-2.162-0.007-3.18
	c-0.517-1.312-1.64-2.261-2.786-3.017C484.007,431.878,483.271,432.124,482.62,432.212 M431.87,439.599
	c-1.355,0.347-2.688,0.793-3.948,1.399c-0.412,0.188-0.733,0.531-0.932,0.936c-0.428,0.884-0.648,1.868-0.62,2.851
	c-0.01,0.512,0.335,0.926,0.659,1.284c0.656,0.702,1.242,1.47,1.901,2.175c0.875,0.88,2.124,1.27,3.34,1.351
	c0.57-0.02,1.098-0.266,1.634-0.428c0.462-0.172,0.967-0.263,1.37-0.554c0.799-0.613,1.459-1.39,2.01-2.227
	c0.279-0.449,0.726-0.895,0.61-1.467c-0.087-0.702-0.185-1.413-0.434-2.078c-0.346-0.858-1.089-1.46-1.812-1.996
	c-0.648-0.47-1.343-0.959-2.164-1.039C432.949,439.75,432.414,439.581,431.87,439.599 M460.13,498.775
	c-3.845,0.452-7.678,1.004-11.539,1.318c-1.974,0.317-3.935,0.729-5.869,1.228c-0.755,0.188-1.476,0.521-2.265,0.545
	c0.028,0.053,0.044,0.129,0.117,0.142c0.703,0.109,1.388,0.306,2.068,0.502c1.914,0.556,3.864,0.969,5.822,1.334
	c1.671,0.159,3.334,0.396,5.005,0.552c3.021,0.345,6.068,0.324,9.104,0.246c2.02-0.053,4.038-0.257,6.001-0.75
	c1.233-0.329,2.488-0.604,3.694-1.039c1.924-0.811,3.573-2.111,5.271-3.302c1.329-0.987,2.568-2.09,3.809-3.187
	C474.284,497.258,467.209,498.022,460.13,498.775z"/>
<path fill="#EF8903" d="M454.28,424.275c0.436,0.658,0.631,1.43,0.943,2.147c0.939,2.573,1.707,5.208,2.36,7.871
	c0.461,1.755,0.875,3.523,1.085,5.329c0.988,6.118,1.574,12.294,2.116,18.467c0.163,2.59,0.363,5.178,0.562,7.766
	c0.161,3.258,0.292,6.519,0.475,9.775c0.12,1.676,0.095,3.357,0.253,5.031c0.115,3.109,0.342,6.217,0.44,9.329
	c-2-0.445-4.015-0.816-5.997-1.342c-0.065-2.344-0.155-4.688-0.233-7.03c-0.188-3.711-0.255-7.429-0.422-11.145
	c-0.318-7.161-0.512-14.329-0.802-21.494c-0.278-7.518-0.521-15.038-0.777-22.558C454.256,425.707,454.182,424.989,454.28,424.275z"
	/>
<path d="M482.62,432.212c0.65-0.088,1.387-0.335,1.986,0.053c1.151,0.756,2.271,1.704,2.788,3.018
	c0.317,1.017,0.472,2.179,0.008,3.179c-0.282,0.618-0.579,1.228-0.83,1.859c-0.276,0.792-1.007,1.278-1.637,1.781
	c-0.896,0.692-2.085,0.708-3.166,0.688c-0.663-0.026-1.173-0.491-1.709-0.82c-1.026-0.669-2.043-1.521-2.468-2.708
	c-0.229-1.044-0.052-2.122,0.052-3.171c0.039-0.574,0.388-1.051,0.738-1.479c0.48-0.611,1.152-1.023,1.789-1.453
	C480.905,432.657,481.761,432.388,482.62,432.212z"/>
<path d="M431.87,439.599c0.545-0.02,1.079,0.15,1.619,0.206c0.82,0.08,1.514,0.57,2.163,1.039c0.722,0.536,1.465,1.139,1.81,1.996
	c0.249,0.665,0.348,1.376,0.434,2.078c0.116,0.572-0.329,1.017-0.609,1.467c-0.55,0.837-1.211,1.612-2.009,2.228
	c-0.405,0.291-0.91,0.381-1.37,0.553c-0.537,0.162-1.063,0.408-1.633,0.428c-1.218-0.081-2.465-0.471-3.342-1.351
	c-0.658-0.704-1.244-1.472-1.901-2.176c-0.325-0.358-0.669-0.771-0.658-1.283c-0.028-0.98,0.192-1.967,0.619-2.851
	c0.197-0.402,0.519-0.747,0.931-0.935C429.182,440.392,430.515,439.947,431.87,439.599z"/>
<path fill="#F9E81C" d="M460.13,498.775c7.079-0.755,14.154-1.518,21.217-2.41c-1.238,1.097-2.479,2.198-3.809,3.187
	c-1.696,1.188-3.348,2.491-5.271,3.303c-1.207,0.435-2.461,0.71-3.695,1.038c-1.964,0.494-3.981,0.696-6,0.75
	c-3.036,0.077-6.082,0.1-9.104-0.245c-1.672-0.158-3.333-0.395-5.005-0.553c-1.957-0.365-3.907-0.778-5.822-1.335
	c-0.682-0.193-1.364-0.392-2.068-0.501c-0.071-0.013-0.091-0.089-0.117-0.142c0.79-0.022,1.511-0.356,2.265-0.545
	c1.937-0.499,3.896-0.909,5.869-1.228C452.452,499.779,456.284,499.229,460.13,498.775z"/>
</svg>
