<?xml version="1.0" encoding="utf-8"?>
<!-- Generator: Adobe Illustrator 15.0.2, SVG Export Plug-In . SVG Version: 6.00 Build 0)  -->
<!DOCTYPE svg PUBLIC "-//W3C//DTD SVG 1.1//EN" "http://www.w3.org/Graphics/SVG/1.1/DTD/svg11.dtd">
<svg version="1.1" id="Layer_1" xmlns="http://www.w3.org/2000/svg" xmlns:xlink="http://www.w3.org/1999/xlink" x="0px" y="0px"
	 width="886px" height="886px" viewBox="0 0 886 886" enable-background="new 0 0 886 886" xml:space="preserve">
<g id="_x23_009144ff">
	<path fill="#009144" d="M462.948,195.21c18.11-6.58,37.08-10.479,56.052-13.5c12.42,0.84,24.788,2.73,37.028,5.052
		c34.472,7.38,67.812,19.148,100.7,31.658c14.06,6.182,27.48,13.67,41.24,20.472c16.18,8.14,32.188,16.608,48.42,24.64
		c20.04,9.98,40.279,19.56,60.05,30.06c6.36,3.472,13.32,5.882,19.12,10.312c19.54,14.3,38.3,29.63,57.35,44.57
		c0.63,0.02,1.9,0.05,2.53,0.068c0.14,0.812,0.42,2.45,0.561,3.271v354.2c-0.979,10.3-0.369,20.67-0.579,31
		c-0.171,21.989,0.158,43.979-0.25,65.96c-1.182,8.27-0.44,16.66-0.7,24.99c-0.08,19.35,0,38.688-0.05,58.039H489.35
		c-6.32-6.141-13.25-11.67-18.89-18.471c-23.222-26.398-46.672-52.59-70.29-78.62c-5.83-7.988-10.98-16.46-16.392-24.729
		c-19.79-30.03-39.88-59.87-60.63-89.25c-1.81-2.46-3.229-5.19-4.3-8.05c-8.01-20.53-16.78-40.75-24.78-61.29
		c-6.96-17.33-13.818-34.75-19.3-52.62c-3.18-10.07-4.84-20.521-6.6-30.9c-1.78-13.6-3.4-27.31-2.78-41.05
		c0.24-5.32-0.08-10.66,0.45-15.96c1.28-9.58,3.29-19.04,5.45-28.45c1.52-7.58,3.438-15.08,6.068-22.359
		c5.24-16.841,10.99-33.521,17.08-50.061c10.09-29.319,25.44-56.51,42.67-82.17c3.44-4.82,6.342-10.15,10.87-14.07
		c8.29-7.38,16.65-14.688,24.84-22.18c2.45-2.3,5.182-4.28,8.132-5.88c15.368-8.562,30.5-17.53,45.85-26.11
		C438.5,206.95,450.39,200.35,462.948,195.21 M604.52,323.68c-2.32,0.24-4.58,0.96-6.5,2.28c-7.2,4.64-14.19,10.43-17.77,18.408
		c-1.182,3.74-1.352,7.74-1.49,11.642c0.898,4.33,3.18,8.229,4.66,12.38c1.398,4,5.02,6.46,7.938,9.28
		c4.352,3.948,8.8,8.328,14.63,9.92c8.19,0.408,15.9-2.92,23.12-6.41c4.11-1.96,7.37-5.271,10.16-8.812
		c2.41-2.96,2.94-6.87,3.86-10.46c1.58-7.85-1.16-15.71-4.262-22.83c-2.04-3.238-5.488-5.17-8.38-7.55
		c-4.17-3.33-8.489-7.029-13.938-7.858C612.56,323.12,608.5,323.24,604.52,323.68 M417.33,515.57c-5.521,1.69-10.54,4.59-15.53,7.43
		c-0.9,0.632-2.062,1.132-2.51,2.212c-4.36,9.818-7.302,20.658-5.83,31.47c1.398,3.76,3.77,7.3,6.938,9.8
		c4.892,3.229,10.521,5.06,15.95,7.17c6.188,2.48,13.38,2.021,19.28-1.06c5.658-2.91,12.05-6.472,14.17-12.881
		c1.738-8.229,2-17.039-0.61-25.119c-2.37-4.32-6.479-7.302-9.4-11.21c-2.698-3.852-7.108-5.802-11.198-7.79
		C425.038,513.922,420.95,514.49,417.33,515.57z"/>
</g>
<g id="_x23_010101ff">
	<path fill="#010101" d="M604.52,323.68c3.98-0.44,8.04-0.562,12.03-0.01c5.45,0.828,9.77,4.528,13.938,7.858
		c2.892,2.38,6.34,4.312,8.38,7.55c3.102,7.12,5.842,14.98,4.262,22.83c-0.92,3.59-1.45,7.5-3.86,10.46
		c-2.79,3.54-6.05,6.852-10.16,8.812c-7.22,3.49-14.93,6.818-23.12,6.41c-5.83-1.592-10.278-5.972-14.63-9.92
		c-2.92-2.82-6.54-5.28-7.938-9.28c-1.48-4.15-3.762-8.05-4.66-12.38c0.14-3.9,0.31-7.9,1.49-11.642
		c3.579-7.979,10.568-13.77,17.77-18.408C599.94,324.64,602.198,323.922,604.52,323.68z"/>
	<path fill="#010101" d="M417.33,515.57c3.62-1.08,7.708-1.648,11.26,0.021c4.09,1.988,8.5,3.938,11.198,7.79
		c2.922,3.908,7.03,6.89,9.4,11.21c2.61,8.08,2.35,16.89,0.61,25.12c-2.12,6.408-8.512,9.97-14.17,12.88
		c-5.9,3.08-13.092,3.54-19.28,1.06c-5.43-2.11-11.06-3.938-15.95-7.17c-3.17-2.5-5.54-6.04-6.938-9.8
		c-1.472-10.812,1.47-21.65,5.83-31.47c0.448-1.08,1.608-1.58,2.51-2.211C406.79,520.16,411.81,517.26,417.33,515.57z"/>
</g>
</svg>
