<?xml version="1.0" encoding="utf-8"?>
<!-- Generator: Adobe Illustrator 16.0.0, SVG Export Plug-In . SVG Version: 6.00 Build 0)  -->
<!DOCTYPE svg PUBLIC "-//W3C//DTD SVG 1.1//EN" "http://www.w3.org/Graphics/SVG/1.1/DTD/svg11.dtd">
<svg version="1.1" id="gallo" xmlns="http://www.w3.org/2000/svg" xmlns:xlink="http://www.w3.org/1999/xlink" x="0px" y="0px"
	 width="768px" height="1024px" viewBox="0 0 768 1024" enable-background="new 0 0 768 1024" xml:space="preserve">
<rect fill="none" width="768" height="1024.604"/>
<g>
	<g id="Layer_1_1_">
		<path fill="#008847" d="M718.723,660.459l-40.166-20.419v-0.077c-26.583-20.879-52.839-42.261-80.884-61.188
			c-30.713-19.879-55.79-47-85.388-68.347c-30.703-22.941-60.305-47.268-89.72-71.822c-12.238-10.6-26.186-18.852-39.577-27.8
			c-12.74-8.047-24.561-17.726-38.479-23.69c-13.371-6.064-26.389-13.119-40.569-17.146c-4.447-1.449-9.528-2.384-12.288-6.514
			c-11.16-14.481-22.811-28.585-34.251-42.842c-10.881-14.143-21.52-28.473-32.473-42.542c-5.777-7.339-10.56-15.61-18.082-21.37
			c9.772,36.107,33.479,65.839,53.198,96.907c5.236,8.815,11.873,16.831,16.356,26.11c-1.35,2.701-3.111,5.178-4.612,7.711
			c-20.352-25.456-39.487-51.866-60.942-76.421c-6.81-7.501-12.193-16.354-20.24-22.62c17.746,41.073,43.855,77.724,66.87,115.878
			c-0.692,1.445-2.1,4.335-2.793,5.777c-11.443-11.849-22.568-23.991-33.634-36.185c-13.728-16.298-31.229-28.758-46.726-43.254
			c-13.561-11.483-26.147-24.157-40.44-34.743c2.96,6.666,7.484,12.442,12.152,18.013c15.213,19.094,31.663,37.179,47.102,56.105
			c14.651,18.214,30.144,35.715,45.806,53.085c-2.061,2.925-4.128,5.852-6.056,8.777c-12.851-14.199-25.645-28.492-40.237-40.909
			c-23.353-19.939-46.293-40.385-71.263-58.317c-7.164-5.366-14.031-11.33-22.359-14.838c4.88,9.136,12.343,16.472,20.259,22.997
			c29.262,26.468,55.635,55.842,82.29,84.86c7.373,8.554,14.67,17.202,21.911,25.886c-1.842,2.925-3.642,5.851-5.404,8.777
			c-26.469-21.115-52.825-42.573-76.009-67.333c-14.122-15.324-28.661-30.275-42.673-45.693c-2.702-2.947-5.686-5.61-8.706-8.123
			c2.776,9.847,8.929,18.196,14.518,26.618c13.357,19.038,28.436,36.782,42.824,55.035c17.352,21.801,37.535,41.058,56.986,60.923
			c-4.407,3.883-8.836,7.71-13.186,11.63c-26.543-29.711-53.405-59.18-81.839-87.091c-5.705-5.671-11.067-11.768-17.707-16.339
			c9.83,18.755,24.61,34.27,36.746,51.528c15.532,22.233,36.747,39.764,52.56,61.749c-6.716,5.983-14.012,11.292-21.89,15.606
			c-15.496-25.515-34.104-48.938-52.523-72.368c-6.527-7.841-11.928-16.699-19.713-23.389
			c-15.568-15.063-29.786-31.568-46.237-45.695c3.678,11.949,12.323,21.271,19.395,31.287
			c23.449,32.851,48.472,64.587,70.793,98.234c5.272,7.821,9.189,16.432,13.673,24.729c-2.249,1.67-4.389,3.332-6.509,5.008
			c-13.108-12.383-25.918-25.117-39.913-36.542c-17.105-14.124-32.676-30.046-50.55-43.217C32.91,445.1,17.66,433.375,2.206,421.928
			c-0.579,0.27-1.742,0.75-2.326,1.012c14.35,17.277,28.947,34.382,44.549,50.534c23.844,26.278,53.215,46.726,77.829,72.217
			c8.984,8.666,10.035,21.686,14.893,32.62c7.052,16.562,13.992,33.368,24.31,48.263c27.72,43.931,55.707,87.724,85.796,130.102
			c9.095,13.314,17.684,27.025,27.947,39.52c12.981,17.181,24.798,35.213,37.666,52.464c20.348,24.14,37.197,51.142,59.145,73.926
			c3.651,3.942,7.056,8.104,10.763,12.036l-0.394,0.39l32.989,45.436l24.319,44.158H768V692.458L718.723,660.459z"/>
		<path d="M352.633,487.122c6-2.276,13.014-0.375,17.972,3.5c4.084,5.185,6.749,11.874,6.468,18.559
			c-0.395,14.737-21.533,23.407-31.889,12.621c-3.526-4.104-7.877-8.628-7.672-14.407
			C338.654,498.714,343.91,489.953,352.633,487.122z"/>
		<path d="M245.954,594.64c9.1-4.483,21.309-1.854,25.999,7.635c6.678,13.26-7.111,29.244-20.933,28.325
			c-8.966-1.381-15.024-9.921-17.255-18.118C233.612,604.807,239.673,598.279,245.954,594.64z"/>
	</g>
	<g id="bounds">
		<rect x="0.034" y="256.637" fill="none" width="767.966" height="767.966"/>
	</g>
</g>
</svg>
