<?xml version="1.0" encoding="utf-8"?>
<!-- Generator: Adobe Illustrator 15.0.2, SVG Export Plug-In . SVG Version: 6.00 Build 0)  -->
<!DOCTYPE svg PUBLIC "-//W3C//DTD SVG 1.1 Basic//EN" "http://www.w3.org/Graphics/SVG/1.1/DTD/svg11-basic.dtd">
<svg version="1.1" baseProfile="basic" xmlns="http://www.w3.org/2000/svg" xmlns:xlink="http://www.w3.org/1999/xlink" x="0px"
	 y="0px" width="530px" height="530px" viewBox="0 0 530 530" xml:space="preserve">
<g id="Layer_1">
	<g>
		<path fill="#008847" d="M561.5,315.5l38.5,25V600H343.5l-19-34.5l-25.773-35.499c-10.498-12.514-21.875-24.306-31.478-37.541
			c-6.963-9.274-13.439-18.902-20.581-28.026c-9.717-12.07-18.125-25.104-27.147-37.659c-7.61-11.486-16.459-22.067-23.644-33.831
			c-24.954-36.791-48.791-74.315-71.756-112.39c-5.624-8.084-9.762-17.034-13.56-26.074c-6.962-14.59-7.788-31.316-6.507-47.189
			c1.206,0.755,2.458,1.518,3.724,2.286c1.441-1.385,2.887-2.768,4.402-4.141c-1.547-2.782-3.255-5.506-4.27-8.506
			c0.896-5.434,4.977-9.647,7.833-14.196c2.678,4.388,5.401,8.76,8.198,13.104c6.198-3.444,12.132-7.42,17.314-12.309
			c-4.653-6.048-9.554-11.896-14.575-17.622c2.133-2.727,4.27-5.476,6.418-8.215c5.521,6.109,11.026,12.232,16.327,18.564
			c3.432-3.048,6.876-6.109,10.262-9.22c-6.197-6.594-12.321-13.23-18.785-19.547c3.445-4.299,6.892-8.628,10.275-13
			c6.139,5.653,12.955,10.511,19.006,16.282c1.472-2.399,3.003-4.799,4.521-7.229c-5.169-6.257-10.189-12.612-15.576-18.667
			c3.269-3.812,6.844-7.333,10.524-10.747c4.226,4.693,8.377,9.496,12.529,14.281c1.621-2.286,3.271-4.553,4.963-6.82
			c-3.624-4.181-7.26-8.328-10.852-12.514c4.4-2.852,8.908-5.58,13.501-8.17c3.253,3.445,6.463,6.953,9.524,10.6
			c0.884-1.663,1.812-3.312,2.769-4.976c-1.907-2.808-3.762-5.635-5.587-8.476c12.499-6.243,26.794-6.657,40.5-7.024
			c14.78,0.399,29.666,3.048,43.342,8.804c7.345,4.575,14.193,9.966,21.464,14.704c8.776,6.569,18.581,11.737,26.734,19.125
			c23.479,20.257,47.143,40.328,71.729,59.229c22.97,17.049,42.312,38.587,66.148,54.544c22.098,15.329,42.752,32.599,63.584,49.558
			L561.5,315.5z"/>
	</g>
	<path d="M275.775,172.886c4.638-1.354,9.981-0.222,13.734,2.841c4.815,5.712,7.188,14.545,3.312,21.376
		c-2.844,3.784-7.317,6.099-11.747,7.379c-8.677,0.869-16.388-6.451-17.758-14.663C264.013,182.574,268.387,174.961,275.775,172.886
		z"/>
	<path d="M191.992,255.61c6.801-2.664,15.369-0.398,18.802,6.375c6.742,12.013-9.438,28.063-21.348,21.072
		c-5.051-3.623-9.878-9.971-8.26-16.488C183.116,261.735,186.972,257.348,191.992,255.61z"/>
</g>
<g id="bounds">
	<rect fill="none" stroke="#000000" stroke-miterlimit="10" width="600" height="600"/>
</g>
</svg>
