<?xml version="1.0" encoding="utf-8"?>
<!-- Generator: Adobe Illustrator 15.0.2, SVG Export Plug-In . SVG Version: 6.00 Build 0)  -->
<!DOCTYPE svg PUBLIC "-//W3C//DTD SVG 1.1 Basic//EN" "http://www.w3.org/Graphics/SVG/1.1/DTD/svg11-basic.dtd">
<svg version="1.1" baseProfile="basic" xmlns="http://www.w3.org/2000/svg" xmlns:xlink="http://www.w3.org/1999/xlink" x="0px"
	 y="0px" width="530px" height="530px" viewBox="0 0 530 530" xml:space="preserve">
<g id="Layer_1">
	<g>
		<path fill="#008847" d="M298.14,530.001c-3.51-3.188-7.069-6.353-10.26-9.869c-12.471-14.199-25.062-28.29-37.75-42.29
			c-5.312-5.239-8.92-11.812-13.021-17.973c-11.47-17.42-23.08-34.76-35.14-51.79c-1.791-2.431-3.16-5.142-4.21-7.97
			c-8.51-21.801-18.271-43.172-25.24-65.541c-4.5-16.449-6.03-33.67-4.91-50.67c2.63-20.581,10-40.069,16.91-59.5
			c6.391-18.221,16.22-35,27.07-50.88c3.029-4.562,7.62-7.69,11.56-11.393c4.29-3.737,8.24-8.04,13.38-10.658
			c14.682-7.939,28.7-17.119,43.86-24.149c9.32-3.72,19.142-6.13,29.012-7.91l-1.999-0.413h18.868
			c21.302,4.15,42.15,10.393,62.41,18.15c11.58,3.72,21.99,10.1,32.87,15.39c23.312,12.143,47.05,23.45,70.399,35.51
			c8.811,5.683,16.737,12.603,25.061,18.973c4.261,3.147,8.04,7.067,12.99,9.18c13.5,7.301,58.5,39.301,58.5,39.301
			s6.5,6.877,11.5,10.877V600H364.725L342.5,572.5"/>
	</g>
	<path d="M380.03,208.956c1.142-0.21,2.55-1.3,3.619-0.43c5.238,4.92,5.84,13.02,3.381,19.45c-2.579,4.89-7.938,7.16-12.608,9.55
		c-3.53,1.479-8.262,2.06-11.301-0.73c-2.312-1.729-4.591-3.487-6.949-5.14c3.021-5.58,6.391-11.09,11.029-15.47
		C371,213.046,375.5,210.826,380.03,208.956z"/>
	<path d="M251.869,330.846c5.181-5.318,11.891-9.279,19.171-10.879c7.778,7.397,4.619,22.647-5.19,26.777
		c-7.14,4.013-16.3,1.562-22.18-3.59C246.13,338.896,248.32,334.346,251.869,330.846z"/>
</g>
<g id="bounds">
	<rect fill="none" stroke="#000000" stroke-miterlimit="10" width="600" height="600"/>
</g>
</svg>
