<?xml version="1.0" encoding="utf-8"?>
<!-- Generator: Adobe Illustrator 15.0.2, SVG Export Plug-In . SVG Version: 6.00 Build 0)  -->
<!DOCTYPE svg PUBLIC "-//W3C//DTD SVG 1.1 Basic//EN" "http://www.w3.org/Graphics/SVG/1.1/DTD/svg11-basic.dtd">
<svg version="1.1" baseProfile="basic" xmlns="http://www.w3.org/2000/svg" xmlns:xlink="http://www.w3.org/1999/xlink" x="0px"
	 y="0px" width="530px" height="530px" viewBox="0 0 530 530" xml:space="preserve">
<g id="Layer_1">
	<path fill="#018847" d="M308.812,183.297c4.128-0.674,8.323-0.525,12.477-1.012c1.762,0.015,3.501,0.375,5.271,0.36
		c6.326,0.133,12.289,2.456,18.146,4.624c3.502,1.602,7.268,2.496,10.896,3.75c4.912,2.283,9.173,5.71,13.896,8.34
		c4.287,2.669,8.249,5.848,12.605,8.406c0.858,0.705,1.717,1.427,2.649,2.06c4.332,2.892,8.479,6.069,12.442,9.447
		c2.576,1.581,4.619,3.873,7.188,5.493c4.311,3.516,8.771,6.845,12.922,10.557c2.035,1.986,4.549,3.396,6.485,5.5
		c2.029,1.669,3.736,3.718,5.893,5.245c0.109,0.21,0.343,0.625,0.455,0.829c0.393,0.168,0.794,0.341,1.215,0.509
		c0.327,0.479,0.669,0.958,1.033,1.433c1.538,1.189,2.892,2.597,4.331,3.906c2.618,2.625,5.635,4.876,7.922,7.82
		c0.188,0,0.56,0.009,0.748,0.009c3.449,3.744,7.417,6.966,11.003,10.575c3.236,2.541,5.997,5.612,8.896,8.521
		c0.183,0.047,0.55,0.137,0.733,0.18c1.564,1.661,3.449,3.079,4.567,5.119c0.217,0.049,0.659,0.155,0.877,0.203
		c0.328,0.441,0.67,0.883,1.027,1.33c1.641,1.324,3.03,2.938,4.693,4.251c0.124,0.179,0.372,0.536,0.496,0.714
		c0.509,0.378,1.021,0.76,1.558,1.145c0.026,0.223,0.083,0.662,0.109,0.883c2.005,1.488,3.722,3.312,5.458,5.101
		c1.261,1.296,2.877,2.287,3.746,3.933c2.554,1.615,4.341,4.133,6.603,6.104c3.385,3.229,6.425,6.813,10.062,9.776
		c0.754,0.639,1.469,1.324,2.193,2.007c0.083,0.164,0.249,0.496,0.332,0.665c2.312,1.553,4.097,3.74,6.116,5.643
		c2.73,2.633,5.188,5.553,8.176,7.913c4.332,4.485,8.856,8.786,13.4,13.062c1.383,2.133,3.541,3.557,5.269,5.383
		c1.167,1.246,2.354,2.49,3.751,3.494c0.175,0.402,0.366,0.812,0.582,1.225c0.209,0.029,0.636,0.104,0.847,0.137
		c7.27,7.26,14.547,14.519,21.799,21.797c1.471,1.334,3.147,2.453,4.415,4.013c4.469,4.259,8.756,8.698,13.146,13.039
		c2.32,2.407,4.964,4.485,7.202,6.979c1.342,1.179,2.566,2.479,3.722,3.849c1.955,1.557,3.651,3.397,5.448,5.144
		c3.948,4.024,7.967,7.989,11.96,11.979c2.111,2.021,3.813,4.424,5.993,6.379c2.134,1.889,3.622,4.361,5.766,6.246
		c1.572,1.39,2.683,3.203,4.188,4.665c2.508,2.399,4.647,5.152,7.155,7.575c2.229,2.877,4.868,5.397,7.249,8.154
		c2.064,1.805,3.464,4.223,5.496,6.062c4.416,4.752,8.637,9.687,12.982,14.51c2.354,2.531,4.354,5.365,6.758,7.859
		c3.012,3.062,5.536,6.551,8.469,9.692c2.912,3.854,6.309,7.311,9.193,11.188c2.903,3.204,5.528,6.646,8.438,9.852
		c1.906,2.771,4.315,5.146,6.219,7.922c2.58,2.839,4.562,6.159,7.234,8.932c0.396,0.656,0.814,1.304,1.26,1.949
		c0.036,58.101,0.014,116.19,0.014,174.284H536.312c-2.491-2.258-4.734-4.76-6.927-7.297c-5.948-6.231-11.239-13.049-17.041-19.419
		c-1.889-2.381-4.185-4.396-6.071-6.771c-1.995-2.438-4.431-4.468-6.336-6.976c-1.151-1.298-2.445-2.464-3.473-3.867
		c-2.771-3.168-5.864-6.038-8.476-9.34c-2.124-2.593-4.66-4.801-6.783-7.386c-4.58-5.183-9.492-10.059-13.925-15.365
		c-1.986-2.028-4.077-3.973-5.897-6.151c-2.269-2.734-4.97-5.07-7.186-7.849c-2.58-2.605-5.249-5.133-7.631-7.928
		c-2.184-2.636-4.698-4.979-6.771-7.69c-1.304-1.271-2.555-2.599-3.636-4.058c-1.935-2.597-4.387-4.738-6.381-7.279
		c-8.845-10.241-17.771-20.414-26.688-30.582c-2.053-3.073-4.653-5.704-6.791-8.709c-3.224-3.889-6.028-8.136-9.461-11.838
		c-1.729-2.114-3.214-4.427-5.051-6.448c-3.577-4.261-6.916-8.707-10.534-12.93c-1.396-2.148-3.37-3.83-4.793-5.947
		c-2.688-2.972-5.408-5.93-7.507-9.354c-4.182-4.402-7.062-9.816-11.064-14.363c-5.59-8.225-12.263-15.663-17.784-23.927
		c-0.279-0.208-0.546-0.412-0.795-0.611c-2.562-3.765-5.53-7.214-8.215-10.884c-2.28-2.66-4.117-5.659-6.361-8.345
		c-1.404-1.741-2.501-3.736-4.152-5.268c-2.864-4.475-6.014-8.797-8.428-13.534c-2.98-3.766-5.028-8.151-7.91-11.976
		c-1.189-2.615-3.027-4.833-4.625-7.189c-2.712-4.187-5.262-8.471-8.023-12.617c-3.007-4.965-6.533-9.599-9.312-14.699
		c-2.455-3.711-5.804-6.873-7.638-10.973c-2.088-3.427-3.527-7.195-5.567-10.646c-0.116-0.322-0.219-0.639-0.304-0.951
		c-0.319-0.387-0.63-0.771-0.922-1.155c-3.627-7.53-7.359-15.021-11.062-22.521c-1.349-2.456-2.188-5.165-3.777-7.486
		c-0.04-0.245-0.12-0.734-0.157-0.984c-2.029-3.147-3.392-6.66-5.219-9.916c-1.782-3.231-2.638-6.838-3.582-10.373
		c-1.687-4.562-3.095-9.224-4.793-13.774c-0.054-1.627-0.183-3.254-0.472-4.854c-0.617-4.867-0.612-9.778-1.033-14.658
		c-0.074-4.194,0.311-8.396,1.021-12.523c0.827-6.143,2.354-12.205,4.787-17.914c0.992-2.679,2.336-5.215,3.298-7.903
		c1.34-4.088,4.534-7.129,6.689-10.772c1.399-2.479,3.849-4.079,5.385-6.453c1.186-1.567,2.795-2.745,4.057-4.252
		c2.416-2.881,5.081-5.559,7.963-7.979c1.648-1.44,2.962-3.258,4.812-4.479c1.742-1.175,3.106-2.827,4.892-3.964
		c1.458-0.913,2.901-1.849,4.366-2.757c2.65-1.255,5.052-2.957,7.671-4.272c5.313-2.893,10.973-5.188,16.868-6.6
		c0.064-0.102,0.198-0.305,0.271-0.408C302.805,184.134,305.823,183.834,308.812,183.297"/>
	<path d="M340.386,237.976c3.23-4.222,8.166-6.895,13.291-8.052c-0.402,3.758-2.239,7.194-4.526,10.135
		c-1.404,1.578-2.911,3.245-4.96,3.955c-2.434,0.922-5.019,1.334-7.584,1.636C337.534,242.951,338.515,240.188,340.386,237.976z"/>
	<path d="M277.757,297.648c2.851-2.244,6.577-2.818,10.099-3.101c-1.172,3.798-3.494,7.263-6.756,9.562
		c-3.06,2.688-7,3.92-10.834,5.019C271.191,304.489,274.312,300.716,277.757,297.648z"/>
</g>
<g id="bounds">
	<rect fill="none" stroke="#000000" stroke-miterlimit="10" width="600" height="600"/>
</g>
</svg>
