<?xml version="1.0" encoding="utf-8"?>
<!-- Generator: Adobe Illustrator 16.0.0, SVG Export Plug-In . SVG Version: 6.00 Build 0)  -->
<!DOCTYPE svg PUBLIC "-//W3C//DTD SVG 1.1//EN" "http://www.w3.org/Graphics/SVG/1.1/DTD/svg11.dtd">
<svg version="1.1" id="Layer_1" xmlns="http://www.w3.org/2000/svg" xmlns:xlink="http://www.w3.org/1999/xlink" x="0px" y="0px"
	 width="886px" height="886px" viewBox="0 0 886 886" enable-background="new 0 0 886 886" xml:space="preserve">
<g id="_x23_009144ff">
	<path fill="#009144" d="M462.948,195.21c18.109-6.58,37.08-10.479,56.052-13.5c12.42,0.84,24.788,2.73,37.028,5.052
		c34.472,7.38,67.812,19.148,100.7,31.658c14.06,6.182,27.479,13.67,41.239,20.472c16.181,8.14,32.188,16.608,48.42,24.64
		c20.04,9.979,40.279,19.56,60.05,30.06c6.36,3.472,13.32,5.882,19.12,10.312c19.54,14.3,38.3,29.63,57.351,44.57
		c0.63,0.02,1.899,0.05,2.529,0.068c0.141,0.812,0.42,2.45,0.562,3.271v354.2c-0.979,10.301-0.369,20.67-0.579,31
		c-0.171,21.989,0.158,43.979-0.25,65.96c-1.182,8.271-0.439,16.66-0.7,24.99c-0.08,19.351,0,38.688-0.05,58.039H489.35
		c-6.319-6.141-13.25-11.67-18.89-18.471c-23.222-26.398-46.672-52.59-70.29-78.62c-5.83-7.988-10.979-16.46-16.392-24.729
		c-19.79-30.029-39.88-59.869-60.63-89.25c-1.811-2.46-3.229-5.189-4.301-8.05c-8.01-20.53-16.779-40.75-24.78-61.29
		c-6.96-17.33-13.818-34.75-19.3-52.62c-3.18-10.069-4.84-20.521-6.6-30.899c-1.78-13.601-3.4-27.311-2.78-41.05
		c0.24-5.32-0.08-10.66,0.45-15.96c1.28-9.58,3.29-19.04,5.45-28.45c1.52-7.58,3.438-15.08,6.068-22.359
		c5.24-16.841,10.99-33.521,17.08-50.061c10.09-29.319,25.44-56.51,42.67-82.17c3.439-4.82,6.342-10.15,10.869-14.07
		c8.29-7.38,16.65-14.688,24.841-22.18c2.449-2.3,5.182-4.28,8.132-5.88c15.368-8.562,30.5-17.53,45.85-26.11
		C438.5,206.95,450.39,200.35,462.948,195.21 M604.52,323.68c-2.319,0.24-4.58,0.96-6.5,2.28c-7.199,4.64-14.189,10.43-17.77,18.408
		c-1.182,3.74-1.352,7.74-1.49,11.642c0.898,4.33,3.18,8.229,4.66,12.38c1.398,4,5.02,6.46,7.938,9.28
		c4.353,3.948,8.801,8.328,14.631,9.92c8.189,0.408,15.899-2.92,23.119-6.41c4.11-1.96,7.371-5.271,10.16-8.812
		c2.41-2.96,2.94-6.87,3.86-10.46c1.58-7.85-1.16-15.71-4.262-22.83c-2.04-3.238-5.488-5.17-8.38-7.55
		c-4.17-3.33-8.489-7.029-13.938-7.858C612.561,323.12,608.5,323.24,604.52,323.68 M417.33,515.57
		c-5.521,1.689-10.54,4.59-15.53,7.43c-0.899,0.632-2.062,1.132-2.51,2.212c-4.36,9.818-7.302,20.658-5.83,31.47
		c1.398,3.761,3.771,7.301,6.938,9.801c4.892,3.229,10.521,5.06,15.949,7.17c6.188,2.479,13.381,2.021,19.28-1.061
		c5.658-2.91,12.05-6.472,14.17-12.881c1.738-8.229,2-17.039-0.61-25.119c-2.369-4.32-6.479-7.302-9.399-11.21
		c-2.698-3.852-7.108-5.802-11.198-7.79C425.038,513.922,420.95,514.49,417.33,515.57z"/>
</g>
<g id="_x23_010101ff">
	<path fill="#010101" d="M604.52,323.68c3.98-0.439,8.041-0.562,12.03-0.01c5.45,0.828,9.771,4.528,13.938,7.858
		c2.892,2.38,6.34,4.312,8.38,7.55c3.102,7.12,5.842,14.98,4.262,22.83c-0.92,3.59-1.45,7.5-3.86,10.46
		c-2.789,3.54-6.05,6.852-10.159,8.812c-7.22,3.49-14.931,6.818-23.12,6.41c-5.83-1.592-10.278-5.972-14.63-9.92
		c-2.92-2.82-6.54-5.28-7.938-9.28c-1.479-4.149-3.762-8.05-4.66-12.38c0.141-3.9,0.311-7.9,1.49-11.642
		c3.579-7.979,10.568-13.771,17.771-18.408C599.939,324.64,602.198,323.922,604.52,323.68z"/>
	<path fill="#010101" d="M417.33,515.57c3.62-1.08,7.708-1.648,11.26,0.021c4.09,1.988,8.5,3.938,11.198,7.79
		c2.922,3.908,7.03,6.891,9.399,11.21c2.61,8.08,2.351,16.891,0.61,25.12c-2.12,6.408-8.512,9.97-14.17,12.88
		c-5.9,3.08-13.092,3.54-19.28,1.061c-5.43-2.11-11.06-3.938-15.949-7.17c-3.171-2.5-5.541-6.04-6.938-9.801
		c-1.472-10.812,1.47-21.649,5.83-31.47c0.448-1.08,1.608-1.58,2.51-2.211C406.79,520.16,411.81,517.26,417.33,515.57z"/>
</g>
<rect fill="none" width="884.42" height="886.002"/>
</svg>
