<?xml version="1.0" encoding="utf-8"?>
<!-- Generator: Adobe Illustrator 15.0.2, SVG Export Plug-In . SVG Version: 6.00 Build 0)  -->
<!DOCTYPE svg PUBLIC "-//W3C//DTD SVG 1.1 Basic//EN" "http://www.w3.org/Graphics/SVG/1.1/DTD/svg11-basic.dtd">
<svg version="1.1" baseProfile="basic" id="Layer_1"
	 xmlns="http://www.w3.org/2000/svg" xmlns:xlink="http://www.w3.org/1999/xlink" x="0px" y="0px" width="530px" height="530px"
	 viewBox="0 0 530 530" xml:space="preserve">
<g id="Layer_1_1_">
	<g>
		<path fill="#008847" d="M298.14,530.001c-3.51-3.188-7.069-6.353-10.26-9.869c-12.471-14.199-25.062-28.29-37.75-42.29
			c-5.312-5.239-8.92-11.812-13.021-17.973c-11.47-17.42-23.08-34.76-35.14-51.79c-1.791-2.431-3.16-5.142-4.21-7.97
			c-8.51-21.801-18.271-43.172-25.24-65.541c-4.5-16.449-6.03-33.67-4.91-50.67c2.63-20.583,10-40.069,16.91-59.5
			c6.392-18.221,16.22-35,27.07-50.88c3.029-4.562,7.62-7.69,11.56-11.393c4.29-3.737,8.24-8.04,13.38-10.658
			c14.683-7.939,28.7-17.119,43.86-24.149c9.32-3.72,19.143-6.13,29.013-7.91l-1.999-0.413h18.867
			c21.303,4.15,42.15,10.393,62.41,18.15c11.58,3.72,21.99,10.1,32.87,15.39c23.312,12.143,47.05,23.45,70.398,35.51
			c8.812,5.683,16.736,12.603,25.062,18.973c4.261,3.147,8.04,7.067,12.989,9.18c13.5,7.301,58.5,39.301,58.5,39.301
			s6.5,6.877,11.5,10.877V600H364.725L342.5,572.5"/>
	</g>
	<path d="M364.699,201.671c5.605-1.34,11.515,0.24,15.688,4.2c9.7,5.65,10.871,22.22,0.932,28.271
		c-4.561,2.564-9.688,4.811-15.022,4.551c-4.479-1.521-7.82-5.221-11.187-8.396c-3.868-5.074-6.303-12.38-2.883-18.354
		C355.169,207.391,359.569,203.501,364.699,201.671z"/>
	<path d="M256.689,313.521c6.62-2.11,12.062,3.68,15.801,8.35c4.016,3.859,3.384,9.949,3.021,15
		c-0.142,5.529-5.53,8.516-9.95,10.516c-5.41,2.51-11.168-0.24-16.18-2.41c-4.33-1.761-7.976-6.104-7.46-10.985
		c0.29-5.24,1.6-10.568,4.146-15.161C249.26,316.471,252.91,314.73,256.689,313.521z"/>
</g>
<g id="bounds">
	<rect x="0" fill="none" width="600" height="600"/>
</g>
</svg>
