<?xml version="1.0" encoding="utf-8"?>
<!-- Generator: Adobe Illustrator 15.0.2, SVG Export Plug-In . SVG Version: 6.00 Build 0)  -->
<!DOCTYPE svg PUBLIC "-//W3C//DTD SVG 1.1 Basic//EN" "http://www.w3.org/Graphics/SVG/1.1/DTD/svg11-basic.dtd">
<svg version="1.1" baseProfile="basic" xmlns="http://www.w3.org/2000/svg" xmlns:xlink="http://www.w3.org/1999/xlink" x="0px"
	 y="0px" width="530px" height="530px" viewBox="0 0 530 530" xml:space="preserve">
<g id="Layer_1">
	<path fill="#018847" d="M315.944,183.94c1.468-0.046,2.938-0.57,4.397-0.137c2.555-0.738,5.167,0.034,7.749,0.101
		c7.231,0.407,13.979,3.288,20.638,5.89c2.633,0.905,5.336,1.608,7.948,2.563c2.537,1.248,4.945,2.766,7.332,4.281
		c1.083,0.642,2.103,1.388,3.05,2.219c0.174,0.021,0.524,0.063,0.703,0.088c4.764,3.055,9.438,6.253,14.07,9.503
		c1.438,0.698,2.597,1.815,3.9,2.719c4.234,2.849,8.292,5.958,12.177,9.271c1.899,1.048,3.335,2.716,5.096,3.963
		c3.854,2.751,7.397,5.896,11.158,8.764c2.548,2.025,4.795,4.413,7.487,6.252c2.988,2.455,5.581,5.371,8.646,7.732
		c0.12,0.213,0.362,0.636,0.481,0.845c0.399,0.173,0.81,0.342,1.217,0.52c0.337,0.474,0.677,0.948,1.021,1.424
		c3.181,2.621,6.022,5.612,9.104,8.346c1.164,0.995,2.176,2.147,3.123,3.35c0.186,0,0.562,0.01,0.752,0.015
		c1.017,1.134,2.076,2.239,3.229,3.25c3.489,3.126,6.724,6.542,10.362,9.496c2.312,2.188,4.37,4.656,6.9,6.611
		c1.765,1.43,3.509,2.979,4.652,4.977c0.216,0.05,0.653,0.156,0.875,0.211c0.337,0.437,0.677,0.877,1.022,1.32
		c1.641,1.324,3.031,2.928,4.688,4.246c0.12,0.176,0.365,0.527,0.489,0.711c0.514,0.37,1.03,0.745,1.542,1.129
		c0.031,0.221,0.094,0.668,0.124,0.891c2.792,2.033,4.905,4.816,7.562,7.01c0.674,0.544,1.172,1.259,1.613,1.996
		c1.028,0.673,2,1.443,2.833,2.354c2.645,2.801,5.554,5.336,8.139,8.188c2.429,2.626,5.244,4.854,7.839,7.315
		c0.083,0.16,0.251,0.49,0.338,0.654c5.206,3.994,9.177,9.376,14.258,13.52c4.32,4.479,8.836,8.771,13.373,13.033
		c1.372,2.129,3.528,3.537,5.242,5.357c1.169,1.248,2.355,2.49,3.75,3.492c0.188,0.408,0.38,0.811,0.58,1.224
		c0.21,0.027,0.635,0.099,0.846,0.134c6.6,6.576,13.181,13.186,19.779,19.762c1.88,2.261,4.475,3.75,6.371,5.988
		c4.984,4.746,9.742,9.727,14.666,14.532c1.874,1.814,3.904,3.479,5.641,5.438c1.339,1.173,2.562,2.469,3.706,3.835
		c2.968,2.45,5.552,5.329,8.302,8.02c3.695,3.826,7.616,7.438,11.229,11.337c2.123,2.755,4.967,4.844,7.036,7.644
		c1.48,1.89,3.454,3.326,4.888,5.264c1.504,1.98,3.49,3.528,5.058,5.464c1.321,1.658,2.959,3.026,4.329,4.646
		c3.354,4.255,7.438,7.874,10.771,12.142c5.021,5.16,9.638,10.694,14.473,16.027c2.276,2.44,4.206,5.186,6.52,7.604
		c3.088,3.131,5.686,6.698,8.679,9.923c2.977,3.916,6.422,7.452,9.368,11.397c2.631,2.812,4.883,5.948,7.521,8.762
		c3.963,5.075,8.105,10.009,11.979,15.155c1.298,1.792,3.525,3.347,3.428,5.777c-0.034,57.507,0,115.015-0.019,172.522H536.696
		c-2.485-2.252-4.727-4.756-6.915-7.286c-5.917-6.199-11.18-12.979-16.945-19.312c-1.84-2.35-4.104-4.312-5.957-6.646
		c-2.031-2.485-4.504-4.568-6.462-7.111c-1.15-1.302-2.441-2.474-3.475-3.876c-1.269-1.414-2.564-2.794-3.863-4.175
		c-3.316-3.349-6.097-7.179-9.521-10.421c-5.106-5.932-10.696-11.431-15.729-17.418c-2.356-2.367-4.756-4.694-6.868-7.278
		c-2.044-2.254-4.284-4.321-6.191-6.692c-2.569-2.596-5.228-5.111-7.6-7.901c-2.171-2.626-4.688-4.964-6.754-7.671
		c-2.444-2.201-4.171-5.032-6.477-7.357c-3.398-3.562-6.386-7.482-9.721-11.098c-3.114-3.357-5.814-7.091-9.112-10.278
		c-1.104-1.852-2.86-3.146-4.132-4.859c-2.955-3.765-6.552-6.992-9.199-11c-3.627-4.211-6.872-8.729-10.354-13.062
		c-1.243-1.584-2.356-3.286-3.843-4.666c-5.635-7.438-11.748-14.504-17.486-21.857c-0.982-1.109-2.062-2.146-2.846-3.409
		c-2.677-2.965-5.393-5.908-7.482-9.328c-4.172-4.394-7.049-9.796-11.04-14.334c-5.581-8.203-12.231-15.621-17.744-23.864
		c-0.266-0.207-0.523-0.41-0.792-0.609c-2.555-3.755-5.519-7.196-8.191-10.857c-2.212-2.565-3.984-5.468-6.146-8.069
		c-1.489-1.807-2.612-3.905-4.339-5.508c-2.934-4.452-5.933-8.876-8.522-13.542c-1.725-2.657-3.618-5.216-5.149-7.996
		c-0.757-1.382-1.664-2.672-2.628-3.914c-1.202-2.592-2.968-4.856-4.666-7.137c-0.063-0.19-0.203-0.578-0.271-0.772
		c-2.597-3.418-4.532-7.269-6.994-10.771c-2.571-4.187-5.362-8.229-8.029-12.351c-1.296-2.312-2.592-4.644-4.374-6.626
		c-1.778-2.533-4.013-4.812-5.19-7.708c-2.038-3.45-3.624-7.14-5.481-10.687c-0.435-0.707-0.854-1.414-1.265-2.127
		c-1.866-3.57-3.493-7.256-5.409-10.799c-2.419-5.458-5.418-10.632-7.783-16.111c-0.441-1.041-1.041-1.998-1.646-2.939
		c-0.042-0.248-0.117-0.738-0.156-0.982c-1.799-2.761-3.015-5.834-4.591-8.726c-1.133-2.118-2.185-4.299-2.841-6.616
		c-0.703-2.201-1.082-4.503-1.974-6.645c-1.433-3.985-2.663-8.043-4.156-12.004c-0.009-2.981-0.782-5.89-0.826-8.869
		c-0.396-3.219-0.094-6.479-0.614-9.688c-0.273-5.047,0.46-10.078,1.192-15.061c1.054-7.151,3.38-14.042,6.396-20.593
		c1.266-2.604,1.876-5.534,3.646-7.874c1.558-2.084,3.032-4.227,4.471-6.392c1.45-2.531,3.953-4.179,5.512-6.629
		c1.711-1.949,3.724-3.627,5.319-5.688c2.856-3.348,6.413-5.973,9.397-9.188c1.435-1.396,3.202-2.385,4.612-3.814
		c1.943-1.833,4.371-3.011,6.553-4.512c0.881-0.447,1.773-0.861,2.632-1.354c6.772-4.175,14.077-7.623,21.854-9.469
		c0.064-0.104,0.198-0.306,0.271-0.407C305.796,185.091,310.848,184.246,315.944,183.94"/>
	<path d="M339.281,229.71c1.061-1.48,2.849-1.757,4.41-2.488c0.851,0.271,1.732,0.557,2.611,0.854
		c2.003-0.074,3.964,0.436,5.839,1.138c1.273,1.48,2.984,2.681,3.72,4.562c0.92,2.165,1.301,4.543,1.306,6.884
		c-0.425,1.782-1.234,3.473-1.379,5.32c-1.834,1.385-3.858,2.484-5.833,3.618c-1.897,0.539-3.91,0.331-5.843,0.27
		c-2.421,0.02-4.221-1.77-6.256-2.771c-1.479-0.65-2.24-2.213-2.569-3.695c-0.298-1.555-0.081-3.19-0.688-4.675
		c0.432-1.658,0.688-3.363,0.826-5.072C336.754,232.353,337.539,230.553,339.281,229.71z"/>
	<path d="M273.268,292.664c2.225-0.05,4.205-1.089,6.289-1.736c2.221,0.162,4.096,1.537,6.006,2.57
		c1.401,0.709,2.015,2.257,2.812,3.525c1.188,1.94,0.723,4.326,0.673,6.479c-0.084,2.373-0.96,4.726-2.624,6.438
		c-1.109,1.065-1.855,2.646-3.404,3.108c-1.84,0.615-3.951,1.386-5.777,0.407c-2.146-1.109-4.717-1.639-6.311-3.564
		c-1.468-1.531-2.677-3.369-3.051-5.482c-0.652-2.367,0.432-4.701,1.271-6.867C270.25,295.716,271.953,294.341,273.268,292.664z"/>
</g>
<g id="bounds">
	<rect fill="none" stroke="#000000" stroke-miterlimit="10" width="600" height="600"/>
</g>
</svg>
