<?xml version="1.0" encoding="utf-8"?>
<!-- Generator: Adobe Illustrator 15.0.2, SVG Export Plug-In . SVG Version: 6.00 Build 0)  -->
<!DOCTYPE svg PUBLIC "-//W3C//DTD SVG 1.1 Basic//EN" "http://www.w3.org/Graphics/SVG/1.1/DTD/svg11-basic.dtd">
<svg version="1.1" baseProfile="basic" xmlns="http://www.w3.org/2000/svg" xmlns:xlink="http://www.w3.org/1999/xlink" x="0px"
	 y="0px" width="530px" height="530px" viewBox="0 0 530 530" xml:space="preserve">
<g id="Layer_1">
	<path fill="#018847" d="M305.359,189.632c1.169-1.438,2.266-2.938,3.382-4.427c1.156,1.207,2.329,2.423,3.547,3.597
		c1.979-0.035,3.984-0.466,5.979-0.19c0.866-0.158,1.761-0.302,2.688-0.434c0.147,0.151,0.45,0.451,0.6,0.602
		c1.286-0.688,2.751-0.584,4.138-0.173c0.54-0.12,1.064-0.197,1.683-0.31c1.229-1.065,2.469-2.132,3.711-3.207
		c0.955,1.212,1.867,2.474,2.87,3.661c0.752,1.059,2.112,1.285,3.279,1.725c2.901,0.831,5.656,2.102,8.536,3.024
		c0.914-0.93,1.861-1.854,2.812-2.773c0.372,1.536,0.766,3.065,1.188,4.597c1.733,0.489,3.375,1.286,5.12,1.791
		c1.5-0.446,2.796-1.385,4.181-2.127c0.208,1.237,0.354,2.503,0.751,3.711c0.252,0.973,1.306,1.316,2.098,1.796
		c1.332,0.683,2.583,1.525,3.75,2.495c1.805-0.075,3.617-0.303,5.436-0.535c0.047,1.39,0.119,2.772,0.229,4.162
		c2.717,1.77,5.402,3.604,7.916,5.659c1.391-0.296,2.769-0.667,4.171-1.041c1.029,2.188,1.265,5.096,3.547,6.429
		c1.396,0.985,2.806,1.969,4.207,2.978c1.327-0.084,2.671-0.182,4.033-0.271c-0.024,0.92-0.041,1.84,0.053,2.755
		c-0.1,1.177,1.198,1.648,1.92,2.356c1.915,1.687,4.131,3.021,5.912,4.877c1.483-0.321,2.962-0.681,4.467-1.043
		c-0.312,1.247-0.578,2.495-0.843,3.746c2.13,1.845,4.299,3.648,6.54,5.378c1.311-0.312,2.651-0.633,3.992-0.96
		c0.146,1.663-0.854,3.958,0.812,5.104c2.062,1.653,3.772,3.781,6.229,4.918c0.921-0.285,1.857-0.559,2.831-0.831
		c-0.366,0.98-0.69,1.963-1.01,2.949c1.466,1.3,2.98,2.553,4.39,3.94c1.207-0.218,2.438-0.433,3.68-0.651
		c-0.43,1.013-0.832,2.024-1.208,3.041c1.779,1.47,3.272,3.254,5.003,4.798c1.026,1.299,2.707,0.093,4.025-0.015
		c-0.142,1.129-0.5,2.275-0.303,3.415c1.301,1.624,2.989,2.894,4.477,4.359c0.723-0.229,1.435-0.465,2.222-0.692
		c-0.168,0.731-0.305,1.474-0.407,2.211c0.983,1.059,1.996,2.093,3.018,3.137c1.391-0.446,2.77-0.913,4.186-1.373
		c-0.49,1.345-0.951,2.691-1.396,4.043c1.34,1.062,2.573,2.251,3.805,3.458c1.164-0.413,2.327-0.838,3.516-1.263
		c-0.222,1.271-0.398,2.548-0.581,3.824c2.549,2.461,4.873,5.155,7.506,7.545c1.356,1.291,3.336,0.347,4.993,0.293
		c-0.124,1.631-0.208,3.269-0.03,4.898c2.721,1.861,4.668,4.626,7.344,6.566c1.188-0.404,2.375-0.805,3.607-1.196
		c-0.594,1.207-1.15,2.415-1.711,3.622c1,0.904,1.979,1.85,2.974,2.794c1.117-0.659,2.261-1.315,3.409-1.978
		c-0.746,1.062-1.482,2.134-2.193,3.215c1.479,1.921,4.038,2.994,4.825,5.412c1.596-0.324,3.152-0.803,4.729-1.303
		c-0.278,1.487-0.729,2.971-0.689,4.497c1.459,1.964,3.474,3.438,5.104,5.271c1.059-0.292,2.129-0.595,3.221-0.896
		c-0.327,1.081-0.718,2.157-0.839,3.281c2.147,2.81,5.304,4.653,7.476,7.461c1.712-0.12,3.422-0.297,5.16-0.47
		c-0.354,1.424-0.682,2.848-0.999,4.271c2.279,2.396,4.615,4.762,6.956,7.113c1.272,0.089,2.514-0.46,3.771-0.736
		c-0.274,1.187-0.787,2.359-0.659,3.592c1.287,1.735,3.038,3.061,4.527,4.631c1.406,1.529,2.881,3.008,4.464,4.378
		c1.127-0.378,2.273-0.747,3.438-1.118c-0.08,1.439-0.128,2.887-0.1,4.339c1.995,2.497,4.389,4.62,6.665,6.86
		c1.262-0.359,2.537-0.729,3.835-1.09c-0.396,1.725-0.916,3.518-0.312,5.263c0.303,0.009,0.906,0.022,1.207,0.026
		c0.102,0.236,0.287,0.723,0.387,0.959c1.265,0.926,2.24,2.242,3.586,3.073c1.104-0.342,2.113-0.94,3.187-1.446
		c-0.095,1.576-0.16,3.153-0.204,4.73c2.028,1.965,3.787,4.232,6.006,6.007c1.683,0.083,3.281-0.717,4.931-1.075
		c-0.646,1.446-1.273,2.896-1.87,4.354c1.558,1.354,2.839,2.998,4.396,4.369c1.855-0.128,3.621-0.818,5.443-1.247
		c-0.562,1.529-1.117,3.052-1.683,4.572c1.637,1.93,3.548,3.604,5.315,5.424c2.013-0.271,4.044-0.562,6.085-0.838
		c-0.183,1.627-0.391,3.254-0.523,4.892c-0.07,0.704-0.229,1.556,0.429,2.071c1.643,1.791,3.415,3.472,5.126,5.219
		c1.633-0.514,3.257-1.061,4.9-1.604c-0.63,1.483-1.228,2.973-1.807,4.467c1.812,1.965,3.854,3.721,5.463,5.869
		c1.984-0.074,3.978-0.271,5.982-0.455c-0.396,1.562-1.212,3.113-1.152,4.724c1.332,1.964,3.271,3.425,4.818,5.223
		c1.876-0.286,3.747-0.638,5.635-0.968c-0.36,1.352-0.756,2.688-1.048,4.052c-0.663,1.963,1.688,3.039,2.772,4.31
		c2.097-0.331,4.19-0.663,6.312-0.986c-0.394,2.16-1.149,4.271-1.197,6.479c0.431,0.636,0.99,1.168,1.56,1.729
		c1.828-0.216,3.676-0.45,5.526-0.688c-0.481,1.752-0.966,3.497-1.413,5.256c1.854,1.67,3.198,3.815,5.045,5.518
		c1.815-0.526,3.645-1.025,5.499-1.521c-0.798,1.724-1.565,3.439-2.276,5.188c1.264,1.26,2.531,2.532,3.77,3.842
		c1.584-0.604,3.159-1.236,4.765-1.854c-1.004,1.434-1.999,2.862-2.968,4.308c0.514,0.549,1.044,1.099,1.612,1.653
		c1.663-0.603,3.334-1.229,5.021-1.845c-0.663,1.771-1.313,3.557-1.897,5.352c1.229,1.228,2.397,2.525,3.494,3.894
		c1.627-0.616,3.254-1.243,4.908-1.86c-0.687,1.637-1.361,3.271-2.036,4.898c0.985,1.4,2.146,2.681,3.38,3.896
		c1.907-0.476,3.815-0.975,5.74-1.48c-0.802,1.753-1.589,3.504-2.363,5.264c1.246,1.607,2.631,3.104,3.986,4.645
		c0.668,0.668,1.162,1.84,2.312,1.729c1.854,0.083,3.712,0.021,5.595,0.122c-0.294,1.731-0.637,3.457-0.848,5.202
		c-0.438,1.249,0.827,2.034,1.521,2.887c1.237,1.227,2.128,2.771,3.449,3.936c1.953,0.075,3.898-0.362,5.863-0.562
		c0.169,2.607-0.083,5.271,0.361,7.857c1.087,2.009,2.854,3.559,4.325,5.299c1.735-0.445,3.498-0.886,5.263-1.316
		c-0.975,1.46-1.935,2.92-2.875,4.389c1.326,1.548,2.595,3.147,3.962,4.675c2.257-0.104,4.519-0.272,6.792-0.451
		c-0.867,1.791-1.717,3.584-2.637,5.335c0.712,1.318,1.652,2.509,2.682,3.621c1.693-0.495,3.399-0.984,5.121-1.465
		c-0.876,1.787-2.183,3.476-2.252,5.537c0.451,0.416,0.972,0.846,1.495,1.272c1.776-0.56,3.543-1.158,5.336-1.751
		c-0.698,1.934-1.371,3.874-2.047,5.808c0.123,0.327,0.377,0.974,0.505,1.299c1.49-1.164,2.95-2.394,4.398-3.627
		c0.007,34.812-0.011,69.62,0.007,104.433c-0.063,23.011,0.64,46.013,0.831,69.021H535.551c0.708-2.917,1.296-5.854,1.896-8.794
		c-2.719-0.407-5.349,0.671-8.01,0.973c0.133-3.022,0.284-6.046,0.436-9.064c-0.908-1.039-1.761-2.108-2.51-3.24
		c-2.658,0.321-5.278,0.845-7.901,1.291c0.617-2.604,1.256-5.207,1.905-7.81c-0.564-0.673-1.144-1.333-1.688-1.979
		c-2.24,0.767-4.463,1.57-6.68,2.368c0.312-2.806,0.65-5.611,0.988-8.409c-2.225-1.938-3.823-4.45-6.04-6.379
		c-2.767,0.03-5.521-0.104-8.267-0.098c0.349-2.503,1.508-5.018,1.242-7.521c-2.127-2.608-4.458-5.062-6.744-7.536
		c-1.896,0.663-3.75,1.406-5.599,2.142c0.623-2.033,1.265-4.062,1.879-6.107c-2.146-2.216-4.155-4.562-6.403-6.66
		c-1.937,0.771-3.858,1.558-5.774,2.334c0.826-1.955,1.663-3.915,2.479-5.878c-1.934-2.191-3.748-4.504-6.002-6.367
		c-2.017,0.544-4.01,1.105-6,1.662c0.115-2.116,0.326-4.223,0.442-6.336c0.251-2.095-1.965-3.177-3.073-4.614
		c-1.604-1.561-2.923-4.224-5.498-4.026c-1.845-0.026-3.679,0.019-5.499,0.014c0.094-2.311,0.183-4.612,0.337-6.912
		c-1.222-2-2.979-3.552-4.615-5.179c-1.752,0.994-3.477,2.021-5.2,3.032c0.196-2.517,0.601-5.013,0.731-7.526
		c0.075-1.15-0.984-1.871-1.642-2.642c-1.831-1.729-3.395-3.696-5.045-5.573c-0.604-0.508-1.15-1.386-2.017-1.111
		c-1.891,0.217-3.746,0.652-5.598,0.967c0.297-2.335,0.954-4.635,1.005-6.991c-1.474-2.505-3.883-4.285-5.479-6.695
		c-2.469,0.182-4.919,0.472-7.36,0.728c0.292-2.731,0.772-5.452,0.766-8.203c-1.41-1.148-2.592-2.529-3.676-3.963
		c-1.575,0.851-3.123,1.733-4.671,2.603c0.039-2.396,0.371-4.789,0.238-7.179c-0.373-1.259-1.299-2.233-2.119-3.188
		c-2.003-2.128-3.695-4.506-5.467-6.812c-2.131,0.459-4.225,1.029-6.308,1.602c0.396-2.047,0.926-4.062,1.317-6.111
		c0.522-2.146-1.643-3.607-2.896-5.01c-0.971-1.188-1.937-2.385-2.826-3.619c-2.018,0.229-4.008,0.562-5.98,0.902
		c0.618-1.613,1.399-3.172,1.934-4.824c0.242-0.669-0.356-1.229-0.652-1.739c-1.002-1.28-2.13-2.449-3.127-3.712
		c-1.727,0.229-3.424,0.5-5.112,0.771c0.285-1.361,0.64-2.705,0.929-4.072c0.021-0.618,0.354-1.336-0.123-1.846
		c-1.701-2.361-3.556-4.612-5.62-6.655c-1.602,0.437-3.185,0.879-4.76,1.326c0.554-1.638,1.128-3.271,1.732-4.895
		c-0.717-0.797-1.413-1.589-2.097-2.379c-1.346-2.257-3.063-4.247-4.765-6.228c-1.815,0.39-3.639,0.802-5.43,1.211
		c0.84-1.711,1.703-3.418,2.498-5.156c-2.104-2.514-3.816-5.324-6.128-7.651c-0.063-0.267-0.192-0.785-0.257-1.048
		c-1.999,0.178-3.975,0.508-5.931,0.822c0.802-1.596,1.618-3.187,2.454-4.771c-1.192-1.776-2.489-3.479-3.847-5.115
		c-1.503,0.662-2.985,1.359-4.452,2.049c0.399-2.037,0.831-4.073,1.23-6.111c-1.549-1.844-2.853-3.863-4.464-5.64
		c-1.67,0.291-3.332,0.562-4.984,0.834c0.544-1.634,1.27-3.214,1.662-4.896c-0.5-1.146-1.392-2.043-2.102-3.032
		c-2.024-2.682-4.072-5.353-6.351-7.817c-1.535,0.354-3.059,0.709-4.562,1.061c0.305-1.915,0.637-3.824,0.96-5.738
		c-0.925-1.466-1.926-2.87-3.061-4.156c-1.658-1.894-2.771-4.266-4.839-5.758c-1.381,0.312-2.761,0.593-4.117,0.871
		c0.527-1.548,1.082-3.086,1.686-4.615c-1.813-3.236-4.172-6.141-5.868-9.438c-1.61,0.337-3.217,0.709-4.801,1.074
		c0.466-1.89,0.955-3.77,1.446-5.65c-1.548-2.938-3.374-5.702-5.354-8.351c-1.429,0.509-2.854,1.009-4.254,1.513
		c0.574-1.94,1.15-3.879,1.583-5.858c-1.949-2.459-3.524-5.181-5.349-7.728c-1.628,0.285-3.259,0.588-4.854,0.895
		c0.677-1.771,1.38-3.537,2.035-5.318c-1.543-2.002-2.578-4.354-4.213-6.272c-0.891-1.121-2.504-0.604-3.703-0.782
		c0.354-0.966,0.724-1.934,1.119-2.893c-1.188-2.07-2.685-3.944-3.748-6.082c-1.737-0.104-3.473-0.164-5.185-0.197
		c0.271-1.812,0.752-3.607,0.798-5.444c-0.693-1.52-2.044-2.643-2.734-4.161c-1.602-0.615-3.325-0.471-4.976-0.451
		c0.642-1.354,1.31-2.701,2.007-4.039c-0.875-2.17-1.826-4.396-3.347-6.186c-1.892-1.152-4.027-1.806-6.013-2.756
		c0.635-1.628,1.59-3.171,1.895-4.909c-0.646-1.934-1.693-3.7-2.626-5.501c-1.653-2.812-2.902-5.83-4.469-8.683
		c-1.612-0.343-3.22-0.638-4.816-0.941c0.482-2.146,1.336-4.284,1.06-6.522c-1.236-1.78-1.913-3.871-3.14-5.65
		c-0.049-0.223-0.139-0.668-0.188-0.895c-0.851-1.306-1.501-2.733-2.449-3.959c-0.875-0.256-1.781-0.326-2.625-0.465
		c0.663-0.318,1.306-0.65,2.019-0.974c-0.978-2.019-2.082-3.957-3.111-5.937c-1.317-0.31-2.638-0.599-3.935-0.867
		c0.875-0.978,2.962-1.691,2.206-3.321c-0.88-2.597-1.455-5.308-2.682-7.772c-1.311-0.217-2.606-0.431-3.883-0.646
		c1.052-0.562,2.128-1.128,3.201-1.704c-1.401-2.922-2.146-6.1-3.491-9.037c-0.088-0.55-0.139-1.104-0.141-1.648
		c-1.479-0.529-2.938-1.06-4.383-1.594c1.316-0.354,2.653-0.711,3.999-1.076c-0.442-3.166-0.787-6.354-0.995-9.549
		c-1.668-0.891-3.345-1.742-5.006-2.597c1.518-0.832,3.048-1.651,4.567-2.515c-0.321-3.543,0.045-7.082,0.237-10.619
		c0.075-0.736,0.191-1.473,0.322-2.211c-1.163-1.134-2.31-2.264-3.438-3.402c1.319-0.271,2.671-0.541,4.023-0.815
		c0.57-3.067,1.043-6.174,2.124-9.124c0.116-0.802,0.836-1.799,0.083-2.495c-0.813-1.035-1.742-1.955-2.608-2.92
		c1.489-0.197,2.997-0.401,4.521-0.604c1.815-3.562,2.684-7.527,4.719-10.986c-0.721-1.075-1.465-2.136-2.176-3.197
		c1.331,0.244,2.7,0.483,4.073,0.699c1.473-2.171,2.938-4.342,4.403-6.528c0.663-0.559,1.337-1.117,2.025-1.691
		c-0.482-1.501-0.979-2.998-1.451-4.494c1.049,0.65,2.119,1.305,3.198,1.956c3.073-2.648,5.399-6.021,8.449-8.7
		c1.717-1.256,0.229-3.399,0.019-5.022c1.619,0.11,3.252,0.218,4.9,0.293c0.865-0.821,1.785-1.61,2.795-2.293
		c1.521-1.043,2.711-2.516,4.28-3.524c1.466-0.965,2.993-1.832,4.507-2.746c3.07-1.57,6.062-3.322,9.094-4.984
		c0.703-1.474,0.637-3.22,0.973-4.815c2.037,0.553,4.002,1.518,6.127,1.756c2.72-0.599,5.315-1.811,8.143-2.013
		c0.062-0.198,0.164-0.401,0.306-0.603C303.224,190.012,304.28,189.808,305.359,189.632"/>
	<path d="M339.874,229.728c1.06-1.48,2.847-1.756,4.41-2.49c0.849,0.274,1.73,0.559,2.61,0.854c2.003-0.074,3.964,0.435,5.838,1.138
		c1.273,1.48,2.984,2.682,3.722,4.562c0.919,2.164,1.299,4.543,1.304,6.883c-0.425,1.782-1.233,3.473-1.379,5.32
		c-1.834,1.384-3.858,2.483-5.833,3.616c-1.896,0.54-3.909,0.332-5.842,0.271c-2.422,0.018-4.222-1.77-6.257-2.772
		c-1.479-0.649-2.239-2.212-2.568-3.694c-0.297-1.556-0.081-3.19-0.688-4.675c0.432-1.658,0.688-3.362,0.825-5.072
		C337.348,232.374,338.132,230.574,339.874,229.728z"/>
	<path d="M273.861,292.68c2.227-0.051,4.207-1.09,6.289-1.738c2.224,0.164,4.099,1.539,6.01,2.57
		c1.398,0.711,2.012,2.258,2.811,3.526c1.188,1.94,0.723,4.325,0.674,6.479c-0.084,2.373-0.959,4.726-2.623,6.438
		c-1.11,1.063-1.856,2.646-3.406,3.108c-1.84,0.613-3.948,1.385-5.777,0.406c-2.146-1.109-4.713-1.638-6.309-3.564
		c-1.467-1.53-2.676-3.37-3.051-5.481c-0.654-2.368,0.433-4.702,1.271-6.868C270.848,295.73,272.549,294.355,273.861,292.68z"/>
</g>
<g id="bounds">
	<rect fill="none" stroke="#000000" stroke-miterlimit="10" width="600" height="600"/>
</g>
</svg>
