<?xml version="1.0" encoding="utf-8"?>
<!-- Generator: Adobe Illustrator 15.0.2, SVG Export Plug-In . SVG Version: 6.00 Build 0)  -->
<!DOCTYPE svg PUBLIC "-//W3C//DTD SVG 1.1 Basic//EN" "http://www.w3.org/Graphics/SVG/1.1/DTD/svg11-basic.dtd">
<svg version="1.1" baseProfile="basic" xmlns="http://www.w3.org/2000/svg" xmlns:xlink="http://www.w3.org/1999/xlink" x="0px"
	 y="0px" width="530px" height="530px" viewBox="0 0 530 530" xml:space="preserve">
<g id="Layer_1">
	<path fill="#008847" d="M561.5,315.5L530,296.993l-0.375,0.378c-0.031-0.221-0.051-0.441-0.086-0.663
		c-3.698-4.651-8.951-7.67-13.368-11.509c-15.882-13.193-31.887-26.266-48.819-38.086c-24.272-16.504-44.018-38.526-67.366-56.193
		c-26.326-20.203-51.104-42.297-76.396-63.732c-8.145-6.14-16.83-11.468-25.061-17.461c-8.815-5.934-17.062-12.882-26.837-17.226
		c-9.835-4.549-19.229-10.085-29.563-13.456c-3.401-1.256-7.035-2.031-10.07-3.989c-4.166-4.152-7.139-9.275-10.57-13.986
		c-6.256-0.988-12.589-1.222-18.86-0.972c5.212,8.435,10.661,16.754,15.625,25.377c-1.473,1.958-2.975,3.915-4.387,5.87
		c-7.539-10.143-15.165-20.213-22.468-30.518c-4.52,0.338-8.953,1.133-13.265,2.414c7.951,13.795,16.594,27.196,24.499,41.031
		c-0.605,1.09-1.797,3.298-2.384,4.388c-12.707-12.94-23.866-27.312-36.364-40.427c-4.198,2.15-8.304,4.447-12.28,6.935
		c11.514,14.939,23.866,29.222,36.202,43.488c-1.708,2.326-3.356,4.636-5.005,6.948c-12.808-15.399-26.573-30.033-42.208-42.606
		c-2.796,2.608-5.521,5.243-8.23,7.893c14.914,16.15,29.532,32.595,42.813,50.13c-1.607,2.208-3.165,4.401-4.726,6.609
		c-16.458-14.28-33.479-27.958-48.629-43.667c-2.503,2.99-4.962,5.994-7.36,9.056c13.795,18.27,29.945,34.553,45.639,51.16
		c-3.445,3.062-6.906,6.092-10.454,8.991c-14.338-16.754-28.825-33.389-43.915-49.466c-1.795,2.163-3.548,4.343-5.256,6.521
		c12.441,17.725,27.914,33.007,41.134,50.13c-5.256,4.861-11.277,8.748-17.417,12.354c-9.981-16.811-21.406-32.682-33.154-48.273
		c-2.532,3.416-5.005,6.875-7.42,10.363c10.172,15.487,21.228,30.505,28.693,47.567c-1.635,1.444-3.223,2.886-4.771,4.329
		c-10.779-10.542-20.905-21.892-33.14-30.771c-0.208,5.816-1.03,11.838,0.428,17.521c6.578,7.623,14.544,13.999,21.022,21.76
		c4.946,5.608,5.549,13.397,8.199,20.124c4.122,11.083,8.555,22.114,14.076,32.582c23.85,40.073,48.348,79.764,74.347,118.468
		c9.509,15.342,20.729,29.504,30.696,44.552c12.705,18.979,26.795,36.968,40,55.607c10.736,15.372,23.734,28.932,35.556,43.461
		h0.006l-0.003,0.002L324.5,565.5l19,34.5H600V340.5L561.5,315.5z"/>
	<path d="M274.593,171.237c4.843-2.18,10.63-0.972,14.912,1.958c5.021,5.83,7.246,15.012,3.197,21.946
		c-3.154,3.699-7.763,6.184-12.484,7.07c-5.019-0.46-10.274-2.3-12.954-6.835C259.901,187.799,265.76,174.741,274.593,171.237z"/>
	<path d="M193.854,252.387c8.496-2.681,17.934,3.812,18.359,12.705c-0.293,8.967-8.465,16.77-17.387,16.887
		c-4.357-0.396-8.054-3.121-10.453-6.609c-2.269-3.221-5.005-7.081-3.476-11.198C183.066,258.584,187.762,253.503,193.854,252.387z"
		/>
</g>
<g id="bounds">
	<rect fill="none" stroke="#000000" stroke-miterlimit="10" width="600" height="600"/>
</g>
</svg>
