<?xml version="1.0" encoding="utf-8"?>
<!-- Generator: Adobe Illustrator 15.0.2, SVG Export Plug-In . SVG Version: 6.00 Build 0)  -->
<!DOCTYPE svg PUBLIC "-//W3C//DTD SVG 1.1 Basic//EN" "http://www.w3.org/Graphics/SVG/1.1/DTD/svg11-basic.dtd">
<svg version="1.1" baseProfile="basic" xmlns="http://www.w3.org/2000/svg" xmlns:xlink="http://www.w3.org/1999/xlink" x="0px"
	 y="0px" width="530px" height="530px" viewBox="0 0 530 530" xml:space="preserve">
<g id="Layer_1">
	<path fill="#018847" d="M322.528,184.973c2.308-0.331,4.602,0.291,6.917,0.325c8.62,0.508,16.32,4.741,24.441,7.214
		c4.1,0.838,7.534,3.312,11.038,5.465c1.071,0.64,2.082,1.382,3.039,2.212c0.176,0.021,0.523,0.063,0.701,0.088
		c2.934,1.944,5.934,3.797,8.797,5.861c1.729,1.312,3.7,2.285,5.287,3.795c0.243,0.04,0.73,0.119,0.977,0.158
		c1.85,2.016,4.336,3.231,6.484,4.883c2.89,2.184,5.797,4.35,8.524,6.736c1.347,0.767,2.502,1.81,3.667,2.841
		c6.201,4.736,12.368,9.547,18.19,14.756c3.838,2.61,6.819,6.26,10.481,9.083c0.108,0.201,0.329,0.606,0.438,0.812
		c0.383,0.167,0.789,0.337,1.213,0.505c0.321,0.478,0.661,0.952,1.027,1.424c3.088,2.547,5.85,5.453,8.84,8.112
		c1.43,1.196,2.493,2.814,4.135,3.77c3.675,3.562,7.485,6.986,11.165,10.547c3.143,2.447,5.783,5.451,8.604,8.252
		c0.182,0.047,0.553,0.135,0.73,0.178c1.56,1.654,3.429,3.066,4.544,5.096c0.223,0.049,0.657,0.155,0.878,0.209
		c0.321,0.438,0.657,0.877,1.021,1.316c1.632,1.322,3.017,2.921,4.671,4.236c0.124,0.176,0.371,0.526,0.495,0.709
		c0.492,0.368,1.015,0.744,1.537,1.125c0.03,0.221,0.095,0.666,0.125,0.887c2.159,1.593,3.95,3.613,5.859,5.496
		c1.151,1.166,2.764,2.024,3.251,3.711c0.234,0.043,0.707,0.129,0.944,0.173c1.752,1.87,3.587,3.665,5.432,5.456
		c3.321,3.137,6.281,6.646,9.804,9.576c0.878,0.775,1.805,1.521,2.624,2.383c0.084,0.164,0.252,0.488,0.341,0.648
		c2.294,1.549,4.065,3.719,6.074,5.608c2.719,2.616,5.166,5.532,8.145,7.88c4.312,4.465,8.812,8.742,13.34,13
		c1.376,2.123,3.529,3.539,5.245,5.363c1.12,1.213,2.329,2.349,3.542,3.484c1.284,1.504,2.938,2.629,4.332,4.031
		c6.31,6.344,12.655,12.65,18.969,18.989c1.46,1.327,3.123,2.438,4.385,3.983c4.52,4.31,8.854,8.801,13.292,13.188
		c2.239,2.319,4.796,4.321,6.957,6.729c1.322,1.174,2.551,2.463,3.695,3.824c1.941,1.545,3.631,3.381,5.413,5.106
		c3.938,4.017,7.938,7.964,11.924,11.938c2.101,2.021,3.804,4.416,5.985,6.37c2.104,1.869,3.583,4.321,5.705,6.188
		c1.646,1.46,2.797,3.37,4.404,4.879c2.271,2.141,4.145,4.658,6.423,6.799c3.109,3.745,6.465,7.288,9.809,10.834
		c1.021,1.333,2.066,2.659,3.326,3.804c4.394,4.731,8.597,9.641,12.925,14.441c2.333,2.521,4.324,5.333,6.715,7.812
		c2.995,3.049,5.515,6.522,8.431,9.651c2.976,3.912,6.42,7.44,9.355,11.391c2.516,2.651,4.632,5.65,7.143,8.314
		c1.484,1.623,2.636,3.523,4.114,5.16c1.131,1.248,2.152,2.58,3.123,3.961c1.032,1.279,2.162,2.483,3.115,3.834
		c1.624,2.416,3.723,4.466,5.338,6.896c0.045,57.841,0.014,115.679,0.019,173.521H537.165c-2.324-2.117-4.465-4.429-6.494-6.823
		c-4.794-5.092-9.309-10.438-13.812-15.789c-4.915-5.509-9.789-11.055-14.876-16.396c-1.343-1.869-3.207-3.275-4.478-5.194
		c-0.12-0.083-0.362-0.247-0.486-0.325c-2.303-2.897-5.126-5.329-7.41-8.235c-2.231-2.839-4.979-5.201-7.271-7.973
		c-4.562-5.165-9.457-10.021-13.868-15.308c-1.905-1.949-3.903-3.804-5.655-5.882c-2.307-2.812-5.081-5.194-7.35-8.036
		c-2.57-2.595-5.229-5.112-7.602-7.896c-2.166-2.624-4.678-4.953-6.735-7.652c-2.438-2.196-4.164-5.022-6.458-7.347
		c-3.543-3.7-6.631-7.799-10.129-11.534c-2.931-3.226-5.522-6.744-8.646-9.784c-1.203-1.924-3.041-3.312-4.366-5.125
		c-1.795-2.117-3.576-4.237-5.482-6.246c-1.849-1.885-3.083-4.248-4.889-6.156c-4.391-5.201-8.188-10.896-12.724-15.963
		c-3.271-4.479-6.936-8.639-10.361-12.989c-1.909-2.629-4.227-4.93-6.104-7.575c-1.148-1.646-2.757-2.929-3.812-4.642
		c-2.674-2.955-5.382-5.896-7.464-9.31c-4.16-4.377-7.03-9.768-11.012-14.293c-3.769-5.461-7.914-10.645-11.974-15.885
		c-1.865-2.688-4.104-5.102-5.727-7.946c-0.341-0.191-0.657-0.383-0.953-0.566c-0.045-0.158-0.142-0.485-0.186-0.648
		c-2.582-3.423-5.271-6.757-7.826-10.191c-2.21-2.562-3.979-5.457-6.137-8.053c-1.485-1.805-2.604-3.892-4.322-5.491
		c-3.138-4.671-6.177-9.408-9.004-14.271c-2.654-3.56-4.583-7.582-7.257-11.111c-1.219-2.729-3.228-4.977-4.776-7.498
		c-1.562-2.479-3.27-4.861-4.707-7.418c-1.346-2.357-3.123-4.455-4.312-6.904c-2.955-4.165-5.764-8.448-8.279-12.893
		c-2.453-3.512-5.599-6.606-7.375-10.543c-2.03-3.439-3.613-7.123-5.468-10.656c-0.439-0.7-0.863-1.406-1.258-2.116
		c-3.833-7.603-7.505-15.275-11.323-22.884c-1.199-2.279-2.004-4.76-3.474-6.891c-0.039-0.248-0.118-0.736-0.156-0.984
		c-1.974-3.039-3.277-6.436-5.047-9.584c-1.849-3.295-2.752-6.977-3.71-10.598c-1.673-4.543-3.078-9.181-4.77-13.715
		c-0.341-5.412-1.347-10.79-1.23-16.232c-0.68-5.639,0.014-11.33,0.932-16.9c1.002-7.266,3.365-14.267,6.424-20.907
		c1.266-2.595,1.86-5.527,3.639-7.861c1.416-1.861,2.656-3.852,4.1-5.699c0.079-0.172,0.232-0.516,0.312-0.684
		c0.929-1.323,1.906-2.629,3.128-3.706c1.491-1.323,2.369-3.182,3.892-4.486c2.319-2.091,4.135-4.662,6.419-6.792
		c1.929-2.062,4.263-3.688,6.142-5.806c1.452-1.667,3.45-2.709,5.024-4.262c1.979-1.934,4.494-3.153,6.768-4.707
		c0.859-0.444,1.748-0.859,2.613-1.347c6.758-4.155,14.025-7.622,21.788-9.433c0.071-0.104,0.213-0.317,0.283-0.423
		c4.579-0.896,9.197-1.663,13.859-2.033C317.984,185.213,320.274,185.308,322.528,184.973z"/>
</g>
<g id="bounds">
	<rect fill="none" stroke="#000000" stroke-miterlimit="10" width="600" height="600"/>
</g>
</svg>
