<?xml version="1.0" encoding="utf-8"?>
<!-- Generator: Adobe Illustrator 15.0.2, SVG Export Plug-In . SVG Version: 6.00 Build 0)  -->
<!DOCTYPE svg PUBLIC "-//W3C//DTD SVG 1.1 Basic//EN" "http://www.w3.org/Graphics/SVG/1.1/DTD/svg11-basic.dtd">
<svg version="1.1" baseProfile="basic" xmlns="http://www.w3.org/2000/svg" xmlns:xlink="http://www.w3.org/1999/xlink" x="0px"
	 y="0px" width="530px" height="530px" viewBox="0 0 530 530" xml:space="preserve">
<g id="Layer_1">
	<g>
		<path fill="#008847" d="M600,348.502V600H356.5c0-6.5-24.042-17.118-29.904-26.207c-5.861-9.089-3.096-19.293-10.096-27.293
			s-17.126-16.502-17.126-16.502c-5.653-7.393-7.522-17.021-13.793-23.967c-6.95-7.82-15.576-13.985-22.262-22.04
			c-5.727-6.938-6.977-16.237-11.511-23.833c-3.769-5.094-10.1-7.51-13.854-12.589c-3.739-6.005-5.271-13.094-8.937-19.108
			c-3.46-4.943-9.479-7.212-13.19-11.912c-3.975-5.562-5.714-12.423-10.026-17.738c-5.035-5.787-12.234-9.438-16.372-16.021
			c-5.344-8.892-6.418-19.549-11.071-28.724c-4.506-6.644-10.983-11.617-16.578-17.271c-8.186-7.287-14.546-16.442-19.213-26.308
			c-4.372-9.924-1.442-20.905-2.605-31.301c-0.768-7.863-7.009-13.777-8.158-21.522c-1.176-7.831-1.043-15.884,0.472-23.646
			c1.503-7.877,6.758-14.323,8.791-22.026c3.15-11.586,11.792-20.729,14.723-32.389c1.486-5.035,2.575-10.395,5.695-14.737
			c2.299-3.327,6.2-4.857,9.807-6.33c12.514-3.83,19.564-15.798,29.887-23.041c6.447-3.957,7.111-13.717,14.972-15.794
			c7.021-2.063,13.469-5.595,20.212-8.423c6.803-3.018,13.736,2.121,20.729,0.828c6.476-0.323,13.191-2.694,19.58-0.52
			c11.086,4.259,19.861,12.677,30.401,17.961c8.098,3.154,16.769,5.007,24.247,9.644c10.981,6.065,15.942,18.564,25.955,25.796
			c6.521,5.24,14.411,8.201,21.79,11.998c8.716,4.768,14.34,13.134,20.491,20.641c5.424,6.875,14.14,9.452,20.939,14.576
			c5.594,5.37,7.566,13.541,13.348,18.771c6.492,4.28,14.269,6.08,20.881,10.202c8.066,4.992,13.885,12.678,20.959,18.86
			c6.243,5.43,14.315,7.965,21.04,12.688c6.052,4.258,8.522,11.91,14.604,16.166c6.039,4.445,13.385,7.33,18.21,13.278
			c0,0,11.961,12.329,19.961,17.329s20.045,7.322,26.522,11.661"/>
	</g>
	<path d="M272.331,172.82c5.167-2.654,11.599-1.576,16.104,1.938c4.944,6.08,7.17,15.609,2.604,22.483
		c-4.268,3.931-10.334,7.906-16.327,5.889c-6.095-0.958-9.906-6.492-12.278-11.689C261.242,184.141,265.559,175.97,272.331,172.82z"
		/>
	<path d="M189.709,255.014c6.609-2.693,15.311-1.517,19.271,4.992c5.742,8.245-0.587,19.783-9.272,22.834
		c-5.255,2.488-11.854,0.736-15.356-3.828c-2.855-3.783-6.375-8.539-4.388-13.529C181.801,261.037,185.189,256.928,189.709,255.014z
		"/>
</g>
<g id="bounds">
	<rect fill="none" stroke="#000000" stroke-miterlimit="10" width="600" height="600"/>
</g>
</svg>
