<?xml version="1.0" encoding="utf-8"?>
<!-- Generator: Adobe Illustrator 15.0.2, SVG Export Plug-In . SVG Version: 6.00 Build 0)  -->
<!DOCTYPE svg PUBLIC "-//W3C//DTD SVG 1.1 Basic//EN" "http://www.w3.org/Graphics/SVG/1.1/DTD/svg11-basic.dtd">
<svg version="1.1" baseProfile="basic" xmlns="http://www.w3.org/2000/svg" xmlns:xlink="http://www.w3.org/1999/xlink" x="0px"
	 y="0px" width="530px" height="530px" viewBox="0 0 530 530" xml:space="preserve">
<g id="Layer_1">
	<g>
		<path fill="#008847" d="M536.5,213l-3.5,17l9,4.5l42,28l16,13.5v324H375.5l-30-35l-37.27-35.002
			c-3.713-3.602-7.554-7.066-10.988-10.907c-4.883,2.761-9.03,6.761-14.24,8.896c-0.688,0.659-1.34,1.329-1.95,2.011h-0.479
			c0.021-0.526,0.052-1.602,0.069-2.131c4.09-4.579,7.938-9.396,12.51-13.551c-2.357-2.699-4.711-5.396-7.027-8.102
			c-2.854,1.79-5.75,3.527-8.898,4.711c2.049-2.531,4.34-4.859,6.658-7.161c-4.289-4.948-8.779-9.729-13.01-14.72
			c-7.012,2.789-13.84,6.08-21.05,8.301c4.947-5.144,11.52-8.261,17.521-11.988c-3.109-3.91-6.681-7.396-9.859-11.24
			c-7.068,2.199-13.979,5.108-21.318,6.304c4.89-5.46,12.34-7.25,18.76-10.264c-1.89-3.021-3.81-6-5.739-8.979
			c-4.479,2.38-8.83,5.009-13.521,6.92c2.6-4.461,7.188-7.011,10.88-10.431c-1.41-3.145-3.59-5.859-5.45-8.739
			c-4.028,2.062-8.1,4.039-12.29,5.729c-0.31-0.119-0.93-0.38-1.238-0.512c3.479-3.25,6.909-6.568,10.682-9.479
			c-2.16-3.409-4.4-6.763-6.762-10.021c-5.108,0.882-9.352,4.119-14.368,5.222c3.188-3.856,7.657-6.271,11.237-9.696
			c-3.067-5.33-6.959-10.134-10.301-15.28c-5.22,0.961-10.279,2.641-15.52,3.422c3.657-3.271,8.39-4.819,12.8-6.819
			c-0.54-1.08-1.102-2.16-1.57-3.229c-3.21,1.062-6.43,2.119-9.778,2.461c2.562-2.262,5.539-3.973,8.562-5.568
			c-1.09-2.67-2.148-5.34-3.21-8.01c-5.97,0.938-11.892,2.356-17.95,2.486c4.46-4.012,10.682-5.091,16.33-6.486
			c-1.3-3.133-2.58-6.264-3.8-9.41c-3.771,1.17-7.45,2.631-11.312,3.42c2.739-3,6.263-5.09,9.791-7.051
			c-3.479-9-7.229-17.898-10.382-27.029c-4.51,1.341-8.909,3.013-13.52,3.921c3.238-3.688,7.92-5.488,12.107-7.851
			c-2.92-8.104-4.681-16.553-5.92-25.053c-5.061,0.383-10.039,2.46-15.141,1.71c4.62-2.647,9.76-4.198,14.602-6.407
			c-1.041-6.771-0.642-13.621-0.951-20.42c-3.947-2.861-9.22-3.771-12.72-7.423c4.38,0.513,8.642,1.711,12.949,2.673
			c0.53-3.41,1.09-6.82,1.62-10.23c-5.859-0.698-12.29-1.188-17.229-4.647c6.108-0.521,12.222,0.271,18.341,0.438
			c0.938-5.08,2.198-10.09,3.829-14.99c-4.472-1.42-9.131-2.52-13.011-5.25c4.761,0.24,9.46,1.11,14.22,1.562
			c2.553-8.104,5.371-16.12,8.263-24.12c-5.4-6.57-11.841-12.44-16.183-19.78c6.592,3.78,12.319,8.853,18.41,13.38
			c0.729-1.62,1.42-3.25,2.189-4.87c-2.08-1.63-4.149-3.25-6.09-5.01c2.52,0.393,5.028,0.92,7.539,1.54
			c2.421-5.14,4.979-10.21,7.729-15.18c-2.938-4.221-6.408-8.28-7.8-13.33c3.79,2.479,6.28,7.09,10.29,8.938
			c5.72-8.142,9.83-17.778,18.108-23.802c-0.729-1.72-1.42-3.438-2.04-5.18c1.392,1.02,2.771,2.08,4.188,3.13
			c2.271-2.01,4.562-4.03,6.87-6.021c-2.352-2.881-5.09-5.528-6.63-8.96c3.479,1.562,6.488,3.948,9.528,6.238
			c5.07-2.8,10.07-5.738,15.132-8.566c-2.271-2.854-4.513-5.764-6.052-9.08c3.278,2.04,6.068,4.729,8.92,7.33
			c11.07-6.03,21.608-13.29,33.642-17.354c-1.296-3.637-2.705-7.237-3.725-10.957c3.399,2.521,5.803,6.05,8.173,9.5
			c5.158-1.188,10.236-2.75,15.486-3.61c5.342-1.026,10.812-0.67,16.229-0.616c0.819-1.974,1.721-3.9,2.75-5.79
			c0.061,2.06,0.12,4.117,0.182,6.17c9.188,1.47,18.262,3.67,27.184,6.33c1.131-2.44,2.479-4.78,4.18-6.894
			c-0.278,2.61-0.641,5.2-1.119,7.771c9.539,2.85,18.933,6.21,28.271,9.67c1.301-2.312,2.75-4.55,4.486-6.562
			c-0.351,2.57-0.882,5.11-1.486,7.63c3.092,1.16,6.141,2.474,9.156,3.87c0.883-4.83,1.649-9.907,4.399-14.1
			c0.601,5.36-0.069,10.74-0.36,16.1c4.75,2.57,9.555,5.054,14.399,7.45c1.781-4.8,2.729-10.01,5.801-14.229
			c-0.28,5.51-1.51,10.92-1.829,16.42c1.868,0.88,3.762,1.77,5.67,2.64c1.014-1.61,2.053-3.229,3.159-4.8
			c-0.1,2.146-0.2,4.3-0.301,6.45c3.531,1.79,7.068,3.59,10.58,5.446c0.83-0.92,1.688-1.84,2.601-2.75
			c-0.13,0.94-0.369,2.82-0.486,3.764c3.539,1.79,7.106,3.54,10.711,5.25c2.682-3.934,5.236-8.04,8.811-11.264
			c-0.83,4.7-2.59,9.15-4.315,13.57c1.985,0.98,3.979,1.97,6.021,2.96c3.188-3.63,5.17-8.31,9.142-11.229
			c-1.328,4.566-3.619,8.76-5.591,13.06c4.591,2.34,9.142,4.771,13.771,7.05c4.106-4.526,7.5-9.85,12.527-13.479
			c-1.617,5.72-5.021,10.68-8.5,15.396c2.791,1.934,5.562,3.9,8.319,5.91c2.25-3.739,4.188-7.71,7-11.09
			c-0.369,4.75-2.01,9.25-3.729,13.65c7.479,5.946,14.975,11.896,22.487,17.81c0.861-1.38,1.791-2.76,2.712-4.13L536.5,213z"/>
	</g>
	<path d="M364.783,201.653c4.275-0.72,9.105-0.63,12.738,2.109c2.633,1.979,5.512,3.787,7.682,6.327
		c3.16,5.644,4.312,12.934,1.16,18.83c-2.975,5.07-8.65,7.48-14.014,9.07c-2.816,0.729-6.105,1.45-8.617-0.41
		c-3.383-2.22-6.434-4.93-9.145-7.89c-3.279-4.95-5.55-11.42-2.699-17.12C354.776,207.673,359.405,203.563,364.783,201.653z"/>
	<path d="M256.704,313.523c4.391-1.621,8.88,1.06,11.97,4.05c2.9,3.409,7.03,6.602,6.95,11.55c0.13,4.729,0.88,10.648-3.16,14.062
		c-4.34,3.604-10.279,6.629-15.979,4.52c-4.681-1.71-10.199-3.09-12.989-7.607c-2.41-3.369-1.55-7.771-0.899-11.562
		c0.893-3.312,1.619-6.812,3.521-9.722C249.284,316.465,252.935,314.725,256.704,313.523z"/>
	<polygon fill="#008847" points="316.5,525.5 298.5,545.5 311.833,538.166 324.5,531.833 	"/>
	<polygon fill="#008847" points="333.833,535.5 323.166,556.833 329.5,554.166 344.333,545.5 	"/>
	<polygon fill="#008847" points="349.231,552.234 337.166,570.166 333.833,576.166 341.638,571.674 354.833,565.166 	"/>
	<polygon fill="#008847" points="366.009,572.366 351.5,588.166 344.333,596.833 352.75,593.5 374.396,582.433 	"/>
	<polygon fill="#008847" points="531.684,252.341 543.518,238.811 555.352,222.981 552.5,233.833 539.652,259.159 	"/>
	<polygon fill="#008847" points="547.202,261.988 560.167,243.5 566.055,239.789 560.624,248.985 553.493,268.5 	"/>
	<polygon fill="#008847" points="560.624,268.5 576.834,250.833 589.5,241.833 581.595,254.145 571.025,276.484 	"/>
	<polygon fill="#008847" points="579.917,285.057 589.5,269.957 594.178,265 587.047,285.057 	"/>
</g>
<g id="bounds">
	<rect fill="none" stroke="#000000" stroke-miterlimit="10" width="600" height="600"/>
</g>
</svg>
