<?xml version="1.0" encoding="iso-8859-1"?>
<!-- Generator: Adobe Illustrator 15.0.2, SVG Export Plug-In . SVG Version: 6.00 Build 0)  -->
<!DOCTYPE svg PUBLIC "-//W3C//DTD SVG 1.1 Basic//EN" "http://www.w3.org/Graphics/SVG/1.1/DTD/svg11-basic.dtd">
<svg version="1.1" baseProfile="basic" id="gallo" xmlns="http://www.w3.org/2000/svg" xmlns:xlink="http://www.w3.org/1999/xlink"
	 x="0px" y="0px" width="768px" height="1024px" viewBox="0 0 768 1024" xml:space="preserve">
<g>
	<g id="Layer_1_1_">
		<path style="fill:#018847;" d="M467.354,389.943c-2.719-1.172-4.979-3.192-6.805-5.499c-2.639-4.123-1.572-9.454-3.807-13.737
			c-2.146-3.342-5.783-5.326-8.275-8.388c-1.242-1.508-1.639-3.515-1.582-5.435c0.096-3.659,0.874-7.372,0.043-11.014
			c-0.727-3.389-3.061-6.07-4.762-9.01c-2.283-3.732-3.833-7.958-4.219-12.339c-0.609-7.116,1.012-14.221,0.33-21.336
			c-0.415-4.413-2.368-8.486-4.645-12.239c-1.768-2.874-3.477-6.042-3.295-9.532c0.392-7.571,3.322-14.804,3.311-22.426
			c0.154-4.084-2.803-7.28-4.673-10.653c-1.104-2.089-3.048-4.254-2.431-6.793c1.355-6.029,5.43-11.158,6.301-17.324
			c-0.512-3.838-3.258-6.873-5.247-10.068c-1.999-2.986-4.239-6.249-4.112-10.017c0.283-5.313,4.264-9.665,4.387-15.019
			c0.328-6.823-6.015-11.678-6.152-18.399c0.227-4.663,2.945-8.759,3.482-13.37c0.19-1.392-0.287-2.757-0.828-4.04
			c-2.107-5.066-3.934-10.27-5.062-15.646c-0.629-3.481-1.641-7.164-0.465-10.655c1.406-4.354,3.461-8.473,5.008-12.783
			c1.049-2.994,2.276-6.31,1.2-9.484c-1.415-4.342-3.642-8.358-5.453-12.54c-1.548-3.49-3.451-7.093-3.179-11.036
			c0.365-7.569,3.225-14.738,4.071-22.251c0.267-2.475,0.45-5.055-0.36-7.469c-1.064-3.201-2.818-6.106-4.271-9.144
			c-1.359-2.793-2.987-5.666-2.923-8.88c0.084-8.189,4.166-15.82,3.84-24.052c-0.615-9.374-5.859-17.798-6.215-27.219
			c0.012-6.363,1.316-12.633,2.18-18.917c0.969-6.331,2.116-12.793,1.045-19.197c-0.917-6.756-3.192-13.282-3.729-20.101
			c-0.438-7.811,1.66-15.435,2.916-23.081c1.084-5.679,0.629-11.505,0.049-17.222c-0.37-3.803-1.477-7.476-2.266-11.215
			c38.453-43.465,76.955-86.884,115.438-130.33l127.863,113.271c-4.582,4.82-5.932,11.681-5.972,18.113
			c-0.009,3.375,1.405,6.513,2.599,9.593c1.686,4.262,3.496,8.604,3.751,13.231c0.175,2.597-0.588,5.111-1.28,7.57
			c-1.327,4.483-2.967,8.88-4.118,13.414c-1.83,6.327-0.29,13.119,2.406,18.959c1.507,3.433,3.72,6.652,4.26,10.43
			c0.25,2.872-0.396,5.73-1.081,8.494c-2.248,8.591-6.438,16.66-7.502,25.553c-0.342,2.511-0.115,5.078,0.678,7.479
			c1.818,5.758,4.545,11.165,6.678,16.799c0.885,2.41,1.786,4.846,2.1,7.4c0.206,2.881-0.26,5.77-0.99,8.543
			c-1.291,4.863-4.071,9.109-6.439,13.481c-1.836,3.411-3.186,7.271-2.895,11.185c0.427,3.413,2.601,6.207,4.115,9.18
			c1.943,3.538,3.856,7.25,4.256,11.324c0.365,3.311-0.42,6.615-1.465,9.728c-1.863,5.501-4.615,10.644-6.629,16.087
			c-0.825,2.236-1.432,4.593-1.34,6.99c0.148,8.238,2.859,16.23,6.611,23.492c0.621,1.034,0.795,2.225,0.453,3.364
			c-1.553,8.372-5.737,15.953-7.549,24.262c-1.486,4.261-2.824,8.577-4.395,12.805c-0.688,1.814-0.303,3.782,0.129,5.601
			c0.858,3.535,2.434,6.89,2.885,10.514c0.275,1.996-0.534,3.947-0.255,5.93c0.596,4.446,2.524,8.588,3.116,13.031
			c0.19,1.367-0.089,2.726-0.326,4.051c-0.852,4.795,1.625,9.596,0.369,14.362c-1.137,4.077-2.604,8.056-3.789,12.112
			c-0.695,3.127-0.736,6.344-1.051,9.514c-0.34,4.534-1.13,9.086-2.959,13.271c-2.144,4.787-5.145,9.109-7.554,13.754
			c-0.682,1.378-1.425,2.812-1.433,4.38c-0.033,2.727,0.507,5.417,0.895,8.09c1.075,6.6,2.101,13.304,1.264,19.987
			c-0.887,7.277-2.657,14.601-6.378,20.987c-3.647,6.579-7.755,13.058-9.659,20.401c-0.913,5.619,0.467,11.367-0.601,16.976
			c-0.437,2.343-1.946,4.269-3.474,6.021c-4.002,4.539-8.7,8.408-12.68,12.969c-4.264,4.877-7,10.801-10.372,16.273
			c-1.939,3.108-4.006,6.273-6.905,8.576c-2.576,1.512-5.644,1.832-8.546,2.312c-4.976,0.741-10.152,0.975-14.817,3.034
			c-6.193,3.245-12.387,6.769-19.271,8.344c-4.013,0.665-7.495-1.992-11.159-3.14c-2.969-1.043-6.125-0.1-9.002,0.817
			c-3.184,1.187-6.67,1.685-10.008,0.884c-3.66-0.612-6.454-3.243-9.738-4.747c-4.057-1.86-8.812,0.177-12.799-1.977
			c-4.474-2.269-6.289-7.285-9.836-10.579C474.007,391.97,470.381,391.448,467.354,389.943"/>
		<path d="M484.776,347.005c-1.775,0.403-3.296-0.573-4.952-1.06c-0.454-0.769-0.924-1.566-1.389-2.372
			c-1.549-1.271-2.678-2.954-3.615-4.723c0.03-1.951-0.455-3.985,0.24-5.882c0.748-2.229,2.04-4.262,3.588-6.018
			c1.5-1.052,3.225-1.781,4.561-3.066c2.291,0.18,4.533,0.697,6.764,1.16c1.776,0.854,3.146,2.345,4.553,3.672
			c1.823,1.59,1.986,4.125,2.844,6.223c0.677,1.466,0.211,3.142-0.526,4.468c-0.81,1.362-2.056,2.442-2.586,3.955
			c-1.423,0.955-2.743,2.062-3.981,3.249C488.42,346.699,486.643,347.527,484.776,347.005z"/>
		<path d="M575.932,343.656c-1.697-1.438-3.869-1.974-5.857-2.869c-1.556-1.598-2.049-3.869-2.794-5.907
			c-0.576-1.459-0.008-3.026,0.234-4.506c0.396-2.239,2.328-3.716,3.792-5.294c1.634-1.721,3.852-2.901,6.232-3.081
			c1.535-0.062,3.143-0.749,4.607-0.069c1.785,0.763,3.875,1.581,4.595,3.528c0.872,2.253,2.442,4.352,2.359,6.851
			c0.084,2.117-0.231,4.297-1.351,6.126c-1.082,2.205-3.441,3.231-5.506,4.299C580.211,343.371,578.025,343.272,575.932,343.656z"/>
	</g>
</g>
</svg>
