<?xml version="1.0" encoding="utf-8"?>
<!-- Generator: Adobe Illustrator 16.0.0, SVG Export Plug-In . SVG Version: 6.00 Build 0)  -->
<!DOCTYPE svg PUBLIC "-//W3C//DTD SVG 1.1//EN" "http://www.w3.org/Graphics/SVG/1.1/DTD/svg11.dtd">
<svg version="1.1" id="Livello_1" xmlns="http://www.w3.org/2000/svg" xmlns:xlink="http://www.w3.org/1999/xlink" x="0px" y="0px"
	 width="768px" height="1024.604px" viewBox="0 0 768 1024.604" enable-background="new 0 0 768 1024.604" xml:space="preserve">
<g id="_x23_010101ff">
	<path fill="#010101" d="M465.498,371.875c19.316-13.318,40.225-25.877,63.735-29.744c17.327-1.229,34.642,1.102,51.628,4.3
		c9.812,4.066,18.848,9.722,28.115,14.854c6.271,3.126,10.718,8.709,15.127,13.986c-13.48-2.131-26.765-7.59-40.568-5.764
		c-21.505,2.404-43.496,4.373-63.394,13.607c2.873,7.247,7.177,13.951,8.908,21.631c4.015,14.962,0.146,31.84-10.95,42.828
		c-7.153,6.686-16.643,11.727-26.652,11.239c-14.061-0.108-29.581-4.12-38.255-16.048c-7.825-13.751-12.851-30.739-7.845-46.276
		C451.186,387.65,458.217,379.537,465.498,371.875z"/>
	<path fill="#010101" d="M109.453,474.371c11.981-4.427,24.631-6.939,37.153-9.198c27.702,0.036,55.405-2.403,83.088-1.247
		c-8.565,7.842-20.618,8.692-31.081,12.596c-15.198,5.802-31.263,8.639-46.895,12.957c-12.378,3.38-22.354,11.854-34.045,16.823
		c7.662,13.065,16.281,27.123,15.612,42.827c-2.095,11.384-5.673,24.323-16.643,30.287c-13.607,6.957-30.358,5.764-43.749-1.122
		c-8.204-6.018-14.817-14.908-15.739-25.315c-1.121-11.872-2.295-25.243,4.645-35.673C72.553,498.387,89.63,483.244,109.453,474.371
		z"/>
	<path fill="#010101" d="M303.008,564.778c2.53-0.107,4.716,0.866,6.342,2.836c0.868,0.309,2.604,0.96,3.472,1.267
		c8.8,18.503,20.815,35.186,31.025,52.874c21.107,31.786,34.969,67.894,57.952,98.468c6.452,8.961,9.437,20.11,17.149,28.207
		c2.891,3.289,6.127,6.289,9.271,9.344c10.479,4.443,22.624,3.233,32.291-2.64c3.162-1.373,6.324-2.801,9.436-4.336
		c0.576,0.125,1.751,0.396,2.348,0.522l0.201-1.463c3.035-1.176,5.873-2.768,8.688-4.41c1.789-1.698,3.599-3.378,5.368-5.096
		c0.542-0.021,1.627-0.056,2.169-0.071l-0.182-2.368l2.312,0.65l-0.018-1.175c1.606-1.393,3.18-2.838,4.734-4.303
		c0.505,0,1.553,0,2.077-0.018l0.146-2.259l2.04,0.434l-0.36-2.438l2.438,0.775l-0.342-1.229c1.279-1.049,3.827-3.146,5.095-4.177
		c0.488,1.445,1.463,4.355,1.951,5.818c-7.065,26.998-14.258,55.242-32.347,77.271c-7.156,7.244-15.993,12.596-23.689,19.28
		c-5.929,5.421-13.968,7.083-21.287,9.794c-7.318,2.964-15.325,1.246-22.968,1.266c-19.209,0.309-36.611-8.929-53.889-16.139
		c-14.816-7.498-27.99-18.433-38.219-31.531c-4.302-5.439-10.861-10.372-10.011-18.124c11.167,6.415,23.292,10.896,34.858,16.551
		c6.596,2.766,13.189,6.2,20.383,6.977c7.535-0.831,15.232-1.79,22.173-5.06c0.522-6.343-0.036-12.759-2.584-18.649
		c-5.999-14.257-11.565-28.731-16.229-43.478c-16.027-42.647-31.46-85.491-46.276-128.572c-1.735-4.191-3.309-8.457-5.168-12.595
		c0.216-0.562,0.632-1.663,0.849-2.206l-2.259-0.07c-0.108-1.428-0.325-4.303-0.435-5.729h-2.187
		c0.163-0.562,0.47-1.684,0.614-2.241c-0.94-2.226-1.809-4.465-2.584-6.741c-0.379-0.035-1.156-0.09-1.535-0.127l0.759-2.963
		L303.008,564.778z"/>
</g>
<g id="_x23_db011cff">
	<path fill="#DA051E" d="M560.73,839.324c29.418-26.42,60.244-51.269,92.721-73.854c-0.072,1.12-0.234,3.361-0.309,4.481
		c-18.83,31.208-41.473,59.833-64.818,87.73c-10.771,13.191-22.392,25.681-34.496,37.644
		c-11.024,11.187-22.246,22.716-36.522,29.727c-24.341,13.57-52.603,17.766-80.067,19.316c-32.545,0.489-65.057,2.079-97.618,2.206
		c-11.691-0.474-23.275-2.296-34.948-3.057c-15.036-1.823-30.341-2.097-45.123-5.654c48.268-6.851,96.786-12.634,144.477-22.95
		c17.005-3.978,33.847-8.708,51.014-11.963c15.286-3.486,31.966-4.824,44.812-14.745C520.45,872.303,541.142,856.474,560.73,839.324
		z"/>
</g>
<rect fill="none" width="768" height="1024.604"/>
</svg>
