<?xml version="1.0" encoding="utf-8"?>
<!-- Generator: Adobe Illustrator 16.0.0, SVG Export Plug-In . SVG Version: 6.00 Build 0)  -->
<!DOCTYPE svg PUBLIC "-//W3C//DTD SVG 1.1 Basic//EN" "http://www.w3.org/Graphics/SVG/1.1/DTD/svg11-basic.dtd">
<svg version="1.1" baseProfile="basic" id="Layer_1"
	 xmlns="http://www.w3.org/2000/svg" xmlns:xlink="http://www.w3.org/1999/xlink" x="0px" y="0px" width="886px" height="886px"
	 viewBox="2245 -59 886 886" xml:space="preserve">
<g id="_x23_010101ff">
	<path fill="#010101" d="M2447.986,100.481c8.374-2.625,17.25-4.057,26.031-3.086c6.372,0.693,12.682,1.777,19.018,2.67
		c2.236,0.303,4.611,0.373,6.58,1.611c10.09,5.791,20.04,11.832,30.216,17.484c0.547,0.043,1.64,0.138,2.192,0.182
		c1.066,0.659,2.15,1.3,3.242,1.924c0.842,0.373,1.725,0.642,2.618,0.901c-0.112,0.459-0.339,1.378-0.45,1.838
		c8.398,7.489,15.949,15.983,22.268,25.294c3.822,5.773,8.373,11.225,10.679,17.839c2.149,5.608,4.161,11.277,5.782,17.068
		c-6.979-5.245-12.465-12.083-18.697-18.117c-7.386-7.394-15.533-13.964-23.482-20.734c-2.072-1.933-4.862-2.688-7.35-3.9
		c-8.365-3.857-16.998-7.047-25.633-10.229c-0.129,4.091,2.393,7.688,2.645,11.745c0.521,8.14,1.57,17.007-2.877,24.323
		c-3.346,6.692-8.253,12.768-15.021,16.201c-6.797,3.71-14.719,3.727-22.234,4.239c-1.846,0.235-3.502-0.676-5.123-1.404
		c-4.924-2.401-10.09-4.29-14.961-6.805c-5.443-5.088-9.439-11.538-13.02-18.03c-2.445-7.047-3.156-14.562-3.572-21.975
		c0.078-5.443,1.093-10.835,2.41-16.105c1.777-3.866,3.719-7.671,5.652-11.467C2438.33,107.243,2442.525,102.813,2447.986,100.481z"
		/>
	<path fill="#010101" d="M2887.324,161.141c8.573-4.49,18.29-6.128,27.764-7.55c10.168,1.421,20.231,3.528,30.234,5.808
		c3.459,0.797,6.796,2.037,10.107,3.294c8.59,5.158,17.146,11.104,22.589,19.729c15.993,24.999,30.616,51.377,38.487,80.172
		c0.477,3.285,1.074,6.7,0.207,9.986c-1.395-3.728-3.979-6.762-6.344-9.882c-10.125-12.673-20.396-25.233-30.469-37.949
		c-7.134-8.998-14.719-17.64-22.676-25.917c-2.565-2.67-5.808-4.542-8.832-6.63c-5.271-3.242-10.178-7.221-15.984-9.483
		c1.119,3.883,2.877,7.533,4.975,10.965c3.633,7.905,1.916,16.79,0.416,24.99c-1.689,7.186-5.096,13.929-9.405,19.894
		c-2.999,4.377-8.313,6.274-13.254,7.35c-10.002-0.425-20.317-1.361-29.437-5.842c-10.41-4.325-18.844-12.786-23.769-22.849
		c-2.531-5.773-3.753-11.972-5.495-17.996c-0.703-1.871,0.329-3.709,0.944-5.442c2.073-4.898,3.866-9.917,6.329-14.642
		c1.309-2.946,4.402-4.369,6.717-6.397C2875.9,168.665,2881.066,164.011,2887.324,161.141z"/>
	<path fill="#010101" d="M2677.165,340.971c4.437-9.994,8.607-20.257,14.788-29.315c0.459,4.222-0.312,8.427-0.494,12.639
		c-1.049,18.307-1.881,36.632-3.363,54.913c-1.734,16.34-3.736,32.653-5.079,49.027c-2.704,19.278-5.505,38.557-7.749,57.895
		c-1.69,9.787-1.491,19.712-1.873,29.603c-0.112,14.207,0.599,28.413,1.855,42.561c6.346,4.604,14.303,7.731,22.242,6.372
		c19.816-3.521,39.076-9.665,58.97-12.804c-12.421,10.211-25.051,20.162-37.672,30.122c-11,8.737-21.982,17.526-33.407,25.709
		c-9.82,5.635-19.677,11.416-30.398,15.204c-11.061,0.979-22.537,1.127-33.217-2.409c-7.541-3.129-14.579-7.359-21.236-12.058
		c-7.559-4.984-14.701-10.636-21.081-17.075c-9.119-9.969-17.829-20.302-26.906-30.313c-10.739-15.144-20.065-31.266-30.954-46.314
		c17.883,6.778,35.81,13.436,53.674,20.258c5.764,2.167,11.624,4.082,17.535,5.816c6.319,1.188,12.768,0.034,19.148,0.043
		c5.496-5.271,10.437-11.338,13.41-18.401c7.975-22.729,17.699-44.919,23.533-68.341
		C2659.049,416.575,2667.682,378.661,2677.165,340.971z"/>
</g>
<g id="_x23_cd031bff">
	<path fill="#CD031B" d="M2358.584,608.947c0.078,0.391,0.225,1.162,0.295,1.543c31.82,8.122,63.33,17.432,94.821,26.733
		c30.763,9.057,61.82,17.024,92.844,25.146c17.371,3.623,34.673,7.636,52.218,10.375c19.069,3.104,38.01,6.935,57.08,10.021
		c22.043,3.449,43.912,7.958,66.033,10.93c43.957,5.729,87.574,13.878,131.593,19.2c11.528,1.611,23.083,3.155,34.698,4.039
		c-10.428,3.546-21.324,5.296-32.055,7.637c-16.79,3.45-33.936,4.786-51.021,5.791c-17.64,1.152-35.323,0.044-52.937-1.093
		c-9.344-0.512-18.559-2.124-27.764-3.71c-39.128-5.33-78.768-4.741-117.947-9.569c-10.854-1.872-21.852-3.241-32.41-6.476
		c-7.775-2.809-16.097-3.536-23.863-6.379c-19.365-5.756-37.949-13.731-56.525-21.592c-14.199-6.52-28.345-13.159-42.371-20.06
		c-7.193-3.909-15.324-5.659-22.492-9.639c-9.58-5.227-19.529-9.77-29.021-15.169c-10.812-6.354-21.273-13.28-31.615-20.362
		c-3.068-2.046-5.938-4.768-9.752-5.244C2358.436,610.543,2358.54,609.477,2358.584,608.947z"/>
</g>
</svg>
