<?xml version="1.0" encoding="utf-8"?>
<!-- Generator: Adobe Illustrator 16.0.0, SVG Export Plug-In . SVG Version: 6.00 Build 0)  -->
<!DOCTYPE svg PUBLIC "-//W3C//DTD SVG 1.1//EN" "http://www.w3.org/Graphics/SVG/1.1/DTD/svg11.dtd">
<svg version="1.1" id="Layer_1" xmlns="http://www.w3.org/2000/svg" xmlns:xlink="http://www.w3.org/1999/xlink" x="0px" y="0px"
	 width="886px" height="886px" viewBox="0 0 886 886" enable-background="new 0 0 886 886" xml:space="preserve">
<g id="_x23_010101ff">
	<path fill="#010101" d="M166.11,115.92c9.66-3.029,19.9-4.68,30.03-3.56c7.351,0.8,14.63,2.05,21.94,3.08
		c2.58,0.35,5.319,0.43,7.59,1.859c11.64,6.681,23.12,13.65,34.859,20.171c0.631,0.05,1.891,0.159,2.53,0.21
		c1.23,0.76,2.48,1.5,3.74,2.22c0.97,0.43,1.99,0.74,3.02,1.04c-0.13,0.53-0.39,1.59-0.52,2.12c9.689,8.64,18.4,18.439,25.689,29.18
		c4.412,6.66,9.662,12.95,12.32,20.58c2.48,6.47,4.802,13.01,6.671,19.69c-8.051-6.051-14.381-13.94-21.568-20.9
		c-8.521-8.53-17.921-16.11-27.091-23.92c-2.39-2.23-5.609-3.101-8.479-4.5c-9.65-4.45-19.61-8.13-29.57-11.8
		c-0.149,4.72,2.76,8.87,3.05,13.55c0.601,9.39,1.811,19.62-3.319,28.06c-3.86,7.721-9.521,14.73-17.33,18.69
		c-7.84,4.28-16.98,4.3-25.65,4.89c-2.13,0.271-4.04-0.78-5.91-1.62c-5.68-2.77-11.64-4.949-17.26-7.85
		c-6.28-5.87-10.89-13.311-15.02-20.8c-2.82-8.13-3.641-16.8-4.12-25.351c0.09-6.279,1.26-12.5,2.78-18.58
		c2.05-4.46,4.289-8.85,6.52-13.229C154.97,123.72,159.81,118.61,166.11,115.92z"/>
	<path fill="#010101" d="M672.949,185.9c9.891-5.18,21.101-7.07,32.029-8.71c11.729,1.64,23.341,4.07,34.881,6.7
		c3.988,0.92,7.84,2.35,11.659,3.8c9.909,5.95,19.779,12.81,26.061,22.76c18.45,28.84,35.319,59.271,44.398,92.49
		c0.552,3.79,1.24,7.73,0.24,11.521c-1.608-4.301-4.59-7.801-7.319-11.4c-11.681-14.62-23.529-29.11-35.148-43.78
		c-8.23-10.38-16.98-20.351-26.16-29.9c-2.96-3.08-6.7-5.239-10.189-7.649c-6.08-3.74-11.739-8.33-18.438-10.94
		c1.29,4.48,3.319,8.69,5.739,12.65c4.188,9.12,2.21,19.37,0.479,28.83c-1.949,8.29-5.88,16.069-10.851,22.95
		c-3.46,5.05-9.591,7.239-15.29,8.479c-11.539-0.49-23.439-1.57-33.96-6.74c-12.011-4.989-21.739-14.75-27.42-26.359
		c-2.92-6.66-4.33-13.811-6.341-20.761c-0.811-2.159,0.381-4.279,1.091-6.279c2.391-5.65,4.46-11.44,7.301-16.891
		c1.51-3.399,5.079-5.04,7.75-7.38C659.77,194.58,665.73,189.21,672.949,185.9z"/>
	<path fill="#010101" d="M430.5,393.36c5.119-11.53,9.93-23.37,17.06-33.82c0.53,4.87-0.358,9.721-0.568,14.58
		c-1.21,21.12-2.17,42.261-3.88,63.351c-2,18.852-4.312,37.67-5.859,56.562c-3.12,22.239-6.351,44.479-8.939,66.79
		c-1.949,11.29-1.721,22.738-2.159,34.148c-0.13,16.392,0.688,32.779,2.14,49.102c7.32,5.311,16.5,8.92,25.66,7.351
		c22.859-4.061,45.08-11.149,68.029-14.771c-14.329,11.778-28.899,23.26-43.459,34.75c-12.69,10.08-25.36,20.22-38.541,29.658
		c-11.329,6.5-22.699,13.17-35.068,17.54c-12.761,1.13-26,1.302-38.32-2.778c-8.7-3.609-16.819-8.49-24.5-13.91
		c-8.72-5.75-16.96-12.271-24.319-19.699c-10.521-11.5-20.568-23.421-31.041-34.971c-12.39-17.47-23.149-36.069-35.71-53.432
		c20.63,7.82,41.311,15.5,61.92,23.37c6.648,2.5,13.408,4.71,20.229,6.71c7.29,1.37,14.729,0.04,22.09,0.052
		c6.34-6.08,12.04-13.08,15.472-21.229c9.198-26.221,20.42-51.82,27.148-78.841C409.6,480.58,419.56,436.841,430.5,393.36z"/>
</g>
<g id="_x23_cd031bff">
	<path fill="#CD031B" d="M62.97,702.51c0.09,0.45,0.26,1.34,0.34,1.779c36.71,9.37,73.061,20.11,109.391,30.841
		c35.489,10.449,71.319,19.64,107.109,29.01c20.04,4.182,40,8.812,60.24,11.972c22,3.58,43.852,8,65.852,11.561
		c25.43,3.979,50.658,9.18,76.18,12.609c50.71,6.608,101.03,16.01,151.811,22.148c13.302,1.859,26.632,3.642,40.03,4.66
		c-12.03,4.09-24.601,6.109-36.979,8.812c-19.37,3.979-39.15,5.521-58.86,6.68c-20.35,1.33-40.75,0.051-61.069-1.26
		c-10.778-0.592-21.41-2.45-32.028-4.28c-45.142-6.149-90.87-5.47-136.069-11.04c-12.521-2.159-25.21-3.739-37.391-7.47
		c-8.972-3.24-18.569-4.08-27.53-7.359c-22.34-6.641-43.779-15.841-65.21-24.91c-16.38-7.521-32.699-15.181-48.88-23.141
		c-8.3-4.51-17.68-6.529-25.949-11.12c-11.051-6.029-22.53-11.271-33.48-17.5C98,727.171,85.93,719.18,74,711.01
		c-3.54-2.358-6.851-5.5-11.25-6.05C62.8,704.35,62.92,703.12,62.97,702.51z"/>
</g>
<rect fill="none" width="886" height="886"/>
<rect fill="none" width="886" height="886"/>
</svg>
