<?xml version="1.0" encoding="utf-8"?>
<!-- Generator: Adobe Illustrator 16.0.0, SVG Export Plug-In . SVG Version: 6.00 Build 0)  -->
<!DOCTYPE svg PUBLIC "-//W3C//DTD SVG 1.1 Basic//EN" "http://www.w3.org/Graphics/SVG/1.1/DTD/svg11-basic.dtd">
<svg version="1.1" baseProfile="basic" id="Livello_1"
	 xmlns="http://www.w3.org/2000/svg" xmlns:xlink="http://www.w3.org/1999/xlink" x="0px" y="0px" width="768px"
	 height="1024.604px" viewBox="0 0 768 1024.604" xml:space="preserve">
<g>
	<g id="_x23_010101ff">
		<path fill="#010101" d="M541.666,353.714c29.473-7.518,61.312-11.945,90.967-2.891c22.336,8.275,43.424,22.588,56.037,43.171
			c1.03,1.807,1.861,3.722,2.53,5.709c-12.85-1.969-24.341-8.746-37.062-11.096c-1.771,13.066-7.59,25.028-14.095,36.322
			c-4.428,6.451-11.169,10.771-17.204,15.597c-5.366,4.66-12.757,5.222-19.426,6.56c-4.843-0.904-9.45-2.729-14.185-4.066
			c-12.487-7.879-20.077-21.125-24.161-35.002c-1.627-7.734-0.416-15.649-0.308-23.474c-19.915-0.777-39.431,5.042-58.656,9.559
			c-10.591,2.223-20.492,7.536-31.353,8.114c0.794-3.614,3.522-5.873,6.035-8.276c3.324-1.879,6.07-4.573,9.197-6.741
			c9.396-7.336,19.533-13.589,29.454-20.148c5.691-3.831,11.675-7.228,17.619-10.644
			C538.576,355.502,540.111,354.599,541.666,353.714z"/>
		<path fill="#010101" d="M146.064,363.002c24.883-6.09,50.489-11.42,76.276-9.667c11.42,1.518,22.624,4.644,33.34,8.872
			c20.33,8.619,29.997,30.539,36.864,50.092c-9.794-2.964-19.408-6.524-29.347-8.981c-3.162,11.746-8.385,22.805-14.583,33.25
			c-3.633,7.121-11.149,10.68-17.474,14.98c-5.295,3.813-11.873,4.646-18.07,6c-10.427-1.971-22.264-3.416-29.275-12.434
			c-12.884-12.758-11.818-32.237-11.312-48.953c-12.866,0.307-25.733,0.524-38.544,1.572c-15.993,0.632-32.672-0.343-47.761,5.891
			c-0.561,0.019-1.716,0.055-2.277,0.072c0.868-0.524,2.639-1.536,3.523-2.06c-0.867-1.048-2.583-3.18-3.433-4.246
			c0.867,0.776,2.602,2.349,3.469,3.144c4.445-4.228,8.602-8.854,13.987-11.927C116.05,379.645,130.488,370.212,146.064,363.002z"/>
		<path fill="#010101" d="M384.994,547.557c0.616,2.313,1.265,4.646,1.915,6.956c4.518,25.318,8.891,50.654,13.535,75.953
			c2.981,24.665,5.584,49.386,9.396,73.962c4.826,24.504,8.151,49.389,15.125,73.421c2.042,6.107,4.482,13.915,11.421,15.938
			c4.86,0.761,9.922,1.048,14.765,0c10.336-2.656,20.854-4.571,30.973-7.987c1.896-0.542,3.778-1.084,5.674-1.643
			c6.019-1.79,11.982-3.869,18.162-5.098c0.234,0.977,0.704,2.929,0.938,3.885c-21.594,23.926-46.099,45.484-73.674,62.254
			c-11.224,6.323-22.933,12.27-35.562,15.162c-16.535-2.008-33.721-3.579-48.665-11.548c-22.154-11.619-40.279-30.342-52.856-51.882
			c-5.403-9.053-10.408-18.449-13.444-28.605c-1.265-0.722-2.476-1.535-3.614-2.438c1.21-1.86,3.072-3.542,4.825-4.935
			c3.578,0.146,6.361,2.692,9.56,3.959c9.632,4.266,19.299,8.421,28.896,12.739c11.041,5.187,23.653,4.627,35.473,3.271
			c9.18-9.47,9.794-23.942,12.451-36.286c3.958-39.685,5.927-79.563,6.686-119.428C378.163,599.202,380.439,573.18,384.994,547.557z
			"/>
	</g>
	<g id="_x23_db011cff">
		<path fill="#DA051E" d="M230.219,919.089c28.497-5.023,57.248-9.253,86.161-10.645c40.297,0.687,80.631,0.992,120.875,3.145
			c20.944,0.397,41.634,3.993,62.45,5.873c21.324,2.331,42.051,8.188,63.248,11.401c-40.551,7.248-80.938,15.687-121.833,20.873
			c-25.948,3.433-51.935,6.576-77.865,10.229c-7.12,0.884-14.33,0.125-21.395-0.903C302.465,953.44,263.975,940.34,230.219,919.089z
			"/>
	</g>
</g>
</svg>
