<?xml version="1.0" encoding="utf-8"?>
<!-- Generator: Adobe Illustrator 16.0.0, SVG Export Plug-In . SVG Version: 6.00 Build 0)  -->
<!DOCTYPE svg PUBLIC "-//W3C//DTD SVG 1.1//EN" "http://www.w3.org/Graphics/SVG/1.1/DTD/svg11.dtd">
<svg version="1.1" id="Livello_1" xmlns="http://www.w3.org/2000/svg" xmlns:xlink="http://www.w3.org/1999/xlink" x="0px" y="0px"
	 width="886px" height="886px" viewBox="0 0 886 886" enable-background="new 0 0 886 886" xml:space="preserve">
<g id="_x23_cd031bff">
	<path fill="#CD031B" d="M667.22,180.26c4.316-3.812,10.311-4.262,15.729-5.302c6.052,0.16,11.979,2.102,17.49,4.521
		c7.959,4.77,15.84,10.188,21.13,17.99c1.239,2.778,2.149,5.698,3.354,8.5c3.17,7.93,2.51,16.618,2.438,24.979
		c0.01,5.82-2.41,11.33-5.261,16.28c-3.329,3.75-7.13,7.09-10.079,11.17c-6.24,3.17-13.131,4.729-19.931,6.13
		c-8.91,1.96-18.104,0.06-26.7-2.38c-14.88-6.49-25.79-21.771-26.05-38.15c-0.28-4.47,2.17-8.42,3.438-12.56
		c1.812-4.91,3.3-10.102,6.354-14.41C654.82,191.09,660.9,185.52,667.22,180.26z"/>
</g>
<g id="_x23_010101ff">
	<path fill="#010101" d="M192.51,179.72c5.62-2.188,11.67-0.899,17.521-0.972c2.854,0.142,5.75-0.13,8.562,0.45
		c6.62,3.35,13.146,6.9,19.45,10.83c3.41,2.14,6.026,5.27,9.29,7.61c3.06,5.08,6.38,10.311,7,16.358
		c0.29,5.33,0.31,10.682,0.47,16.021c0.53,4.489-2.229,8.38-3.6,12.46c-3.2,8.229-8.61,15.99-16.58,20.148
		c-3.684,2.37-7.894,3.71-12.062,4.95c-8.52,0.92-17.42,0.5-25.37-2.96c-5.6-2.37-11.75-4.188-16.106-8.66
		c-6.63-6.438-12.32-13.77-17.974-21.06c-2.938-3.15-2.38-7.87-2.729-11.852c0.51-8.22-2.144-16.96,1.979-24.608
		c4.094-4.24,8.224-8.46,12.61-12.38C179.96,182.02,186.44,181.05,192.51,179.72z"/>
</g>
<rect fill="none" width="886" height="886"/>
</svg>
