<?xml version="1.0" encoding="utf-8"?>
<!-- Generator: Adobe Illustrator 16.0.0, SVG Export Plug-In . SVG Version: 6.00 Build 0)  -->
<!DOCTYPE svg PUBLIC "-//W3C//DTD SVG 1.1 Basic//EN" "http://www.w3.org/Graphics/SVG/1.1/DTD/svg11-basic.dtd">
<svg version="1.1" baseProfile="basic" id="Livello_1"
	 xmlns="http://www.w3.org/2000/svg" xmlns:xlink="http://www.w3.org/1999/xlink" x="0px" y="0px" width="768px"
	 height="1024.604px" viewBox="0 0 768 1024.604" xml:space="preserve">
<g id="_x23_010101ff">
	<path fill="#010101" d="M163.773,382.879c6.054-0.108,12.144,0.542,18.198,0.759c9.451,4.355,19.154,9.342,26.202,17.222
		c7.047,8.601,6.433,20.293,6.072,30.72c-3.217,9.866-7.536,20.709-17.293,25.804c-11.854,7.969-27.558,5.783-39.72-0.307
		c-9.053-3.451-14.384-11.872-20.383-18.938c-2.548-3.523-6.758-6.632-6.18-11.493c0.29-8.673-3.145-18.396,1.861-26.237
		c5.819-5.909,11.331-13.408,20.005-15.017C156.257,384.506,159.979,383.548,163.773,382.879z"/>
	<path fill="#010101" d="M583.246,820.061c10.301-4.317,22.046-1.879,31.877,2.621c11.42,4.104,18.071,14.963,25.444,23.891
		c4.154,4.028,2.817,10.246,3.342,15.449c0.055,6.091,1.428,13.029-2.477,18.323c-4.571,4.283-8.492,9.505-14.021,12.649
		c-11.149,4.97-23.674,5.294-35.582,3.759c-11.312-5.838-24.991-11.456-29.889-24.233
		C554.785,853.275,562.754,827.309,583.246,820.061z"/>
</g>
<g id="_x23_cd031bff">
	<path fill="#CC051D" d="M371.423,606.81c9.758-2.421,20.204-1.189,29.51,2.387c12.144,6.197,21.647,18.288,22.842,32.131
		c1.21,7.625-3.128,14.438-5.296,21.467c-2.132,7.229-8.617,11.637-13.569,16.841c-4.592,3.903-8.838,8.982-15.053,10.156
		c-13.519,4.229-27.106-3.794-36.991-12.45c-12.216-10.824-13.625-28.604-11.854-43.804c1.445-5.114,3.361-10.373,7.519-13.95
		c3.723-3.379,6.505-8.276,11.583-9.794C363.797,608.51,367.61,607.641,371.423,606.81z"/>
</g>
</svg>
