<?xml version="1.0" encoding="utf-8"?>
<!-- Generator: Adobe Illustrator 16.0.0, SVG Export Plug-In . SVG Version: 6.00 Build 0)  -->
<!DOCTYPE svg PUBLIC "-//W3C//DTD SVG 1.1//EN" "http://www.w3.org/Graphics/SVG/1.1/DTD/svg11.dtd">
<svg version="1.1" id="Livello_1" xmlns="http://www.w3.org/2000/svg" xmlns:xlink="http://www.w3.org/1999/xlink" x="0px" y="0px"
	 width="886px" height="886px" viewBox="0 0 886 886" enable-background="new 0 0 886 886" xml:space="preserve">
<path d="M561.93,187.98c3.938-0.86,7.801-2.71,11.898-2.5c6.422,1.78,12.189,5.319,17.87,8.72c2.17,1.44,4.83,2.65,5.932,5.18
	c1.54,3.381,2.64,6.94,3.8,10.471c0.83,2.84,1.82,6.05,0.28,8.84c-2.182,4.55-4.32,9.41-8.271,12.72
	c-4.341,2.84-9.431,4.3-14.4,5.62c-5.061,1.5-10.09-0.69-15.01-1.75c-4.25-0.82-8.398-2.76-11.188-6.17
	c-3.881-4.68-8.262-9.19-10.319-15.04c2.329-5.88,5.56-11.33,8.819-16.72C554.01,193.49,556.97,188.92,561.93,187.98z"/>
<path d="M294.56,189.97c4.28-1.681,9.24-2.021,13.47,0c3.37,1.59,6.779,3.159,9.972,5.119c8.8,7,13.14,19.181,10.311,30.16
	c-0.91,3.04-1.301,7.13-4.75,8.4c-4.461,1.86-8.921,3.87-13.609,5.08c-4.602,0.21-9.239-0.101-13.829-0.38
	c-3.9-1.021-7.722-2.471-11.392-4.141c-4.75-3.729-9.05-8.449-10.62-14.439c-1.59-3.101,0.07-6.431,0.98-9.46
	c1.79-5.7,5.5-10.48,9.11-15.13C286.63,191.89,291.03,191.47,294.56,189.97z"/>
<path fill="#009144" d="M301.98,51.99c17-1.08,34.011-1.92,50.989-3.1c18.33-0.03,36.66-0.091,54.989-0.341
	c31.029,0.211,62.069,0.24,93.079,1.2c19.972-0.08,39.899,1.48,59.819,2.641c28.28,1.189,56.711,3.989,84,11.83
	c6.881,2.1,13.431,5.09,20.062,7.819c10.18,4.311,20.34,9.07,28.93,16.141c8.24,6.72,15.17,14.899,21.53,23.39
	c9.33,12.33,12.688,27.8,16.181,42.54c1.209,6.939,3.81,13.72,3.359,20.85c-0.439,24.34-1.211,48.67-1.432,73.011
	c0,6.229-0.938,12.489,0.08,18.689c0.312,18.11-0.7,36.221-0.938,54.34c-0.04,7.25-1.78,14.341-2.58,21.521
	c-2.819,20.94-6.142,41.79-9.11,62.71c-2.699,14.2-4.06,28.7-8.31,42.57c-5.2,16.479-9.979,33.08-15.36,49.51
	c-1.189,3.82-1.93,7.852-3.979,11.352c-0.147,0.271-0.46,0.811-0.618,1.08c-2.592,6.29-3.842,13.05-6.689,19.25
	c-8.461,19.311-17.59,38.318-26.681,57.34c-7.96,17.091-16.489,33.899-25.45,50.479c-3.55,7.222-8.479,13.62-12.58,20.53
	c-22.06,33.239-44.039,66.55-66.379,99.609c-8.051,9.32-15.591,19.05-23.341,28.62c-13.12,15.101-24.812,31.76-40.602,44.271
	c-7.271,5.511-14.181,11.88-22.858,15.12c-14.82,5.521-31.382,5.97-46.562,1.63c-7.811-1.511-14.84-5.391-21.37-9.8
	c-9.71-5.58-17.13-14.15-25.229-21.729c-16.312-15.351-31.479-31.851-47.34-47.659c-6.78-7.28-14.021-14.149-20.271-21.91
	c-19.46-21.609-38.13-43.949-55.648-67.149c-12.78-17.229-24.3-35.33-35.971-53.318c-5.29-7.972-10.521-16.011-15.479-24.189
	c-9.47-19.62-18.21-39.602-25.97-59.95c-7.12-19.76-13.53-39.771-19.25-59.979c-3.53-11.011-5.41-22.46-8.722-33.521
	c-3.06-11.188-5.158-22.641-7.198-34.05c-1.5-11.57-3.21-23.101-5.2-34.601c-2.07-11.25-2.07-22.74-2.41-34.149
	c-0.15-14.54-1.26-29.061-1.22-43.61c0.09-7.33-0.74-14.63-0.511-21.96c0.939-17.931,0.271-35.92,1.761-53.82
	c1.26-17.03,1.12-34.12,1.818-51.17c0.45-10.54-0.688-21.32,2.25-31.59c2.04-8,4.432-16.021,8.591-23.2
	c4.931-8.57,10.101-17.07,16.369-24.73c5.562-5.909,12.5-10.279,19.19-14.79c3.75-2.279,7.15-5.22,11.29-6.8
	c17.51-6.359,35.92-9.51,54.08-13.34C263.99,56.65,282.9,53.51,301.98,51.99 M421.77,65.75c-6.108,9.181-5.869,20.721-6.619,31.311
	c-1.21,13.319-1.069,26.729-2.431,40.04c-3.391,31.5-7.641,62.91-10.87,94.439c-2.1,21.53-2.811,43.19-5.729,64.641
	c-2.771,11.18-6.881,22.13-7.681,33.71c-1.101,12.7-2.779,25.359-3.188,38.1c-1.4,16.63-0.722,33.34-1.211,50
	c-0.471,11-0.319,22.01-0.05,33.021c0.119,25.149-3.58,50.08-6.029,75.051c-0.53,4.521-0.16,9.17-1.37,13.591
	c-2.399,7.25-5.42,14.29-8.859,21.12c-4.801,9.52-6.881,20.039-9.689,30.238c-1.898,6.642-1.199,13.569-1.34,20.37
	c2.779,2.142,5.721,4.351,9.199,5.159c3.391,0.75,6.671-0.739,9.699-2.069c5.979-2.729,12.03-5.271,18.03-7.948
	c0.511-8.87,0.561-17.75,0.84-26.62c0.239-7.78,3.301-15.28,7.78-21.552c0.229,0.08,0.68,0.262,0.909,0.342
	c4.359,7.818,8.341,15.979,10.71,24.658c2.949,9.66,5.601,19.432,9.631,28.729c7.829-2.46,14.891-6.851,22.13-10.649
	c-1.58-17.068,1.068-34.891,10.278-49.601c9.142,9.2,15.892,20.601,25.86,29.04c4.079-2.891,8.59-5.08,12.899-7.62
	c1.59-15.649-0.262-32.029-7.91-45.979c-4.17-7.291-8.54-14.49-11.819-22.23c-1.74-4.159-3.851-8.38-3.75-13
	c-0.08-9.71,1.25-19.449,0.04-29.14c-1.301-9.932-2.25-19.892-3.641-29.801c-2.729-26.411-6.609-52.681-9.17-79.102
	c-2.58-23.609-4.37-47.29-5.83-70.979c0.271-12.38,1.21-24.74,2.09-37.09c1.82-13.95-0.271-27.971-0.54-41.95
	c-3.062-44.311-5.489-88.66-8.431-132.971c-0.119-2.84,0.301-6.369-2.601-8.05c-4.78-2.109-10.03-3.13-15.221-3.529
	C425.61,61.28,423.26,63.17,421.77,65.75 M620.061,121.92c-21.761,1.931-42.74,8.53-63.11,16.091c-3.96,1.85-7.34,4.67-11.05,6.939
	c-12.61,7.88-25.17,15.9-36.91,25.04c-9.021,7.25-17.979,14.62-26.45,22.49c-3.408,5.42-4.21,12.26-4.188,18.55
	c1.7,14.99,11.08,29.18,24.521,36.149c17.57,10.71,36.2,19.51,54.94,27.93c6.609,2.82,13.22,5.96,20.39,7.09
	c5.54,0.85,11.03,2.09,16.602,2.81c6.8,0.801,13.641-0.229,20.341-1.42c10.05-1.43,19.39-5.729,28.398-10.229
	c8.649-4.28,16.471-9.98,24.461-15.351c4.17-2.829,7.05-7.069,10.13-10.97c6.311-8.08,12.521-16.46,16.311-26.07
	c1.399-3.47,1.1-7.289,1.04-10.949c-0.311-11.07-2.181-22.021-4.101-32.91c-0.58-3.58-1.972-6.95-3.341-10.29
	c-1.601-4.01-4.909-6.96-7.449-10.351c-3.369-3.949-6.13-8.609-10.602-11.449c-7.33-5-14.521-10.2-21.97-15.011
	C639.8,124.62,629.948,121.34,620.061,121.92 M281.13,141.1c-5.32,0.739-10.74,0.16-16.021,1.05c-6.87,2.17-13.479,5.13-20.3,7.46
	c-4.938,1.6-9.358,4.49-13.26,7.86c-6.24,5.8-12.13,12.159-16.19,19.71c-3.64,6.25-5.68,13.239-8.05,20.029
	c-2.1,7.101-5.02,14.21-4.688,21.75c0.35,8.891,3.658,17.271,6.778,25.5c2.08,4.82,4.16,9.73,7.29,13.99
	c3.79,4.51,7.472,9.13,11.75,13.19c1.96,1.989,4.73,2.689,7.29,3.569c8.83,2.771,18.021,4.44,27.28,4.73
	c14.44,0.63,29.38,2.08,43.33-2.63c5.229-1.13,9.529-4.391,14.25-6.69c10.319-5.22,19.779-12.01,28.58-19.49
	c8.75-8.399,17.068-17.529,22.869-28.27c2.398-5.271,4.659-10.96,4.119-16.86c-0.38-4.22-0.431-8.479-1.188-12.64
	c-2.45-5.34-6.189-9.99-9.62-14.73c-3.38-3.92-6.359-8.569-11.22-10.81c-7.92-4.09-15.7-8.45-23.73-12.32
	c-11.39-5.66-23.8-8.76-35.527-13.609C290.55,139.78,285.7,140.63,281.13,141.1 M396.85,662.43
	c-13.979,5.74-28.398,10.262-42.819,14.722c-2.511,0.778-5.159,1.271-7.471,2.59c-4.56,7.511-9.71,14.688-13.72,22.54
	c-2.16,3.938-3.221,8.42-3.312,12.898c11.229,8.592,22.852,16.642,34.54,24.602c13.631,9.568,28.091,18.25,43.971,23.528
	c8.25,3.439,17.159,4.632,26.021,5.15c10.32,0.529,20.721,1.64,31.03,0.279c4.96-0.59,10.21-0.521,14.76-2.892
	c13.03-6.061,25.311-13.619,37.131-21.771c6.239-4.949,8.88-12.739,12.39-19.579c3.722-7.021,7.36-14.08,10.631-21.32
	c2.239-0.949,2.909-3.43,4.051-5.351c1-2.239,2.641-4.329,2.87-6.819c-1.171-2.46-3.421-4.181-5.132-6.238
	c-3.68-3.83-7.021-8.021-11.06-11.5c-7.69-5.802-16.62-9.61-25.36-13.521c-4.351-1.32-8.948-0.841-13.43-1.08
	c-25.62-1.28-51.341-3.898-76.979-1.45C408.57,657.39,402.76,660.341,396.85,662.43z"/>
<path fill="#FFE60B" d="M421.77,65.75c1.49-2.58,3.841-4.47,6.12-6.319c5.188,0.399,10.438,1.42,15.221,3.529
	c2.899,1.681,2.479,5.21,2.601,8.051c2.939,44.311,5.369,88.659,8.431,132.97c0.271,13.979,2.359,28,0.54,41.95
	c-0.88,12.35-1.819,24.71-2.09,37.09c1.46,23.69,3.25,47.37,5.83,70.98c2.561,26.42,6.438,52.689,9.17,79.1
	c1.391,9.91,2.34,19.87,3.641,29.802c1.21,9.688-0.12,19.43-0.04,29.14c-0.101,4.62,2.01,8.841,3.75,13
	c3.279,7.74,7.649,14.939,11.819,22.229c7.648,13.949,9.5,30.329,7.91,45.979c-4.312,2.54-8.82,4.729-12.899,7.62
	c-9.971-8.439-16.721-19.84-25.86-29.04c-9.21,14.711-11.858,32.53-10.278,49.601c-7.239,3.801-14.302,8.189-22.13,10.649
	c-4.03-9.3-6.682-19.069-9.631-28.729c-2.369-8.68-6.352-16.84-10.71-24.658c-0.229-0.08-0.681-0.262-0.909-0.342
	c-4.479,6.271-7.541,13.771-7.78,21.552c-0.279,8.87-0.329,17.75-0.84,26.62c-6,2.68-12.051,5.22-18.03,7.948
	c-3.029,1.33-6.311,2.82-9.699,2.07c-3.479-0.812-6.42-3.021-9.199-5.16c0.141-6.801-0.561-13.729,1.34-20.37
	c2.812-10.199,4.891-20.72,9.689-30.238c3.439-6.83,6.46-13.87,8.859-21.12c1.21-4.421,0.84-9.069,1.37-13.591
	c2.449-24.971,6.148-49.899,6.028-75.051c-0.271-11.01-0.42-22.021,0.051-33.021c0.489-16.66-0.189-33.37,1.211-50
	c0.409-12.739,2.09-25.399,3.188-38.1c0.8-11.58,4.909-22.53,7.681-33.71c2.92-21.45,3.631-43.11,5.729-64.641
	c3.229-31.529,7.479-62.939,10.87-94.439c1.359-13.311,1.221-26.721,2.431-40.04C415.9,86.47,415.659,74.93,421.77,65.75z"/>
<path fill="#FFE60B" d="M620.061,121.92c9.89-0.58,19.739,2.7,27.959,8.091c7.45,4.811,14.641,10.01,21.971,15.01
	c4.472,2.84,7.229,7.5,10.602,11.45c2.54,3.39,5.85,6.34,7.448,10.351c1.37,3.34,2.762,6.71,3.342,10.29
	c1.92,10.89,3.79,21.84,4.101,32.91c0.06,3.66,0.359,7.479-1.041,10.95c-3.789,9.609-10,17.989-16.31,26.069
	c-3.08,3.9-5.96,8.141-10.131,10.97c-7.989,5.37-15.812,11.07-24.461,15.351c-9.01,4.5-18.351,8.8-28.398,10.229
	c-6.7,1.19-13.54,2.221-20.34,1.421c-5.569-0.721-11.062-1.961-16.602-2.811c-7.17-1.13-13.778-4.271-20.391-7.09
	c-18.739-8.42-37.37-17.22-54.939-27.93c-13.438-6.971-22.818-21.16-24.521-36.149c-0.021-6.29,0.78-13.13,4.188-18.55
	c8.472-7.87,17.432-15.24,26.45-22.49c11.739-9.14,24.3-17.16,36.91-25.04c3.71-2.271,7.09-5.09,11.05-6.939
	C577.32,130.45,598.3,123.85,620.061,121.92 M574.618,167.08c-4.58,0.271-9.17,0.3-13.729,0.71c-7.21,0.49-13.64,4.13-20.109,7.03
	c-7.971,4.85-15.641,10.22-22.979,16c-2.66,1.899-3.79,5.05-5.09,7.899c-3.222,5.521-1.9,12.189-1.53,18.22
	c4.7,7.87,9.931,16.22,18.398,20.51c9.771,4.92,19.49,10,29.682,14.03c3.08,1.12,6.391,1.43,9.59,2.109
	c4.688,0.79,9.33,2.511,14.15,1.94c8.868-1.09,17.788-1.771,26.618-3.101c5.819-1.75,10.222-6.21,14.79-9.99
	c3.682-3.38,8.189-6.4,9.87-11.351c1.88-5.3,3.352-10.729,4.779-16.159c2.07-8.11,4.641-16.811,1.88-25.07
	c-1.909-5.9-7.43-9.32-12.409-12.39c-9.41-6.16-20.771-7.95-31.62-9.881C589.561,166.13,582.038,166.68,574.618,167.08z"/>
<path fill="#FFE60B" d="M281.13,141.1c4.57-0.471,9.42-1.32,13.74,0.79c11.729,4.85,24.14,7.949,35.528,13.609
	c8.029,3.87,15.812,8.23,23.729,12.32c4.858,2.24,7.84,6.89,11.22,10.81c3.431,4.74,7.17,9.391,9.62,14.73
	c0.761,4.16,0.811,8.42,1.189,12.64c0.539,5.9-1.722,11.59-4.12,16.86c-5.801,10.74-14.119,19.87-22.869,28.27
	c-8.801,7.48-18.261,14.271-28.58,19.49c-4.721,2.3-9.021,5.561-14.25,6.69c-13.95,4.71-28.89,3.26-43.33,2.63
	c-9.26-0.29-18.45-1.96-27.28-4.73c-2.56-0.88-5.33-1.58-7.29-3.569c-4.278-4.061-7.96-8.681-11.75-13.19
	c-3.13-4.26-5.21-9.17-7.29-13.99c-3.12-8.229-6.43-16.609-6.778-25.5c-0.33-7.54,2.59-14.649,4.688-21.75
	c2.37-6.79,4.41-13.779,8.05-20.029c4.062-7.551,9.95-13.91,16.19-19.71c3.9-3.37,8.32-6.261,13.26-7.86
	c6.82-2.33,13.431-5.29,20.3-7.46C270.39,141.26,275.81,141.84,281.13,141.1 M298.24,173.29c-12.55,2.09-24.979,4.86-37.34,7.84
	c-4.479,0.761-7.83,3.98-11.56,6.271c-4.42,2.899-9.49,5.35-12.45,9.93c-1.91,5.78-2.59,12.53,0.36,18.101
	c3.56,7.59,6,16.109,12.2,22.09c4.6,4.46,9.09,9.38,15.078,11.979c6.302,2.88,12.53,6.181,19.352,7.63
	c13.979,0.21,27.101-5.3,40.199-9.479c6.521-2.351,13.529-4.061,18.989-8.57c7.521-5.859,11.54-14.77,16.102-22.87
	c2.199-4.41,5.46-9.06,4.04-14.25c-1.86-10.29-11.222-17.26-20.631-20.35C328.42,176.64,313.56,170.13,298.24,173.29z"/>
<path fill="#FFE60B" d="M114.71,233.76c5.028-3.801,10.528-7.271,16.79-8.57c-1.49,17.899-0.82,35.89-1.76,53.82
	c-0.23,7.329,0.6,14.63,0.51,21.96c-0.04,14.55,1.068,29.069,1.22,43.609c0.34,11.41,0.34,22.9,2.41,34.15
	c1.99,11.5,3.7,23.03,5.2,34.6c2.04,11.41,4.14,22.86,7.198,34.051c-6.26,2.17-12.618,4.102-19.13,5.352
	c-1.79,0.38-3.568-0.222-5.3-0.602c-6.55-1.78-13.2-3.261-19.53-5.721c-8.85-3.649-18.04-7.029-25.488-13.239
	c-5.37-4.71-9.42-10.65-13.79-16.25c-7.45-10.82-15.84-21.381-19.95-34.04c-2.94-6.61-2.33-14.021-1.9-21.04
	c0.512-10.99,1.66-21.96,3.78-32.75c3.37-14.08,9.86-27.13,15.78-40.261c1.55-3.85,4.35-6.96,6.87-10.18
	C81.72,262.11,97.59,247.13,114.71,233.76z"/>
<path fill="#FFE60B" d="M733.51,265.63c4.24-1.6,8.93-2.949,13.46-1.75c8.22,2.061,14.83,7.641,21.25,12.87
	c2.568,2.09,4.818,4.54,6.729,7.25c10.45,14.351,20.859,28.761,30.16,43.891c4.689,7.68,8.43,15.91,11.521,24.35
	c1.21,5.851,1.688,11.83,2.408,17.761c1.521,10.79-0.96,21.6-3.568,32.02c-3.72,15.8-8.409,31.36-13.7,46.7
	c-5.84,13.24-15.539,24.29-25.489,34.609c-5.028,5.46-10.99,10.091-17.438,13.74c-9.92,3.778-19.449,8.46-29.16,12.729
	c-5.109,2.609-11.05,1.771-16.529,1.34c-6.59-1.12-13.359-0.84-19.859-2.479c2.051-3.5,2.789-7.529,3.979-11.352
	c5.381-16.43,10.16-33.028,15.36-49.51c4.25-13.87,5.608-28.37,8.311-42.57c2.97-20.92,6.29-41.771,9.109-62.71
	c0.8-7.18,2.54-14.271,2.58-21.521c0.238-18.119,1.25-36.229,0.938-54.34L733.51,265.63z"/>
<path fill="#FFE60B" d="M478.07,679.631c4.54-1.29,9.42-1.99,14.021-0.58c9.108,2.689,18.438,4.949,27.021,9.142
	c0.79,1.061-0.641,2.148-0.931,3.17c-6.989,11.618-11.829,24.659-20.88,34.909c-7.71,3.801-15.771,6.881-23.682,10.271
	c-3.608,1.7-7.688,1.188-11.561,1.45c-11.75,0.891-23.409-1.512-34.92-3.53c-21.38-3.85-41.979-10.859-62.938-16.359
	c0.659-4.05-0.102-8.93,2.619-12.29c8.29-4.698,18.069-5.13,27.182-7.188c17.05-3.439,34.148-6.58,51.158-10.229
	C456.19,685.69,467.1,682.56,478.07,679.631z"/>
<path fill="#CB021A" d="M574.618,167.08c7.42-0.399,14.939-0.95,22.29,0.51c10.852,1.931,22.21,3.721,31.62,9.881
	c4.979,3.069,10.5,6.489,12.409,12.39c2.761,8.26,0.19,16.96-1.88,25.07c-1.43,5.43-2.899,10.859-4.78,16.159
	c-1.68,4.95-6.188,7.971-9.869,11.351c-4.568,3.78-8.971,8.24-14.79,9.99c-8.83,1.33-17.75,2.01-26.619,3.1
	c-4.819,0.57-9.461-1.15-14.149-1.94c-3.199-0.68-6.51-0.989-9.59-2.109c-10.189-4.03-19.91-9.11-29.682-14.03
	c-8.471-4.29-13.699-12.64-18.398-20.51c-0.37-6.03-1.689-12.7,1.529-18.22c1.301-2.851,2.431-6,5.091-7.9
	c7.34-5.78,15.01-11.15,22.979-16c6.471-2.9,12.899-6.54,20.109-7.03C565.448,167.38,570.038,167.35,574.618,167.08 M561.93,187.98
	c-4.96,0.939-7.92,5.51-10.59,9.37c-3.262,5.39-6.49,10.84-8.82,16.72c2.061,5.85,6.439,10.36,10.32,15.04
	c2.79,3.41,6.938,5.35,11.188,6.17c4.92,1.06,9.95,3.25,15.01,1.75c4.972-1.32,10.062-2.78,14.399-5.62
	c3.95-3.31,6.091-8.17,8.271-12.72c1.54-2.79,0.55-6-0.28-8.84c-1.159-3.53-2.26-7.09-3.8-10.471
	c-1.102-2.529-3.762-3.739-5.932-5.18c-5.681-3.4-11.448-6.939-17.87-8.72C569.73,185.27,565.868,187.12,561.93,187.98z"/>
<path fill="#CB021A" d="M298.24,173.29c15.319-3.16,30.182,3.351,44.341,8.32c9.409,3.09,18.771,10.06,20.631,20.35
	c1.42,5.19-1.841,9.84-4.04,14.25c-4.562,8.101-8.58,17.011-16.102,22.87c-5.46,4.51-12.471,6.22-18.989,8.57
	c-13.101,4.18-26.221,9.689-40.199,9.479c-6.82-1.449-13.05-4.75-19.352-7.63c-5.988-2.6-10.479-7.52-15.078-11.979
	c-6.2-5.98-8.642-14.5-12.2-22.09c-2.95-5.57-2.271-12.32-0.36-18.101c2.96-4.58,8.03-7.03,12.45-9.93
	c3.729-2.29,7.08-5.51,11.56-6.271C273.26,178.15,285.69,175.38,298.24,173.29 M294.56,189.97c-3.53,1.5-7.93,1.92-10.358,5.21
	c-3.61,4.649-7.32,9.43-9.11,15.13c-0.91,3.029-2.57,6.359-0.98,9.46c1.57,5.99,5.87,10.71,10.62,14.439
	c3.67,1.67,7.49,3.12,11.392,4.141c4.59,0.279,9.229,0.59,13.829,0.38c4.688-1.21,9.148-3.22,13.609-5.08
	c3.449-1.271,3.84-5.36,4.75-8.4c2.829-10.979-1.511-23.16-10.311-30.16c-3.189-1.96-6.602-3.529-9.972-5.119
	C303.8,187.95,298.84,188.29,294.56,189.97z"/>
<path fill="#CB061D" d="M396.85,662.43c5.91-2.09,11.721-5.04,18.109-5.21c25.641-2.448,51.359,0.17,76.979,1.45
	c4.48,0.239,9.08-0.24,13.431,1.079c8.74,3.91,17.67,7.721,25.36,13.521c4.039,3.479,7.38,7.67,11.06,11.5
	c1.712,2.061,3.962,3.779,5.132,6.239c-0.229,2.489-1.87,4.58-2.87,6.819c-1.142,1.92-1.812,4.398-4.05,5.351
	c-3.271,7.24-6.91,14.3-10.632,21.319c-3.51,6.841-6.148,14.631-12.39,19.58c-11.82,8.148-24.101,15.711-37.131,21.771
	c-4.55,2.37-9.8,2.302-14.76,2.892c-10.312,1.358-20.71,0.25-31.03-0.279c-8.859-0.521-17.771-1.71-26.021-5.15
	c-15.88-5.278-30.341-13.96-43.971-23.528c-11.688-7.96-23.311-16.011-34.54-24.602c0.091-4.479,1.149-8.96,3.312-12.898
	c4.01-7.852,9.16-15.03,13.72-22.54c2.312-1.319,4.96-1.812,7.471-2.59C368.449,672.69,382.869,668.171,396.85,662.43
	 M478.07,679.631c-10.971,2.93-21.88,6.062-32.91,8.76c-17.01,3.65-34.108,6.79-51.158,10.229c-9.11,2.061-18.892,2.49-27.182,7.188
	c-2.721,3.36-1.96,8.24-2.619,12.29c20.96,5.5,41.561,12.512,62.938,16.359c11.511,2.021,23.171,4.421,34.92,3.53
	c3.87-0.262,7.95,0.25,11.561-1.45c7.91-3.39,15.972-6.47,23.682-10.271c9.05-10.25,13.891-23.291,20.88-34.909
	c0.29-1.021,1.721-2.109,0.931-3.17c-8.58-4.189-17.91-6.45-27.021-9.142C487.49,677.64,482.61,678.341,478.07,679.631z"/>
<rect fill="none" width="886" height="886"/>
</svg>
