<?xml version="1.0" encoding="utf-8"?>
<!-- Generator: Adobe Illustrator 15.0.2, SVG Export Plug-In . SVG Version: 6.00 Build 0)  -->
<!DOCTYPE svg PUBLIC "-//W3C//DTD SVG 1.1 Basic//EN" "http://www.w3.org/Graphics/SVG/1.1/DTD/svg11-basic.dtd">
<svg version="1.1" baseProfile="basic" id="Layer_1"
	 xmlns="http://www.w3.org/2000/svg" xmlns:xlink="http://www.w3.org/1999/xlink" x="0px" y="0px" width="768px" height="1024px"
	 viewBox="0 0 768 1024" xml:space="preserve">
<rect y="384.92" fill="#FFFFFF" width="768" height="254.17"/>
<rect fill="#000101" width="768" height="384.92"/>
<rect y="639.09" fill="#000101" width="768" height="384.91"/>
<g id="_x23_009139ff">
	<path fill="#009139" d="M315.96,111.53c22.02,0.11,44.04-0.36,66.06-0.12c21.33,0.32,42.68-0.16,64,0.99
		c21.711-0.2,43.351,1.77,65.011,2.92c15.95,0.58,31.859,2.42,47.529,5.41c10.011,2.18,20.19,4.01,29.65,8.07
		c9.66,4.14,19.61,7.81,28.58,13.37c11.36,7,20.38,17.15,28.21,27.82c6.32,8.52,9.38,18.84,12.11,28.94
		c1.88,7.65,3.76,15.32,5.109,23.08c0.891,13.21-0.58,26.44-0.6,39.66c-0.12,16.3-0.4,32.59-0.99,48.88
		c9.09-4.27,19.4,0.08,26.51,6.16c-5.37-3.65-11.3-7.72-18.08-7.38c-2.96-0.05-5.159,2.1-7.72,3.2
		c-0.03,6.54,0.021,13.09-0.46,19.62c-0.43,10.6-0.18,21.22-0.68,31.819c-0.57,7.07-1.82,14.061-2.8,21.08
		c-83.521-0.04-167.04,0.01-250.561-0.06c-1.23-15.65-2.79-31.28-3.58-46.96c-1.35-10.3-0.699-20.7,0.18-31
		c0.061-10.69,2.59-21.32,1.33-32.01c-0.709-24.07-3.029-48.06-4.209-72.1c-1.791-25.78-2.971-51.6-5.031-77.35
		c-4.819-2.17-10.039-4.21-15.409-3.92c-3.96,1.64-6.35,5.63-8.19,9.3c-3.64,8.33-3.25,17.61-4.1,26.48
		c-1.18,16.86-1.3,33.82-3.92,50.56c-2.71,27.72-7.08,55.26-9.18,83.05c-1.33,15.979-2.04,32.03-4.34,47.92
		c-2.01,9.41-5.61,18.47-6.72,28.07c-0.67,5.979-1.29,11.96-1.5,17.97c-78.48,0-156.97,0.12-235.45-0.03
		c-0.17-22.79-1.89-45.54-1.27-68.34c-0.11-14.24,1.1-28.44,0.98-42.69c-3.62,1.29-7.2,2.73-10.52,4.69
		c3.36-2.26,7.14-3.8,10.93-5.19c0.96-14.43,0.63-28.92,1.45-43.36c0.49-9.31-0.42-18.73,1.16-27.96
		c2.11-10.33,5.42-20.55,11.05-29.54c5.4-8.68,10.5-17.98,18.74-24.32c5.11-3.979,10.56-7.479,15.95-11.06
		c6.27-4.29,13.76-6.04,20.96-8.1c24.92-6.27,50.31-10.53,75.82-13.56c17.11-1.79,34.32-2.34,51.48-3.45
		C307.61,111.7,311.78,111.5,315.96,111.53 M549.53,179.73c-17.351,2.31-34.08,7.71-50.44,13.76c-3.74,1.61-6.96,4.15-10.38,6.32
		c-15.94,10.07-31.93,20.27-46.01,32.89c-4.3,3.97-9.3,7.24-13.07,11.75c-2.92,5.3-3.7,11.6-3.31,17.58
		c1.39,11.13,7.72,21.26,16.26,28.37c16.479,10.48,33.979,19.28,51.81,27.24c7.931,3.53,15.801,7.67,24.5,8.92
		c7.7,1.19,15.4,3.471,23.261,2.551c7.819-0.87,15.72-2.03,23.09-4.931c9.83-3.83,19.24-8.77,27.88-14.84
		c4.5-3.189,9.6-5.78,13.03-10.25c6.819-8.55,13.63-17.3,18.279-27.26c2.44-5.26,1.971-11.16,1.28-16.74
		c-0.27-7.18-1.61-14.24-2.74-21.31c-1.04-7.06-3.05-14.43-7.97-19.82c-4.31-4.96-7.67-10.95-13.38-14.5
		c-7.7-5-14.93-10.73-22.92-15.28C569.89,179.21,559.41,177.8,549.53,179.73 M246.84,196.36c-6.98,0.74-14.3-0.3-20.95,2.43
		c-5.19,2.04-10.39,4.05-15.66,5.87c-8.77,3.26-15.27,10.34-21.11,17.36c-8.05,10.12-11.53,22.85-15.24,35.01
		c-2.53,7.85-1.8,16.39,0.86,24.11c2.88,8.31,5.71,16.87,11.01,24.01c3.75,4.63,7.69,9.14,12.06,13.189
		c6.63,2.2,13.34,4.25,20.28,5.15c9.24,1.45,18.63,0.76,27.92,1.64c10.66-0.29,21.76-1.67,31.07-7.29
		c14.89-7.51,28.95-17.189,39.78-30.01c6.05-7.2,12.16-14.95,14.51-24.24c0.79-5.16,0.34-10.42,0.14-15.62
		c-0.07-4.87-3.65-8.55-6.17-12.39c-4.09-5.46-7.83-11.79-14.24-14.81c-12.13-6.27-23.99-13.34-37.11-17.4
		c-6.51-1.94-12.68-4.84-19.12-6.94C252.27,195.44,249.51,196.22,246.84,196.36z"/>
</g>
<g id="_x23_fbe800ff">
	<path fill="#FBE800" d="M371.93,130.95c1.84-3.67,4.23-7.66,8.19-9.3c5.37-0.29,10.59,1.75,15.409,3.92
		c2.061,25.75,3.24,51.57,5.031,77.35c1.18,24.04,3.5,48.03,4.209,72.1c1.26,10.69-1.27,21.32-1.33,32.01
		c-0.879,10.3-1.529,20.7-0.18,31c0.79,15.68,2.35,31.31,3.58,46.96c-5.38,0.1-10.76,0.12-16.14,0.02
		c-6.86-0.13-13.72-0.13-20.57,0.03c-9.32,0.05-18.64,0.07-27.96-0.04c0.21-6.01,0.83-11.99,1.5-17.97
		c1.11-9.601,4.71-18.66,6.72-28.07c2.3-15.89,3.01-31.94,4.34-47.92c2.1-27.79,6.47-55.33,9.18-83.05
		c2.62-16.74,2.74-33.7,3.92-50.56C368.68,148.56,368.29,139.28,371.93,130.95z"/>
	<path fill="#FBE800" d="M549.53,179.73c9.88-1.93,20.359-0.52,29.17,4.45c7.99,4.55,15.22,10.28,22.92,15.28
		c5.71,3.55,9.07,9.54,13.38,14.5c4.92,5.39,6.93,12.76,7.97,19.82c1.13,7.07,2.471,14.13,2.74,21.31
		c0.69,5.58,1.16,11.48-1.28,16.74c-4.649,9.96-11.46,18.71-18.279,27.26c-3.431,4.47-8.53,7.061-13.03,10.25
		c-8.64,6.07-18.05,11.01-27.88,14.84c-7.37,2.9-15.271,4.061-23.09,4.931c-7.86,0.92-15.561-1.36-23.261-2.551
		c-8.699-1.25-16.569-5.39-24.5-8.92c-17.83-7.96-35.33-16.76-51.81-27.24c-8.54-7.11-14.87-17.24-16.26-28.37
		c-0.391-5.98,0.39-12.28,3.31-17.58c3.771-4.51,8.771-7.78,13.07-11.75c14.08-12.62,30.069-22.82,46.01-32.89
		c3.42-2.17,6.64-4.71,10.38-6.32C515.45,187.44,532.18,182.04,549.53,179.73 M505.59,220.92c-15.67,0.78-28.57,10.85-40.74,19.73
		c-4.64,2.99-7.14,8.26-8.5,13.43c-0.17,4.24-0.34,8.62,0.49,12.8c4.28,7.07,9.15,14.42,16.73,18.31
		c7.92,3.97,15.8,8.05,23.97,11.52c5.22,2.45,11.06,2.85,16.6,4.18c7.221,1.91,14.58-0.18,21.83-0.689
		c5.04-0.83,10.54-0.34,15.04-3.16c4.7-2.86,8.65-6.74,12.82-10.28c7.02-5.3,7.66-14.76,10.15-22.54
		c2.279-8.94,5.449-20.05-1.37-27.81c-6.271-5.71-13.891-10.19-22.19-12.15c-8.64-2.18-17.46-4.26-26.42-3.93
		C517.86,220.53,511.72,220.51,505.59,220.92z"/>
	<path fill="#FBE800" d="M246.84,196.36c2.67-0.14,5.43-0.92,8.03,0.07c6.44,2.1,12.61,5,19.12,6.94
		c13.12,4.06,24.98,11.13,37.11,17.4c6.41,3.02,10.15,9.35,14.24,14.81c2.52,3.84,6.1,7.52,6.17,12.39
		c0.2,5.2,0.65,10.46-0.14,15.62c-2.35,9.29-8.46,17.04-14.51,24.24c-10.83,12.82-24.89,22.5-39.78,30.01
		c-9.31,5.62-20.41,7-31.07,7.29c-9.29-0.88-18.68-0.189-27.92-1.64c-6.94-0.9-13.65-2.95-20.28-5.15
		c-4.37-4.05-8.31-8.56-12.06-13.189c-5.3-7.141-8.13-15.7-11.01-24.01c-2.66-7.72-3.39-16.26-0.86-24.11
		c3.71-12.16,7.19-24.89,15.24-35.01c5.84-7.02,12.34-14.1,21.11-17.36c5.27-1.82,10.47-3.83,15.66-5.87
		C232.54,196.06,239.86,197.1,246.84,196.36 M271.4,225.66c-7.23-0.74-14.28,1.37-21.34,2.52c-8.52,2.08-17.23,3.36-25.63,5.9
		c-5.05,1.91-9.11,5.64-13.76,8.3c-3.9,2.31-7.73,5.68-7.89,10.56c-1.7,7.2,2.38,13.68,5.05,20.03c2.03,4.72,4.56,9.34,8.38,12.86
		c4.21,3.86,8.17,8.27,13.54,10.54c5.62,2.49,11.13,5.47,17.17,6.82c9.87,0.39,19.35-2.98,28.63-5.92
		c7.03-2.41,14.24-4.4,20.99-7.54c10.03-4.95,15.12-15.47,20.11-24.87c1.68-3.71,4.51-7.54,3.45-11.82
		c-1.63-9.37-9.99-16.02-18.61-18.86C291.63,230.83,281.92,226.39,271.4,225.66z"/>
	<path fill="#FBE800" d="M95.91,278.63c3.32-1.96,6.9-3.4,10.52-4.69c0.12,14.25-1.09,28.45-0.98,42.69
		c-0.62,22.8,1.1,45.55,1.27,68.34c-0.8-0.01-2.4-0.02-3.2-0.02c-26.14-0.07-52.27,0.05-78.41-0.061
		c0.47-13.26,4.7-25.989,10.09-37.989c3.88-8.42,6.97-17.5,13.38-24.431C62.73,306.25,78.41,291.21,95.91,278.63z"/>
	<path fill="#FBE800" d="M661.34,312.53c2.561-1.101,4.76-3.25,7.72-3.2c6.78-0.34,12.71,3.729,18.08,7.38
		c4.48,3.521,9.15,7.01,12.36,11.81c10.64,14.761,21.57,29.431,30.47,45.33c1.73,3.58,3.34,7.221,4.721,10.95
		c-20.91,0.37-41.82-0.1-62.73,0.25c-4.86,0.05-9.71,0.01-14.56,0c0.979-7.02,2.229-14.01,2.8-21.08
		c0.5-10.6,0.25-21.22,0.68-31.819C661.36,325.62,661.31,319.07,661.34,312.53z"/>
</g>
<path fill="#CE031B" d="M505.59,220.92c6.13-0.41,12.271-0.39,18.41-0.59c8.96-0.33,17.78,1.75,26.42,3.93
	c8.3,1.96,15.92,6.44,22.19,12.15c6.819,7.76,3.649,18.87,1.37,27.81c-2.49,7.78-3.131,17.24-10.15,22.54
	c-4.17,3.54-8.12,7.42-12.82,10.28c-4.5,2.82-10,2.33-15.04,3.16c-7.25,0.51-14.609,2.6-21.83,0.689
	c-5.54-1.33-11.38-1.729-16.6-4.18c-8.17-3.47-16.05-7.55-23.97-11.52c-7.58-3.89-12.45-11.24-16.73-18.31
	c-0.83-4.18-0.66-8.56-0.49-12.8c1.36-5.17,3.86-10.44,8.5-13.43C477.02,231.77,489.92,221.7,505.59,220.92 M503.12,239.84
	c-4.44,1.07-7.24,5.02-9.67,8.57c-3.101,5.01-6.03,10.16-8.19,15.65c2.7,5.28,6.4,9.96,10.431,14.28c2.479,2.62,5.92,4,9.38,4.77
	c3.56,0.81,7.12,1.98,10.8,2.04c5.56-0.75,11.07-2.57,15.86-5.49c4.27-3.8,7.25-9.17,8.609-14.67
	c-0.859-5.54-2.609-11.09-5.38-15.98c-5.14-4.55-11.55-7.54-17.74-10.44C512.63,236.23,507.67,238.71,503.12,239.84z"/>
<path fill="#CE031B" d="M271.4,225.66c10.52,0.73,20.23,5.17,30.09,8.52c8.62,2.84,16.98,9.49,18.61,18.86
	c1.06,4.28-1.77,8.11-3.45,11.82c-4.99,9.4-10.08,19.92-20.11,24.87c-6.75,3.14-13.96,5.13-20.99,7.54
	c-9.28,2.94-18.76,6.31-28.63,5.92c-6.04-1.351-11.55-4.33-17.17-6.82c-5.37-2.27-9.33-6.68-13.54-10.54
	c-3.82-3.52-6.35-8.14-8.38-12.86c-2.67-6.35-6.75-12.83-5.05-20.03c0.16-4.88,3.99-8.25,7.89-10.56c4.65-2.66,8.71-6.39,13.76-8.3
	c8.4-2.54,17.11-3.82,25.63-5.9C257.12,227.03,264.17,224.92,271.4,225.66 M258.32,241.26c-3.94,1.39-8.56,2.22-11.24,5.73
	c-4.59,5.45-8.26,11.86-9.44,18.96c0.6,6.37,4.89,11.62,9.67,15.57c7.4,4.57,16.46,5.76,24.96,4.5c4.41-1.72,9.17-2.94,13.08-5.68
	c6.55-11.09,2.98-26.76-7.43-34.25C272.03,242.78,265.29,238.55,258.32,241.26z"/>
<path fill="#CE031B" d="M103.52,384.95c0.8,0,2.4,0.01,3.2,0.02c78.48,0.15,156.97,0.03,235.45,0.03
	c9.32,0.11,18.64,0.09,27.96,0.04c0.26,12.65,0.45,25.31,1.19,37.95c0.62,11.37-0.97,22.689-0.97,34.06
	c-0.85,11.63-0.88,23.29-1.17,34.95c-1.98,23.46-8.69,46.27-10.01,69.82c-2.9,14.26-6.4,28.399-9.02,42.72
	c7.55,0.91,15.13,1.57,22.66,2.66c15.82,1.5,31.709,0.069,47.45-1.48c0.86-0.859,1.73-1.72,2.61-2.56
	c-2.42-15.43-5.17-30.851-8.8-46.05c-3.291-10.57-4.98-21.54-7.271-32.351c-2.67-13.93-5.45-27.83-7.85-41.8
	c-2.56-17.54-3.72-35.24-5.29-52.89c-0.92-15.021-2.51-30.021-2.96-45.061c5.38,0.101,10.76,0.08,16.14-0.02
	c83.521,0.069,167.04,0.02,250.561,0.06c4.85,0.01,9.699,0.05,14.56,0c-1.69,9.33-4.57,18.391-7.07,27.521
	c-6.399,23.25-12.949,46.47-19.989,69.54c-5.41,18.029-11.92,35.71-17.7,53.63c-7.9,22.92-15.29,46.02-23.71,68.76
	c-1.59,4.5-4.101,8.58-6.46,12.7c-4.25,7.22-8.11,14.68-12.44,21.87c-19.52-0.021-387.83,0-387.83,0
	c-9.81-18.25-19.79-36.44-28.79-55.11c-12.48-30.88-24.51-61.95-36.01-93.22c-3.43-9.141-5.76-18.63-8.43-28.01
	C116.74,436.83,109.61,411.02,103.52,384.95z"/>
<path fill="#CE031B" d="M309.27,655.37c27.9,0.06,55.78,1.2,83.68,1.33c18.659,0.689,37.33,0.8,56,1.12
	c9.5,0.569,19.02,0.42,28.53,0.71c-6.48,9.34-14.021,17.92-21.9,26.109c-7.83,8.311-17.15,15.13-26.98,20.87
	c-10,4.16-20.68,7.24-31.6,7.21c-7.4-0.08-15.03,0.87-22.21-1.439c-6.51-1.95-13.1-3.891-19.17-6.971
	c-5.57-2.81-9.81-7.46-14.46-11.479c-5.57-5.1-11.55-9.78-16.57-15.46c-4.26-4.811-8.67-9.49-12.78-14.43
	C309.95,660.87,309.77,657.96,309.27,655.37z"/>
</svg>
