<?xml version="1.0" encoding="utf-8"?>
<!-- Generator: Adobe Illustrator 16.0.0, SVG Export Plug-In . SVG Version: 6.00 Build 0)  -->
<!DOCTYPE svg PUBLIC "-//W3C//DTD SVG 1.1//EN" "http://www.w3.org/Graphics/SVG/1.1/DTD/svg11.dtd">
<svg version="1.1" id="Livello_1" xmlns="http://www.w3.org/2000/svg" xmlns:xlink="http://www.w3.org/1999/xlink" x="0px" y="0px"
	 width="886px" height="886px" viewBox="0 0 886 886" enable-background="new 0 0 886 886" xml:space="preserve">
<path fill="#FFF59A" d="M884.959,0c0,0-0.119,22.03,1.039,31.852V230.71c-3.301,5.36-2.881,11.82-3.828,17.812
	c-0.9,8.21-3.104,16.21-3.961,24.42c-1.75,15.8-5.189,31.33-7.472,47.05c-2.021,12.05-3.511,24.2-6.13,36.15
	c-0.939,5.35-1.461,10.77-2.551,16.1c-2.189,10.99-3.58,22.142-6.25,33.04c-4.359,18.75-9.59,37.271-14.16,55.96
	c-2.438,10.108-5.569,20.029-7.789,30.188c-1.609,7.312-3.87,14.45-5.62,21.722c-2.771,12.67-6.739,25.021-9.91,37.578
	c-3.317,14.041-7.851,27.762-11.17,41.802c-7.22,28.432-17.237,56.04-25.237,84.25c-2.271,6.221-4.103,12.59-5.842,18.979
	c-2.488,9.59-6.431,18.72-9.061,28.271c-4.58,13.278-8.511,26.79-13.5,39.932c-3.181,8.22-5.601,16.72-8.92,24.89
	c-3.87,9.45-6.641,19.352-11.24,28.49c-12.68,20.26-28.069,38.602-42.33,57.729c-2.938,3.851-5.777,7.88-9.607,10.931H263.3
	c-6.312-6.119-12.59-12.261-18.62-18.648c-7.01-6.142-12.22-13.909-17.74-21.329c-5.3-7.74-10.479-15.562-15.479-23.49
	c-6.29-8.58-11.521-17.858-17-26.971c-14.103-22.181-27.48-44.819-39.99-67.931c-4.3-7.399-8.59-14.801-12.95-22.149
	c-3.8-6.391-5.87-13.568-8.47-20.479c-3.021-8.891-6.78-17.521-9.47-26.529c-7.53-20.771-15.093-41.528-21.87-62.55
	c-6.04-17.648-11.92-35.341-17.32-53.189c-3.07-10.858-7.2-21.42-9.29-32.539c-1.397-7.5-4.92-14.37-6.45-21.83
	c-1.317-6.62-4.188-12.79-5.87-19.301C53.54,435.53,43.53,402.22,34.96,368.51c-2.53-7.61-3.86-15.54-6.22-23.21
	c-2.673-10.11-4.673-20.392-7.603-30.44c-2.51-8.188-3.96-16.648-6.36-24.87c-3.037-10.54-5.1-21.32-7.92-31.92
	c-1.817-6.39-1.79-13.15-3.897-19.48c-3.64-10.85-1.16-22.39-1.81-33.56C0.46,192.36,1,179.68,0.98,167.01
	c0.75-17.352-0.79-34.712,0.143-52.07c-0.46-27.98-0.4-55.97-0.11-83.95C0.68,21.43,1.36,0,1.36,0H884.959z M447.13,20.97
	c-8.24,5.238-11.899,14.79-15.49,23.408c-5.562,16.71-8.22,34.2-11.89,51.392c-1.69,7.63-0.91,15.49-1.57,23.229
	c-0.96,10.84-0.449,21.75-1.899,32.55c-2.63,35.142-5.818,70.262-8.71,105.382c0.012,7.75-1.25,15.408-1.801,23.118
	c-0.438,11.98-1.897,23.892-2.789,35.842c-1.271,18.39-2.841,36.75-4.301,55.12c-0.569,24.108-2.971,48.12-5.561,72.09
	c-3.643,27.021-7.96,53.938-12.08,80.892c-2.05,9.8-2.729,19.84-5.352,29.521c-1.188,11.95-1.04,24.068-2.91,35.95
	c1,0.85,1.893,2.039,3.279,2.26c22.21,2.972,44.521,5.479,66.897,6.818c20.33,0.45,40.7,0.57,61-0.868
	c10.473-0.58,21.07-0.222,31.4-2.171c0.239-8.869,1.34-17.681,1.76-26.539c1.399-10.07-1.55-19.972-2.681-29.91
	c-1.77-9.63-3.27-19.312-5.199-28.91c-6.271-27.55-12.41-55.14-17.45-82.948c-9.59-57.8-19.68-115.688-23.271-174.26
	c-1.83-20.12-2.271-40.352-4.271-60.472c-0.859-8.47-0.262-17.02-1.239-25.488c-0.59-12.302-3.29-24.352-5.07-36.512
	c-2.55-19.118-5.01-38.26-6.979-57.448c-1.939-14.62-2.922-29.381-5.302-43.932c-2.471-4.398-7-7.16-10.448-10.738
	C452.31,18.46,449.367,18.99,447.13,20.97 M669.36,696.56c-18.03,5.432-36.57,9.36-55.359,10.882
	c-9.051,0.198-18.062,1.229-27.108,1.271c-19.26,1.64-38.619,0.238-57.899,1.198c-15.09,0.762-30.028,4.29-43.938,10.188
	c-6.062,2.54-12.109,5.08-18.183,7.58c-2.229,0.841-4.54,1.938-7,1.479c-10.617-1.26-21.13-3.729-31.867-3.75
	c-11.37-0.188-22.74,0-34.11-0.26c-15.64-1.012-31.38,0.21-46.97-1.62c-18.521-1.66-36.75-5.682-55.271-7.302
	c9.07,21.642,21.11,42.541,38.48,58.602c7.601,7.142,15.357,14.229,24.26,19.74c10.721,7.352,23.21,11.479,35.671,14.79
	c13.062,3.43,26.569,4.608,40.02,5.198c19.57,1.398,39.223,1.04,58.843,0.852c11.771,0.011,23.5-1.21,35.141-2.898
	c4.71-0.87,9.72-1.021,13.97-3.472c11.399-5.608,22.109-12.438,32.54-19.658c15.67-9.682,30.84-20.15,45.562-31.229
	c11.158-8.682,22.369-17.58,31.197-28.729c9.65-11.33,18.433-23.45,28.9-34.04C673.9,695.5,671.59,695.89,669.36,696.56z"/>
<g id="_x23_ff86f0ff">
	<path fill="#E36D96" d="M447.13,20.97c2.237-1.979,5.18-2.512,8.079-2.632c3.448,3.58,7.979,6.342,10.448,10.74
		c2.38,14.55,3.359,29.312,5.302,43.932c1.971,19.188,4.431,38.328,6.979,57.448c1.78,12.16,4.48,24.21,5.07,36.512
		c0.979,8.47,0.38,17.021,1.238,25.488c2,20.12,2.439,40.352,4.271,60.472c3.591,58.568,13.681,116.46,23.271,174.26
		c5.04,27.81,11.183,55.398,17.45,82.948c1.933,9.602,3.433,19.28,5.2,28.91c1.13,9.938,4.079,19.84,2.68,29.909
		c-0.42,8.859-1.521,17.671-1.76,26.539c-10.33,1.95-20.931,1.592-31.398,2.172c-20.302,1.438-40.672,1.318-61,0.868
		c-22.38-1.34-44.689-3.85-66.899-6.818c-1.39-0.222-2.278-1.41-3.278-2.261c1.869-11.881,1.722-24,2.909-35.949
		c2.619-9.682,3.301-19.721,5.352-29.521c4.12-26.949,8.438-53.87,12.08-80.892c2.59-23.971,4.988-47.979,5.561-72.09
		c1.46-18.37,3.029-36.729,4.301-55.12c0.892-11.95,2.352-23.86,2.79-35.842c0.551-7.71,1.812-15.369,1.801-23.119
		c2.891-35.119,6.079-70.239,8.71-105.381c1.449-10.8,0.938-21.71,1.898-32.55c0.66-7.739-0.12-15.6,1.57-23.229
		c3.67-17.19,6.327-34.682,11.89-51.392C435.23,35.76,438.89,26.21,447.13,20.97z"/>
</g>
<g id="_x23_fc0201ff">
	<path fill="#CB021A" d="M669.36,696.56c2.229-0.67,4.54-1.061,6.87-1.18c-10.471,10.59-19.25,22.71-28.9,34.04
		c-8.829,11.148-20.04,20.05-31.197,28.729c-14.723,11.078-29.893,21.55-45.562,31.229c-10.431,7.22-21.141,14.05-32.54,19.658
		c-4.25,2.45-9.261,2.602-13.971,3.472c-11.64,1.688-23.369,2.909-35.14,2.898c-19.62,0.188-39.271,0.55-58.843-0.852
		c-13.447-0.59-26.958-1.771-40.021-5.198c-12.46-3.312-24.949-7.439-35.67-14.79c-8.898-5.512-16.659-12.602-24.26-19.74
		c-17.37-16.061-29.41-36.96-38.48-58.602c18.521,1.62,36.75,5.642,55.271,7.302c15.59,1.83,31.33,0.608,46.97,1.62
		c11.37,0.26,22.74,0.068,34.109,0.26c10.738,0.021,21.25,2.49,31.868,3.75c2.46,0.46,4.771-0.641,7-1.479
		c6.069-2.5,12.12-5.04,18.183-7.58c13.908-5.898,28.851-9.43,43.938-10.188c19.279-0.96,38.643,0.438,57.899-1.198
		c9.051-0.04,18.061-1.07,27.108-1.271C632.787,705.922,651.327,701.99,669.36,696.56z"/>
</g>
<rect fill="none" width="886" height="886.004"/>
</svg>
