<?xml version="1.0" encoding="utf-8"?>
<!-- Generator: Adobe Illustrator 16.0.0, SVG Export Plug-In . SVG Version: 6.00 Build 0)  -->
<!DOCTYPE svg PUBLIC "-//W3C//DTD SVG 1.1 Basic//EN" "http://www.w3.org/Graphics/SVG/1.1/DTD/svg11-basic.dtd">
<svg version="1.1" baseProfile="basic" id="Layer_1"
	 xmlns="http://www.w3.org/2000/svg" xmlns:xlink="http://www.w3.org/1999/xlink" x="0px" y="0px" width="886px" height="886px"
	 viewBox="0 0 886 886" xml:space="preserve">
<rect x="0" width="886" height="886"/>
<g id="_x23_ffffffff">
	<path fill="#FFFFFF" d="M411.13,33.19c16.58-1.52,33.22-0.22,49.83-0.15c40.818,1.73,81.71,4.04,122.158,10.04
		c5.96,0.97,12.2,1.21,17.682,4c20.021,7.88,40.26,15.26,59.88,24.13c6.729,3.13,13.938,5.52,19.891,10.09
		c11.812,8.82,23.569,17.74,34.892,27.19c15.658,13.25,31.521,26.64,43.83,43.2c10.35,13.8,18.47,29.06,27.18,43.91
		c4.021,6.53,6.12,13.97,8.74,21.12c14.72,43.66,25.108,88.74,31.76,134.32c4.28,24.78,4.761,49.96,5.561,75.02
		c1.16,8.95-0.7,17.87-1.37,26.78c-2.311,22.12-4.869,44.21-8.148,66.21c-1.649,10.24-2.182,20.7-5.229,30.67
		c-12.199,43.45-30.21,85.062-51.08,125.011c-3.079,7.132-7.97,13.212-12.658,19.319c-6.48,8.41-13.12,16.69-19.892,24.86
		c0.13,1.24,0.05,2.29,0.189,3.59c-0.37-0.86-0.729-1.7-1.09-2.53c-14.762,17.95-29.972,35.54-45.302,53.011
		c-1.54,1.802-3.22,3.489-5.181,4.842c-13.06,9.47-27.271,17.18-40.88,25.817c-6.79,3.91-14.17,6.66-21.229,10.052
		c-15.101,6.551-29.84,14.039-45.38,19.568c-7.511,2.51-14.8,5.88-22.55,7.54c-0.061,1.021-0.11,2.05-0.141,3.101
		c-0.859-1.021-1.91-2.351-3.432-1.811c-13.12,3.68-26.29,7.28-39.608,10.17c-27.16,1.51-54.38,1.13-81.569,1.58
		c-8.521-0.3-17.061-0.33-25.581-0.39c-15.51-1.13-30.95-3.062-46.38-5.012c-4.36-0.648-8.85-0.811-13.01-2.408
		c-28.392-8.86-56.3-19.263-83.48-31.342c-7.89-4.011-15.278-8.898-22.828-13.488c-10.11-6.46-20.352-12.79-29.682-20.353
		c-8.37-6.89-16.95-13.6-24.14-21.738c-17.58-20.229-34.19-41.312-49.34-63.432c-4.21-6.17-8.92-12.029-12.602-18.56
		c-6.26-10.5-12.528-21.11-16.68-32.67c-10.16-25.433-19.08-51.342-27.82-77.29c-1.7-4.7-2.238-9.69-3.2-14.57
		c-3.75-21.72-7.31-43.49-9.988-65.37c-4.102-40.6-2.58-81.58,1.988-122.069c1.12-9.601,2.802-19.131,4.382-28.67
		c7.21-27.511,15.698-54.75,26.85-80.951c12.52-31.3,28.68-61.18,48.81-88.27c12.852-18.51,29.521-33.83,46.102-48.9
		c1.93-1.73,3.83-3.52,6.01-4.94c25.93-15.82,52.83-30.1,80.72-42.14c22.14-9.41,44.562-18.37,67.89-24.4
		C367.448,41.22,389.17,36.42,411.13,33.19"/>
</g>
<g id="_x23_cd031bff">
	<path fill="#CD031B" d="M271.22,284.17c5.3-0.89,10.31,1.56,15.24,3.13c5.068,1.72,10.68,3.9,13.328,8.93
		c3.812,7.43,7.4,15,10.28,22.84c1.271,3.01-0.56,5.97-1.53,8.77c-1.71,4.01-2.89,8.59-6.34,11.53
		c-6.27,5.52-13.238,10.17-19.988,15.06c-7.37,0.29-14.78,1.601-22.13,0.971c-4.78-1.96-9.98-3.221-14.33-6.091
		c-5.09-4.579-10.521-9.479-12.84-16.109c-1.08-6.681-0.95-13.51-0.75-20.25c0.04-4.08,1.328-8.05,3.5-11.49
		c2.198-3.11,5.618-4.98,8.76-6.99c3.88-2.24,7.5-5.05,11.84-6.36C261.18,286.56,266.13,285.05,271.22,284.17z"/>
	<path fill="#CD031B" d="M605.02,286.76c9.12-1.96,18.721-2.229,27.87-0.21c4.36,0.64,7.32,4.22,10.75,6.64
		c6.75,5.05,12.431,11.76,15.188,19.81c2.062,8.34,0.61,17.09-2.521,24.97c-3.109,5.41-4.76,12.351-10.579,15.61
		c-4.82,2.689-10.021,5.25-15.641,5.479c-7.812-0.529-15.54-1.97-23.21-3.51c-4.37-0.59-7.66-3.729-10.892-6.439
		c-3.771-3.54-8.2-6.721-10.311-11.61c-2.12-4.78-5.01-9.35-6-14.54c-0.18-7.69,1.729-15.42,5.12-22.29
		C589.55,293.77,597.14,289.23,605.02,286.76z"/>
</g>
<g id="_x23_0076bcff">
	<path fill="#0076BC" d="M339.96,641.46c3.25-0.89,6.64-0.87,9.979-1.05c22.36-0.67,44.74,0.12,67.11-0.07
		c46.528,0.17,93.061,0.18,139.58,1.07c-0.102,1.03-0.32,3.1-0.432,4.13c-17.34,10.25-34.028,21.67-52.17,30.54
		c-20.279,9.82-40.108,20.78-61.46,28.16c-5.301,2.14-11.358,1.66-16.7-0.03c-11.908-6.13-23.18-13.41-34.46-20.6
		C374.01,669.86,356.698,655.99,339.96,641.46z"/>
</g>
<g>
	<g>
		<path fill="#FFC20E" d="M187.224,444.471h29.589v5.413h-23.545v14.073h19.756v5.412h-19.756v22.102h-6.044V444.471z"/>
		<path fill="#FFC20E" d="M266.784,478.661l-4.42,13.982l-5.954-2.165l14.794-46.008h7.758l14.794,46.008l-5.954,2.165l-4.33-13.982
			H266.784z M275.084,451.508l-6.676,21.74h13.352L275.084,451.508z"/>
		<path fill="#FFC20E" d="M368.626,482.449c-3.789,5.954-8.299,9.834-15.606,9.834c-13.712,0-18.042-12.63-18.042-24.268
			c0-18.764,9.923-24.356,17.5-24.356c7.307,0,11.547,3.789,14.885,10.014l-5.503,2.796c-1.985-3.788-4.691-7.126-9.292-7.126
			c-9.382,0-11.276,11.366-11.276,18.583c0,7.307,1.714,18.674,11.276,18.674c5.503,0,8.299-3.338,11.096-7.578L368.626,482.449z"/>
		<path fill="#FFC20E" d="M445.299,482.449c-3.788,5.954-8.299,9.834-15.606,9.834c-13.712,0-18.042-12.63-18.042-24.268
			c0-18.764,9.923-24.356,17.501-24.356c7.307,0,11.547,3.789,14.885,10.014l-5.503,2.796c-1.984-3.788-4.691-7.126-9.292-7.126
			c-9.382,0-11.276,11.366-11.276,18.583c0,7.307,1.714,18.674,11.276,18.674c5.502,0,8.299-3.338,11.096-7.578L445.299,482.449z"/>
		<path fill="#FFC20E" d="M495.451,486.059h6.586v-36.175h-6.586v-5.413h19.305v5.413h-6.676v36.175h6.676v5.412h-19.305V486.059z"
			/>
		<path fill="#FFC20E" d="M550.926,478.661l-4.42,13.982l-5.953-2.165l14.793-46.008h7.76l14.793,46.008l-5.953,2.165l-4.33-13.982
			H550.926z M559.227,451.508l-6.676,21.74h13.35L559.227,451.508z"/>
		<path fill="#FFC20E" d="M602.793,453.402h-0.18l-1.174,38.068h-6.404l1.895-47h7.938l8.48,20.389l8.48-20.389h7.938l1.895,47
			h-6.404l-1.174-38.068h-0.18l-10.555,24.808L602.793,453.402z"/>
		<path fill="#FFC20E" d="M684.158,468.016c0,3.789-0.27,24.268-16.688,24.268c-7.578,0-16.689-5.413-16.689-24.268
			c0-18.764,8.93-24.356,16.689-24.356C674.957,443.659,684.158,449.072,684.158,468.016z M657.096,468.016
			c0,6.856,1.264,18.584,10.375,18.584c9.109,0,10.373-11.728,10.373-18.584c0-6.945-1.264-18.673-10.373-18.673
			C658.36,449.343,657.096,461.07,657.096,468.016z"/>
		<path fill="#FFC20E" d="M718.615,472.797l-1.625-41.496h9.203l-1.805,41.496H718.615z M717.442,478.119h8.301v13.352h-8.301
			V478.119z"/>
	</g>
	<g>
		<path fill="#020000" d="M244.804,117.167l-1.474,4.662l-1.985-0.722l4.933-15.338h2.586l4.932,15.338l-1.985,0.722l-1.444-4.662
			H244.804z M247.572,108.114l-2.226,7.248h4.451L247.572,108.114z"/>
		<path fill="#020000" d="M264.889,105.769h2.496l6.075,13.203l0.06-0.06l-0.18-4.06v-9.083h2.015v15.669h-2.496l-6.075-13.203
			l-0.06,0.061l0.181,4.09v9.053h-2.015V105.769z"/>
		<path fill="#020000" d="M291.711,107.573h-4.331v-1.804h10.586v1.804h-4.241v13.865h-2.015V107.573z"/>
		<path fill="#020000" d="M320.788,113.618c0,1.263-0.09,8.09-5.564,8.09c-2.526,0-5.564-1.804-5.564-8.09
			c0-6.256,2.978-8.121,5.564-8.121C317.72,105.498,320.788,107.302,320.788,113.618z M311.765,113.618
			c0,2.286,0.421,6.195,3.458,6.195s3.458-3.91,3.458-6.195c0-2.316-0.421-6.226-3.458-6.226S311.765,111.302,311.765,113.618z"/>
		<path fill="#020000" d="M332.542,105.769h2.496l6.075,13.203l0.06-0.06l-0.18-4.06v-9.083h2.015v15.669h-2.496l-6.075-13.203
			l-0.06,0.061l0.181,4.09v9.053h-2.015V105.769z"/>
		<path fill="#020000" d="M356.025,105.769h9.774v1.804h-7.759v4.692h6.406v1.805h-6.406v5.563h7.759v1.805h-9.774V105.769z"/>
		<path fill="#020000" d="M378.967,105.769h2.015v13.864h8.21v1.805h-10.226V105.769z"/>
		<path fill="#020000" d="M401.517,105.769h2.015v13.864h8.21v1.805h-10.226V105.769z"/>
		<path fill="#020000" d="M425.211,117.167l-1.474,4.662l-1.985-0.722l4.933-15.338h2.586l4.932,15.338l-1.985,0.722l-1.444-4.662
			H425.211z M427.978,108.114l-2.226,7.248h4.451L427.978,108.114z"/>
		<path fill="#020000" d="M466.703,117.167l-1.473,4.662l-1.985-0.722l4.933-15.338h2.586l4.934,15.338l-1.986,0.722l-1.443-4.662
			H466.703z M469.471,108.114l-2.226,7.248h4.452L469.471,108.114z"/>
		<path fill="#020000" d="M486.668,121.438v-1.805h1.625v-12.06h-1.625v-1.804h4.934c3.969,0,5.684,1.503,5.684,4.18
			c0,1.354-0.572,2.557-1.775,3.218c1.715,0.541,2.678,2.015,2.678,3.79c0,2.827-1.865,4.481-5.143,4.481H486.668z M492.563,112.475
			c1.746,0,2.617-1.113,2.617-2.526c0-1.865-1.322-2.376-2.736-2.376h-2.135v4.902H492.563z M492.655,119.633
			c1.773,0,3.428-0.391,3.428-2.526c0-1.563-1.021-2.827-2.947-2.827h-2.826v5.353H492.655z"/>
		<path fill="#020000" d="M509.219,121.438v-1.805h1.625v-12.06h-1.625v-1.804h4.934c3.969,0,5.684,1.503,5.684,4.18
			c0,1.354-0.572,2.557-1.775,3.218c1.715,0.541,2.678,2.015,2.678,3.79c0,2.827-1.865,4.481-5.143,4.481H509.219z M515.114,112.475
			c1.746,0,2.617-1.113,2.617-2.526c0-1.865-1.322-2.376-2.736-2.376h-2.135v4.902H515.114z M515.205,119.633
			c1.773,0,3.428-0.391,3.428-2.526c0-1.563-1.021-2.827-2.947-2.827h-2.826v5.353H515.205z"/>
		<path fill="#020000" d="M534.358,117.167l-1.475,4.662l-1.984-0.722l4.932-15.338h2.586l4.934,15.338l-1.986,0.722l-1.443-4.662
			H534.358z M537.123,108.114l-2.225,7.248h4.451L537.123,108.114z"/>
		<path fill="#020000" d="M558.713,107.573h-4.332v-1.804h10.586v1.804h-4.24v13.865h-2.014V107.573z"/>
		<path fill="#020000" d="M579.008,119.633h2.195v-12.06h-2.195v-1.804h6.436v1.804h-2.225v12.06h2.225v1.805h-6.436V119.633z"/>
		<path fill="#020000" d="M600.477,105.769h9.773v1.804h-7.76v4.692h6.406v1.805h-6.406v5.563h7.76v1.805h-9.773V105.769z"/>
		<path fill="#020000" d="M623.418,105.769h2.016v13.864h8.211v1.805h-10.227V105.769z"/>
		<path fill="#020000" d="M645.969,105.769h2.016v13.864h8.211v1.805h-10.227V105.769z"/>
		<path fill="#020000" d="M677.994,113.618c0,1.263-0.09,8.09-5.562,8.09c-2.527,0-5.564-1.804-5.564-8.09
			c0-6.256,2.979-8.121,5.564-8.121C674.928,105.498,677.994,107.302,677.994,113.618z M668.973,113.618
			c0,2.286,0.422,6.195,3.459,6.195s3.459-3.91,3.459-6.195c0-2.316-0.422-6.226-3.459-6.226S668.973,111.302,668.973,113.618z"/>
	</g>
</g>
</svg>
