<?xml version="1.0" encoding="utf-8"?>
<!DOCTYPE svg PUBLIC "-//W3C//DTD SVG 1.1 Basic//EN" "http://www.w3.org/Graphics/SVG/1.1/DTD/svg11-basic.dtd">

<svg version="1.1" baseProfile="basic" id="Layer_1"
                   xmlns="http://www.w3.org/2000/svg" 
                   xmlns:xlink="http://www.w3.org/1999/xlink" 
                   viewBox="0 0 640 640" 
                   preserveAspectRatio="xMidYMid meet"
																			xml:space="preserve">
<rect width="640" height="640"/>
<g id="_x23_ffffffff">
	<path fill="#FFFFFF" d="M296.979,23.975c11.977-1.098,23.996-0.159,35.996-0.108c29.482,1.25,59.021,2.918,88.239,7.252
		c4.306,0.701,8.812,0.874,12.771,2.89c14.462,5.692,29.081,11.023,43.254,17.43c4.859,2.261,10.067,3.987,14.368,7.288
		c8.531,6.372,17.024,12.815,25.203,19.641c11.312,9.571,22.77,19.243,31.66,31.205c7.478,9.969,13.342,20.992,19.633,31.719
		c2.904,4.716,4.422,10.091,6.313,15.255c10.633,31.538,18.138,64.102,22.94,97.026c3.093,17.899,3.438,36.089,4.019,54.188
		c0.838,6.465-0.507,12.909-0.99,19.346c-1.669,15.979-3.518,31.936-5.887,47.825c-1.19,7.397-1.575,14.952-3.776,22.154
		c-8.812,31.386-21.822,61.444-36.896,90.301c-2.226,5.152-5.757,9.544-9.145,13.956c-4.682,6.074-9.479,12.058-14.369,17.957
		c0.095,0.896,0.036,1.654,0.138,2.595c-0.269-0.622-0.525-1.229-0.786-1.827c-10.663,12.967-21.649,25.672-32.725,38.292
		c-1.112,1.302-2.325,2.521-3.742,3.497c-9.435,6.841-19.698,12.408-29.528,18.647c-4.905,2.825-10.235,4.812-15.335,7.261
		c-10.908,4.732-21.556,10.144-32.78,14.138c-5.426,1.812-10.69,4.247-16.288,5.444c-0.043,0.738-0.08,1.48-0.104,2.24
		c-0.619-0.737-1.381-1.698-2.479-1.309c-9.479,2.656-18.99,5.259-28.611,7.347c-19.619,1.091-39.28,0.815-58.921,1.142
		c-6.154-0.217-12.324-0.236-18.479-0.28c-11.204-0.815-22.357-2.212-33.502-3.62c-3.15-0.47-6.394-0.585-9.397-1.739
		c-20.509-6.4-40.668-13.914-60.302-22.64c-5.699-2.897-11.036-6.43-16.49-9.743c-7.303-4.666-14.7-9.239-21.439-14.702
		c-6.046-4.978-12.244-9.823-17.438-15.702c-12.698-14.612-24.697-29.841-35.641-45.819c-3.041-4.457-6.443-8.688-9.104-13.405
		c-4.521-7.584-9.05-15.249-12.048-23.601c-7.339-18.371-13.781-37.086-20.096-55.83c-1.229-3.396-1.617-7-2.312-10.523
		c-2.708-15.689-5.28-31.414-7.216-47.222c-2.963-29.325-1.863-58.929,1.437-88.176c0.809-6.937,2.023-13.819,3.166-20.71
		c5.208-19.873,11.339-39.548,19.395-58.475c9.043-22.609,20.718-44.193,35.257-63.762c9.284-13.371,21.325-24.437,33.303-35.323
		c1.394-1.25,2.767-2.543,4.341-3.568c18.729-11.428,38.162-21.743,58.308-30.44c15.993-6.797,32.189-13.27,49.04-17.625
		C265.426,29.775,281.115,26.308,296.979,23.975"/>
</g>
<g id="_x23_cd031bff">
	<path fill="#CD031B" d="M195.914,205.27c3.828-0.643,7.447,1.127,11.01,2.262c3.661,1.242,7.714,2.816,9.627,6.451
		c2.753,5.367,5.346,10.834,7.426,16.498c0.918,2.174-0.404,4.312-1.105,6.336c-1.234,2.896-2.087,6.205-4.579,8.328
		c-4.529,3.987-9.562,7.347-14.438,10.879c-5.324,0.209-10.676,1.156-15.985,0.701c-3.452-1.416-7.209-2.326-10.351-4.399
		c-3.677-3.308-7.6-6.847-9.274-11.636c-0.78-4.826-0.688-9.76-0.542-14.627c0.028-2.947,0.959-5.815,2.527-8.301
		c1.588-2.246,4.059-3.598,6.328-5.049c2.803-1.618,5.417-3.648,8.552-4.594C188.662,206.996,192.239,205.905,195.914,205.27z"/>
	<path fill="#CD031B" d="M437.033,207.141c6.588-1.416,13.522-1.61,20.133-0.151c3.148,0.462,5.287,3.048,7.766,4.796
		c4.876,3.648,8.979,8.494,10.973,14.311c1.487,6.023,0.439,12.344-1.821,18.036c-2.245,3.908-3.438,8.923-7.642,11.276
		c-3.481,1.941-7.238,3.792-11.299,3.958c-5.643-0.382-11.227-1.423-16.766-2.535c-3.157-0.427-5.533-2.694-7.867-4.651
		c-2.725-2.557-5.924-4.854-7.447-8.386c-1.531-3.453-3.619-6.754-4.334-10.503c-0.131-5.555,1.248-11.139,3.697-16.102
		C425.861,212.204,431.343,208.925,437.033,207.141z"/>
</g>
<g id="_x23_0076bcff">
	<path fill="#0076BC" d="M245.57,463.357c2.349-0.645,4.796-0.631,7.208-0.761c16.152-0.481,32.318,0.087,48.478-0.051
		c33.609,0.123,67.223,0.13,100.824,0.773c-0.072,0.743-0.229,2.237-0.312,2.981c-12.524,7.403-24.58,15.652-37.686,22.062
		c-14.646,7.094-28.973,15.01-44.396,20.341c-3.829,1.546-8.205,1.199-12.063-0.021c-8.602-4.428-16.743-9.687-24.892-14.88
		C270.164,483.872,257.659,473.854,245.57,463.357z"/>
</g>
</svg>
