<?xml version="1.0" encoding="utf-8"?>
<!-- Generator: Adobe Illustrator 15.0.2, SVG Export Plug-In . SVG Version: 6.00 Build 0)  -->
<!DOCTYPE svg PUBLIC "-//W3C//DTD SVG 1.1 Basic//EN" "http://www.w3.org/Graphics/SVG/1.1/DTD/svg11-basic.dtd">
<svg version="1.1" baseProfile="basic" id="Livello_1"
	 xmlns="http://www.w3.org/2000/svg" xmlns:xlink="http://www.w3.org/1999/xlink" x="0px" y="0px" width="768px" height="1024px"
	 viewBox="0 0 768 1024" xml:space="preserve">
<g id="_x23_010101ff">
	<path fill="#010101" d="M0,0h768v1024H0V0"/>
</g>
<g id="_x23_009144ff">
	<path fill="#009144" d="M98.53,307.96c7.801-0.55,15.761-0.2,23.32,1.979c3.47,1.07,7.36,1.58,10.101,4.19
		c4.76,4.22,10.06,8.47,12.17,14.72c2.239,6.92,5.8,13.68,5.6,21.14c-0.17,4.311,0.78,9.141-1.87,12.921
		c-5.03,7.76-11.17,14.779-17.93,21.069c-3.141,1.41-6.53,2.15-9.76,3.36c-4.86,1.51-9.7,4.3-14.96,3.149
		c-6.7-1.529-13.5-3.579-19.091-7.71c-8.96-8.5-17.939-18.8-18.85-31.699c-1.22-9.07,2.32-18.07,7.52-25.341
		C80.17,317.27,88,309.02,98.53,307.96z"/>
	<path fill="#009144" d="M638.369,309.74c6.181-0.81,12.479-0.399,18.689-0.029c5.11,0.12,9.07,3.649,13.479,5.75
		c4.45,2.22,9.4,4.439,11.921,9.01c1.97,3.79,3.67,7.76,4.819,11.88c1,6.48,0.92,13.08,1.08,19.63
		c0.101,3.141-1.891,5.76-3.021,8.55c-1.45,2.99-2.2,6.57-4.96,8.71c-4.851,3.921-9.74,7.91-15.37,10.671
		c-6.061,2.739-12.181,6.399-19.109,5.79c-8.391-0.87-15.95-5.091-22.939-9.551c-5.271-3.359-8.83-8.6-12.95-13.17
		c-1.841-2.17-3.971-4.41-4.319-7.359c-1.011-10.721-1.141-22.15,4.061-31.9c2.689-4,6.909-6.54,10.67-9.42
		C625.67,314.18,631.75,310.95,638.369,309.74z"/>
</g>
<g id="_x23_3754a0ff">
	<path fill="#3754A0" d="M377.89,440.369c3.87-0.449,7.74-0.939,11.641-1c7.989,55.011,12.649,110.42,18.42,165.67
		c2.229,21.979,5.399,43.87,7.04,65.91c2.34,32.811,4.83,65.641,9.279,98.25c1.16,5.87,1.99,11.811,3.351,17.649
		c5.471,0.021,10.891-0.689,16.33-1.13c13.71-0.62,27.431-0.01,41.12,0.91c-27.311,31.38-54.83,62.62-84.479,91.83
		c-3.99,3.72-6.859,8.5-11.09,11.97c-1.07,0.92-2.66,1.54-4.021,0.931c-11.939-7.12-23.2-15.271-34.471-23.381
		c-13.29-9.64-26.479-19.43-39.2-29.8c-14.339-11.7-27.64-24.55-41.318-36.979c-0.08-0.359-0.24-1.08-0.32-1.431
		c19.359-2.989,38.97-4.109,58.42-6.25c0.08-5.899-1.32-11.64-1.95-17.47c-1.649-17.04-3.609-34.05-5.859-51.021
		c-2.971-19.25-4.771-38.649-7.41-57.931c-1.18-10.93-3.55-21.71-4.04-32.699c-6.39-55.12-12.3-110.28-17.839-165.49
		c-0.461-5.649-1.61-11.3-1.021-16.989c7.62,0,15.049-1.9,22.609-2.521C334.73,446.69,356.28,443.3,377.89,440.369z"/>
</g>
<g id="_x23_cd031bff">
	<path fill="#CD031B" d="M279.99,917.34c10.99-0.46,22.05,0.21,33.069,0.141c10.601,0.279,21.229,0.08,31.82,0.779
		c41.729,0.41,83.43,1.59,125.14,2.29c11.101,0.09,22.181,0.29,33.261,0.87c-9.75,11.51-18.859,23.59-29.42,34.409
		c-9.141,10.07-20.551,17.65-31.729,25.261c-6.979,4.88-15.58,6.271-23.479,9.029c-13.61,3.54-27.811,3.229-41.761,3.131
		c-10.5-1.41-20.46-5.271-30.409-8.74c-6.57-2.87-12.711-6.851-17.82-11.891c-3.989-4.09-8.63-7.449-12.689-11.46
		c-12.971-10.449-23.36-23.569-34.4-35.92C280.96,922.619,280.4,919.99,279.99,917.34z"/>
</g>
</svg>
