<?xml version="1.0" encoding="utf-8"?>
<!-- Generator: Adobe Illustrator 15.0.2, SVG Export Plug-In . SVG Version: 6.00 Build 0)  -->
<!DOCTYPE svg PUBLIC "-//W3C//DTD SVG 1.1//EN" "http://www.w3.org/Graphics/SVG/1.1/DTD/svg11.dtd">
<svg version="1.1" id="Livello_1" xmlns="http://www.w3.org/2000/svg" xmlns:xlink="http://www.w3.org/1999/xlink" x="0px" y="0px"
	 width="886px" height="886px" viewBox="0 0 886 886" enable-background="new 0 0 886 886" xml:space="preserve">
<g id="_x23_009144ff">
	<path fill="#009144" d="M112.41,60.49c9.42-0.76,19.08-0.6,28.21,2.1c3.868,1.171,8.188,1.69,11.27,4.591
		c4.97,4.26,10.5,8.439,13.2,14.619c2.188,4.95,3.84,10.11,5.63,15.211c2.4,6.72,2.35,14,1.79,21.021c-0.51,4.96-4.13,8.7-6.9,12.57
		c-4.31,5.939-9.5,11.149-14.63,16.38c-1.43,1.49-3.528,1.89-5.39,2.56c-5.53,1.69-10.96,3.67-16.44,5.5
		c-4.1,1.4-8.448,0.28-12.479-0.8c-6.03-1.67-12.16-3.78-17.13-7.7c-9.9-9.31-19.812-20.319-21.722-34.319
		c-2.18-11.229,2.08-22.71,8.69-31.7C92.31,71.08,100.97,62.2,112.41,60.49z"/>
	<path fill="#009144" d="M735.408,62.53c8.102-1.48,16.41-0.82,24.552,0.06c4.02,0.351,7.22,3.04,10.729,4.75
		c5.32,3.181,11.73,5.08,15.54,10.28c2.3,3.37,3.67,7.25,5.2,11.01c3.16,8.07,2.06,16.931,2.72,25.391
		c0.41,4.229-1.99,7.899-3.56,11.63c-1.58,3.27-2.54,7.05-5.4,9.5c-6.35,5.58-13.189,10.8-21.05,14.05
		c-5.94,2.92-12.26,5.89-19.07,5.3c-10.41-1.21-19.71-6.52-28.229-12.31c-4.69-3.3-7.87-8.18-11.75-12.32
		c-2.4-3.02-5.852-5.729-6.182-9.859c-1.528-11.58-1.39-23.811,3.44-34.66c1.78-4.261,5.569-7.11,9.06-9.91
		C718.64,69.93,726.25,64.21,735.408,62.53z"/>
</g>
<g id="_x23_3754a0ff">
	<path fill="#3754A0" d="M413,216.15c12.1-1.521,24.13-3.72,36.31-4.59C461,291.4,466.25,372,476.27,452.03
		c1.76,19.01,3.5,38.01,4.73,57.061c1.709,24.08,4.13,48.101,6.959,72.069c1.391,10.63,3,21.271,5.569,31.7
		c4.54-0.189,9.062-0.7,13.59-1.189c17.41-1.45,34.91-0.479,52.312,0.63c-25.78,29.859-51.96,59.399-79.37,87.779
		c-8.73,9.271-18.46,17.591-26.4,27.58c-2.04,2.62-4.778,4.54-7.648,6.16c-14.95-9.109-29.311-19.141-43.391-29.54
		c-18.62-13.56-37.2-27.22-54.521-42.439c-12.66-11.13-25.061-22.561-37.229-34.21c12.591-2.391,25.439-3.03,38.159-4.521
		c10.11-1.21,20.312-1.53,30.4-2.931c-3.62-27.359-5.83-54.891-9.84-82.21c-4.141-29.29-6.931-58.75-11.5-87.979
		c-2.36-26.71-5.891-53.29-8.801-79.939c-5.061-47.7-10.221-95.391-14.899-143.131C360.6,223.36,386.86,220.22,413,216.15z"/>
</g>
<g id="_x23_cd031bff">
	<path fill="#CB021A" d="M323.26,762.61c40.26,0.479,80.51,1.59,120.77,2.149c12-0.09,23.98,0.859,35.98,0.681
		c33.43,0.64,66.85,1.43,100.278,2c-7.47,9.75-15.18,19.31-23.27,28.55c-8.39,9.59-17.12,19.03-27.39,26.66
		c-7.7,5.779-15.53,11.42-23.802,16.37c-7.47,3.729-15.71,5.5-23.62,8.029c-15.75,3.971-32.118,3.659-48.229,3.38
		c-9.55-1.34-18.66-4.67-27.771-7.71c-9.659-2.92-18.539-8.141-25.959-14.96c-7.74-7.271-15.771-14.229-23.75-21.229
		c-10.881-10.21-20.461-21.689-30.23-32.931C323.409,770.729,323.94,766.29,323.26,762.61z"/>
</g>
</svg>
