<?xml version="1.0" encoding="utf-8"?>
<!-- Generator: Adobe Illustrator 15.0.2, SVG Export Plug-In . SVG Version: 6.00 Build 0)  -->
<!DOCTYPE svg PUBLIC "-//W3C//DTD SVG 1.1//EN" "http://www.w3.org/Graphics/SVG/1.1/DTD/svg11.dtd">
<svg version="1.1" id="Layer_1" xmlns="http://www.w3.org/2000/svg" xmlns:xlink="http://www.w3.org/1999/xlink" x="0px" y="0px"
	 width="130px" height="130px" viewBox="0 0 130 130" enable-background="new 0 0 130 130" xml:space="preserve">
<rect fill="none" width="130" height="130"/>
<g>
	<path d="M65.154,69.68c6.707,0,12.142-5.533,12.142-12.366c0-6.824-5.435-12.358-12.142-12.358
		c-6.702,0-12.139,5.535-12.139,12.358C53.016,64.146,58.452,69.68,65.154,69.68"/>
	<path d="M92.423,53.948c0,0,1.433-3.736,1.433-6.744c0-3.007-0.64-6.744-3.186-6.744h-5.646v13.487l0,0v17.979h-3.311H48.604H45.29
		V53.948V40.459h-5.647c-2.544,0-3.181,3.737-3.181,6.744c0,3.008,1.43,6.744,1.43,6.744h-3.641v23.601
		c0.002,2.717,1.893,4.982,4.407,5.506c0.362,0.072,0.733,0.113,1.113,0.113c0.004,0,0.009-0.002,0.011-0.002h7.526l2.196,26.973
		h31.302l2.198-26.973h7.524c0.006,0,0.01,0.002,0.012,0.002c0.38,0,0.753-0.041,1.111-0.113c2.516-0.523,4.406-2.789,4.406-5.506
		V53.948H92.423z"/>
	<rect x="38.667" y="0" fill="#C7312C" width="52.978" height="40.462"/>
	<path fill="#FFFFFF" d="M76.979,19.234c0,6.946-5.107,12.522-11.834,12.522c-7.104,0-11.933-5.576-11.933-12.57
		c0-6.806,4.829-12.62,11.886-12.62C71.918,6.566,76.979,12.143,76.979,19.234z M74.611,19.186c0-5.576-4.038-10.21-9.514-10.21
		c-5.479,0-9.564,4.634-9.564,10.21c0,5.623,4.041,10.113,9.609,10.113C70.621,29.299,74.611,24.764,74.611,19.186z M61.568,22.588
		c0,0,1.578,0.283,3.434,0.283c1.721,0,2.229-1.701,2.229-3.829c0-1.984-0.369-3.545-2.229-3.545c-1.902,0-3.434,0.332-3.434,0.332
		l-0.047-3.641c0,0,1.441-0.284,3.48-0.284c4.225,0,5.711,2.554,5.711,7.137c0,5.012-1.486,7.422-5.711,7.422
		c-1.947,0-3.434-0.379-3.434-0.379V22.588z"/>
	<g>
		<path fill="#C7312C" d="M15.743,117.631h2.075v12.174h-2.075V117.631z"/>
		<path fill="#C7312C" d="M27.418,119.707c0,0-2.462-0.281-3.483-0.281c-1.442,0-2.165,0.459-2.165,1.445
			c0,1.037,0.599,1.301,2.64,1.881c2.531,0.738,3.428,1.424,3.428,3.553c0,2.533-1.688,3.695-4.151,3.695
			c-1.336,0-3.711-0.457-3.711-0.457l0.21-1.85c0,0,2.235,0.299,3.483,0.299c1.444,0,2.096-0.457,2.096-1.635
			c0-0.951-0.513-1.318-2.323-1.777c-2.638-0.688-3.729-1.496-3.729-3.676c0-2.324,1.6-3.484,4.222-3.484
			c1.355,0,3.643,0.439,3.643,0.439L27.418,119.707z"/>
		<path fill="#C7312C" d="M29.171,123.807c0-4.082,1.142-6.367,4.906-6.367c3.764,0,4.909,2.285,4.909,6.367
			c0,4.115-1.145,6.193-4.909,6.193C30.312,130,29.171,127.887,29.171,123.807z M36.855,123.807c0-2.832-0.545-4.381-2.778-4.381
			c-2.233,0-2.778,1.549-2.778,4.381c0,2.83,0.526,4.203,2.778,4.203S36.855,126.674,36.855,123.807z"/>
		<path fill="#C7312C" d="M39.571,117.631h8.794v1.988h-3.342v10.186h-2.074v-10.186h-3.378V117.631z"/>
		<path fill="#C7312C" d="M54.216,129.805h-2.075V124.6l-3.73-6.969h2.304l2.446,4.662l2.426-4.662h2.307l-3.677,6.984V129.805z"/>
		<path fill="#C7312C" d="M61.488,126.127v3.678h-2.057v-12.174h4.414c2.762,0,4.135,1.373,4.135,4.135
			c0,2.764-1.373,4.361-4.135,4.361H61.488L61.488,126.127z M63.83,124.141c1.387,0,2.04-0.895,2.04-2.375
			c0-1.461-0.653-2.146-2.04-2.146h-2.342v4.521H63.83L63.83,124.141z"/>
		<path fill="#C7312C" d="M69.891,117.631h7.596v1.969h-5.559v3.188h4.504v1.934h-4.504v3.115h5.559v1.971h-7.596V117.631z"/>
		<path d="M79.271,127.184h2.166v2.621h-2.166V127.184z"/>
		<path d="M83.381,123.807c0-4.082,1.145-6.367,4.911-6.367c3.761,0,4.906,2.285,4.906,6.367c0,4.115-1.146,6.193-4.906,6.193
			C84.525,130,83.381,127.887,83.381,123.807z M91.068,123.807c0-2.832-0.543-4.381-2.776-4.381s-2.78,1.549-2.78,4.381
			c0,2.83,0.527,4.203,2.78,4.203C90.544,128.01,91.068,126.674,91.068,123.807z"/>
		<path d="M100.049,125.654H97.34v4.15h-2.061v-12.174h4.591c2.782,0,4.119,1.145,4.119,3.924c0,1.828-0.669,2.885-1.919,3.498
			l1.919,4.752h-2.271L100.049,125.654z M99.871,119.602H97.34v4.082h2.567c1.424,0,1.954-0.846,1.954-2.094
			C101.861,120.254,101.211,119.602,99.871,119.602z"/>
		<path d="M110.941,123.438h3.433v6.156c0,0-2.499,0.404-4.032,0.404c-3.762,0-4.838-2.252-4.838-6.299
			c0-4.256,1.184-6.262,4.77-6.262c1.85,0,4.102,0.492,4.102,0.492l-0.055,1.793c0,0-2.146-0.279-3.748-0.279
			c-2.321,0-2.939,1.037-2.939,4.256c0,3.133,0.494,4.293,2.889,4.293c0.824,0,1.795-0.123,1.812-0.123v-2.588h-1.393V123.438
			L110.941,123.438z"/>
	</g>
</g>
</svg>
