<?xml version="1.0" encoding="utf-8"?>
<!-- Generator: Adobe Illustrator 16.0.0, SVG Export Plug-In . SVG Version: 6.00 Build 0)  -->
<!DOCTYPE svg PUBLIC "-//W3C//DTD SVG 1.1//EN" "http://www.w3.org/Graphics/SVG/1.1/DTD/svg11.dtd">
<svg version="1.1" id="Livello_1" xmlns="http://www.w3.org/2000/svg" xmlns:xlink="http://www.w3.org/1999/xlink" x="0px" y="0px"
	 width="768px" height="1024.604px" viewBox="0 0 768 1024.604" enable-background="new 0 0 768 1024.604" xml:space="preserve">
<g>
	<g>
		<g id="_x23_f87014ff">
			<path fill="#EC7022" d="M55.224,121.435c6.126,4.879,6.758,13.155,9.487,19.968c4.463,11.565,6.994,23.69,10.408,35.563
				c6.397,23.076,7.879,47.073,11.547,70.656c5.005,48.031,9.107,96.171,10.553,144.456c2.079,14.24,0.398,28.697,2.495,42.936
				c0.776,14.457,0.687,28.969,2.259,43.37c-11.765,0.217-22.841-4.211-34.316-6.071c-2.385-13.914-1.084-27.991-1.789-41.996
				c-2.584-23.221-1.121-46.676-3.055-69.97c-0.921-14.438-0.325-28.949-1.735-43.369c-0.939-18.306-0.289-36.666-2.059-54.936
				c-0.904-41.598-2.855-83.16-3.94-124.759C54.844,132.005,54.664,126.711,55.224,121.435z"/>
		</g>
		<g id="_x23_c7190cff">
			<path fill="#C61E1D" d="M354.273,222.358c34.461-6.198,69.155,3.253,101.685,14.186c15.919,5.385,32.31,10.373,46.369,19.877
				c16.281,9.723,33.05,20.059,44.128,35.871c10.605,13.227,20.402,27.123,27.773,42.448c3.83,7.063,7.57,14.203,11.744,21.088
				c11.188,29.039,16.245,59.868,22.083,90.281c3.472,19.263,6.162,38.688,8.854,58.078c0.706,12.631-0.343,25.299-1.191,37.911
				c-0.521,18.091-0.359,36.249-3.289,54.177c-3.867,34.679-13.518,68.396-24.99,101.25c-1.211,3.358-2.388,6.739-3.508,10.137
				c-4.047,11.188-7.787,22.479-12.539,33.413c-4.267,8.891-7.896,18.197-13.569,26.347c-9.524,13.59-20.529,26.202-32.799,37.371
				c-22.696,15.938-46.932,29.707-72.065,41.398c-12.795,6.254-27.251,7.266-41.111,9.417c-20.438,3.09-41.235,1.59-61.655-0.616
				c-28.534-6.542-57.048-14.98-82.637-29.51c-14.222-7.281-26.239-18.018-38.382-28.264
				c-12.505-12.485-24.268-26.185-31.895-42.267c-16.715-30.757-30.846-62.814-43.694-95.342
				c-3.524-8.98-8.638-17.438-10.156-27.105c-5.584-22.045-9.758-44.362-12.794-66.896c-4.012-18.413-2.928-37.389-1.952-56.073
				c0.162-14.492,0.452-28.967,0.669-43.46c2.096-26.708,7.842-53.127,17.022-78.3c2.313-6.687,3.614-13.733,6.849-20.076
				c10.209-20.745,20.419-41.508,32.165-61.44c3.669-6.831,9.831-11.709,15.469-16.841c10.518-9.054,20.979-18.378,33.07-25.335
				c13.679-8.403,28.533-14.565,42.881-21.703C302.412,235.008,328.307,228.448,354.273,222.358"/>
			<path fill="#C61E1D" d="M684.82,365.749c9.794-0.759,20.512-1.916,29.167,3.812c5.4,6.252,8.185,14.511,5.204,22.607
				c-2.078,14.998-12.761,26.256-22.48,36.991c-7.625,8.077-14.727,16.625-22.643,24.431c-10.281-7.029-19.644-15.305-28.152-24.376
				c-9.921-9.958-20.204-22.137-19.336-37.117c-0.759-8.674,4.734-15.902,9.053-22.858c2.621-0.867,5.259-1.753,7.825-2.8
				c10.59-1.807,19.136,5.818,28.785,8.601C676.526,372.073,680.827,369.109,684.82,365.749z"/>
		</g>
		<g id="_x23_3754a0ff">
			<path fill="#38549E" d="M622.64,736.574c5.151-21.376,10.844-42.629,16.373-63.896c16.138,2.711,31.896,7.301,47.979,10.301
				c6.577,1.155,13.119,2.478,19.479,4.572c-3.217,22.426-10.12,44.091-15.286,66.12c-9.866,36.031-17.873,72.552-28.427,108.386
				c-5.259,19.303-10.987,38.545-13.896,58.368c11.601,2.71,22.551,7.465,33.72,11.53c-0.146,1.479-0.271,2.963-0.381,4.463
				c-23.021,12.216-45.863,24.83-69.607,35.617c-5.294,2.493-10.301,5.891-16.209,6.775c-20.06-27.521-39.014-56.107-53.019-87.244
				c13.441,1.662,26.383,5.943,39.411,9.485C596.492,846.335,608.093,791.095,622.64,736.574z"/>
		</g>
	</g>
</g>
<path fill="#F2AABC" d="M357.472,393.469c2.024-0.796,4.066-1.591,6.091-2.386c2.529,2.44,5.838,4.445,7.209,7.842
	c4.229,18.812,7.625,37.841,12.308,56.562c6.29,18.052,6.812,37.333,10.807,55.91c6.124,40.425,15.992,80.143,27.306,119.394
	c4.264,15.774,9.827,31.153,14.602,46.746c5.763,15.38,8.294,31.698,8.167,48.087c-5.077,1.645-10.316,2.818-15.632,3.38
	c-11.51,1.229-22.876,3.938-34.497,3.993c-15.323,0.271-30.664,0.127-45.988,0c-1.952-24.575,2.366-48.953,2.24-73.493
	c1.283-14.401,1.283-28.876,0.958-43.314c-2.458-25.227-0.85-50.635-1.861-75.934c-1.662-21.646-1.012-43.387-1.427-65.089
	c0.253-13.229-2.548-26.402-0.795-39.611C348.708,421.279,347.859,405.269,357.472,393.469z"/>
<g id="_x23_040404ff">
	<path fill="#030303" d="M470.666,310.254c7.987-10.751,20.492-17.402,33.883-18.088c7.211,4.589,14.998,9.939,17.871,18.414
		c2.658,8.096,0.688,16.842-3.614,23.998c-3.612,8.656-12.25,15.596-21.897,15.415c-9.072,1.229-16.301-5.71-22.408-11.402
		C466.817,331.161,469.366,319.651,470.666,310.254z"/>
	<path fill="#030303" d="M201.649,340.667c9.668-4.337,20.691-9.578,31.371-5.62c9.415,3.867,19.154,10.969,20.473,21.865
		c2.44,7.969-3.595,14.891-8.511,20.402c-7.896,7.518-20.166,12.378-30.72,7.752c-9.794-4.173-15.143-13.877-21.847-21.54
		C192.09,355.159,193.121,344.787,201.649,340.667z"/>
</g>
<g id="_x23_fde34bff">
	<path fill="#FCE34C" d="M310.669,82.601c14.239-0.921,28.228-4.626,42.574-4.048c-2.114,2.404-4.174,4.826-6.361,7.157
		c-0.232,0.199-0.687,0.633-0.903,0.831c-16.027,10.788-30.882,24.341-49.945,29.527l-0.488,0.145
		c-26.87,6.812-54.843,6.56-82.329,5.204c-24.035-2.981-48.683-4.156-71.596-12.667c2.167-4.916,7.68-5.53,12.251-6.723
		c27.63-6.596,56.2-7.101,84.155-11.764c10.715-0.506,21.503-3.127,32.201-1.464c0.018-0.415,0.072-1.247,0.108-1.663l0.054-0.74
		l2.801-0.198C285.75,85.564,298.165,83.576,310.669,82.601z"/>
</g>
<rect fill="none" width="768" height="1024.604"/>
</svg>
