<?xml version="1.0" encoding="utf-8"?>
<!-- Generator: Adobe Illustrator 16.0.0, SVG Export Plug-In . SVG Version: 6.00 Build 0)  -->
<!DOCTYPE svg PUBLIC "-//W3C//DTD SVG 1.1//EN" "http://www.w3.org/Graphics/SVG/1.1/DTD/svg11.dtd">
<svg version="1.1" id="Livello_1" xmlns="http://www.w3.org/2000/svg" xmlns:xlink="http://www.w3.org/1999/xlink" x="0px" y="0px"
	 width="768px" height="1024.604px" viewBox="0 0 768 1024.604" enable-background="new 0 0 768 1024.604" xml:space="preserve">
<g>
	<g id="_x23_c7190cff">
		<path fill="#C61E1D" d="M355.9,221.997c37.782-6.307,75.048,6.144,110.481,17.926c2.353,0.85,4.697,1.681,7.065,2.53
			c7.97,3.198,16.119,6.09,23.475,10.607c15.324,9.47,31.516,18.342,43.693,31.913c10.825,13.643,21.992,27.213,29.962,42.809
			c5.241,10.192,11.132,20.059,16.209,30.34c4.03,9.884,6.704,20.275,9.396,30.611c6.035,23.853,10.229,48.123,14.366,72.373
			c2.062,11.403,3.47,22.914,5.169,34.391c2.945,15.991,0.688,32.31-0.055,48.394c-0.254,11.419-0.614,22.843-0.903,34.279
			c-3.921,41.327-13.569,81.949-27.919,120.891c-0.959,2.805-1.935,5.604-2.838,8.439c-4.084,11.224-7.806,22.588-12.595,33.558
			c-4.229,8.963-7.97,18.232-13.607,26.438c-9.468,13.681-20.619,26.185-32.87,37.407c-22.083,15.504-45.646,28.91-70.041,40.387
			c-13.842,7.048-29.562,8.403-44.688,10.555c-19.118,2.873-38.49,1.139-57.627-0.452c-17.999-3.289-35.454-9.018-52.729-14.906
			c-15.162-5.767-29.816-12.866-43.497-21.597c-9.505-6.612-18.396-14.095-27.196-21.63c-11.765-11.928-23.221-24.685-30.611-39.882
			c-7.283-13.825-14.584-27.666-21.161-41.87c-4.663-10.028-9.036-20.167-13.354-30.358c-4.771-10.949-8.854-22.188-13.715-33.104
			c-7.048-13.662-8.674-29.185-12.487-43.894c-4.536-18.739-5.71-38.075-9.83-56.904c-0.669-28.371,1.464-56.669,1.301-85.04
			c2.115-26.546,7.807-52.821,16.842-77.884c1.897-5.404,3.343-10.935,5.023-16.408c10.879-22.101,21.576-44.31,34.117-65.524
			c3.759-6.812,9.831-11.8,15.505-16.932c9.342-7.951,18.468-16.282,28.913-22.788c14.132-9.089,29.564-15.866,44.688-23.058
			c6.958-3.452,14.692-4.716,22.137-6.705C316.271,231.755,335.951,226.298,355.9,221.997"/>
		<path fill="#C61E1D" d="M684.947,365.64c10.663-0.488,24.667-2.801,31.567,7.59c6.199,6.958,3.451,16.751,1.229,24.739
			c-2.909,11.746-11.729,20.51-19.336,29.4c-8.366,8.403-15.359,18.143-24.449,25.806c-10.571-6.126-19.426-15.162-27.992-23.89
			c-9.938-9.921-20.257-22.137-19.389-37.117c-0.831-8.24,4.605-14.908,7.697-22.028c3.09-1.283,6.218-2.53,9.253-3.958
			c10.534-1.157,19.153,5.818,28.693,8.854C676.472,371.911,680.864,368.966,684.947,365.64z"/>
	</g>
	<g id="_x23_3754a0ff">
		<path fill="#38549E" d="M637.819,845.613c8.274-64.946,18.433-129.641,29.383-194.188c22.932,3.649,46.151,5.241,69.028,9.183
			c-6.019,47.271-15.089,94.129-21.758,141.328c-4.879,31.984-13.605,63.571-14.654,96.026c12.308,1.481,24.196,5.241,36.017,8.908
			c-3.724,5.71-9.903,8.817-15.36,12.541c-21.701,14.222-43.514,28.407-66.246,40.876c-10.154-6.704-16.479-17.873-24.484-26.889
			c-14.438-17.022-26.709-35.729-37.966-54.953c13.821,0.29,27.157,4.606,40.966,4.97
			C633.501,870.695,636.104,858.208,637.819,845.613z"/>
	</g>
	<g id="_x23_f1aabcff">
		<path fill="#F2AABC" d="M39.666,837.951c13.968-28.696,32.4-55.078,53.777-78.732c8.674,6.378,17.402,12.757,25.064,20.365
			c21.088,18.666,41.852,37.713,64.404,54.626c23.961,16.933,46.838,35.329,70.331,52.911c18.974,14.114,37.117,29.31,56.561,42.828
			c13.951,9.125,25.876,21.068,36.575,33.771c4.861,5.206,5.764,12.345,5.818,19.156c-5.132,0.56-10.625,1.734-15.36-1.014
			c-17.781-8.69-35.201-18.216-53.489-25.876c-6.072-2.62-12.107-5.351-17.835-8.673c-21.848-12.851-44.165-24.887-66.645-36.575
			c-20.021-9.524-40.37-18.344-60.681-27.216c-23.51-10.787-48.267-18.359-72.066-28.426
			C56.236,851.16,48.122,844.186,39.666,837.951z"/>
	</g>
</g>
<g id="_x23_f87014ff">
	<path fill="#EC7022" d="M355.069,358.665c1.028-0.072,3.09-0.235,4.12-0.307c8.943,21.739,14.744,44.562,20.617,67.277
		c8.657,41.128,12.324,83.088,16.264,124.869c3.739,22.334,3.055,45.031,5.621,67.475c0.703,10.191-0.057,20.455,1.428,30.596
		c1.969,13.498,0.561,27.141,0.379,40.711c0.688-5.908,1.266-11.816,1.952-17.729c0.958,13.303,2.222,26.602,1.77,39.955
		c-11.22-1.48-22.172-4.41-33.339-6.271c-2.148-25.406-1.445-50.995-4.337-76.351c-0.181-25.367-3.958-50.576-3.416-75.967
		c0.362-10.301-2.494-20.349-2.349-30.63c0.849-21.143-3.452-42.051-3.235-63.193c0.326-13.949-0.649-27.847-1.771-41.743
		C358.791,397.715,355.81,378.271,355.069,358.665z"/>
</g>
<g id="_x23_050404ff">
	<path fill="#040404" d="M478.835,394.228c7.788-7.535,18.505-13.335,29.598-12.415c10.5,4.337,19.119,14.872,18.923,26.618
		c-1.103,6.451-4.212,12.378-7.265,18.088c-5.549,8.997-16.48,13.68-26.854,11.765c-7.176-5.548-16.555-10.21-19.408-19.443
		C472.636,410.545,472.456,400.589,478.835,394.228z"/>
	<path fill="#040404" d="M221.039,423.665c17.059-4.482,37.587,9.722,36.124,28.117c-4.536,13.479-18.179,23.871-32.599,23.146
		c-11.222-0.975-18.324-10.806-24.83-18.847c-5.601-5.729-3.09-14.457-0.56-21.017C204.125,428.038,213.287,426.069,221.039,423.665
		z"/>
</g>
<g id="_x23_fde34bff">
	<path fill="#FCE34C" d="M442.657,734.714c18.974-1.013,37.658-5.241,56.67-5.601c-2.767,3.647-6.053,6.847-9.614,9.72
		c-8.674,6.452-17.654,12.487-26.562,18.597c-7.986,5.603-17.638,7.732-26.871,10.318c-23.816,6.215-48.61,4.715-72.95,4.336
		c-24.938-2.584-50.363-4.264-74.251-12.505c0.18-1.084,0.542-3.253,0.704-4.338c31.642-8.401,64.528-9.413,96.731-14.564
		C405.306,739.521,423.918,736.412,442.657,734.714z"/>
</g>
<rect fill="none" width="768" height="1024.604"/>
</svg>
