<?xml version="1.0" encoding="utf-8"?>
<!-- Generator: Adobe Illustrator 15.0.2, SVG Export Plug-In . SVG Version: 6.00 Build 0)  -->
<!DOCTYPE svg PUBLIC "-//W3C//DTD SVG 1.1//EN" "http://www.w3.org/Graphics/SVG/1.1/DTD/svg11.dtd">
<svg version="1.1" id="Livello_1" xmlns="http://www.w3.org/2000/svg" xmlns:xlink="http://www.w3.org/1999/xlink" x="0px" y="0px"
	 width="886px" height="886px" viewBox="0 0 886 886" enable-background="new 0 0 886 886" xml:space="preserve">
<path fill="#CB021A" d="M227.52,575.051c16.021,8.41,31.771,17.33,47.95,25.439c18.32,9.53,36.56,19.271,55.54,27.46
	c13.89,5.851,27.979,11.229,42.33,15.841c20.81,4.3,41.92,6.909,62.858,10.479c5.521,1.05,11.15,0.31,16.73,0.25
	c29.5-1.811,59.05-3.801,88.28-8.36c18.3-5.351,36.229-11.931,53.938-18.97c16.3-6.229,32.91-12.021,47.93-21.07
	c11.302-6.699,23.182-12.42,34.142-19.689c-10.75,17.62-21.97,34.99-34.45,51.439c-10,13.12-21.979,24.53-33.71,36.061
	c-16.03,11.439-32.54,22.57-50.82,30.12c-22.148,9.8-46.529,12.279-70.238,15.891c-26.58,1.26-53.32,1.35-79.812-1.609
	c-11.399-1.381-22.88-3.011-33.71-6.95c-12.649-4.41-24.439-10.939-35.68-18.15c-14.771-9.959-27.91-22-41.28-33.699
	c-12.66-12.37-25.41-24.7-36.77-38.301C248.29,606.9,237.31,591.32,227.52,575.051z"/>
</svg>
