<?xml version="1.0" encoding="utf-8"?>
<!-- Generator: Adobe Illustrator 16.0.0, SVG Export Plug-In . SVG Version: 6.00 Build 0)  -->
<!DOCTYPE svg PUBLIC "-//W3C//DTD SVG 1.1//EN" "http://www.w3.org/Graphics/SVG/1.1/DTD/svg11.dtd">
<svg version="1.1" id="Livello_1" xmlns="http://www.w3.org/2000/svg" xmlns:xlink="http://www.w3.org/1999/xlink" x="0px" y="0px"
	 width="886px" height="886px" viewBox="0 0 886 886" enable-background="new 0 0 886 886" xml:space="preserve">
<g id="_x23_010101ff">
	<path d="M415.547,44.548c6.513-0.27,13.031-0.368,19.551-0.339l-0.007-0.47c9.513-0.116,19.04-0.255,28.546,0.054v0.479
		c2.91,0.093,5.948-0.501,8.763,0.547c2.956,0.131,5.892,0.493,8.849,0.555c1.425,0.625,2.978,0.655,4.5,0.748
		c4.262,0.871,8.628,1.352,12.855,2.467c1.2,0.286,2.435,0.486,3.661,0.688c1.253,0.314,2.517,0.646,3.735,1.103
		c1.141,0.155,2.271,0.271,3.438,0.362l-0.072,0.401c1.856,0.568,3.732,1.041,5.635,1.496c2.311,0.522,4.591,1.172,6.85,1.92
		c1.822,0.607,3.652,1.226,5.528,1.694v0.226c0.487,0.092,1.455,0.276,1.939,0.37c0.981,0.407,1.988,0.717,3.019,1.023
		c1.988,0.727,3.977,1.458,5.995,2.121c1.185,0.401,2.386,0.764,3.579,1.18c1.665,0.519,3.364,1.025,4.856,1.989
		c0.9,0.339,1.812,0.655,2.728,1.002c1.748,0.409,3.494,0.888,5.229,1.411c1.271,0.432,2.543,0.848,3.825,1.28
		c0.969,0.408,1.974,0.794,2.964,1.193c4.014,1.352,7.741,3.439,11.612,5.167l0.137,0.472c0.247-0.017,0.729-0.062,0.976-0.084
		c1.938,1.108,3.953,2.074,5.975,3.028c0.878,0.349,1.748,0.719,2.646,1.058l0.082,0.399c0.854,0.408,1.732,0.833,2.604,1.233
		c0.413,0.155,1.234,0.463,1.646,0.617c0.438,0.216,1.312,0.646,1.748,0.863l0.045,0.332c0.87,0.393,1.74,0.815,2.627,1.218
		c0.43,0.216,1.271,0.654,1.688,0.872l0.061,0.539l0.513-0.047c0.905,0.492,1.839,0.955,2.78,1.42
		c1.31,0.692,2.618,1.396,3.916,2.128c0.787,0.378,1.584,0.764,2.39,1.142c1.373,0.679,2.743,1.342,4.097,2.083
		c0.848,0.462,1.702,0.933,2.559,1.403c1.811,0.91,3.586,1.856,5.4,2.753c0.668,0.377,1.343,0.748,2.026,1.126
		c2.048,0.917,4.051,1.941,6.036,3.007c1.264,0.671,2.508,1.38,3.752,2.104c1.225,0.549,2.433,1.156,3.651,1.735
		c1.021,0.555,2.025,1.118,3.056,1.688c0.98,0.484,1.955,0.979,2.946,1.479c1.021,0.532,2.048,1.063,3.076,1.62
		c2.092,1.095,4.163,2.275,5.948,3.871c2.626,2.128,5.354,4.118,8.163,6c1.763,1.396,3.578,2.737,5.288,4.21l0.529-0.046
		l0.157,0.417c1.493,1.21,3.001,2.396,4.524,3.578l0.613-0.193l-0.118,0.562c0.858,0.725,1.718,1.473,2.55,2.242
		c0.203,0.231,0.601,0.68,0.796,0.902c9.723,9.508,19.022,19.463,28.492,29.232c5.057,4.927,10.001,9.979,14.787,15.184l0.073,0.17
		c1.146,1.051,2.196,2.215,3.166,3.455l0.072,0.218c0.826,1.095,1.757,2.104,2.648,3.152l-0.127,0.532l0.465,0.078
		c0.796,1.095,1.648,2.149,2.438,3.262c1.32,1.65,2.775,3.187,4.104,4.834c1.583,1.998,3.248,3.935,4.839,5.931
		c1.14,1.364,2.312,2.723,3.376,4.163c1.565,1.997,3.369,3.786,4.974,5.753c0.165,0.225,0.495,0.671,0.653,0.895
		c1.05,1.234,2.086,2.491,3.091,3.771c0.172,0.199,0.521,0.587,0.687,0.778c0.885,1.181,1.818,2.336,2.698,3.531l0.138,0.263
		c3.028,3.277,5.817,6.778,8.407,10.448c0.055,0.154,0.175,0.463,0.228,0.625c1.096,1.542,2.123,3.138,3.144,4.742
		c3.103,3.594,5.19,7.903,7.944,11.759c2.386,3.794,5.079,7.372,7.519,11.143c3.854,6.084,8.353,11.821,11.244,18.499
		c0.315,0.855,0.66,1.713,0.998,2.576c0.729,1.488,1.392,3.017,2.096,4.526c0.035,0.162,0.099,0.486,0.137,0.646
		c0.675,1.479,1.312,2.992,1.973,4.496c0.24,0.786,0.503,1.581,0.805,2.358c0.365,0.825,0.75,1.658,1.125,2.499
		c0.33,0.718,0.677,1.435,1.021,2.159c0.495,1.295,1.035,2.583,1.583,3.871c0.577,1.597,1.238,3.16,1.812,4.771
		c0.404,0.972,0.779,1.976,1.209,2.953c0.485,0.986,0.938,1.997,1.464,2.978c0.849,2.397,1.83,4.733,2.642,7.147
		c0.442,1.296,0.981,2.567,1.463,3.855c0.87,2.081,1.785,4.154,2.771,6.19c0.026,0.177,0.091,0.54,0.119,0.727
		c0.467,0.985,0.888,2.005,1.345,3.015c0.741,2.121,1.563,4.21,2.476,6.27c0.668,1.488,1.282,3.01,1.988,4.488
		c0.854,2.273,1.575,4.618,1.883,7.047c0.396,1.257,0.532,2.567,0.721,3.879c0.397,1.203,0.614,2.438,0.896,3.68
		c0.483,1.542,0.479,3.17,0.604,4.772c0.375,1.256,0.646,2.552,0.959,3.839c0.285,1.267,0.469,2.537,0.715,3.816
		c0.631,3.093,1.371,6.207,1.318,9.398c0.338,1.02,0.66,2.053,1.016,3.085c0.301,1.78,0.479,3.577,0.537,5.391
		c0.322,0.995,0.642,1.998,0.99,3c0.105,1.805,0.227,3.64,0.705,5.396c0.646,4.891,1.613,9.739,2.104,14.659
		c0.354,1.271,0.646,2.601,1.08,3.862c0.1,1.852-0.118,3.803,0.75,5.521c0.137,2.27,0.145,4.552,0.396,6.815
		c0.593,3.294,0.271,6.679,0.24,10.01c-0.42,1.279-0.42,2.631,0.037,3.908c0.073,3.726,0.016,7.449,0.11,11.183l-0.55-0.067
		c-0.164,4.75-0.09,9.508-0.27,14.266c-1.182,3.502,0.081,7.325-1.099,10.856c-0.119,4.118-0.428,8.233-0.421,12.358
		c-0.375,1.013-0.688,2.043-0.998,3.084c-0.225,1.145-0.403,2.291-0.53,3.455l-0.504-0.021c0.082,2.234-0.383,4.411-0.923,6.562
		c-0.556,2.281-1.081,4.58-1.704,6.851c-0.491,2.344-1.132,4.664-1.48,7.047c-0.301,0.777-0.593,1.563-0.87,2.358
		c-0.218,0.986-0.397,1.979-0.549,2.982c-0.299,0.771-0.577,1.551-0.832,2.346c-0.558,2.043-1.08,4.095-1.646,6.14
		c-0.226,0.985-0.42,1.996-0.657,2.989c-0.293,0.771-0.577,1.561-0.852,2.347c-0.428,1.604-0.941,3.178-1.388,4.778
		c-0.285,0.986-0.555,1.99-0.84,2.984c-0.232,1.01-0.413,2.034-0.585,3.067c-0.688,1.771-1.23,3.606-1.824,5.43
		c-0.556,1.318-1.064,2.669-1.672,3.972c0.015,0.23,0.045,0.688,0.053,0.918l-0.451,0.123c-0.593,2.838-1.702,5.517-2.76,8.197
		c-0.533,1.247-1.06,2.506-1.591,3.771c-0.706,1.816-1.366,3.651-2.063,5.486c-0.411,0.965-0.777,1.959-1.186,2.935
		c-0.9,2.109-1.854,4.198-2.82,6.28c-1.035,2.898-2.341,5.687-3.696,8.438c-1.878,3.224-3.231,6.725-5.014,9.993
		c0.007,0.264,0.021,0.776,0.038,1.041l-0.854,0.209c0.066,0.347,0.193,1.032,0.265,1.38l-1.021,0.17
		c0.062,0.348,0.173,1.033,0.232,1.372l-0.562,0.123c-0.894,2.044-1.922,4.02-2.807,6.065l-0.601,0.143
		c0.045,0.331,0.143,1.002,0.191,1.341l-0.593,0.154c-0.247,0.483-0.75,1.439-0.998,1.921c0.016,0.263,0.045,0.776,0.062,1.033
		l-0.805,0.186c0.019,0.263,0.055,0.778,0.074,1.032c-0.65,1.041-1.188,2.148-1.732,3.254c-0.621,1.204-1.205,2.423-1.838,3.633
		c-0.479,1.05-1.051,2.062-1.554,3.107c-0.51,1.019-1.026,2.033-1.537,3.062c-0.586,1.335-1.224,2.646-1.809,3.986
		c-0.421,0.692-0.832,1.389-1.245,2.091c-0.322,0.862-0.687,1.72-1.016,2.591c-0.522,1.021-1.059,2.036-1.562,3.068
		c-0.367,0.692-0.742,1.38-1.125,2.063c-0.652,1.684-1.479,3.284-2.423,4.807c0.007,0.199,0.021,0.605,0.027,0.811
		c-0.538,0.688-1.062,1.372-1.592,2.065l0.101,0.633l-0.851,0.038c0.037,0.275,0.104,0.825,0.146,1.104
		c-1.245,1.772-2.388,3.617-3.383,5.555l-0.267,0.093c-0.593,1.229-1.208,2.442-1.82,3.679c-0.54,0.812-1.061,1.646-1.574,2.482
		c-0.368,0.642-0.735,1.288-1.104,1.941c-1.688,2.604-3.479,5.146-5.042,7.844c-0.658,1.078-1.351,2.146-2.003,3.229
		c-0.788,0.986-1.599,1.966-2.36,2.978c-1.429,2.111-2.883,4.212-4.485,6.19c-0.772,1.08-1.568,2.146-2.333,3.238l-0.21,0.094
		c-0.969,1.44-2.05,2.799-3.092,4.188c-0.761,1.062-1.62,2.044-2.434,3.062l-0.038,0.255c-0.96,1.134-1.883,2.3-2.812,3.455
		c-0.164,0.216-0.495,0.654-0.659,0.87c-1.118,1.628-2.244,3.255-3.421,4.853c-3.062,3.812-6.647,7.116-9.821,10.817
		c-0.147,0.238-0.439,0.717-0.593,0.955c-1.792,2.052-3.651,4.041-5.626,5.915c-0.548,0.493-1.104,0.973-1.666,1.435l-0.074,0.2
		c-4.785,3.925-8.725,8.837-13.781,12.461c-2.113,1.599-4.187,3.247-6.183,4.997c-1.207,0.863-2.394,1.77-3.557,2.707
		c-0.183,0.187-0.539,0.562-0.724,0.748c-1.654,1.334-3.199,2.812-4.846,4.155c-3.055,2.271-5.799,4.928-8.628,7.473
		c-0.164,0.191-0.495,0.569-0.667,0.766c-1.861,1.798-3.698,3.633-5.409,5.591l-0.556-0.067l0.053,0.87
		c-0.23,0-0.698,0.016-0.93,0.022c-0.979,1.057-2.004,2.06-3.031,3.062c-0.255-0.038-0.771-0.115-1.035-0.153l-0.156,0.948
		l-0.897-0.171l-0.062,0.864c-0.219,0.008-0.658,0.016-0.879,0.016c-1.598,1.267-3.309,2.367-5.094,3.312l-0.045,0.566
		c-0.24-0.015-0.713-0.053-0.953-0.075c-1.979,1.428-4.043,2.729-6.039,4.116c-0.803,0.447-1.574,0.919-2.333,1.42
		c-0.968,0.671-1.95,1.325-2.901,2.014c-2.544,1.487-5.106,2.944-7.529,4.644c-0.818,0.311-1.613,0.663-2.409,1.012
		c-1.192,0.661-2.394,1.333-3.557,2.062c-1.3,0.615-2.564,1.288-3.855,1.901c-0.457,0.17-1.364,0.512-1.821,0.682l-0.062,0.433
		c-1.104,0.539-2.259,0.965-3.323,1.588c-0.982,0.494-1.979,0.975-2.939,1.496c-3.825,1.666-7.439,3.778-11.225,5.528
		c-0.375,0.17-1.109,0.502-1.484,0.671c-1.8,0.85-3.562,1.789-5.387,2.604c-1.464,0.662-2.935,1.325-4.336,2.104
		c-1.787,0.934-3.571,1.856-5.438,2.591c-1.034,0.485-2.069,0.965-3.074,1.496c-1.192,0.603-2.408,1.156-3.604,1.759
		c-4.904,1.911-10.075,2.938-15.023,4.734c-3.515,0.895-6.973,1.997-10.413,3.138c-2.521,0.709-5.025,1.479-7.486,2.394
		c-1.521,0.462-3.055,0.927-4.584,1.351c-0.729,0.31-1.439,0.641-2.146,0.994c-0.805,0.102-1.592,0.216-2.379,0.347
		c-0.981,0.378-1.974,0.732-2.955,1.111c-0.771,0.199-1.529,0.424-2.288,0.663c-0.989,0.245-1.975,0.501-2.939,0.794
		c-0.767,0.238-1.53,0.485-2.28,0.756c-2.278,0.693-4.521,1.55-6.862,2.021c-0.981,0.368-1.958,0.738-2.927,1.134
		c-1.794,0.264-3.504,0.862-5.198,1.467c-1.307,0.361-2.587,0.785-3.855,1.227c-1.223,0.387-2.451,0.718-3.668,1.096
		c-0.713,0.276-1.426,0.562-2.123,0.863c-2.348,0.557-4.6,1.428-6.908,2.091c-2.184,0.771-4.428,1.381-6.745,1.436
		c-2.981,0.854-6.046,1.473-9.146,1.551c-1.188,0.408-2.407,0.701-3.604,1.087c-1.748,0.277-3.519,0.389-5.278,0.501
		c-3.24,0.817-6.597,0.987-9.846,1.769c-7.611,0.076-15.132,1.343-22.735,1.231l0.021,0.493c-7.275,0.055-14.556,0.085-21.832-0.017
		l0.021-0.472c-3.369-0.161-6.781,0.009-10.104-0.634c-4.044-0.199-8.005-1.01-12.02-1.396c-1.484-0.341-2.985-0.587-4.448-0.964
		c-1.486-0.18-2.979-0.342-4.448-0.559c-1.261-0.386-2.563-0.586-3.854-0.785c-1.771-0.354-3.57-0.417-5.333-0.811
		c-1.463-0.311-2.948-0.485-4.411-0.74c-2.152-0.386-4.254-0.973-6.369-1.466l-0.016-0.161c-0.899-0.301-1.786-0.625-2.656-0.964
		c-0.475-0.086-1.425-0.239-1.905-0.315l0.075-0.479c-0.479-0.077-1.439-0.238-1.921-0.314c-0.978-0.407-1.958-0.777-2.925-1.155
		c-0.998-0.255-1.989-0.52-2.965-0.794c-1.509-0.55-3.037-1.06-4.575-1.487c-1.144-0.339-2.251-0.771-3.369-1.148l-0.099-0.255
		c-1.097-0.284-2.178-0.568-3.22-0.979c-0.413-0.095-1.235-0.293-1.645-0.396c-0.969-0.393-1.929-0.756-2.873-1.143
		c-0.788-0.146-1.562-0.3-2.333-0.445c-1.604-0.68-3.256-1.257-4.966-1.526l0.119-0.254c-1.171-0.395-2.325-0.811-3.488-1.203
		c-2.011-0.738-3.991-1.562-5.94-2.438c-1.599-0.604-3.211-1.164-4.854-1.581l-0.028-0.047c-0.85-0.276-1.688-0.578-2.507-0.896
		c-1.545-0.679-3.075-1.389-4.629-2.024c-0.757-0.294-1.521-0.559-2.288-0.786c-0.944-0.378-1.883-0.749-2.812-1.126
		c-2.315-0.748-4.636-1.504-6.872-2.469c-0.142-0.056-0.435-0.162-0.584-0.218c-4.216-1.003-7.683-3.688-11.521-5.554
		c-1.831-1.286-3.773-2.396-5.739-3.445l-0.517-0.036l-0.067-0.579c-0.886-0.399-1.764-0.804-2.641-1.182
		c-0.338-0.309-0.998-0.927-1.328-1.23c-0.826-0.324-1.636-0.646-2.446-0.94c-0.413-0.263-1.234-0.771-1.647-1.022l-0.091-0.524
		l-0.895,0.179L266.062,795c-1.613-1.02-3.121-2.189-4.614-3.377c-0.195-0.009-0.585-0.022-0.788-0.031
		c-0.338-0.398-1.013-1.193-1.35-1.597c-0.195,0.028-0.585,0.085-0.78,0.114c-2.918-2.137-5.807-4.325-8.896-6.178
		c-0.194-0.146-0.569-0.432-0.767-0.578c-0.811-0.625-1.613-1.271-2.408-1.896c-0.166,0.008-0.495,0.03-0.658,0.039
		c-1.373-1.135-2.73-2.275-4.136-3.35l-0.028-0.472l-0.84,0.062l-0.061-0.293c-0.84-0.578-1.636-1.188-2.491-1.714
		c-0.531-0.482-1.062-0.946-1.598-1.4c-1.253-1.049-2.505-2.082-3.805-3.047c-0.339-0.284-1.027-0.854-1.365-1.144
		c-1.995-1.521-4.126-2.838-6.211-4.211c-0.174-0.186-0.521-0.555-0.69-0.739c-0.826-0.729-1.648-1.474-2.454-2.204
		c-0.897-0.862-1.8-1.721-2.686-2.566c-1.021-0.594-2.021-1.232-2.993-1.873l-0.42-0.094l0.104-0.85l-0.522,0.017
		c-0.218-0.226-0.653-0.681-0.87-0.901c-0.292-0.263-0.878-0.794-1.178-1.062c-3.105-1.893-5.672-4.561-8.32-7.04
		c-0.788-0.681-1.562-1.373-2.333-2.044c-0.953-0.896-1.914-1.789-2.889-2.64c-0.961-0.737-1.898-1.504-2.821-2.272
		c-1.352-1.188-2.73-2.327-4.006-3.585c-1.193-1.335-2.454-2.594-3.714-3.851c-0.603-0.454-1.192-0.888-1.793-1.325
		c-1.29-1.163-2.561-2.354-3.9-3.438c0.021-0.239,0.061-0.709,0.075-0.941l-0.623-0.036c-0.315-0.417-0.938-1.267-1.253-1.683
		c-0.195,0.03-0.577,0.106-0.773,0.146c-5.746-5.354-10.953-11.288-16.684-16.654c-0.685-0.91-1.344-1.854-1.958-2.8l-0.181-0.068
		c-0.767-0.889-1.554-1.751-2.333-2.6c-0.211-0.341-0.623-1.021-0.833-1.353c-0.257-0.19-0.76-0.578-1.007-0.771l0.101-0.562
		l-0.812-0.015l0.104-0.918l-0.64,0.34c-0.346-0.871-0.688-1.734-1.042-2.592l-0.639,0.093l0.083-0.569
		c-0.225-0.19-0.667-0.577-0.893-0.771c-2.146-2.762-4.218-5.582-6.279-8.396c-0.697-1.051-1.372-2.081-2.062-3.113
		c-0.562-0.863-1.097-1.729-1.619-2.594l-0.549,0.133l0.083-0.854l-0.422-0.101c-1.553-2.104-3.194-4.147-4.538-6.4
		c-0.437-0.585-0.842-1.18-1.225-1.78c-0.502-0.646-0.944-1.324-1.343-2.025l0.015-0.523l-0.84,0.047l0.172-0.918l-0.556,0.03
		c-1.035-1.742-2.101-3.471-2.798-5.383l-0.271,0.199c-0.39-0.842-0.778-1.675-1.153-2.497c-0.239-0.019-0.722-0.057-0.96-0.068
		c-0.248-0.472-0.742-1.403-0.99-1.874c-0.008-0.14-0.03-0.425-0.037-0.57c-0.69-1.023-1.508-1.928-2.153-2.969
		c-0.382-0.663-0.75-1.318-1.108-1.976c-0.887-1.21-1.748-2.443-2.604-3.662c-1.268-2.12-2.641-4.182-3.601-6.462
		c-0.183-0.058-0.533-0.17-0.714-0.227c-0.557-1.181-1.143-2.345-1.771-3.471c-0.03-0.154-0.09-0.454-0.12-0.604
		c-0.554-0.794-1.108-1.562-1.648-2.345c-0.156-0.438-0.474-1.326-0.631-1.767c-0.676-0.354-1.344-0.728-1.986-1.118
		c-0.285-0.871-0.578-1.729-0.878-2.566c0.275-1.921-0.056-3.764-1.216-5.299c-1.147-2.229-2.102-4.569-3.551-6.605
		c-0.435-1.144-0.802-2.29-1.198-3.435c-0.375-0.615-0.75-1.219-1.125-1.816c-0.277-0.812-0.532-1.62-0.767-2.432
		c-0.638-0.841-1.283-1.665-1.936-2.489c-0.009-0.454-0.038-1.364-0.055-1.817c-0.721-1.126-1.396-2.283-2.057-3.434
		c-0.061-1.604-0.533-3.114-1.575-4.325l-0.074-0.314l-0.531-0.047c-0.158-1.142-0.322-2.242-0.533-3.354
		c-0.602-1.286-1.177-2.574-1.883-3.794c-0.315-0.851-0.646-1.683-0.945-2.507c-1.042-2.312-2.22-4.551-3.038-6.955
		c-0.353-0.74-0.713-1.475-1.063-2.197c-0.188-0.824-0.36-1.635-0.52-2.45c-0.368-0.964-0.735-1.921-1.133-2.86
		c-0.817-2.689-1.861-5.297-2.642-7.986c-0.722-1.734-1.381-3.494-2.14-5.196c-0.375-1.041-0.651-2.112-0.953-3.162
		c-0.604-1.767-1.208-3.53-1.837-5.281c-1.186-1.958-1.854-4.163-2.769-6.244c-0.172-1.28-0.375-2.555-0.677-3.796
		c-0.309-0.775-0.606-1.55-0.915-2.312c-0.383-1.097-0.787-2.175-1.154-3.263c-0.405-0.975-0.817-1.95-1.224-2.906
		c-0.292-0.815-0.606-1.619-0.915-2.413c-0.441-0.854-0.87-1.713-1.29-2.566l0.201-0.188c-0.23-0.9-0.479-1.789-0.75-2.668
		c-0.271-0.979-0.519-1.959-0.787-2.931c-0.202-0.994-0.404-1.969-0.623-2.944c-0.284-1.071-0.557-2.138-0.87-3.188
		c-0.585-2.327-0.998-4.694-1.493-7.031c-1.27-6.717-2.791-13.388-3.496-20.193c-0.12-0.361-0.36-1.088-0.479-1.44
		c-0.136-1.572-0.188-3.161-0.568-4.688c-0.368-2.515-0.375-5.061-0.458-7.597c-1.246-2.894-0.398-6.131-0.978-9.159
		c-0.585-6.841-0.448-13.721-0.51-20.581l-0.435,0.046c0.064-8.365-0.311-16.765,0.201-25.114c0.083-0.663,0.256-1.997,0.346-2.659
		l-0.547,0.009c0.06-2.932-0.046-5.859,0.064-8.782c0.607-1.459,0.639-3.056,0.825-4.589c0.585-2.027,0.458-4.156,0.51-6.237
		c0.705-1.767,0.66-3.693,0.945-5.553c0.314-1.305,0.555-2.621,0.976-3.887c0.227-2.29,0.397-4.581,0.502-6.87
		c0.354-0.771,0.689-1.542,1.027-2.312c0.173-1.704,0.331-3.394,0.393-5.098l0.485,0.14c0.104-0.879,0.218-1.758,0.346-2.63
		c0.696-2.813,0.895-5.745,1.683-8.552c0.23-1.059,0.465-2.112,0.787-3.146c0.556-3.654,1.426-7.249,2.481-10.78
		c0.045-0.169,0.137-0.5,0.183-0.671c0.337-1.07,0.63-2.158,0.916-3.237c0.345-1.012,0.649-2.036,0.979-3.039
		c0.21-1.002,0.42-1.988,0.721-2.961c0.211-0.786,0.43-1.564,0.646-2.345c1.14-3.933,2.596-7.766,3.772-11.688
		c0.181-0.779,0.358-1.559,0.531-2.338c0.368-0.979,0.723-1.966,1.089-2.944c1.081-3.03,2.049-6.101,2.94-9.191
		c0.217-0.85,0.465-1.673,0.734-2.497c0.104-0.37,0.321-1.126,0.429-1.496c0.427-1.011,0.848-2.014,1.298-3
		c0.053-0.501,0.157-1.496,0.21-1.997l0.375,0.068c0.36-1.227,0.766-2.43,1.188-3.633c0.787-2.29,1.483-4.604,2.25-6.895
		c0.396-0.986,0.778-1.966,1.187-2.938c0.337-1.104,0.689-2.197,1.021-3.292c0.448-1.019,0.877-2.043,1.327-3.054
		c-0.017-0.239-0.046-0.726-0.061-0.973l0.547-0.162c0.548-1.465,1.193-2.893,1.875-4.287c1.801-4.11,4.18-7.958,5.626-12.223
		c1.201-2.714,2.956-5.098,4.322-7.711c0.728-1.288,1.478-2.561,2.25-3.81c0.998-1.844,1.883-3.748,2.888-5.583
		c2.108-3.208,4.104-6.492,6.062-9.793c4.052-6.87,8.312-13.617,12.68-20.271c0.518-0.794,1.05-1.573,1.561-2.367
		c1.154-1.542,2.288-3.101,3.505-4.596c-0.01-0.225-0.022-0.679-0.029-0.91l0.593-0.016c0.771-1.165,1.567-2.312,2.348-3.47
		c0.855-1.156,1.72-2.299,2.521-3.485c0.57-0.678,1.141-1.351,1.711-2.021c0.908-1.342,1.89-2.629,2.888-3.901
		c1.602-2.027,3.315-3.956,4.832-6.045c1.65-2.098,3.173-4.304,4.869-6.361c0.63-0.748,1.104-1.619,1.748-2.354l0.112-0.132
		c0.878-1.218,1.812-2.39,2.679-3.615c1.928-2.614,3.826-5.26,5.972-7.688c0.502-0.794,1.021-1.573,1.538-2.359
		c1.741-1.619,3.399-3.354,5.312-4.766c4.191-4.181,8.973-7.649,13.367-11.591c0.22-0.169,0.639-0.501,0.854-0.671
		c1.028-0.786,2.07-1.564,3.128-2.312c3.616-3.771,7.877-6.763,11.883-10.047c1.096-0.91,2.146-1.866,3.166-2.854
		c1.358-1.188,2.791-2.253,4.201-3.37c0.188-0.192,0.555-0.571,0.743-0.756c2.481-2.183,5.152-4.11,7.705-6.208
		c0.803-0.595,1.598-1.195,2.406-1.781c3.166-2.698,6.608-5.026,9.708-7.804c1.014-0.771,2.02-1.55,3.021-2.336
		c0.998-0.764,1.989-1.526,3.009-2.267c1.357-1.058,2.693-2.145,4.089-3.154l0.008-0.208c1.396-0.879,2.77-1.805,4.098-2.792
		c1.178-0.948,2.386-1.852,3.616-2.729c0.98-0.771,1.936-1.581,2.938-2.329c1.555-0.948,3.046-1.989,4.546-3.03
		c0.75-0.523,1.493-1.048,2.252-1.564c1.517-1.003,2.992-2.06,4.473-3.124c1.058-0.74,2.146-1.427,3.211-2.159
		c0.345-0.31,1.042-0.909,1.395-1.218c0.266,0.046,0.788,0.123,1.051,0.169v-0.602c1.135-0.778,2.268-1.573,3.393-2.368
		c1.438-0.925,2.873-1.865,4.336-2.752l-0.037-0.57c0.231,0.008,0.705,0.03,0.944,0.039c1.472-1.024,3.018-1.937,4.518-2.915
		c2.933-1.627,6.099-2.745,9.114-4.188c2.773-1.228,5.462-2.653,8.223-3.934c1.191-0.654,2.408-1.288,3.631-1.904
		c1.051-0.51,2.085-1.058,3.121-1.611c0.188,0,0.57,0.008,0.768,0.008c0.98-0.556,1.979-1.096,2.964-1.665
		c0.256,0.054,0.767,0.153,1.021,0.208l0.173-0.595c2.058-0.925,4.147-1.75,6.279-2.477c1.813-0.855,3.602-1.796,5.386-2.722
		c1.666-0.709,3.376-1.28,5.079-1.89c1.567-0.509,3.15-1.002,4.719-1.559c0.15-0.084,0.458-0.254,0.615-0.339
		c0.977-0.348,1.979-0.608,2.984-0.879c0.871-0.271,1.757-0.523,2.642-0.765l-0.065-0.494c0.86-0.015,1.731-0.046,2.604-0.101
		c0.878-0.361,1.771-0.701,2.679-1.01v-0.501c0.603,0.016,1.811,0.046,2.416,0.055c-0.045-0.179-0.135-0.54-0.172-0.726
		c0.479-0.039,1.448-0.107,1.928-0.146c1.016-0.417,2.06-0.702,3.121-0.965c1.938-0.679,3.908-1.334,5.974-1.487
		c0.733-0.301,1.479-0.578,2.233-0.855c0.971-0.31,1.95-0.556,2.948-0.816c0.961-0.293,1.938-0.532,2.918-0.794
		c0.788-0.263,1.59-0.493,2.4-0.694c0.969-0.284,1.94-0.522,2.934-0.763c1.005-0.324,2.025-0.603,3.054-0.896
		c1.418-0.315,2.865-0.494,4.309-0.726c1.283-0.363,2.589-0.579,3.895-0.864c1.298-0.2,2.599-0.417,3.908-0.555
		c0.915-0.339,1.838-0.671,2.761-1.025c3.057-0.062,6.177,0.076,9.153-0.803c2.49-0.225,5.131,0.277,7.495-0.811
		c4.071-0.192,8.161-0.131,12.242-0.4L415.547,44.548"/>
</g>
<g id="_x23_616aabff">
	<path fill="#616AAB" d="M429.267,63.58c0.278,0.069,0.842,0.216,1.118,0.285c2.709,9.862,5.746,19.617,8.485,29.472
		c6.437,25.387,11.398,51.142,15.581,77.012c0.375,4.95,1.854,9.754,1.857,14.744c0.533,9.775,1.977,19.501,1.994,29.31
		c-0.051,3.871,0.936,7.649,0.856,11.521c-0.128,5.99,2.056,11.798,1.47,17.805c-0.472,4.828,0.053,9.701-0.532,14.528
		c-0.698,5.658,0.255,11.396-0.683,17.041c-0.248,6.686-0.412,13.387-0.51,20.079c-0.458,5.591-1.193,11.188-1.188,16.811
		c1.646,0.603,1.883,1.937,0.03,2.414c-0.091,4.896-0.12,9.802-0.338,14.697c-1.328,13.587,0.135,27.272-1.192,40.854
		c-0.405,10.017,0.201,20.049-0.061,30.063c-0.438,7.202,0.104,14.427-0.632,21.604c0.164,9.764,1.104,19.562,0.099,29.325
		c0.053,6.13-1.312,12.121-2.752,18.034c-0.998,3.824-4.119,6.447-6.242,9.605c-2.161,2.854-4.592,6.617-8.53,6.557
		c-3.796-0.275-6.917,3.021-10.758,2.213c-4.404-0.678-8.74-2.051-12.724-4.068c-9.588-5.791-16.854-14.621-24.998-22.23
		c-6.167-5.459-11.583-11.729-17.524-17.428c-12.919-13.23-26.271-25.984-38.996-39.427c-2.761-3.062-6.404-5.197-8.785-8.63
		c-3.293-4.571-7.39-8.459-10.646-13.062c-2.198-3.068-4.479-6.068-7.067-8.79c-6.695-8.6-13.301-17.273-19.689-26.11
		c-4.156-5.035-8.065-10.271-11.658-15.746c-3.256-4.448-6.407-8.982-9.167-13.778c-5.395-8.081-10.354-16.456-15.702-24.565
		c-2.934-4.564-5.162-9.602-8.516-13.89c-0.292-0.229-0.87-0.7-1.155-0.933c0.062-1.357,1.921-1.125,2.881-1.234
		c0.631,2.1,2.918,2.632,4.576,3.57c5.004,2.221,10.038,4.388,15.176,6.253c5.522,4.279,10.806,8.893,16.647,12.7
		c5.087,4.396,10.961,7.648,16.055,12.021c9.25,6.871,18.187,14.149,27.188,21.354c7.979,7.04,16.606,13.271,24.565,20.342
		c3.489,3.395,7.33,6.361,10.896,9.67c5.855,5.562,12.431,10.285,17.975,16.2c4.824,5.321,10.383,9.848,15.282,15.092
		c4.354,4.294,8.61,8.706,13.009,12.955c-0.007-9.471,0.442-18.932,0.24-28.399c1.152-11.003,0.165-22.094,0.555-33.135
		c0.203-14.649-0.248-29.311,0.157-43.954c0.06-7.464-0.271-14.949,0.578-22.377c-0.173-13.293,0.428-26.58,0.104-39.881
		c-0.375-9.099,0.668-18.175,1.291-27.233c0.604-11.753,1.328-23.496,2.312-35.227c0.893-6.708,1.426-13.463,1.812-20.218
		c0.877-5.251,1.042-10.597,1.867-15.854c1.38-12.345,3.683-24.552,6.312-36.673C422.848,91.016,426.778,77.469,429.267,63.58z"/>
</g>
<g id="_x23_cd031bff">
	<path fill="#CB021A" d="M130.505,391.476c4.366-0.947,8.695-2.358,13.196-2.366c10.277-0.693,20.194,3.693,28.567,9.479
		c2.812,3.313,3.961,7.817,5.497,11.857c1.007,5.269,3.184,10.654,1.771,16.062c-0.518,3.285-2.67,5.876-4.418,8.553
		c-3.068,4.694-7.263,8.411-11.276,12.223c-3.803,2.923-8.207,4.976-12.7,6.501c-5.039,1.92-10.474,0.416-15.478-0.842
		c-5.034-1.487-10.331-2.999-14.449-6.462c-6.149-7.049-13.606-13.642-16.167-23.109c-0.357-5.167,0.271-10.323,0.812-15.451
		c1.775-3.062,2.901-6.786,5.857-8.906C117.451,395.286,124,393.227,130.505,391.476z"/>
	<path fill="#CD031B" d="M709.338,402.326c6.175-1.609,12.445-2.799,18.74-3.823c3.604-0.557,7.119,0.802,10.611,1.533
		c4.494,0.94,8.771,2.646,13.168,3.956c3.101,2.575,5.819,5.614,7.797,9.19c0.41-0.016,1.233-0.047,1.646-0.062
		c0.146,1.874,0.438,3.771,1.354,5.445c2.762,5.119,3.422,11.389,1.959,17.032c-0.487,2.028-0.87,4.087-1.11,6.169
		c-0.36,0.5-0.705,1.002-1.035,1.513c-1.261,5.489-3.496,10.767-7.307,14.913c-2.536,0.73-5.087,1.475-7.503,2.562
		c-5.021,2.298-10.266,4.041-15.262,6.386c-7.211,0.361-14.739,1.449-21.63-1.42c-6.696-2.158-11.208-8.025-15.416-13.438
		c-4.72-5.938-7.758-13.463-7.622-21.197c-0.226-6.152,1.144-12.244,3.495-17.873c0.397-0.095,1.208-0.271,1.605-0.363
		c2.405-2.66,4.756-5.428,7.548-7.688C703.156,403.645,706.323,403.135,709.338,402.326z"/>
	<path fill="#CD031B" d="M424.982,707.028c16.062-0.812,32.237-0.294,48.093,2.685c6.887,0.812,13.402,3.501,20.301,4.249
		c-3.34,7.256-7.84,13.824-11.712,20.771c-2.671,4.805-7.227,7.948-10.932,11.819c-6.12,6.426-13.99,10.76-22.097,13.937
		c-4.95,1.619-10.217,2.159-15.379,2.312c-6.797-1.127-13.961-1.118-20.271-4.25c-0.779-0.131-1.562-0.254-2.325-0.36
		c-8.462-4.579-14.758-12.067-21.291-19.03c-6.984-8.089-12.371-17.458-17.559-26.817c5.529-0.105,10.954-1.28,16.434-1.951
		C400.436,708.662,412.726,707.977,424.982,707.028z"/>
</g>
<rect fill="none" width="886" height="886"/>
</svg>
