<?xml version="1.0" encoding="utf-8"?>
<!-- Generator: Adobe Illustrator 16.0.0, SVG Export Plug-In . SVG Version: 6.00 Build 0)  -->
<!DOCTYPE svg PUBLIC "-//W3C//DTD SVG 1.1//EN" "http://www.w3.org/Graphics/SVG/1.1/DTD/svg11.dtd">
<svg version="1.1" id="Layer_1" xmlns="http://www.w3.org/2000/svg" xmlns:xlink="http://www.w3.org/1999/xlink" x="0px" y="0px"
	 width="886.001px" height="886px" viewBox="140 289 886.001 886" enable-background="new 140 289 886.001 886"
	 xml:space="preserve">
<g>
	<g id="_x23_3754a0ff">
		<path fill="#3754A0" d="M669.854,431.302c9.659-3.406,19.599-6.592,29.907-7.031c8.172,0.181,16.315,1.019,24.454,1.699
			c5.997,0.354,11.39,3.193,17.04,4.939c8.595,3.233,17.196,6.592,26.185,8.602c12.756,2.296,25.844,2.832,38.721,1.345
			c9.999-1.737,19.757-4.6,29.524-7.341c9.448-2.319,18.908-5.098,28.727-5.098c5.517-0.113,10.778,1.78,16.21,2.455
			c1.073,5.77,0.3,11.684,0.612,17.519c0.165,19.397,1.578,38.753,1.918,58.146c0.573,8.55,0.264,17.137,1.042,25.671
			c0.415,15.845-0.105,31.72,0.815,47.557c-0.045,11.827,0.227,23.654,0.424,35.481c0.455,11.064,0.12,22.145,0.259,33.215
			c0.08,24.158,0.128,48.334,0.77,72.481c-0.12,7.809,0.665,15.633-0.105,23.427c-0.566,5.407-0.485,10.853-1.004,16.268
			c-0.227,5.681-1.065,11.321-1.005,17.016c0.038,3.558-0.296,7.092-0.649,10.634c-0.687,11.797-1.178,23.608-1.964,35.405
			c-2.923,17.598-6.85,35.014-11.336,52.277c-3.61,13.167-7.696,26.23-13.118,38.767c-3.257,7.553-7.009,14.871-10.235,22.438
			c-3.218,6.563-7.055,12.819-11.239,18.812c-9.787,14.946-19.845,29.765-31.168,43.608c-1.979,2.552-4.743,4.305-6.926,6.66
			c-5.226,5.137-10.95,9.718-16.473,14.522c-4.094,4.17-9.37,6.798-14.229,9.947c-6.964,4.531-14.357,8.314-21.532,12.499
			c-6.88,4.104-14.177,7.441-21.199,11.261c-11.132,5.891-22.391,11.547-33.888,16.698c-6.409,3.247-12.929,6.403-19.954,8.11
			c-16.992,4.887-34.204,8.985-51.515,12.591c-9.302,1.736-18.553,3.807-27.988,4.788c-5.951,1.208-12.069,0.361-18.045,1.427
			c-7.505,1.322-15.15,0.74-22.715,0.583c-17.46-2.533-34.781-5.962-51.945-9.986c-8.663-2.9-17.31-5.868-25.897-8.973
			c-3.346-1.178-6.905-1.72-10.082-3.359c-10.395-4.999-20.89-9.79-31.164-15.028c-6.658-4.124-13.334-8.232-19.983-12.38
			c-19.674-14.303-38.804-29.5-55.736-47.022c-5.725-6.366-11.638-12.571-17.074-19.18c-7.811-11.875-15.376-23.919-23.112-35.854
			c-4.539-7.779-9.96-15.058-13.669-23.3c-10.951-21.855-20.709-44.423-27.272-68.009c-5.468-14.305-5.483-29.893-8.897-44.702
			c-1.45-7.961-1.322-16.109-2.341-24.13c-0.627-5.557-0.643-11.16-1.224-16.727c-2.644-18.488-2.1-37.212-3.233-55.807
			c-0.775-21.424-2.061-42.843-3.24-64.246c-0.264-8.806,0.061-17.627,0.139-26.441c0.672-8.02,0.354-16.078,0.488-24.121
			c0.211-18.632,0.249-37.256,0.37-55.888c0.377-6.797,0.219-13.611,0.257-20.422c-0.038-10.075,0.377-20.158-0.339-30.218
			c-0.566-9.298,1.117-18.513,1.459-27.784c0.672-3.739,0.21-7.605,1.201-11.284c5.755,0.182,11.471,0.876,17.212,1.306
			c7.998,1.27,16.109,0.814,24.167,1.342c2.417,0.151,4.849-0.12,7.159-0.875c10.792-2.81,21.058-7.22,31.661-10.619
			c13.993-4.818,28.305-8.648,42.559-12.658c5.935-1.808,12.196-1.648,18.307-2.356c4.74-0.552,9.44,0.499,14.12,1.11
			c12.63,1.972,24.356,7.326,36.6,10.702c12.966,1.338,26.183,5.725,39.173,2.115c6.676-2.061,13.542-3.479,20.165-5.715
			c6.578-2.911,13.458-5.242,20.557-6.436c13.881-3.29,28.211-0.317,41.901,2.502c11.281,1.939,22.369,4.8,33.622,6.857
			c10.03,2.311,20.439,1.767,30.655,1.518C648.103,439.942,658.824,435.078,669.854,431.302z"/>
	</g>
	<rect x="145.395" y="289" fill="none" width="880.606" height="880.606"/>
</g>
</svg>
