<?xml version="1.0" encoding="utf-8"?>
<!-- Generator: Adobe Illustrator 16.0.0, SVG Export Plug-In . SVG Version: 6.00 Build 0)  -->
<!DOCTYPE svg PUBLIC "-//W3C//DTD SVG 1.1 Basic//EN" "http://www.w3.org/Graphics/SVG/1.1/DTD/svg11-basic.dtd">
<svg version="1.1" baseProfile="basic" id="Livello_1"
	 xmlns="http://www.w3.org/2000/svg" xmlns:xlink="http://www.w3.org/1999/xlink" x="0px" y="0px" width="768px"
	 height="1024.604px" viewBox="0 0 768 1024.604" xml:space="preserve">
<g id="_x23_010101ff">
	<path fill="#010101" d="M187.555,351.69c27.811,1.952,56.615,3.994,81.859,16.968c20.546,11.656,36.087,29.781,50.814,47.869
		c-22.443-3.107-46.116-2.061-66.986-12.107c-6.668-3.687-13.337-7.354-20.293-10.463
		C215.961,382.048,201.289,367.158,187.555,351.69z"/>
	<path fill="#010101" d="M474.805,382.754c26.456-16.842,56.977-29.167,88.745-29.112c-11.746,14.167-21.487,30.286-36.194,41.707
		c-9.543,8.24-21.09,13.678-32.8,18.088c-16.371,4.717-33.339,6.649-50.235,8.367c-2.818-0.053-5.62-0.29-8.401-0.704
		C447.194,406.75,460.62,394.173,474.805,382.754z"/>
	<path fill="#010101" d="M332.336,864.171c12.053-1.138,24.178-0.324,36.286-0.577c14.04,0.235,28.154-0.777,42.141,0.957
		c-1.682,9.162-0.562,18.541-1.065,27.812c-13.59,0.613-27.197,0.106-40.769,1.155c0.126,3.091,0.252,6.197,0.361,9.324
		c13.354,2.222,26.943,0.614,40.388,1.825c0.218,8.963,0.126,17.926,0.091,26.906c-13.028,0.579-26.111-0.288-39.104,0.487
		c-3.688,0.651-2.729,5.042-3.054,7.682c-0.272,5.493-0.435,11.06,0.795,16.463c14.131-0.182,28.297-0.308,42.411,0.739
		c0.18,10.59,0.018,21.18,0.18,31.769c-27.484-1.716-55.078-0.253-82.527-2.565C327.836,945.453,327.331,904.632,332.336,864.171z"
		/>
</g>
<g id="_x23_cd031bff">
	<path fill="#CC051D" d="M365.695,454.872c2.494-2.204,4.336-6.559,8.239-6.072c5.476-0.521,8.223,4.952,9.849,9.272
		c4.734,11.257,3.307,23.688,5.023,35.526c0.614,41.488,3.378,82.927,3.976,124.415c1.557,22.896,2.854,45.826,5.097,68.669
		c1.771,35.979,6.451,71.687,12.759,107.142c2.475,13.208,2.022,26.726,3.632,40.025c-31.841,0.182-63.682,0.542-95.521,0.487
		c4.499-25.082,6.054-50.598,11.077-75.589c2.349-16.102,5.639-32.057,7.065-48.267c2.854-22.733,8.187-45.143,9.794-68.019
		C352.647,579.886,358.141,517.288,365.695,454.872z"/>
</g>
</svg>
