<?xml version="1.0" encoding="utf-8"?>
<!-- Generator: Adobe Illustrator 15.0.2, SVG Export Plug-In . SVG Version: 6.00 Build 0)  -->
<!DOCTYPE svg PUBLIC "-//W3C//DTD SVG 1.1//EN" "http://www.w3.org/Graphics/SVG/1.1/DTD/svg11.dtd">
<svg version="1.1" id="Layer_1" xmlns="http://www.w3.org/2000/svg" xmlns:xlink="http://www.w3.org/1999/xlink" x="0px" y="0px"
	 width="886px" height="886px" viewBox="0 0 886 886" enable-background="new 0 0 886 886" xml:space="preserve">
<g id="_x23_ffffffff">
	<path fill="#FFFFFF" d="M393.06,72.85c14.101-3.53,28.26-7.61,42.89-8.021c13.46-0.18,26.83,1.66,40.13,3.62
		c4.761,0.65,9.07,2.99,13.521,4.67c5.95,2.57,12,4.891,17.92,7.5c21.06,12.54,38.85,29.62,56.31,46.63
		c1.011,0.96,1.96,2,2.801,3.13c16.739,22.011,33.09,44.33,48.659,67.181c6.511,12.96,14,25.43,20.73,38.29
		c5.89,11.38,12.17,22.569,18.09,33.939c4.93,13.891,11.36,27.21,16.561,41.021c5.279,11.97,8.59,24.66,12.739,37.05
		c5.54,18.13,10.17,36.53,14.48,54.99c4.3,26.53,7.5,53.229,10.08,79.97c1.22,15.33,3.54,30.7,2.26,46.11
		c-0.2,10.939-0.84,21.87-1.83,32.78c-3.74,21.229-8.149,42.42-15.02,62.88c-4.841,15.77-12.41,30.479-18.99,45.54
		c-8.01,13.77-17.49,26.609-26.66,39.609c-15.66,22.67-36.16,41.53-57.94,58.19c-10.13,6.479-20.949,11.79-31.92,16.68
		c-2.319,0.62-3.04,3.84-5.8,2.521c-16.02,6.21-32.43,11.949-49.359,15.31c-10.021,2.39-20.37,2.69-30.58,3.66
		c-1.65,0.22-3.261-0.04-4.82-0.521c-3.18,1.591-6.86,0.851-10.28,1.061c-20.359,0.29-40.729-0.75-60.96-3.061
		c-12.75-1.689-25.72-2.89-37.949-7.109c-12.061-3.34-23.971-7.48-34.91-13.63c-15.84-8.67-30.57-19.2-44.8-30.271
		c-6.971-6.02-13.25-12.77-19.601-19.42c-14.14-14.42-26.649-30.37-37.85-47.16c-6.69-9.85-10.24-21.38-16.48-31.479
		c-3.09-6.681-5.09-13.8-7.26-20.811c-8.34-25.67-14.94-51.91-19.93-78.43c-3.101-16.06-3.5-32.48-6.13-48.6
		c-1.11-8.21,0.529-16.431,0.189-24.65c0.73-23.08,1.811-46.17,3.771-69.18c3.87-21.7,8.34-43.29,13.01-64.82
		c11.439-32.1,24.729-63.521,37.95-94.91c12-22.57,25.649-44.21,38.96-66.01c2.72-4.28,5.35-8.62,8.22-12.801
		c16.32-21.119,33.77-41.42,52.92-60.039c9.16-8.57,18.64-16.841,28.92-24.061C366.75,82.46,379.77,77.07,393.06,72.85z"/>
</g>
</svg>
