<?xml version="1.0" encoding="utf-8"?>
<!-- Generator: Adobe Illustrator 15.0.2, SVG Export Plug-In . SVG Version: 6.00 Build 0)  -->
<!DOCTYPE svg PUBLIC "-//W3C//DTD SVG 1.1//EN" "http://www.w3.org/Graphics/SVG/1.1/DTD/svg11.dtd">
<svg version="1.1" id="Layer_1" xmlns="http://www.w3.org/2000/svg" xmlns:xlink="http://www.w3.org/1999/xlink" x="0px" y="0px"
	 width="886px" height="886px" viewBox="0 0 886 886" enable-background="new 0 0 886 886" xml:space="preserve">
<g id="_x23_e46810ff">
	<path fill="#E46810" d="M396.98,113.92c23.51-2.17,46.79,2.63,70.13,4.54c10.43,0.42,20.46,3.63,30.771,5.051
		c7.77,1.579,15.79,2,23.409,4.329c18.061,5,36.25,9.471,54.5,13.73c6.271,1.36,12.051,4.22,17.95,6.64
		c24.44,10.311,47.95,22.73,70.601,36.521c30.189,23.09,57.979,49.26,83.38,77.5c7.229,11.41,14.52,22.79,21.91,34.1
		c2.029,3.221,4.569,6.141,6.12,9.65c21.369,47.58,31.46,100.03,30.439,152.12c-1.45,11.91-4.11,23.63-5.84,35.5
		c-1.37,6.83-4.01,13.3-6.08,19.93c-5.25,14.7-9.45,29.78-15.29,44.271c-13.47,26.489-28.24,52.34-44.58,77.16
		c-3.05,4.399-5.66,9.149-9.38,13.039c-7.22,7.851-13.86,16.19-20.74,24.33c-7.55,10.021-17.42,17.9-26.33,26.631
		c-11.31,10.369-22.569,20.8-34.319,30.67c-6.19,5.869-14.141,9.22-21.23,13.81c-9.85,5.76-19.87,11.24-29.54,17.32
		c-6.729,4.42-14.34,7.16-21.68,10.39c-9.65,4.16-19.33,8.29-29.21,11.87c-10.99,3.16-21.87,6.77-33.101,9
		c-11.18,2.11-22.33,4.52-33.649,5.83c-7.38,0.979-14.74,2.35-22.21,2.35c-14.91-0.46-29.8-1.56-44.58-3.56
		c-12.09-1.851-24.31-2.25-36.45-3.47c-11.09-2.971-22.45-4.98-33.25-8.98c-22.1-7.63-43.84-16.29-65.21-25.76
		c-5.53-2.17-10.28-5.8-15.63-8.311c-10.8-7.75-20.84-16.52-31.29-24.729c-9.31-7.28-18.21-15.061-27.37-22.51
		c-5.88-5.181-12.22-9.851-17.68-15.49c-8.2-8.44-17.4-15.94-24.43-25.45c-5.841-7.88-12.75-15.03-17.37-23.75
		c-11.57-20.6-24.41-40.64-33.23-62.65c-6.68-21.029-11.149-42.689-15.04-64.39c-1.47-6.97-0.6-14.1-0.68-21.15
		c0.81-31.039,1.49-62.079,2.93-93.09c1.11-10.66,0.91-21.5,3.49-31.96c4.88-21.77,9.84-43.529,15.74-65.05
		c1.46-5.94,4.51-11.3,6.979-16.86c5.12-10.37,10.181-20.83,16.73-30.399c5.87-8.37,12.46-16.2,18.72-24.29
		c8.18-8.16,17.09-15.58,25.89-23.08c16.881-14.73,35.29-27.63,54.45-39.221c22.7-14.369,46.92-26.189,71.561-36.819
		C336.47,120.72,366.71,116.23,396.98,113.92 M437.43,386.32c-2.97,8.84-5.76,17.74-8.54,26.65c-7.34,22.49-11.46,45.83-15.8,69.04
		c-1.64,9.569-3.03,19.22-2.69,28.97c-0.29,8.94,2.32,17.55,4.351,26.15c4.109,4.67,8.88,8.77,13.939,12.369
		c4.5,0.36,9.01,0.36,13.521,0.181c9.06-6.75,16.109-16,21.199-26.04c1.891-6.03,3.341-12.33,3.28-18.69
		c0.23-15.39-2.04-30.67-4-45.899c-2.31-16.67-5.4-33.23-9.35-49.601c-4.09-13.96-6.971-28.22-10.29-42.359
		C441.89,373.69,439.17,379.87,437.43,386.32z"/>
</g>
<g id="_x23_3754a0ff">
	<path fill="#3754A0" d="M437.43,386.32c1.74-6.45,4.46-12.63,5.62-19.229c3.319,14.14,6.2,28.399,10.29,42.359
		c3.949,16.37,7.04,32.931,9.35,49.601c1.96,15.229,4.23,30.51,4,45.899c0.061,6.36-1.39,12.66-3.28,18.69
		c-5.09,10.04-12.14,19.29-21.199,26.04c-4.511,0.18-9.021,0.18-13.521-0.181c-5.06-3.6-9.83-7.699-13.939-12.369
		c-2.03-8.601-4.641-17.21-4.351-26.15c-0.34-9.75,1.051-19.4,2.69-28.97c4.34-23.21,8.46-46.55,15.8-69.04
		C431.67,404.06,434.46,395.16,437.43,386.32z"/>
</g>
</svg>
