<?xml version="1.0" encoding="utf-8"?>
<!-- Generator: Adobe Illustrator 16.0.0, SVG Export Plug-In . SVG Version: 6.00 Build 0)  -->
<!DOCTYPE svg PUBLIC "-//W3C//DTD SVG 1.1 Basic//EN" "http://www.w3.org/Graphics/SVG/1.1/DTD/svg11-basic.dtd">
<svg version="1.1" baseProfile="basic" id="Livello_1"
	 xmlns="http://www.w3.org/2000/svg" xmlns:xlink="http://www.w3.org/1999/xlink" x="0px" y="0px" width="768px"
	 height="1024.604px" viewBox="0 0 768 1024.604" xml:space="preserve">
<rect fill="#A4BFE1" width="768" height="1024.604"/>
<path fill="#FFFFFF" d="M217.606,241.405c6.523-0.452,14.709-1.608,19.426,4.066c6.035,7.572,6.487,18.377,3.885,27.395
	c-1.373,5.855-7.896,7.77-13.174,8.022c-10.065,0.616-21.142,0.561-29.78-5.384c-5.475-3.307-4.318-10.95-3.162-16.208
	C199.047,250.332,206.98,241.604,217.606,241.405z"/>
<path fill="#FFFFFF" d="M608.093,279.84c8.294-1.75,17.132-2.259,25.461-0.577c12.759,7.788,17.892,25.606,11.132,38.997
	c-6.576,17.095-30.701,24.612-45.32,12.939c-8.076-6.47-18.864-12.776-20.237-24.034c-1.085-7.066,3.957-13.121,9.468-16.77
	C594.739,286.292,600.955,281.991,608.093,279.84z"/>
<path fill="#FFFFFF" d="M391.156,290.357c17.474-5.04,34.297,9.632,38.581,25.843c-0.236,10.263-6.199,20.562-15.035,25.84
	c-9.127,2.149-19.426,1.555-28.009-2.368c-8.893-9.071-16.987-22.154-13.41-35.345C376.013,296.774,383.838,292.489,391.156,290.357
	z"/>
<path fill="#FFFFFF" d="M98.322,317.374c10.029-3.452,18.648,4.445,26.473,9.45c8.62,5.097,8.837,16.772,6.542,25.391
	c-3.741,14.347-20.131,21.286-33.829,20.022c-8.728-3.109-14.33-11.456-18.703-19.191c-4.174-7.121-1.752-15.849,2.837-22.119
	C85.925,325.144,91.491,319.939,98.322,317.374z"/>
<path fill="#FFFFFF" d="M321.422,395.294c25.696-8.891,55.296-5.224,78.102,9.614c15.47,9.974,32.545,17.273,47.452,28.08
	c12.162,9.976,24.25,20.275,34.281,32.474c9.901,11.781,13.426,27.106,18.448,41.291c6.596,21.105,11.403,44.183,5.64,66.03
	c-1.645,1.029-3.271,2.078-4.952,3.072c-20.312,2.205-40.876,2.169-61.276,3.867c-31.299,2.855-62.759-1.41-94.058,1.083
	c-14.547,0.417-29.075,1.5-43.478,3.542c-23.167,3.217-46.478,5.149-69.716,7.626c-5.259-0.253-11.475-0.072-15.306-4.338
	c-6.071-6.288-6.686-15.575-7.047-23.834c-0.29-17.365-0.416-35.348,5.981-51.772c6.487-17.8,19.986-31.586,31.913-45.826
	c16.064-17.71,31.84-35.728,49.043-52.37C303.839,406.588,311.464,398.926,321.422,395.294z"/>
<path fill="#FFFFFF" d="M498.965,415.858c4.445-7.572,11.854-13.318,19.896-16.661c5.222-2.458,10.555,0.686,15.63,1.915
	c5.044,10.625,11.766,21.958,8.766,34.172c-3.433,8.132-12.521,12.632-20.998,13.063c-6,0.272-13.047,0.29-17.42-4.518
	C497.32,436.946,495.007,425.165,498.965,415.858z"/>
<path fill="#FFFFFF" d="M530.809,77.412c4.445-7.572,11.854-13.318,19.896-16.661c5.222-2.458,10.555,0.686,15.63,1.915
	c5.044,10.625,11.766,21.958,8.766,34.172c-3.433,8.132-12.521,12.632-20.998,13.063c-6,0.272-13.047,0.29-17.42-4.518
	C529.164,98.5,526.851,86.719,530.809,77.412z"/>
<path fill="#FFFFFF" d="M31.62-7.505c4.445-7.572,11.854-13.318,19.896-16.661c5.222-2.458,10.555,0.686,15.63,1.915
	c5.044,10.625,11.766,21.958,8.766,34.172c-3.433,8.132-12.521,12.632-20.998,13.063c-6,0.272-13.047,0.29-17.42-4.518
	C29.976,13.583,27.662,1.802,31.62-7.505z"/>
<path fill="#FFFFFF" d="M188.801,406.027c7.373-2.059,14.981,0.145,21.613,3.47c7.752,3.543,11.89,12.362,12.161,20.548
	c-0.903,9.324-5.945,17.671-11.167,25.225c-4.699,7.065-13.897,8.403-21.721,8.495c-9.632,0.271-18.974-5.006-23.836-13.319
	c-4.12-6.686-8.403-15.485-4.138-23.111c2.675-5.386,5.674-10.897,10.318-14.837C177.02,409.082,183.001,407.437,188.801,406.027z"
	/>
<path fill="#FFFFFF" d="M663.932,411.268c7.519-2.421,16.427-3.487,23.89-0.631c14.584,12.685,14.891,35.833,5.459,51.663
	c-5.82,7.281-14.908,13.751-24.724,11.818c-10.895-1.952-17.744-11.691-24.395-19.625c-6.704-7.663-7.535-20.022-0.795-27.918
	C649.006,420.086,656.162,414.865,663.932,411.268z"/>
<path fill="#FFFFFF" d="M395.812-18.556c7.519-2.421,16.427-3.487,23.89-0.631c14.584,12.685,14.891,35.833,5.459,51.663
	c-5.82,7.281-14.908,13.751-24.724,11.818c-10.895-1.952-17.744-11.691-24.395-19.625c-6.704-7.663-7.535-20.022-0.795-27.918
	C380.887-9.738,388.043-14.959,395.812-18.556z"/>
<path fill="#FFFFFF" d="M64.114,490.906c17.546-4.935,34.189,9.56,38.526,25.803c0.019,10.428-6.378,20.584-15.143,26.005
	c-7.77,2.241-16.227,0.957-23.979-0.851c-6.451-1.373-9.234-8.04-12.577-12.938c-4.102-6.2-6.812-13.626-5.295-21.125
	C46.821,498.586,55.874,493.073,64.114,490.906z"/>
<path fill="#FFFFFF" d="M693.332,137.821c17.547-4.935,34.189,9.56,38.526,25.803c0.019,10.428-6.378,20.584-15.144,26.005
	c-7.77,2.241-16.227,0.957-23.979-0.851c-6.451-1.373-9.234-8.04-12.577-12.938c-4.103-6.2-6.812-13.626-5.295-21.125
	C676.039,145.5,685.092,139.988,693.332,137.821z"/>
<path fill="#FFFFFF" d="M566.368,539.642c7.68-2.548,15.161,1.556,21.702,5.223c6.977,4.065,15.253,7.861,18.343,15.938
	c2.438,6.217,3.849,13.662,1.318,20.021c-9.18,10.102-23.816,11.908-36.736,10.986c-8.042-0.233-15.289-6.396-17.729-13.878
	c-1.59-7.444-0.831-15.196,0.508-22.625C554.967,548.425,559.574,541.883,566.368,539.642z"/>
<path fill="#FFFFFF" d="M703.578,600.737c7.12-2.438,13.969,2.402,19.877,5.838c8.151,4.952,9.271,15.667,7.645,24.251
	c-1.175,10.877-11.167,17.347-19.336,23.111c-7.046,5.331-16.805,1.429-22.389-4.245c-8.583-7.318-13.428-18.688-12.577-29.943
	C680.447,608.255,693.369,604.371,703.578,600.737z"/>
<path fill="#FFFFFF" d="M141.673,615.483c10.047-3.233,18.721,4.372,26.473,9.562c8.892,5.401,9.018,17.654,6.181,26.527
	c-4.391,13.696-20.149,20.146-33.558,18.829c-7.897-2.677-13.173-9.903-17.42-16.717c-3.47-5.583-4.608-12.775-1.518-18.794
	C125.808,626.4,132.873,618.953,141.673,615.483z"/>
<path fill="#FFFFFF" d="M490.73,164.606c10.047-3.233,18.721,4.372,26.473,9.562c8.893,5.401,9.018,17.654,6.182,26.527
	c-4.392,13.696-20.149,20.146-33.559,18.829c-7.896-2.677-13.173-9.903-17.42-16.717c-3.471-5.583-4.607-12.775-1.518-18.794
	C474.865,175.523,481.93,168.076,490.73,164.606z"/>
<path fill="#FFFFFF" d="M44.074,694.76c6-1.463,13.643-3.45,18.468,1.717c6.18,6.633,9.054,15.561,12.108,23.908
	c3.361,7.896-2.259,17.51-10.282,19.678c-8.927,2.529-18.414,2.621-27.594,1.825c-8.909-0.849-15.306-9.034-17.312-17.202
	c-0.326-7.789,4.716-14.422,9.072-20.401C32.129,699.06,38.057,696.188,44.074,694.76z"/>
<path fill="#FFFFFF" d="M449.001,716.753c21.61-6.544,44.037-9.958,66.607-10.5c9.289,0.289,18.667,0.487,27.757,2.62
	c4.047,1.104,8.799,2.98,10.137,7.391c3.055,10.209,3.107,20.999,5.042,31.426c2.276,17.041,8.62,33.088,13.263,49.549
	c6.888,23.492,16.191,46.188,23.149,69.645c4.174,17.149,8.402,34.334,13.86,51.141c3.884,11.476,14.132,19.154,18.975,30.069
	c3.197,8.802,0.342,18.505,3.162,27.432c4.787,16.373,10.408,32.509,14.619,49.079H94.166c8.566-26.709,15.758-53.832,24.107-80.613
	c8.132-32.763,23.78-62.849,35.707-94.254c8.078-22.86,14.8-46.189,21.07-69.609c2.241-7.48,4.066-15.359,8.62-21.829
	c6.216-7.59,16.444-10.301,25.876-10.553c12.089-0.271,24.178,0.361,36.268-0.146c25.281-0.396,50.598,0.362,75.86-1.154
	c9.976-0.796,20.149-0.199,29.89-2.929C384.271,735.4,416.202,724.504,449.001,716.753"/>
<path fill="#FFFFFF" d="M611.996,715.017c4.428-2.907,9.994-3.74,15.198-3.47c6.433,1.952,11.204,7.066,16.117,11.403
	c3.598,3.704,8.042,7.299,9.487,12.468c0.542,9.614-2.241,18.939-5.187,27.992c-10.229-0.688-21.287,1.393-30.827-3.217
	c-6.868-5.022-13.355-12.27-14.656-20.944C602.654,730.432,606.737,721.992,611.996,715.017z"/>
<path fill="#FFFFFF" d="M679.063-22.438c4.428-2.907,9.994-3.74,15.198-3.47c6.433,1.952,11.204,7.066,16.117,11.403
	c3.598,3.704,8.042,7.299,9.487,12.468c0.542,9.614-2.241,18.939-5.187,27.992c-10.229-0.688-21.287,1.393-30.827-3.217
	c-6.868-5.022-13.355-12.27-14.656-20.944C669.722-7.023,673.805-15.462,679.063-22.438z"/>
<path fill="#FFFFFF" d="M101.828,821.254c13.824-5.891,28.263,8.927,26.654,22.588c0.343,10.065-7.463,17.926-15.775,22.318
	c-6.795,3.505-14.439,6.849-22.228,5.729c-5.818-3.65-11.655-8.729-14.004-15.324c-0.452-7.788-2.403-18.124,4.789-23.511
	C87.498,828.192,94.401,824.054,101.828,821.254z"/>
<path fill="#FFFFFF" d="M317.618,139.067c13.824-5.891,28.263,8.927,26.654,22.588c0.343,10.065-7.463,17.926-15.775,22.318
	c-6.795,3.505-14.439,6.849-22.228,5.729c-5.818-3.65-11.655-8.729-14.004-15.324c-0.452-7.788-2.403-18.124,4.789-23.511
	C303.288,146.006,310.19,141.867,317.618,139.067z"/>
<path fill="#FFFFFF" d="M675.678,865.364c7.681-0.886,17.943-3.019,23.003,4.59c6.632,9.072,4.683,20.961,1.789,31.045
	c-14.871,5.585-33.086,5.493-45.79-5.022c0.414-5.513-0.74-11.639,2.477-16.497C661.349,872.792,667.148,865.815,675.678,865.364z"
	/>
<path fill="#FFFFFF" d="M219.339,45.601c7.681-0.886,17.943-3.019,23.003,4.59c6.632,9.072,4.683,20.961,1.789,31.045
	c-14.871,5.585-33.086,5.493-45.79-5.022c0.414-5.513-0.74-11.639,2.477-16.497C205.01,53.029,210.81,46.052,219.339,45.601z"/>
<path fill="#FFFFFF" d="M115.164,105.715c7.681-0.886,17.943-3.019,23.003,4.59c6.632,9.072,4.683,20.961,1.789,31.045
	c-14.871,5.585-33.086,5.493-45.79-5.022c0.414-5.513-0.74-11.639,2.477-16.497C100.835,113.143,106.635,106.166,115.164,105.715z"
	/>
<g id="_x23_fe6700ff">
	<path fill="#EB681E" d="M439.115,579.724c20.4-1.698,40.966-1.661,61.276-3.867c6.704,13.027,14.619,25.641,18.703,39.863
		c2.71,9.577,5.766,19.244,6.019,29.291c0.831,20.765-3.436,41.454-9.505,61.242c-22.57,0.542-44.997,3.956-66.607,10.5
		c-32.799,7.751-64.73,18.647-97.438,26.762c-9.738,2.729-19.913,2.133-29.889,2.929c-25.263,1.518-50.579,0.759-75.86,1.154
		c-0.289-0.886-0.832-2.654-1.102-3.559c-14.204-15.577-22.842-35.256-28.498-55.352c-2.583-8.836-2.223-18.09-3.035-27.159
		c-1.355-15.561-0.036-31.516,5.005-46.353c2.909-7.788,6.523-15.269,9.74-22.913c0.994-0.071,2.963-0.217,3.939-0.289
		c23.239-2.477,46.549-4.408,69.716-7.626c14.402-2.042,28.931-3.125,43.478-3.542C376.356,578.312,407.816,582.579,439.115,579.724
		"/>
</g>
<g id="_x23_024defff">
	<path fill="#38569F" d="M367.086,620.4c0.849-0.037,2.547-0.093,3.415-0.127c1.355,6.921,2.837,13.823,4.102,20.763
		c0.725,6.181,1.663,12.343,3.471,18.323c2.114,10.842,3.632,22.244,0.106,32.998c-1.408,2.565-2.674,5.222-3.812,7.912l-1.735-0.56
		l0.614,2.478c-6.722,2.638-14.691,3.106-19.787-2.855c0-0.688,0.036-2.042,0.036-2.729l-1.843,0.145
		c-0.235-7.59-0.326-15.18,0.145-22.75C357.147,656.217,362.46,638.379,367.086,620.4z"/>
</g>
</svg>
