<?xml version="1.0" encoding="utf-8"?>
<!-- Generator: Adobe Illustrator 16.0.0, SVG Export Plug-In . SVG Version: 6.00 Build 0)  -->
<!DOCTYPE svg PUBLIC "-//W3C//DTD SVG 1.1//EN" "http://www.w3.org/Graphics/SVG/1.1/DTD/svg11.dtd">
<svg version="1.1" id="Livello_1" xmlns="http://www.w3.org/2000/svg" xmlns:xlink="http://www.w3.org/1999/xlink" x="0px" y="0px"
	 width="768px" height="1024.604px" viewBox="0 0 768 1024.604" enable-background="new 0 0 768 1024.604" xml:space="preserve">
<g id="_x23_36559fff">
	<path fill="#37559E" d="M96.388,61.259c3.018-19.607,6.597-39.141,9.776-58.729c2.259,20.384,5.547,40.623,8.006,60.97
		c0.74,3.578-0.688,6.976-1.771,10.282c-2.06,1.266-4.084,2.566-6.054,3.958c-1.59,0.163-3.199,0.343-4.789,0.524
		c-1.519-1.337-3.036-2.693-4.536-4.048C96.533,69.934,95.629,65.578,96.388,61.259z"/>
	<path fill="#37559E" d="M705.042,17.077c0.867-3,1.445-6.199,3.487-8.711c2.711,10.879,4.104,22.028,5.654,33.106
		c1.211,11.872,2.692,25.714-5.906,35.364c-1.43,0.361-4.303,1.084-5.729,1.445c-0.868-0.542-2.585-1.607-3.452-2.15
		c-1.5-6.505-4.228-13.046-3.072-19.842C697.436,42.9,701.536,30.034,705.042,17.077z"/>
	<path fill="#37559E" d="M447.826,15.649c1.063,0.397,3.215,1.192,4.281,1.59c5.043,16.698,12.357,33.792,8.548,51.574
		c-1.338,5.023-4.843,9.071-9.252,11.709c-7.915-3.361-11.964-12.884-10.014-21.07C443.904,44.906,445.585,30.25,447.826,15.649z"/>
	<path fill="#37559E" d="M310.868,116.086c-0.235-17.674,3.614-35.075,5.493-52.586c3.669,14.457,7.916,28.786,11.564,43.243
		c2.098,8.783,1.699,18.251-2.205,26.492c-2.205-0.036-4.391-0.019-6.576,0.072C313.344,129.367,310.995,122.88,310.868,116.086z"/>
	<path fill="#37559E" d="M611.545,137.896c-1.176-24.069,4.428-47.742,7.68-71.47c1.987,13.246,6.688,25.896,8.656,39.16
		c2.91,11.004,4.373,22.605,1.337,33.755c-3.648,1.971-7.063,4.645-11.187,5.476C614.562,144.456,613.496,140.246,611.545,137.896z"
		/>
	<path fill="#37559E" d="M501.946,69.987c1.429-2.078,3.774,0.669,3.561,2.35c-0.035,12.378,5.98,23.763,6.216,36.086
		c0.346,10.806,1.247,22.137-3.378,32.256c-1.284,4.229-5.676,5.963-9.232,7.861c-1.646-1.157-3.31-2.313-4.952-3.469
		c-2.62-6.867-2.331-14.511-0.778-21.595c4.066-16.282,6.958-32.834,9.886-49.351C502.634,72.933,500.086,71.343,501.946,69.987z"/>
	<path fill="#37559E" d="M15.974,88.203c2.674,10.354,6.054,20.528,9.054,30.792c3.542,11.908,9.198,23.672,8.096,36.412
		c0.325,5.168-2.838,9.469-5.24,13.733c-2.367,0.561-4.681,1.861-7.174,1.572c-8.204-4.915-9.18-15.631-10.301-24.214
		C12.035,127.055,14.637,107.683,15.974,88.203z"/>
	<path fill="#37559E" d="M162.273,115.2c1.771-9.053,3.398-18.143,5.114-27.215c3.326,15.975,12.035,31.136,10.951,47.851
		c-0.957,7.409-1.193,17.673-9.776,20.402c-3.487-2.385-6.776-5.062-9.903-7.915C156.762,137.102,160.323,126.132,162.273,115.2z"/>
	<path fill="#37559E" d="M727.541,204.125c-0.164-21.576,7.57-42.086,10.77-63.229c2.168,17.854,7.428,35.111,10.645,52.766
		c3.055,10.029,0.832,21.252-5.692,29.42c-1.118,0.505-3.343,1.481-4.463,1.987C730.069,222.178,727.721,212.293,727.541,204.125z"
		/>
	<path fill="#37559E" d="M429.52,206.131c2.457-8.041,2.622-17.076,7.247-24.25c1.719,19.408,9.36,38.526,5.783,58.151
		c-1.319,3.307-3.271,6.306-5.079,9.342c-1.264,0.507-3.794,1.536-5.079,2.042c-3.195-1.68-7.046-3.452-8.294-7.12
		C421.189,231.304,427.567,218.78,429.52,206.131z"/>
	<path fill="#37559E" d="M113.627,225.9c2.928,23.022,5.819,46.045,8.313,69.139c-1.283,2.367-2.584,4.771-3.849,7.174
		c-0.976,0.361-2.909,1.12-3.885,1.481c-2.512-1.121-5.024-2.259-7.536-3.343c-5.222-9.794-4.518-21.377-3.216-32.039
		C105.496,253.892,109.869,239.942,113.627,225.9z"/>
	<path fill="#37559E" d="M608.383,314.247c5.35-22.335,13.19-44.109,17.294-66.752c2.224,20.528,4.3,41.075,6.976,61.548
		c0.958,7.247,0.562,14.583-1.824,21.522c-1.553,1.464-3.108,2.927-4.663,4.391c-5.294,0.019-11.528,0.379-15.271-4.138
		C607.479,326.102,608.058,319.759,608.383,314.247z"/>
	<path fill="#37559E" d="M295.437,314.609c1.066-19.552,3.596-38.979,5.402-58.477c6.614,27.015,15.396,54.121,14.367,82.275
		c-0.94,2.114-1.753,4.283-2.422,6.505c-1.626,1.626-3.235,3.271-4.825,4.951c-3.487-0.596-6.885-1.645-10.174-2.909
		C292.96,336.818,294.026,325.396,295.437,314.609z"/>
	<path fill="#37559E" d="M173.207,263.848c4.445,19.589,10.843,38.672,16.119,58.062c1.988,6.089-1.392,11.927-4.102,17.167
		c-2.693,0.542-5.368,1.21-8.096,1.609c-1.879-2.332-3.812-4.627-5.747-6.904c0-10.752-2.349-21.432-1.445-32.202
		C171.093,289.003,171.454,276.372,173.207,263.848z"/>
	<path fill="#37559E" d="M471.715,305.32c1.247-9.613,0.778-19.391,2.711-28.913c4.335,19.046,12.703,37.008,16.012,56.326
		c1.138,9.74-0.994,22.064-11.098,26.293c-1.445-0.29-4.354-0.886-5.818-1.193c-1.463-1.481-2.943-2.945-4.408-4.409
		C468.77,337.323,471.118,321.367,471.715,305.32z"/>
	<path fill="#37559E" d="M213.143,380.44c5.8,18.721,14.926,36.9,15.396,56.833c0.307,5.69-2.71,10.625-5.855,15.069
		c-1.681,0.108-5.023,0.361-6.704,0.472c-3.397-3.813-6.397-8.367-6.668-13.608C208.426,419.527,210.432,399.902,213.143,380.44z"/>
	<path fill="#37559E" d="M30.196,389.873c5.963,14.854,12.649,29.69,15.469,45.538c0.326,6.758,1.481,15.125-3.994,20.238
		c-2.964,2.979-6.668,0.253-9.234-1.809c-6.289-5.274-7.662-14.167-7.301-21.919C25.841,417.792,29.058,403.95,30.196,389.873z"/>
	<path fill="#37559E" d="M708.764,485.087c2.151-17.402,3.325-34.912,6.108-52.224c2.729,11.096,6.36,21.956,10.12,32.762
		c2.766,7.915,4.572,16.553,2.746,24.883c-1.318,5.855-5.149,10.589-8.514,15.379c-3.574-0.995-6.884-2.656-9.884-4.808
		C708.602,495.784,707.933,490.418,708.764,485.087z"/>
	<path fill="#37559E" d="M546.888,435.14c2.007,19.444,5.062,38.764,7.771,58.115c0.849,4.734-0.726,9.523-0.092,14.239
		c1.393,2.783,3.38,5.204,5.386,7.59c-2.819-3.036-5.782-5.945-8.638-8.909c-3.235,2.584-7.897,6.436-11.167,1.699
		c-2.566-6.397-0.325-13.553-1.557-20.221C540.907,470.088,544.973,452.777,546.888,435.14z"/>
	<path fill="#37559E" d="M112.67,564.02c1.608-17.801,8.096-34.604,12.378-51.825c2.747,16.517,6.252,33.016,7.029,49.784
		c-0.597,7.732-1.554,16.337-7.264,22.153c-2.62,0.127-5.241,0.254-7.86,0.379C114.188,578.062,111.857,571.121,112.67,564.02z"/>
	<path fill="#37559E" d="M648.572,578.259c2.71-19.426,5.021-38.906,7.39-58.368c5.295,17.907,11.277,35.835,12.724,54.559
		c0.071,7.568-1.354,16.496-8.148,21.066c-2.766,2.459-8.007,2.551-9.904-1.026C646.909,589.86,648.175,583.662,648.572,578.259z"/>
	<path fill="#37559E" d="M596.781,621.466c1.97,19.334,3.958,38.672,6.542,57.936c0.938,8.274,1.662,16.858-1.268,24.864
		c-1.373,1.48-2.745,2.98-4.083,4.498c-4.733,0.057-9.922,0.726-14.06-2.074c-5.855-4.937-5.114-13.521-4.049-20.33
		c4.12-16.445,8.766-32.766,12.308-49.354l1.48,0.072C594.866,631.892,596.005,626.725,596.781,621.466z"/>
	<path fill="#37559E" d="M13.083,678.479c3.994-16.102,6.649-32.65,12.486-48.229c0.886,4.989,1.59,9.993,2.078,15.035
		c1.175,14.456,5.259,28.769,3.65,43.369c-0.072,5.312-3.234,9.794-5.873,14.167c-1.807,0.902-3.631,1.79-5.457,2.691
		c-2.801-2.24-5.547-4.535-8.204-6.938C11.149,691.832,11.204,685.02,13.083,678.479z"/>
	<path fill="#37559E" d="M151.974,686.81c2.819-12.233,5.258-24.558,8.204-36.756c1.771,14.781,6.271,29.038,8.872,43.679
		c1.121,6.539,3.65,12.975,2.892,19.694c-0.416,4.59-2.276,8.854-3.523,13.229c-1.428,1.104-2.639,2.422-3.65,3.922
		c-1.664,0.866-3.235,1.951-4.409,3.451c-1.717-3.578-6.741-4.085-7.969-8.041C146.932,713.626,149.751,699.604,151.974,686.81z"/>
</g>
<g id="_x23_010101ff">
	<path fill="#010101" d="M386.746,407.582c12.614-3.415,24.143,5.114,36.07,7.951c12.957,5.132,25.242,11.764,37.17,18.92
		c18.38,11.691,37.404,22.588,54.14,36.629c8.005,6.688,16.86,12.396,23.961,20.131l0.507-3.561
		c1.229,6.668-1.012,13.822,1.557,20.221c3.27,4.735,7.932,0.886,11.167-1.699c2.854,2.964,5.816,5.873,8.638,8.909
		c9.668,11.187,17.295,23.998,24.503,36.863c5.114,11.241,11.908,21.774,15.704,33.575c-12.561-3.522-24.667-8.477-36.938-12.829
		c-11.71-3.812-24.609-4.52-36.125,0.449c-4.046,0.796-8.021,1.882-11.926,3.146l1.465,1.553
		c-6.774,3.706-12.252,9.146-17.619,14.604c-2.274,2.641-6.921,2.928-9.357,0.381c-6.741-5.946-10.592-14.64-18.09-19.771
		c-7.047-4.952-14.963-8.401-22.751-11.979c-13.734-6.851-30.886-6.487-44.525,0.307c-8.783,7.104-15.667,16.823-19.553,27.448
		c-2.64-0.396-5.909,0.2-7.445-2.528c-10.317-12.687-24.757-22.516-41.093-25.1c-11.674-2.895-24.106-0.489-34.858,4.498
		c-10.589,6.56-17.799,17.438-23.075,28.498c-7.445-0.633-11.132-7.789-15.794-12.613c-4.771-5.945-11.692-9.452-18.486-12.559
		c-1.518-0.688-3.054-1.304-4.608-1.863c-22.1-5.276-45.466-2.818-66.825,4.465c-4.266,1.59-8.583,3.072-12.958,4.355
		c3.09-9.02,8.892-16.718,13.842-24.739c19.535-31.948,47.309-57.663,75.499-81.807c5.747-4.645,12.09-8.456,17.999-12.849
		c17.383-13.155,38.128-20.528,58.024-28.967C344.967,419.328,365.297,411.304,386.746,407.582"/>
</g>
<g id="_x23_fe8441ff">
	<path fill="#EF8246" d="M404.294,561.381c13.642-6.794,30.791-7.155,44.525-0.307c7.788,3.577,15.704,7.026,22.751,11.979
		c7.498,5.132,11.349,13.823,18.09,19.771c2.438,2.547,7.083,2.26,9.357-0.381c5.367-5.456,10.845-10.896,17.619-14.604
		l-1.465-1.553c3.904-1.266,7.88-2.352,11.926-3.146c-3.558,2.331-7.658,3.649-11.382,5.711c5.06,9.562,9.251,19.68,11.893,30.195
		c3.938,19.589,6.158,39.863,2.997,59.725c-1.606,12.485-7.19,23.892-10.896,35.8c-4.518,14.167-11.421,27.521-20.237,39.481
		c-14.474,3.035-29.474,4.049-44.165,1.951c-17.146-1.951-32.871-12.035-50.561-9.829c-21.343-0.776-40.896,8.8-61.459,12.722
		c-19.137,4.139-38.96,1.627-58.006-1.754c-11.945-1.933-22.697-7.625-34.172-11.11c0.759-0.579,2.259-1.754,3-2.353
		c-6.614-10.316-12.831-21.053-16.933-32.652c-4.463-12.413-9.27-24.992-9.975-38.311c-0.633-12.504-0.976-25.046-0.578-37.566
		c1.138-19.879,10.119-37.948,17.366-56.127c6.794,3.104,13.715,6.611,18.486,12.559c4.663,4.824,8.349,11.979,15.794,12.613
		c5.276-11.061,12.486-21.938,23.075-28.498c10.752-4.987,23.187-7.393,34.858-4.498c16.336,2.584,30.772,12.413,41.093,25.1
		c1.536,2.729,4.807,2.132,7.445,2.528C388.627,578.204,395.511,568.482,404.294,561.381"/>
</g>
<g id="_x23_4a7cedff">
	<path fill="#5975B4" d="M194.312,729.709c10.536-1.337,21.233-1.682,31.823-0.705c8.709,0.74,16.661,4.68,24.973,7.03
		c11.475,3.487,22.227,9.18,34.172,11.112c19.046,3.379,38.87,5.891,58.006,1.752c20.562-3.923,40.116-13.498,61.459-12.722
		c17.688-2.206,33.413,7.878,50.561,9.829c14.691,2.097,29.691,1.084,44.165-1.951c8.312-2.062,16.045-6.18,24.56-7.48
		c16.769-2.276,34.207-2.077,50.362,3.471c15.25,5.422,30.684,12.018,47.234,11.131c22.645,1.809,43.895-7.442,65.903-10.878
		c10.732-1.211,21.632-1.266,32.399-0.417c17.004,2.188,33.124,8.855,48.067,17.062v267.661H0V742.756
		c9.378,0.125,18.83,0.704,27.919,3.197c15.233,4.104,30.756,7.029,46.062,10.843c10.77,2.838,21.902,0.831,32.708-0.577
		c18.938-2.206,36.503-10.121,54.031-17.077c4.735-1.916,9.849-2.401,14.854-2.963C180.724,731.569,187.79,730.828,194.312,729.709z
		"/>
</g>
<path fill="#37559E" d="M354.725,468.877c1.121-10.046,3.614-19.859,5.008-29.852c1.896,8.746,4.301,17.383,4.626,26.382
	c3.47,13.316,3.307,27.088,3.018,40.75c-0.216,4.825-2.873,9.052-4.825,13.354c-2.963-0.037-5.943-0.07-8.908-0.07
	c-1.896-1.861-3.775-3.724-5.655-5.587c0.091-5.562-0.108-11.221,1.354-16.658C352.142,487.942,351.942,478.148,354.725,468.877z"/>
<path fill="#5975B4" d="M381.326,606.737c7.499,16.064,6.072,34.335,11.311,51.015c1.229,12.342,2.692,27.105-7.299,36.448
	c-7.734,1.101-16.174,0.053-20.691-7.084c-1.896-19.75,4.355-39.195,9.146-58.17C376.754,621.7,377.838,613.804,381.326,606.737z"/>
<rect fill="none" width="768" height="1024.604"/>
</svg>
