<?xml version="1.0" encoding="UTF-8" ?>
<!DOCTYPE svg PUBLIC "-//W3C//DTD SVG 1.1//EN" "http://www.w3.org/Graphics/SVG/1.1/DTD/svg11.dtd">
<svg width="600pt" height="800pt" viewBox="0 0 600 800" version="1.1" xmlns="http://www.w3.org/2000/svg">
<g id="#ffffffff">
<path fill="#ffffff" opacity="1.00" d=" M 53.10 56.81 C 217.38 56.82 381.69 56.30 545.96 56.98 C 546.56 167.63 546.32 278.30 546.36 388.96 C 546.46 467.26 546.24 545.57 546.20 623.87 C 493.81 623.75 441.43 624.12 389.04 624.03 C 326.69 624.03 264.34 624.03 201.99 624.03 C 152.36 623.71 102.72 623.95 53.09 623.86 C 53.24 573.25 52.80 522.65 52.94 472.04 C 52.93 363.69 52.94 255.33 52.93 146.98 C 53.27 116.93 53.05 86.87 53.10 56.81 M 241.92 92.61 C 236.07 93.28 230.13 93.24 224.39 94.66 C 210.26 97.89 196.04 100.78 181.94 104.14 C 170.36 107.09 159.94 113.02 149.15 117.96 C 144.28 120.47 139.02 122.29 134.60 125.59 C 127.39 130.78 120.14 135.92 112.95 141.13 C 110.91 142.64 109.29 144.62 107.61 146.50 C 101.99 152.95 96.09 159.15 90.80 165.88 C 88.04 169.46 84.68 172.64 82.64 176.73 C 77.93 185.94 73.16 195.12 68.36 204.28 C 66.31 208.04 65.70 212.33 64.69 216.44 C 64.00 220.71 63.53 225.37 65.46 229.40 C 67.74 234.55 69.41 239.96 71.93 245.01 C 74.39 249.96 78.65 253.61 82.22 257.72 C 87.69 263.93 93.69 269.68 100.30 274.68 C 105.22 278.43 109.65 282.93 115.24 285.73 C 124.62 290.70 133.88 295.90 143.30 300.78 C 154.43 305.35 165.73 309.50 176.91 313.93 C 186.60 317.98 196.80 320.83 207.17 322.50 C 228.98 326.68 251.09 328.99 273.06 332.15 C 286.68 332.60 300.32 332.35 313.95 332.36 C 324.69 331.15 335.55 330.52 346.07 327.86 C 362.13 324.85 377.76 320.04 393.48 315.62 C 405.45 310.06 417.15 303.88 429.04 298.11 C 434.57 295.54 439.45 291.84 444.60 288.62 C 455.62 281.93 465.07 273.09 475.23 265.23 C 481.71 260.41 487.36 254.65 493.33 249.24 C 508.26 235.50 523.02 221.59 537.91 207.80 C 526.43 196.35 514.68 185.18 503.02 173.92 C 495.01 166.91 486.75 160.21 478.69 153.27 C 474.40 149.45 469.33 146.69 464.62 143.45 C 455.34 137.63 446.59 130.88 436.64 126.23 C 417.38 118.44 398.31 109.92 378.09 104.91 C 351.37 100.70 324.71 96.05 297.86 92.67 C 279.38 89.46 260.48 90.80 241.92 92.61 M 307.88 348.49 C 279.78 352.00 251.87 356.81 223.91 361.22 C 215.47 363.21 207.31 366.27 199.04 368.85 C 187.16 373.70 175.18 378.34 163.39 383.40 C 150.61 390.26 138.92 398.94 126.70 406.72 C 114.45 417.11 101.67 426.96 90.35 438.40 C 81.52 446.94 72.62 455.43 63.87 464.06 C 82.25 481.38 100.79 498.53 119.34 515.67 C 127.30 522.37 135.54 528.74 143.61 535.32 C 150.94 541.57 159.44 546.20 167.36 551.64 C 177.64 557.20 188.29 562.04 198.70 567.37 C 202.77 569.28 206.63 571.76 211.05 572.84 C 221.92 575.70 232.66 579.05 243.59 581.66 C 254.03 583.68 264.32 586.59 274.96 587.36 C 289.87 589.70 304.97 588.44 319.99 588.73 C 328.75 589.17 337.33 587.13 345.99 586.17 C 361.42 583.94 376.95 582.31 392.26 579.28 C 402.77 577.59 413.21 575.09 423.05 570.99 C 434.74 566.43 446.48 561.97 458.13 557.32 C 467.43 552.65 476.43 547.40 485.64 542.58 C 491.95 539.54 496.89 534.46 502.43 530.30 C 511.32 523.63 518.59 515.15 526.05 506.99 C 531.24 501.04 533.00 493.13 536.18 486.09 C 538.52 481.46 537.86 476.03 536.73 471.16 C 535.88 467.82 535.33 464.34 533.73 461.25 C 528.81 451.81 523.91 442.37 519.04 432.90 C 517.35 429.47 514.62 426.76 512.27 423.81 C 505.31 415.09 497.76 406.85 490.25 398.62 C 482.64 392.86 474.71 387.52 467.01 381.88 C 463.06 378.90 458.35 377.24 453.98 375.02 C 442.16 369.54 430.68 363.06 417.90 360.02 C 402.89 356.68 387.90 353.25 372.85 350.14 C 351.27 348.52 329.45 344.77 307.88 348.49 Z" />
</g>
<g id="#151515ff">
<path fill="#151515" opacity="1.00" d=" M 0.00 46.64 C 2.61 21.52 26.48 0.04 52.00 1.90 C 219.32 1.91 386.65 1.91 553.98 1.90 C 559.02 1.97 563.99 3.39 568.55 5.48 C 574.63 10.01 581.56 13.49 586.76 19.14 C 593.33 25.51 597.76 33.76 600.00 42.60 L 600.00 637.45 C 598.58 644.79 596.30 652.08 592.28 658.44 C 583.42 672.39 567.72 682.31 551.02 682.63 C 389.02 682.55 227.02 682.72 65.02 682.53 C 58.00 682.53 50.87 683.18 43.97 681.56 C 30.46 678.40 17.95 670.45 9.99 658.99 C 4.64 651.45 1.06 642.59 0.00 633.38 L 0.00 46.64 M 53.10 56.81 C 53.05 86.87 53.27 116.93 52.93 146.98 C 52.94 255.33 52.93 363.69 52.94 472.04 C 52.80 522.65 53.24 573.25 53.09 623.86 C 102.72 623.95 152.36 623.71 201.99 624.03 C 264.34 624.03 326.69 624.03 389.04 624.03 C 441.43 624.12 493.81 623.75 546.20 623.87 C 546.24 545.57 546.46 467.26 546.36 388.96 C 546.32 278.30 546.56 167.63 545.96 56.98 C 381.69 56.30 217.38 56.82 53.10 56.81 Z" />
<path fill="#151515" opacity="1.00" d=" M 233.14 695.22 C 237.08 693.62 242.14 696.51 241.79 700.97 C 241.97 706.01 235.09 708.78 231.54 705.36 C 228.16 702.65 229.15 696.79 233.14 695.22 Z" />
<path fill="#151515" opacity="1.00" d=" M 327.44 695.72 C 330.70 693.77 335.86 695.07 336.80 699.07 C 338.67 704.02 332.36 708.86 327.94 706.14 C 323.92 704.19 323.65 698.03 327.44 695.72 Z" />
<path fill="#151515" opacity="1.00" d=" M 422.35 695.48 C 426.31 693.39 431.98 696.28 431.56 701.03 C 431.66 705.87 425.20 708.66 421.60 705.61 C 418.22 703.19 418.66 697.37 422.35 695.48 Z" />
<path fill="#151515" opacity="1.00" d=" M 576.16 695.27 C 579.74 693.83 584.47 695.83 584.87 699.93 C 585.92 705.03 579.27 708.91 575.23 705.78 C 571.32 703.39 571.97 696.97 576.16 695.27 Z" />
<path fill="#151515" opacity="1.00" d=" M 304.36 696.29 C 306.82 696.27 309.29 696.27 311.75 696.29 C 311.70 722.79 311.71 749.30 311.74 775.80 C 309.28 775.80 306.82 775.80 304.37 775.80 C 304.38 772.56 304.38 769.33 304.41 766.11 C 300.01 771.41 293.99 775.60 287.13 776.83 C 277.36 778.82 266.67 775.53 260.02 768.03 C 249.30 757.06 249.04 737.72 259.69 726.61 C 268.43 716.38 284.70 713.68 296.14 720.87 C 299.42 722.87 302.03 725.76 304.42 728.73 C 304.33 717.92 304.43 707.10 304.36 696.29 M 275.43 724.73 C 266.95 727.29 260.71 735.30 259.62 744.00 C 258.20 754.07 264.10 764.75 273.50 768.74 C 282.53 772.75 293.87 769.65 299.96 761.97 C 307.15 752.80 306.35 738.18 297.86 730.07 C 292.15 724.28 283.14 722.28 275.43 724.73 Z" />
<path fill="#151515" opacity="1.00" d=" M 553.24 696.28 C 555.74 696.27 558.24 696.27 560.75 696.29 C 560.71 722.73 560.68 749.17 560.77 775.61 C 558.25 775.63 555.73 775.63 553.22 775.62 C 553.31 749.17 553.27 722.73 553.24 696.28 Z" />
<path fill="#151515" opacity="1.00" d=" M 450.54 697.09 C 453.06 697.08 455.59 697.08 458.12 697.10 C 458.09 704.19 458.17 711.29 458.06 718.38 C 461.97 718.40 465.88 718.39 469.79 718.41 C 469.77 720.55 469.76 722.69 469.77 724.84 C 465.89 724.85 462.01 724.85 458.14 724.84 C 458.09 741.82 458.13 758.81 458.12 775.79 C 455.59 775.80 453.06 775.81 450.54 775.81 C 450.53 758.82 450.55 741.83 450.53 724.84 C 447.15 724.85 443.78 724.85 440.40 724.84 C 440.40 722.69 440.40 720.55 440.39 718.42 C 443.78 718.39 447.17 718.39 450.57 718.39 C 450.51 711.29 450.55 704.19 450.54 697.09 Z" />
<path fill="#151515" opacity="1.00" d=" M 22.29 720.29 C 26.26 716.77 31.97 716.55 36.94 717.43 C 41.44 718.52 45.26 721.33 48.64 724.39 C 47.02 726.03 45.41 727.69 43.82 729.37 C 40.76 726.67 37.25 724.09 33.05 723.74 C 28.39 723.21 23.34 727.04 23.57 731.95 C 23.79 736.25 27.56 739.08 30.94 741.11 C 36.65 744.49 43.47 747.16 46.87 753.23 C 51.15 761.09 47.41 771.76 39.39 775.55 C 30.90 779.53 20.29 776.62 14.17 769.72 C 15.64 767.75 17.24 765.87 18.90 764.07 C 22.73 768.56 28.95 772.13 34.92 769.78 C 40.63 767.95 43.74 760.23 39.59 755.45 C 34.08 749.57 25.30 748.09 20.12 741.80 C 14.95 735.59 15.79 725.26 22.29 720.29 Z" />
<path fill="#151515" opacity="1.00" d=" M 60.14 736.93 C 63.40 727.61 71.23 719.49 81.12 717.55 C 89.27 716.29 98.24 716.87 105.12 721.87 C 113.46 727.46 117.93 737.49 117.86 747.38 C 100.61 747.46 83.36 747.38 66.11 747.43 C 66.39 754.03 68.73 760.77 73.83 765.19 C 80.95 771.98 92.61 771.97 100.61 766.72 C 104.68 764.27 107.19 760.12 109.64 756.20 C 111.72 757.33 113.81 758.43 115.92 759.51 C 112.02 768.08 104.30 775.17 94.85 776.83 C 87.11 777.85 78.68 777.46 71.98 773.03 C 60.48 765.50 55.54 749.81 60.14 736.93 M 76.74 726.81 C 71.56 729.80 68.65 735.29 66.86 740.81 C 81.10 740.95 95.35 740.86 109.59 740.86 C 108.45 737.19 107.08 733.45 104.42 730.60 C 97.49 723.28 85.36 721.45 76.74 726.81 Z" />
<path fill="#151515" opacity="1.00" d=" M 151.12 718.22 C 157.87 715.65 166.07 716.70 171.55 721.56 C 174.23 723.88 175.64 727.24 176.91 730.47 C 180.55 723.67 187.09 718.06 194.92 717.08 C 201.36 716.03 208.40 718.23 212.52 723.42 C 217.04 728.87 217.42 736.33 217.60 743.10 C 217.64 754.00 217.59 764.91 217.63 775.82 C 215.03 775.83 212.44 775.83 209.84 775.82 C 209.83 764.19 209.86 752.56 209.83 740.94 C 209.68 736.61 209.68 731.78 206.77 728.26 C 203.53 724.24 197.84 722.93 192.96 724.12 C 186.68 725.48 181.58 730.61 179.81 736.72 C 178.51 741.35 178.31 746.20 178.26 750.99 C 178.26 759.27 178.27 767.55 178.26 775.83 C 175.73 775.83 173.21 775.83 170.69 775.83 C 170.66 764.27 170.76 752.70 170.64 741.14 C 170.43 736.38 170.29 730.94 166.60 727.41 C 161.51 722.15 152.68 722.91 147.25 727.26 C 141.40 731.50 139.49 739.05 139.30 745.92 C 139.04 755.88 139.25 765.84 139.19 775.81 C 136.69 775.80 134.19 775.80 131.69 775.81 C 131.69 756.67 131.70 737.53 131.68 718.40 C 134.18 718.38 136.69 718.39 139.19 718.41 C 139.19 721.59 139.18 724.77 139.14 727.96 C 142.31 723.86 146.06 719.88 151.12 718.22 Z" />
<path fill="#151515" opacity="1.00" d=" M 352.06 730.03 C 358.82 719.76 372.38 714.49 384.27 717.84 C 390.37 719.38 395.33 723.53 399.39 728.17 C 399.37 724.91 399.37 721.66 399.34 718.41 C 401.86 718.39 404.38 718.39 406.91 718.41 C 406.78 734.60 406.95 750.79 406.83 766.98 C 406.74 773.63 406.34 780.71 402.62 786.48 C 397.52 794.73 387.36 798.58 377.96 798.25 C 370.44 798.56 362.68 796.81 356.54 792.34 C 352.43 789.33 349.91 784.77 347.65 780.32 C 350.38 780.27 353.12 780.27 355.85 780.31 C 358.77 785.24 363.40 789.28 369.08 790.57 C 377.85 792.62 388.34 791.66 394.88 784.85 C 399.78 779.58 399.31 771.84 399.40 765.17 C 389.95 777.23 370.96 779.30 358.82 770.18 C 346.11 761.56 343.40 742.41 352.06 730.03 M 371.37 724.58 C 361.17 727.20 353.92 737.54 354.58 748.00 C 354.60 757.31 361.42 766.03 370.49 768.20 C 377.56 769.68 385.64 769.20 391.52 764.58 C 402.67 756.14 402.49 737.01 391.49 728.51 C 385.91 724.10 378.20 722.58 371.37 724.58 Z" />
<path fill="#151515" opacity="1.00" d=" M 478.27 747.01 C 477.69 731.48 491.28 716.99 506.88 716.87 C 516.26 716.24 525.34 721.05 530.71 728.64 C 530.70 725.22 530.69 721.81 530.68 718.41 C 533.14 718.39 535.59 718.39 538.06 718.39 C 538.05 737.54 538.05 756.68 538.06 775.82 C 535.59 775.81 533.14 775.80 530.69 775.80 C 530.68 772.61 530.69 769.42 530.75 766.23 C 525.17 772.85 516.89 777.76 507.99 777.13 C 491.77 778.32 477.64 762.85 478.27 747.01 M 502.35 724.59 C 494.58 726.70 488.53 733.35 486.59 741.09 C 483.49 751.96 489.63 764.60 500.14 768.82 C 509.49 772.88 521.26 769.30 527.07 761.01 C 533.54 751.73 532.46 737.72 524.08 729.94 C 518.55 724.33 509.85 722.40 502.35 724.59 Z" />
<path fill="#151515" opacity="1.00" d=" M 231.79 718.41 C 234.35 718.39 236.91 718.39 239.48 718.42 C 239.44 737.55 239.47 756.69 239.46 775.83 C 236.90 775.83 234.35 775.83 231.80 775.83 C 231.80 756.69 231.81 737.55 231.79 718.41 Z" />
<path fill="#151515" opacity="1.00" d=" M 327.10 718.41 C 329.65 718.39 332.19 718.39 334.74 718.42 C 334.68 737.54 334.70 756.67 334.73 775.80 C 332.19 775.81 329.65 775.81 327.12 775.80 C 327.14 756.67 327.18 737.54 327.10 718.41 Z" />
<path fill="#151515" opacity="1.00" d=" M 421.56 718.41 C 424.11 718.39 426.66 718.39 429.22 718.40 C 429.21 737.54 429.22 756.67 429.22 775.81 C 426.67 775.81 424.12 775.80 421.57 775.81 C 421.57 756.68 421.60 737.54 421.56 718.41 Z" />
<path fill="#151515" opacity="1.00" d=" M 574.89 718.43 C 577.46 718.39 580.03 718.39 582.61 718.41 C 582.58 737.48 582.55 756.55 582.63 775.62 C 580.04 775.63 577.46 775.63 574.88 775.59 C 574.90 756.54 574.89 737.48 574.89 718.43 Z" />
</g>
<g id="#ea9e33ff">
<path fill="#ea9e33" opacity="1.00" d=" M 241.92 92.61 C 260.48 90.80 279.38 89.46 297.86 92.67 C 324.71 96.05 351.37 100.70 378.09 104.91 C 398.31 109.92 417.38 118.44 436.64 126.23 C 446.59 130.88 455.34 137.63 464.62 143.45 C 469.33 146.69 474.40 149.45 478.69 153.27 C 486.75 160.21 495.01 166.91 503.02 173.92 C 514.68 185.18 526.43 196.35 537.91 207.80 C 523.02 221.59 508.26 235.50 493.33 249.24 C 487.36 254.65 481.71 260.41 475.23 265.23 C 465.07 273.09 455.62 281.93 444.60 288.62 C 439.45 291.84 434.57 295.54 429.04 298.11 C 417.15 303.88 405.45 310.06 393.48 315.62 C 377.76 320.04 362.13 324.85 346.07 327.86 C 335.55 330.52 324.69 331.15 313.95 332.36 C 300.32 332.35 286.68 332.60 273.06 332.15 C 251.09 328.99 228.98 326.68 207.17 322.50 C 196.80 320.83 186.60 317.98 176.91 313.93 C 165.73 309.50 154.43 305.35 143.30 300.78 C 133.88 295.90 124.62 290.70 115.24 285.73 C 109.65 282.93 105.22 278.43 100.30 274.68 C 93.69 269.68 87.69 263.93 82.22 257.72 C 78.65 253.61 74.39 249.96 71.93 245.01 C 69.41 239.96 67.74 234.55 65.46 229.40 C 63.53 225.37 64.00 220.71 64.69 216.44 C 65.70 212.33 66.31 208.04 68.36 204.28 C 73.16 195.12 77.93 185.94 82.64 176.73 C 84.68 172.64 88.04 169.46 90.80 165.88 C 96.09 159.15 101.99 152.95 107.61 146.50 C 109.29 144.62 110.91 142.64 112.95 141.13 C 120.14 135.92 127.39 130.78 134.60 125.59 C 139.02 122.29 144.28 120.47 149.15 117.96 C 159.94 113.02 170.36 107.09 181.94 104.14 C 196.04 100.78 210.26 97.89 224.39 94.66 C 230.13 93.24 236.07 93.28 241.92 92.61 Z" />
</g>
<g id="#2a73a1ff">
<path fill="#2a73a1" opacity="1.00" d=" M 307.88 348.49 C 329.45 344.77 351.27 348.52 372.85 350.14 C 387.90 353.25 402.89 356.68 417.90 360.02 C 430.68 363.06 442.16 369.54 453.98 375.02 C 458.35 377.24 463.06 378.90 467.01 381.88 C 474.71 387.52 482.64 392.86 490.25 398.62 C 497.76 406.85 505.31 415.09 512.27 423.81 C 514.62 426.76 517.35 429.47 519.04 432.90 C 523.91 442.37 528.81 451.81 533.73 461.25 C 535.33 464.34 535.88 467.82 536.73 471.16 C 537.86 476.03 538.52 481.46 536.18 486.09 C 533.00 493.13 531.24 501.04 526.05 506.99 C 518.59 515.15 511.32 523.63 502.43 530.30 C 496.89 534.46 491.95 539.54 485.64 542.58 C 476.43 547.40 467.43 552.65 458.13 557.32 C 446.48 561.97 434.74 566.43 423.05 570.99 C 413.21 575.09 402.77 577.59 392.26 579.28 C 376.95 582.31 361.42 583.94 345.99 586.17 C 337.33 587.13 328.75 589.17 319.99 588.73 C 304.97 588.44 289.87 589.70 274.96 587.36 C 264.32 586.59 254.03 583.68 243.59 581.66 C 232.66 579.05 221.92 575.70 211.05 572.84 C 206.63 571.76 202.77 569.28 198.70 567.37 C 188.29 562.04 177.64 557.20 167.36 551.64 C 159.44 546.20 150.94 541.57 143.61 535.32 C 135.54 528.74 127.30 522.37 119.34 515.67 C 100.79 498.53 82.25 481.38 63.87 464.06 C 72.62 455.43 81.52 446.94 90.35 438.40 C 101.67 426.96 114.45 417.11 126.70 406.72 C 138.92 398.94 150.61 390.26 163.39 383.40 C 175.18 378.34 187.16 373.70 199.04 368.85 C 207.31 366.27 215.47 363.21 223.91 361.22 C 251.87 356.81 279.78 352.00 307.88 348.49 Z" />
</g>
</svg>
