<?xml version="1.0" encoding="utf-8"?>
<!-- Generator: Adobe Illustrator 16.0.0, SVG Export Plug-In . SVG Version: 6.00 Build 0)  -->
<!DOCTYPE svg PUBLIC "-//W3C//DTD SVG 1.1//EN" "http://www.w3.org/Graphics/SVG/1.1/DTD/svg11.dtd">
<svg version="1.1" id="Livello_1" xmlns="http://www.w3.org/2000/svg" xmlns:xlink="http://www.w3.org/1999/xlink" x="0px" y="0px"
	 width="768px" height="1024.604px" viewBox="0 0 768 1024.604" enable-background="new 0 0 768 1024.604" xml:space="preserve">
<g id="_x23_cd031bff">
	<path fill="#CC051D" d="M47.037,255.663c102.009,0.091,204.036-0.019,306.044,0.054c7.698,28.137,11.854,57.031,15.612,85.89
		c3.633,43.839,7.19,87.841,5.312,131.86c-1.265,40.479-5.078,80.813-9.035,121.091c-3.233,30.323-9.521,60.194-15.521,90.046
		c-1.916,10.084-5.53,19.86-6.035,30.16c11.817,2.584,24.07,1.104,36.086,1.557c12.542,0.358,25.047-0.74,37.244-3.776
		c-0.271-19.011-4.935-37.66-6.107-56.615c-7.935-60.556-11.204-121.562-16.589-182.351c-0.578-28.391-1.807-56.85,0.253-85.203
		c0.831-27.051,2.062-54.085,2.638-81.155c0.649-17.112-0.688-34.297,2.134-51.302c105.354-0.488,210.702-0.163,316.056-0.145
		c-0.614,24.396-0.634,48.808-2.585,73.15c-4.281,36.195-9.323,72.336-16.646,108.044c-3.357,19.462-7.605,38.762-10.625,58.278
		c-1.605,12.92-6.053,25.208-9.396,37.75c-5.801,19.57-12.232,38.96-18.757,58.312c-8.401,29.274-18.105,58.17-27.827,87.028
		c-11.169,33.016-26.709,64.258-41.474,95.773c-10.317,23.764-27.123,43.804-39.793,66.247
		c-9.286,12.433-19.731,23.979-29.778,35.814c-4.662,5.566-9.541,10.95-14.401,16.354c-19.807,19.786-40.461,38.797-60.771,58.096
		c-16.044,16.121-34.496,29.51-51.211,44.87c-21.955-11.295-43.1-24.413-61.478-41.021c-17.041-12.307-32.31-26.815-46.677-42.104
		c-1.102-1.211-2.168-2.456-3.18-3.724c-15.396-15.685-27.576-34.025-40.912-51.394c-6.163-9.468-13.499-18.16-18.884-28.135
		c-11.275-19.715-22.136-39.685-32.491-59.904c-8.385-20.383-17.402-40.532-25.28-61.115c-2.765-5.891-4.933-11.999-7.301-18.054
		c-15.83-38.2-30.467-76.907-45.303-115.507c-9.072-27.755-17.835-55.655-26.076-83.666c-6.325-28.84-12.468-57.717-19.065-86.504
		c15,2.98,30.196,5.149,44.87,9.541c21.576,3.542,43.497,4.065,65.235,6.018c19.535,1.809,39.34-0.126,58.224-5.421
		c15.503-5.439,30.557-12.07,45.501-18.883c0.398-1.337,0.795-2.657,1.193-3.995c-19.95-6.306-40.659-9.686-61.259-13.064
		c-48.791-2.91-97.871-2.096-146.48,3.397c-3.253,0.252-6.506,0.307-9.776,0.361c-2.15-26.853-7.825-53.236-10.463-80.017
		C50.815,286.726,48.429,271.24,47.037,255.663 M557.025,394.065c-20.729,4.59-40.623,12.126-60.897,18.306
		c-0.235,0.849-0.722,2.566-0.977,3.415c17.512,4.789,34.118,13.028,52.207,15.613c30.811,2.512,61.765,0.993,92.573-0.524
		c18.107-2.114,36.792-3.108,53.924-9.83c-2.295-1.373-4.57-2.693-6.886-3.976c-13.568-3.885-26.619-9.451-39.882-14.24
		c-12.181-5.421-24.811-10.011-37.894-12.686C591.757,389.295,574.229,391.246,557.025,394.065"/>
</g>
<g id="_x23_45a2c3ff">
	<path fill="#47A2C3" d="M383.386,751.916c14.077-0.07,28.552,8.369,34.189,21.54c4.645,10.065,8.564,20.547,10.518,31.517
		c3.29,13.949,2.351,28.371,2.513,42.573c-0.959,11.746-3.071,23.384-5.929,34.806c-3.325,11.928-7.896,24.195-17.294,32.727
		c-11.383,8.655-27.973,12.232-40.912,4.969c-15.432-7.643-22.896-25.207-24.863-41.508c-4.156-21.558-3.978-43.604-2.494-65.396
		c2.458-13.28,2.747-27.377,9.449-39.445C354.635,760.447,368.694,751.303,383.386,751.916z"/>
</g>
<rect fill="none" width="768" height="1024.604"/>
</svg>
