<?xml version="1.0" encoding="utf-8"?>
<!-- Generator: Adobe Illustrator 16.0.0, SVG Export Plug-In . SVG Version: 6.00 Build 0)  -->
<!DOCTYPE svg PUBLIC "-//W3C//DTD SVG 1.1//EN" "http://www.w3.org/Graphics/SVG/1.1/DTD/svg11.dtd">
<svg version="1.1" id="Livello_1" xmlns="http://www.w3.org/2000/svg" xmlns:xlink="http://www.w3.org/1999/xlink" x="0px" y="0px"
	 width="768px" height="1024px" viewBox="0 0 768 1024" enable-background="new 0 0 768 1024" xml:space="preserve">
<path fill="#CC051D" d="M47.27,276.443c81-0.234,162.019-0.036,243.02-0.107c20.029,0.162,40.059-0.325,60.07,0.288
	c7.823,28.719,12.493,58.141,16.278,87.617c2.109,28.214,5.444,56.354,5.519,84.696c0.63,13.23,1.297,26.445,0.18,39.66
	c-0.233,39.229-4.164,78.299-7.409,117.363c-4.183,42.041-12.674,83.524-21.776,124.719c9.283,1.695,18.783,1.01,28.179,1.172
	c14.927-0.181,30.43,0.85,44.656-4.612c-0.219-17.813-4.651-35.229-6.097-52.95c-4.092-34.271-8.614-68.508-10.835-102.977
	c-2.271-23.348-3.965-46.748-6.31-70.075c-2.381-36.762-2.596-73.684-0.308-110.459c-0.106-30.521,2.381-60.989,1.442-91.528
	c-0.396-7.608,1.063-15.126,1.712-22.68c104.112-0.541,208.244-0.055,312.357-0.252c-0.146,28.701,0.829,57.618-3.534,86.066
	c-4.237,42.908-12.674,85.202-20.373,127.549c-3.244,13.883-3.713,28.322-8.165,41.916c-10.476,39.211-24.104,77.449-35.516,116.373
	c-3.409,9.718-5.859,19.757-9.574,29.366c-5.372,18.57-11.809,36.833-20.028,54.338c-7.555,18.335-15.937,36.363-24.409,54.319
	c-5.354,13.665-13.485,25.906-21.688,37.985c-5.064,8.599-10.871,16.711-15.882,25.347c-4.256,7.555-10.478,13.684-15.723,20.499
	c-11.431,13.7-22.589,27.654-35.117,40.382c-17.416,17.524-35.66,34.235-53.291,51.524c-4.742,4.292-8.943,9.213-14.227,12.873
	c-1.624,1.425-3.208,2.899-4.687,4.487c-3.282,2.901-6.546,5.84-10.205,8.256c-7.229,6.889-15.288,12.855-22.373,19.922
	c-3.641-2.288-7.373-4.435-11.214-6.362c-7.734-4.255-15.414-8.602-22.75-13.521c-3.913-2.687-7.646-5.605-11.575-8.223
	c-11.646-10.149-24.842-18.387-36.092-28.952c-33.73-28.412-59.476-64.54-84.714-100.345c-10.961-19.398-22.499-38.489-32.523-58.41
	c-1.677-3.065-3.263-6.166-4.76-9.303c-3.533-8.438-7.084-16.875-10.654-25.312c-3.696-8.385-7.608-16.714-10.746-25.33
	c-17.559-40.492-33.172-81.83-49.559-122.79c-6.977-16.298-11.754-33.405-17.289-50.21c-5.896-19.774-13.648-39.047-17.65-59.347
	c-5.102-24.608-11.069-49.001-16.767-73.483c14.314,2.704,28.809,4.636,42.781,8.799c22.139,3.658,44.583,4.381,66.903,6.184
	c19.578,1.749,39.354-0.812,58.104-6.49c15.18-5.462,29.764-12.367,44.349-19.217c0-0.848,0.019-2.524,0.019-3.372
	c-11.538-3.966-23.545-6.364-35.552-8.383c-24.843-5.806-50.497-5.463-75.844-5.536c-34.542,0.217-69.012,2.597-103.32,6.365
	c-2.542-27.98-9.032-55.438-11.393-83.453C51.02,306.028,49.307,291.209,47.27,276.443 M533.146,417.803
	c-13.357,3.605-26.054,9.248-39.466,12.673c-0.772,0.596-2.323,1.768-3.1,2.361c15.143,6.4,30.792,11.827,46.801,15.649
	c15.976,2.938,32.342,1.497,48.496,1.819c33.874-0.56,68.271-1.677,100.993-11.411c-0.146-0.758-0.415-2.271-0.54-3.028
	c-10.188-2.83-19.94-6.995-30.019-10.15c-8.58-2.578-17.071-5.661-25.097-9.645c-4.831-1.839-9.753-3.372-14.711-4.724
	c-6.397-1.911-12.942-4.038-19.704-3.461C575.352,409.131,553.555,410.537,533.146,417.803"/>
<g id="_x23_45a2c3ff">
	<path fill="#47A2C3" d="M311.797,803.048c50.316-4.851,100.977-3.517,151.455-3.048c3.984-0.09,7.896,0.774,11.7,1.91
		c-0.739,0.326-2.216,0.993-2.956,1.335c-28.468,36.688-55.742,74.312-84.193,111.018c-16.711-23.798-33.603-47.484-49.883-71.59
		c-1.641-2.506-3.515-4.849-5.462-7.103C326.436,824.193,316.467,815.035,311.797,803.048z"/>
</g>
<rect fill="none" width="768" height="1024.604"/>
</svg>
