<?xml version="1.0" encoding="utf-8"?>
<!-- Generator: Adobe Illustrator 15.0.2, SVG Export Plug-In . SVG Version: 6.00 Build 0)  -->
<!DOCTYPE svg PUBLIC "-//W3C//DTD SVG 1.1//EN" "http://www.w3.org/Graphics/SVG/1.1/DTD/svg11.dtd">
<svg version="1.1" id="Layer_1" xmlns="http://www.w3.org/2000/svg" xmlns:xlink="http://www.w3.org/1999/xlink" x="0px" y="0px"
	 width="475.569px" height="762px" viewBox="0 0 475.569 762" enable-background="new 0 0 475.569 762" xml:space="preserve">
<g id="_x23_000000ff">
	<path fill="#FFFFAA" d="M452.789,0h0.562c-3.771,6.99-9.939,12.19-15.239,17.96c-8.74,9.312-18.84,17.223-27.479,26.63
		c-8.34,8.03-16.521,16.24-24.42,24.71c-16.63,17.053-33.13,34.25-48.92,52.103c-3.2,3.39-6.398,6.81-9.08,10.63
		c-6.147,8.94-12.29,17.88-18.351,26.88c-7.5,10.43-14.409,21.32-19.971,32.92c-9.109,16.75-17.029,34.24-22.722,52.46
		c-2.737,7.86-5.58,15.7-7.778,23.73c-2.16,9.027-4.08,18.14-6.82,27.02c-1.358,9.013-3.969,17.771-5.5,26.751
		c-1.938,9.899-2.438,20.012-4.068,29.949c-1.17,6.69-0.3,13.5-1.221,20.21c-0.279,8.683-0.6,17.393-0.159,26.07
		c1.108,9.99,1.59,20.05,3.271,29.97c1.291,10.2,2.08,20.473,3.92,30.59c1.26,8.91,5.961,16.78,8.16,25.44
		c7.631,28.609,18.579,56.319,32.698,82.34c10.66,17.812,21.603,35.5,33.87,52.26c1.79,2.78,3.79,5.44,6.271,7.643
		c7.438,6.841,13.971,14.591,21.188,21.647c12.83,13.189,26.188,25.842,39.642,38.381c15.721,13.33,31.721,26.33,47.53,39.562
		c12.51,10.148,24.59,20.84,37.397,30.619c-0.04,0.891-0.08,1.79-0.107,2.7c-9.82-0.2-19.603,0.97-29.423,0.729
		c-13.647,1.22-27.379,0.109-41.039,1.17c-6.33,0.3-12.648-0.33-18.979-0.479c-35.438-1.021-71.142-3.5-105.589-12.433
		c-12.843-4.35-25.781-8.408-38.57-12.908c-13.319-5.021-26.291-10.932-39.13-17.039C186.06,709.74,170.39,699.47,155,688.9
		c-14.938-10.07-28.7-21.771-42.04-33.841c-6.51-5.811-13.358-11.319-18.88-18.119c-9.729-11.681-19.898-23.061-28.03-35.95
		c-25.34-38.351-44.89-80.647-57.028-125c-3.562-20.561-6.63-41.229-8.45-62.02c-0.42-6.33,0.091-12.65,0.45-18.951
		c0.271-15.37,0.971-30.74,2.778-46.01c1.29-11.73,1.5-23.74,5.21-35.04c7.521-27.7,15.052-55.593,27.33-81.633
		c9.36-19.31,19.852-38.147,32.7-55.38c7.71-9.85,15.771-19.438,24.13-28.75c12.689-14.75,28.021-26.91,43.352-38.777
		c10.938-8.87,23.688-15.07,35.818-22.12c17.5-9.82,34.762-20.07,52.479-29.513c6.4-3.38,12.66-7.13,19.531-9.5
		c14.229-5.27,28.26-11.277,43.067-14.76c18-4.897,36.021-9.75,54.25-13.74c30.2-6.3,60.59-11.64,91.069-16.35
		C439.43,2.36,446.19,1.6,452.789,0z"/>
</g>
</svg>
