<?xml version="1.0" encoding="utf-8"?>
<!-- Generator: Adobe Illustrator 16.0.0, SVG Export Plug-In . SVG Version: 6.00 Build 0)  -->
<!DOCTYPE svg PUBLIC "-//W3C//DTD SVG 1.1//EN" "http://www.w3.org/Graphics/SVG/1.1/DTD/svg11.dtd">
<svg version="1.1" id="Livello_1" xmlns="http://www.w3.org/2000/svg" xmlns:xlink="http://www.w3.org/1999/xlink" x="0px" y="0px"
	 width="768px" height="1024px" viewBox="0 0 768 1024" enable-background="new 0 0 768 1024" xml:space="preserve">
<g id="_x23_ffffffff">
	<path fill="#FFFFFF" d="M321.329,185.31c0.96,0.07,1.91,0.141,2.87,0.21c0.38,1.141,0.779,2.29,1.21,3.431
		c0.069,0.649,0.229,1.96,0.3,2.619l1.23,0.011c-0.142,0.47-0.44,1.409-0.592,1.89h1.012c0.09,1.38,0.188,2.771,0.278,4.15
		l0.939-0.33c0.061,1.79,0.101,3.58,0.141,5.37c0.399-0.49,1.189-1.46,1.58-1.95l-1.131,2.75h1.181
		c0.131,2.31,0.319,4.63,0.46,6.939l1.729,0.141l-1.399,1.67c0.341,0.05,1.021,0.16,1.352,0.21c0.05,1.42,0.09,2.84,0.13,4.27
		l0.83-0.37c0.05,1.03,0.16,3.101,0.21,4.131c0.2-0.011,0.608-0.04,0.811-0.051c0.09,2.03,0.21,4.051,0.3,6.08l0.812-0.359
		c0.07,1.119,0.21,3.34,0.271,4.449l0.602-0.521c0.068,1.65,0.29,3.3,1.021,4.81c0.04,0.681,0.109,2.051,0.149,2.73l0.71-0.15
		c0.091,2.011,0.229,4.021,0.36,6.04l0.858-0.25c0.181,3.061,0.149,6.15-0.641,9.13l1.67-3.05l0.08,3.99l0.8,0.08
		c0.051,2.39,0.189,4.78,0.29,7.17l0.851-0.33c0.021,1.07,0.062,3.22,0.069,4.29l0.79-0.2c0.04,1.78,0.11,3.57,0.16,5.351l0.67-0.37
		c0.25,1.56,0.561,3.12,0.931,4.67c0.13,1.2,0.279,2.399,0.399,3.609l1.04-0.199c-0.069,0.529-0.2,1.58-0.271,2.109
		c0.552-0.01,1.66-0.02,2.21-0.029l0.021,1.189c0.46-0.11,1.38-0.33,1.851-0.439l-0.061,1.14c0.819,0.03,2.46,0.11,3.28,0.141
		l-0.16,1.109c0.54-0.061,1.63-0.2,2.18-0.271l-0.239,0.92c1.04,0.11,3.13,0.32,4.17,0.421c0.012,0.359,0.021,1.06,0.03,1.409
		c1.699,0.131,3.409,0.28,5.13,0.41l-0.45,0.82c1.392,0.1,2.78,0.21,4.182,0.32l0.08,1.21c0.479-0.2,1.43-0.61,1.908-0.811
		l-0.238,1.34c1.449,0.08,2.91,0.16,4.37,0.24l-0.15,1.12c0.46-0.13,1.37-0.4,1.82-0.53l0.08,1.21c0.818,0.011,2.47,0.04,3.29,0.061
		l-0.352,0.939c1.359,0.08,2.72,0.17,4.079,0.261c0.011,0.21,0.03,0.619,0.04,0.829c0.78,0.011,2.341,0.03,3.12,0.04l-0.26,1.021
		c0.811,0,2.438,0.01,3.25,0.021l0.079,1.21c0.479-0.17,1.421-0.529,1.899-0.699l-0.33,1.25c1.472,0.1,2.931,0.229,4.399,0.35
		l-0.12,1.15c0.49-0.16,1.46-0.471,1.95-0.62l-0.102,1.189c1.46,0.08,2.92,0.17,4.381,0.271l-0.319,1.24
		c0.5-0.171,1.51-0.521,2.01-0.69l0.051,1.14c1.392,0.091,2.8,0.181,4.199,0.28l-0.369,0.92c0.8,0.01,2.392,0.03,3.189,0.04
		l-0.102,0.93c0.779,0.03,2.341,0.07,3.109,0.091l-0.189,0.92c1.7,0.08,3.41,0.189,5.109,0.27c-0.01,0.391-0.05,1.19-0.069,1.58
		c1.029,0.08,3.08,0.24,4.109,0.311c0.03,0.31,0.09,0.909,0.12,1.21l1.66-0.671c0.05,0.29,0.17,0.87,0.22,1.171
		c1.011,0.05,3.04,0.17,4.05,0.22c0,0.312-0.01,0.91-0.02,1.21c0.479-0.14,1.438-0.43,1.92-0.58l-0.05,1.01
		c1.608,0.21,3.34,0.32,4.67,1.4c0.38-0.061,1.13-0.189,1.51-0.26l-0.239,1.14c0.829,0,2.5,0,3.34,0l-0.301,0.689
		c0.881,0.271,2.642,0.82,3.521,1.101c0.851,0.1,1.711,0.21,2.569,0.32l-0.04,0.869c0.689,0.051,2.062,0.171,2.739,0.221
		c0.08,0.45,0.25,1.33,0.33,1.779l-1.08-0.149l0.07,1.24c-0.649-0.11-1.95-0.33-2.602-0.45l1.881,1.069
		c-1.091,0.08-3.271,0.261-4.359,0.341l0.109,1.14c-0.449-0.08-1.37-0.24-1.819-0.33l-0.12,1.311c-0.54-0.08-1.62-0.23-2.16-0.311
		c-0.029,0.44-0.1,1.311-0.13,1.75c-1.38,0.16-2.76,0.34-4.12,0.58c-1.59,1.21-3.359,2.18-5.229,2.88
		c-0.319-0.08-0.949-0.22-1.271-0.3l-0.22,1.35c-0.471-0.08-1.399-0.22-1.87-0.29l0.21,1.12c-0.851,0.061-2.561,0.181-3.41,0.24
		c0.051,0.39,0.142,1.17,0.19,1.57c-0.79,0.01-2.36,0.05-3.15,0.069l0.091,1.04c-0.771,0.061-2.318,0.19-3.101,0.25l0.21,1.2
		c-0.49-0.11-1.471-0.33-1.96-0.45l-0.102,1.38c-0.479-0.079-1.431-0.26-1.909-0.35l-0.079,1.33c-0.5-0.09-1.49-0.271-1.99-0.36
		l0.05,1.37c-0.51-0.09-1.52-0.27-2.029-0.359l0.051,1.29l-1.279-0.471l0.351,1.13c-0.811,0.061-2.438,0.16-3.25,0.21l0.21,1.271
		l-1.351-0.68l0.34,1.22c-0.8,0.05-2.409,0.17-3.22,0.229l0.148,1.261c-0.488-0.131-1.471-0.4-1.96-0.54l-0.108,1.399
		c-0.472-0.08-1.4-0.229-1.87-0.31l-0.109,1.37c-0.479-0.11-1.431-0.311-1.898-0.42l-0.19,1.34c-0.46-0.07-1.369-0.221-1.819-0.3
		c-0.061,0.369-0.159,1.1-0.221,1.46l-1.72-0.591l-0.29,1.45c-0.46-0.08-1.399-0.25-1.859-0.33l-0.29,1.729
		c-0.391-0.41-1.181-1.22-1.568-1.62l-0.07,2.06c-0.54-0.04-1.609-0.14-2.149-0.189v1.25c-0.5-0.09-1.5-0.25-2-0.34l0.052,1.39
		c-0.49-0.1-1.472-0.3-1.95-0.4l-0.189,1.551c-0.471-0.261-1.398-0.78-1.87-1.04l0.199,1.689l-1.369-0.33v1.19
		c-0.318-0.01-0.95-0.021-1.261-0.03c-1.26,0.45-2.479,0.96-3.689,1.53l0.12,0.71l-1.271-0.521l0.08,1.24
		c-0.75,0.05-2.261,0.141-3.011,0.19l0.061,1.14c-0.479-0.11-1.449-0.34-1.939-0.45l0.2,1.2c-0.811,0.05-2.431,0.16-3.239,0.21
		l0.17,1.18c-0.471-0.1-1.399-0.31-1.869-0.42c-0.092,0.381-0.271,1.141-0.37,1.521l-1.729-0.72l0.102,1.319
		c-0.812,0.04-2.42,0.12-3.229,0.16c-0.011,0.39-0.021,1.16-0.029,1.55c-1.642,0.189-3.279,0.391-4.909,0.58
		c-0.021,0.37-0.07,1.11-0.102,1.48c-0.681,0.08-2.061,0.25-2.739,0.33c-0.341,6.399-0.37,12.81-0.421,19.22l-1.148-0.66
		c0.729,3.57,0.17,7.22,0.25,10.83c-0.12,24.63-0.062,49.26,0.08,73.89l0.729-0.149c-0.17,3.029,0.659,6.05,0.391,9.069
		c-0.739,1.79-2.5-0.09-3.609-0.439c-0.199-1.568-0.71-3-2.449-3.29c0.04-0.351,0.13-1.04,0.181-1.391l-1.301,0.12l0.229-1.33
		l-1.312,0.21l0.37-1.311l-0.75,0.289c-0.359-0.38-1.101-1.158-1.471-1.55l0.07-0.739c-0.461,0.041-1.381,0.131-1.842,0.181
		c0.021-0.479,0.062-1.439,0.08-1.91c-0.528-0.079-1.601-0.239-2.13-0.319c0.029-0.479,0.09-1.438,0.119-1.92l-1.369,0.42
		l0.449-1.38l-1.369,0.12c0.011-0.49,0.05-1.471,0.069-1.961c-0.479-0.01-1.45-0.02-1.939-0.029c-0.021-0.521-0.061-1.55-0.08-2.068
		c-0.521-0.021-1.55-0.07-2.068-0.102c0.068-0.45,0.229-1.358,0.3-1.811l-1.38,0.101l0.47-0.938l-1.148-0.301l-0.381-1.109
		l-0.979,0.398l0.5-1.318l-1.34,0.18c-0.011-0.479-0.021-1.438-0.021-1.92c-0.341-0.04-1.029-0.109-1.37-0.149
		c-1.29-1.72-2.79-3.271-4.479-4.579c-0.021-0.329-0.04-1.011-0.062-1.341l-1.181,0.12v-0.779c-0.84-0.602-1.648-1.221-2.43-1.859
		c-0.5-0.939-1.102-1.79-1.801-2.58l-0.801,0.16l0.182-1.392c-0.472,0.03-1.432,0.102-1.9,0.142c0.051-0.471,0.16-1.399,0.221-1.87
		l-1.318,0.04l0.17-0.811c-0.352-0.392-1.04-1.159-1.381-1.539l-1,0.479l0.54-1.438l-1.55,0.26c0.079-0.5,0.221-1.49,0.3-1.979
		l-1.341,0.199l0.341-1.31c-0.359,0.02-1.091,0.06-1.46,0.08c-0.569-1.11-1.381-1.98-2.449-2.61c0.021-0.359,0.068-1.08,0.09-1.439
		l-1.34,0.302l0.3-1.433l-1.26,0.461l0.148-1.381l-1.399,0.12l0.64-1.149l-0.84,0.182c-0.93-1.391-2.079-2.609-3.399-3.63
		c-0.021-0.35-0.07-1.05-0.09-1.4c-0.49-0.01-1.479-0.01-1.979-0.02c0.03-0.49,0.07-1.46,0.101-1.95l-1.17,0.12l0.18-1.33
		l-1.38,0.24l0.43-0.811l-1.09-0.35l-0.16-1.13l-0.45,0.13c-0.66-0.99-1.45-1.85-2.37-2.58c0.011-0.351,0.051-1.04,0.07-1.38
		l-1.38,0.19l0.43-1.33l-0.939,0.279c-0.2-0.39-0.601-1.159-0.801-1.55c-1.739-1.7-3.439-3.45-4.93-5.37l-0.74-0.09l0.301-1.271
		l-0.92,0.43c-0.351-0.38-1.07-1.13-1.421-1.51l0.37-0.891c-2.09,0.061-4.17,0.17-6.25,0.28l0.11,1.17c-0.4-0.08-1.2-0.25-1.6-0.33
		c-0.931,0.311-2.79,0.94-3.711,1.261l0.33,0.59c-2.01,0.12-4.029,0.26-6.029,0.37l0.21,1.229l-1.38-0.82
		c0.05,0.29,0.149,0.881,0.199,1.181c-1.699,0.109-3.39,0.239-5.08,0.37l0.23,1.189l-0.75-0.229c-1.57,0.409-3.15,0.79-4.74,1.109
		l0.45,0.55c-1.24,0.131-2.47,0.271-3.7,0.421c-1.21,0.38-2.43,0.75-3.66,1.1l0.431,0.67c-1.431,0.05-2.851,0.11-4.271,0.18
		l-0.1,1.11c-0.49-0.18-1.45-0.53-1.931-0.71l0.29,1.39c-1.47,0.051-2.939,0.101-4.409,0.16l0.199,1.229
		c-0.52-0.19-1.569-0.58-2.1-0.771l0.31,1.26c-1.76,0.12-3.529,0.261-5.29,0.391l-0.01,1.2c-0.46-0.15-1.359-0.45-1.81-0.601
		l-0.061,1.149c-1.01,0.05-3.04,0.16-4.06,0.21c0.04,0.22,0.12,0.68,0.16,0.899c-0.79,0.011-2.37,0.021-3.16,0.03l0.15,0.88
		c-0.801,0-2.4,0.021-3.211,0.021l0.211,1.04c-0.79,0.029-2.36,0.08-3.15,0.1l-0.08,1.11c-0.47-0.16-1.41-0.471-1.88-0.63
		c-0.01,0.31-0.03,0.93-0.05,1.229c-1.011,0.08-3.04,0.22-4.061,0.29l-0.05,0.98c-0.479-0.091-1.45-0.28-1.93-0.38l0.229,1.079
		c-1.79,0.091-3.569,0.21-5.359,0.341c0.029,0.369,0.09,1.119,0.119,1.489c-1.489,0.12-2.97,0.25-4.449,0.398
		c-1.66,0.682-3.34,1.319-4.99,2.012c-0.4-0.07-1.18-0.2-1.57-0.262l0.26,0.99c-0.699,0.079-2.109,0.26-2.81,0.352
		c-1.18,0.408-2.36,0.8-3.55,1.18l0.25,0.561c-0.8,0.052-2.41,0.142-3.22,0.189l0.079,1.2c-0.489-0.182-1.479-0.521-1.97-0.69
		l0.021,0.98c-1.4,0.31-2.82,0.58-4.021,1.408c-0.03-0.488-0.09-1.47-0.12-1.959c-0.38,0.391-1.12,1.159-1.5,1.551
		c-0.04-0.592-0.13-1.771-0.18-2.352c0.49-0.068,1.45-0.221,1.94-0.29c-0.07-0.471-0.2-1.42-0.271-1.891l0.82,0.09
		c0.31-1.34,0.81-2.619,1.75-3.629c0.64-0.98,1.229-1.98,1.779-3l-0.279-1.271c0.359-0.03,1.069-0.09,1.43-0.11l-0.58-1.279
		l1.391,0.069c-0.101-0.46-0.28-1.38-0.381-1.84l1.4-0.09c-0.08-0.479-0.24-1.45-0.32-1.93l1.34-0.04
		c-0.079-0.471-0.22-1.41-0.3-1.88l1.33-0.221c-0.1-0.47-0.31-1.42-0.42-1.899l1.21,0.24c0.05-0.771,0.16-2.301,0.22-3.07
		l1.24,0.101l-0.57-1.311l1.4,0.1c-0.12-0.49-0.36-1.46-0.479-1.939l1.479-0.101l-0.33-1.95l1.24,0.061
		c-0.08-0.33-0.23-1.01-0.311-1.34l1.25,0.18c-0.1-0.47-0.3-1.41-0.39-1.88l1.39-0.14c-0.079-0.48-0.25-1.421-0.34-1.891l1.38-0.1
		c-0.079-0.46-0.26-1.4-0.34-1.87l1.311-0.03c-0.07-0.47-0.221-1.399-0.29-1.87l1.5-0.26l-0.53-1.68c0.35-0.04,1.07-0.11,1.43-0.15
		l-0.479-1.2l1.33,0.04c-0.07-0.47-0.22-1.43-0.29-1.91l0.81-0.18c0.351-0.6,1.05-1.8,1.4-2.399l-0.17-1.24
		c0.38-0.09,1.149-0.26,1.53-0.351l-0.561-1.55c0.23-0.09,0.7-0.27,0.93-0.359c0.311-0.61,0.94-1.83,1.25-2.44l-0.26-0.64l1.41,0.08
		c-0.1-0.471-0.29-1.431-0.39-1.9l1.159,0.15c0.07-0.79,0.211-2.37,0.28-3.16c0.4,0.01,1.19,0.029,1.59,0.04
		c0.08-0.801,0.229-2.4,0.301-3.2l1.279,0.41l-0.77-1.44l1.29,0.311c0.05-0.801,0.16-2.391,0.22-3.19l1.271,0.25l-0.551-1.36
		l1.471,0.21c-0.131-0.479-0.4-1.439-0.53-1.93l1.55-0.22l-0.52-1.79c0.359-0.01,1.08-0.03,1.439-0.04l-0.41-1.16l1.271,0.01
		c-0.08-0.449-0.24-1.359-0.32-1.819l1.28-0.2c-0.05-0.46-0.15-1.391-0.2-1.859l1.36-0.109c-0.11-0.471-0.33-1.41-0.44-1.881
		l1.41,0.15l-0.45-1.39l1.42,0.13c-0.1-0.479-0.29-1.42-0.39-1.9l1.39-0.08c-0.1-0.5-0.279-1.479-0.37-1.97l1.38-0.05
		c-0.09-0.479-0.27-1.431-0.35-1.899l1.38-0.04c-0.1-0.49-0.29-1.47-0.39-1.96l1.49-0.061c-0.08-0.46-0.25-1.38-0.33-1.84l1.37-0.15
		c-0.101-0.47-0.301-1.4-0.391-1.87l1.33,0.04l-0.57-1.27l1.24,0.239c0.08-0.77,0.24-2.31,0.311-3.069
		c0.47-0.011,1.39-0.03,1.85-0.03c-0.07-0.521-0.21-1.54-0.27-2.06l1.25,0.149c-0.021-1.08-0.04-3.22-0.061-4.29l-1.34,0.44
		l0.68-1.38l-1.43,0.21c0.04-0.551,0.12-1.63,0.16-2.181c-0.46,0.021-1.391,0.07-1.851,0.09c-0.1-0.659-0.3-1.979-0.399-2.63
		c-0.931-0.609-1.86-1.199-2.8-1.779c0.01-0.431,0.029-1.29,0.029-1.71c-0.489-0.011-1.47-0.04-1.97-0.051
		c0.1-0.479,0.3-1.43,0.39-1.899l-1.31,0.12c-0.09-0.761-0.271-2.28-0.36-3.04c-0.449,0.021-1.33,0.04-1.779,0.06
		c-0.021-0.41-0.07-1.21-0.091-1.62c-1.279-0.6-1.949-1.771-2.43-3.029c-0.68-0.61-1.36-1.221-2.03-1.82
		c-0.5-1.13-1.14-2.17-1.909-3.12c-0.921-0.94-1.9-1.85-2.561-2.99l-0.07-0.13c-0.329-0.57-0.979-1.7-1.31-2.27
		c-0.38-0.051-1.16-0.15-1.55-0.2c0-0.47-0.01-1.4-0.01-1.86l-1.221-0.021c0.021-0.471,0.07-1.41,0.09-1.88
		c-0.479-0.061-1.449-0.19-1.939-0.25c0.06-0.46,0.16-1.37,0.22-1.83l-0.88,0.09c-0.49-1.26-1.04-2.5-1.96-3.49
		c-1.77-2.04-3.28-4.28-4.77-6.52l-0.211-0.11c-0.39-0.39-1.17-1.17-1.56-1.56l0.35-1.301c-0.369-0.029-1.1-0.069-1.47-0.09
		l0.43-1.21l-1.47,0.16l0.521-1.79c-0.37-0.02-1.12-0.07-1.49-0.09l0.39-1.25l-1.35,0.16c0.03-0.37,0.09-1.101,0.12-1.46
		c-1.45-0.67-1.98-2.101-2.391-3.521c-0.38-0.04-1.13-0.109-1.5-0.14c0.051-0.49,0.16-1.46,0.21-1.95l-0.81,0.06
		c-0.51-1.1-1.25-2-2.22-2.72c-0.011-0.32-0.04-0.96-0.061-1.28l-1.22-0.04c0.01-0.38,0.021-1.14,0.03-1.52
		c-1.66-0.46-2.011-2.03-2.36-3.49c-0.41,0.01-1.21,0.021-1.61,0.021c0.061-0.511,0.181-1.55,0.24-2.07l-1.27,0.28l0.33-1.3
		l-1.261,0.029c0.021-0.5,0.051-1.5,0.07-2l-1.31,0.15c0.069-0.48,0.199-1.43,0.26-1.9c-0.5-0.09-1.51-0.27-2.021-0.35
		c0.061-0.47,0.17-1.4,0.221-1.87l-1.34,0.17l0.479-1.34l-1.13,0.17c-0.14-0.59-0.42-1.76-0.57-2.35
		c-1.18-1.29-2.35-2.591-3.41-3.971c-0.01-0.71-0.04-2.12-0.06-2.83c4.479-0.21,8.96,0.021,13.439,0.2
		c5.461,1.11,11.021,2.07,16.62,2.09l-0.43,0.771c4.84-0.21,9.521,1.29,14.35,1.24l-0.399,0.779c2.29,0.03,4.58,0.141,6.87,0.311
		c1.64,0.729,3.319,0.79,5.04,0.16l-1.141,1.279c3.221,0.19,6.45,0.351,9.681,0.42l-0.36,0.9c0.86-0.04,2.58-0.12,3.44-0.15
		c-0.07,0.221-0.21,0.67-0.28,0.9c3.05,0.08,6.09,0.31,9.13,0.44l-0.29,0.71c1.57,0.109,3.14,0.25,4.71,0.43
		c1.53,0.42,3.1,0.61,4.68,0.77c-0.02,0.15-0.06,0.46-0.08,0.61c1.551,0.09,3.11,0.21,4.681,0.35c1.71-0.35,2.24,1.851,3.75,2.021
		c1.689-0.05,3.38-0.17,5.08-0.1c1.83,0.59,3.699,1,5.64,1.09l-0.34,0.699c2.38,0.08,4.76,0.261,7.14,0.391
		c-0.029,0.2-0.09,0.58-0.12,0.78c0.78-0.051,2.341-0.15,3.12-0.2c-0.12-0.431-0.37-1.28-0.489-1.71
		c0.39-0.061,1.18-0.16,1.569-0.21l-0.63-1.721l1.46,0.07l-0.149-1.24l1.3-0.04c-0.12-0.47-0.37-1.399-0.49-1.87l1.45,0.211
		l-0.37-1.4l1.229,0.21c0-0.55,0-1.67,0-2.23l1.74,0.23c-0.33-0.56-1.01-1.68-1.34-2.25l2.061,1.479l-0.819-2.18l1.569,0.11
		l-0.6-1.29l0.98,0.109c0.35-1.47,0.88-2.92,2.43-3.479c-0.061-0.37-0.17-1.1-0.23-1.47l0.78-0.09c0.65-0.881,1.32-1.74,2.021-2.591
		c0.659-1.39,1.29-2.8,1.84-4.239c0.26-0.051,0.8-0.15,1.06-0.2c0.851-1.69,1.8-3.32,2.73-4.97l1.069-0.08l-0.569-1.74
		c0.39-0.01,1.149-0.03,1.529-0.04l-0.46-1.26l1.391,0.159c-0.07-0.47-0.221-1.43-0.3-1.909l1.42-0.101
		c-0.061-0.5-0.181-1.479-0.24-1.97c0.38-0.01,1.13-0.021,1.51-0.021c0.33-1.46,0.641-3.029,2.3-3.489c0-0.38,0.01-1.13,0.01-1.5
		l1.391-0.07c-0.108-0.46-0.33-1.38-0.438-1.83l0.909-0.04c1.261-1.99,2.381-4.189,4.279-5.66c-0.061-0.37-0.17-1.1-0.229-1.46
		l1.311,0.181l-0.25-1.37l1.399,0.22c-0.109-0.48-0.34-1.44-0.46-1.93l1.38,0.05c-0.029-0.38-0.08-1.14-0.109-1.53
		c1.55-0.58,1.96-2.09,2.392-3.521l1.101,0.09c-0.101-0.47-0.311-1.42-0.41-1.9c0.489-0.06,1.479-0.18,1.97-0.24
		c-0.028-0.489-0.1-1.479-0.13-1.97l0.722,0.141c0.351-0.391,1.028-1.181,1.38-1.57l-0.25-0.73l1.431,0.051l-0.471-1.811
		c0.71-0.18,2.141-0.53,2.851-0.71l-2.109-0.479c1.091-0.82,2.12-1.73,2.931-2.83l0.721-0.181c-0.109-0.46-0.33-1.38-0.438-1.84
		l1.42,0.05L321.329,185.31z"/>
	<path fill="#FFFFFF" d="M691.979,348.39c1.19-1.52,2.382-3.03,3.602-4.54c0.921,4.05-1.811,7.29-3.449,10.68l-0.851,0.07
		c0.181,0.48,0.528,1.42,0.698,1.89l-1.43-0.021l0.12,0.771c-0.649,1.261-1.301,2.53-1.95,3.801c-0.49,1.14-0.971,2.3-1.431,3.449
		l-0.771-0.05c-0.021,0.75-0.062,2.261-0.08,3.011l-1.189-0.061l0.461,1.3l-1.221-0.14c0,0.31-0.021,0.939-0.029,1.25
		c-0.9,1.77-1.79,3.54-2.7,5.3c-0.681,1.351-1.341,2.71-2.011,4.07c-0.869,1.78-1.76,3.55-2.609,5.34l-0.91,0.1
		c0.142,0.44,0.41,1.311,0.541,1.75c-0.381,0.08-1.141,0.25-1.521,0.33l0.641,1.63c-0.271,0.07-0.8,0.21-1.068,0.28
		c-0.819,1.98-1.7,3.94-2.53,5.91l-0.989,0.08c0.09,0.46,0.28,1.37,0.37,1.83l-1.359,0.109c0.101,0.471,0.301,1.421,0.399,1.891
		l-1.42,0.09c0.09,0.46,0.279,1.38,0.369,1.84l-1.34,0.2c0.101,0.47,0.318,1.41,0.431,1.88l-1.551,0.19
		c0.141,0.409,0.42,1.25,0.57,1.67c-0.37,0.1-1.102,0.3-1.461,0.399l0.5,1.681l-1.561,0.229c0.061,0.311,0.199,0.93,0.271,1.24
		c-0.852,1.51-1.672,3.03-2.472,4.57l-0.79,0.14c0.102,0.45,0.301,1.35,0.41,1.8c-0.37,0.08-1.091,0.23-1.46,0.311l0.67,1.64
		l-1.511,0.32c0.08,0.46,0.24,1.39,0.311,1.85l-1.358,0.07c0.108,0.47,0.311,1.399,0.42,1.87l-1.42,0.18
		c0.101,0.46,0.278,1.399,0.38,1.859l-1.399,0.101c0.102,0.439,0.312,1.319,0.409,1.771c-0.34,0.08-1.039,0.25-1.38,0.33l0.229,1.21
		c-0.329,0.619-0.988,1.869-1.318,2.5c-0.25,0.101-0.729,0.29-0.97,0.38l0.55,1.63l-1.49,0.17c0.091,0.461,0.271,1.381,0.36,1.851
		l-1.41,0.12c0.08,0.359,0.24,1.102,0.318,1.472c-0.369,0.59-1.101,1.771-1.47,2.358l-0.29,0.16c-0.898,1.97-1.851,3.909-2.729,5.88
		l-0.312-0.011c-1.29,2.62-2.641,5.24-3.76,7.95l-0.271,0.01c-0.65,1.23-1.291,2.46-1.94,3.69c-1.55,3.078-3.199,6.1-5.05,9.02
		c-0.51,1.15-1.01,2.311-1.489,3.48l-1,0.068c0.1,0.449,0.289,1.359,0.39,1.819l-1.278,0.229c0.079,0.46,0.229,1.36,0.311,1.82
		l-1.49,0.13l0.57,1.699c-0.36,0.091-1.08,0.271-1.44,0.36c0.052,0.3,0.142,0.89,0.19,1.188c-1.271,2.18-2.46,4.42-3.5,6.72
		l-0.149-0.079c-0.631,1.329-1.279,2.659-1.921,4c-1.101,2.041-2.188,4.079-3.271,6.141c-0.979,1.891-2,3.761-3.061,5.609
		c0.021,0.319,0.051,0.961,0.069,1.291l-1.301,0.108c0.069,0.479,0.211,1.43,0.28,1.899l-1.42,0.061c0.13,0.47,0.39,1.41,0.521,1.88
		l-0.87,0.062c-2.311,4.521-4.648,9.021-7.05,13.488c-0.67,1.32-1.33,2.65-1.99,3.98c-0.88,1.659-1.8,3.289-2.71,4.939
		c-1.08,1.988-2.148,3.988-3.2,6.01c-1.771,3.08-3.521,6.16-5.278,9.25c-0.029,0.2-0.08,0.608-0.102,0.82
		c-1.648,2.75-3.26,5.52-5.05,8.18c0.04,0.32,0.109,0.938,0.14,1.25l-1.38,0.148c0.102,0.46,0.32,1.381,0.42,1.83l-1.528,0.222
		l0.528,1.68c-0.37,0.08-1.108,0.229-1.479,0.311l0.5,1.71c-0.34,0.021-1.021,0.04-1.359,0.052l0.24,1.198l-1.131,0.08
		c0,0.312,0.011,0.91,0.011,1.21c-0.53,1.172-1.03,2.36-1.511,3.562c-0.239,0.011-0.72,0.03-0.97,0.03
		c-0.672,1.238-1.33,2.488-2,3.738c-3.28,5.932-6.932,11.649-10.342,17.5c-0.58,1.062-1.14,2.149-1.699,3.229
		c-0.761,1.021-1.511,2.07-2.25,3.12c-0.561,1.141-1.108,2.28-1.641,3.438c-0.75,0.87-1.5,1.74-2.25,2.609
		c-0.16,0.801-0.311,1.61-0.449,2.431l-0.711-0.09c-0.778,1.529-1.58,3.05-2.369,4.579c-0.811,1.311-1.58,2.65-2.381,3.971
		c-1.028,1.682-2.09,3.359-3.17,5.012c-0.58,1.648-1.699,3.22-1.59,5.039c0.87,2.609,2.399,4.931,3.62,7.391
		c0.22,0.07,0.659,0.2,0.88,0.261c-0.091,0.449-0.28,1.359-0.37,1.812l1.45,0.118l-0.38,1.172c0.819,1.438,1.619,2.88,2.42,4.34
		c0.34,1.13,0.67,2.26,0.989,3.41l0.931,0.1c-0.141,0.46-0.431,1.38-0.569,1.841l1.09-0.07c0.471,1.722,1,3.439,1.471,5.182
		l0.439-0.062c1.181,3.682,2.561,7.312,3.619,11.04l0.689-0.04c0,0.79-0.021,2.359-0.021,3.149l0.78-0.13
		c0.29,1.521,0.609,3.068,1,4.59c0.17,2.46,0.279,4.939,0.38,7.42c0.2-0.04,0.602-0.109,0.801-0.149
		c0.051,3.2-0.011,6.461,0.801,9.602c0.279,3.26,0.279,6.529,0.279,9.811l0.789-0.58c0.29,9.261,0.229,18.521,0.29,27.79
		c0.04,2.66-0.271,5.319-0.938,7.91c-0.131,3.351-0.142,6.729-0.801,10.029c-0.699,3.33-1.479,6.641-2.271,9.95
		c-0.02,0.63-0.069,1.88-0.09,2.51l-0.689-0.069c-0.279,2.149-0.67,4.29-1.12,6.42c-0.561,2.229-1.118,4.439-1.528,6.71l-0.439-0.17
		c-0.521,2.681-1.141,5.341-1.511,8.051h-0.399c-0.511,2.609-1.199,5.188-2.029,7.729c-0.289,0.729-0.881,2.189-1.181,2.92
		c-0.021,0.602-0.061,1.801-0.08,2.41c-0.159,0-0.489,0.021-0.659,0.029c-0.42,1.569-0.859,3.131-1.319,4.699
		c0.061,0.28,0.188,0.852,0.25,1.142c-0.22,0.028-0.659,0.09-0.892,0.12c-0.358,1.608-0.729,3.25-1.148,4.858
		c-0.141,0.109-0.409,0.319-0.55,0.42c-0.49,2.359-0.802,4.75-0.91,7.182c0.67-0.96,2-2.899,2.67-3.86
		c1.319-1.09,2.649-2.159,3.99-3.22c4.681-4.521,10.479-7.58,15.938-11.03c2.062-1.05,4.08-2.17,6.109-3.271l0.771,0.199
		l-0.181-1.181c0.75-0.021,2.26-0.05,3.01-0.069l-0.05-1.17c0.471,0.091,1.409,0.279,1.88,0.37l0.25-1.341l1.21,0.301
		c1.432-0.771,2.899-1.489,4.359-2.221l0.511,0.13c1.439-0.479,2.88-0.938,4.351-1.34c1.311-0.479,2.641-0.92,3.961-1.38
		c4.67-0.881,9.278-2.182,14.039-2.511c2.649-0.609,5.341-1.051,8.011-1.631c4.188,0.859,8.471,0.892,12.729,1.182
		c-2.8,0.271-5.608,0.42-8.409,0.688c3.869-0.08,7.739-0.25,11.609,0.069c1.55,0.42,3.12,0.819,4.699,1.189l-0.3,0.46
		c1.521,0.08,3.05,0.181,4.59,0.301c1.319,0.561,2.649,1.079,4.011,1.63c1.021,0.431,2.05,0.891,3.08,1.37
		c0.319-0.062,0.96-0.189,1.279-0.25c0.08,0.329,0.238,1,0.318,1.329l1.722-0.409c0.051,0.37,0.17,1.12,0.221,1.5l1.71-0.562
		l0.25,1.512c0.449-0.102,1.37-0.301,1.83-0.4l0.159,1.461c0.471-0.12,1.409-0.352,1.881-0.471l-0.12,0.92
		c3.229,1.87,6.38,3.891,9.529,5.91c10.438,5.789,17.021,16.18,24.729,24.938c-0.021,0.221-0.05,0.649-0.068,0.87
		c1.158,1.33,2.289,2.688,3.431,4.061c1.608,3.021,3.278,6.011,4.858,9.061c0.711,1.811,1.399,3.641,2.062,5.5l0.279-0.109
		c0.46,2.062,1.069,4.08,1.631,6.131l0.64-0.08c0.102,1.811,0.221,3.63,0.352,5.46l1.351-0.819c-0.3,1.102-0.591,2.21-0.87,3.33
		l0.971,0.021c0.221,2.18,0.489,4.358,0.939,6.521c0.42,1.609,0.85,3.21,1.311,4.83c0.069,1.54,0.13,3.069,0.221,4.63l0.851-0.141
		c-0.062,2.819-0.08,5.649-0.03,8.489l-0.738-0.21c-0.16,3.859-0.029,7.79-0.979,11.561c-0.08,0.631-0.229,1.891-0.3,2.521
		l-0.689-0.069c-0.189,2.511-0.42,5.04-1.091,7.489c-0.05,0.239-0.149,0.721-0.2,0.96c-0.659,2.011-1.3,4.029-2,6.04
		c-0.01,0.181-0.02,0.551-0.02,0.729c-0.58,1.47-1.131,2.949-1.689,4.438c-0.7,1.641-1.341,3.312-2.061,4.95
		c-0.609,0.979-1.221,1.971-1.841,2.96c-0.239,0.779-0.472,1.58-0.681,2.391c-1.062,1.489-2.08,3.029-3.12,4.551
		c-0.721,0.938-1.409,1.909-2.091,2.891c-1.97,2.46-3.988,4.88-5.938,7.359l-0.7,0.109l0.102,1.239
		c-0.291,0-0.852-0.021-1.131-0.029c-2.681,3-5.641,5.72-8.479,8.569c-0.131,0.159-0.391,0.479-0.521,0.648
		c-2.148,1.53-4.369,2.99-6.75,4.12c-0.029,0.25-0.09,0.739-0.13,0.979c-3.96,1.579-7.729,3.608-11.771,5
		c-0.012,0.188-0.051,0.579-0.07,0.771l-1.18-0.46l-0.012,1.159c-0.738,0-2.229,0-2.979,0.011l-0.061,1.189
		c-0.319-0.069-0.971-0.2-1.29-0.261c-1.37,0.641-2.721,1.29-4.069,1.949c-1.521,0.45-3.021,0.96-4.529,1.41l0.04,0.431
		c-2.562,0.771-5.069,1.649-7.562,2.59c-5.561,2.87-11.989,1.609-17.989,1.899c-7.069-0.33-14.351,0.819-21.229-1.261
		c-1.909-0.59-3.83-1.109-5.709-1.699c-1.892-0.511-3.771-1.061-5.649-1.529l0.29-0.631c-0.939-0.068-1.87-0.119-2.79-0.159
		c-4.681-1.971-9.341-3.979-13.91-6.199c-1.3-0.771-2.601-1.5-3.899-2.229c-1.398-0.96-2.8-1.899-4.188-2.83
		c-2.63-1.67-5.239-3.369-7.801-5.119c-1.061-0.979-2.109-1.931-3.17-2.859c-2.601-1.899-4.989-4.091-6.939-6.659
		c-0.34-0.051-1.011-0.149-1.351-0.2c-0.011-0.341-0.04-1-0.051-1.33c-2.72-3.34-5.239-6.84-8.159-10
		c0.029-0.181,0.091-0.561,0.12-0.739c-0.87-1.92-1.729-3.811-2.54-5.729l-0.439-0.021c-0.04-0.609-0.109-1.83-0.149-2.439
		c-1.119-2.199-1.971-4.529-2.25-6.979c-0.489-1.341-0.979-2.689-1.46-4.011c-1.511-6.88-3.96-13.601-4.431-20.67l-0.681,0.109
		c-0.109-3.12-0.199-6.229-0.409-9.341c-0.939-4.279-0.812-8.689-0.54-13.029c0.659-2.159,0.92-4.409,1.181-6.63l0.529,0.21
		c0.819-3.029,1.33-6.149,1.561-9.261c-0.761,1-2.279,2.979-3.04,3.979c-0.079,0.148-0.25,0.46-0.34,0.608
		c-5.29,5.99-11.141,11.439-16.729,17.142c-0.17,0.148-0.5,0.449-0.67,0.59c-1.29,0.71-2.46,1.591-3.551,2.569
		c0.011,0.29,0.03,0.851,0.051,1.141l-1.33-0.189l0.181,1.271c-0.369-0.029-1.108-0.069-1.479-0.09
		c-0.931,1.068-1.88,2.119-2.819,3.188c-0.41-0.068-1.21-0.199-1.62-0.271c-0.04,0.51-0.12,1.54-0.159,2.061
		c-0.49-0.051-1.471-0.149-1.961-0.188l0.16,0.891c-2.87,1.898-5.681,3.88-8.521,5.818c-1.392,0.979-2.79,1.961-4.171,2.971
		c-1.438,0.939-2.869,1.91-4.3,2.859l-0.011,0.33c-4.471,2.649-9.011,5.17-13.529,7.729c-1.381,0.72-2.75,1.438-4.131,2.148
		c-1.358,0.859-2.71,1.74-4.029,2.67c-0.34-0.119-1.011-0.358-1.34-0.489l-0.109,0.96l-1.649,0.689l0.729,1.591l-0.979-0.069
		c-0.051,16.938-0.391,33.898-0.09,50.851c-0.211-1.08-0.641-3.221-0.859-4.29c-0.17,28.359-0.159,56.721-0.141,85.08H345.5
		c-0.03-33.971,0.659-67.961-0.33-101.921c-1.25-10.51,0.05-21.119-0.811-31.648c-0.472,0.069-1.41,0.221-1.881,0.29l0.079-1.261
		c-0.39-0.021-1.158-0.061-1.55-0.08c-1.279-0.83-2.568-1.63-3.858-2.409c-6.399-3.771-12.682-7.71-19.04-11.53l-0.771,0.221
		l0.05-0.67c-1.18-0.641-2.34-1.271-3.5-1.898c-4.59-2.74-9.33-5.24-13.83-8.131c-0.908-0.689-1.818-1.381-2.72-2.051
		c-0.95-0.58-1.89-1.141-2.83-1.688l-0.06-0.392c-2.591-1.67-5.171-3.38-7.79-5c-0.08-0.17-0.24-0.5-0.32-0.67
		c-0.811-0.75-1.601-1.5-2.39-2.25c-1.16-0.58-2.33-1.188-3.49-1.75c-0.01-0.3-0.05-0.891-0.07-1.181
		c-1.46-0.989-2.91-1.989-4.37-2.97c-3.01-3.149-6.229-6.091-9.109-9.352c-0.19-0.109-0.57-0.311-0.761-0.42
		c-2.47-3.591-5.489-6.75-8.229-10.13c-2.62-2.95-5.03-6.091-7.13-9.42c-0.33-0.091-0.99-0.28-1.32-0.381
		c0.07-0.449,0.19-1.341,0.26-1.79l-0.859,0.061c-2.011-3.279-4.061-6.529-5.811-9.96l-0.84-0.148c0.1-0.46,0.3-1.381,0.4-1.841
		l-0.881,0.069c-0.489-1.141-1-2.29-1.489-3.41l-1.15,0.2c0.17-0.471,0.5-1.42,0.66-1.891l-1.46-0.21
		c0.13-0.479,0.38-1.431,0.51-1.899l-0.91,0.021c-0.689-1.881-1.42-3.711-2.189-5.54c-1.21-3.642-2.57-7.229-3.67-10.899
		c-0.4-0.761-1.2-2.28-1.61-3.04c0.03-0.2,0.09-0.601,0.12-0.79c-0.71-1.479-1.41-2.96-2.12-4.42c0.09-0.301,0.27-0.91,0.36-1.21
		l-0.96-0.101c-0.33-1.189-0.681-2.37-1.04-3.53c-0.301-0.75-0.9-2.25-1.19-3c-0.03-0.859-0.06-1.71-0.09-2.54l-0.86,0.08
		c-0.12-1.189-0.239-2.369-0.35-3.539c-0.39-1.171-0.75-2.352-1.101-3.521l-0.619,0.069c-0.061-1.221-0.11-2.42-0.17-3.62
		c-0.551-1.359-1.07-2.699-1.601-4.05c-0.49-2.7-1.18-5.351-1.99-7.961c-0.27-3.38-0.979-6.688-1.58-10.01
		c-0.649-3.5-0.771-7.062-0.8-10.609l-0.72,0.199c-0.521-14.521-2.31-29.141-0.65-43.641c0.221-2.521,0.351-5.029,0.45-7.54
		l0.78,0.189c-0.101-4.439,0.47-8.84,1.38-13.17l0.53,0.08c-0.181-4.932,2.21-9.36,2.779-14.16c-0.47,0.069-1.409,0.229-1.88,0.311
		c-1.38,1.62-2.859,3.181-4.399,4.671c-0.101,0.181-0.32,0.521-0.431,0.699c-1.569,1.341-3.119,2.71-4.729,4.021l0.06,0.21
		c-0.359,0.37-1.069,1.109-1.43,1.47l-0.81-0.21l0.119,1.33c-0.479-0.101-1.46-0.29-1.949-0.391c-0.04,0.551-0.12,1.66-0.16,2.21
		c-0.49-0.08-1.48-0.261-1.98-0.351l0.32,1.021c-2.021,1.35-4.021,2.72-6.08,3.989c0.01,0.34,0.03,1,0.04,1.34l-1.34-0.199
		l0.16,1.239c-0.301,0.021-0.9,0.051-1.21,0.07c-2,1.64-4.13,3.118-6.37,4.43c-1.46,1-2.9,2.021-4.3,3.101
		c-0.561,0.102-1.671,0.302-2.221,0.399l0.17,0.649c-3.029,1.841-6.069,3.681-9.14,5.471l-0.04,0.931
		c-0.46-0.101-1.37-0.311-1.83-0.41c-0.06,0.38-0.18,1.142-0.25,1.521l-1-0.33c-1.25,0.521-2.5,1.021-3.76,1.521l-0.101,0.79
		c-0.449-0.08-1.34-0.238-1.779-0.318l-0.23,1.358c-0.46-0.13-1.359-0.391-1.819-0.521c-0.04,0.229-0.11,0.681-0.15,0.91
		c-1.64,0.5-3.271,1.068-4.89,1.63c-2.83,1.159-5.761,2.08-8.69,2.938c-5.27,1.479-10.729,2.05-16.01,3.45
		c-3.8,0.3-7.59,0.79-11.24,1.93c-11.79,0.852-23.64,0.61-35.45,0.24c-2.13-0.54-4.29-0.971-6.41-1.551
		c-2.479-0.21-4.96-0.351-7.439-0.439l0.17-0.88c-0.64-0.01-1.9-0.04-2.54-0.05c-1.68-0.42-3.38-0.811-5.08-1.141
		c-1.64-0.512-3.3-0.972-4.94-1.46c-1.369-0.28-2.739-0.521-4.1-0.79c-1.01-0.521-2.03-1.04-3.04-1.551
		c-0.2,0.029-0.6,0.101-0.8,0.141c-1.74-0.71-3.47-1.399-5.19-2.109c-0.31,0.05-0.93,0.142-1.239,0.189L45.5,681
		c-1.23-0.511-2.46-1.04-3.67-1.58c-0.28,0.061-0.851,0.18-1.141,0.239c-0.109-0.359-0.319-1.08-0.43-1.439l-0.97,0.271
		c-1.88-0.84-3.771-1.63-5.67-2.392c-0.051-0.061-0.15-0.17-0.21-0.229c-1.891-0.76-3.771-1.562-5.62-2.399
		c-0.2,0.04-0.61,0.12-0.811,0.16c-0.989-0.721-2.96-2.149-3.95-2.858c3.15-2.521,7.141-3.49,10.921-4.632
		c2.369-0.851,4.729-1.72,7.069-2.658c0.36,0.1,1.101,0.29,1.471,0.38l-0.07-1.142c1.37-0.188,2.74-0.391,4.109-0.601
		c1.78-0.79,3.62-1.42,5.49-1.939c1.221-0.46,2.44-0.92,3.65-1.37c1.43-0.51,2.84-1.05,4.26-1.56c1.71-0.721,3.41-1.421,5.13-2.101
		c1.29-0.5,2.57-0.99,3.86-1.472c3.38-1.438,6.689-3.028,10.09-4.391c1.67-0.771,3.34-1.521,5.01-2.271
		c0.76-0.398,2.271-1.198,3.021-1.59c0.34,0.05,1.02,0.17,1.35,0.229l0.04-1.38c0.51,0.119,1.54,0.351,2.05,0.471l0.141-1.37
		c0.34,0.05,1.02,0.149,1.359,0.21c2.011-1.12,4.04-2.21,6.061-3.301c2.09-1.119,4.18-2.239,6.31-3.279
		c0.05-0.34,0.17-1.01,0.23-1.351c0.6-0.05,1.81-0.149,2.42-0.199c3.05-2.29,6.27-4.33,9.54-6.29l-0.03-0.891
		c0.47,0.068,1.41,0.221,1.88,0.3c0.05-0.351,0.16-1.04,0.22-1.392c5.801-3.35,10.49-8.22,15.971-12.02l-0.12-0.28
		c2.72-2.108,5.26-4.42,7.77-6.76c0.931-0.78,1.86-1.562,2.79-2.351l0.59-0.319c0-0.48,0-1.421-0.01-1.892
		c0.38,0.021,1.13,0.062,1.51,0.079c0.681-0.858,1.37-1.72,2.061-2.568c3-3.189,5.979-6.392,9.17-9.392
		c0.02-0.198,0.06-0.59,0.08-0.79c2.32-2.438,4.59-4.908,6.87-7.368c1.71-2.312,3.449-4.592,5-7l1.06,0.148
		c0.05-0.47,0.17-1.42,0.22-1.891c1.631-2.46,3.131-4.989,4.78-7.431c0.03-0.479,0.11-1.46,0.14-1.949l0.601,0.101
		c1.04-2.148,2.149-4.271,3.29-6.351c0.08-0.37,0.24-1.102,0.32-1.472c0.899-1.56,1.76-3.13,2.63-4.688
		c0.439-1.03,0.88-2.04,1.319-3.062c0.761-1.77,1.53-3.539,2.261-5.31c0.199-0.091,0.609-0.261,0.81-0.341
		c-0.05-0.301-0.15-0.892-0.2-1.181c1.91-3.659,3.44-7.489,4.9-11.341c0.04-0.148,0.12-0.449,0.149-0.6
		c0.471-1.562,0.9-3.12,1.311-4.69l0.43,0.142c0.48-1.83,1-3.642,1.46-5.46l0.351,0.358c0.6-2.529,1.35-5.02,2.159-7.479
		c0.341-0.971,0.7-1.939,1.07-2.899c0.69-2.479,1.22-5.01,1.49-7.569l0.39,0.08c0.311-1.479,0.65-2.949,1.04-4.398
		c0.16-1.602,0.3-3.211,0.44-4.801l0.59,0.199c0.53-3.729,1.32-7.409,1.47-11.181l0.57,0.261c0.25-2.211,0.58-4.41,0.99-6.591
		c0.08-1.62,0.17-3.239,0.239-4.851l0.74,0.33c0.17-2.881,0.41-5.761,0.91-8.609c0.26-1.79,0.5-3.57,1-5.3
		c0.4-4.24,0.49-8.5,0.65-12.75l1.09,2.068c-0.4-4.54,0.87-9.028,0.7-13.579l0.689,0.119c0.07-2.779,0.21-5.54,0.45-8.301
		c0.41-1.75,0.71-3.51,1-5.27c0.35-1.28,0.69-2.55,1.021-3.83c0.96,0.189,1.931,0.39,2.9,0.6c0.9,1.812,1.81,3.62,2.72,5.44
		c0.021,0.159,0.051,0.479,0.061,0.64c2.729,4.04,5.279,8.2,7.47,12.562l0.19-0.102c1.51,2.812,3.17,5.53,4.699,8.33l0.96-0.108
		c-0.159,0.471-0.489,1.409-0.659,1.88l0.97-0.051c2.25,4.229,4.82,8.29,7.36,12.359c1.739,3,3.34,6.09,4.979,9.16
		c-0.03,0.46-0.1,1.391-0.14,1.851l0.77-0.25c0.351,0.891,1.04,2.681,1.391,3.569c-0.061,0.359-0.171,1.09-0.23,1.45l0.83,0.01
		c0.32,0.939,0.96,2.811,1.271,3.75c0.04,0.141,0.101,0.42,0.131,0.561c0.8,1.739,1.609,3.479,2.39,5.25
		c0.35,1.25,0.71,2.5,1.08,3.761c0.8,2.53,1.37,5.109,1.78,7.729c0.399,1.45,0.789,2.91,1.18,4.381c0.28,1.271,0.54,2.54,0.78,3.83
		l0.579-0.311c0.11,2.188,0.24,4.38,0.36,6.579c0.42,1.021,0.83,2.061,1.23,3.101c0.46,2.472,0.659,4.972,0.819,7.479
		c0.17-0.061,0.521-0.181,0.7-0.239c-0.05,7.38-0.08,14.76-0.05,22.141l-0.74-0.211c0.19,5.802-0.95,11.511-1.33,17.28l-0.67-0.181
		c-0.069,2.021-0.16,4.04-0.22,6.08l-0.66-0.051c-0.77,3.521-1.5,7.062-1.47,10.689c2.859-2.271,5.43-4.841,8.17-7.24
		c0.04-0.34,0.12-1.01,0.17-1.34c0.29-0.011,0.89-0.04,1.18-0.05c2.521-2.461,5.311-4.62,8.181-6.65c0.93-0.63,1.859-1.26,2.8-1.88
		c1.87-1.271,3.75-2.529,5.63-3.771l0.14-0.279c3.94-2.33,7.641-5.08,11.851-6.92l0.12-0.729c0.449,0.079,1.369,0.239,1.829,0.329
		l0.211-1.311c0.47,0.091,1.39,0.25,1.859,0.33l0.02-1.319c0.49,0.062,1.479,0.181,1.971,0.229l0.141-1.301
		c0.479,0.101,1.439,0.311,1.921,0.409l0.061-1.39c0.359,0.09,1.101,0.279,1.46,0.369c1.04-0.771,2.08-1.521,3.119-2.29l0.852,0.271
		c0.619-0.359,1.869-1.062,2.5-1.41l0.069-0.221c1.869-0.76,3.729-1.568,5.579-2.369c0.211-0.051,0.61-0.141,0.812-0.181
		c2.319-0.989,4.729-1.779,7.109-2.631c3.149-0.88,6.221-2,9.239-3.239c0.33,0.051,0.99,0.17,1.319,0.221l-0.069-1
		c1.819-0.141,3.66-0.279,5.49-0.449c3.148-1.021,6.398-1.721,9.688-2.051l-0.141-0.5c3.688-0.271,7.311-1.061,10.979-1.489
		c-0.011-0.181-0.021-0.562-0.021-0.74c2.66-0.068,5.319-0.159,7.99-0.229c-0.021-0.21-0.051-0.641-0.07-0.851
		c1.399,0.021,2.8,0.04,4.21,0.069l-0.09-0.819c7.67-0.399,15.358-0.409,23.05-0.25c7.439-0.069,14.681,2.199,22.12,2.181
		l-0.21,0.63c3.148,0.431,6.271,1.061,9.438,1.28l-0.67,0.579c3.17,0.12,6.3,0.631,9.341,1.54l-0.119,0.398
		c1.55,0.36,3.1,0.761,4.63,1.221c0.46,0.109,1.358,0.319,1.81,0.432c1.04,0.34,2.102,0.67,3.16,1c3.67,1.409,8.75,3.688,11.99,0.25
		c6.568-5.57,13.648-10.54,20.1-16.271c0.312-0.061,0.932-0.181,1.24-0.239l0.101-0.54c1.551-1.25,3.069-2.529,4.58-3.83
		c1.812-1.319,3.619-2.641,5.46-3.899l-0.011-0.319c7.062-4.96,13.36-10.898,20.341-15.979c0.699-0.602,1.42-1.189,2.141-1.779
		c0.479-0.341,1.438-1.04,1.921-1.391c1.71-1.421,3.398-2.87,5.1-4.301c0.16-0.021,0.471-0.069,0.631-0.091
		c1.699-1.529,3.489-2.949,5.319-4.318c1.78-1.41,3.561-2.83,5.3-4.312c0.29-0.029,0.891-0.101,1.189-0.131l-0.159-1.22l1.358,0.359
		l-0.311-0.921c2.021-1.311,4.011-2.67,6.04-3.979c0.05-0.17,0.148-0.489,0.2-0.66c1.108-0.76,2.21-1.521,3.31-2.29
		c1.142-0.93,2.32-1.83,3.5-2.729l0.062-0.779c0.489,0.069,1.479,0.21,1.971,0.279c0.029-0.561,0.101-1.67,0.13-2.229
		c0.352,0.051,1.04,0.16,1.391,0.21c1.771-1.579,3.58-3.119,5.472-4.569l0.159-0.119c1.699-1.341,3.341-2.761,4.979-4.17
		c2.471-1.899,4.91-3.841,7.399-5.711c1.311-1.039,2.641-2.061,3.961-3.108c2.868-2.45,5.92-4.689,8.89-7.029
		c1.391-1.03,2.79-2.051,4.2-3.07c1.08-1.04,2.17-2.068,3.24-3.13c0.318-0.021,0.948-0.08,1.27-0.101l-0.028-1.29
		c0.479,0.05,1.431,0.16,1.909,0.21c0.039-0.529,0.109-1.59,0.149-2.12c0.359,0.04,1.08,0.131,1.438,0.181
		c0.399-0.369,1.2-1.101,1.609-1.471l-0.12-0.891c0.479,0.08,1.44,0.24,1.92,0.319c0.04-0.521,0.131-1.539,0.171-2.05
		c0.46,0.029,1.391,0.09,1.852,0.119l0.08-1.25c0.289-0.01,0.85-0.05,1.13-0.061c2.38-2.32,5.021-4.34,7.579-6.45
		c0.391-0.09,1.171-0.26,1.569-0.35l-0.381-0.61c1.353-0.91,2.671-1.85,4.012-2.78c0.061-0.239,0.17-0.72,0.229-0.96
		c1.99-1.279,3.96-2.609,5.931-3.92l-0.188-0.38c1.859-1.36,3.67-2.77,5.5-4.16c3.75-2.92,7.359-6.02,11.22-8.79
		c1.312-1.109,2.62-2.22,3.91-3.37c0.358-0.02,1.069-0.06,1.43-0.09c0.04-0.319,0.12-0.97,0.16-1.29
		c3.09-1.859,5.979-4.06,8.57-6.58c0.3,0.04,0.897,0.12,1.198,0.16l0.012-1.04c1.607-0.989,3.22-2,4.857-2.938
		c0.03-0.21,0.08-0.63,0.11-0.83c1.14-0.79,2.3-1.57,3.43-2.37l0.761,0.07l-0.061-1.301c0.479,0.03,1.46,0.11,1.95,0.141
		c-0.03-0.42-0.08-1.26-0.102-1.681c1.102-0.489,2.222-0.979,3.341-1.47l-0.271-0.438c3.04-2.25,6-4.58,9.07-6.78l-0.011-0.24
		c2.58-1.87,5.091-3.82,7.561-5.82c3.78-3,7.57-6,11.4-8.939l0.08-0.84C690.88,348.29,691.619,348.36,691.979,348.39z"/>
</g>
<rect fill="none" width="768" height="1024.604"/>
</svg>
