<?xml version="1.0" encoding="utf-8"?>
<!-- Generator: Adobe Illustrator 15.0.2, SVG Export Plug-In . SVG Version: 6.00 Build 0)  -->
<!DOCTYPE svg PUBLIC "-//W3C//DTD SVG 1.1//EN" "http://www.w3.org/Graphics/SVG/1.1/DTD/svg11.dtd">
<svg version="1.1" id="Layer_1" xmlns="http://www.w3.org/2000/svg" xmlns:xlink="http://www.w3.org/1999/xlink" x="0px" y="0px"
	 width="610.417px" height="526.329px" viewBox="0 0 610.417 526.329" enable-background="new 0 0 610.417 526.329"
	 xml:space="preserve">
<g id="_x23_000000ff">
	<path fill="#FF22FF" d="M318.562-0.945L318.806-1c4.117,5.839,7.984,11.856,11.896,17.833
		c9.129,14.298,19.164,28.017,27.473,42.823c12.271,21.25,25.09,42.188,37.264,63.497c11.127,18.615,21.911,37.442,33.075,56.043
		c2.056,3.601,3.896,7.383,6.542,10.609c0.451,2.174,0.939,4.371,2.07,6.31c10.125,17.285,20.551,34.389,30.686,51.667
		c9.926,16.415,19.826,32.868,28.549,49.958c9.029,16.775,18.344,33.436,28.574,49.52c8.766,17.34,18.043,34.398,27.562,51.334
		c12.047,22.408,24.176,44.777,36.287,67.15c7.924,15.295,16.289,30.443,22.451,46.557c-0.486,1.334-0.971,2.67-1.439,4.016
		c-6.004,1.1-12.039,2.236-18.168,2.311c-5.301,0.057-10.512,1.33-15.822,1.262c-17.957,1.133-35.854,3.008-53.816,3.912
		c-18.994,1.271-38.008,2.73-57.045,3.332c-16.527,0.105-33.064-0.664-49.595-0.342c-21.095-0.266-42.19-0.049-63.306-0.201
		c-3.058-0.164-6.272,0.576-9.16-0.721c-5.139-0.629-10.303-0.275-15.456-0.375c-11.293,0.293-22.589-0.318-33.896-0.166
		c-10.475,0-20.969-0.027-31.442-0.287c-0.701-0.438-1.391-0.869-2.089-1.299c-13.66-0.457-27.345-0.648-41.008-1.072
		c-13.74,0.068-27.493-0.258-41.242-0.416c-25.606,0.354-51.174-1.393-76.763-2.02c-18.929-0.711-37.837-1.654-56.738-3.021
		c-14.485-1.275-29.02-2.406-43.353-5.018c-0.492-3.711,1.4-7.02,3.016-10.191c3.29-6.02,6.428-12.121,9.738-18.129
		c10.004-17.396,19.188-35.258,29.522-52.459c10.615-19.459,21.6-38.701,32.448-58.023c8.624-15.25,18.332-29.857,27.144-44.994
		c9.965-16.551,20.641-32.66,30.764-49.104c11.586-20.798,24.264-40.967,36.333-61.483c9.684-15.043,17.768-31.115,28.635-45.385
		c5.787-8.342,12.264-16.206,17.713-24.783c5.771-8.361,10.934-17.122,16.865-25.365c21.396-31.425,42.706-62.913,64.068-94.351
		c4.543-5.989,8.095-12.685,12.927-18.473C312.908,6.007,315.255,2.119,318.562-0.945z"/>
</g>
</svg>
