<?xml version="1.0" encoding="utf-8"?>
<!-- Generator: Adobe Illustrator 15.0.2, SVG Export Plug-In . SVG Version: 6.00 Build 0)  -->
<!DOCTYPE svg PUBLIC "-//W3C//DTD SVG 1.1//EN" "http://www.w3.org/Graphics/SVG/1.1/DTD/svg11.dtd">
<svg version="1.1" id="Layer_1" xmlns="http://www.w3.org/2000/svg" xmlns:xlink="http://www.w3.org/1999/xlink" x="0px" y="0px"
	 width="664.201px" height="406.781px" viewBox="0 0 664.201 406.781" enable-background="new 0 0 664.201 406.781"
	 xml:space="preserve">
<g id="_x23_000000ff">
	<path fill="#FFFF88" d="M2.873,1.202c7.484-0.348,14.99-0.549,22.475-0.237c8.327,1.001,16.729-0.52,25.062,0.432
		c6.963,0.451,13.948-0.282,20.92,0.159c9.005,0.81,18.034-0.497,27.04,0.06c8.449,0.742,16.939-0.412,25.383,0.428
		c9.726,0.378,19.481-0.976,29.185,0.013c12.296-0.118,24.586-1.499,36.88-0.453c6.391-0.217,12.773-0.023,19.16,0.371
		c14.795-0.886,29.576,0.195,44.371-0.441c10.741,0.941,21.505-0.325,32.252,0.436c6.228,0.296,12.442-0.42,18.675-0.234
		c3.009,0.146,5.983-0.307,8.913-0.967c0.394,0.301,1.173,0.894,1.564,1.197c7.178-0.176,14.364-0.47,21.532-0.003
		c8.69,0.5,17.391-0.509,26.085-0.21c8.947,0.835,17.928-0.438,26.896,0.124c8.57,0.803,17.188-0.384,25.759,0.52
		c8.28-0.158,16.569-0.356,24.851-0.254c8.216,0.822,16.479-0.621,24.689,0.389c7.056,0.485,14.13-0.676,21.186-0.05
		c8.369,1.008,16.787-0.266,25.175,0.333c7.979,0.787,16.006-0.345,23.995,0.26c8.664,0.816,17.33-0.494,26.013-0.111
		c9.687,0.75,19.398-0.208,29.075,0.823c8.781-0.579,17.515,0.906,26.289,0.487c3.979-0.047,7.907,0.732,11.895,0.644
		c4.417-0.049,8.864-0.252,13.266,0.402c6.591,0.831,13.287-0.532,19.817,0.975c1.303,11.116,1.81,22.307,2.191,33.479
		c-0.264,15.656,1.539,31.292,0.623,46.937c-0.19,7.365,0.841,14.729,0.157,22.08c-0.418,9.688,0.72,19.391-0.05,29.085
		c-0.121,9.363,0.488,18.745-0.113,28.107c0.219,9.35,0.256,18.713-0.258,28.058c0.64,9.379-0.715,18.727-0.194,28.104
		c-0.471,10.076-0.432,20.143-0.315,30.219c-0.582,8.697-0.042,17.403-0.144,26.111c-0.774,12.281,1.036,24.572,0.211,36.867
		c0.283,11.701,0.939,23.426,0.442,35.133c0.98,15.932-0.102,31.887,1.08,47.814c-10.978,1.271-22.051,1.227-33.053,2
		c-12.354,0.703-24.661,2.105-37.047,1.969c-13.015-0.781-26.018,1.014-39.021,1.033c-9.39-0.863-18.766,0.623-28.158,0.373
		c-4.256-0.051-8.519,0.887-12.759,0.223c-7.792-0.682-15.632,0.688-23.419-0.184c-7.214-0.857-14.465,0.471-21.688-0.113
		c-9.351-1.135-18.745,0.611-28.116,0.148c-10.325-0.992-20.685,1.127-31.006-0.105c-6.988-0.812-14.034,0.326-21.029-0.453
		c-7.956-0.471-15.947,0.621-23.897-0.258c-10.508-0.529-21.015,1.26-31.504,0.301c-9.369,0.199-18.733,0.928-28.1,0.77
		c-12.176-0.979-24.383,1.131-36.56,0.045c-9.854-0.105-19.709,0.742-29.562,0.656c-10.019-0.676-20.04,0.617-30.056,0.373
		c-10.996-0.982-22.034,0.654-33.018-0.207c-7.709,0.016-15.422,0.691-23.132,0.445c-11.945-1.09-23.891,0.996-35.843,0.48
		c-10.092-0.854-20.174,0.703-30.272,0.568c-12.682-1.057-25.393,0.918-38.082,0.053c-15.94,0.188-31.842,1.428-47.782,1.088
		c-0.239-0.246-0.703-0.721-0.943-0.963c-0.554-11.141,0.619-22.27-0.043-33.4c-0.327-7.717,0.946-15.391,0.328-23.109
		C0.794,345,1.464,340.007,1.624,335c-0.476-15.047-0.066-30.098,0.504-45.133c-0.183-6.715-0.203-13.443,0.408-20.137
		c0.185-6.895-0.47-13.807,0.338-20.688c0.166-7.442-0.553-14.896-0.077-22.347c0.572-7.103-0.401-14.208,0.182-21.302
		c0.774-7.629-0.101-15.285,0.481-22.92c0.815-9.748-0.648-19.526,0.438-29.274c-0.384-9.017-0.176-18.037,0.081-27.061
		c-0.686-11.982-1.064-24.008-0.586-36.017c-0.448-7.579-0.462-15.168-0.348-22.76C3.68,58.269,2.266,49.172,3.1,40.085
		c0.308-8.758-0.547-17.521-0.05-26.28C3.331,9.612,2.997,5.405,2.873,1.202z"/>
</g>
</svg>
