<?xml version="1.0" encoding="utf-8"?>
<!-- Generator: Adobe Illustrator 16.0.0, SVG Export Plug-In . SVG Version: 6.00 Build 0)  -->
<!DOCTYPE svg PUBLIC "-//W3C//DTD SVG 1.1//EN" "http://www.w3.org/Graphics/SVG/1.1/DTD/svg11.dtd">
<svg version="1.1" id="Layer_1" xmlns="http://www.w3.org/2000/svg" xmlns:xlink="http://www.w3.org/1999/xlink" x="0px" y="0px"
	 width="886px" height="886px" viewBox="0 0 886 886" enable-background="new 0 0 886 886" xml:space="preserve">
<g id="_x23_010101ff">
	<path fill="#FFFFFF" d="M387.646,308.313c13.817-2.313,27.701-4.687,41.732-5.107c5.794,0.496,11.614,0.682,17.41,1.163
		c29.91,1.966,59.798,7.871,87.386,19.84c12.773,6.03,24.521,13.972,36.353,21.632c2.047,1.306,3.951,2.801,5.772,4.404
		c5.164,4.483,10.373,8.916,15.242,13.725c3.445,3.446,8.264,5.209,11.381,9.029c7.168,8.417,14.019,17.115,20.115,26.335
		c4.086,5.695,6.893,12.151,9.908,18.44c2.643,6.71,5.971,13.16,8.11,20.073c2.9,7.511,5.541,15.159,6.979,23.104
		c2.959,15.865,5.67,31.797,7.121,47.873c0.448,3.801-0.05,7.639,0.438,11.444c-0.291,14.615-2.416,29.118-3.715,43.662
		c-0.812,9.547-3.301,18.817-5.289,28.161c-3.553,13.791-9.01,26.993-14.694,40.022c-4.496,10.577-9.681,20.897-16.187,30.396
		c-4.563,6.674-9.19,13.37-14.959,19.086c-3.344,4.367-7.93,7.48-11.99,11.121c-4.223,3.766-8.705,7.229-13.334,10.478
		c-19.348,14.764-39.709,28.292-61.328,39.515c-0.893,34.742-2.487,69.468-4.481,104.165c-0.631,13.043-1.734,26.072-2.197,39.124
		H380.719c-0.193-18.483-1.292-36.94-2.066-55.41c-0.468-6.433-0.021-12.884-0.308-19.325c-0.354-8.451-0.188-16.917-0.323-25.375
		c-0.755-13.268,0.887-26.558-0.114-39.817c-0.401-3.506-0.878-6.994-1.224-10.498c-1.485-0.275-2.96-0.652-4.282-1.371
		c-18.203-9.526-36.272-19.312-53.976-29.729c-2.565-1.677-4.701-3.896-6.971-5.913c-9.061-8.113-17.563-16.837-25.76-25.811
		c-9.481-10.938-18.252-22.474-26.841-34.123c-2.061-2.749-3.229-6.007-4.759-9.053c-3.562-7.915-7.639-15.687-9.88-24.113
		c-2.829-7.905-5.107-16.018-6.726-24.258c-2.663-10.511-4.004-21.276-5.666-31.969c-0.515-7.184-0.958-14.381-0.958-21.575
		c-0.862-23.104-0.842-46.37,2.858-69.257c2.524-15.285,5.448-30.675,11.708-44.937c4.309-12.695,10.564-24.57,16.896-36.344
		c2.242-3.678,4.751-7.196,7.355-10.627c5.69-6.413,12.066-12.158,18.233-18.106c6.527-5.209,13.048-10.7,20.892-13.842
		c3.045-1.166,5.807-2.938,8.705-4.417c13.622-6.167,27.835-10.925,42.119-15.312C368.844,312.144,378.209,310.003,387.646,308.313z
		"/>
</g>
<rect fill="none" width="886" height="885.998"/>
</svg>
