<?xml version="1.0" encoding="utf-8"?>
<!-- Generator: Adobe Illustrator 15.0.2, SVG Export Plug-In . SVG Version: 6.00 Build 0)  -->
<!DOCTYPE svg PUBLIC "-//W3C//DTD SVG 1.1 Basic//EN" "http://www.w3.org/Graphics/SVG/1.1/DTD/svg11-basic.dtd">
<svg version="1.1" baseProfile="basic" id="Layer_1"
	 xmlns="http://www.w3.org/2000/svg" xmlns:xlink="http://www.w3.org/1999/xlink" x="0px" y="0px" width="796px" height="766px"
	 viewBox="0 0 796 766" xml:space="preserve">
<g id="_x23_000000ff">
	<path fill="#FFFF22" d="M627.26,0h1.85c-1.64,11.91-4.89,23.521-7.479,35.25c-2.643,11.723-5.82,23.312-8.433,35.03
		c-2.777,10.03-6.027,19.94-7.92,30.19c-11.09,44.817-25.107,88.85-36.87,133.487c-3.87,14.17-8.31,28.16-12.237,42.312
		c-0.82,0.51-1.633,1.02-2.44,1.54c5.62,3.06,10.51,7.26,16,10.527c11.7,7.23,23.17,14.812,34.51,22.57
		c20.143,15.67,41.301,29.95,62.301,44.433c13.802,10.31,27.842,20.3,41.722,30.5c15.46,10.647,30.04,22.479,45.1,33.657
		c14.16,10.78,28.04,21.94,42.55,32.263c-0.027,0.438-0.09,1.33-0.119,1.77c-9.328-0.479-18.479,1.67-27.771,1.8
		c-3.46,0.07-6.89,0.433-10.29,0.99c-7.06,1.16-14.29,0.562-21.31,1.99c-6.093,1.26-12.383,0.75-18.461,2.07
		c-8.579,1.35-17.319,0.84-25.939,1.77c-10.28,1.26-20.72,0.562-30.95,2.312c-6.89,1.117-13.93,0.34-20.8,1.64
		c-7.3,1.32-14.78,0.81-22.08,2.1c-6.979,1.23-14.12,0.723-21.09,2c-8.05,1.393-16.28,0.812-24.32,2.223
		c-6.229,1.02-12.59,0.487-18.81,1.59c-7.9,1.52-15.99,1.25-23.972,2.06c-12.591,1.46-25.351,0.55-37.891,2.521
		c-2.56,0.29-5.12,0.479-7.68,0.688c-10.261,22.96-18.17,46.88-26.55,70.57c-3.513,11.51-8.46,22.5-12.36,33.87
		c-4.95,12.92-9.89,25.85-14.68,38.84c-6.393,15.32-13.08,30.53-18.88,46.09c-0.29,0.49-0.86,1.46-1.15,1.94
		c-4.51,11.83-9.1,23.63-13.89,35.35c-3.312,8.51-6.51,17.09-10.49,25.33c-5.21,11.479-9.74,23.26-14.97,34.729h-2.88
		c-5.67-11.75-9.07-24.399-13.87-36.5c-5.933-16.712-12.46-33.189-18.25-49.949c-7.42-20.4-15.4-40.59-23.15-60.87
		c-7.397-20-15.8-39.62-23.04-59.69c-3.39-9.88-7.647-19.43-11.06-29.3c-0.25-0.41-0.75-1.25-1-1.66c-0.62-1.85-1.29-3.67-2.05-5.46
		c-3.062-8.33-5.48-16.89-8.933-25.08c-15.147-0.76-30.357-0.04-45.47-1.607c-15.25-0.261-30.5-0.75-45.76-1.051
		c-8.04,0.158-15.973-1.521-24.021-1.142c-17.35-0.75-34.72-0.59-52.08-1.12c-9.909-1.357-19.92-0.647-29.87-1.29
		c-10.26-0.02-20.527-0.25-30.77-0.938c-11.22-1.4-22.55-0.87-33.82-1.54c-1.777-2.9-5.33-5.32-5.21-8.94
		c2.08-2.77,4.91-4.83,7.53-7.04c14.03-12,28.05-24,42.149-35.92c23.461-19.85,46.311-40.39,69.479-60.568
		c18.4-14.472,35.8-30.119,54.021-44.802c11.211-9.93,23.181-18.938,34.591-28.64c-4.37-18.78-10.03-37.24-14.87-55.91
		c-5.682-19.44-10.86-39.01-16.37-58.49c-7.38-26.74-15.94-53.13-23.75-79.74c-5.37-23.067-11.98-45.84-17.15-68.97
		c2.303,0.33,4.62,0.65,6.82,1.45c14.21,5.42,28.21,11.39,42.53,16.54c22.12,10.34,43.8,21.609,65.778,32.26
		c39.489,19.29,78.029,40.45,116.642,61.431c8.67,4.722,17.12,9.869,26.107,13.989c14.053-11.12,26.79-23.92,41.722-33.93
		c8.75-5.94,17.091-12.471,26.221-17.84c13.147-8.771,26.21-17.7,38.979-27.012c17.38-11.938,34.66-24.021,52.17-35.761
		c15.75-10.51,30.86-21.93,46.5-32.608C608.78,12.42,617.367,5.16,627.26,0z"/>
</g>
</svg>
