<?xml version="1.0" encoding="utf-8"?>
<!-- Generator: Adobe Illustrator 15.0.2, SVG Export Plug-In . SVG Version: 6.00 Build 0)  -->
<!DOCTYPE svg PUBLIC "-//W3C//DTD SVG 1.1 Basic//EN" "http://www.w3.org/Graphics/SVG/1.1/DTD/svg11-basic.dtd">
<svg version="1.1" baseProfile="basic" id="Layer_1"
	 xmlns="http://www.w3.org/2000/svg" xmlns:xlink="http://www.w3.org/1999/xlink" x="0px" y="0px" width="886px" height="886px"
	 viewBox="0 0 886 886" xml:space="preserve">
<g id="_x23_010101ff">
	<path fill="#00FFFF" d="M387.647,308.313c13.818-2.313,27.702-4.687,41.733-5.107c5.794,0.496,11.614,0.682,17.41,1.163
		c29.91,1.966,59.798,7.871,87.386,19.84c12.773,6.03,24.521,13.972,36.351,21.632c2.047,1.306,3.952,2.801,5.774,4.404
		c5.164,4.483,10.373,8.916,15.242,13.725c3.445,3.446,8.264,5.209,11.381,9.029c7.168,8.417,14.017,17.115,20.115,26.335
		c4.086,5.695,6.893,12.151,9.908,18.44c2.643,6.71,5.971,13.16,8.112,20.073c2.9,7.51,5.541,15.159,6.979,23.104
		c2.959,15.865,5.67,31.797,7.121,47.873c0.449,3.801-0.049,7.639,0.438,11.446c-0.291,14.615-2.416,29.118-3.715,43.662
		c-0.812,9.547-3.301,18.817-5.289,28.161c-3.553,13.791-9.01,26.993-14.695,40.022c-4.497,10.577-9.68,20.899-16.186,30.396
		c-4.564,6.674-9.191,13.37-14.959,19.086c-3.344,4.367-7.93,7.48-11.99,11.121c-4.223,3.766-8.705,7.227-13.334,10.476
		c-19.348,14.764-39.709,28.292-61.328,39.515c-0.893,34.742-2.489,69.468-4.483,104.165c-0.631,13.043-1.734,26.072-2.197,39.124
		H380.719c-0.195-18.483-1.292-36.94-2.068-55.41c-0.466-6.433-0.021-12.884-0.306-19.325c-0.354-8.451-0.188-16.917-0.324-25.375
		c-0.754-13.268,0.886-26.558-0.115-39.819c-0.401-3.505-0.878-6.994-1.222-10.498c-1.487-0.275-2.96-0.652-4.284-1.371
		c-18.203-9.526-36.272-19.312-53.974-29.728c-2.567-1.677-4.701-3.896-6.971-5.913c-9.06-8.115-17.563-16.837-25.76-25.811
		c-9.481-10.938-18.252-22.474-26.841-34.123c-2.061-2.749-3.229-6.007-4.759-9.053c-3.562-7.915-7.639-15.685-9.88-24.113
		c-2.829-7.905-5.107-16.018-6.726-24.258c-2.663-10.511-4.004-21.276-5.666-31.969c-0.515-7.182-0.958-14.38-0.958-21.575
		c-0.862-23.104-0.842-46.37,2.858-69.257c2.524-15.285,5.448-30.673,11.708-44.935c4.309-12.695,10.564-24.57,16.896-36.344
		c2.242-3.678,4.751-7.196,7.355-10.627c5.69-6.413,12.066-12.158,18.233-18.106c6.527-5.209,13.048-10.7,20.892-13.842
		c3.045-1.166,5.805-2.938,8.705-4.417c13.622-6.167,27.835-10.925,42.119-15.312C368.844,312.144,378.209,310.003,387.647,308.313z
		"/>
</g>
</svg>
