<?xml version="1.0" encoding="utf-8"?>
<!-- Generator: Adobe Illustrator 15.0.2, SVG Export Plug-In . SVG Version: 6.00 Build 0)  -->
<!DOCTYPE svg PUBLIC "-//W3C//DTD SVG 1.1 Basic//EN" "http://www.w3.org/Graphics/SVG/1.1/DTD/svg11-basic.dtd">
<svg version="1.1" baseProfile="basic" id="Layer_1"
	 xmlns="http://www.w3.org/2000/svg" xmlns:xlink="http://www.w3.org/1999/xlink" x="0px" y="0px" width="682.359px" height="261px"
	 viewBox="0 0 682.359 261" xml:space="preserve">
<g id="_x23_000000ff">
	<path fill="#FFFFEE" d="M330.92,2.15c6.649-0.67,13.38-0.21,19.979-1.37c4.021-0.77,8.03,0.48,12.051,0.56
		c7.97,0.47,16.14-0.58,23.909,1.74C401.44,6.05,416,9.16,430.32,13.19c25.86,7.37,49.88,19.73,73.86,31.61
		c15.96,10.05,31.46,20.9,46.41,32.4c12.607,10.14,25.688,19.71,37.89,30.35c9.09,9.23,17.479,19.11,26.22,28.66
		c5.07,5.601,10.13,11.19,14.92,17.03c5.562,6.109,10.96,12.369,16.17,18.789c1.49,1.921,2.95,3.871,4.48,5.771
		c5.43,7.261,11.02,14.4,16.42,21.681c4.13,6.16,8.57,12.119,13.05,18.039c1.11,1.451,1.87,3.121,2.62,4.791
		c-11.12,0.699-22.189,1.892-33.35,1.92c-31.36,0.049-62.723-0.121-94.07,0.66c-15.83,2.26-31.92,0.75-47.79,2.58
		c-10.01,1.059-20.11,0.289-30.08,1.771c-10.3,1.238-20.76,0.64-31.01,2.34c-6.33,0.979-12.76,0.312-19.08,1.277
		c-6.649,1.031-13.392,1.312-20.109,1.49c-5.881,0.19-11.641,1.471-17.511,1.75c-5.51,0.221-11.04,0.45-16.489,1.353
		c-7.58,1.188-15.32,0.51-22.86,2.062c-14.25,1.608-28.698,0.17-42.938,1.971c-14.979,0.43-29.97,0.647-44.939,1.438
		c-14.29,2.262-28.91,0.562-43.18,3.053c-6.391,0.709-12.86,0.43-19.221,1.447c-11.892,1.03-23.899,0.381-35.739,2.07
		c-8.73,1.1-17.591,0.537-26.301,1.898c-9.521,1.25-19.199,0.521-28.689,2.102c-7.58,1.25-15.319,0.561-22.92,1.697
		c-9.681,1.393-19.5,0.711-29.2,1.84c-10.93,1.441-21.988,1.041-32.96,1.973c-7.79,0.973-15.66,1.312-23.51,1.352
		c2.26-8.99,5.659-17.722,9.819-26c2.318-5.32,5.16-10.369,7.88-15.49c0.71-1.271,1.42-2.529,2.17-3.771
		c0.921-2,1.851-4,2.721-6.027c0.352-0.34,1.05-1.041,1.399-1.393c10.83-18.527,23.221-36.08,35.851-53.42
		c4.939-6.688,10.2-13.143,15.819-19.271c5.188-6.398,10.62-12.621,16.358-18.541c5.172-6.51,11.342-12.1,17.102-18.07
		c5.66-4.59,11.591-8.87,17.521-13.11c12.16-9.15,25.03-17.31,37.87-25.45c20.511-12.04,41.932-22.42,63.432-32.55
		c10.158-5.36,20.988-9.38,32.271-11.63c19.119-5.56,38.67-9.5,58.42-11.89C323.05,3.52,326.92,2.37,330.92,2.15z"/>
</g>
</svg>
