<?xml version="1.0" encoding="utf-8"?>
<!-- Generator: Adobe Illustrator 15.0.2, SVG Export Plug-In . SVG Version: 6.00 Build 0)  -->
<!DOCTYPE svg PUBLIC "-//W3C//DTD SVG 1.1//EN" "http://www.w3.org/Graphics/SVG/1.1/DTD/svg11.dtd">
<svg version="1.1" id="Layer_1" xmlns="http://www.w3.org/2000/svg" xmlns:xlink="http://www.w3.org/1999/xlink" x="0px" y="0px"
	 width="954.7px" height="344.331px" viewBox="0 0 954.7 344.331" enable-background="new 0 0 954.7 344.331" xml:space="preserve">
<g id="_x23_000000ff">
	<path fill="#FF00FF" d="M953.03,320.741l1.67,1.522c-14.566,2.459-29.406,3.004-44.059,4.887
		c-36.703,3.064-73.395,6.195-110.098,9.303c-16,0.082-31.979,1.135-47.961,1.809c-18.129,0.902-36.268,1.473-54.379,2.717
		c-13.693,0.211-27.34,1.303-40.996,2.332c-23.359,0.182-46.707,1.377-70.074,0.916c-9.203,0.314-18.379-0.66-27.58-0.514
		c-30.67,0.354-61.326-0.082-91.998-0.498c-18.919-0.102-37.824,0.631-56.745,0.396c-8.011,0.225-16.023-0.275-24.029,0.193
		c-18.191-0.141-36.374-0.396-54.562-0.6c-28.095-0.32-56.195-0.129-84.275-1.297c-38.006-0.652-76.029-0.859-114.03-1.832
		c-17.252-0.029-34.496-0.779-51.742-0.711c-27.44-0.654-54.899-1.895-82.171-5.09c3.077-17.614,5.491-35.344,8.554-52.969
		c2.231-12.809,3.883-25.712,6.628-38.417c3.003-19.222,7.593-38.14,10.978-57.281c1.993-10.47,4.014-20.926,5.972-31.399
		c2.498-15.803,5.556-31.526,9.383-47.064C46.65,82.91,52.635,58.869,58.65,34.843c3.294-11.677,5.958-23.699,11.45-34.579L70.341,0
		c48.867,14.732,96.912,32.002,145.479,47.653c20.154,6.76,40.297,13.564,60.563,19.98c21.195,7.668,42.537,14.956,63.906,22.121
		c5.338,1.566,10.104,4.721,15.71,5.402c11.313,3.56,22.399,7.86,33.291,12.564c9.409,3.854,19.274,6.419,28.79,9.963
		c22.201,8.599,44.598,16.686,66.95,24.894c20.811,7.197,41.336,15.215,62.104,22.535c10.715,3.8,21.701,6.859,32.203,11.236
		c16.871,6.741,34.107,12.532,51.197,18.678c35.365,12.887,70.865,25.392,106.41,37.791c39.035,15.243,78.066,30.51,116.889,46.286
		c17.451,6.771,34.742,13.932,51.963,21.279C921.437,307.41,937.19,314.205,953.03,320.741z"/>
</g>
</svg>
