<?xml version="1.0" encoding="utf-8"?>
<!-- Generator: Adobe Illustrator 15.0.2, SVG Export Plug-In . SVG Version: 6.00 Build 0)  -->
<!DOCTYPE svg PUBLIC "-//W3C//DTD SVG 1.1//EN" "http://www.w3.org/Graphics/SVG/1.1/DTD/svg11.dtd">
<svg version="1.1" id="Livello_1" xmlns="http://www.w3.org/2000/svg" xmlns:xlink="http://www.w3.org/1999/xlink" x="0px" y="0px"
	 width="130px" height="130px" viewBox="0 0 130 130" enable-background="new 0 0 130 130" xml:space="preserve">
<rect fill="none" width="130" height="130"/>
<path d="M21.597,60.509H8.481l-1.264,3.973l0.745,0.271c1.016-1.964,2.709-3.364,5.011-3.364c0.926,0,0.949,0.385,0.949,1.152v9.82
	c0,0.587,0.022,1.558-0.248,2.099c-0.316,0.657-1.039,0.679-1.671,0.724l-0.429,0.021v0.678h6.999v-0.699h-0.475
	c-0.654-0.045-1.4-0.067-1.715-0.791c-0.226-0.543-0.204-1.445-0.204-2.031v-9.708c0-0.79-0.068-1.286,0.881-1.286
	c2.212,0,4.018,1.49,4.988,3.386l0.813-0.271L21.597,60.509L21.597,60.509z"/>
<path d="M28.662,64.729c-3.477,0-5.441,2.438-5.441,5.802c0,3.318,2.168,5.531,5.508,5.531c3.409,0,5.531-2.213,5.531-5.621
	c0-1.514-0.542-3.207-1.648-4.291C31.575,65.137,30.062,64.729,28.662,64.729L28.662,64.729z M28.82,65.634
	c1.107,0,2.054,0.722,2.529,1.692c0.474,0.947,0.563,2.258,0.563,3.296c0,1.987-0.563,4.538-3.025,4.538
	c-2.687,0-3.319-2.506-3.319-4.696C25.569,68.389,26.202,65.588,28.82,65.634L28.82,65.634z"/>
<path d="M39.653,74.957c0.971,0.744,2.123,1.105,3.387,1.105c3.318,0,5.148-2.596,5.148-5.713c0-3.048-1.693-5.622-4.967-5.622
	c-1.444,0-2.687,0.633-3.567,1.67v-1.443h-0.722l-3.454,0.497v0.678h0.361c1.422,0.09,1.648,0.927,1.648,2.188v9.844
	c0,1.354-0.248,2.1-1.716,2.188h-0.203v0.678h6.23V80.35l-0.452-0.021c-1.467-0.067-1.693-0.79-1.693-2.167V74.957L39.653,74.957z
	 M39.653,67.552c0.632-0.993,1.716-1.715,2.958-1.715c2.641,0,3.228,2.505,3.228,4.649c0,2.304-0.835,4.492-3.454,4.492
	c-1.084,0-2.008-0.451-2.732-1.151V67.552L39.653,67.552z"/>
<path d="M53.647,64.955h-0.722l-3.454,0.497v0.678h0.36c1.423,0.091,1.648,0.927,1.648,2.188v4.697c0,1.377-0.225,2.101-1.715,2.189
	H49.56v0.677h5.96v-0.677h-0.271c-1.399-0.113-1.603-0.947-1.603-2.189L53.647,64.955L53.647,64.955z M53.941,62.518
	c0-0.768-0.564-1.4-1.354-1.4c-0.7,0-1.354,0.609-1.354,1.31c0,0.768,0.542,1.4,1.332,1.4
	C53.287,63.827,53.941,63.263,53.941,62.518L53.941,62.518z"/>
<path d="M60.417,74.957c0.972,0.744,2.123,1.105,3.386,1.105c3.318,0,5.148-2.596,5.148-5.713c0-3.048-1.692-5.622-4.967-5.622
	c-1.444,0-2.688,0.633-3.567,1.67v-1.443h-0.722l-3.454,0.497v0.678h0.362c1.422,0.09,1.648,0.927,1.648,2.188v9.844
	c0,1.354-0.248,2.1-1.716,2.188h-0.203v0.678h6.23V80.35l-0.453-0.021c-1.467-0.067-1.693-0.79-1.693-2.167L60.417,74.957
	L60.417,74.957z M60.417,67.552c0.633-0.993,1.716-1.715,2.958-1.715c2.641,0,3.229,2.505,3.229,4.649
	c0,2.304-0.836,4.492-3.455,4.492c-1.084,0-2.01-0.451-2.731-1.151V67.552L60.417,67.552z"/>
<path d="M74.412,64.955h-0.723l-3.455,0.497v0.678h0.361c1.42,0.091,1.646,0.927,1.646,2.188v4.697c0,1.377-0.226,2.101-1.714,2.189
	h-0.205v0.677h5.961v-0.677h-0.271c-1.4-0.113-1.603-0.947-1.603-2.189v-8.062L74.412,64.955L74.412,64.955z M74.705,62.518
	c0-0.768-0.564-1.4-1.354-1.4c-0.701,0-1.355,0.609-1.355,1.31c0,0.768,0.543,1.4,1.332,1.4
	C74.051,63.827,74.705,63.263,74.705,62.518L74.705,62.518z"/>
<path d="M84.273,64.955H81.07v-4.13H80.1c0,2.213-0.498,4.04-3.092,4.13v0.723h1.896v7.383c0,0.994,0.091,1.873,0.992,2.461
	c0.633,0.384,1.489,0.541,2.234,0.541c1.219,0,2.438-0.451,3.184-1.468L84.751,74.1c-0.541,0.541-1.151,0.993-1.964,0.993
	c-1.717,0-1.717-1.807-1.717-3.069V65.68h3.207v-0.725H84.273L84.273,64.955z"/>
<path d="M92.854,64.955h-3.207v-4.13h-0.971c0,2.213-0.496,4.04-3.092,4.13v0.723h1.896v7.383c0,0.994,0.093,1.873,0.996,2.461
	c0.629,0.384,1.488,0.541,2.233,0.541c1.22,0,2.438-0.451,3.183-1.468L93.33,74.1c-0.542,0.541-1.153,0.993-1.965,0.993
	c-1.717,0-1.717-1.807-1.717-3.069V65.68h3.205V64.955L92.854,64.955z"/>
<path d="M99.984,64.729c-3.476,0-5.438,2.438-5.438,5.802c0,3.318,2.168,5.531,5.507,5.531c3.409,0,5.531-2.213,5.531-5.621
	c0-1.514-0.542-3.207-1.646-4.291C102.896,65.137,101.387,64.729,99.984,64.729L99.984,64.729z M100.145,65.634
	c1.104,0,2.054,0.722,2.527,1.692c0.473,0.947,0.564,2.258,0.564,3.296c0,1.987-0.564,4.538-3.025,4.538
	c-2.688,0-3.318-2.506-3.318-4.696C96.893,68.389,97.523,65.588,100.145,65.634L100.145,65.634z"/>
<path d="M110.977,67.643c0.498-0.543,1.444-1.242,2.213-1.242c0.701,0,0.947,0.746,2.009,0.746c0.7,0,1.241-0.498,1.241-1.222
	c0-0.902-0.926-1.196-1.67-1.196c-1.513,0-2.799,0.905-3.793,1.919v-1.692h-0.723l-3.454,0.497v0.678h0.359
	c1.42,0.09,1.647,0.926,1.647,2.189v4.695c0,1.399-0.248,2.101-1.74,2.188h-0.246v0.678h6.207v-0.678l-0.383-0.021
	c-1.444-0.068-1.627-0.883-1.67-2.17L110.977,67.643L110.977,67.643z"/>
<path d="M120.909,64.955h-0.722l-3.455,0.497v0.678h0.361c1.42,0.091,1.646,0.927,1.646,2.188v4.697
	c0,1.377-0.227,2.101-1.719,2.189h-0.201v0.677h5.959v-0.677h-0.271c-1.398-0.113-1.604-0.947-1.604-2.189v-8.062L120.909,64.955
	L120.909,64.955z M121.203,62.518c0-0.768-0.564-1.4-1.354-1.4c-0.699,0-1.354,0.609-1.354,1.31c0,0.768,0.543,1.4,1.333,1.4
	C120.548,63.827,121.203,63.263,121.203,62.518L121.203,62.518z"/>
<path d="M95.34,53.859v1.234h33.426v28.229H1.236V55.094h28.639c-0.007,0.023-0.012,0.039-0.012,0.039H61.42
	c0,0-4.912-3.246-10.392-6.003c0.156-0.353,0.242-0.742,0.242-1.153c0-1.583-1.284-2.866-2.866-2.866
	c-1.156,0-2.152,0.685-2.605,1.669c-2.562-0.983-4.944-1.591-6.682-1.426c-5.033,0.479-7.784,5.968-8.795,8.504H0v30.699h130v-30.7
	H95.341L95.34,53.859L95.34,53.859z M51.593,50.905c0.606,0,1.098,0.492,1.098,1.098s-0.492,1.098-1.098,1.098
	c-0.606,0-1.098-0.491-1.098-1.098C50.497,51.397,50.987,50.905,51.593,50.905z"/>
<path d="M79.505,52.003c0-0.605-0.491-1.098-1.099-1.098c-0.604,0-1.096,0.492-1.096,1.098s0.49,1.098,1.096,1.098
	C79.014,53.101,79.505,52.609,79.505,52.003L79.505,52.003z M100.139,55.133c0,0-2.688-9.154-9.254-9.778
	c-1.738-0.165-4.119,0.442-6.681,1.426c-0.453-0.985-1.45-1.669-2.604-1.669c-1.584,0-2.865,1.283-2.865,2.866
	c0,0.411,0.084,0.8,0.24,1.153c-5.48,2.757-10.392,6.003-10.392,6.003L100.139,55.133L100.139,55.133z"/>
</svg>
